<?xml version="1.0" encoding="UTF-8" standalone="no"?>
<!-- Created with Inkscape (http://www.inkscape.org/) -->

<svg
   xmlns:osb="http://www.openswatchbook.org/uri/2009/osb"
   xmlns:dc="http://purl.org/dc/elements/1.1/"
   xmlns:cc="http://creativecommons.org/ns#"
   xmlns:rdf="http://www.w3.org/1999/02/22-rdf-syntax-ns#"
   xmlns:svg="http://www.w3.org/2000/svg"
   xmlns="http://www.w3.org/2000/svg"
   xmlns:xlink="http://www.w3.org/1999/xlink"
   xmlns:sodipodi="http://sodipodi.sourceforge.net/DTD/sodipodi-0.dtd"
   xmlns:inkscape="http://www.inkscape.org/namespaces/inkscape"
   width="576"
   height="864"
   id="svg2"
   version="1.1"
   inkscape:version="0.92.1 r15371"
   sodipodi:docname="p017.svg"
   inkscape:export-filename="p017.png"
   inkscape:export-xdpi="300"
   inkscape:export-ydpi="300">
  <defs
     id="defs4">
    <linearGradient
       id="linearGradient4331"
       osb:paint="solid">
      <stop
         style="stop-color:#fffbf7;stop-opacity:1;"
         offset="0"
         id="stop4333" />
    </linearGradient>
    <filter
       style="color-interpolation-filters:sRGB"
       inkscape:label="Drop Shadow"
       id="filter3945">
      <feFlood
         flood-opacity="0.752941"
         flood-color="rgb(0,0,0)"
         result="flood"
         id="feFlood3947" />
      <feComposite
         in="flood"
         in2="SourceGraphic"
         operator="in"
         result="composite1"
         id="feComposite3949" />
      <feGaussianBlur
         in="composite1"
         stdDeviation="2"
         result="blur"
         id="feGaussianBlur3951" />
      <feOffset
         dx="3"
         dy="3"
         result="offset"
         id="feOffset3953" />
      <feComposite
         in="SourceGraphic"
         in2="offset"
         operator="over"
         result="composite2"
         id="feComposite3955" />
    </filter>
    <filter
       style="color-interpolation-filters:sRGB"
       inkscape:label="Drop Shadow"
       id="filter3957">
      <feFlood
         flood-opacity="0.752941"
         flood-color="rgb(0,0,0)"
         result="flood"
         id="feFlood3959" />
      <feComposite
         in="flood"
         in2="SourceGraphic"
         operator="in"
         result="composite1"
         id="feComposite3961" />
      <feGaussianBlur
         in="composite1"
         stdDeviation="2"
         result="blur"
         id="feGaussianBlur3963" />
      <feOffset
         dx="3"
         dy="3"
         result="offset"
         id="feOffset3965" />
      <feComposite
         in="SourceGraphic"
         in2="offset"
         operator="over"
         result="composite2"
         id="feComposite3967" />
    </filter>
    <filter
       style="color-interpolation-filters:sRGB"
       inkscape:label="Drop Shadow"
       id="filter3969">
      <feFlood
         flood-opacity="0.752941"
         flood-color="rgb(0,0,0)"
         result="flood"
         id="feFlood3971" />
      <feComposite
         in="flood"
         in2="SourceGraphic"
         operator="in"
         result="composite1"
         id="feComposite3973" />
      <feGaussianBlur
         in="composite1"
         stdDeviation="2"
         result="blur"
         id="feGaussianBlur3975" />
      <feOffset
         dx="3"
         dy="3"
         result="offset"
         id="feOffset3977" />
      <feComposite
         in="SourceGraphic"
         in2="offset"
         operator="over"
         result="composite2"
         id="feComposite3979" />
    </filter>
    <filter
       style="color-interpolation-filters:sRGB"
       inkscape:label="Drop Shadow"
       id="filter3981">
      <feFlood
         flood-opacity="0.752941"
         flood-color="rgb(0,0,0)"
         result="flood"
         id="feFlood3983" />
      <feComposite
         in="flood"
         in2="SourceGraphic"
         operator="in"
         result="composite1"
         id="feComposite3985" />
      <feGaussianBlur
         in="composite1"
         stdDeviation="2"
         result="blur"
         id="feGaussianBlur3987" />
      <feOffset
         dx="3"
         dy="3"
         result="offset"
         id="feOffset3989" />
      <feComposite
         in="SourceGraphic"
         in2="offset"
         operator="over"
         result="composite2"
         id="feComposite3991" />
    </filter>
  </defs>
  <sodipodi:namedview
     id="base"
     pagecolor="#ffffff"
     bordercolor="#00ff66"
     borderopacity="1"
     inkscape:pageopacity="0.0"
     inkscape:pageshadow="2"
     inkscape:zoom="0.88310185"
     inkscape:cx="246.75133"
     inkscape:cy="439.45207"
     inkscape:document-units="px"
     inkscape:current-layer="layer1"
     showgrid="false"
     units="px"
     inkscape:window-width="1909"
     inkscape:window-height="991"
     inkscape:window-x="0"
     inkscape:window-y="28"
     inkscape:window-maximized="1"
     borderlayer="true" />
  <metadata
     id="metadata7">
    <rdf:RDF>
      <cc:Work
         rdf:about="">
        <dc:format>image/svg+xml</dc:format>
        <dc:type
           rdf:resource="http://purl.org/dc/dcmitype/StillImage" />
        <dc:title />
      </cc:Work>
    </rdf:RDF>
  </metadata>
  <g
     inkscape:label="Layer 1"
     inkscape:groupmode="layer"
     id="layer1"
     transform="translate(0,-258.51947)">
    <g
       id="g3384"
       transform="matrix(0.21862348,0,0,0.21862348,2.3466667e-6,280.44012)"
       sodipodi:insensitive="true">
      <rect
         height="864"
         width="576"
         y="258.51947"
         x="0"
         id="rect3382"
         style="opacity:1;fill:#ffffff;fill-opacity:1;fill-rule:nonzero;stroke:none;stroke-width:4.26666689;stroke-linecap:round;stroke-linejoin:round;stroke-miterlimit:4;stroke-dasharray:none;stroke-dashoffset:0;stroke-opacity:1" />
      <image
         sodipodi:absref="/home/muksihs/Documents/ᏣᎳᎩ/Lessons/Cherokee Language Lessons-Volume 1/comics/mi-ma-ale-mo-uniyo-wesa/src.svg/017.png"
         xlink:href="017.png"
         preserveAspectRatio="none"
         style="image-rendering:optimizeSpeed"
         id="image3379"
         x="0"
         y="0"
         width="2634.6667"
         height="3751.4666" />
    </g>
    <text
       transform="rotate(-6.8357915)"
       id="text4567"
       y="710.849"
       x="176.15964"
       style="font-style:normal;font-variant:normal;font-weight:500;font-stretch:normal;font-size:12.80000019px;line-height:0%;font-family:Cherokeehandlines;-inkscape-font-specification:'Cherokeehandlines Medium';text-align:start;letter-spacing:0px;word-spacing:0px;writing-mode:lr-tb;text-anchor:start;fill:#000000;fill-opacity:1;stroke:#000000;stroke-width:0.55306834;stroke-linecap:butt;stroke-linejoin:miter;stroke-miterlimit:4;stroke-dasharray:none;stroke-opacity:1"
       xml:space="preserve"><tspan
         id="tspan4569"
         y="710.849"
         x="176.15964"
         sodipodi:role="line"
         style="font-size:15.81991005px;line-height:1;stroke-width:0.55306834">ᎤᏂᏲ ᏪᏌ</tspan></text>
    <g
       id="g3433"
       style="fill:#ff0000;fill-opacity:1"
       transform="matrix(1.0370032,0,0,1.0370032,-10.862081,-24.748375)">
      <path
         inkscape:connector-curvature="0"
         id="path3389"
         d="m 267.97017,673.93308 c -0.59983,0.006 -1.15024,0.37162 -1.75124,0.23113 -1.23508,0.002 -2.46528,0.1765 -3.68571,0.35476 -0.58333,0.0716 -1.20399,0.27323 -1.53664,0.79465 -0.39927,0.49882 -0.26107,1.18533 -0.29377,1.77548 0.0331,1.4255 0.006,2.865 0.25161,4.27427 0.12062,0.5708 0.60524,0.96411 0.98339,1.37241 0.22673,0.19516 0.44281,0.4494 0.72116,0.55016 1.90315,-0.0432 3.81369,-0.0383 5.70742,-0.25143 0.37347,-0.0544 0.57071,-0.44302 0.82292,-0.68141 0.41633,-0.53519 0.93759,-1.05369 1.08243,-1.73882 0.10326,-0.83897 -0.13949,-1.66976 -0.13205,-2.50715 -0.0629,-0.94555 -0.0238,-1.90076 -0.13943,-2.84114 -0.14481,-0.41576 -0.63795,-0.534 -0.95893,-0.77962 -0.34748,-0.17599 -0.66331,-0.54215 -1.07116,-0.55329 z m -1.74301,1.05981 c 0.56341,0.0543 1.06307,0.4089 1.48386,0.7693 0.3984,0.459 0.39196,1.1134 0.53113,1.67432 0.1101,0.70967 0.26804,1.43177 0.24152,2.14529 -0.1862,0.74813 -0.45982,1.49068 -0.84006,2.16382 -0.26184,0.33274 -0.75434,0.21801 -1.12095,0.2776 -0.8019,0.0158 -1.61774,0.13441 -2.40783,-0.0445 -0.49541,-0.19381 -0.83884,-0.63241 -1.17572,-1.02631 -0.54199,-0.69085 -0.41156,-1.62222 -0.37882,-2.4383 -0.0108,-0.41512 0.10336,-0.86704 -0.0613,-1.26079 -0.22324,-0.11063 -0.15758,-0.40107 -0.10272,-0.59762 0.1176,-0.36038 0.29373,-0.73938 0.59815,-0.97448 1.02356,-0.30667 2.07806,-0.52232 3.13453,-0.68209 0.0327,-0.003 0.0654,-0.006 0.0982,-0.006 z"
         style="opacity:1;fill:#ff0000;fill-opacity:1;fill-rule:evenodd;stroke:#000000;stroke-width:0.02193116;stroke-linecap:round;stroke-linejoin:round;stroke-miterlimit:4;stroke-dasharray:none;stroke-dashoffset:0;stroke-opacity:1" />
      <path
         inkscape:connector-curvature="0"
         id="path3391"
         d="m 272.52594,673.80843 c -0.36477,0.032 -0.76093,0.041 -1.09296,0.20064 -0.10389,0.24933 0.13735,0.49273 0.37377,0.53833 0.3957,0.12646 0.84329,0.43415 0.77187,0.90304 -0.0461,0.64622 0.0125,1.34309 -0.32151,1.92257 -0.18209,0.28667 -0.54805,0.33178 -0.84683,0.34113 -0.006,0.23649 -0.045,0.52157 0.0877,0.7329 0.3382,-0.0454 0.65337,-0.25141 0.99293,-0.32423 0.25068,-0.10251 0.55983,-0.0837 0.7906,-0.21376 0.20968,-1.12702 0.28884,-2.28281 0.28229,-3.42324 -0.3076,-0.27332 -0.55582,-0.74731 -1.0378,-0.67738 z"
         style="opacity:1;fill:#ff0000;fill-opacity:1;fill-rule:evenodd;stroke:#000000;stroke-width:0.02193116;stroke-linecap:round;stroke-linejoin:round;stroke-miterlimit:4;stroke-dasharray:none;stroke-dashoffset:0;stroke-opacity:1" />
      <path
         inkscape:connector-curvature="0"
         id="path3393"
         d="m 277.15865,671.94814 c -0.57619,0.0322 -1.15511,0.071 -1.72572,0.15496 -0.0845,0.15695 0.10048,0.34806 0.12675,0.51195 0.38405,1.04014 0.46651,2.16001 0.75083,3.23097 0.27012,1.04144 0.57518,2.0801 0.61145,3.16044 0.0459,0.86724 0.0877,1.73932 -0.0717,2.59884 -0.01,0.13625 -0.0737,0.42423 0.15155,0.40461 0.55623,-0.0258 1.10982,-0.11313 1.65486,-0.22565 0.10871,-0.31671 -0.0244,-0.68839 -0.0495,-1.02449 -0.11777,-0.89557 -0.34103,-1.80294 -0.27643,-2.70526 0.0404,-0.44137 0.57734,-0.45632 0.90612,-0.53997 0.68516,-0.10635 1.38282,-0.25252 2.07386,-0.16483 0.50768,0.16498 0.60516,0.77351 0.70865,1.22103 0.14833,0.9425 0.22761,1.90489 0.27817,2.8466 0.6276,-0.0688 1.29074,-0.17222 1.85533,-0.48154 0.24258,-0.14808 0.0416,-0.47042 0.0614,-0.69023 -0.18085,-1.39748 -0.37242,-2.80196 -0.74404,-4.16307 -0.26876,-0.66502 -1.07095,-0.83486 -1.71386,-0.84693 -1.00426,-0.0353 -1.97443,0.25634 -2.94496,0.46562 -0.35528,0.0893 -0.68287,-0.188 -0.76477,-0.52249 -0.32134,-0.99559 -0.19172,-2.06549 -0.41617,-3.07987 -0.0763,-0.18452 -0.31461,-0.14055 -0.47195,-0.15069 z"
         style="opacity:1;fill:#ff0000;fill-opacity:1;fill-rule:evenodd;stroke:#000000;stroke-width:0.02193116;stroke-linecap:round;stroke-linejoin:round;stroke-miterlimit:4;stroke-dasharray:none;stroke-dashoffset:0;stroke-opacity:1" />
      <path
         inkscape:connector-curvature="0"
         id="path3395"
         d="m 291.02925,670.03455 c -1.37865,0.0427 -2.77359,0.49359 -3.85176,1.36659 -0.74619,0.60539 -1.00078,1.60946 -0.97083,2.53373 -0.0762,1.58881 0.3846,3.13432 0.48817,4.70804 0.067,0.72535 0.083,1.46154 0.16363,2.18177 0.13808,0.0876 0.33639,-0.0661 0.49432,-0.0452 0.49359,-0.0963 1.02962,-0.11025 1.48189,-0.34132 0.0822,-0.19013 -0.0507,-0.41891 -0.0334,-0.62188 -0.0784,-0.9439 -0.25627,-1.96937 0.21389,-2.84015 0.29358,-0.4555 0.71397,-0.90373 1.27021,-1.00703 0.64937,-0.11568 1.37664,0.0658 1.82614,0.58121 0.66669,0.68614 1.02102,1.65415 0.96425,2.60189 0.007,0.29457 -0.0677,0.59006 -0.0427,0.87964 0.48636,-0.0496 0.99503,-0.0693 1.48061,-0.17322 0.3205,-0.096 0.2309,-0.50426 0.23224,-0.75842 -0.12441,-1.22446 -0.4069,-2.44301 -0.88256,-3.57975 -0.4388,-0.91048 -1.50813,-1.37056 -2.48215,-1.3488 -0.96585,-0.002 -2.04142,0.28868 -2.62053,1.11818 -0.0617,0.18439 -0.15385,0.4937 -0.41746,0.39201 -0.30884,-0.10761 -0.15755,-0.46695 -0.19109,-0.71524 0.0202,-0.89314 -0.098,-1.84011 0.33047,-2.66481 0.32946,-0.71218 1.1673,-1.02776 1.90879,-0.94064 0.85099,0.03 1.59175,0.53464 2.18746,1.10881 0.23613,0.23624 0.572,0.0123 0.8207,-0.0854 0.39838,-0.23481 0.40448,-0.80815 0.18265,-1.16972 -0.28812,-0.60028 -0.89411,-0.98329 -1.53987,-1.08967 -0.33259,-0.0703 -0.67363,-0.0955 -1.01313,-0.0906 z"
         style="opacity:1;fill:#ff0000;fill-opacity:1;fill-rule:evenodd;stroke:#000000;stroke-width:0.02193116;stroke-linecap:round;stroke-linejoin:round;stroke-miterlimit:4;stroke-dasharray:none;stroke-dashoffset:0;stroke-opacity:1" />
      <path
         inkscape:connector-curvature="0"
         id="path3397"
         d="m 313.41975,667.91331 c -0.66021,0.0491 -1.36252,0.0581 -1.96566,0.36067 -0.37101,0.20468 -0.56292,0.63332 -0.51067,1.04858 -0.0339,0.9083 0.31053,1.76919 0.44839,2.65495 0.0874,0.46847 0.33171,1.07037 0.88453,1.10488 0.44404,0.074 0.92686,-0.0646 1.34295,0.13167 0.28736,0.29644 0.006,0.71166 -0.0732,1.03881 -0.23473,0.78414 -0.43626,1.68774 -1.18359,2.14874 -0.48525,0.29074 -0.98439,0.6048 -1.54434,0.72758 -0.57843,0.0567 -1.03795,-0.41688 -1.50961,-0.68289 -0.3138,-0.24532 -0.74026,-0.31521 -1.0297,-0.58731 -0.30874,-0.47557 0.0337,-1.06252 0.32644,-1.46411 0.27546,-0.39343 0.69455,-0.72722 0.81484,-1.20695 -0.0218,-0.6224 -0.11086,-1.23932 -0.11711,-1.86709 0.0134,-0.9325 -0.54371,-1.7409 -1.07131,-2.4624 -0.29906,-0.38139 -0.72604,-0.82517 -1.26239,-0.70234 -0.69484,0.12962 -1.40251,0.26212 -2.05818,0.53097 -0.66839,0.42142 -1.14989,1.10974 -1.43392,1.83759 -0.0835,0.73602 -0.003,1.48361 -0.0107,2.22361 0.0274,0.40362 -0.0611,0.88394 0.27338,1.18987 0.55492,0.66947 1.10665,1.3478 1.72618,1.95846 0.26881,0.21499 0.65368,0.39491 0.74858,0.75166 -0.0909,0.40082 -0.44735,0.6786 -0.69494,0.98752 -0.24463,0.30011 -0.5722,0.57159 -0.98306,0.55023 -0.67641,0.01 -1.44275,0.0983 -2.02486,-0.32915 -0.25114,-0.2762 -0.16514,-0.6856 -0.11907,-1.02073 0.0596,-0.42546 0.51035,-0.54057 0.8638,-0.61759 0.2633,-0.029 0.13956,-0.32468 0.11562,-0.49057 -0.0725,-0.20731 -0.0447,-0.49496 -0.21106,-0.65062 -0.54539,-0.0763 -1.11381,-0.0401 -1.65353,0.0686 -0.31398,-0.0168 -0.3466,0.24176 -0.33629,0.49166 -0.0226,0.76845 -0.0325,1.55118 0.11633,2.30809 0.13044,0.45945 0.49254,0.82233 0.85103,1.11788 0.49098,0.0931 1.00267,-0.0187 1.49847,-0.045 1.05338,-0.12631 2.12586,-0.21369 3.14383,-0.52643 0.50139,-0.24726 0.60577,-0.86914 0.93322,-1.27052 0.21677,-0.33893 0.70379,-0.44909 1.02388,-0.18816 0.42609,0.2738 0.73344,0.70166 1.12046,1.01629 0.83641,-0.0833 1.68381,-0.14084 2.50572,-0.31295 0.42149,-0.35491 0.65315,-0.88568 1.07578,-1.24524 0.32574,-0.37997 0.81657,-0.64089 1.01573,-1.11613 0.12158,-0.6452 0.0593,-1.3126 0.0912,-1.96643 0.006,-1.13592 0.0214,-2.27863 -0.18836,-3.4001 -0.113,-0.68636 -0.18026,-1.38365 -0.35636,-2.05768 -0.15648,-0.0867 -0.40064,-0.019 -0.58255,-0.038 z m 0.16312,1.10564 c 0.36778,0.54223 0.39515,1.2336 0.42029,1.8639 -0.011,0.50242 -0.0228,1.18692 -0.55264,1.4358 -0.5169,0.2105 -1.04061,-0.2047 -1.3767,-0.55239 -0.28634,-0.34903 -0.14175,-0.84059 -0.19078,-1.25238 0.0273,-0.47865 -0.0708,-0.98294 0.0757,-1.44138 0.19232,-0.26336 0.57914,-0.14183 0.85727,-0.18513 0.25253,0.0464 0.61864,-0.14248 0.76684,0.13158 z m -6.36989,0.67002 c 0.24379,-0.0367 0.22509,0.27962 0.434,0.32571 0.57948,0.24823 0.67632,0.9559 0.64876,1.50289 -0.031,1.09082 -0.52375,2.09094 -0.85565,3.11199 -0.0672,0.26196 -0.36364,0.44148 -0.61287,0.29565 -0.75339,-0.41048 -1.41275,-0.97904 -2.04775,-1.55574 -0.34901,-0.26118 -0.27229,-0.74305 -0.28313,-1.12124 0.0316,-0.78502 0.26997,-1.60389 0.81326,-2.19003 0.48275,-0.36834 1.13367,-0.31611 1.70807,-0.36659 0.0697,-0.003 0.12727,-0.004 0.19531,-0.002 z"
         style="opacity:1;fill:#ff0000;fill-opacity:1;fill-rule:evenodd;stroke:#000000;stroke-width:0.02193116;stroke-linecap:round;stroke-linejoin:round;stroke-miterlimit:4;stroke-dasharray:none;stroke-dashoffset:0;stroke-opacity:1" />
      <path
         inkscape:connector-curvature="0"
         id="path3399"
         d="m 325.63353,665.90619 c -0.6293,0.11286 -1.27643,0.0881 -1.90253,0.2002 -0.20006,0.20415 -0.0916,0.54315 -0.0995,0.79872 0.094,1.16988 0.36861,2.32778 0.4379,3.49371 -0.0207,0.31517 -0.44744,0.29629 -0.66557,0.35655 -1.32043,0.19596 -2.67735,0.19636 -3.98779,0.4453 -0.3868,0.024 -0.4904,-0.44127 -0.4644,-0.74223 -0.0382,-1.03486 0.0415,-2.07775 -0.0515,-3.10994 -0.0504,-0.2498 -0.23539,-0.5154 -0.52412,-0.46604 -0.58205,0.0427 -1.16284,0.12605 -1.73454,0.24373 -0.0941,0.29569 -3.3e-4,0.65425 -0.0218,0.97426 -0.0114,1.2093 0.14518,2.40902 0.34643,3.5989 0.17807,1.02991 0.20259,2.13507 0.72526,3.06746 0.51836,0.73425 1.25597,1.27843 1.97869,1.79638 0.45071,0.18466 0.96115,0.057 1.43038,0.024 0.86391,-0.15149 1.74479,-0.16018 2.60958,-0.29673 0.65007,-0.0892 1.07401,-0.64265 1.37714,-1.1742 0.2816,-0.52112 0.64755,-0.98609 0.94276,-1.49703 0.27152,-0.59818 -0.031,-1.24446 -0.005,-1.86192 -0.0381,-1.93079 -0.099,-3.86633 -0.27295,-5.79103 -0.006,-0.0612 -0.0692,-0.0684 -0.11789,-0.0602 z m -1.92411,6.15186 c 0.24508,-0.0272 0.51125,0.11586 0.51049,0.38594 0.0497,0.46864 0.13891,0.9526 0.0969,1.41678 -0.22259,0.4357 -0.71062,0.65015 -1.06914,0.95383 -0.54216,0.43783 -1.23181,0.60177 -1.91549,0.62273 -0.51004,0.0819 -0.98482,-0.14068 -1.41471,-0.39767 -0.35101,-0.1744 -0.73877,-0.42124 -0.77067,-0.85489 -0.0478,-0.37488 -0.11739,-0.7523 -0.18882,-1.1232 -0.0245,-0.35808 0.38177,-0.47453 0.65495,-0.54348 1.28018,-0.19971 2.57191,-0.3543 3.86124,-0.45645 0.0827,-0.003 0.15419,-0.005 0.23534,-0.003 z"
         style="opacity:1;fill:#ff0000;fill-opacity:1;fill-rule:evenodd;stroke:#000000;stroke-width:0.02193116;stroke-linecap:round;stroke-linejoin:round;stroke-miterlimit:4;stroke-dasharray:none;stroke-dashoffset:0;stroke-opacity:1" />
      <path
         inkscape:connector-curvature="0"
         id="path3401"
         d="m 313.67719,667.89901 c -0.77019,0.039 -1.6061,0.01 -2.29446,0.40821 -0.32165,0.23507 -0.50683,0.62545 -0.45566,1.02442 0.0201,0.99235 0.29786,1.95513 0.52728,2.91394 0.09,0.40552 0.37171,0.82693 0.82654,0.84297 0.45721,0.0668 0.98338,-0.0718 1.38045,0.21597 0.16181,0.27086 -0.0622,0.58117 -0.10357,0.86238 -0.2551,0.75666 -0.42645,1.66469 -1.12161,2.15027 -0.52115,0.32903 -1.07333,0.70572 -1.69225,0.777 -0.59659,0.022 -1.03274,-0.47863 -1.53527,-0.72185 -0.31039,-0.22641 -0.76483,-0.29718 -0.97311,-0.64226 -0.1904,-0.67016 0.33101,-1.24901 0.71595,-1.73728 0.28277,-0.30923 0.52756,-0.69437 0.46834,-1.13288 -0.0542,-0.76565 -0.0522,-1.54553 -0.22068,-2.29677 -0.29151,-0.82698 -0.78166,-1.59763 -1.42673,-2.19337 -0.42927,-0.4095 -1.05366,-0.17242 -1.55746,-0.0831 -0.69127,0.13996 -1.43086,0.32872 -1.90467,0.89361 -0.38069,0.39687 -0.67793,0.88848 -0.8695,1.39537 0.0294,1.00371 -0.0365,2.0153 0.073,3.01425 0.36598,0.60783 0.87355,1.12358 1.32966,1.66548 0.35271,0.43332 0.79872,0.77259 1.20202,1.15216 0.14295,0.13461 0.16907,0.3641 0.0317,0.51838 -0.31069,0.42778 -0.6593,0.85036 -1.10195,1.13862 -0.48441,0.1817 -1.01391,0.1007 -1.52088,0.0857 -0.39081,-0.051 -0.95665,-0.13618 -1.06349,-0.59394 -0.0267,-0.34842 -0.0438,-0.77749 0.21023,-1.05912 0.22143,-0.21707 0.5898,-0.16763 0.81154,-0.36401 0.0124,-0.33738 -0.0492,-0.7002 -0.19447,-1.00592 -0.24733,-0.16275 -0.58181,-0.0797 -0.86422,-0.0984 -0.37113,0.0416 -0.79075,0.0144 -1.11866,0.2122 -0.13529,0.34058 -0.0436,0.73375 -0.0739,1.09322 0.027,0.76007 -0.0843,1.6532 0.48825,2.25334 0.18814,0.17515 0.34247,0.43566 0.57498,0.52848 1.23465,-0.009 2.46323,-0.18989 3.67949,-0.38955 0.49558,-0.0971 1.08714,-0.19702 1.34694,-0.69158 0.25891,-0.38197 0.40666,-0.92768 0.88822,-1.091 0.49341,-0.12462 0.84481,0.31615 1.17021,0.60356 0.1932,0.16978 0.35838,0.38408 0.5686,0.52599 0.82667,-0.10272 1.67341,-0.12481 2.48079,-0.33882 0.40613,-0.35766 0.69068,-0.82424 1.0885,-1.19542 0.32702,-0.36567 0.73745,-0.67537 0.99119,-1.09785 0.17215,-0.92098 0.12,-1.86884 0.1364,-2.80186 -2.9e-4,-1.52913 -0.22212,-3.05102 -0.52542,-4.54619 -0.0318,-0.20096 -0.20161,-0.20764 -0.37222,-0.19429 z m -0.46252,0.99975 c 0.22741,-0.0471 0.38889,0.12216 0.46346,0.31818 0.29048,0.71224 0.34249,1.5098 0.26138,2.25762 -0.039,0.39202 -0.28859,0.88433 -0.74986,0.85806 -0.4803,0.0262 -0.90614,-0.33378 -1.18119,-0.7018 -0.1548,-0.51977 -0.0542,-1.07563 -0.0816,-1.61143 0.0362,-0.31798 -0.0551,-0.6776 0.0811,-0.97166 0.31502,-0.18763 0.71929,-0.0957 1.07262,-0.1457 0.0439,-0.002 0.0949,-0.002 0.13419,-0.003 z m -5.77346,0.95709 c 0.14158,0.19155 0.39532,0.2394 0.52942,0.44676 0.36944,0.45089 0.32688,1.08189 0.2702,1.6194 -0.17264,0.96465 -0.51606,1.90214 -0.89489,2.80838 -0.12989,0.31527 -0.53247,0.21771 -0.74308,0.0455 -0.71363,-0.46174 -1.38526,-1.00078 -1.97749,-1.60981 -0.13995,-0.38159 -0.0778,-0.80668 -0.0699,-1.20545 0.0667,-0.70399 0.29833,-1.44645 0.84173,-1.92727 0.57214,-0.37361 1.29143,-0.25101 1.93902,-0.31518 0.035,0.0459 0.07,0.0917 0.10496,0.13759 z"
         style="opacity:1;fill:#ff0000;fill-opacity:1;fill-rule:evenodd;stroke:#000000;stroke-width:0.02193116;stroke-linecap:round;stroke-linejoin:round;stroke-miterlimit:4;stroke-dasharray:none;stroke-dashoffset:0;stroke-opacity:1" />
      <path
         inkscape:connector-curvature="0"
         id="path3403"
         d="m 291.02959,670.02745 c -1.39682,0.0259 -2.80408,0.49778 -3.88457,1.39211 -0.68181,0.60079 -1.00458,1.53698 -0.93868,2.43315 -0.0252,0.94674 0.0396,1.8925 0.21354,2.82394 0.23692,1.33773 0.28838,2.69477 0.41554,4.04429 0.0181,0.25657 0.32905,0.0839 0.47584,0.083 0.49947,-0.10757 1.05444,-0.0986 1.50876,-0.35519 0.13556,-0.17833 -0.0143,-0.43663 0.005,-0.64248 -0.0612,-0.84804 -0.19582,-1.7388 0.0895,-2.56539 0.2574,-0.56666 0.73486,-1.09222 1.35313,-1.24604 0.60278,-0.0666 1.28185,0.0136 1.72443,0.46964 0.79483,0.75395 1.16572,1.87952 1.04993,2.95774 0.0497,0.1915 -0.18539,0.66275 0.15055,0.61497 0.46859,-0.0602 0.97543,-0.0277 1.40898,-0.23601 0.29423,-0.23376 0.13196,-0.67235 0.12609,-0.98726 -0.16829,-1.19027 -0.4157,-2.3963 -0.95768,-3.47778 -0.48071,-0.7737 -1.42381,-1.1891 -2.3181,-1.17239 -0.94486,-0.0308 -1.95976,0.25047 -2.60329,0.97568 -0.16213,0.17086 -0.15938,0.55821 -0.47273,0.52696 -0.32882,-0.0802 -0.17806,-0.47023 -0.20244,-0.71824 0.0512,-0.76912 -0.0663,-1.57452 0.19028,-2.30757 0.18459,-0.60308 0.69057,-1.09706 1.31458,-1.21299 0.93755,-0.20192 1.917,0.17339 2.61307,0.8154 0.21008,0.21126 0.51446,0.44583 0.82344,0.28141 0.3175,-0.10325 0.6305,-0.35237 0.61921,-0.71721 0.0341,-0.45627 -0.27249,-0.87009 -0.58219,-1.17512 -0.574,-0.50977 -1.38399,-0.61947 -2.12296,-0.60456 z"
         style="opacity:1;fill:#ff0000;fill-opacity:1;fill-rule:evenodd;stroke:#000000;stroke-width:0.02193116;stroke-linecap:round;stroke-linejoin:round;stroke-miterlimit:4;stroke-dasharray:none;stroke-dashoffset:0;stroke-opacity:1" />
      <path
         inkscape:connector-curvature="0"
         id="path3405"
         d="m 277.01626,671.94805 c -0.52012,0.0289 -1.05622,0.0268 -1.56096,0.15686 -0.16227,0.16695 0.087,0.39576 0.10844,0.57792 0.38565,1.25371 0.55422,2.5604 0.89533,3.82656 0.23628,0.93366 0.45036,1.87987 0.44509,2.84666 0.0373,0.83829 0.009,1.67482 -0.0811,2.50908 0.0221,0.22998 0.34224,0.11632 0.49115,0.13057 0.45033,-0.0429 0.92839,-0.0754 1.34815,-0.21588 0.0819,-0.64263 -0.11116,-1.30193 -0.1799,-1.94542 -0.10826,-0.6408 -0.11715,-1.2883 -0.11205,-1.93915 0.35218,-0.36726 0.90726,-0.33679 1.36898,-0.44171 0.56583,-0.0579 1.15312,-0.17485 1.70944,-0.0178 0.44217,0.30475 0.47662,0.91025 0.58139,1.39501 0.13689,0.84672 0.16821,1.70587 0.2657,2.55859 0.13446,0.1104 0.35059,-0.0267 0.51153,-0.0234 0.4965,-0.11103 1.07015,-0.16405 1.45387,-0.52978 0.0558,-0.41144 -0.095,-0.8327 -0.12066,-1.24625 -0.17318,-1.18943 -0.32099,-2.39388 -0.67802,-3.54501 -0.29108,-0.64256 -1.08241,-0.82912 -1.72767,-0.81643 -1.0429,-0.0596 -2.03675,0.30382 -3.05546,0.44728 -0.41182,0.0314 -0.61212,-0.40702 -0.67741,-0.74602 -0.22785,-0.9282 -0.13722,-1.90447 -0.37486,-2.82876 -0.10112,-0.22973 -0.42101,-0.12649 -0.61099,-0.15292 z"
         style="opacity:1;fill:#ff0000;fill-opacity:1;fill-rule:evenodd;stroke:#000000;stroke-width:0.02193116;stroke-linecap:round;stroke-linejoin:round;stroke-miterlimit:4;stroke-dasharray:none;stroke-dashoffset:0;stroke-opacity:1" />
      <path
         inkscape:connector-curvature="0"
         id="path3407"
         d="m 272.56107,673.79061 c -0.36905,0.0337 -0.77727,0.0233 -1.10658,0.20749 -0.19245,0.23495 0.13659,0.48373 0.33949,0.56156 0.38272,0.13248 0.82503,0.44373 0.75398,0.90209 -0.0411,0.63489 0.0214,1.34206 -0.32889,1.90663 -0.17702,0.27884 -0.53505,0.28977 -0.81282,0.35998 0.023,0.22163 -0.0774,0.52464 0.0836,0.70952 0.30643,0.0113 0.58991,-0.19273 0.88864,-0.25642 0.28303,-0.13017 0.63278,-0.0883 0.88384,-0.27576 0.18965,-0.47847 0.16953,-1.01721 0.23625,-1.52309 0.0459,-0.63929 0.0838,-1.28853 0.0669,-1.92473 -0.29281,-0.26155 -0.55478,-0.70129 -1.00446,-0.66727 z"
         style="opacity:1;fill:#ff0000;fill-opacity:1;fill-rule:evenodd;stroke:#000000;stroke-width:0.02193116;stroke-linecap:round;stroke-linejoin:round;stroke-miterlimit:4;stroke-dasharray:none;stroke-dashoffset:0;stroke-opacity:1" />
      <path
         inkscape:connector-curvature="0"
         id="path3409"
         d="m 267.91243,673.92879 c -0.52679,0.0357 -1.0241,0.25776 -1.56037,0.22402 -1.44026,0.01 -2.88072,0.16586 -4.2924,0.44747 -0.59999,0.12416 -1.13617,0.58586 -1.30741,1.17725 -0.0654,1.16102 -0.0272,2.32769 -0.009,3.49043 0.0486,0.80891 0.0237,1.65057 0.30988,2.42018 0.35682,0.58006 0.84872,1.07799 1.3826,1.4974 0.32723,0.19199 0.73921,0.0751 1.09922,0.10581 1.61575,-0.0548 3.24093,-0.0434 4.84567,-0.25881 0.43031,-0.0922 0.65668,-0.53253 0.94339,-0.82634 0.50765,-0.61058 1.0932,-1.32129 0.98581,-2.17148 -0.0751,-0.96181 -0.16487,-1.9157 -0.18747,-2.88229 -0.046,-0.64329 -0.0187,-1.29957 -0.13339,-1.93415 -0.1941,-0.4211 -0.70035,-0.55028 -1.04776,-0.81241 -0.32116,-0.19669 -0.62476,-0.49451 -1.02962,-0.47707 z m -1.69624,1.10804 c 0.57051,0.0285 1.06849,0.3883 1.48138,0.75192 0.39365,0.47251 0.39497,1.14583 0.52913,1.72245 0.10037,0.72147 0.2916,1.45386 0.20163,2.17632 -0.18408,0.6968 -0.43342,1.39878 -0.80117,2.02606 -0.2709,0.33487 -0.77341,0.23141 -1.15027,0.28904 -0.75775,0.0147 -1.53074,0.0748 -2.27836,-0.0314 -0.52524,-0.16544 -0.89948,-0.64234 -1.24768,-1.05526 -0.40093,-0.48543 -0.40006,-1.12423 -0.38834,-1.71757 -0.0228,-0.62538 0.0617,-1.26086 -0.0277,-1.8806 -0.1739,-0.18322 -0.18394,-0.44274 -0.10602,-0.67406 0.11624,-0.33156 0.2622,-0.68932 0.53985,-0.91141 0.98499,-0.33242 2.01313,-0.53128 3.04098,-0.68166 0.0678,-0.006 0.14301,-0.014 0.20663,-0.0139 z"
         style="opacity:1;fill:#ff0000;fill-opacity:1;fill-rule:evenodd;stroke:#000000;stroke-width:0.02193116;stroke-linecap:round;stroke-linejoin:round;stroke-miterlimit:4;stroke-dasharray:none;stroke-dashoffset:0;stroke-opacity:1" />
      <path
         inkscape:connector-curvature="0"
         id="path3411"
         d="m 272.41491,673.79043 c -0.32525,0.0312 -0.70832,0.0125 -0.97756,0.22095 -0.15474,0.28441 0.19831,0.5 0.41875,0.5924 0.34692,0.15137 0.75318,0.45297 0.67403,0.88058 -0.0529,0.61645 -0.01,1.28639 -0.31414,1.84779 -0.15192,0.30011 -0.52965,0.26805 -0.78078,0.40847 -0.0774,0.20225 -0.075,0.46574 0.0107,0.66744 0.20407,0.13384 0.45632,-0.084 0.6641,-0.11828 0.35393,-0.16019 0.76526,-0.17412 1.11172,-0.3469 0.24524,-0.40515 0.21751,-0.91393 0.27705,-1.37121 0.0421,-0.70794 0.078,-1.42516 0.0627,-2.12972 -0.2897,-0.30506 -0.6086,-0.71201 -1.08371,-0.65212 l -0.0438,4.3e-4 -0.019,1.7e-4 z"
         style="opacity:1;fill:#ff0000;fill-opacity:1;fill-rule:evenodd;stroke:#000000;stroke-width:0.02193116;stroke-linecap:round;stroke-linejoin:round;stroke-miterlimit:4;stroke-dasharray:none;stroke-dashoffset:0;stroke-opacity:1" />
      <path
         inkscape:connector-curvature="0"
         id="path3413"
         d="m 276.71265,671.95558 c -0.41788,0.0278 -0.86001,0.005 -1.25744,0.14505 -0.17788,0.18577 0.0883,0.42671 0.0994,0.62709 0.42008,1.52631 0.69568,3.09149 1.08429,4.62849 0.3001,1.25973 0.23113,2.56564 0.21873,3.8485 0.0141,0.25199 -0.10048,0.53872 -0.004,0.77307 0.46687,0.0808 0.95402,-0.0292 1.42227,-0.0814 0.16943,-0.0308 0.45473,-0.0407 0.41952,-0.28535 -0.0203,-1.06065 -0.31956,-2.09856 -0.27648,-3.16117 0.0462,-0.24392 -0.14548,-0.63289 0.19102,-0.69969 0.70386,-0.27303 1.47636,-0.33206 2.22083,-0.36166 0.33327,-0.0128 0.75852,0.0372 0.90311,0.39741 0.31137,0.76212 0.33116,1.60845 0.42951,2.41406 0.0654,0.39569 0.0161,0.82699 0.1629,1.2027 0.19941,0.10592 0.44925,-0.0445 0.66135,-0.057 0.41208,-0.11769 0.90564,-0.14323 1.22386,-0.46064 0.16568,-0.31197 -0.0117,-0.68295 -0.016,-1.01345 -0.2026,-1.31098 -0.31433,-2.65612 -0.77006,-3.91061 -0.36813,-0.63713 -1.18523,-0.76382 -1.85833,-0.76434 -1.00898,0.009 -1.99138,0.35656 -2.97741,0.4436 -0.43272,-0.0542 -0.54574,-0.57296 -0.61125,-0.93062 -0.1643,-0.84921 -0.11354,-1.74238 -0.34396,-2.58308 -0.10686,-0.2589 -0.46745,-0.12388 -0.67712,-0.1713 -0.0816,-0.002 -0.16329,-9.6e-4 -0.24493,3e-4 z"
         style="opacity:1;fill:#ff0000;fill-opacity:1;fill-rule:evenodd;stroke:#000000;stroke-width:0.02193116;stroke-linecap:round;stroke-linejoin:round;stroke-miterlimit:4;stroke-dasharray:none;stroke-dashoffset:0;stroke-opacity:1" />
      <path
         inkscape:connector-curvature="0"
         id="path3415"
         d="m 291.05178,670.0325 c -1.44714,-0.0155 -2.90248,0.51133 -3.99465,1.46142 -0.60015,0.56935 -0.90731,1.41113 -0.86417,2.23299 -0.0703,1.32912 0.16085,2.64382 0.34571,3.95288 0.13942,1.03314 0.16032,2.08274 0.30103,3.11516 0.13689,0.15788 0.39043,0.007 0.56556,0.0144 0.49245,-0.099 1.04964,-0.11038 1.4717,-0.39381 -0.0124,-0.93875 -0.21793,-1.89888 -0.0358,-2.83454 0.14561,-0.63163 0.59758,-1.20122 1.18274,-1.47914 0.56076,-0.16916 1.20817,-0.12891 1.7174,0.17981 0.67041,0.53135 1.13276,1.32937 1.25038,2.17611 0.0408,0.51508 -0.0225,1.0468 0.0634,1.55381 0.31207,0.0874 0.65849,-0.0246 0.97819,-0.0482 0.30691,-0.0306 0.76029,-0.13143 0.74991,-0.52515 -0.0438,-1.1677 -0.32137,-2.32228 -0.70573,-3.42281 -0.19162,-0.58567 -0.53319,-1.14502 -1.08663,-1.44917 -0.47775,-0.30834 -1.04699,-0.4422 -1.6128,-0.40007 -0.87948,-0.0592 -1.78806,0.24212 -2.42741,0.85437 -0.21251,0.15892 -0.23467,0.48887 -0.47666,0.60448 -0.14955,0.0561 -0.27744,-0.0475 -0.25718,-0.20449 -0.0154,-0.79202 -0.0355,-1.59867 0.0697,-2.38887 0.10678,-0.79698 0.73394,-1.52897 1.55763,-1.61236 0.92338,-0.12295 1.84548,0.2869 2.52192,0.90377 0.242,0.21469 0.6037,0.36311 0.89591,0.14892 0.3521,-0.14063 0.55273,-0.52709 0.46964,-0.89618 -0.15083,-0.69613 -0.77984,-1.22079 -1.44102,-1.42103 -0.39798,-0.12665 -0.82565,-0.11794 -1.23861,-0.12229 z"
         style="opacity:1;fill:#ff0000;fill-opacity:1;fill-rule:evenodd;stroke:#000000;stroke-width:0.02193116;stroke-linecap:round;stroke-linejoin:round;stroke-miterlimit:4;stroke-dasharray:none;stroke-dashoffset:0;stroke-opacity:1" />
      <path
         inkscape:connector-curvature="0"
         id="path3417"
         d="m 313.6245,667.87914 c -0.76216,0.0479 -1.59606,0.0246 -2.26627,0.44419 -0.38468,0.25247 -0.48846,0.74249 -0.42931,1.17298 0.0376,0.98892 0.3037,1.95294 0.5701,2.90029 0.091,0.36858 0.39171,0.68101 0.78469,0.69958 0.44676,0.0951 0.97235,-0.0483 1.35904,0.24372 0.0948,0.37388 -0.11428,0.75066 -0.19445,1.11294 -0.22649,0.71755 -0.46907,1.53593 -1.16794,1.94115 -0.50198,0.30797 -1.04329,0.64345 -1.64449,0.68244 -0.6781,-0.12802 -1.19198,-0.64767 -1.80845,-0.92493 -0.28274,-0.14261 -0.66561,-0.35202 -0.60835,-0.72651 0.0483,-0.78963 0.75243,-1.2955 1.1107,-1.94218 0.175,-0.48841 0.055,-1.02475 0.0546,-1.5315 -0.041,-0.73308 -0.11337,-1.49085 -0.50226,-2.13375 -0.34362,-0.59889 -0.73709,-1.22083 -1.33026,-1.59858 -0.50379,-0.20633 -1.05902,0.003 -1.565,0.099 -0.64327,0.1531 -1.30787,0.38253 -1.73984,0.91374 -0.36539,0.41207 -0.67154,0.89924 -0.84014,1.41918 0.0372,0.96137 -0.0162,1.93039 0.0937,2.88695 0.24649,0.53055 0.68488,0.94906 1.04996,1.39999 0.4733,0.56784 1.0274,1.05796 1.55489,1.57168 0.12089,0.35393 -0.23664,0.64054 -0.43256,0.89429 -0.31136,0.37241 -0.71855,0.75156 -1.22247,0.73968 -0.55215,0.004 -1.15116,0.0242 -1.68246,-0.18086 -0.4096,-0.17622 -0.42123,-0.67747 -0.33452,-1.04549 0.0408,-0.25874 0.1923,-0.50916 0.4698,-0.55625 0.18968,-0.10833 0.6025,-0.0717 0.50746,-0.39187 -0.0192,-0.30966 -0.0142,-0.72883 -0.31128,-0.91226 -0.52051,-0.0587 -1.05693,-0.0312 -1.57459,0.0481 -0.22332,0.0193 -0.37881,0.20866 -0.36024,0.4316 -0.01,0.82745 -0.0993,1.68424 0.13579,2.4897 0.16528,0.44891 0.53685,0.78987 0.87596,1.10264 1.41495,-0.0263 2.82915,-0.18977 4.21027,-0.49765 0.48175,-0.0896 0.8478,-0.45196 1.0474,-0.88478 0.20384,-0.36263 0.48574,-0.85241 0.97181,-0.78362 0.47553,0.0925 0.76966,0.52943 1.1292,0.82052 0.16047,0.16668 0.36127,0.3818 0.6174,0.28012 0.75736,-0.0836 1.52966,-0.12651 2.26457,-0.33194 0.61566,-0.7733 1.34799,-1.44118 1.97921,-2.19971 0.20452,-0.55695 0.14164,-1.17391 0.17749,-1.75782 0.0394,-1.6164 -0.0404,-3.23848 -0.34453,-4.82916 -0.0858,-0.33461 -0.0743,-0.72665 -0.27844,-1.01559 -0.0957,-0.0598 -0.21858,-0.0459 -0.32615,-0.05 z m -0.54733,1.04832 c 0.23016,-0.0277 0.51358,0.0361 0.57972,0.29513 0.3554,0.74584 0.2378,1.59551 0.2666,2.39298 -0.1362,0.30839 -0.33588,0.73467 -0.7478,0.68146 -0.48978,0.0256 -0.9145,-0.33767 -1.15242,-0.72918 -0.11657,-0.56882 -0.0571,-1.16353 -0.0751,-1.74412 0.0398,-0.24688 -0.0708,-0.56888 0.11095,-0.77231 0.31017,-0.13997 0.69015,-0.096 1.018,-0.12396 z m -5.60889,0.95657 c 0.28463,0.2724 0.68054,0.4998 0.72055,0.93662 0.16306,0.82368 -0.0659,1.66718 -0.32264,2.45651 -0.18756,0.52466 -0.32432,1.08577 -0.6221,1.5598 -0.36796,0.23005 -0.71381,-0.15534 -1.00903,-0.3325 -0.54608,-0.41395 -1.12444,-0.82112 -1.56857,-1.34986 -0.16884,-0.38015 -0.07,-0.81561 -0.0748,-1.21751 0.056,-0.70994 0.30062,-1.49402 0.89079,-1.93552 0.57059,-0.28182 1.22885,-0.19327 1.84264,-0.25975 0.0477,0.0474 0.0955,0.0948 0.14316,0.14221 z"
         style="opacity:1;fill:#ff0000;fill-opacity:1;fill-rule:evenodd;stroke:#000000;stroke-width:0.02193116;stroke-linecap:round;stroke-linejoin:round;stroke-miterlimit:4;stroke-dasharray:none;stroke-dashoffset:0;stroke-opacity:1" />
      <path
         inkscape:connector-curvature="0"
         id="path3419"
         d="m 325.60766,665.90721 c -0.63583,0.0564 -1.28293,0.0755 -1.90716,0.21126 -0.15145,0.17658 -0.0583,0.45939 -0.0744,0.67492 0.0676,1.24975 0.35816,2.47547 0.41872,3.72468 -0.43625,0.26679 -0.97697,0.22573 -1.46676,0.31037 -1.04287,0.0959 -2.09294,0.2009 -3.13014,0.32401 -0.26727,0.0574 -0.48325,-0.19162 -0.43943,-0.44542 -0.0681,-1.12882 -0.006,-2.26404 -0.10919,-3.39023 -0.0141,-0.32553 -0.36286,-0.52407 -0.6617,-0.44027 -0.53384,0.0674 -1.08859,0.088 -1.59867,0.26637 -0.10123,0.24362 -0.0181,0.5446 -0.0411,0.80734 -0.004,1.7369 0.29947,3.45137 0.57358,5.16043 0.10614,0.78104 0.33482,1.59162 0.92169,2.15335 0.49353,0.50405 1.03347,0.98082 1.64801,1.33069 0.49971,0.15118 1.03679,0.0307 1.54558,-0.0157 0.89354,-0.14515 1.8169,-0.12877 2.69972,-0.34674 0.73553,-0.29548 1.06742,-1.09037 1.48684,-1.70366 0.30799,-0.51682 0.78522,-1.04341 0.66764,-1.69387 -0.15134,-1.68229 -0.12674,-3.37778 -0.24113,-5.06421 -0.0503,-0.60998 -0.0382,-1.23419 -0.15663,-1.83408 -0.032,-0.0421 -0.0915,-0.0251 -0.13553,-0.0292 z m -2.00533,6.19085 c 0.239,-0.031 0.5834,0.022 0.58854,0.33144 0.0599,0.49088 0.15719,0.99475 0.0733,1.48087 -0.29999,0.42924 -0.78322,0.69092 -1.19713,0.99839 -0.6973,0.4991 -1.59786,0.53566 -2.41294,0.45781 -0.44809,-0.17792 -0.89984,-0.39057 -1.26935,-0.7078 -0.2717,-0.35979 -0.24169,-0.85222 -0.346,-1.27259 -0.0456,-0.23571 -0.12005,-0.56953 0.16146,-0.68553 0.54505,-0.27515 1.18239,-0.24828 1.77047,-0.35592 0.87423,-0.10016 1.7578,-0.21278 2.6317,-0.24667 z"
         style="opacity:1;fill:#ff0000;fill-opacity:1;fill-rule:evenodd;stroke:#000000;stroke-width:0.02193116;stroke-linecap:round;stroke-linejoin:round;stroke-miterlimit:4;stroke-dasharray:none;stroke-dashoffset:0;stroke-opacity:1" />
      <path
         inkscape:connector-curvature="0"
         id="path3421"
         d="m 267.88591,673.92363 c -0.49679,0.0386 -0.96265,0.20396 -1.46186,0.19566 -1.53224,0.075 -3.0879,0.13104 -4.57444,0.5416 -0.57043,0.18983 -1.1005,0.70422 -1.11155,1.33514 -0.0964,1.4769 -0.0246,2.96066 0.0596,4.43661 0.0387,0.63092 0.15854,1.29906 0.61313,1.77274 0.35588,0.40155 0.71877,0.84072 1.21401,1.07103 0.75024,0.0957 1.51327,-0.004 2.26779,-0.002 1.17267,-0.0572 2.35841,-0.0428 3.51664,-0.25444 0.42283,-0.11795 0.66225,-0.54091 0.95153,-0.83901 0.46582,-0.58766 1.02659,-1.23716 0.96256,-2.03945 -0.0861,-1.445 -0.18396,-2.88862 -0.24852,-4.335 -0.0168,-0.32748 -0.022,-0.71079 -0.3366,-0.90595 -0.39874,-0.29364 -0.83568,-0.53395 -1.25016,-0.80528 -0.18327,-0.1039 -0.38886,-0.17817 -0.60216,-0.17185 z m -1.69625,1.1501 c 0.60124,0.0137 1.17349,0.38659 1.56235,0.83817 0.29,0.43665 0.31577,0.98676 0.43725,1.48439 0.12116,0.80751 0.31453,1.63582 0.17639,2.45225 -0.20625,0.66057 -0.41766,1.35239 -0.82927,1.91916 -0.36757,0.27996 -0.85863,0.13855 -1.28759,0.19582 -0.68091,3e-4 -1.36788,0.0541 -2.04483,-0.0189 -0.55862,-0.18253 -0.92908,-0.67802 -1.29985,-1.10546 -0.39045,-0.56993 -0.26076,-1.31034 -0.3114,-1.96075 -0.036,-0.54502 0.033,-1.1084 -0.0974,-1.64188 -0.21073,-0.42316 0.0594,-0.88456 0.26686,-1.25393 0.1876,-0.33344 0.6273,-0.32833 0.94768,-0.44968 0.81606,-0.19772 1.64444,-0.40184 2.47983,-0.45917 z"
         style="opacity:1;fill:#ff0000;fill-opacity:1;fill-rule:evenodd;stroke:#000000;stroke-width:0.02193116;stroke-linecap:round;stroke-linejoin:round;stroke-miterlimit:4;stroke-dasharray:none;stroke-dashoffset:0;stroke-opacity:1" />
      <path
         inkscape:connector-curvature="0"
         id="path3423"
         d="m 272.47835,673.77027 c -0.3545,0.0379 -0.80025,0.005 -1.06264,0.28923 -0.12776,0.26207 0.21786,0.44257 0.40487,0.54133 0.37684,0.15654 0.76871,0.49218 0.6869,0.94112 -0.0626,0.60186 -0.0162,1.26129 -0.32769,1.80413 -0.17055,0.29486 -0.62548,0.20714 -0.79038,0.49345 -0.0496,0.20258 -0.0625,0.56771 0.19601,0.62213 0.36469,-0.0601 0.70423,-0.24012 1.06854,-0.31672 0.24255,-0.0958 0.6156,-0.0929 0.67465,-0.41532 0.26467,-1.0358 0.21533,-2.12047 0.27689,-3.18037 -0.0268,-0.23024 -0.31081,-0.34497 -0.45448,-0.51794 -0.18238,-0.17263 -0.41844,-0.27776 -0.67267,-0.26104 z"
         style="opacity:1;fill:#ff0000;fill-opacity:1;fill-rule:evenodd;stroke:#000000;stroke-width:0.02193116;stroke-linecap:round;stroke-linejoin:round;stroke-miterlimit:4;stroke-dasharray:none;stroke-dashoffset:0;stroke-opacity:1" />
      <path
         inkscape:connector-curvature="0"
         id="path3425"
         d="m 276.65692,671.95102 c -0.40245,0.0332 -0.85666,-0.0334 -1.22027,0.17134 -0.1587,0.1819 0.0932,0.41264 0.0942,0.61152 0.42883,1.62614 0.77125,3.27919 1.1459,4.92122 0.25414,1.38539 0.16354,2.79481 0.1335,4.19381 0.0208,0.23428 0.3362,0.14664 0.49396,0.16311 0.44518,-0.0376 0.91955,-0.0411 1.33283,-0.22205 0.16578,-0.24089 0.0252,-0.56794 0.0289,-0.8374 -0.11372,-1.02251 -0.29195,-2.05113 -0.21254,-3.07688 0.27762,-0.23758 0.6863,-0.25134 1.03016,-0.33248 0.63775,-0.0865 1.29458,-0.17058 1.93131,-0.0561 0.35459,0.15408 0.38108,0.61504 0.49174,0.93679 0.2001,0.93343 0.19964,1.89428 0.35981,2.8334 0.0654,0.28717 0.42523,0.15956 0.61989,0.12405 0.43408,-0.12774 0.96108,-0.13493 1.299,-0.471 0.23852,-0.36581 0.01,-0.82937 -0.001,-1.22363 -0.2009,-1.22435 -0.29293,-2.48708 -0.72935,-3.65757 -0.2602,-0.57874 -0.95663,-0.83549 -1.55814,-0.80592 -0.75814,-0.0403 -1.51232,0.0502 -2.24983,0.22395 -0.40585,0.047 -0.83236,0.22694 -1.23371,0.11239 -0.38687,-0.27667 -0.38485,-0.81405 -0.46729,-1.23488 -0.1145,-0.74701 -0.0832,-1.53038 -0.33654,-2.24866 -0.19325,-0.21105 -0.53857,-0.0848 -0.79004,-0.12562 -0.0541,-2.1e-4 -0.10828,5.2e-4 -0.16242,6.3e-4 z"
         style="opacity:1;fill:#ff0000;fill-opacity:1;fill-rule:evenodd;stroke:#000000;stroke-width:0.02193116;stroke-linecap:round;stroke-linejoin:round;stroke-miterlimit:4;stroke-dasharray:none;stroke-dashoffset:0;stroke-opacity:1" />
      <path
         inkscape:connector-curvature="0"
         id="path3427"
         d="m 291.01266,670.02219 c -1.49904,0.006 -3.02511,0.54609 -4.09701,1.61271 -0.37425,0.41363 -0.61888,0.94808 -0.72706,1.48704 -0.0109,1.21687 -0.0123,2.43912 0.19792,3.6421 0.2146,1.31495 0.2608,2.64952 0.44321,3.96929 0.0958,0.24597 0.42498,0.0877 0.61202,0.0877 0.46924,-0.0959 0.99088,-0.11634 1.4029,-0.37908 0.0965,-0.35226 -0.0114,-0.73866 -0.01,-1.10133 -0.0369,-0.84591 -0.16637,-1.80371 0.38205,-2.52622 0.30477,-0.39738 0.7254,-0.77748 1.25967,-0.76442 0.56463,-0.0546 1.18574,0.0795 1.57304,0.53277 0.62043,0.64597 0.97612,1.53432 0.92327,2.43052 0.0392,0.32561 -0.0256,0.68414 0.0986,0.99101 0.24654,0.13499 0.5574,2.7e-4 0.82389,-0.005 0.29895,-0.0637 0.77628,-0.0535 0.86832,-0.42295 0.0499,-0.98912 -0.20362,-1.96817 -0.45845,-2.91694 -0.21378,-0.75081 -0.49568,-1.55844 -1.18064,-2.00883 -0.57662,-0.43382 -1.31547,-0.56303 -2.02144,-0.49894 -0.88274,0.005 -1.76881,0.39085 -2.33465,1.07429 -0.11126,0.15951 -0.24016,0.48834 -0.4895,0.35687 -0.0973,-0.19927 -0.002,-0.52024 -0.0284,-0.7642 0.038,-0.68516 -0.0343,-1.38625 0.11321,-2.05865 0.20655,-0.73368 0.89357,-1.3579 1.67883,-1.31976 0.85746,-0.0661 1.67526,0.33245 2.31255,0.88543 0.26469,0.25024 0.68864,0.35557 0.99419,0.11317 0.34916,-0.2061 0.51687,-0.65366 0.34336,-1.03042 -0.3123,-0.90321 -1.30282,-1.39248 -2.21685,-1.38064 -0.15433,-0.006 -0.30878,-0.007 -0.46321,-0.005 z"
         style="opacity:1;fill:#ff0000;fill-opacity:1;fill-rule:evenodd;stroke:#000000;stroke-width:0.02193116;stroke-linecap:round;stroke-linejoin:round;stroke-miterlimit:4;stroke-dasharray:none;stroke-dashoffset:0;stroke-opacity:1" />
      <path
         inkscape:connector-curvature="0"
         id="path3429"
         d="m 313.2739,667.89923 c -0.72648,0.0124 -1.54773,0.0678 -2.11156,0.58272 -0.40091,0.5061 -0.23599,1.20279 -0.17203,1.79022 0.1438,0.79244 0.29446,1.59593 0.58718,2.34818 0.18248,0.37776 0.60964,0.51801 1.00276,0.51899 0.33303,0.0546 0.72683,-0.01 1.00737,0.20671 0.0912,0.4914 -0.14241,0.97908 -0.26746,1.44334 -0.2049,0.63812 -0.51838,1.31219 -1.1439,1.64248 -0.51231,0.27084 -1.05934,0.68386 -1.6764,0.57556 -0.60952,-0.16758 -1.11487,-0.59637 -1.67868,-0.8751 -0.2532,-0.17287 -0.66555,-0.36689 -0.56326,-0.74061 0.0589,-0.77906 0.76675,-1.28423 1.0927,-1.94862 0.15637,-0.71071 0.0436,-1.45044 -0.0111,-2.16795 -0.0877,-1.03419 -0.65314,-1.96432 -1.34433,-2.71087 -0.29717,-0.32731 -0.74009,-0.5236 -1.18419,-0.42671 -0.77197,0.11628 -1.56506,0.31094 -2.22071,0.7502 -0.52989,0.46002 -0.94491,1.06955 -1.18584,1.72099 0.027,0.94859 -0.0587,1.90906 0.093,2.84968 0.15561,0.56572 0.63435,0.96433 0.98648,1.41035 0.5179,0.61681 1.15686,1.14287 1.63849,1.77601 -0.13599,0.47099 -0.51771,0.82278 -0.86105,1.1549 -0.51492,0.44403 -1.2491,0.33605 -1.87015,0.28091 -0.36013,-0.0561 -0.86805,-0.1134 -0.94064,-0.55437 -0.0884,-0.4087 -0.0204,-1.00927 0.45165,-1.1483 0.19273,-0.10948 0.60587,-0.0688 0.52121,-0.3903 -0.0131,-0.3159 -0.0209,-0.7251 -0.29933,-0.92985 -0.46979,-0.0879 -0.96113,-0.0109 -1.43683,0.009 -0.25662,-10e-4 -0.53827,0.15 -0.53972,0.4363 -0.0319,0.77389 -0.0366,1.55947 0.0866,2.32595 0.11242,0.5631 0.57972,0.96602 0.97136,1.3381 1.48022,-0.0873 2.97379,-0.20547 4.40928,-0.59599 0.66466,-0.23895 0.81934,-1.01872 1.30867,-1.4455 0.3304,-0.30325 0.78827,-0.0503 1.07,0.1953 0.32014,0.22945 0.56144,0.58129 0.91451,0.75537 0.71528,-0.002 1.43049,-0.12229 2.13485,-0.24304 0.31155,-0.0172 0.52983,-0.23692 0.70659,-0.47078 0.53202,-0.62248 1.15205,-1.17324 1.63406,-1.83637 0.23575,-0.52243 0.15732,-1.1235 0.2042,-1.68113 0.0543,-1.85221 -0.0763,-3.71781 -0.46787,-5.53064 -0.0608,-0.18525 -0.10839,-0.50372 -0.37686,-0.41961 -0.15638,10e-4 -0.31276,0.003 -0.46913,0.004 z m -0.14435,1.07009 c 0.1971,-0.0218 0.43148,0.0221 0.49482,0.24279 0.35404,0.68026 0.2219,1.47845 0.26189,2.20853 0.0205,0.4294 -0.33062,0.93812 -0.80829,0.84007 -0.42346,-0.0247 -0.8203,-0.31243 -1.01482,-0.68072 -0.13263,-0.66573 -0.063,-1.35736 -0.0812,-2.03154 -0.003,-0.19734 -0.0286,-0.50375 0.2408,-0.52995 0.29831,-0.0582 0.60516,-0.0429 0.90681,-0.0492 z m -6.02173,0.80974 c 0.38443,-0.0109 0.59921,0.37637 0.85685,0.60276 0.29662,0.36585 0.25887,0.88169 0.24131,1.31964 -0.12148,0.99466 -0.45945,1.96397 -0.84596,2.88584 -0.0735,0.24916 -0.36127,0.39152 -0.58828,0.23088 -0.69473,-0.40537 -1.32918,-0.91819 -1.90955,-1.47385 -0.33713,-0.26435 -0.24409,-0.72151 -0.24681,-1.09203 0.0122,-0.77931 0.17596,-1.64129 0.80622,-2.1686 0.41888,-0.30011 0.97356,-0.22561 1.45946,-0.29376 0.0746,-0.005 0.15593,-0.0108 0.22676,-0.0109 z"
         style="opacity:1;fill:#ff0000;fill-opacity:1;fill-rule:evenodd;stroke:#000000;stroke-width:0.02193116;stroke-linecap:round;stroke-linejoin:round;stroke-miterlimit:4;stroke-dasharray:none;stroke-dashoffset:0;stroke-opacity:1" />
      <path
         inkscape:connector-curvature="0"
         id="path3431"
         d="m 325.25405,665.93066 c -0.52919,0.0378 -1.0807,0.0405 -1.58744,0.20243 -0.11193,0.32357 -0.03,0.69384 -0.0271,1.03325 0.091,1.12776 0.3403,2.23873 0.35724,3.37037 -0.65197,0.24441 -1.3619,0.2243 -2.0469,0.32894 -0.89236,0.0737 -1.78358,0.23548 -2.67636,0.23708 -0.29446,-0.0668 -0.22145,-0.45532 -0.25842,-0.67999 -0.0575,-1.08493 0.0442,-2.18758 -0.1527,-3.26179 -0.12766,-0.3852 -0.61619,-0.31082 -0.92852,-0.27189 -0.42169,0.0787 -0.88532,0.0565 -1.27299,0.25672 -0.16997,0.20119 -0.0676,0.50971 -0.0958,0.75209 0.0479,2.01402 0.36263,4.01061 0.74008,5.98549 0.2315,0.87568 0.86737,1.5647 1.56174,2.11235 0.43881,0.33496 0.91774,0.76912 1.51485,0.68434 0.99185,-0.0871 1.98068,-0.19868 2.96947,-0.3135 0.44738,-0.0528 0.91672,-0.16335 1.21942,-0.52643 0.55997,-0.70525 1.05536,-1.46811 1.47808,-2.26332 0.22257,-0.53351 0.0531,-1.12902 0.0544,-1.68627 -0.11886,-1.93993 -0.11237,-3.89261 -0.31914,-5.82706 0.01,-0.27785 -0.37048,-0.0837 -0.53002,-0.13281 z m -1.5524,6.19461 c 0.17997,2.9e-4 0.46065,0.0204 0.45242,0.26737 0.0669,0.50128 0.18571,1.02755 0.0701,1.5207 -0.40262,0.50932 -0.97563,0.85754 -1.52954,1.18566 -0.64514,0.29158 -1.36987,0.29733 -2.06675,0.23875 -0.42849,-0.19624 -0.89816,-0.37473 -1.23353,-0.71713 -0.26644,-0.4141 -0.26637,-0.93656 -0.35296,-1.40522 -0.0473,-0.21544 0.01,-0.48298 0.25965,-0.54039 0.8223,-0.27242 1.70502,-0.28127 2.55567,-0.40753 0.61412,-0.0625 1.23439,-0.14782 1.84496,-0.14221 z"
         style="opacity:1;fill:#ff0000;fill-opacity:1;fill-rule:evenodd;stroke:#000000;stroke-width:0.02193116;stroke-linecap:round;stroke-linejoin:round;stroke-miterlimit:4;stroke-dasharray:none;stroke-dashoffset:0;stroke-opacity:1" />
    </g>
    <text
       xml:space="preserve"
       style="font-style:normal;font-variant:normal;font-weight:500;font-stretch:normal;font-size:12.80000019px;line-height:0%;font-family:CherokeeHandone;-inkscape-font-specification:'CherokeeHandone Medium';text-align:start;letter-spacing:0px;word-spacing:0px;writing-mode:lr-tb;text-anchor:start;fill:#000000;fill-opacity:1;stroke:#000000;stroke-width:0.53333336;stroke-linecap:butt;stroke-linejoin:miter;stroke-miterlimit:4;stroke-dasharray:none;stroke-opacity:1"
       x="94.767418"
       y="834.51501"
       id="text4779"><tspan
         sodipodi:role="line"
         x="94.767418"
         y="834.51501"
         id="tspan3365"
         style="font-size:14.9333334px;line-height:1;stroke-width:0.53333336">ᎻᎠᎠ... ᎻᎤᎤ...</tspan><tspan
         sodipodi:role="line"
         x="94.767418"
         y="849.44836"
         id="tspan3369"
         style="font-size:14.9333334px;line-height:1;stroke-width:0.53333336">    ᎻᎠᎠᎠ...</tspan></text>
    <text
       id="text4783"
       y="700.06696"
       x="-195.8215"
       style="font-style:normal;font-variant:normal;font-weight:500;font-stretch:normal;font-size:12.80000019px;line-height:0%;font-family:CherokeeHandone;-inkscape-font-specification:'CherokeeHandone Medium';text-align:start;letter-spacing:0px;word-spacing:0px;writing-mode:lr-tb;text-anchor:start;fill:#000000;fill-opacity:1;stroke:#000000;stroke-width:0.53333336;stroke-linecap:butt;stroke-linejoin:miter;stroke-miterlimit:4;stroke-dasharray:none;stroke-opacity:1"
       xml:space="preserve"><tspan
         y="700.06696"
         x="-195.8215"
         id="tspan4785"
         sodipodi:role="line"
         style="font-size:14.9333334px;line-height:1;stroke-width:0.53333336">ᏣᎳᎩ</tspan></text>
    <g
       id="g4876"
       transform="translate(-1.120187,132.66911)">
      <path
         inkscape:connector-curvature="0"
         id="path4860"
         d="m 88.248227,160.50445 c -1.957942,-0.0134 -5.873752,0.01 -5.08792,2.97711 0.28526,8.79626 3.546953,17.10945 3.498091,25.94309 0.496299,11.97997 1.245281,24.05249 0.939633,35.99229 -0.845291,2.10838 0.266406,4.44135 2.654661,2.99047 3.450263,-0.6095 7.085676,0.3642 10.419568,-0.82187 1.8112,-1.97142 0.49819,-5.11985 0.72119,-7.52201 -0.0353,-5.22912 -0.89618,-10.53489 -0.19991,-15.65262 1.01069,-2.71708 4.75186,-1.5944 6.92736,-1.9824 6.97024,-0.0701 13.941,0.019 20.91142,0.0236 2.86419,2.9104 1.86481,7.44566 2.36577,11.1053 0.43514,4.857 -0.13563,9.92784 1.12873,14.67346 1.0521,2.32602 4.1054,0.78707 5.9312,0.54106 3.16969,-0.91562 6.50059,-1.4352 9.68901,-1.90477 0.69114,-4.31071 0.11548,-8.86475 0.13184,-13.26812 -0.90729,-17.04958 -0.6621,-34.17155 -1.49782,-51.2408 -0.78117,-2.09907 -3.73389,-1.08215 -5.46092,-1.37056 -2.26183,0.32343 -5.17463,-0.45033 -6.98443,1.16965 -1.15222,5.9783 -0.79877,12.19198 -1.23324,18.26324 -0.37008,3.80157 0.0793,7.72841 -1.01245,11.37606 -2.07197,1.66354 -4.97567,0.87461 -7.47679,1.2214 -7.24324,-0.0949 -14.63068,-0.2781 -21.78049,-1.76856 -2.17926,-3.30874 -2.05354,-7.4281 -2.53488,-11.19654 -0.550975,-6.03476 -0.11334,-12.12937 -0.51543,-18.13176 -1.550559,-1.58525 -4.380309,-1.03205 -6.504005,-1.34442 -1.675753,-0.0657 -3.353195,-0.0973 -5.030188,-0.0723 z"
         style="opacity:1;fill:#b88999;fill-opacity:1;fill-rule:evenodd;stroke:#000000;stroke-width:0.19481513;stroke-linecap:round;stroke-linejoin:round;stroke-miterlimit:4;stroke-dasharray:none;stroke-dashoffset:0;stroke-opacity:1" />
      <path
         inkscape:connector-curvature="0"
         id="path4874"
         d="m 173.04836,219.7838 c -2.56502,3.38437 -4.12884,7.50839 -6.68109,10.92464 -2.5992,4.43515 -6.28844,8.4552 -7.87753,13.42877 -0.47714,2.72682 2.87373,3.29407 4.86125,3.44351 2.53143,0.0522 6.12689,1.04809 7.80858,-1.43524 1.62933,-6.10123 4.26219,-11.83793 7.11224,-17.47665 0.75538,-2.22177 2.37519,-4.33315 2.43978,-6.70401 -1.07001,-1.35456 -3.20679,-0.64207 -4.6649,-1.49536 -0.99721,-0.25161 -1.93782,-0.92582 -2.99833,-0.68566 z"
         style="opacity:1;fill:#b88999;fill-opacity:1;fill-rule:evenodd;stroke:#000000;stroke-width:0.19481513;stroke-linecap:round;stroke-linejoin:round;stroke-miterlimit:4;stroke-dasharray:none;stroke-dashoffset:0;stroke-opacity:1" />
      <text
         xml:space="preserve"
         style="font-style:normal;font-variant:normal;font-weight:500;font-stretch:normal;font-size:12.80000019px;line-height:0%;font-family:Cherokeehandlines;-inkscape-font-specification:'Cherokeehandlines Medium';text-align:start;letter-spacing:0px;word-spacing:0px;writing-mode:lr-tb;text-anchor:start;fill:#000000;fill-opacity:1;stroke:none;stroke-width:1.06666672px;stroke-linecap:butt;stroke-linejoin:miter;stroke-opacity:1"
         x="81.572235"
         y="231.45488"
         id="text4582"><tspan
           id="tspan4799"
           sodipodi:role="line"
           x="81.572235"
           y="231.45488"
           style="font-size:101.33333588px;line-height:1;stroke-width:1.06666672px">Ꮋ,</tspan></text>
    </g>
    <g
       id="g4882"
       transform="translate(-136.65307,208.83674)">
      <path
         inkscape:connector-curvature="0"
         id="path4862"
         d="m 288.1042,186.09905 c -8.54427,0.17092 -17.14189,0.14531 -25.63493,1.10877 -2.76652,0.72483 -1.64774,4.16526 -0.78534,5.99056 1.25696,3.12629 4.99339,2.79865 7.73857,2.96256 2.58454,-0.076 3.9962,2.18689 4.03403,4.51347 0.24779,3.27091 0.80311,7.70033 -2.31418,9.79175 -3.05703,1.6615 -6.67556,1.68568 -9.92264,2.76698 -0.84388,2.37715 -3.71501,1.84095 -5.62833,1.27772 -7.51008,-0.57149 -15.57125,0.33871 -21.72569,5.06443 -2.78503,2.12179 -5.98636,5.24947 -5.57886,9.04673 1.36066,3.06843 5.62097,4.76479 8.5399,2.72588 2.45342,-1.05625 4.73881,-3.97029 7.61605,-3.20379 1.73757,1.54893 0.32384,4.31053 0.27392,6.30507 -0.98103,5.60149 -2.83801,12.38118 1.28765,17.21581 5.37535,4.44782 12.89638,3.3834 19.36432,3.36741 4.95542,-0.3918 10.78969,-0.0696 14.7618,-3.56831 3.70676,-4.28312 2.25381,-10.32467 2.48816,-15.47776 0.13292,-4.16704 -1.00023,-8.50045 -4.22669,-11.34477 -0.97385,-1.29876 -3.38425,-2.93438 -2.27039,-4.68501 2.98372,-3.03407 8.26774,-1.67402 10.49642,1.62549 2.91566,3.01642 4.89336,7.91545 9.42952,8.71189 5.13426,0.10026 7.99482,-5.11138 11.86926,-7.64269 2.63102,-2.20519 6.56372,-2.64281 9.38309,-0.53346 2.0017,1.06458 3.37443,3.12557 5.45862,3.94881 2.4337,-1.91579 4.53565,-4.52206 6.39619,-6.99305 -0.0534,-1.92103 -2.52814,-2.95847 -3.96252,-4.07641 -5.59526,-3.08299 -10.94212,-8.59572 -17.89255,-7.38775 -5.83152,0.65546 -11.62562,4.13073 -17.54858,2.38039 -3.24789,-1.68043 -3.04354,-5.84842 -3.01278,-8.92877 -0.17683,-3.09918 2.30014,-5.60624 5.32849,-5.8201 2.28166,-0.34565 5.7886,-1.34112 5.17554,-4.35518 -0.27671,-1.87748 0.2888,-5.42252 -2.63989,-4.78732 -2.16606,2.2e-4 -4.33211,4.3e-4 -6.49816,6.5e-4 z m -22.89763,39.11218 c 1.24261,0.10493 3.1943,-0.16622 3.3773,1.52504 3.36849,5.02258 4.1023,11.71429 1.63615,17.24114 -1.19704,2.46404 -3.6309,4.15575 -6.44516,3.83199 -3.46907,0.13282 -8.46913,-0.71733 -9.23213,-4.74519 -0.2245,-5.60922 1.38525,-11.38647 4.36812,-16.13541 1.31173,-2.0461 4.24292,-1.55015 6.29572,-1.71757 z"
         style="opacity:1;fill:#c1cfff;fill-opacity:1;fill-rule:evenodd;stroke:#000000;stroke-width:0.19481513;stroke-linecap:round;stroke-linejoin:round;stroke-miterlimit:4;stroke-dasharray:none;stroke-dashoffset:0;stroke-opacity:1" />
      <path
         inkscape:connector-curvature="0"
         id="path4868"
         d="m 338.26149,244.35182 c -2.44095,1.09746 -2.83654,4.33042 -4.44164,6.27723 -3.30529,5.82619 -7.68343,11.1736 -10.45639,17.34714 -0.78564,2.51474 1.95183,3.99403 4.09035,3.99448 2.61309,0.14619 5.86537,0.87753 8.06733,-0.87363 1.35277,-3.21097 2.02948,-6.71816 3.60864,-9.88002 1.92578,-4.94999 5.2188,-9.47424 6.23866,-14.68875 -1.95271,-1.40695 -4.6016,-1.35356 -6.84822,-2.1932 l -0.25873,0.0167 z"
         style="opacity:1;fill:#c1cfff;fill-opacity:1;fill-rule:evenodd;stroke:#000000;stroke-width:0.19481513;stroke-linecap:round;stroke-linejoin:round;stroke-miterlimit:4;stroke-dasharray:none;stroke-dashoffset:0;stroke-opacity:1" />
      <text
         id="text4845"
         y="255.92999"
         x="236.11386"
         style="font-style:normal;font-variant:normal;font-weight:500;font-stretch:normal;font-size:12.80000019px;line-height:0%;font-family:Cherokeehandlines;-inkscape-font-specification:'Cherokeehandlines Medium';text-align:start;letter-spacing:-16px;word-spacing:0px;writing-mode:lr-tb;text-anchor:start;fill:#000000;fill-opacity:1;stroke:none;stroke-width:1.06666672px;stroke-linecap:butt;stroke-linejoin:miter;stroke-opacity:1"
         xml:space="preserve"><tspan
           y="255.92999"
           x="236.11386"
           sodipodi:role="line"
           id="tspan4847"
           style="font-size:101.33333588px;line-height:1;stroke-width:1.06666672px">Ꮉ,</tspan></text>
    </g>
    <g
       id="g4952"
       transform="translate(-322.58687,174.83868)">
      <path
         inkscape:connector-curvature="0"
         id="path4870"
         d="m 545.98922,178.8886 c -0.4601,2.38575 -0.59431,5.17328 0.19025,7.55442 1.48756,2.58843 4.94715,0.12329 6.89766,1.46796 1.16768,5.40602 0.5697,11.06333 0.83253,16.56157 0.014,4.43286 0.0638,8.86999 -0.10421,13.27863 -2.2846,0.50597 -5.04614,-0.42661 -7.04758,0.91395 -0.47977,1.6579 -1.29503,3.98955 -0.0806,5.47233 2.83368,0.84105 5.99354,-0.0939 8.93879,0.0645 8.9249,-0.66766 17.74623,-0.0617 26.6608,0.4345 3.09359,-0.0197 7.35274,0.67269 8.97579,-2.74316 2.04889,-4.95305 1.07984,-10.53541 1.38045,-15.76024 -0.30389,-7.67555 1.63436,-15.3495 0.65217,-23.08179 -0.77165,-3.43478 -4.6965,-3.84942 -7.60921,-3.8826 -12.96526,-0.45242 -25.94355,-0.38171 -38.91432,-0.59891 -0.25748,0.10628 -0.51494,0.21257 -0.77241,0.31886 z m 26.25362,8.56426 c 3.561,0.14263 7.26426,-0.26037 10.71787,0.41703 1.48676,5.38013 0.82188,11.0798 1.06288,16.6407 -0.27748,3.30155 0.63897,6.87658 -0.74022,9.96602 -1.58542,3.11869 -5.45554,1.93247 -8.2291,2.27385 -4.5217,-0.15948 -9.25559,0.5717 -13.66401,-0.34472 -0.87841,-2.68885 0.2489,-5.74778 0.2732,-8.53534 0.96562,-6.6796 -0.0317,-13.54168 0.37137,-20.15576 3.38508,-0.39249 6.79241,-0.19523 10.20801,-0.26178 z"
         style="opacity:1;fill:#a74930;fill-opacity:1;fill-rule:evenodd;stroke:#000000;stroke-width:0.19481513;stroke-linecap:round;stroke-linejoin:round;stroke-miterlimit:4;stroke-dasharray:none;stroke-dashoffset:0;stroke-opacity:1" />
      <path
         inkscape:connector-curvature="0"
         id="path4872"
         d="m 642.19669,176.45113 c -3.66665,0.0372 -7.68787,0.93754 -10.15474,3.8027 -2.60462,0.69797 -3.28689,3.97243 -4.42519,6.08569 -1.54546,3.27477 -1.97084,6.90968 -2.90701,10.34119 -1.3276,1.48432 -3.18925,-0.54404 -4.8057,-0.3356 -4.79155,-0.31502 -9.61594,1.07275 -13.99852,2.91613 -2.23918,1.02056 -1.34469,3.9619 -1.9269,5.9018 -0.23363,4.83194 -0.79959,9.83702 0.23976,14.59184 2.25486,2.13425 5.33234,3.45299 8.27888,4.38334 4.47908,0.45263 9.35148,0.64734 13.28472,-1.93217 1.96586,-1.13058 4.86099,-1.64404 4.99184,-4.4185 2.17594,-5.66002 2.4456,-11.78282 1.85398,-17.75537 0.04,-5.588 1.77127,-11.32444 5.11248,-15.82725 1.20641,-1.36141 3.53299,-3.25151 5.38786,-2.21983 2.09511,1.76078 0.0561,5.35677 1.96655,6.95576 2.05072,-0.11794 4.47401,-0.20112 6.35647,-1.23383 1.69728,-1.83322 1.2457,-4.77634 0.90863,-7.05063 -1.4388,-3.71302 -6.80119,-4.08453 -10.16311,-4.20527 z m -24.63118,25.87084 c 1.98076,0.22727 4.39214,0.0854 6.04536,1.08671 0.51371,4.05791 0.3896,8.82529 -2.28984,12.14931 -2.31611,2.137 -5.94295,2.45912 -8.84506,1.52884 -2.09103,-1.2763 -0.79416,-4.35562 -0.8234,-6.26833 0.60974,-2.65071 0.70755,-6.03641 2.83623,-8.03156 0.93742,-0.49616 2.04531,-0.47629 3.07671,-0.46497 z"
         style="opacity:1;fill:#a74930;fill-opacity:1;fill-rule:evenodd;stroke:#000000;stroke-width:0.19481513;stroke-linecap:round;stroke-linejoin:round;stroke-miterlimit:4;stroke-dasharray:none;stroke-dashoffset:0;stroke-opacity:1" />
      <text
         id="text4853"
         y="224.55112"
         x="545.75354"
         style="font-style:normal;font-variant:normal;font-weight:500;font-stretch:normal;font-size:12.80000019px;line-height:0%;font-family:Cherokeehandlines;-inkscape-font-specification:'Cherokeehandlines Medium';text-align:start;letter-spacing:0px;word-spacing:0px;writing-mode:lr-tb;text-anchor:start;fill:#000000;fill-opacity:1;stroke:none;stroke-width:1.06666672px;stroke-linecap:butt;stroke-linejoin:miter;stroke-opacity:1"
         xml:space="preserve"><tspan
           y="224.55112"
           x="545.75354"
           sodipodi:role="line"
           id="tspan4855"
           style="font-size:66.66666412px;line-height:1;stroke-width:1.06666672px">ᎠᎴ</tspan></text>
    </g>
    <g
       id="g4888"
       transform="translate(-87.917989,117.48737)">
      <path
         inkscape:connector-curvature="0"
         id="path4866"
         d="m 481.74512,183.90585 c -7.58924,0.39527 -15.26828,0.33192 -22.77435,1.56233 -2.67944,0.89878 -1.58907,4.47471 -1.09034,6.40997 1.90736,1.52342 5.05146,-0.68513 7.18364,0.77536 2.15632,3.69184 1.84986,8.2672 2.33094,12.36696 -0.0938,3.56104 0.7357,7.31389 -0.61108,10.6958 -2.07743,1.43382 -4.95328,0.96802 -7.3771,1.05475 -2.90092,-0.33926 -2.37197,-3.90349 -2.88123,-5.97885 -0.30905,-2.49325 -3.60582,-1.4654 -5.36874,-1.53143 -1.80617,0.47006 -4.44518,-0.0264 -5.56354,1.56316 0.14178,4.415 0.17139,9.00711 0.97443,13.34335 1.53236,1.33349 4.1944,0.38944 6.18468,0.73831 4.05776,-0.23194 8.32063,0.79178 12.25838,-0.44619 3.14658,-1.41103 5.76492,-4.27806 9.49723,-3.93055 5.14479,-0.0327 10.52939,-1.66897 15.46193,0.25874 2.91441,1.40496 4.83099,4.66375 3.91451,7.90557 -1.10773,4.57712 -0.32679,9.52122 -2.15357,13.91068 -2.013,3.71836 -6.92958,2.61871 -10.39117,3.22911 -2.21667,0.12937 -5.60036,1.97399 -7.00673,-0.65314 -0.53718,-2.66982 0.61092,-5.51336 -0.0602,-8.17615 -2.01524,-0.6172 -4.26831,0.56674 -6.41271,0.51012 -2.20683,0.11635 -5.56008,0.36574 -5.72975,3.2591 -0.56321,4.32377 -1.84143,8.7918 -1.13313,13.14317 1.52566,1.8908 4.49616,1.08087 6.64579,1.16052 8.61973,-0.88341 17.31981,-0.8631 25.8853,-2.19547 3.49499,-1.85795 6.17882,-5.02556 9.05106,-7.71506 3.00184,-3.13396 2.30044,-7.97416 2.7109,-11.94757 -0.0135,-6.52865 0.36507,-13.24818 -1.29065,-19.61241 -1.68883,-2.52512 -5.34612,-1.96543 -7.96264,-2.5815 -4.45579,-0.81055 -9.85197,-0.28722 -13.33004,-3.69292 -1.73176,-3.3723 -2.07788,-7.30999 -2.62392,-10.99183 -0.0849,-3.02711 3.37972,-4.22209 5.89087,-3.64822 1.93893,0.39003 5.19275,0.4907 5.26763,-2.24722 0.0107,-2.15391 0.41363,-4.45842 -0.24961,-6.50424 -2.94235,-0.66083 -6.20686,0.0864 -9.24687,-0.0342 z"
         style="opacity:1;fill:#fdc2a0;fill-opacity:1;fill-rule:evenodd;stroke:#000000;stroke-width:0.19481513;stroke-linecap:round;stroke-linejoin:round;stroke-miterlimit:4;stroke-dasharray:none;stroke-dashoffset:0;stroke-opacity:1" />
      <text
         id="text4849"
         y="254.82794"
         x="447.15469"
         style="font-style:normal;font-variant:normal;font-weight:500;font-stretch:normal;font-size:12.80000019px;line-height:0%;font-family:Cherokeehandlines;-inkscape-font-specification:'Cherokeehandlines Medium';text-align:start;letter-spacing:0px;word-spacing:0px;writing-mode:lr-tb;text-anchor:start;fill:#000000;fill-opacity:1;stroke:none;stroke-width:1.06666672px;stroke-linecap:butt;stroke-linejoin:miter;stroke-opacity:1"
         xml:space="preserve"><tspan
           y="254.82794"
           x="447.15469"
           sodipodi:role="line"
           id="tspan4851"
           style="font-size:101.33333588px;line-height:1;stroke-width:1.06666672px">Ꮌ</tspan></text>
    </g>
  </g>
</svg>
