<?xml version="1.0" encoding="UTF-8" standalone="no"?>
<!-- Created with Inkscape (http://www.inkscape.org/) -->

<svg
   xmlns:dc="http://purl.org/dc/elements/1.1/"
   xmlns:cc="http://creativecommons.org/ns#"
   xmlns:rdf="http://www.w3.org/1999/02/22-rdf-syntax-ns#"
   xmlns:svg="http://www.w3.org/2000/svg"
   xmlns="http://www.w3.org/2000/svg"
   xmlns:xlink="http://www.w3.org/1999/xlink"
   xmlns:sodipodi="http://sodipodi.sourceforge.net/DTD/sodipodi-0.dtd"
   xmlns:inkscape="http://www.inkscape.org/namespaces/inkscape"
   width="6in"
   height="9in"
   id="svg2"
   version="1.1"
   inkscape:version="0.92.1 r15371"
   sodipodi:docname="p021.svg"
   inkscape:export-filename="p021.png"
   inkscape:export-xdpi="300"
   inkscape:export-ydpi="300">
  <defs
     id="defs4" />
  <sodipodi:namedview
     id="base"
     pagecolor="#ffffff"
     bordercolor="#00ff66"
     borderopacity="1"
     inkscape:pageopacity="0.0"
     inkscape:pageshadow="2"
     inkscape:zoom="1.9358025"
     inkscape:cx="432.82221"
     inkscape:cy="157.97575"
     inkscape:document-units="px"
     inkscape:current-layer="layer1"
     showgrid="false"
     units="in"
     inkscape:window-width="1909"
     inkscape:window-height="991"
     inkscape:window-x="0"
     inkscape:window-y="28"
     inkscape:window-maximized="1"
     borderlayer="true" />
  <metadata
     id="metadata7">
    <rdf:RDF>
      <cc:Work
         rdf:about="">
        <dc:format>image/svg+xml</dc:format>
        <dc:type
           rdf:resource="http://purl.org/dc/dcmitype/StillImage" />
        <dc:title />
      </cc:Work>
    </rdf:RDF>
  </metadata>
  <g
     inkscape:label="Layer 1"
     inkscape:groupmode="layer"
     id="layer1"
     transform="translate(0,-258.51947)">
    <g
       id="g3384"
       transform="matrix(0.21835827,0,0,0.21835827,-9.12e-7,283.03382)">
      <rect
         height="864"
         width="576"
         y="258.51947"
         x="0"
         id="rect3382"
         style="opacity:1;fill:#ffffff;fill-opacity:1;fill-rule:nonzero;stroke:none;stroke-width:4.26666689;stroke-linecap:round;stroke-linejoin:round;stroke-miterlimit:4;stroke-dasharray:none;stroke-dashoffset:0;stroke-opacity:1" />
      <image
         sodipodi:absref="/home/muksihs/Documents/ᏣᎳᎩ/Lessons/Cherokee Language Lessons-Volume 1/comics/mi-ma-ale-mo-uniyo-wesa/src.svg/021.png"
         xlink:href="021.png"
         height="3732.2666"
         width="2637.8667"
         y="0"
         x="0"
         id="image3379"
         style="image-rendering:optimizeSpeed"
         preserveAspectRatio="none" />
    </g>
    <text
       xml:space="preserve"
       style="font-style:normal;font-variant:normal;font-weight:500;font-stretch:normal;font-size:12.80000019px;line-height:0%;font-family:CherokeeHandone;-inkscape-font-specification:'CherokeeHandone Medium';text-align:center;letter-spacing:0px;word-spacing:0px;writing-mode:lr-tb;text-anchor:middle;fill:#000000;fill-opacity:1;stroke:#000000;stroke-width:0.53333336;stroke-linecap:butt;stroke-linejoin:miter;stroke-miterlimit:4;stroke-dasharray:none;stroke-opacity:1"
       x="60.812843"
       y="307.23749"
       id="text4779"><tspan
         sodipodi:role="line"
         x="60.812843"
         y="307.23749"
         id="tspan3369"
         style="font-size:14.9333334px;line-height:1;stroke-width:0.53333336">Ꮭ ᎾᏍᎩ</tspan><tspan
         sodipodi:role="line"
         x="60.812843"
         y="322.17081"
         id="tspan5030"
         style="font-size:14.9333334px;line-height:1;stroke-width:0.53333336">ᏱᏥᎪᏩᏘᎭ!</tspan></text>
    <g
       id="g5058"
       transform="matrix(0.85715752,0,0,0.85715752,54.725829,92.38298)">
      <path
         inkscape:connector-curvature="0"
         id="path5044"
         d="m 337.02348,258.22559 c -0.50302,-0.0241 -0.93925,0.31575 -1.202,0.68877 -2.29497,0.5822 -3.97017,2.52824 -4.87954,4.63307 -0.92991,2.0695 -1.16406,4.41305 -0.87819,6.64926 0.67198,3.57538 3.44856,6.7159 7.0026,7.62047 1.62721,0.54357 3.43701,0.17553 4.84784,-0.75693 2.84692,-1.72894 5.08292,-4.69745 5.37352,-8.07898 0.20586,-2.18832 -0.41029,-4.43854 -1.7219,-6.20542 -0.7884,-1.15265 -1.68123,-2.3103 -2.97544,-2.92167 -1.72176,-0.87718 -3.62097,-1.55493 -5.56689,-1.62857 z m 1.39585,4.17893 c 1.18674,0.091 2.27537,1.01558 2.60403,2.14919 0.0744,0.30586 -0.36114,-0.10756 -0.46601,-0.16049 -0.76658,-0.69933 -1.63469,-1.36635 -2.69717,-1.50368 -0.34258,0.0209 -0.27549,-0.12942 -0.0706,-0.31565 0.13641,-0.22077 0.41265,-0.1587 0.62972,-0.16937 z m -3.81329,3.45531 c -0.004,-0.0162 -0.003,-0.0526 0,0 z m 0.0498,0.18228 c -0.045,-0.12075 -0.0262,-0.0912 0,0 z m 0.64115,0.71003 c 0.86123,0.32621 1.99362,0.0923 2.65918,0.84658 0.59357,0.89747 0.46744,2.22612 1.45585,2.86878 0.41593,0.30594 0.92996,0.43971 1.44131,0.44595 -1.10964,1.02034 -2.75721,1.71976 -4.24646,1.18666 -1.17118,-0.70154 -1.5966,-2.20481 -1.51248,-3.50051 0.14058,-0.59783 0.32947,-1.26727 0.2026,-1.84746 z m -0.6951,0.23785 c -0.11093,0.0211 0.15294,-0.0393 0,0 z"
         style="opacity:1;fill:#ff0000;fill-opacity:1;fill-rule:evenodd;stroke:none;stroke-width:3.20000005;stroke-linecap:round;stroke-linejoin:round;stroke-miterlimit:4;stroke-dasharray:none;stroke-dashoffset:0;stroke-opacity:1" />
      <path
         inkscape:connector-curvature="0"
         id="path5046"
         d="m 357.4341,258.51374 c -0.60942,0.0129 -1.28665,-0.0506 -1.82862,0.24067 -0.47026,-0.0387 -0.93527,0.14155 -1.35669,0.26825 -0.80945,-0.11378 -1.59376,0.27857 -2.32731,0.57496 -1.47691,0.69351 -2.93071,1.99384 -2.97034,3.74024 -0.0494,2.22573 1.78384,4.19212 3.93412,4.56281 0.46673,0.0921 0.94593,0.11795 1.42044,0.089 -0.82876,2.16025 -1.04358,4.61755 -0.34615,6.84269 0.4595,1.51515 1.93378,2.68621 3.54411,2.61493 1.83611,0.002 3.57966,-1.05422 4.51497,-2.62192 1.12604,-1.84105 1.59767,-4.06779 1.42532,-6.21136 0.0684,-0.20693 -0.28759,-0.77003 -0.014,-0.74232 1.51322,0.31535 2.97007,-0.73124 3.60572,-2.05435 0.57018,-1.15634 0.75021,-2.58056 0.25802,-3.79203 -0.78283,-1.54942 -2.50573,-2.26889 -4.07094,-2.7661 -1.74977,-0.52782 -3.57475,-0.82187 -5.40551,-0.74564 -0.12771,6e-5 -0.25543,1.3e-4 -0.38314,1.9e-4 z"
         style="opacity:1;fill:#ff0000;fill-opacity:1;fill-rule:evenodd;stroke:none;stroke-width:3.20000005;stroke-linecap:round;stroke-linejoin:round;stroke-miterlimit:4;stroke-dasharray:none;stroke-dashoffset:0;stroke-opacity:1" />
      <path
         inkscape:connector-curvature="0"
         id="path5048"
         d="m 377.98047,258.48334 c -0.7284,0.0407 -1.53632,-0.068 -2.19386,0.27107 -0.46784,-0.0367 -0.93051,0.1377 -1.35051,0.26529 -0.80119,-0.11262 -1.57679,0.2747 -2.30323,0.56676 -1.45725,0.67161 -2.88926,1.94031 -2.95232,3.65414 -0.16629,2.1761 1.57789,4.14634 3.64729,4.60188 0.54768,0.13548 1.11564,0.17331 1.67808,0.1465 -0.79372,2.06352 -1.03562,4.38746 -0.44906,6.5353 0.38491,1.53778 1.73449,2.87917 3.37219,2.91855 1.85953,0.0946 3.69232,-0.89384 4.6838,-2.46237 1.19448,-1.82135 1.65156,-4.0655 1.55055,-6.22091 0.0425,-0.26687 -0.23242,-0.78331 -0.0768,-0.88206 1.1399,0.23285 2.31872,-0.27205 3.03313,-1.16861 1.08831,-1.2428 1.46279,-3.11365 0.87535,-4.66288 -0.75012,-1.50629 -2.41101,-2.24706 -3.93127,-2.7446 -1.80543,-0.54275 -3.69458,-0.85853 -5.58338,-0.81806 z"
         style="opacity:1;fill:#ff0000;fill-opacity:1;fill-rule:evenodd;stroke:none;stroke-width:3.20000005;stroke-linecap:round;stroke-linejoin:round;stroke-miterlimit:4;stroke-dasharray:none;stroke-dashoffset:0;stroke-opacity:1" />
      <path
         inkscape:connector-curvature="0"
         id="path5050"
         d="m 397.59779,258.48415 c -0.55873,-0.009 -1.13249,0.0566 -1.64122,0.26915 -0.45865,-0.0363 -0.90672,0.15046 -1.31836,0.27111 -0.76979,-0.1441 -1.50559,0.28157 -2.2106,0.53095 -1.49813,0.6523 -2.98354,1.93037 -3.065,3.67502 -0.13056,1.84717 1.10142,3.59598 2.77771,4.30135 0.79102,0.38754 1.68238,0.51024 2.55533,0.45779 -0.79074,2.01849 -0.98001,4.28 -0.49426,6.39407 0.35874,1.52238 1.60395,2.90196 3.22044,3.04108 2.0269,0.20291 4.04099,-0.94608 5.0543,-2.68596 1.0576,-1.76123 1.47159,-3.87138 1.38253,-5.9088 -0.017,-0.31784 -0.10347,-0.67397 -0.15431,-0.95703 1.50887,0.33822 3.01579,-0.64303 3.6723,-1.97296 0.78329,-1.4287 0.89701,-3.40822 -0.2256,-4.69188 -1.68267,-1.63316 -4.06911,-2.22946 -6.3242,-2.55536 -1.06984,-0.14319 -2.15072,-0.17827 -3.22906,-0.16853 z m -2.11153,1.1471 c -2.8e-4,-0.001 0.002,-0.007 0,0 z"
         style="opacity:1;fill:#ff0000;fill-opacity:1;fill-rule:evenodd;stroke:none;stroke-width:3.20000005;stroke-linecap:round;stroke-linejoin:round;stroke-miterlimit:4;stroke-dasharray:none;stroke-dashoffset:0;stroke-opacity:1" />
      <path
         inkscape:connector-curvature="0"
         id="path5052"
         d="m 414.48341,257.13592 c -1.69871,-0.0137 -3.02245,1.34629 -3.73323,2.77313 -1.04108,2.14903 -1.1846,4.61977 -0.9929,6.96611 0.22998,2.02144 0.78796,4.12851 2.18278,5.67077 0.8265,0.91727 2.11496,1.41711 3.33787,1.12679 1.4168,-0.30076 2.20236,-1.71717 2.67601,-2.96605 0.69905,-1.85741 0.88467,-3.8558 0.84024,-5.827 0.0362,-1.53492 -0.0342,-3.08555 -0.48496,-4.56421 -0.32573,-1.09171 -0.79053,-2.37877 -1.97768,-2.77542 -0.58533,-0.24112 -1.21124,-0.40888 -1.84813,-0.40412 z"
         style="opacity:1;fill:#ff0000;fill-opacity:1;fill-rule:evenodd;stroke:none;stroke-width:3.20000005;stroke-linecap:round;stroke-linejoin:round;stroke-miterlimit:4;stroke-dasharray:none;stroke-dashoffset:0;stroke-opacity:1" />
      <path
         inkscape:connector-curvature="0"
         id="path5056"
         d="m 414.06692,273.35686 c -1.59043,0.009 -3.17368,1.60838 -2.71555,3.23845 0.31612,1.22061 1.68789,2.06503 2.909,1.6501 1.25687,-0.36426 2.41278,-1.54679 2.34682,-2.91492 -0.15915,-0.8529 -0.88941,-1.53444 -1.67136,-1.8496 -0.2786,-0.0963 -0.57536,-0.12779 -0.86891,-0.12403 z"
         style="opacity:1;fill:#ff0000;fill-opacity:1;fill-rule:evenodd;stroke:none;stroke-width:3.20000005;stroke-linecap:round;stroke-linejoin:round;stroke-miterlimit:4;stroke-dasharray:none;stroke-dashoffset:0;stroke-opacity:1" />
      <text
         xml:space="preserve"
         style="font-style:normal;font-variant:normal;font-weight:500;font-stretch:normal;font-size:12.80000019px;line-height:0%;font-family:Cherokeebubble;-inkscape-font-specification:'Cherokeebubble Medium';text-align:center;letter-spacing:0px;word-spacing:0px;writing-mode:lr-tb;text-anchor:middle;fill:none;fill-opacity:1;stroke:#000000;stroke-width:0.93021297;stroke-linecap:butt;stroke-linejoin:miter;stroke-miterlimit:4;stroke-dasharray:none;stroke-opacity:1"
         x="375.9545"
         y="277.2467"
         id="text5032"><tspan
           style="font-size:26.04596329px;line-height:1;fill:none;stroke:#000000;stroke-width:0.93021297"
           sodipodi:role="line"
           x="375.9545"
           y="277.2467"
           id="tspan5036">ᏫᎢᎢᎢ!</tspan></text>
    </g>
    <text
       id="text5080"
       y="578.03052"
       x="237.31535"
       style="font-style:normal;font-variant:normal;font-weight:500;font-stretch:normal;font-size:12.80000019px;line-height:0%;font-family:CherokeeHandone;-inkscape-font-specification:'CherokeeHandone Medium';text-align:center;letter-spacing:0px;word-spacing:0px;writing-mode:lr-tb;text-anchor:middle;fill:#000000;fill-opacity:1;stroke:#000000;stroke-width:0.53333336;stroke-linecap:butt;stroke-linejoin:miter;stroke-miterlimit:4;stroke-dasharray:none;stroke-opacity:1"
       xml:space="preserve"><tspan
         y="578.03052"
         x="237.31535"
         sodipodi:role="line"
         id="tspan5088"
         style="font-size:14.9333334px;line-height:1;stroke-width:0.53333336">ᎯᎠ ᎰᏩᏊ! ᎣᏍᏓᏊ!</tspan><tspan
         y="592.96387"
         x="237.31535"
         sodipodi:role="line"
         id="tspan5092"
         style="font-size:14.9333334px;line-height:1;stroke-width:0.53333336">Ꮌ, ᏂᎯᏧ ᎠᏂ?</tspan></text>
    <text
       xml:space="preserve"
       style="font-style:normal;font-variant:normal;font-weight:500;font-stretch:normal;font-size:12.80000019px;line-height:0%;font-family:CherokeeHandone;-inkscape-font-specification:'CherokeeHandone Medium';text-align:center;letter-spacing:0px;word-spacing:0px;writing-mode:lr-tb;text-anchor:middle;fill:#000000;fill-opacity:1;stroke:#000000;stroke-width:0.53333336;stroke-linecap:butt;stroke-linejoin:miter;stroke-miterlimit:4;stroke-dasharray:none;stroke-opacity:1"
       x="415.76602"
       y="578.03052"
       id="text5094"><tspan
         id="tspan5098"
         sodipodi:role="line"
         x="415.76602"
         y="578.03052"
         style="font-size:14.9333334px;line-height:1;stroke-width:0.53333336">ᎰᏩ! ... ᎯᎠ ᎣᏍᏓ!</tspan></text>
    <g
       id="g5138"
       transform="translate(-259.53061,45.734694)">
      <text
         xml:space="preserve"
         style="font-style:normal;font-variant:normal;font-weight:500;font-stretch:normal;font-size:12.80000019px;line-height:0%;font-family:Cherokeehandlines;-inkscape-font-specification:'Cherokeehandlines Medium';text-align:center;letter-spacing:0px;word-spacing:0px;writing-mode:lr-tb;text-anchor:middle;fill:#000000;fill-opacity:1;stroke:none;stroke-width:1.06666672;stroke-linecap:butt;stroke-linejoin:miter;stroke-miterlimit:4;stroke-dasharray:none;stroke-opacity:1"
         x="628.28186"
         y="973.10352"
         id="text5102"><tspan
           style="font-style:normal;font-variant:normal;font-weight:500;font-stretch:normal;font-size:68.00730896px;line-height:1;font-family:Cherokeehandlines;-inkscape-font-specification:'Cherokeehandlines Medium';fill:#000000;fill-opacity:1;stroke:none;stroke-width:1.06666672;stroke-miterlimit:4;stroke-dasharray:none;stroke-opacity:1"
           id="tspan5104"
           sodipodi:role="line"
           x="628.28186"
           y="973.10352">Ꭳ!</tspan></text>
      <path
         inkscape:connector-curvature="0"
         id="path5126"
         d="m 612.79685,927.09365 c -3.49715,-0.007 -6.9887,0.20322 -10.47759,0.40565 -2.92115,0.0502 -5.87197,-0.50528 -8.77847,-0.01 -0.79754,0.12193 -1.60056,0.82908 -1.43277,1.70368 -0.0304,0.99713 0.081,1.99356 0.14687,2.98082 -0.0992,0.33537 -0.38958,0.60374 -0.32228,0.99671 -0.0849,0.46282 0.0584,1.06262 0.62649,1.07072 2.76379,0.41745 5.56481,0.005 8.33976,-0.0612 8.16483,-0.43355 16.33148,-0.8348 24.50075,-1.17139 1.74944,-0.16548 3.63136,-0.14489 5.20647,-1.02531 1.14192,-0.68774 1.19373,-2.22818 0.92213,-3.38757 -0.31415,-0.77836 -1.29911,-0.84005 -2.00731,-1.01346 -3.05491,-0.35008 -6.14186,-0.2156 -9.20998,-0.35345 -2.50451,-0.0668 -5.00804,-0.16584 -7.51407,-0.13568 z"
         style="opacity:1;fill:#ff0000;fill-opacity:1;fill-rule:evenodd;stroke:none;stroke-width:1.06666672;stroke-linecap:round;stroke-linejoin:round;stroke-miterlimit:4;stroke-dasharray:none;stroke-dashoffset:0;stroke-opacity:1" />
      <path
         inkscape:connector-curvature="0"
         id="path5128"
         d="m 598.35657,941.98274 c -0.11759,1.09617 -0.10443,2.24078 -0.0626,3.3541 0.1056,0.67446 1.01423,0.5352 1.51057,0.632 5.81938,0.3155 11.67032,0.0724 17.47896,0.41323 1.54805,0.16383 3.181,0.4229 4.50643,1.28608 0.8191,0.97576 0.866,2.34903 1.09031,3.55043 0.47681,4.09115 0.71535,8.21326 0.64229,12.33709 -0.0735,1.17819 -0.0699,2.53971 -1.0791,3.36779 -1.36369,1.3258 -3.50214,1.26075 -4.96816,2.42092 -0.48533,0.54111 -0.5374,1.44941 -0.23876,2.08646 0.56394,0.33021 1.29401,0.0881 1.92018,0.13355 2.13984,-0.12802 4.29457,-0.23043 6.42072,-0.44023 2.2059,-1.65899 4.18255,-3.61613 6.00655,-5.68255 1.06336,-1.09408 0.78528,-2.75227 0.72956,-4.13368 -0.0748,-1.96109 -0.51133,-3.92236 -0.21545,-5.8801 0.14104,-2.06083 0.52754,-4.13542 0.30586,-6.20229 -0.20099,-1.26998 -1.5644,-1.79166 -2.41475,-2.56381 -1.79739,-1.32863 -3.46531,-2.8878 -5.48078,-3.88603 -2.21954,-0.8114 -4.63923,-0.62065 -6.96121,-0.66925 -4.10896,0.069 -8.22004,0.19526 -12.32749,-0.0178 -2.26135,-0.0473 -4.54305,-0.17666 -6.79239,-0.13552 l -0.0707,0.0296 z"
         style="opacity:1;fill:#ff0000;fill-opacity:1;fill-rule:evenodd;stroke:none;stroke-width:1.06666672;stroke-linecap:round;stroke-linejoin:round;stroke-miterlimit:4;stroke-dasharray:none;stroke-dashoffset:0;stroke-opacity:1" />
      <path
         inkscape:connector-curvature="0"
         id="path5130"
         d="m 599.51385,953.00179 c -2.05624,0.0742 -4.257,-0.20085 -6.15894,0.7551 -1.24873,1.00787 -2.16125,2.37467 -3.00023,3.72736 -0.0942,3.64183 -0.0543,7.30286 -0.0971,10.95207 0.19912,0.41508 0.83614,0.0629 1.15406,0.42292 1.59583,1.05946 2.89083,2.62863 4.68887,3.38454 1.47014,0.1909 2.97523,0.0487 4.4577,0.0798 2.0528,-0.0809 4.13892,0.0718 6.16449,-0.32197 0.72817,-0.2869 0.75601,-1.23708 1.27809,-1.74724 0.73283,-0.92037 1.76141,-1.59948 2.56558,-2.45215 0.009,-3.89577 -0.15392,-7.82151 -0.28963,-11.72655 -0.0733,-0.80641 0.006,-1.66457 -0.22772,-2.43368 -1.07257,-0.72139 -2.43434,-0.41843 -3.64563,-0.54819 -2.2958,-0.0688 -4.59281,-0.097 -6.88962,-0.0919 z m 2.95818,2.04822 c 1.81896,-0.0539 3.79755,0.8568 4.47599,2.63857 0.81605,1.98244 0.7267,4.18732 0.8137,6.29553 -0.0121,2.32985 -1.82758,4.37753 -3.95433,5.17364 -1.74494,0.65219 -3.75758,0.54471 -5.47061,-0.15544 -1.9267,-0.89335 -3.4353,-2.78434 -3.55995,-4.93488 -0.22787,-1.5677 -0.0114,-3.12045 0.0265,-4.68545 -0.30638,-0.52821 -0.12548,-1.14187 0.24314,-1.59296 0.48396,-0.68905 0.82989,-1.50473 1.42344,-2.10091 0.98592,-0.7621 2.31681,-0.44695 3.46502,-0.5784 0.84554,-0.0252 1.69114,-0.0591 2.53715,-0.0597 z"
         style="opacity:1;fill:#ff0000;fill-opacity:1;fill-rule:evenodd;stroke:none;stroke-width:1.06666672;stroke-linecap:round;stroke-linejoin:round;stroke-miterlimit:4;stroke-dasharray:none;stroke-dashoffset:0;stroke-opacity:1" />
      <path
         inkscape:connector-curvature="0"
         id="path5134"
         d="m 648.30134,926.45841 c -1.11693,0.0711 -2.351,0.13354 -3.28903,0.80571 -0.38316,0.66356 -0.2734,1.50829 -0.35766,2.24989 -0.13944,4.72952 0.63724,9.41927 1.15518,14.10567 0.46063,3.07387 0.66936,6.16148 0.80704,9.26394 0.2304,2.76279 0.31956,5.59651 1.21303,8.24504 0.19462,0.69247 0.85851,1.17356 1.58193,1.08213 2.1797,-0.1232 4.24772,-1.56381 4.99499,-3.63794 0.8625,-2.47024 0.7446,-5.1439 1.21562,-7.6878 0.63356,-3.90738 1.67394,-7.76952 1.86385,-11.74563 0.27158,-3.56887 0.51076,-7.16172 0.88646,-10.7007 -0.17215,-0.36212 -0.68846,-0.20948 -0.99005,-0.42027 -2.7325,-0.90319 -5.60684,-1.36072 -8.47371,-1.55147 -0.20245,-0.007 -0.40506,-0.0117 -0.60765,-0.009 z"
         style="opacity:1;fill:#ff0000;fill-opacity:1;fill-rule:evenodd;stroke:none;stroke-width:1.06666672;stroke-linecap:round;stroke-linejoin:round;stroke-miterlimit:4;stroke-dasharray:none;stroke-dashoffset:0;stroke-opacity:1" />
      <path
         inkscape:connector-curvature="0"
         id="path5136"
         d="m 650.17187,968.54742 c -1.31469,-0.0959 -2.49828,0.95199 -2.66444,2.23904 -0.37719,2.15157 1.30598,4.28952 3.4107,4.67208 1.22185,0.36036 2.69191,-0.10592 3.26648,-1.2961 0.90973,-1.60459 0.56802,-3.99239 -1.081,-4.97844 -0.90147,-0.44722 -1.93098,-0.6327 -2.93174,-0.63658 z"
         style="opacity:1;fill:#ff0000;fill-opacity:1;fill-rule:evenodd;stroke:none;stroke-width:1.06666672;stroke-linecap:round;stroke-linejoin:round;stroke-miterlimit:4;stroke-dasharray:none;stroke-dashoffset:0;stroke-opacity:1" />
    </g>
  </g>
</svg>
