<?xml version="1.0" encoding="UTF-8" standalone="no"?>
<svg
   xmlns:dc="http://purl.org/dc/elements/1.1/"
   xmlns:cc="http://creativecommons.org/ns#"
   xmlns:rdf="http://www.w3.org/1999/02/22-rdf-syntax-ns#"
   xmlns:svg="http://www.w3.org/2000/svg"
   xmlns="http://www.w3.org/2000/svg"
   xmlns:sodipodi="http://sodipodi.sourceforge.net/DTD/sodipodi-0.dtd"
   xmlns:inkscape="http://www.inkscape.org/namespaces/inkscape"
   viewBox="0 0 266.25 271.25"
   xml:space="preserve"
   id="svg2"
   version="1.1"
   inkscape:version="0.92.1 r15371"
   sodipodi:docname="beaver-46221-bw.svg"
   inkscape:export-filename="beaver-bw.png"
   inkscape:export-xdpi="300"
   inkscape:export-ydpi="300"
   width="284"
   height="289.33334"><metadata
     id="metadata141"><rdf:RDF><cc:Work
         rdf:about=""><dc:format>image/svg+xml</dc:format><dc:type
           rdf:resource="http://purl.org/dc/dcmitype/StillImage" /><dc:title /></cc:Work></rdf:RDF></metadata><sodipodi:namedview
     pagecolor="#ffffff"
     bordercolor="#666666"
     borderopacity="1"
     objecttolerance="10"
     gridtolerance="10"
     guidetolerance="10"
     inkscape:pageopacity="0"
     inkscape:pageshadow="2"
     inkscape:window-width="640"
     inkscape:window-height="480"
     id="namedview139"
     showgrid="false"
     inkscape:zoom="1.9321611"
     inkscape:cx="376.20066"
     inkscape:cy="155.46839"
     inkscape:current-layer="svg2" /><defs
     id="defs4"><clipPath
       id="clipPath3001"><path
         d="M 0,0 H 887 V 904 H 0 Z"
         id="path7"
         inkscape:connector-curvature="0" /></clipPath></defs><path
     style="fill:#231f20;stroke:none"
     inkscape:connector-curvature="0"
     id="path15"
     d="M 53.2593,270.85039 C 50.6238,270.39805 48.1371,268.55234 46.179,269.53203 37.9677,269.8707 27.94923,265.61561 27.94923,256.65194 39.3234,237.596 52.7319,236.504 74.0883,238.1984 c 12.0153,-2.2968 2.7879,-5.6484 -3.0879,-9.4149 -2.4105,-2.598 -3.9177,-4.5186 -5.2734,-7.3053 -6.2145,-0.6786 -6.177,-6.5907 -7.7964,-11.6367 -0.6786,-0.0375 -1.3185,-0.1137 -1.9971,-0.1137 -0.5646,-0.6399 -0.5646,-0.6399 -0.9033,-1.5435 -0.1512,-0.0375 -0.3012,-0.0762 -0.4149,-0.0762 -5.1972,5.16 -11.2242,-24.1395 -11.4879,-26.1726 -0.4512,-9.0012 -0.4512,-9.0012 -0.6024,-9.3774 -4.7835,1.581 -4.4823,2.8992 -5.6496,-3.1254 -2.2968,0.3762 -5.1972,2.9367 -5.7621,-0.9045 -0.5649,-0.1125 -1.0923,-0.1887 -1.61955,-0.2637 -2.8254,-4.2552 -4.25625,-10.6947 -5.5371,-15.2145 -3.61641,-1.4685 -2.67423,-4.5189 -2.26056,-7.5315 -1.65702,0.3759 -1.65702,0.3759 -2.6742,0.3759 -9.11487,-3.0129 6.70545,-29.8263 3.12654,-33.4041 -5.83827,-1.1298 -5.7996,-5.3472 -6.59061,-9.7911 C 11.1879,98.3681 0.189843,102.9254 0.189843,94.8665 1.395702,90.4601 1.055859,89.3294 5.76444,88.8407 v -0.4149 c -7.910142,-1.1298 -1.95819,-13.0677 8.55,-7.5318 0,-4.2174 -5.12226,-2.448 -1.73319,-9.1884 7.04415,-4.8213 18.00465,8.4726 19.88775,15.5154 2.4858,-0.6399 4.7838,-8.4363 8.55,-2.6367 3.3891,10.9968 -4.2936,15.9306 -2.4492,27.4173 0.6036,2.4093 2.8254,10.2432 4.7838,11.2218 1.7331,-1.8831 8.0226,-2.6355 11.2617,-5.5359 3.0516,-4.6323 5.7258,-7.9839 9.642,-11.8629 -0.225,-0.7149 -1.092,-0.8661 -1.3557,-0.9786 -1.8072,-2.2605 -2.1093,-4.2936 -2.4105,-6.5529 -4.1052,0.9033 -3.5778,-1.4685 -3.9927,-4.7451 -1.3932,0.3762 -1.3932,1.431 -3.0879,1.431 -2.0718,-2.1096 -0.5274,-6.1758 -0.1512,-8.3604 -4.6323,0.8286 -1.1295,-5.3109 -0.5649,-6.6279 -9.3408,3.7278 -2.2593,-8.2851 -0.5271,-10.8084 8.8887,-7.6827 11.0742,-14.9892 10.7343,-26.7762 -21.8826,0 -10.1697,-37.2831 6.8928,-30.6924 2.3358,2.673 3.0504,3.2754 3.2391,7.4565 1.5447,-0.4521 2.6367,-0.5646 4.4826,-0.7158 -5.6496,-9.0762 4.1811,-2.1096 5.4609,-2.4108 0.9045,-1.7319 1.4694,-4.0287 3.3903,-4.3299 1.167,0.9786 1.2432,1.8069 1.3182,3.7653 2.0334,-1.0548 4.0677,-2.7867 5.8758,-4.2927 0,-9.6036 2.5992,-11.2605 12.9939,-10.3944 6.6666,2.598 12.09,6.8916 14.9529,14.2359 0.9798,6.4395 -0.6396,11.9754 -7.8714,12.8787 0,2.1471 6.5157,14.4621 9.1524,18.0012 9.7932,5.085 30.8097,19.7346 24.1053,33.6306 -1.8456,2.1843 -2.5617,0.9036 -4.2186,0.2637 -0.1875,2.523 -0.9411,4.7448 -3.8415,4.5948 -0.7158,2.6355 -1.6194,6.2133 -4.7835,6.477 -0.3012,0.6399 -0.3012,0.6399 -0.3762,1.7706 3.954,2.2596 8.0601,3.2379 11.9766,6.552 0.1512,0 0.2637,0.0762 0.4524,0.1137 1.017,4.0665 8.8512,6.5145 12.6549,10.5447 h 0.4524 c 8.8137,-22.4838 14.3883,-38.1867 37.8153,-47.6778 27.3444,-8.1714 44.6331,-2.8992 61.3182,20.9016 18.531,33.4416 -4.2186,69.2565 -30.5835,90.3081 -6.3657,4.5939 -7.119,4.9335 -8.5875,6.1008 -10.3956,4.4436 -20.2641,14.3859 -30.7347,18.8673 -6.6669,4.7448 -16.9113,10.8843 -21.3939,17.5875 -7.7964,3.0879 -13.8984,17.3613 -22.2597,18.9807 -0.1125,0.7149 -0.15,1.4685 -0.1887,2.2218 0.6786,0.15 6.9681,3.7278 8.1363,4.3302 14.802,4.40625 37.9278,-3.954 44.331,16.60782 -0.0375,0.41484 -0.075,0.82851 -0.1125,1.20585 -3.3903,2.25939 -2.1468,3.80274 -4.671,7.34298 -1.5435,1.09218 -5.1975,2.03437 -6.0633,3.20155 -2.6742,-0.075 -7.458,-2.29804 -8.3988,-2.18437 -2.7504,5.49844 -16.8366,0.97969 -20.3778,-2.56056 -11.9391,-2.37303 -22.7496,1.58088 -34.3125,-0.30117 -18.7197,1.54338 -8.8887,-11.3742 -10.8093,-13.33242 0.1125,-0.0375 0.2634,-0.075 0.4134,-0.15 0.2262,-3.84141 0.2262,-3.84141 0.1137,-6.06327 -0.2637,-0.15117 -0.5271,-0.30117 -0.7533,-0.41484 -0.0375,-0.41367 -0.0375,-0.82851 -0.0375,-1.20471 -4.2564,0.45237 0.9795,14.08479 -3.6165,18.33987 -11.6004,5.53593 -20.6403,2.5617 -32.2782,2.6742 -8.3613,0.82851 -14.3508,5.79962 -22.9008,6.21446 z M 93.4476,15.479 c 1.8834,-0.6774 1.8834,-0.6774 2.1093,-0.9036 -0.075,-0.8661 -0.075,-0.8661 -0.3384,-1.281 -1.0548,0.1887 -1.5447,1.0923 -1.7709,2.1846 z m -62.1843,150.3 c 0.5274,0.5271 1.2057,-5.9871 1.2057,-7.1556 -0.1884,0.0762 -0.3771,0.1137 -0.5271,0.1887 -1.0923,2.2218 -1.281,4.1427 -0.6786,6.9669" /><path
     style="fill:#ffffff;stroke:none"
     inkscape:connector-curvature="0"
     id="path17"
     d="m 52.0923,268.51484 c -1.0173,-0.33867 -1.4685,-0.63984 -1.9209,-0.67734 0,-1.99689 9.3024,-17.06016 4.5576,-17.06016 -6.4032,6.43947 -3.3528,23.23594 -18.8709,14.19726 -5.6496,-6.70311 5.9133,-13.33125 10.0947,-16.30662 0,-0.90354 0,-0.90354 -0.2262,-1.43088 -5.1597,-0.37617 -11.0355,7.41915 -13.4835,11.29806 -0.4524,2.9754 -0.4524,2.9754 -0.6411,3.0879 -4.29381,-5.04612 3.4653,-12.23907 6.7428,-15.25197 7.5705,-4.51875 15.2544,-1.12968 23.352,1.46835 5.3109,2.33556 5.3109,2.33556 5.7621,2.33556 0.0375,-0.0762 0.0762,-0.18867 0.1137,-0.22617 -3.5028,-3.50274 -14.3883,-5.53593 -18.6069,-6.59064 -0.0375,-0.18867 -0.075,-0.30117 -0.1125,-0.45234 7.6077,0 14.6895,3.54024 22.2597,4.70742 -1.5444,-3.91641 -17.1375,-5.49726 -21.9585,-6.0246 v -0.45237 c 8.3238,-1.4307 15.3291,-2.0718 24.1803,-0.7161 10.1697,-1.5057 8.1363,-8.3226 15.1419,4.25637 0.5274,0.1875 0.5274,0.1875 1.1673,0.15 -0.1887,-2.18439 -1.6947,-4.25517 -2.5983,-5.91207 1.8447,0.3762 6.6657,1.7694 7.8717,3.38901 1.9956,0 2.2593,-0.94101 1.3182,-2.22201 -10.5081,-1.7319 -17.9661,-6.6654 -22.2972,-15.5904 -0.3024,-0.0375 -0.6036,-0.0762 -0.8673,-0.1512 -1.5819,1.6194 -0.4137,0.9795 0.0375,3.5028 -0.1875,0 -0.3387,0 -0.4887,0.0375 -4.821,-4.2177 -5.7633,-7.758 -6.5916,-13.1814 -0.5274,-1.0536 -1.0173,-0.7149 -1.6947,-0.8286 -0.867,1.3185 0.3387,3.9927 -0.0762,6.0258 -0.075,0.0375 -0.1875,0.075 -0.225,0.1137 -3.7674,-3.0129 -3.6162,-11.073 -5.5371,-14.6121 -0.4521,-0.0375 -0.8283,-0.0762 -1.2432,-0.0762 -0.3012,0.3012 -0.5274,0.2637 -0.6399,0.2262 0,-2.523 0.8661,-6.2895 -1.6944,-6.552 -1.2435,2.0334 -1.5447,3.8778 -1.9596,6.552 -0.075,0.0375 -0.1875,0.075 -0.2637,0.1137 -16.9113,-25.3827 -6.2517,-56.1891 7.5705,-79.8012 3.0141,-6.0258 6.2532,-11.298 6.9678,-17.8512 -0.7521,-0.3387 -0.7908,-0.15 -1.3557,-0.1125 -0.4137,1.7697 -0.8661,3.5403 -1.3185,5.3097 -8.3613,18.9048 -20.6016,34.7229 -21.6948,56.3391 -0.5274,1.5822 -2.2218,1.4685 -3.6153,1.6572 -0.7536,-1.6572 0,-3.6915 -0.9036,-4.9338 -2.3355,-0.3759 -2.4492,1.9959 -4.8585,2.2596 0,-0.7536 3.1629,-17.8125 -3.2403,-10.4322 -1.09209,3.0129 -1.27959,3.9177 -1.50576,4.0302 -1.77072,-3.9165 -1.65705,-12.804 -5.4621,-12.0516 0.11367,-2.5605 1.46952,-7.6065 0.97968,-9.1512 -0.63984,-0.2262 -0.63984,-0.2262 -1.54455,-0.2262 -9.60468,13.1439 -0.1125,-17.4363 0.0375,-18.3774 0.64104,-3.8412 1.80822,-7.8327 2.18556,-11.1855 -6.44064,-1.1295 -5.98944,-3.2379 -6.85548,-8.4351 C 14.23944,94.5641 -0.638673,103.7915 2.826564,91.9661 7.15782,86.7311 19.02189,97.6157 21.73476,95.5061 21.69609,94.979 21.65859,94.4891 21.62109,93.9992 16.725,90.7988 4.21992,87.296 3.88125,84.2456 c 1.95819,-9.8283 18.30468,3.8415 20.75274,7.3068 0.33984,0.1875 0.60351,0.4512 1.61952,0.3012 3.08907,-4.9338 -21.95742,-17.3613 -10.31952,-19.9221 6.77928,0.6774 14.91561,12.1254 15.55551,19.281 -0.2637,5.6496 -5.00982,9.6036 -5.00982,14.1609 0.0375,0.0375 0.15117,0.075 0.22617,0.1125 0.075,-0.6774 0.18867,-1.3557 0.26367,-2.0331 0.075,0.0375 0.18867,0.1125 0.30117,0.15 0.41487,-2.1468 1.46955,-3.4266 3.72891,-3.2004 1.6956,-2.0718 4.2939,-21.6552 9.0024,-14.3859 2.1468,8.8113 -4.1064,15.6279 -4.1064,25.6839 -0.15,0.9411 -1.5807,4.3302 -1.3932,5.3097 1.8081,-1.2057 0.867,-4.5948 2.0718,-6.0258 1.431,4.1427 3.3141,8.3601 4.7835,12.9927 2.4108,2.9379 -5.0472,8.0214 -2.448,13.2561 0.1875,0 0.4137,0 0.6399,0.075 1.3185,-2.1468 2.298,-10.2432 4.5573,-11.5617 0.0375,0.0375 0.1137,0.0762 0.2262,0.1137 -0.4896,3.0504 -2.6367,9.1887 -0.1512,12.3903 0.2637,0 0.5274,0.075 0.7911,0.1125 0.3399,-0.6399 -0.0375,-1.5444 -0.075,-1.8831 0,-13.8588 3.3528,-10.8459 11.2617,-17.3988 1.5447,-3.1254 8.7012,-13.4826 11.6004,-13.4826 2.9004,2.5242 2.373,0.8673 5.3109,0.8673 0.8286,1.4307 1.5072,1.7694 3.5415,1.7694 1.5435,-1.5444 5.2347,4.2939 5.8746,0.9786 -3.3516,-1.2048 -3.2766,-2.9742 -4.7073,-5.121 -0.9036,0 -1.0173,0.1509 -1.4697,0.2634 0,1.0923 0.3399,1.8834 -1.0161,2.1096 -1.3944,-1.9209 -1.3557,-3.5403 -1.8831,-5.0847 -3.0516,-1.9209 -0.2637,3.7287 -3.1641,4.2174 -2.223,-2.0331 -2.5242,-3.4641 -3.4278,-5.8371 -1.092,0 -1.0545,-0.1875 -1.6944,0.3012 0,0.7161 0.075,3.4278 -1.2057,3.4278 C 60.7923,99.9125 63.0903,93.548 61.998,92.456 l -1.2057,0.1125 c -0.3762,1.5444 -0.8286,3.1638 -1.9209,4.3686 -1.8069,-1.0548 0.3774,-6.9294 0.3774,-8.2476 -2.0718,-2.1084 -3.2016,3.9165 -5.0847,4.2936 0,-2.4105 1.9956,-8.5113 1.6194,-9.8295 -1.8456,0 -1.6956,0.3774 -2.9379,1.5444 0,-3.1641 3.4278,-5.7996 3.4278,-7.7952 -0.2262,-0.2262 -0.4149,-0.4524 -0.6411,-0.6411 -2.1843,0.3774 -3.615,2.4855 -6.0258,2.9754 0,-9.2637 8.5875,-10.5069 10.6584,-16.8339 4.1061,-6.8544 3.7674,-12.9927 4.2936,-20.4867 1.1685,-1.0548 1.8834,-1.5072 1.6959,-2.8242 -0.9048,0 -0.8286,0.1125 -1.4697,0.5271 -17.6262,4.5564 -13.9734,-25.0815 0.9048,-27.0021 8.3988,0.8658 2.9379,5.7246 5.6496,9.3771 1.0923,0.0375 2.1843,0.7911 3.5028,0.7911 0.1887,-0.3012 0.3387,-0.5649 0.5646,-0.8286 -0.5271,-0.8658 -0.6396,-1.2057 -0.5646,-1.6944 1.4682,-0.3012 6.7041,1.431 6.7041,-0.6786 -1.9206,-1.5444 -3.7287,-2.3718 -4.0299,-4.2549 4.1424,0.2637 3.7287,3.7275 5.9883,4.0287 1.2432,-1.9581 0.3771,-5.046 2.9754,-5.7996 -1.0161,8.4738 0.0375,2.4855 5.6496,0.9048 -0.4887,1.0161 -1.7322,2.3343 -1.0923,3.6528 0.2262,0 0.4899,0 0.7536,0.075 1.2057,-1.2048 5.6496,-1.3935 5.9895,-3.7278 -7.6467,-13.821 7.3815,-14.5746 15.1404,-7.6077 9.3036,6.0258 9.981,19.1682 -3.7287,19.1682 -0.0375,0.2637 -0.075,0.5274 -0.075,0.8286 5.3859,5.0085 8.55,10.9968 10.1694,18.8682 6.7794,5.8371 33.6339,18.9798 25.9887,33.2157 -0.2262,0 -0.4524,0.0375 -0.6786,0.075 -1.8069,-2.2218 -1.5819,-2.8992 -1.6944,-5.3847 -2.7867,-1.7331 -2.0343,6.1758 -2.5605,8.3226 -0.1887,0 -0.3024,0.0375 -0.4524,0.075 -0.1137,-0.7911 -0.2637,-1.5819 -0.3774,-2.3343 -0.7911,-0.5274 -0.7911,-0.5274 -1.2423,-0.5274 -1.3932,1.356 -0.7533,8.3601 -3.0888,9.5274 -0.1875,-2.448 0.6408,-2.8992 -1.2048,-3.3516 -0.9048,0.9036 -1.8831,5.7246 -2.5617,7.494 -0.15,0.0375 -0.3387,0.0762 -0.4899,0.1512 0,-0.8658 0.0375,-1.6944 0.0762,-2.523 -0.6786,-0.5649 -0.7536,-0.5649 -1.2435,-0.5649 -0.942,1.1298 -0.942,4.4439 -1.8081,4.9713 -0.3012,-2.0346 -0.15,-2.373 -1.4682,-2.5617 -1.9596,2.7117 -2.5617,6.5154 -5.5371,8.9262 0.0375,0.15 0.075,0.3009 0.1509,0.4509 0.3012,0 0.6024,0 0.9411,0.0375 1.0923,-0.9408 3.4653,-4.5186 4.2939,-4.6311 0,0.9411 -0.3012,1.8444 1.3557,1.8444 0.9048,-0.9033 1.281,-2.0331 1.7709,-3.0879 0.4509,0 0.7533,0.2637 1.7706,0.2637 0.3387,-0.4524 1.0536,-1.2045 1.1673,-1.6944 6.4029,2.523 10.6968,3.954 14.9529,10.3944 4.2564,1.9584 7.7967,2.2596 10.5459,7.3431 0.7908,0 3.2388,4.821 4.0674,6.0633 4.7088,3.2766 12.0903,4.2174 13.8609,11.373 1.0548,0.9036 3.0129,0.2637 4.6326,1.0548 0,4.1424 -4.8963,6.5529 2.223,5.9508 0.15,0.075 0.2637,0.15 0.4512,0.2634 0,3.8403 -5.1222,6.5895 -3.5403,9.0375 0.8286,0 1.9206,-0.1125 2.9754,0.2637 0,7.7955 -18.9069,3.9927 -8.7375,9.0762 0.0375,0.2262 0.15,0.4899 0.225,0.7536 -3.3516,1.6569 -8.8137,-0.4524 -10.2444,0.5274 -0.0375,0.2637 -0.075,0.5274 -0.075,0.7908 1.4307,1.506 2.9379,2.787 3.54,5.2725 -0.5271,0.4137 -1.2807,0.0375 -1.6944,0.6774 -5.0847,-0.15 -10.5843,-1.431 -13.7097,-5.16 -14.0496,-5.8371 -5.6883,14.7258 -6.2907,19.5459 -6.3657,5.0847 -7.3443,-16.9092 -7.3818,-17.0979 -0.4521,-0.3009 -0.4521,-0.3009 -1.1307,-0.4134 -1.8456,1.5057 -2.7492,12.8037 -3.0129,16.7964 -0.1125,0.075 -0.2262,0.1875 -0.3012,0.2637 -5.2359,-7.3818 -1.4694,-11.298 -1.4694,-17.475 -0.7911,-0.6399 -0.9411,-0.4887 -1.506,-0.5649 -3.2016,3.1641 -4.746,9.4536 -7.8339,13.4073 -0.2262,-0.0375 -0.4149,-0.1137 -0.5661,-0.1137 -9.2649,-18.4521 24.6714,-30.8049 33.0327,-41.1621 0.1887,0 0.3387,0 0.5649,0.0375 0.9798,2.2608 1.7322,3.2391 2.1471,6.3657 0.0375,0.0375 0.1125,0.1125 0.2259,0.15 2.8617,-3.2766 -1.4319,-6.7407 -2.223,-9.5661 4.5201,0.3024 6.5544,1.7709 9.1536,6.0258 0.2262,0 0.4887,0.0375 0.7524,0.0762 3.5037,-4.3686 -11.7129,-8.8887 -12.579,-9.2649 -3.3903,-3.54 -6.4032,-6.3267 -7.8726,-10.4319 h -0.9798 c -1.4307,2.8629 7.2705,10.5831 9.5298,13.8585 -1.3935,7.533 -17.25,14.9895 -22.3734,18.0774 -7.2693,6.5532 -16.6101,16.4193 -10.8093,27.2274 3.3525,1.6956 3.2388,-1.5435 5.2734,-2.0331 1.242,0.9033 1.6944,1.167 3.69,1.5444 0.7161,1.9956 1.5072,5.2347 3.9177,6.2883 3.804,0 1.2435,-8.2464 3.1266,-10.8456 2.373,3.3141 0.2637,9.5658 6.7794,10.9593 10.2444,-0.6786 -5.1225,-20.4492 5.3109,-20.4492 4.2561,3.1629 10.848,5.1585 16.5351,5.7246 4.746,18.2649 -1.6197,37.5081 -11.6016,53.2125 -9.3024,10.5444 -9.6798,11.5992 -11.148,11.9754 0.7149,-3.0879 1.8081,-6.9294 0.9036,-9.4899 -0.3762,-0.0375 -0.7161,-0.0375 -1.0548,-0.0375 -2.6367,3.3141 -2.1843,6.5907 -6.4032,10.281 -1.2795,-1.2798 2.5617,-3.7278 1.6959,-5.4987 -0.4149,-0.0375 -0.7911,-0.1125 -1.1685,-0.1125 -3.3141,4.8963 -7.9851,9.4899 -12.3915,13.1427 0,-1.8444 1.6572,-2.673 1.3935,-4.1802 -2.6742,-0.9033 -7.3443,6.7794 -10.3956,7.53294 -0.075,-0.37734 -0.1875,-0.71604 -0.225,-1.01724 -2.9766,-0.5649 -6.102,2.29692 -8.4375,3.5778 -0.075,0.1875 -0.1125,0.33867 -0.1125,0.52734 0.3759,0.37617 0.7521,0.41367 1.5432,0.45117 0.2637,2.9379 0.6036,13.06875 -1.6194,14.91327 -6.5157,1.69572 -11.9016,4.06758 -18.3048,2.56173 -4.4064,-0.11367 -4.4064,-0.11367 -18.0036,0 -3.0516,3.61524 -13.7097,5.64843 -18.1545,5.64843" /><path
     style="fill:#ffffff;stroke:none"
     inkscape:connector-curvature="0"
     id="path19"
     d="m 167.9496,268.0625 c -4.2186,-1.24218 -7.9851,-3.57774 -11.8278,-5.04609 -10.4706,-0.56484 -20.3391,0.60234 -30.2061,0.18867 -3.2778,-0.45234 -4.1814,-2.59923 -4.6713,0.52734 -0.15,0.075 -0.3384,0.15 -0.5271,0.26367 -14.3496,-7.19298 -3.729,-6.59061 -6.2895,-19.50819 2.0331,-1.54338 5.3109,-4.5564 7.6077,-5.3097 -0.1887,1.092 -0.1887,1.092 -0.1125,2.2218 2.448,1.65702 8.775,-8.2476 11.7891,-9.0012 0.1875,4.2939 6.8169,-3.9165 7.6452,-4.104 -1.8069,9.4524 -1.3182,9 -9.6045,14.34738 -0.0375,0.22617 -0.075,0.45234 -0.075,0.71601 2.8629,2.86173 9.717,-4.40619 10.2831,-8.17269 0.3387,0.0762 0.6774,0.1137 1.0536,0.1887 0,2.9754 -3.0129,5.3484 -3.4266,8.24766 1.8069,-0.26367 3.0504,-2.89926 3.9927,-4.29366 1.6569,0 11.8638,4.89603 15.6303,5.98821 5.9508,0.30117 5.9508,0.30117 11.3754,0.37617 -0.1137,0.22617 -12.4674,5.31093 -13.5972,6.02577 4.9335,0 12.279,-6.36444 18.7944,-5.57343 -2.2218,2.78673 -14.3883,3.27657 -14.9154,9.00117 0.5271,-0.18867 0.8283,-0.71601 1.092,-1.16835 4.5951,-4.10391 12.0153,-6.89064 18.2298,-7.38048 v 0.41367 c -0.9411,0.11367 -2.2968,0.71601 -2.8242,1.24338 -0.1137,-0.075 -0.2262,-0.1512 -0.3012,-0.2262 -0.4149,0.2262 -0.7536,0.48987 -1.0923,0.75354 -0.1887,-0.0375 -0.3774,-0.0762 -0.4899,-0.11367 -0.3396,1.28085 -13.9734,5.7996 -10.6593,7.79646 2.2218,-1.31835 4.0302,-4.59492 7.6839,-5.08476 0.6399,-2.10936 8.3991,-3.50274 10.6209,-3.61524 0.0375,-0.15117 0.0762,-0.33867 0.1887,-0.52734 3.8412,0.48984 10.8093,5.64846 11.5629,10.28088 -0.2262,0.22617 -0.4524,0.45234 -0.6774,0.71601 -1.8081,-1.09218 -2.8254,-6.47814 -6.3282,-6.85431 -2.1843,2.74923 9.831,7.60782 1.356,14.12226 -2.9004,1.58205 -4.8588,2.10939 -8.0229,1.46838 v -0.45117 c -4.896,-2.18439 -3.8412,-9.33984 -7.4577,-9.00117 -0.6774,8.05896 7.3077,9.86718 -5.7996,10.54452" /><path
     style="fill:#c0973c;stroke:none"
     inkscape:connector-curvature="0"
     id="path21"
     d="m 46.9323,243.09452 c -0.4521,-0.0375 -0.867,-0.0375 -1.3182,-0.0375 0.2262,-0.86601 0.8286,-1.01718 1.8831,-0.90351 0.15,0.30117 0.2262,0.52734 0.9036,0.79101 -0.15,0.15 -0.15,0.15 -1.4685,0.15" /><path
     style="fill:#ffffff;stroke:none"
     inkscape:connector-curvature="0"
     id="path23"
     d="m 144.5964,232.625 c -0.0375,-0.15 -0.075,-0.3387 -0.075,-0.5274 0.2637,-0.1875 0.5274,-0.3012 0.8286,-0.4512 -0.0375,0.225 -0.075,0.4887 -0.075,0.7524 -0.5274,0.3399 -0.5274,0.3399 -0.6786,0.2262" /><path
     style="fill:#ffffff;stroke:none"
     inkscape:connector-curvature="0"
     id="path25"
     d="m 146.8194,231.7589 c -0.1509,-0.6774 -0.2634,-1.3182 -0.3771,-1.9956 h 0.5646 c 0.1512,0.3012 0.1512,0.3012 0.1512,1.8831 -0.2262,0.1875 -0.2262,0.1875 -0.3387,0.1125" /><path
     style="fill:#ffffff;stroke:none"
     inkscape:connector-curvature="0"
     id="path27"
     d="m 148.4391,230.5544 c -0.2262,-0.4899 -0.2262,-0.4899 -0.3774,-2.5617 0.3774,-0.4137 0.3774,-0.4137 0.8286,-0.4512 0,0.9408 0,1.8444 0.0387,2.7867 -0.3399,0.3012 -0.3399,0.3012 -0.4899,0.2262" /><path
     style="fill:#ffffff;stroke:none"
     inkscape:connector-curvature="0"
     id="path29"
     d="m 150.096,228.8597 c -0.2637,-1.3182 -0.2637,-1.3182 -0.3012,-2.7867 0.1125,0 0.2637,0 0.4137,0.0375 0.2262,0.4137 0.2262,0.4137 0.3774,2.4468 -0.1512,0.1512 -0.2637,0.2637 -0.3774,0.4524 -0.0375,-0.0375 -0.075,-0.075 -0.1125,-0.15" /><path
     style="fill:#ffffff;stroke:none"
     inkscape:connector-curvature="0"
     id="path31"
     d="m 151.5645,226.8629 c -0.075,-0.8661 -0.1125,-1.6944 -0.1125,-2.5605 0.2262,-0.0375 0.4524,-0.0375 0.6786,-0.0375 0.0375,0.4899 0.5646,2.598 -0.5661,2.598" /><path
     style="fill:#ffffff;stroke:none"
     inkscape:connector-curvature="0"
     id="path33"
     d="m 153.3351,225.0185 c -0.1125,-1.8084 -0.4899,-2.1096 0.4149,-3.3903 0.15,0 0.3387,0 0.4887,0.0387 0.0762,1.0158 0.6411,3.0117 -0.9036,3.3516" /><path
     style="fill:#ffffff;stroke:none"
     inkscape:connector-curvature="0"
     id="path35"
     d="m 155.5194,222.9839 c -0.1875,-2.4093 -0.1875,-2.4093 -0.075,-3.2766 0.2637,-0.075 0.5274,-0.1875 0.8286,-0.2625 0.1887,1.581 0.4899,2.2221 0.4899,2.6358 l -1.2435,0.9033" /><path
     style="fill:#ffffff;stroke:none"
     inkscape:connector-curvature="0"
     id="path37"
     d="m 157.629,221.0258 c -0.1125,-1.3185 -0.3762,-2.5605 0,-3.6528 0.1512,-0.075 0.3387,-0.1125 0.5649,-0.1512 0.0375,0.5274 0.1509,1.0548 0.2259,1.5822 0.3387,0.2262 0.3387,0.2262 0.7911,0.2262 0.9036,-1.8084 -0.4524,-2.8242 1.2435,-4.8963 0.1875,-0.0375 0.3387,-0.0375 0.5271,-0.0375 0.075,1.1673 0.225,2.373 0.3762,3.5778 -0.8283,0.9423 -2.7117,3.0504 -3.7287,3.3516" /><path
     style="fill:#ffffff;stroke:none"
     inkscape:connector-curvature="0"
     id="path39"
     d="m 162.4875,216.1685 c -0.0375,-1.3935 -0.075,-2.7495 -0.075,-4.1052 0.1512,-0.075 0.3387,-0.1137 0.5274,-0.1512 0.075,1.206 0.2262,2.448 0.3387,3.6915 -0.2637,0.15 -0.5274,0.3387 -0.7911,0.5649" /><path
     style="fill:#ffffff;stroke:none"
     inkscape:connector-curvature="0"
     id="path41"
     d="m 164.2581,214.5863 c -0.1887,-2.6367 -0.9795,-4.3686 1.3185,-5.4984 -0.0375,1.5057 -0.075,3.0504 -0.075,4.5948 -0.4524,0.2637 -0.8298,0.5649 -1.2435,0.9036" /><path
     style="fill:#ffffff;stroke:none"
     inkscape:connector-curvature="0"
     id="path43"
     d="m 166.7439,212.402 c -0.15,-1.3185 -0.5649,-3.9165 0,-4.7451 0.1884,0 0.4146,0.0375 0.6021,0.075 0.1137,1.3935 0.2262,2.7492 0.3774,4.1802 -0.3774,0.2637 -0.6786,0.4899 -0.9795,0.4899" /><path
     style="fill:#ffffff;stroke:none"
     inkscape:connector-curvature="0"
     id="path45"
     d="m 168.8157,210.5561 c -0.3012,-2.4855 -1.0548,-4.4811 1.2045,-5.4597 0.0762,1.4685 0.2262,2.9367 0.3399,4.4439 -0.4149,0.4137 -1.017,1.1295 -1.5444,1.0158" /><path
     style="fill:#ffffff;stroke:none"
     inkscape:connector-curvature="0"
     id="path47"
     d="m 161.6214,209.7278 c -0.1512,-0.1125 -0.2262,-0.1875 -0.3387,-0.3012 2.7492,-5.9883 4.7076,-11.9004 6.7044,-17.8875 1.431,-8.8887 1.5444,-16.1943 0.1875,-24.9693 -0.4512,-1.4682 -0.4512,-1.4682 -0.4512,-1.9206 0.8661,-0.5649 0.8661,-0.5649 1.4685,-1.1673 -0.15,-2.2968 -1.6197,-3.7287 -1.6947,-4.8585 3.7665,-0.075 10.4334,0.2262 7.6455,-5.0085 3.6537,0 13.4847,-6.5532 7.2327,-9.4149 0,-3.6153 6.1008,-7.8702 -0.2649,-9.6036 -0.5262,-5.4222 1.206,-5.4222 -4.3686,-6.5145 -3.8415,-7.6452 -12.4665,-8.4738 -17.1,-15.6291 8.2113,-34.458 33.6351,-58.5234 70.5093,-50.4258 18.7569,8.3226 23.5407,28.5081 21.2802,48.0915 -3.5403,20.223 -11.3745,35.8509 -25.9887,50.4255 -20.979,17.2866 -44.5572,30.9951 -64.8213,49.1838" /><path
     style="fill:#ffffff;stroke:none"
     inkscape:connector-curvature="0"
     id="path49"
     d="m 171.4899,208.1843 c -0.1137,-1.3932 -0.1887,-2.8242 -0.2262,-4.2561 0.6024,-0.6024 0.4899,-0.7524 1.4307,-0.8661 0.1137,1.3185 0.3012,2.6367 0.4524,3.9927 -1.2045,1.0533 -1.2045,1.0533 -1.6569,1.1295" /><path
     style="fill:#ffffff;stroke:none"
     inkscape:connector-curvature="0"
     id="path51"
     d="m 174.1266,206.075 c -0.2262,-1.5435 -0.2262,-1.5435 -0.2262,-4.5189 0.6774,-0.6783 0.9036,-0.942 1.8831,-1.1682 0,1.1682 0.1125,2.2605 0.9411,3.6915 -2.448,2.0706 -2.448,2.0706 -2.598,1.9956" /><path
     style="fill:#ffffff;stroke:none"
     inkscape:connector-curvature="0"
     id="path53"
     d="m 177.252,203.5145 c -0.075,-3.1641 -0.9036,-5.046 2.1855,-5.7996 -0.0762,1.5432 -0.1137,2.598 0.075,4.4436 -0.7536,0.4512 -1.5069,0.9036 -2.2605,1.356" /><path
     style="fill:#ffffff;stroke:none"
     inkscape:connector-curvature="0"
     id="path55"
     d="m 180.4536,201.2927 c -0.0375,-1.5447 -0.075,-3.0879 -0.075,-4.5951 26.742,-20.2605 54.1617,-32.5383 68.2863,-64.7742 0.4524,0.4512 0.942,0.9036 1.9581,1.3935 0,-1.2435 -0.9036,-1.8084 -1.4307,-2.2596 0.1512,-1.017 0.1512,-1.017 0.6783,-2.5242 0.225,-0.0375 0.4887,-0.1125 0.7524,-0.15 0.1137,0.3012 1.0548,2.3721 2.2605,2.1084 0,-3.4641 -2.9004,-2.2596 -1.2432,-6.9669 1.4319,0 3.0129,3.7665 4.4823,3.3903 -0.3774,-3.0891 -3.8799,-3.4653 -3.5778,-6.0633 0.3012,-0.0387 0.6399,-0.0762 1.0161,-0.0762 0.5649,0.4899 1.9218,2.4855 3.1641,2.298 0,-3.6153 -4.3311,-1.9581 -2.8629,-7.8339 0.1137,-0.0375 0.2637,-0.075 0.4524,-0.075 0.6411,1.017 2.1843,3.9165 3.8424,4.2561 -0.4896,-2.3355 -1.9968,-3.8799 -3.0513,-5.4984 -0.2637,-0.0387 -0.5274,-0.1137 -0.7911,-0.1137 -0.1125,0.1137 -0.1887,0.1887 -0.2262,0.2637 0.1137,-2.0706 0.1137,-2.0706 0.5274,-3.8412 1.2807,0.2259 3.3528,3.5025 4.3311,4.896 0.1887,0 0.3399,0 0.5274,0.0375 0,-4.4439 -4.6323,-4.6326 -4.4061,-10.6959 1.0545,0 4.4061,3.6153 4.9722,5.1225 0.15,-0.075 0.3387,-0.1137 0.4887,-0.1137 -0.6399,-4.7451 -5.085,-4.8201 -5.4609,-11.0718 1.8081,0.3771 4.7085,4.3311 5.5746,6.5154 0.15,-0.0375 0.3387,-0.075 0.5271,-0.1125 -0.6408,-4.971 -5.8008,-6.177 -6.4404,-11.8254 0.7146,0 4.4436,4.5189 5.3109,5.6484 0.3387,0 0.3387,0 0.4512,-0.2259 -2.2221,-3.2379 -7.4955,-8.3979 -6.9306,-12.2016 0.4524,0.5646 7.1193,8.8875 7.7214,9.1137 7.4955,31.0698 -12.5049,58.6359 -35.4795,76.9017 -12.279,8.4354 -25.0476,16.2681 -37.8165,23.9133 -0.7524,0.9036 -6.9294,5.0463 -7.5327,5.16" /><path
     style="fill:#231f20;stroke:none"
     inkscape:connector-curvature="0"
     id="path57"
     d="m 184.0323,197.7899 c -0.4521,-0.4512 -0.4521,-0.4512 -1.1682,-0.7536 -0.0375,-0.225 -0.075,-0.4512 -0.075,-0.6399 0.4149,-0.3012 0.4149,-0.3012 0.9423,-0.3762 0.3009,0.2637 1.1295,2.2971 0.3009,1.7697" /><path
     style="fill:#231f20;stroke:none"
     inkscape:connector-curvature="0"
     id="path59"
     d="m 60.0399,191.2754 c -1.8834,-2.8629 -1.9968,-5.5746 -2.1093,-8.4363 0.075,-0.1887 0.2259,-0.3387 0.3384,-0.4524 0.1125,0.0762 2.0721,7.9089 1.9209,8.9637 -0.0375,-0.0375 -0.1125,-0.075 -0.15,-0.075" /><path
     style="fill:#231f20;stroke:none"
     inkscape:connector-curvature="0"
     id="path61"
     d="m 56.0472,186.5669 c -0.867,-2.7867 -1.5444,-6.5895 -0.5649,-8.925 h 0.4512 c 0.6786,1.6194 -0.1875,5.9883 0.4899,8.85 -0.2262,0.1887 -0.2262,0.1887 -0.3762,0.075" /><path
     style="fill:#231f20;stroke:none"
     inkscape:connector-curvature="0"
     id="path63"
     d="m 53.7117,182.8391 c 0.1512,-2.9379 -1.6944,-9.7536 0.4524,-11.5242 0.225,0.1137 0.225,11.5242 -0.4524,11.5242" /><path
     style="fill:#231f20;stroke:none"
     inkscape:connector-curvature="0"
     id="path65"
     d="m 51.6399,179.1113 c -0.4512,-3.1641 -0.5274,-10.6206 0.867,-12.6915 0.225,0.4887 -0.5271,10.8834 -0.5271,12.729 -0.2262,0.1125 -0.2262,0.1125 -0.3399,-0.0375" /><path
     style="fill:#231f20;stroke:none"
     inkscape:connector-curvature="0"
     id="path67"
     d="m 49.1544,174.9677 c 0.075,-3.7653 0.4896,-6.477 1.4694,-9.8661 0.3012,2.3718 -0.9798,6.5907 -1.1307,9.7536 -0.1125,0.0375 -0.2637,0.075 -0.3387,0.1125" /><path
     style="fill:#ffffff;stroke:none"
     inkscape:connector-curvature="0"
     id="path69"
     d="m 129.0036,171.8048 c -3.0879,-1.7697 -1.8459,-2.6742 -0.5649,-5.235 h 0.4899 c 0.1125,3.0879 0.1125,3.0879 0.4137,5.1975 -0.1875,0.1125 -0.1875,0.1125 -0.3387,0.0375" /><path
     style="fill:#231f20;stroke:none"
     inkscape:connector-curvature="0"
     id="path71"
     d="m 47.4972,171.3149 c 0,-5.3097 1.1298,-9.6786 2.6742,-14.3097 0.15,-0.0387 0.2637,-0.1137 0.4524,-0.1512 -0.4899,1.7319 -2.9766,14.5746 -3.1266,14.4609" /><path
     style="fill:#231f20;stroke:none"
     inkscape:connector-curvature="0"
     id="path73"
     d="m 189.7569,150.4145 c -0.5646,-5.9508 -0.5271,-11.8629 -1.017,-17.3613 -0.8661,0.1125 -0.8661,0.1125 -1.7697,0 -0.0375,-0.2262 -0.0762,-0.4524 -0.0762,-0.6786 0.9798,-0.6774 0.9798,-0.6774 1.7334,-0.9786 v -6.7416 c -2.0343,0.1512 -3.729,1.2057 -5.3109,1.7331 -0.3387,-0.2262 -0.3387,-0.2262 -0.4149,-0.7911 0.2262,-0.2637 0.2262,-0.2637 5.4246,-2.298 0.5274,-2.7105 0.2637,-5.7996 0.4137,-8.2839 -2.0709,0.3012 -3.7665,2.0331 -5.6121,2.3343 -0.0375,-0.1887 -0.075,-0.4149 -0.075,-0.6024 1.5819,-0.9795 3.9174,-1.8081 5.5746,-2.9379 0.3387,-2.8242 0.3387,-2.8242 0.4524,-5.6484 -2.6367,0.8661 -7.9104,3.2379 -9.756,4.7826 -0.2262,-0.0375 -0.4524,-0.075 -0.6399,-0.15 -0.0375,-0.1512 -0.0762,-0.3399 -0.0762,-0.4899 2.0721,-2.0718 7.308,-3.7665 10.2834,-5.1222 1.1295,-4.9713 0.0375,-14.1225 2.9754,-17.625 -0.4899,2.5242 -1.6947,6.0255 -1.356,9.0384 1.2435,-6.6279 1.2435,-6.6279 1.4685,-6.8166 0.3012,4.1049 -2.2971,10.1682 -1.4685,14.4621 0.7536,-0.0762 0.7536,-0.0762 4.9335,-1.7709 0.9423,-7.3428 1.5447,-23.0472 5.3862,-28.4706 0.1137,0.2637 -0.9786,4.1427 -0.8661,4.5576 0.075,-0.0375 0.1887,-0.0762 0.3012,-0.1137 0.4899,6.5154 -2.598,15.7041 -3.3891,23.2746 5.3097,-1.7709 4.9335,-0.6411 5.8383,-5.3109 0.3012,-3.5391 0.4137,-16.9092 3.5778,-20.0346 0.1875,0.075 0.3387,0.15 0.5271,0.3012 -1.092,7.5318 -2.5617,14.6871 -3.465,22.5588 0.9408,-0.1512 3.6912,-1.356 4.5573,-1.1685 0.2262,-1.0161 7.4577,-2.8992 8.8887,-3.0504 0.1137,-0.2262 0.2637,-0.4137 0.4149,-0.6024 0.9786,0 6.7041,-1.2795 7.1178,-1.8069 0.9423,0 2.1471,-0.3399 3.3903,-0.1887 -0.5274,0.9036 -10.6593,2.9754 -13.296,3.7278 -0.0375,0.1512 -0.075,0.3021 -0.1125,0.4896 -1.7709,0.6411 -3.5028,1.3185 -5.3109,1.4697 -0.7911,0.9786 -4.5576,1.6944 -5.7246,2.1831 -0.2637,1.9593 -0.5274,4.0302 -0.7911,6.0633 2.1093,0 5.0085,-2.0331 7.6452,-2.2593 -0.2262,0.3774 -6.3654,2.3355 -7.6452,2.7492 -1.6581,7.6452 2.7117,18.8298 0.7149,25.6089 -0.8286,-2.373 -1.1298,-5.046 -1.1673,-7.2303 -2.1093,0.15 -3.5028,1.167 -5.3859,1.9206 -0.075,4.6698 -0.1887,9.4149 -0.6786,14.3097 -0.1875,-4.5561 -0.3387,-9.075 -0.5274,-13.5948 -1.9956,0 -3.6525,1.4307 -5.3484,2.2218 0,5.7246 -0.4137,12.2016 0.7536,18.1524 -0.3762,0.0375 -0.7161,0.075 -1.0923,0.1887" /><path
     style="fill:#8c6f42;stroke:none"
     inkscape:connector-curvature="0"
     id="path75"
     d="m 190.0956,148.9073 c -0.2262,-2.2218 -0.2262,-2.2218 -0.1125,-3.54 0.15,0.7533 0.15,0.7533 0.1125,3.54" /><path
     style="fill:#231f20;stroke:none"
     inkscape:connector-curvature="0"
     id="path77"
     d="m 250.623,138.1742 c -0.225,-0.075 -0.4512,-0.1875 -0.6399,-0.2637 -0.0375,-0.3387 -0.075,-0.6774 -0.075,-0.9786 0.8286,-0.5271 0.8286,-0.5271 1.1673,-0.5271 0.2637,0.3012 0.2637,0.3012 0.3387,1.2807 -0.6774,0.5649 -0.6774,0.5649 -0.7911,0.4887" /><path
     style="fill:#8c6f42;stroke:none"
     inkscape:connector-curvature="0"
     id="path79"
     d="m 189.4935,135.0488 c 0,-0.4137 0,-0.8286 0.0375,-1.2048 0.1509,1.0548 0.1509,1.0548 -0.0375,1.2048" /><path
     style="fill:#ffffff;stroke:none"
     inkscape:connector-curvature="0"
     id="path81"
     d="m 189.9456,130.6052 c -0.0375,-2.2596 -0.0375,-4.5189 -0.0375,-6.7794 1.6947,-0.8286 3.3891,-1.9581 5.3484,-2.0706 0,2.2218 0,4.4061 0.0375,6.6279 -1.8081,0.7149 -3.5787,1.4685 -5.3484,2.2221" /><path
     style="fill:#ffffff;stroke:none"
     inkscape:connector-curvature="0"
     id="path83"
     d="m 197.1774,127.856 c -0.1887,-0.0375 -0.3012,-0.0375 -0.4524,-0.0375 v -6.8169 c 0.3012,-0.1887 0.6024,-0.3012 0.9423,-0.4512 0,-0.1887 0.0375,-0.3024 0.075,-0.4524 0.4521,-0.0375 0.9033,-0.075 1.3182,-0.1125 -0.0375,-0.1887 -0.075,-0.3024 -0.1137,-0.4524 -1.6569,0.4899 -1.7694,0.6774 -2.3718,0.7536 0,-9.0012 -2.5617,-7.9839 4.2552,-10.8093 -0.15,2.9004 -0.2637,5.9883 -0.225,9.3024 -0.1512,0.075 -0.3024,0.1887 -0.4149,0.3012 0,0.1134 0.0375,0.1884 0.075,0.3396 0.1887,-0.1137 0.3399,-0.1512 0.5649,-0.1887 1.4694,5.8371 1.5444,8.0592 -3.6528,8.6241" /><path
     style="fill:#ffffff;stroke:none"
     inkscape:connector-curvature="0"
     id="path85"
     d="m 189.9456,122.5085 c 0.0375,-1.5819 0.075,-3.2016 0.15,-4.746 -0.15,0.2262 -0.2262,0.4899 -0.3387,0.7536 -0.075,-0.4512 -0.075,-0.4512 0.1887,-4.4439 2.7867,-1.2795 2.7867,-1.2795 5.0088,-2.0706 0.2262,6.7782 0.2262,6.7782 0.1137,8.4726 -1.3935,0 -3.654,1.6569 -5.1225,2.0343" /><path
     style="fill:#231f20;stroke:none"
     inkscape:connector-curvature="0"
     id="path87"
     d="m 31.452,117.9137 c 1.167,-2.0331 2.1468,-3.9165 3.0504,-5.9121 0.0375,0.0375 0.1137,0.1125 0.2262,0.15 0,1.4682 -1.8834,4.6323 -3.1641,5.9133 -0.0375,-0.0762 -0.075,-0.1137 -0.1125,-0.1512" /><path
     style="fill:#231f20;stroke:none"
     inkscape:connector-curvature="0"
     id="path89"
     d="m 190.0956,117.1976 c 0.0375,-0.4137 0.0762,-0.7899 0.1137,-1.2045 0,1.2045 0,1.2045 -0.1137,1.2045" /><path
     style="fill:#ffffff;stroke:none"
     inkscape:connector-curvature="0"
     id="path91"
     d="m 189.9456,113.2061 c 0.1875,-4.7823 -0.3012,-7.2678 5.4609,-7.8327 -0.5271,3.6528 -0.5271,3.6528 -0.6771,5.7609 -0.9798,0.4899 -1.9971,1.0923 -2.8629,1.0923 -0.1125,0.1887 -0.1887,0.3774 -0.2262,0.5274 -0.1125,-0.075 -0.1887,-0.1125 -0.2262,-0.15 -0.4899,0.15 -0.9786,0.3762 -1.4685,0.6021" /><path
     style="fill:#ffffff;stroke:none"
     inkscape:connector-curvature="0"
     id="path93"
     d="m 196.575,110.231 c -1.0935,-6.1383 0.4137,-5.6112 5.3484,-7.3818 -0.1137,0.7161 -0.6036,5.5746 -1.3944,6.3645 -0.075,-0.1125 -0.1875,-0.225 -0.2637,-0.3012 -1.1673,0.8286 -1.8459,0.1137 -2.0709,1.0173 -0.5271,0.075 -1.0545,0.1887 -1.6194,0.3012" /><path
     style="fill:#231f20;stroke:none"
     inkscape:connector-curvature="0"
     id="path95"
     d="m 95.2185,105.8621 c -2.2221,-0.9036 -4.9338,-9.8661 -5.6121,-11.523 -2.4483,-0.9798 -5.9508,-5.6496 -7.3068,-7.5705 -6.177,-0.2634 -5.8383,-2.1081 -7.7214,-7.0791 -0.1887,-0.0387 -0.3387,-0.0762 -0.4899,-0.0762 -1.431,1.5444 -6.2895,4.896 -5.7621,0.5649 h 0.5649 c 0.1125,0.0762 0.1875,0.1887 0.3387,0.3012 4.5948,-0.7524 3.7662,-8.1717 7.8339,-7.1544 0.1137,0.1875 0.2637,0.4512 0.4524,0.7524 -6.8931,9.7545 6.1395,13.671 13.7097,6.1008 3.579,-5.4222 3.0129,-6.2883 3.2391,-13.0302 -7.2318,0.4524 -16.6101,1.281 -17.5887,-7.6827 -1.4697,0 -4.8597,7.1553 -5.0847,9.0012 -0.3024,0.1512 -0.6411,0.2637 -0.9423,0.4521 0.2262,-3.6537 2.298,-6.2517 3.804,-9.3396 -2.523,0 -6.2895,6.3645 -7.6455,6.0633 0.8661,-4.5201 8.4363,-7.9092 11.3742,-11.0721 3.4278,-9.0762 25.4616,-15.9303 30.5088,-4.6698 2.4855,0.6774 12.0153,2.1843 11.7141,6.4395 -3.1266,-2.2593 -5.4621,-4.1052 -8.7387,-4.5564 0.0375,0.15 0.075,0.2637 0.1137,0.4512 2.448,1.206 6.1392,2.3355 6.7416,6.0633 -0.2262,0.1137 -7.0815,-5.121 -8.625,-5.121 -0.2262,0.3762 -0.2262,0.3762 -0.7908,3.8028 -2.7504,6.1392 -7.0068,8.0601 -13.3713,9.5658 2.0709,7.683 4.7838,10.8084 13.2576,12.729 4.671,4.6698 9.4533,-8.5488 9.7557,-10.8081 -1.6956,-0.4899 -3.3153,-1.431 -3.3153,-2.8242 0.8661,-0.8661 8.8887,0.5271 9.6048,2.2218 -1.1673,1.167 -2.5992,0.7911 -3.879,0.7911 -0.867,2.7492 -7.8726,20.373 -9.7182,21.6537 -2.1093,14.8758 1.4319,15.5532 -16.4214,15.5532" /><path
     style="fill:#231f20;stroke:none"
     inkscape:connector-curvature="0"
     id="path97"
     d="m 210.8871,105.8246 c 0.6399,-0.2262 1.0548,-0.6399 1.7706,-0.4512 -0.7533,0.3387 -0.7533,0.3387 -1.7706,0.4512" /><path
     style="fill:#ffffff;stroke:none"
     inkscape:connector-curvature="0"
     id="path99"
     d="m 96.8004,103.9415 c -5.0847,-3.5391 -7.9476,-13.1802 -8.6625,-18.9423 3.5778,-1.9206 5.6121,-4.4811 7.6452,-7.8327 h 0.4524 c 1.0173,4.6311 1.356,9.7533 2.7867,14.7996 0,-5.6484 -1.8081,-11.223 -1.3182,-16.1181 0.6408,1.6947 9.7182,5.7996 12.0525,6.1758 0.6786,4.4064 -0.7521,12.6165 -0.9033,17.2863 -1.0548,5.6859 -7.608,4.4814 -12.0528,4.6314" /><path
     style="fill:#ffffff;stroke:none"
     inkscape:connector-curvature="0"
     id="path101"
     d="m 259.9266,92.3048 c -2.2218,-3.6153 -6.9681,-7.3806 -8.1351,-10.3935 0.15,-0.0762 0.3762,-0.1137 0.6024,-0.1137 3.0888,2.9004 9.3783,9.5661 7.5327,10.5072" /><path
     style="fill:#8c6f42;stroke:none"
     inkscape:connector-curvature="0"
     id="path103"
     d="m 197.7423,91.7774 c 0.2262,-1.2048 0.4896,-2.4093 0.7533,-3.5391 -0.4146,3.0879 -0.4146,3.0879 -0.6033,3.5391 h -0.15" /><path
     style="fill:#8c6f42;stroke:none"
     inkscape:connector-curvature="0"
     id="path105"
     d="m 198.4956,87.9746 c 0.2262,-1.9581 0.2262,-1.9581 0.5649,-2.9754 0.1125,0.3012 0.1125,0.3012 -0.5649,2.9754" /><path
     style="fill:#ffffff;stroke:none"
     inkscape:connector-curvature="0"
     id="path107"
     d="m 255.0681,82.8149 c -1.9959,-1.8084 -6.2145,-5.1222 -6.6294,-7.5693 0.1137,-0.1137 0.1887,-0.2262 0.3387,-0.3021 1.3944,0.5646 6.4416,6.2892 6.4416,7.8339 -0.0759,0 -0.1134,0 -0.1509,0.0375" /><path
     style="fill:#231f20;stroke:none"
     inkscape:connector-curvature="0"
     id="path109"
     d="m 81.621,74.6048 c -0.2262,-0.2262 -0.2262,-0.2262 -0.2262,-0.9786 0.2637,-0.2637 0.2637,-0.2637 1.0923,-0.3774 0.4149,0.4149 0.1137,0.8286 -0.3012,1.356 H 81.621" /><path
     style="fill:#231f20;stroke:none"
     inkscape:connector-curvature="0"
     id="path111"
     d="m 87.0456,73.2488 c -0.3021,-0.3012 -0.6033,-0.5649 -0.867,-0.8286 0.5649,-0.5646 1.0545,-0.5271 2.1093,-0.2637 -0.15,1.0173 -0.4137,0.9798 -1.2423,1.0923" /><path
     style="fill:#ffffff;stroke:none"
     inkscape:connector-curvature="0"
     id="path113"
     d="m 246.6306,72.7214 c -0.7149,-0.7149 -0.7149,-0.8658 -0.8661,-1.317 0.4149,0 0.7911,0.2637 1.5069,0.9033 -0.075,0.15 -0.075,0.3387 -0.075,0.5274 -0.1887,-0.075 -0.3774,-0.1137 -0.5658,-0.1137" /><path
     style="fill:#231f20;stroke:none"
     inkscape:connector-curvature="0"
     id="path115"
     d="m 82.0734,70.1609 c -0.075,-0.3387 -0.1125,-0.6774 -0.1125,-0.9786 0.225,-0.2262 0.225,-0.2262 0.8661,-0.2262 0.1125,0.1875 0.2637,0.3762 0.4137,0.5274 -0.15,0.2262 -0.3012,0.4512 -0.4137,0.6774 h -0.7536" /><path
     style="fill:#231f20;stroke:none"
     inkscape:connector-curvature="0"
     id="path117"
     d="m 109.3806,69.9734 c -1.0923,-0.5274 -0.3762,-1.3182 0.5646,-1.3182 0.2262,0.2259 0.4899,0.7521 0.1512,1.3182 h -0.7158" /><path
     style="fill:#231f20;stroke:none"
     inkscape:connector-curvature="0"
     id="path119"
     d="m 105.6516,67.9391 c -0.4899,-0.4899 -0.3387,-0.7161 -0.3387,-1.0923 0.2262,-0.1887 0.4512,-0.3012 0.6774,-0.4524 0.1137,0.0762 0.3012,0.1887 0.4899,0.3024 0,0.7149 0,0.7149 -0.3012,1.1673 -0.1512,0 -0.3387,0.0375 -0.5274,0.075" /><path
     style="fill:#4f4c4c;stroke:none"
     inkscape:connector-curvature="0"
     id="path121"
     d="m 87.0456,65.4161 c -15.2541,-2.523 -6.2154,-13.7088 2.8617,-18.0012 6.1395,-1.7322 12.4677,-2.6367 16.8366,3.0504 3.3525,11.8254 -11.0733,14.9508 -19.6983,14.9508" /><path
     style="fill:#231f20;stroke:none"
     inkscape:connector-curvature="0"
     id="path123"
     d="m 109.3806,65.1149 c -0.6786,-0.4524 -0.4899,-0.6786 -0.5274,-1.0548 0.3387,-0.2637 0.3387,-0.2637 0.9795,-0.2637 0.0375,0.075 0.1125,1.7322 -0.4521,1.3185" /><path
     style="fill:#231f20;stroke:none"
     inkscape:connector-curvature="0"
     id="path125"
     d="m 85.0113,43.7234 c -3.5403,-1.7694 -1.3182,-4.6311 -0.075,-7.0044 0.3012,-0.0375 0.6399,-0.075 0.9786,-0.075 0.3012,1.3185 5.0847,5.8746 -0.9036,7.0794" /><path
     style="fill:#231f20;stroke:none"
     inkscape:connector-curvature="0"
     id="path127"
     d="m 92.6952,42.2552 c -6.2529,-2.0709 -0.5271,-10.8084 3.3141,-3.7653 0,3.0117 -0.3012,3.6153 -3.3141,3.7653" /><path
     style="fill:#ffffff;stroke:none"
     inkscape:connector-curvature="0"
     id="path129"
     d="m 84.8601,42.1052 c -0.9411,-0.7536 -0.0375,-2.4483 0.3012,-3.0129 0.5274,0 0.6036,-0.3399 1.3185,0.225 0,1.3944 -0.0375,2.5242 -1.6197,2.7879" /><path
     style="fill:#ffffff;stroke:none"
     inkscape:connector-curvature="0"
     id="path131"
     d="m 92.8077,40.6355 c -1.8831,-1.3932 -1.7706,-1.9581 -0.4146,-3.4266 0.7533,0 1.1682,0.4899 2.0718,1.2048 0,0.7911 0.0375,1.4694 -0.4512,2.2218 h -1.206" /><path
     style="fill:#231f20;stroke:none"
     inkscape:connector-curvature="0"
     id="path133"
     d="m 64.0323,34.4222 c -6.6666,-3.8037 -10.2831,-9.5286 -3.0888,-15.3657 1.3932,-0.075 2.7492,-0.1884 4.5948,0.4524 0.075,0.2262 0.1887,0.4524 0.2637,0.7149 0.1887,0.0387 0.4149,0.0762 0.6399,0.1512 1.2057,6.0258 -9.981,8.1339 -1.2048,13.0302 0,0.2259 0,0.4521 0.0375,0.6783 -0.4899,0.4887 -0.9036,0.3012 -1.2423,0.3387" /><path
     style="fill:#ffffff;stroke:none"
     inkscape:connector-curvature="0"
     id="path135"
     d="m 60.2274,29.8649 c -2.6742,-3.2379 -0.6774,-8.8125 3.6915,-8.5101 0,2.7105 -2.1846,4.1799 -3.654,6.2133 0.1512,2.2218 0.1512,2.2218 -0.0375,2.2968" /><path
     style="fill:#231f20;stroke:none"
     inkscape:connector-curvature="0"
     id="path137"
     d="m 105.9903,21.731 c -1.7697,-1.7697 1.2807,-2.5608 1.6569,-4.1802 -4.5573,-4.0677 -11.2992,-5.3484 -2.5605,-8.2101 6.7794,0 12.6552,11.373 8.3988,11.373 -1.3182,-4.2552 -4.7073,-10.4697 -9.6045,-8.6613 0,1.092 5.4246,2.3343 5.4246,6.0633 -0.6786,1.2045 -1.6584,3.5016 -3.3153,3.6153" /></svg>