<?xml version="1.0" encoding="UTF-8" standalone="no"?>
<svg viewBox="0 0 266.25 271.25" xml:space="preserve" xmlns="http://www.w3.org/2000/svg"><defs><clipPath id="clipPath3001"><path d="m0,0h887v904h-887v-904z"></path></clipPath></defs><g transform="matrix(1.25,0,0,-1.25,0,271.25)"><g transform="scale(.24)"><g clip-path="url(#clipPath3001)"><path d="m177.531,1.33203c-8.785,1.50781-17.074,7.66016-23.601,4.39453-27.371-1.1289-60.7659,13.05474-60.7659,42.93364 37.9139,63.5198 82.6089,67.1598 153.7969,61.5118 40.051,7.656 9.293,18.828-10.293,31.383-8.035,8.66-13.059,15.062-17.578,24.351-20.715,2.262-20.59,21.969-25.988,38.789-2.262.125-4.395.379-6.657.379-1.882,2.133-1.882,2.133-3.011,5.145-.504.125-1.004.254-1.383.254-17.324-17.2-37.414,80.465-38.293,87.242-1.504,30.004-1.504,30.004-2.008,31.258-15.945-5.27-14.941-9.664-18.832,10.418-7.656-1.254-17.324-9.789-19.207,3.015-1.883.375-3.641.629-5.3985.879-9.418,14.184-14.1875,35.649-18.457,50.715-12.0547,4.895-8.9141,15.063-7.5352,25.105-5.5234-1.253-5.5234-1.253-8.914-1.253-30.3829,10.043 22.3515,99.421 10.4218,111.347-19.4609,3.766-19.332,17.824-21.9687,32.637-14.5664,14.437-51.22659-.754-51.22659,26.109 4.01953,14.688 2.88672,18.457 18.58199,20.086v1.383c-26.36714,3.766-6.5273,43.559 28.5,25.106 0,14.058-17.0742,8.16-5.7773,30.628 23.4805,16.071 60.0155-28.242 66.2925-51.718 8.286,2.133 15.946,28.121 28.5,8.789 11.297-36.656-14.312-53.102-8.164-91.391 2.012-8.031 9.418-34.144 15.946-37.406 5.777,6.277 26.742,8.785 37.539,18.453 10.172,15.441 19.086,26.613 32.14,39.543-.75,2.383-3.64,2.887-4.519,3.262-6.024,7.535-7.031,14.312-8.035,21.843-13.684-3.011-11.926,4.895-13.309,15.817-4.644-1.254-4.644-4.77-10.293-4.77-6.906,7.032-1.758,20.586-.504,27.868-15.441-2.762-3.765,17.703-1.883,22.093-31.136-12.426-7.531,27.617-1.757,36.028 29.629,25.609 36.914,49.964 35.781,89.254-72.942,0-33.899,124.277 22.976,102.308 7.786-8.91 10.168-10.918 10.797-24.855 5.149,1.507 8.789,1.882 14.942,2.386-18.832,30.254 13.937,7.032 18.203,8.036 3.015,5.773 4.898,13.429 11.301,14.433 3.89-3.262 4.144-6.023 4.394-12.551 6.778,3.516 13.559,9.289 19.586,14.309 0,32.012 8.664,37.535 43.313,34.648 22.222-8.66 40.3-22.972 49.843-47.453 3.266-21.465-2.132-39.918-26.238-42.929 0-7.157 21.719-48.207 30.508-60.004 32.644-16.95 102.699-65.782 80.351-112.102-6.152-7.281-8.539-3.012-14.062-.879-.625-8.41-3.137-15.816-12.805-15.316-2.386-8.785-5.398-20.711-15.945-21.59-1.004-2.133-1.004-2.133-1.254-5.902 13.18-7.532 26.867-10.793 39.922-21.84 .504,0 .879-.254 1.508-.379 3.39-13.555 29.504-21.715 42.183-35.149h1.508c29.379,74.946 47.961,127.289 126.051,158.926 91.148,27.238 148.777,9.664 204.394-69.672 61.77-111.472-14.062-230.855-101.945-301.027-21.219-15.313-23.73-16.445-28.625-20.336-34.652-14.812-67.547-47.953-102.449-62.891-22.223-15.816-56.371-36.281-71.313-58.625-25.988-10.293-46.328-57.871-74.199-63.269-.375-2.383-.5-4.895-.629-7.406 2.262-.5 23.227-12.426 27.121-14.434 49.34-14.6875 126.426,13.18 147.77-55.3594-.125-1.3828-.25-2.7617-.375-4.0195-11.301-7.5313-7.156-12.6758-15.57-24.4766-5.145-3.6406-17.325-6.78122-20.211-10.67184-8.914.25-24.86,7.66014-27.996,7.28124-9.168-18.32812-56.122-3.26562-67.926,8.5352-39.797,7.9101-75.832-5.2696-114.375,1.0039-62.399-5.1446-29.629,37.914-36.031,44.4414 .375.125.878.25 1.378.5 .754,12.8047.754,12.8047.379,20.2109-.879.5039-1.757,1.0039-2.511,1.3828-.125,1.3789-.125,2.7617-.125,4.0157-14.188-1.5079 3.265-46.9493-12.055-61.1329-38.668-18.4531-68.801-8.539-107.594-8.914-27.871-2.7617-47.836-19.33206-76.336-20.71487zm133.961,851.23797c6.278,2.258 6.278,2.258 7.031,3.012-.25,2.887-.25,2.887-1.128,4.27-3.516-.629-5.149-3.641-5.903-7.282zm-207.281-501c1.758-1.757 4.019,19.957 4.019,23.852-.628-.254-1.257-.379-1.757-.629-3.641-7.406-4.27-13.809-2.262-23.223" fill="#231f20"></path><path d="m173.641,9.11719c-3.391,1.12891-4.895,2.13281-6.403,2.25781 0,6.6563 31.008,56.8672 15.192,56.8672-21.344-21.4649-11.176-77.45314-62.903-47.3242-18.832,22.3437 19.711,44.4375 33.649,54.3554 0,3.0118 0,3.0118-.754,4.7696-17.199,1.2539-36.785-24.7305-44.945-37.6602-1.508-9.918-1.508-9.918-2.137-10.293-14.3127,16.8204 11.551,40.7969 22.476,50.8399 25.235,15.0625 50.848,3.7656 77.84-4.8945 17.703-7.7852 17.703-7.7852 19.207-7.7852 .125.2539.254.6289.379.7539-11.676,11.6758-47.961,18.4531-62.023,21.9688-.125.6289-.25,1.0039-.375,1.5078 25.359,0 48.965-11.8008 74.199-15.6914-5.148,13.0547-57.125,18.3242-73.195,20.082v1.5079c27.746,4.769 51.097,6.906 80.601,2.387 33.899,5.019 27.121,27.742 50.473-14.1879 1.758-.625 1.758-.625 3.891-.5-.629,7.2813-5.649,14.1839-8.661,19.7069 6.149-1.254 22.219-5.898 26.239-11.2967 6.652,0 7.531,3.1367 4.394,7.4067-35.027,5.773-59.887,22.218-74.324,51.968-1.008.125-2.012.254-2.891.504-5.273-5.398-1.379-3.265.125-11.676-.625,0-1.129,0-1.629-.125-16.07,14.059-19.211,25.86-21.972,43.938-1.758,3.512-3.391,2.383-5.649,2.762-2.89-4.395 1.129-13.309-.254-20.086-.25-.125-.625-.25-.75-.379-12.558,10.043-12.054,36.91-18.457,48.707-1.507.125-2.761.254-4.144.254-1.004-1.004-1.758-.879-2.133-.754 0,8.41 2.887,20.965-5.648,21.84-4.145-6.778-5.149-12.926-6.532-21.84-.25-.125-.625-.25-.879-.379-56.371,84.609-20.839,187.297 25.235,266.004 10.047,20.086 20.844,37.66 23.226,59.504-2.507,1.129-2.636.5-4.519.375-1.379-5.899-2.887-11.801-4.395-17.699-27.871-63.016-68.672-115.743-72.316-187.797-1.758-5.274-7.406-4.895-12.051-5.524-2.512,5.524 0,12.305-3.012,16.446-7.785,1.253-8.164-6.653-16.195-7.532 0,2.512 10.543,59.375-10.801,34.774-3.6403-10.043-4.2653-13.059-5.0192-13.434-5.9024,13.055-5.5235,42.68-18.207,40.172 .3789,8.535 4.8984,25.355 3.2656,30.504-2.1328.754-2.1328.754-5.1485.754-32.0156-43.813-.375,58.121.125,61.258 2.1368,12.804 6.0274,26.109 7.2852,37.285-21.4688,3.765-19.9648,10.793-22.8516,28.117-12.8047,27.117-62.39841-3.641-50.84762,35.777 14.43752,17.45 53.98442-18.832 63.02732-11.8-.1289,1.757-.2539,3.39-.3789,5.023-16.3203,10.668-58.0039,22.344-59.1328,32.512 6.5273,32.761 61.0156-12.805 69.1758-24.356 1.1328-.625 2.0117-1.504 5.3984-1.004 10.2969,16.446-73.1914,57.871-34.3984,66.407 22.5976-2.258 49.7187-40.418 51.8517-64.27-.879-18.832-16.6994-32.012-16.6994-47.203 .125-.125.5039-.25.7539-.375 .25,2.258.6289,4.519.8789,6.777 .25-.125.6289-.375 1.0039-.5 1.3829,7.156 4.8985,11.422 12.4297,10.668 5.652,6.906 14.313,72.184 30.008,47.953 7.156-29.371-13.688-52.093-13.688-85.613-.5-3.137-5.269-14.434-4.644-17.699 6.027,4.019 2.89,15.316 6.906,20.086 4.77-13.809 11.047-27.867 15.945-43.309 8.036-9.793-16.824-26.738-8.16-44.187 .625,0 1.379,0 2.133-.25 4.395,7.156 7.66,34.144 15.191,38.539 .125-.125.379-.254.754-.379-1.632-10.168-8.789-30.629-.504-41.301 .879,0 1.758-.25 2.637-.375 1.133,2.133-.125,5.148-.25,6.277 0,46.196 11.176,36.153 37.539,57.996 5.149,10.418 29.004,44.942 38.668,44.942 9.668-8.414 7.91-2.891 17.703-2.891 2.762-4.769 5.024-5.898 11.805-5.898 5.145,5.148 17.449-14.313 19.582-3.262-11.172,4.016-10.922,9.914-15.691,17.07-3.012,0-3.391-.503-4.899-.878 0-3.641 1.133-6.278-3.387-7.032-4.648,6.403-4.519,11.801-6.277,16.949-10.172,6.403-.879-12.429-10.547-14.058-7.41,6.777-8.414,11.547-11.426,19.457-3.64,0-3.515.625-5.648-1.004 0-2.387.25-11.426-4.019-11.426-10.422,11.926-2.762,33.141-6.403,36.781l-4.019-.375c-1.254-5.148-2.762-10.546-6.403-14.562-6.023,3.516 1.258,23.098 1.258,27.492-6.906,7.028-10.672-13.055-16.949-14.312 0,8.035 6.652,28.371 5.398,32.765-6.152,0-5.652-1.258-9.793-5.148 0,10.547 11.426,19.332 11.426,25.984-.754.754-1.383,1.508-2.137,2.137-7.281-1.258-12.05-8.285-20.086-9.918 0,30.879 28.625,35.023 35.528,56.113 13.687,22.848 12.558,43.309 14.312,68.289 3.895,3.516 6.278,5.024 5.653,9.414-3.016,0-2.762-.375-4.899-1.757-58.754-15.188-46.578,83.605 3.016,90.007 27.996-2.886 9.793-19.082 18.832-31.257 3.641-.125 7.281-2.637 11.676-2.637 .629,1.004 1.129,1.883 1.882,2.762-1.757,2.886-2.132,4.019-1.882,5.648 4.894,1.004 22.347-4.77 22.347,2.262-6.402,5.148-12.429,7.906-13.433,14.183 13.808-.879 12.429-12.425 19.961-13.429 4.144,6.527 1.257,16.82 9.918,19.332-3.387-28.246.125-8.285 18.832-3.016-1.629-3.387-5.774-7.781-3.641-12.176 .754,0 1.633,0 2.512-.25 4.019,4.016 18.832,4.645 19.965,12.426-25.489,46.07 24.605,48.582 50.468,25.359 31.012-20.086 33.27-63.894-12.429-63.894-.125-.879-.25-1.758-.25-2.762 17.953-16.695 28.5-36.656 33.898-62.894 22.598-19.457 112.113-63.266 86.629-110.719-.754,0-1.508-.125-2.262-.25-6.023,7.406-5.273,9.664-5.648,17.949-9.289,5.777-6.781-20.586-8.535-27.742-.629,0-1.008-.125-1.508-.25-.379,2.637-.879,5.273-1.258,7.781-2.637,1.758-2.637,1.758-4.141,1.758-4.644-4.52-2.511-27.867-10.296-31.758-.625,8.16 2.136,9.664-4.016,11.172-3.016-3.012-6.277-19.082-8.539-24.98-.5-.125-1.129-.254-1.633-.504 0,2.886.125,5.648.254,8.41-2.262,1.883-2.512,1.883-4.145,1.883-3.14-3.766-3.14-14.813-6.027-16.571-1.004,6.782-.5,7.91-4.894,8.539-6.532-9.039-8.539-21.718-18.457-29.754 .125-.5.25-1.003.503-1.503 1.004,0 2.008,0 3.137-.125 3.641,3.136 11.551,15.062 14.313,15.437 0-3.137-1.004-6.148 4.519-6.148 3.016,3.011 4.27,6.777 5.903,10.293 1.503,0 2.511-.879 5.902-.879 1.129,1.508 3.512,4.015 3.891,5.648 21.343-8.41 35.656-13.18 49.843-34.648 14.188-6.528 25.989-7.532 35.153-24.477 2.636,0 10.796-16.07 13.558-20.211 15.696-10.922 40.301-14.058 46.203-37.91 3.516-3.012 10.043-.879 15.442-3.516 0-13.808-16.321-21.843 7.41-19.836 .5-.25.879-.5 1.504-.878 0-12.801-17.074-21.965-11.801-30.125 2.762,0 6.402.375 9.918-.879 0-25.985-63.023-13.309-29.125-30.254 .125-.754.5-1.633.75-2.512-11.172-5.523-29.379,1.508-34.148-1.758-.125-.879-.25-1.758-.25-2.636 4.769-5.02 9.793-9.29 11.8-17.575-1.757-1.379-4.269-.125-5.648-2.258-16.949.5-35.281,4.77-45.699,17.2-46.832,19.457-18.961-49.086-20.969-65.153-21.219-16.949-24.481,56.364-24.606,56.993-1.507,1.003-1.507,1.003-3.769,1.378-6.152-5.019-9.164-42.679-10.043-55.988-.375-.25-.754-.625-1.004-.879-17.453,24.606-4.898,37.66-4.898,58.25-2.637,2.133-3.137,1.629-5.02,1.883-10.672-10.547-15.82-31.512-26.113-44.691-.754.125-1.383.379-1.887.379-30.883,61.507 82.238,102.683 110.109,137.207 .629,0 1.129,0 1.883-.125 3.266-7.536 5.774-10.797 7.157-21.219 .125-.125.375-.375.753-.5 9.539,10.922-4.773,22.469-7.41,31.887 15.067-1.008 21.848-5.903 30.512-20.086 .754,0 1.629-.125 2.508-.254 11.679,14.562-39.043,29.629-41.93,30.883-11.301,11.8-21.344,21.089-26.242,34.773h-3.266c-4.769-9.543 24.235-35.277 31.766-46.195-4.645-25.11-57.5-49.965-74.578-60.258-24.231-21.844-55.367-54.731-36.031-90.758 11.175-5.652 10.796,5.145 17.578,6.777 4.14-3.011 5.648-3.89 12.3-5.148 2.387-6.652 5.024-17.449 13.059-20.961 12.68,0 4.145,27.488 10.422,36.152 7.91-11.047.879-31.886 22.598-36.531 34.148,2.262-17.075,68.164 17.703,68.164 14.187-10.543 36.16-17.195 55.117-19.082 15.82-60.883-5.399-125.027-38.672-177.375-31.008-35.148-32.266-38.664-37.16-39.918 2.383,10.293 6.027,23.098 3.012,31.633-1.254.125-2.387.125-3.516.125-8.789-11.047-7.281-21.969-21.344-34.27-4.265,4.266 8.539,12.426 5.653,18.329-1.383.125-2.637.375-3.895.375-11.047-16.321-26.617-31.633-41.305-43.809 0,6.148 5.524,8.91 4.645,13.934-8.914,3.011-24.481-22.598-34.652-25.1098-.25,1.2578-.625,2.3868-.75,3.3908-9.922,1.883-20.34-7.6564-28.125-11.926-.25-.625-.375-1.1289-.375-1.7578 1.253-1.2539 2.507-1.3789 5.144-1.5039 .879-9.793 2.012-43.5625-5.398-49.7109-21.719-5.6524-39.672-13.5586-61.016-8.5391-14.688.3789-14.688.3789-60.012,0-10.172-12.0508-45.699-18.82811-60.515-18.82811" fill="#c0973c"></path><path d="m559.832,10.625c-14.062,4.1406-26.617,11.9258-39.426,16.8203-34.902,1.8828-67.797-2.0078-100.687-.6289-10.926,1.5078-13.938,8.6641-15.571-1.7578-.5-.25-1.128-.5-1.757-.8789-47.832,23.9766-12.43,21.9687-20.965,65.0273 6.777,5.1446 17.703,15.188 25.359,17.699-.629-3.64-.629-3.64-.375-7.406 8.16-5.5234 29.25,27.492 39.297,30.004 .625-14.313 22.723,13.055 25.484,13.68-6.023-31.508-4.394-30-32.015-47.8246-.125-.7539-.25-1.5078-.25-2.3867 9.543-9.5391 32.39,14.6873 34.277,27.2423 1.129-.254 2.258-.379 3.512-.629 0-9.918-10.043-17.828-11.422-27.4922 6.023.8789 10.168,9.6642 13.309,14.3122 5.523,0 39.546-16.3201 52.101-19.9607 19.836-1.0039 19.836-1.0039 37.918-1.2539-.379-.7539-41.558-17.7031-45.324-20.0859 16.445,0 40.93,21.2148 62.648,18.5781-7.406-9.2891-47.961-10.9219-49.718-30.0039 1.757.6289 2.761,2.3867 3.64,3.8945 15.317,13.6797 40.051,22.9688 60.766,24.6016v-1.3789c-3.137-.3789-7.656-2.3867-9.414-4.1446-.379.25-.754.504-1.004.754-1.383-.754-2.512-1.6329-3.641-2.5118-.629.125-1.258.2539-1.633.3789-1.132-4.2695-46.578-19.332-35.531-25.9882 7.406,4.3945 13.434,15.3164 25.613,16.9492 2.133,7.0312 27.997,11.6758 35.403,12.0508 .125.5039.254,1.1289.629,1.7578 12.804-1.6328 36.031-18.8282 38.543-34.2696-.754-.7539-1.508-1.5078-2.258-2.3867-6.027,3.6406-9.418,21.5938-21.094,22.8477-7.281-9.1641 32.77-25.3594 4.52-47.0742-9.668-5.2735-16.196-7.0313-26.743-4.8946v1.5039c-16.32,7.2813-12.804,31.1328-24.859,30.0039-2.258-26.8632 24.359-32.8906-19.332-35.1484" fill="#c0973c"></path><path d="m156.441,93.8516c-1.507.125-2.89.125-4.394.125 .754,2.8867 2.762,3.3906 6.277,3.0117 .5-1.0039.754-1.7578 3.012-2.6367-.5-.5-.5-.5-4.895-.5" fill="#c0973c"></path><path d="m481.988,128.75c-.125.5-.25,1.129-.25,1.758 .879.625 1.758,1.004 2.762,1.504-.125-.75-.25-1.629-.25-2.508-1.758-1.133-1.758-1.133-2.262-.754" fill="#876b43"></path><path d="m489.398,131.637c-.503,2.258-.878,4.394-1.257,6.652h1.882c.504-1.004.504-1.004.504-6.277-.754-.625-.754-.625-1.129-.375" fill="#876b43"></path><path d="m494.797,135.652c-.754,1.633-.754,1.633-1.258,8.539 1.258,1.379 1.258,1.379 2.762,1.504 0-3.136 0-6.148.129-9.289-1.133-1.004-1.133-1.004-1.633-.754" fill="#876b43"></path><path d="m500.32,141.301c-.879,4.394-.879,4.394-1.004,9.289 .375,0 .879,0 1.379-.125 .754-1.379.754-1.379 1.258-8.156-.504-.504-.879-.879-1.258-1.508-.125.125-.25.25-.375.5" fill="#876b43"></path><path d="m505.215,147.957c-.25,2.887-.375,5.648-.375,8.535 .754.125 1.508.125 2.262.125 .125-1.633 1.882-8.66-1.887-8.66" fill="#876b43"></path><path d="m511.117,154.105c-.375,6.028-1.633,7.032 1.383,11.301 .5,0 1.129,0 1.629-.129 .254-3.386 2.137-10.039-3.012-11.172" fill="#876b43"></path><path d="m518.398,160.887c-.625,8.031-.625,8.031-.25,10.922 .879.25 1.758.625 2.762.875 .629-5.27 1.633-7.407 1.633-8.786l-4.145-3.011" fill="#876b43"></path><path d="m525.43,167.414c-.375,4.395-1.254,8.535 0,12.176 .504.25 1.129.375 1.883.504 .125-1.758.503-3.516.753-5.274 1.129-.754 1.129-.754 2.637-.754 3.012,6.028-1.508,9.414 4.145,16.321 .625.125 1.129.125 1.757.125 .25-3.891.75-7.91 1.254-11.926-2.761-3.141-9.039-10.168-12.429-11.172" fill="#876b43"></path><path d="m541.625,183.605c-.125,4.645-.25,9.165-.25,13.684 .504.25 1.129.379 1.758.504 .25-4.02.754-8.16 1.129-12.305-.879-.5-1.758-1.129-2.637-1.883" fill="#876b43"></path><path d="m547.527,188.879c-.629,8.789-3.265,14.562 4.395,18.328-.125-5.019-.25-10.168-.25-15.316-1.508-.879-2.766-1.883-4.145-3.012" fill="#876b43"></path><path d="m555.813,196.16c-.5,4.395-1.883,13.055 0,15.817 .628,0 1.382-.125 2.007-.25 .379-4.645.754-9.164 1.258-13.934-1.258-.879-2.262-1.633-3.265-1.633" fill="#876b43"></path><path d="m562.719,202.313c-1.004,8.285-3.516,14.937 4.015,18.199 .254-4.895.754-9.789 1.133-14.813-1.383-1.379-3.39-3.765-5.148-3.386" fill="#876b43"></path><path d="m538.738,205.074c-.504.375-.754.625-1.129,1.004 9.164,19.961 15.692,39.668 22.348,59.625 4.77,29.629 5.148,53.981.625,83.231-1.504,4.894-1.504,4.894-1.504,6.402 2.887,1.883 2.887,1.883 4.895,3.891-.5,7.656-5.399,12.429-5.649,16.195 12.555.25 34.778-.754 25.485,16.695 12.179,0 44.949,21.844 24.109,31.383 0,12.051 20.336,26.234-.883,32.012-1.754,18.074 4.02,18.074-14.562,21.715-12.805,25.484-41.555,28.246-57,52.097 27.371,114.86 112.117,195.078 235.031,168.086 62.523-27.742 78.469-95.027 70.934-160.305-11.801-67.41-37.915-119.503-86.629-168.085-69.93-57.622-148.524-103.317-216.071-163.946" fill="#8c6f42"></path><path d="m571.633,210.219c-.379,4.644-.629,9.414-.754,14.187 2.008,2.008 1.633,2.508 4.769,2.887 .379-4.395 1.004-8.789 1.508-13.309-4.015-3.511-4.015-3.511-5.523-3.765" fill="#876b43"></path><path d="m580.422,217.25c-.754,5.145-.754,5.145-.754,15.063 2.258,2.261 3.012,3.14 6.277,3.894 0-3.894.375-7.535 3.137-12.305-8.16-6.902-8.16-6.902-8.66-6.652" fill="#876b43"></path><path d="m590.84,225.785c-.25,10.547-3.012,16.82 7.285,19.332-.254-5.144-.379-8.66.25-14.812-2.512-1.504-5.023-3.012-7.535-4.52" fill="#876b43"></path><path d="m601.512,233.191c-.125,5.149-.25,10.293-.25,15.317 89.14,67.535 180.539,108.461 227.621,215.914 1.508-1.504 3.14-3.012 6.527-4.645 0,4.145-3.012,6.028-4.769,7.532 .504,3.39.504,3.39 2.261,8.414 .75.125 1.629.375 2.508.5 .379-1.004 3.516-7.907 7.535-7.028 0,11.547-9.668,7.532-4.144,23.223 4.773,0 10.043-12.555 14.941-11.301-1.258,10.297-12.933,11.551-11.926,20.211 1.004.129 2.133.254 3.387.254 1.883-1.633 6.406-8.285 10.547-7.66 0,12.051-14.437,6.527-9.543,26.113 .379.125.879.25 1.508.25 2.137-3.39 7.281-13.055 12.808-14.187-1.632,7.785-6.656,12.933-10.171,18.328-.879.129-1.758.379-2.637.379-.375-.379-.629-.629-.754-.879 .379,6.902.379,6.902 1.758,12.804 4.269-.753 11.176-11.675 14.437-16.32 .629,0 1.133,0 1.758-.125 0,14.813-15.441,15.442-14.687,35.653 3.515,0 14.687-12.051 16.574-17.075 .5.25 1.129.379 1.629.379-2.133,15.817-16.95,16.067-18.203,36.906 6.027-1.257 15.695-14.437 18.582-21.718 .5.125 1.129.25 1.757.375-2.136,16.57-19.336,20.59-21.468,39.418 2.382,0 14.812-15.063 17.703-18.828 1.129,0 1.129,0 1.504.753-7.407,10.793-24.985,27.993-23.102,40.672 1.508-1.882 23.731-29.625 25.738-30.379 24.985-103.566-41.683-195.453-118.265-256.339-40.93-28.118-83.492-54.227-126.055-79.711-2.508-3.012-23.098-16.821-25.109-17.2" fill="#876b43"></path><path d="m613.441,244.867c-1.507,1.504-1.507,1.504-3.894,2.512-.125.75-.25,1.504-.25,2.133 1.383,1.004 1.383,1.004 3.141,1.254 1.003-.879 3.765-7.657 1.003-5.899" fill="#231f20"></path><path d="m200.133,266.582c-6.278,9.543-6.656,18.582-7.031,28.121 .25.629.753,1.129 1.128,1.508 .375-.254 6.907-26.363 6.403-29.879-.125.125-.375.25-.5.25" fill="#231f20"></path><path d="m186.824,282.277c-2.89,9.289-5.148,21.965-1.883,29.75h1.504c2.262-5.398-.625-19.961 1.633-29.5-.754-.629-.754-.629-1.254-.25" fill="#231f20"></path><path d="m179.039,294.703c.504,9.793-5.648,32.512 1.508,38.414 .75-.379.75-38.414-1.508-38.414" fill="#231f20"></path><path d="m172.133,307.129c-1.504,10.547-1.758,35.402 2.89,42.305 .75-1.629-1.757-36.278-1.757-42.43-.754-.375-.754-.375-1.133.125" fill="#231f20"></path><path d="m163.848,320.941c.25,12.551 1.632,21.59 4.898,32.887 1.004-7.906-3.266-21.969-3.769-32.512-.375-.125-.879-.25-1.129-.375" fill="#231f20"></path><path d="m430.012,331.484c-10.293,5.899-6.153,8.914-1.883,17.45h1.633c.375-10.293.375-10.293 1.379-17.325-.625-.375-.625-.375-1.129-.125" fill="#c0973c"></path><path d="m158.324,333.117c0,17.699 3.766,32.262 8.914,47.699 .5.129.879.379 1.508.504-1.633-5.773-9.922-48.582-10.422-48.203" fill="#231f20"></path><path d="m632.523,402.785c-1.882,19.836-1.757,39.543-3.39,57.871-2.887-.375-2.887-.375-5.899,0-.125.754-.254,1.508-.254,2.262 3.266,2.258 3.266,2.258 5.778,3.262v22.472c-6.781-.504-12.43-4.019-17.703-5.777-1.129.754-1.129.754-1.383,2.637 .754.879.754.879 18.082,7.66 1.758,9.035.879,19.332 1.379,27.613-6.903-1.004-12.555-6.777-18.707-7.781-.125.629-.25,1.383-.25,2.008 5.273,3.265 13.058,6.027 18.582,9.793 1.129,9.414 1.129,9.414 1.508,18.828-8.789-2.887-26.368-10.793-32.52-15.942-.754.125-1.508.25-2.133.5-.125.504-.254,1.133-.254,1.633 6.907,6.906 24.36,12.555 34.278,17.074 3.765,16.571.125,47.075 9.918,58.75-1.633-8.414-5.649-20.085-4.52-30.128 4.145,22.093 4.145,22.093 4.895,22.722 1.004-13.683-7.657-33.894-4.895-48.207 2.512.254 2.512.254 16.445,5.903 3.141,24.476 5.149,76.824 17.954,94.902 .379-.879-3.262-13.809-2.887-15.192 .25.125.629.254 1.004.379 1.633-21.718-8.66-52.347-11.297-77.582 17.699,5.903 16.445,2.137 19.461,17.703 1.004,11.797 1.379,56.364 11.926,66.782 .625-.25 1.129-.5 1.757-1.004-3.64-25.106-8.539-48.957-11.55-75.196 3.136.504 12.304,4.52 15.191,3.895 .754,3.387 24.859,9.664 29.629,10.168 .379.754.879,1.379 1.383,2.008 3.262,0 22.347,4.265 23.726,6.023 3.141,0 7.157,1.133 11.301.629-1.758-3.012-35.531-9.918-44.32-12.426-.125-.504-.25-1.007-.375-1.632-5.903-2.137-11.676-4.395-17.703-4.899-2.637-3.262-15.192-5.648-19.082-7.277-.879-6.531-1.758-13.434-2.637-20.211 7.031,0 16.695,6.777 25.484,7.531-.754-1.258-21.218-7.785-25.484-9.164-5.527-25.484 9.039-62.766 2.383-85.363-2.762,7.91-3.766,16.82-3.891,24.101-7.031-.5-11.676-3.89-17.953-6.402-.25-15.566-.629-31.383-2.262-47.699-.625,15.187-1.129,30.25-1.758,45.316-6.652,0-12.175-4.769-17.828-7.406 0-19.082-1.379-40.672 2.512-60.508-1.254-.125-2.387-.25-3.641-.629" fill="#231f20"></path><path d="m633.652,407.809c-.754,7.406-.754,7.406-.375,11.8 .5-2.511.5-2.511.375-11.8" fill="#8c6f42"></path><path d="m835.41,443.586c-.75.25-1.504.625-2.133.879-.125,1.129-.25,2.258-.25,3.262 2.762,1.757 2.762,1.757 3.891,1.757 .879-1.004.879-1.004 1.129-4.269-2.258-1.883-2.258-1.883-2.637-1.629" fill="#231f20"></path><path d="m631.645,454.004c0,1.379 0,2.762.125,4.016 .503-3.516.503-3.516-.125-4.016" fill="#8c6f42"></path><path d="m633.152,468.816c-.125,7.532-.125,15.063-.125,22.598 5.649,2.762 11.297,6.527 17.828,6.902 0-7.406 0-14.687.125-22.093-6.027-2.383-11.929-4.895-17.828-7.407" fill="#8c6f42"></path><path d="m657.258,477.98c-.629.125-1.004.125-1.508.125v22.723c1.004.629 2.008,1.004 3.141,1.504 0,.629.125,1.008.25,1.508 1.507.125 3.011.25 4.394.375-.125.629-.25,1.008-.379,1.508-5.523-1.633-5.898-2.258-7.906-2.512 0,30.004-8.539,26.613 14.184,36.031-.5-9.668-.879-19.961-.75-31.008-.504-.25-1.008-.629-1.383-1.004 0-.378.125-.628.25-1.132 .629.379 1.133.504 1.883.629 4.898-19.457 5.148-26.864-12.176-28.747" fill="#8c6f42"></path><path d="m633.152,495.805c.125,5.273.25,10.672.5,15.82-.5-.754-.754-1.633-1.129-2.512-.25,1.504-.25,1.504.629,14.813 9.289,4.265 9.289,4.265 16.696,6.902 .754-22.594.754-22.594.379-28.242-4.645,0-12.18-5.523-17.075-6.781" fill="#8c6f42"></path><path d="m104.84,511.121c3.89,6.777 7.156,13.055 10.168,19.707 .125-.125.379-.375.754-.5 0-4.894-6.278-15.441-10.547-19.711-.125.254-.25.379-.375.504" fill="#231f20"></path><path d="m633.652,513.508c.125,1.379.254,2.633.379,4.015 0-4.015 0-4.015-.379-4.015" fill="#231f20"></path><path d="m633.152,526.813c.625,15.941-1.004,24.226 18.203,26.109-1.757-12.176-1.757-12.176-2.257-19.203-3.266-1.633-6.657-3.641-9.543-3.641-.375-.629-.629-1.258-.754-1.758-.375.25-.629.375-.754.5-1.633-.5-3.262-1.254-4.895-2.007" fill="#8c6f42"></path><path d="m655.25,536.73c-3.645,20.461 1.379,18.704 17.828,24.606-.379-2.387-2.012-18.582-4.648-21.215-.25.375-.625.75-.879,1.004-3.891-2.762-6.153-.379-6.903-3.391-1.757-.25-3.515-.629-5.398-1.004" fill="#8c6f42"></path><path d="m317.395,551.293c-7.407,3.012-16.446,32.887-18.707,38.41-8.161,3.266-19.836,18.832-24.356,25.235-20.59.878-19.461,7.027-25.738,23.597-.629.129-1.129.254-1.633.254-4.77-5.148-20.965-16.32-19.207-1.883h1.883c.375-.254.625-.629 1.129-1.004 15.316,2.508 12.554,27.239 26.113,23.848 .379-.625.879-1.504 1.508-2.508-22.977-32.515 20.465-45.57 45.699-20.336 11.93,18.074 10.043,20.961 10.797,43.434-24.106-1.508-55.367-4.27-58.629,25.609-4.899,0-16.199-23.851-16.949-30.004-1.008-.504-2.137-.879-3.141-1.507 .754,12.179 7.66,20.839 12.68,31.132-8.41,0-20.965-21.215-25.485-20.211 2.887,15.067 28.121,26.364 37.914,36.907 11.426,30.254 84.872,53.101 101.696,15.566 8.285-2.258 40.051-7.281 39.047-21.465-10.422,7.531-18.207,13.684-29.129,15.188 .125-.5.25-.879.379-1.504 8.16-4.02 20.464-7.785 22.472-20.211-.754-.379-23.605,17.07-28.75,17.07-.754-1.254-.754-1.254-2.636-12.676-9.168-20.464-23.356-26.867-44.571-31.886 6.903-25.61 15.946-36.028 44.192-42.43 15.57-15.566 31.511,28.496 32.519,36.027-5.652,1.633-11.051,4.77-11.051,9.414 2.887,2.887 29.629-1.757 32.016-7.406-3.891-3.89-8.664-2.637-12.93-2.637-2.89-9.164-26.242-67.91-32.394-72.179-7.031-49.586 4.773-51.844-54.738-51.844" fill="#231f20"></path><path d="m702.957,551.418c2.133.754 3.516,2.133 5.902,1.504-2.511-1.129-2.511-1.129-5.902-1.504" fill="#231f20"></path><path d="m322.668,557.695c-16.949,11.797-26.492,43.934-28.875,63.141 11.926,6.402 18.707,14.937 25.484,26.109h1.508c3.391-15.437 4.52-32.511 9.289-49.332 0,18.828-6.027,37.41-4.394,53.727 2.136-5.649 32.394-19.332 40.175-20.586 2.262-14.688-2.507-42.055-3.011-57.621-3.516-18.953-25.36-14.938-40.176-15.438" fill="#fff"></path><path d="m866.422,596.484c-7.406,12.051-23.227,24.602-27.117,34.645 .5.254 1.254.379 2.008.379 10.296-9.668 31.261-31.887 25.109-35.024" fill="#876b43"></path><path d="m659.141,598.242c.754,4.016 1.632,8.031 2.511,11.797-1.382-10.293-1.382-10.293-2.011-11.797h-.5" fill="#8c6f42"></path><path d="m661.652,610.918c.754,6.527.754,6.527 1.883,9.918 .375-1.004.375-1.004-1.883-9.918" fill="#8c6f42"></path><path d="m850.227,628.117c-6.653,6.028-20.715,17.074-22.098,25.231 .379.379.629.754 1.129,1.007 4.648-1.882 21.472-20.964 21.472-26.113-.253,0-.378,0-.503-.125" fill="#876b43"></path><path d="m272.07,655.484c-.754.754-.754.754-.754,3.262 .879.879.879.879 3.641,1.258 1.383-1.383.379-2.762-1.004-4.52h-1.883" fill="#231f20"></path><path d="m290.152,660.004c-1.007,1.004-2.011,1.883-2.89,2.762 1.883,1.882 3.515,1.757 7.031.879-.5-3.391-1.379-3.266-4.141-3.641" fill="#231f20"></path><path d="m822.102,661.762c-2.383,2.383-2.383,2.886-2.887,4.39 1.383,0 2.637-.879 5.023-3.011-.25-.5-.25-1.129-.25-1.758-.629.25-1.258.379-1.886.379" fill="#876b43"></path><path d="m273.578,670.297c-.25,1.129-.375,2.258-.375,3.262 .75.754.75.754 2.887.754 .375-.625.879-1.254 1.379-1.758-.5-.754-1.004-1.504-1.379-2.258h-2.512" fill="#231f20"></path><path d="m364.602,670.922c-3.641,1.758-1.254,4.394 1.882,4.394 .754-.753 1.633-2.507.504-4.394h-2.386" fill="#231f20"></path><path d="m352.172,677.703c-1.633,1.633-1.129,2.387-1.129,3.641 .754.629 1.504,1.004 2.258,1.508 .379-.254 1.004-.629 1.633-1.008 0-2.383 0-2.383-1.004-3.891-.504,0-1.129-.125-1.758-.25" fill="#231f20"></path><path d="m290.152,686.113c-50.847,8.41-20.718,45.696 9.539,60.004 20.465,5.774 41.559,8.789 56.122-10.168 11.175-39.418-36.911-49.836-65.661-49.836" fill="#4f4c4c"></path><path d="m364.602,687.117c-2.262,1.508-1.633,2.262-1.758,3.516 1.129.879 1.129.879 3.265.879 .125-.25.375-5.774-1.507-4.395" fill="#231f20"></path><path d="m283.371,758.422c-11.801,5.898-4.394,15.437-.25,23.348 1.004.125 2.133.25 3.262.25 1.004-4.395 16.949-19.582-3.012-23.598" fill="#231f20"></path><path d="m308.984,763.316c-20.843,6.903-1.757,36.028 11.047,12.551 0-10.039-1.004-12.051-11.047-12.551" fill="#231f20"></path><path d="m282.867,763.816c-3.137,2.512-.125,8.161 1.004,10.043 1.758,0 2.012,1.133 4.395-.75 0-4.648-.125-8.414-5.399-9.293" fill="#fff"></path><path d="m309.359,768.715c-6.277,4.644-5.902,6.527-1.382,11.422 2.511,0 3.894-1.633 6.906-4.016 0-2.637.125-4.898-1.504-7.406h-4.02" fill="#fff"></path><path d="m213.441,789.426c-22.222,12.679-34.277,31.762-10.296,51.219 4.644.25 9.164.628 15.316-1.508 .25-.754.629-1.508.879-2.383 .629-.129 1.383-.254 2.133-.504 4.019-20.086-33.27-27.113-4.016-43.434 0-.753 0-1.507.125-2.261-1.633-1.629-3.012-1.004-4.141-1.129" fill="#231f20"></path><path d="m200.758,804.617c-8.914,10.793-2.258,29.375 12.305,28.367 0-9.035-7.282-13.933-12.18-20.711 .504-7.406.504-7.406-.125-7.656" fill="#c0973c"></path><path d="m353.301,831.73c-5.899,5.899 4.269,8.536 5.523,13.934-15.191,13.559-37.664,17.828-8.535,27.367 22.598,0 42.184-37.91 27.996-37.91-4.394,14.184-15.691,34.899-32.015,28.871 0-3.64 18.082-7.781 18.082-20.211-2.262-4.015-5.528-11.672-11.051-12.051" fill="#231f20"></path></g></g></g></svg>
