<?xml version="1.0" encoding="utf-8"?>

<!DOCTYPE svg PUBLIC "-//W3C//DTD SVG 1.1//EN" "http://www.w3.org/Graphics/SVG/1.1/DTD/svg11.dtd">
<svg version="1.1" id="Layer_1" xmlns="http://www.w3.org/2000/svg" xmlns:xlink="http://www.w3.org/1999/xlink" x="0px" y="0px"
	 viewBox="0 0 1920 1036" enable-background="new 0 0 1920 1036" xml:space="preserve">
<g>
	<path fill="#373536" d="M1113.83,192.79c8.17-3.85,17.6001-6.28,26.5601-4.03c4.97,1.19,9.42,4.45,11.79,9
		c3.4199,6.59,5.1899,13.89,6.2999,21.18c11.9301-6.01,25.05-10.17,38.52-10.07c13.6-0.18,26.89,3.93,38.92,10.04
		c1.39-7.83,3.1499-15.85,7.33-22.72c4.77-7.29,14.34-9.17,22.46-8.01c14.8101,2.27,28.29,10.96,37.41,22.72
		c4.96,6.61,8.8,15.02,7.13,23.44c-0.78,4.41-3.58,8.12-6.9,10.99c-6.0599,5.43-13.1,9.65-20.4299,13.12
		c23.09,28.06,41.1899,59.97,55.26,93.41c8.2599,19.86,15.38,40.34,19.23,61.55c0.85,4.04,0.64,8.19,0.6899,12.3
		c6.3301-0.03,12.67-0.16,19,0.08c-0.01,0.79-0.0499,2.39-0.0599,3.19c-6.3401,0.06-12.6801,0-19.01,0.04
		c-0.0601,3.26,0.2899,6.58-0.4,9.79c-1.1,3.64-2.84,7.05-4.3101,10.54c6.5,2.06,13.1001,3.8,19.63,5.81
		c1.87,0.22,1.0701,2.37,1.1101,3.6c-7.4301-1.72-14.6201-4.31-22.02-6.17c-2.1901,5.85-5.48,11.19-9.6901,15.8
		c-13.41,15.4-31.4,26.05-50.09,33.81c-37.02,14.99-77.71,19.46-117.36,16.62c-25.6901-2.19-51.28-7.52-75.0601-17.64
		c-13.84-5.96-27.11-13.52-38.46-23.5c-6.98-6.25-13.5699-13.26-17.41-21.92c-3.71,0.98-7.39,2.04-11.08,3.04
		c-0.1-0.68-0.29-2.05-0.39-2.73c2.8-1.97,6.49-2.2,9.71-3.27c-1.58-3.79-3.9399-7.27-4.75-11.35c-1.1599-4.05-1.12-8.28-1.09-12.44
		c-6.34-0.07-12.68,0.16-19.01-0.13c-0.02-0.73-0.05-2.19-0.07-2.93c6.37-0.6,12.78-0.13,19.17-0.28
		c-0.6699-10.94,2.4501-21.6,5.15-32.07c7.3-25.93,17.79-50.89,30.24-74.75c11.23-21.27,24.16-41.74,39.6801-60.15
		c-8.62-4.76-17.64-9.52-24.04-17.22c-5.0599-6.24-4.39-15.24-1.14-22.15C1091.8199,207.49,1102.25,198.45,1113.83,192.79
		 M1115.98,199.98c-9.95,5.17-19.1,13.07-23.4199,23.64c-2.1101,4.8-2.0901,11.05,2.0399,14.79
		c8.28,7.92,18.6901,13.46,29.5601,16.94c-28.91,32.26-50.03,70.83-65.7201,111.03c-4.4299,11.98-8.86,24.07-11.47,36.6
		c6.42-11.75,16.11-21.38,27-29.04c16.17-11.34,34.6901-18.96,53.64-24.24c24.17-6.65,49.33-9.43,74.37-8.95
		c21.24,0.22,42.4501,3.02,63,8.42c19.04,5.17,37.6801,12.59,54.0601,23.74c11.61,7.85,21.75,17.98,28.72,30.19
		c-4.99-19.99-12.24-39.36-20.65-58.15c-14.7-32.28-32.91-63.33-56.95-89.58c8.9-2.65,17.23-7.04,24.6699-12.57
		c2.4-1.86,4.8301-3.79,6.63-6.26c2.7001-3.89,1.9501-9.06,0.37-13.24c-4.1799-9.81-12.5199-17.27-21.6499-22.44
		c-6.9-3.75-14.8601-6.46-22.79-5.24c-3.9301,0.51-7.5601,2.98-9.12,6.67c-4.0801,9.03-5.7001,19-5.9301,28.85
		c-8.5399-5.09-17.37-9.96-27.08-12.42c-12.1-3.42-25.15-3.29-37.1901,0.32c-9.3099,2.52-17.7999,7.2-25.97,12.2
		c-0.1-9.52-1.77-19.12-5.39-27.95c-1.34-3.45-4.1499-6.35-7.7999-7.25C1131.12,194,1122.98,196.53,1115.98,199.98
		 M1176.6801,343.88c-23.2201,1.65-46.3101,6.31-68.0701,14.66c-18.28,7.17-36.01,17.02-49.4399,31.6
		c-8.99,9.71-15.3401,22.17-16.14,35.53c15.97,0.08,31.95-0.23,47.9099,0.15c-0.0099,0.78-0.0299,2.33-0.0399,3.11
		c-15.97,0.21-31.9401-0.06-47.91,0.14c0.52,7.53,2.4401,14.94,5.9301,21.65c18.46-5.23,36.7799-11.04,55.33-15.97
		c0.2,1.58,0.34,3.73-1.8199,3.77c-17.2301,5.2-34.63,9.9-51.79,15.34c5.67,9.21,13.38,17.02,22.01,23.48
		c13.23,9.87,28.33,17,43.9,22.31c22.0399,7.49,45.24,11.19,68.4399,12.34c24.87,0.97,49.92-1.06,74.13-6.9
		c20.09-4.95,39.8199-12.31,57.12-23.8c11.85-7.85,22.52-17.93,29.36-30.52c-14.33-4.67-28.98-8.32-43.2999-13.02
		c0.0199-0.69,0.08-2.06,0.11-2.75c2.99,0.11,5.8099,1.22,8.6799,2.03c11.9701,3.55,23.98,7.02,35.9701,10.55
		c2.5699-5.86,4.08-12.17,4.33-18.56c-15.9-0.03-31.8-0.03-47.6901,0c-0.0299-0.82-0.08-2.47-0.1-3.3
		c15.85-0.1,31.7001-0.13,47.55,0.03c0.01-9.65-3.8-18.97-9.04-26.93c-8.54-12.7-20.91-22.33-34.09-29.85
		c-17.25-9.8-36.28-16.11-55.61-20.29C1227.5601,343.59,1201.98,341.86,1176.6801,343.88z"/>
	<path fill="#FFFFFF" d="M1115.98,199.98c7-3.45,15.14-5.98,22.9301-3.94c3.65,0.9,6.46,3.8,7.7999,7.25
		c3.62,8.83,5.29,18.43,5.39,27.95c8.17-5,16.66-9.68,25.97-12.2c12.04-3.61,25.0901-3.74,37.1901-0.32
		c9.71,2.46,18.54,7.33,27.08,12.42c0.23-9.85,1.85-19.82,5.9301-28.85c1.5599-3.69,5.1899-6.16,9.12-6.67
		c7.9299-1.22,15.89,1.49,22.79,5.24c9.13,5.17,17.47,12.63,21.6499,22.44c1.5801,4.18,2.3301,9.35-0.37,13.24
		c-1.7999,2.47-4.23,4.4-6.63,6.26c-7.4399,5.53-15.7699,9.92-24.6699,12.57c24.0399,26.25,42.25,57.3,56.95,89.58
		c8.41,18.79,15.66,38.16,20.65,58.15c-6.97-12.21-17.11-22.34-28.72-30.19c-16.38-11.15-35.02-18.57-54.0601-23.74
		c-20.5499-5.4-41.76-8.2-63-8.42c-25.04-0.48-50.2,2.3-74.37,8.95c-18.95,5.28-37.47,12.9-53.64,24.24
		c-10.89,7.66-20.58,17.29-27,29.04c2.61-12.53,7.04-24.62,11.47-36.6c15.6901-40.2,36.8101-78.77,65.7201-111.03
		c-10.87-3.48-21.28-9.02-29.5601-16.94c-4.13-3.74-4.15-9.99-2.0399-14.79C1096.88,213.05,1106.03,205.15,1115.98,199.98
		 M1126.34,210.3c-8.2799,1.7-16.48,8-17.88,16.7c-0.5299,5.06,4.28,8.09,7.8101,10.72c5.52,3.61,11.86,7.44,18.72,6.67
		c2.89-1.48,5.71-4.02,5.85-7.51c0.8201-7.69-0.74-15.65-4.09-22.62C1134.9,210.46,1130.14,209.55,1126.34,210.3 M1262.4,210.51
		c-2.72,0.68-4.64,2.98-5.53,5.54c-2.47,6.51-4.15,13.57-3.3199,20.56c0.34,4.48,4.7799,8.83,9.4299,7.87
		c6.64-1.05,12.5601-4.66,17.8301-8.68c2.1599-1.83,4.8099-3.82,5.12-6.87c0.6-5.54-3.2201-10.34-7.2301-13.67
		C1274.1801,211.75,1268.1899,209.06,1262.4,210.51 M1146.3199,297.15c-4.49,1.59-6.5199,6.52-7.23,10.88
		c-0.73,5.7,0.03,12.27,4.3301,16.49c2.59,2.7,7.25,2.33,9.5499-0.56c4.5801-5.34,4.91-13.25,2.8401-19.7
		C1154.47,300.37,1150.9301,295.94,1146.3199,297.15 M1244.4,297.38c-3.29,1.35-5.05,4.75-6.0601,7.95
		c-1.7799,6.29-1.12,13.87,3.41,18.87c2.4,2.82,7.13,2.89,9.5601,0.07c5.3999-6.03,5.6799-15.57,1.96-22.53
		C1251.6899,298.62,1247.98,295.81,1244.4,297.38z"/>
	<path fill="#373536" d="M1126.34,210.3c3.8-0.75,8.5601,0.16,10.41,3.96c3.35,6.97,4.91,14.93,4.09,22.62
		c-0.14,3.49-2.96,6.03-5.85,7.51c-6.86,0.77-13.2-3.06-18.72-6.67c-3.53-2.63-8.34-5.66-7.8101-10.72
		C1109.86,218.3,1118.0601,212,1126.34,210.3 M1116.88,224.96c-0.61,1.02-1.63,2.47-0.38,3.47c3.6899,3.58,8.29,6.18,13.0699,8.03
		c1.3301,0.39,3.8501,1.46,4.0601-0.81c0.55-6.28-1-12.6-3.51-18.33C1124.8199,217.64,1119.6899,220.43,1116.88,224.96z"/>
	<path fill="#373536" d="M1262.4,210.51c5.7899-1.45,11.78,1.24,16.2999,4.75c4.01,3.33,7.8301,8.13,7.2301,13.67
		c-0.3101,3.05-2.9601,5.04-5.12,6.87c-5.27,4.02-11.1901,7.63-17.8301,8.68c-4.65,0.96-9.09-3.39-9.4299-7.87
		c-0.8301-6.99,0.85-14.05,3.3199-20.56C1257.76,213.49,1259.6801,211.19,1262.4,210.51 M1264.0601,217.51
		c-2.2301,6.24-4.05,12.91-2.9401,19.58c5.65-0.35,10.55-3.73,15-6.95c0.92-1.04,3.3101-2,2.3-3.7
		C1275.8199,221.12,1270.05,217.31,1264.0601,217.51z"/>
	<path fill="#FFFFFF" d="M1116.88,224.96c2.8099-4.53,7.9399-7.32,13.24-7.64c2.51,5.73,4.0601,12.05,3.51,18.33
		c-0.21,2.27-2.73,1.2-4.0601,0.81c-4.7799-1.85-9.38-4.45-13.0699-8.03C1115.25,227.43,1116.27,225.98,1116.88,224.96z"/>
	<path fill="#FFFFFF" d="M1264.0601,217.51c5.99-0.2,11.7599,3.61,14.36,8.93c1.01,1.7-1.38,2.66-2.3,3.7
		c-4.45,3.22-9.35,6.6-15,6.95C1260.01,230.42,1261.83,223.75,1264.0601,217.51z"/>
	<path fill="#373536" d="M1146.3199,297.15c4.6101-1.21,8.15,3.22,9.4901,7.11c2.0699,6.45,1.74,14.36-2.8401,19.7
		c-2.2999,2.89-6.96,3.26-9.5499,0.56c-4.3-4.22-5.0601-10.79-4.3301-16.49C1139.8,303.67,1141.83,298.74,1146.3199,297.15z"/>
	<path fill="#373536" d="M1244.4,297.38c3.58-1.57,7.2899,1.24,8.87,4.36c3.72,6.96,3.4399,16.5-1.96,22.53
		c-2.4301,2.82-7.16,2.75-9.5601-0.07c-4.53-5-5.1899-12.58-3.41-18.87C1239.35,302.13,1241.11,298.73,1244.4,297.38z"/>
	<path fill="#FFFFFF" d="M1176.6801,343.88c25.2999-2.02,50.88-0.29,75.73,4.8c19.33,4.18,38.36,10.49,55.61,20.29
		c13.1799,7.52,25.5499,17.15,34.09,29.85c5.24,7.96,9.05,17.28,9.04,26.93c-15.85-0.16-31.7001-0.13-47.55-0.03
		c0.02,0.83,0.0701,2.48,0.1,3.3c15.89-0.03,31.79-0.03,47.6901,0c-0.25,6.39-1.76,12.7-4.33,18.56
		c-11.9901-3.53-24-7-35.9701-10.55c-2.87-0.81-5.6899-1.92-8.6799-2.03c-0.03,0.69-0.0901,2.06-0.11,2.75
		c14.3199,4.7,28.97,8.35,43.2999,13.02c-6.84,12.59-17.51,22.67-29.36,30.52c-17.3,11.49-37.03,18.85-57.12,23.8
		c-24.21,5.84-49.26,7.87-74.13,6.9c-23.2-1.15-46.4-4.85-68.4399-12.34c-15.5701-5.31-30.67-12.44-43.9-22.31
		c-8.63-6.46-16.34-14.27-22.01-23.48c17.16-5.44,34.5599-10.14,51.79-15.34c2.1599-0.04,2.0199-2.19,1.8199-3.77
		c-18.55,4.93-36.87,10.74-55.33,15.97c-3.49-6.71-5.41-14.12-5.9301-21.65c15.97-0.2,31.9401,0.07,47.91-0.14
		c0.01-0.78,0.03-2.33,0.0399-3.11c-15.96-0.38-31.9399-0.07-47.9099-0.15c0.7999-13.36,7.15-25.82,16.14-35.53
		c13.4299-14.58,31.1599-24.43,49.4399-31.6C1130.37,350.19,1153.46,345.53,1176.6801,343.88 M1159.99,355.1
		c-3.91,1.32-8.4299,2.59-10.8,6.23c-0.9399,2.89,1.16,5.53,2.64,7.82c10.4501,13.6,26.7201,22.58,43.8401,24.02
		c-0.15,18.68-0.0801,37.36-0.03,56.04c0.84,0.01,2.52,0.03,3.37,0.03c0-18.72-0.05-37.44,0.02-56.16
		c15.7999-1.21,30.7-9.15,41.1899-20.91c2.3-2.71,4.6801-5.63,5.47-9.18c-0.4099-3.58-4.2699-5.13-7.12-6.47
		c-10.38-3.9-21.5699-5.02-32.5699-5.59C1190.59,350.5,1174.91,350.85,1159.99,355.1z"/>
	<path fill="#373536" d="M1159.99,355.1c14.92-4.25,30.6-4.6,46.01-4.17c11,0.57,22.1899,1.69,32.5699,5.59
		c2.8501,1.34,6.7101,2.89,7.12,6.47c-0.7899,3.55-3.1699,6.47-5.47,9.18c-10.49,11.76-25.39,19.7-41.1899,20.91
		c-0.0701,18.72-0.02,37.44-0.02,56.16c-0.85,0-2.53-0.02-3.37-0.03c-0.05-18.68-0.12-37.36,0.03-56.04
		c-17.12-1.44-33.39-10.42-43.8401-24.02c-1.48-2.29-3.58-4.93-2.64-7.82C1151.5601,357.69,1156.08,356.42,1159.99,355.1z"/>
</g>
<g>
	<path fill="#373536" d="M1675.3101,129.23c26.1-1.57,52.5399,1.68,77.2999,10.21c31.89,10.77,60.78,29.67,84.36,53.59
		c27.16,27.6,47.4,61.77,59.5,98.5c13.8,41.57,17.16,86.42,10.66,129.68c-6.46,42.27-22.86,83.15-48.42,117.51
		c-22.22,29.9301-51.47,54.89-85.34,70.66c-40.33,19.01-87.1,24.07-130.5,13.71c-34.75-8.06-67-25.71-93.36-49.63
		c-26.3101-23.75-47.01-53.5-60.99-86.03c-34.63-80.11-28.6-177.04,17.54-251.39c19.12-30.91,45.0599-57.83,76.12-76.86
		C1610.21,141.89,1642.41,131.34,1675.3101,129.23 M1672.54,136.86c-41.75,3.32-81.8201,21.06-113.4601,48.29
		c-25.9199,22.1-46.5199,50.16-60.87,81c-36.3199,78.17-32.12,174.24,12.42,248.25c19.55,32.68,46.97,60.88,80,80
		c36.34,21.18,79.66,30.54,121.4399,25.05c38.3-4.6,74.7201-21.42,104.13-46.21c26.87-22.54,48.1801-51.43,62.77-83.26
		c35.63-77.52,31.51-172.39-12.11-245.91c-18.99-32.15-45.5-60.08-77.5499-79.39C1754.5699,143.48,1713.13,133.42,1672.54,136.86z"
		/>
	<path fill="#FFFFFF" d="M1672.54,136.86c40.59-3.44,82.0299,6.62,116.77,27.82c32.0499,19.31,58.5599,47.24,77.5499,79.39
		c43.62,73.52,47.74,168.39,12.11,245.91c-14.59,31.83-35.9,60.72-62.77,83.26c-29.4099,24.79-65.83,41.61-104.13,46.21
		c-41.7799,5.49-85.1-3.87-121.4399-25.05c-33.03-19.12-60.45-47.32-80-80c-44.54-74.01-48.74-170.08-12.42-248.25
		c14.3501-30.84,34.9501-58.9,60.87-81C1590.72,157.92,1630.79,140.18,1672.54,136.86 M1614.38,194.39
		c-11.13,3.47-21.17,10.46-28.2,19.76c-3.92,5.35-7.13,11.93-6.0801,18.73c0.4301,3.52,2.72,6.43,5.3101,8.71
		c7.47,6.63,16.39,11.43,25.65,15.08c-8.4501,9.16-15.9,19.2-22.91,29.49c-23.2101,34.5-40.52,72.92-51.03,113.15
		c-2.65,10.37-6.17,20.84-5.27,31.7c1.02,15.37,9.5,29.26,20.4,39.74c13.73,13.32,30.98,22.42,48.75,29.15
		c39.3,14.43,82.2,17.61,123.59,12.46c24.2001-3.29,48.1901-9.65,70.03-20.76c14.2-7.33,27.65-16.77,37.58-29.44
		c10.4801-12.95,15.42-30.54,11.4401-46.91c-3.21-20.63-10.29-40.42-18.15-59.69c-14.9-35.69-34.27-69.81-59.6899-99.1
		c8.26-2.96,16.0299-7.27,22.9399-12.69c3.3-2.69,6.88-5.75,7.75-10.15c1.28-6.16-1.23-12.41-4.58-17.49
		c-5.3301-8-13.02-14.27-21.5701-18.57c-6.85-3.27-14.5599-5.64-22.2-4.41c-4.4401,0.65-8.67,3.29-10.64,7.4
		c-4.0601,8.18-5.4399,17.33-6.48,26.31c-9.9501-6-20.88-10.6-32.4301-12.3c-18.49-3.02-37.2899,2.76-53.0299,12.34
		c-0.7201-8.73-2.29-17.53-5.9301-25.55c-1.46-3.36-4.25-6.08-7.71-7.29C1626.27,192,1620.03,192.75,1614.38,194.39z"/>
	<path fill="#373536" d="M1614.38,194.39c5.65-1.64,11.89-2.39,17.54-0.33c3.46,1.21,6.25,3.93,7.71,7.29
		c3.64,8.02,5.21,16.82,5.9301,25.55c15.74-9.58,34.5399-15.36,53.0299-12.34c11.55,1.7,22.48,6.3,32.4301,12.3
		c1.04-8.98,2.4199-18.13,6.48-26.31c1.97-4.11,6.2-6.75,10.64-7.4c7.64-1.23,15.35,1.14,22.2,4.41
		c8.55,4.3,16.24,10.57,21.5701,18.57c3.35,5.08,5.86,11.33,4.58,17.49c-0.87,4.4-4.45,7.46-7.75,10.15
		c-6.91,5.42-14.6799,9.73-22.9399,12.69c25.4199,29.29,44.7899,63.41,59.6899,99.1c7.86,19.27,14.9401,39.06,18.15,59.69
		c3.98,16.37-0.96,33.96-11.4401,46.91c-9.9299,12.67-23.38,22.11-37.58,29.44c-21.84,11.11-45.83,17.47-70.03,20.76
		c-41.39,5.15-84.2899,1.97-123.59-12.46c-17.77-6.73-35.02-15.83-48.75-29.15c-10.9-10.48-19.38-24.37-20.4-39.74
		c-0.9-10.86,2.62-21.33,5.27-31.7c10.51-40.23,27.8199-78.65,51.03-113.15c7.01-10.29,14.46-20.33,22.91-29.49
		c-9.26-3.65-18.1801-8.45-25.65-15.08c-2.5901-2.28-4.88-5.19-5.3101-8.71c-1.0499-6.8,2.16-13.38,6.0801-18.73
		C1593.21,204.85,1603.25,197.86,1614.38,194.39 M1614.71,196.85c-9.6899,3.12-18.45,9.08-25.01,16.84
		c-3.83,4.63-7.09,10.17-7.3999,16.3c-0.26,3.9,1.9399,7.43,4.85,9.85c8.15,7.08,17.87,12.27,28.14,15.55
		c-23.9401,26.48-42.3101,57.52-56.98,89.94c-8.25,18.44-15.3701,37.46-20.25,57.08c3.2999-4.48,6.0499-9.38,9.9199-13.43
		c15.97-17.55,37.8101-28.53,60.01-36.03c25.12-8.26,51.6-12.13,78.02-12.24c23.5699-0.31,47.1799,2.45,69.98,8.43
		c18.37,4.97,36.33,12.04,52.29,22.52c12.39,7.99,23.13,18.57,30.59,31.34c-5.38-21.47-13.34-42.22-22.59-62.3
		c-14.37-30.62-31.87-60.16-54.88-85.12c11.03-4.07,22.0399-9.34,30.2899-17.94c4-4.37,2.9301-11,0.5601-15.91
		c-4.67-9.51-13.09-16.73-22.34-21.61c-6.8-3.45-14.64-5.89-22.29-4.35c-3.9399,0.72-7.2,3.62-8.61,7.32
		c-3.77,8.84-5.3201,18.51-5.64,28.07c-12.4301-7.9-26.41-14.07-41.3-14.83c-17.45-1.15-34.3199,5.56-48.75,14.87
		c-0.13-8.31-1.5599-16.58-4.1499-24.47c-1.36-3.84-3.0901-8.15-7.0701-9.92C1626.61,194.35,1620.3101,195.24,1614.71,196.85
		 M1602.5601,357.48c-17.65,6.57-34.7101,15.59-48.42,28.67c-10.85,10.37-19.2001,24.22-19.98,39.49
		c15.97,0.13,31.9399-0.18,47.9,0.16c-0.03,0.79-0.0801,2.36-0.1101,3.15c-15.9399,0.19-31.8899-0.11-47.83,0.15
		c0.38,7.54,2.51,14.92,5.91,21.65c18.4299-5.3,36.76-10.99,55.26-16.02c0.46,1.64,0.3199,3.76-1.8301,3.82
		c-17.23,5.17-34.6,9.92-51.76,15.32c5.74,9.14,13.37,16.98,22,23.41c15.9401,11.93,34.53,19.85,53.5601,25.39
		c41.1899,11.54,85.1799,12.5,127.01,3.8c21.25-4.64,42.1699-11.94,60.65-23.59c12.8199-8.12,24.5199-18.64,31.7899-32.13
		c-14.3999-4.66-29.1-8.32-43.46-13.06c0.1899-1,0.42-1.99,0.6801-2.98c14.7899,4.14,29.49,8.6,44.24,12.87
		c2.51-5.87,4.1899-12.15,4.2999-18.56c-15.88-0.03-31.76-0.03-47.64,0c-0.0199-0.82-0.0699-2.45-0.09-3.27
		c15.96-0.39,31.9401,0.3,47.89-0.34c-0.85-10.46-4.8199-20.56-11.0601-28.97c-8.96-12.17-21.35-21.38-34.48-28.62
		c-21.08-11.43-44.4399-18.12-68.0499-21.74C1686.8199,339.98,1642.8199,342.89,1602.5601,357.48z"/>
	<path fill="#FFFFFF" d="M1614.71,196.85c5.6001-1.61,11.9-2.5,17.39-0.04c3.98,1.77,5.7101,6.08,7.0701,9.92
		c2.59,7.89,4.0199,16.16,4.1499,24.47c14.4301-9.31,31.3-16.02,48.75-14.87c14.89,0.76,28.87,6.93,41.3,14.83
		c0.3199-9.56,1.87-19.23,5.64-28.07c1.41-3.7,4.67-6.6,8.61-7.32c7.65-1.54,15.49,0.9,22.29,4.35
		c9.25,4.88,17.6699,12.1,22.34,21.61c2.37,4.91,3.4399,11.54-0.5601,15.91c-8.25,8.6-19.2599,13.87-30.2899,17.94
		c23.01,24.96,40.51,54.5,54.88,85.12c9.25,20.08,17.21,40.83,22.59,62.3c-7.46-12.77-18.2-23.35-30.59-31.34
		c-15.9601-10.48-33.92-17.55-52.29-22.52c-22.8-5.98-46.41-8.74-69.98-8.43c-26.42,0.11-52.9,3.98-78.02,12.24
		c-22.2,7.5-44.04,18.48-60.01,36.03c-3.87,4.05-6.62,8.95-9.9199,13.43c4.8799-19.62,12-38.64,20.25-57.08
		c14.6699-32.42,33.0399-63.46,56.98-89.94c-10.27-3.28-19.99-8.47-28.14-15.55c-2.91-2.42-5.11-5.95-4.85-9.85
		c0.3099-6.13,3.5699-11.67,7.3999-16.3C1596.26,205.93,1605.02,199.97,1614.71,196.85 M1616.37,210.54
		c-6.33,1.57-12.09,5.75-15.24,11.5c-1.84,3.41-2.41,8.26,0.74,11.1c4.71,4.6,10.45,8.21,16.6801,10.39
		c3.24,1.01,7.47,2.09,10.11-0.83c4.1-2.85,3.62-8.38,3.4099-12.76c-0.6-5.39-1.74-10.87-4.23-15.72
		C1625.77,210.06,1620.41,209.44,1616.37,210.54 M1753.39,210.56c-4.4,1.15-5.74,6.05-6.9501,9.85
		c-1.6299,6.41-3.1299,13.47-0.6899,19.87c1.7,2.22,4.15,4.66,7.23,4.3c7.05-0.69,13.35-4.52,18.87-8.74
		c2.41-2.01,5.42-4.36,5.22-7.86c-0.0099-5.94-4.38-10.87-9.0499-14.04C1763.75,211.23,1758.45,209.14,1753.39,210.56
		 M1637.33,297.21c-3.13,1.03-5.0199,4-6.14,6.92c-2.09,6.09-1.7899,13.35,1.91,18.78c1.77,2.77,5.48,4.48,8.61,2.91
		c3.63-2.03,5.4-6.17,6.0801-10.1c0.72-5.27,0.26-11.1-3.02-15.49C1643.09,298.01,1640.16,296.21,1637.33,297.21 M1735.4301,297.43
		c-4.3601,2.04-6.2101,7.06-6.65,11.57c-0.54,5.46,0.3199,11.74,4.5599,15.64c2.0601,2.06,5.53,2.33,7.91,0.63
		c3.3-2.42,4.8199-6.54,5.33-10.47c0.5801-5.13-0.09-10.82-3.47-14.93C1741.33,297.67,1738.16,296.05,1735.4301,297.43z"/>
	<path fill="#373536" d="M1616.37,210.54c4.04-1.1,9.4-0.48,11.47,3.68c2.49,4.85,3.63,10.33,4.23,15.72
		c0.2101,4.38,0.6901,9.91-3.4099,12.76c-2.64,2.92-6.87,1.84-10.11,0.83c-6.2301-2.18-11.9701-5.79-16.6801-10.39
		c-3.15-2.84-2.58-7.69-0.74-11.1C1604.28,216.29,1610.04,212.11,1616.37,210.54 M1603,227.82c3.4301,3.41,7.37,6.28,11.61,8.63
		c4.13,2.11,8.4,4.83,13.24,4.47c1.65-9.32-0.4199-19.32-4.61-27.74C1614.48,213.69,1605.9,219.39,1603,227.82z"/>
	<path fill="#373536" d="M1753.39,210.56c5.0599-1.42,10.36,0.67,14.63,3.38c4.6699,3.17,9.04,8.1,9.0499,14.04
		c0.2001,3.5-2.8099,5.85-5.22,7.86c-5.52,4.22-11.8199,8.05-18.87,8.74c-3.08,0.36-5.53-2.08-7.23-4.3
		c-2.4399-6.4-0.9399-13.46,0.6899-19.87C1747.65,216.61,1748.99,211.71,1753.39,210.56 M1752.98,212.69
		c-3.97,8.36-5.9,17.92-5.0699,27.14c0.49,3.14,3.97,1.67,5.9199,0.94c7.37-3.02,14.66-6.99,20.15-12.86
		c-0.2999-2.48-1.8099-4.64-3.33-6.54C1766.23,216.3,1759.8101,212.7,1752.98,212.69z"/>
	<path fill="#FFFFFF" d="M1752.98,212.69c6.8301,0.01,13.25,3.61,17.67,8.68c1.52,1.9,3.03,4.06,3.33,6.54
		c-5.49,5.87-12.78,9.84-20.15,12.86c-1.95,0.73-5.4299,2.2-5.9199-0.94C1747.08,230.61,1749.01,221.05,1752.98,212.69z"/>
	<path fill="#FFFFFF" d="M1603,227.82c2.9-8.43,11.48-14.13,20.24-14.64c4.1901,8.42,6.26,18.42,4.61,27.74
		c-4.84,0.36-9.11-2.36-13.24-4.47C1610.37,234.1,1606.4301,231.23,1603,227.82z"/>
	<path fill="#373536" d="M1637.33,297.21c2.8301-1,5.76,0.8,7.4401,3.02c3.28,4.39,3.74,10.22,3.02,15.49
		c-0.6801,3.93-2.4501,8.07-6.0801,10.1c-3.13,1.57-6.84-0.14-8.61-2.91c-3.7-5.43-4-12.69-1.91-18.78
		C1632.3101,301.21,1634.2,298.24,1637.33,297.21z"/>
	<path fill="#373536" d="M1735.4301,297.43c2.73-1.38,5.8999,0.24,7.6799,2.44c3.38,4.11,4.05,9.8,3.47,14.93
		c-0.51,3.93-2.0299,8.05-5.33,10.47c-2.38,1.7-5.85,1.43-7.91-0.63c-4.24-3.9-5.1-10.18-4.5599-15.64
		C1729.22,304.49,1731.0699,299.47,1735.4301,297.43z"/>
	<path fill="#FFFFFF" d="M1602.5601,357.48c40.2599-14.59,84.2599-17.5,126.48-11.4c23.61,3.62,46.97,10.31,68.0499,21.74
		c13.13,7.24,25.52,16.45,34.48,28.62c6.2401,8.41,10.2101,18.51,11.0601,28.97c-15.95,0.64-31.9301-0.05-47.89,0.34
		c0.02,0.82,0.0701,2.45,0.09,3.27c15.88-0.03,31.76-0.03,47.64,0c-0.11,6.41-1.7899,12.69-4.2999,18.56
		c-14.75-4.27-29.4501-8.73-44.24-12.87c-0.26,0.99-0.4901,1.98-0.6801,2.98c14.36,4.74,29.0601,8.4,43.46,13.06
		c-7.27,13.49-18.97,24.01-31.7899,32.13c-18.4801,11.65-39.4,18.95-60.65,23.59c-41.8301,8.7-85.8201,7.74-127.01-3.8
		c-19.03-5.54-37.62-13.46-53.5601-25.39c-8.63-6.43-16.26-14.27-22-23.41c17.16-5.4,34.53-10.15,51.76-15.32
		c2.15-0.06,2.29-2.18,1.8301-3.82c-18.5,5.03-36.8301,10.72-55.26,16.02c-3.4-6.73-5.53-14.11-5.91-21.65
		c15.9401-0.26,31.89,0.04,47.83-0.15c0.03-0.79,0.0801-2.36,0.1101-3.15c-15.9601-0.34-31.9301-0.03-47.9-0.16
		c0.7799-15.27,9.13-29.12,19.98-39.49C1567.85,373.07,1584.91,364.05,1602.5601,357.48 M1656.62,353.72
		c-5.42,1.28-11.29,2.52-15.47,6.44c-2.62,2.71,0.0499,6.42,1.73,8.88c10.39,13.66,26.7,22.66,43.83,24.12
		c-0.08,18.69-0.0599,37.38-0.01,56.07c0.8401,0,2.54,0,3.38,0c-0.01-18.72,0.02-37.44-0.0199-56.15
		c15.5699-1.15,30.24-8.87,40.74-20.3c2.4199-2.9,5.22-5.92,5.8999-9.77c-0.1899-3.68-4.3099-5.22-7.1599-6.56
		c-10.7101-3.95-22.23-5.06-33.55-5.57C1682.8199,350.6,1669.52,350.83,1656.62,353.72z"/>
	<path fill="#373536" d="M1656.62,353.72c12.9-2.89,26.2-3.12,39.37-2.84c11.3201,0.51,22.84,1.62,33.55,5.57
		c2.85,1.34,6.97,2.88,7.1599,6.56c-0.6799,3.85-3.48,6.87-5.8999,9.77c-10.5,11.43-25.17,19.15-40.74,20.3
		c0.0399,18.71,0.0099,37.43,0.0199,56.15c-0.84,0-2.5399,0-3.38,0c-0.0499-18.69-0.0699-37.38,0.01-56.07
		c-17.13-1.46-33.4399-10.46-43.83-24.12c-1.6801-2.46-4.35-6.17-1.73-8.88C1645.33,356.24,1651.2,355,1656.62,353.72z"/>
</g>
<g>
	<path fill="#373536" d="M166.58,198.58c9.12-6.49,20.11-11.23,31.5-10.61c6.3,0.36,12.82,3.29,16.08,8.92
		c3.89,6.74,5.52,14.46,6.92,22.03c13.78-7.15,29.43-11.27,45.02-9.78c11.36,0.88,22.28,4.73,32.41,9.82
		c1.21-7.96,3.1-16.08,7.39-22.99c4.78-7.11,14.16-8.88,22.15-7.84c14.05,2.1,26.87,10.06,36.01,20.8
		c5.07,6.23,9.32,13.84,9.06,22.11c-0.01,4.24-1.63,8.42-4.53,11.53c-6.41,7.04-14.9,11.62-23.15,16.12
		c24.47,29.29,42.91,63.19,57.43,98.37c0.35,1.34,1.68,1.73,2.82,2.2c15.9,6.07,31.4,13.64,44.88,24.13
		c8.99,7.06,17.11,15.69,21.85,26.21c5.41,11.66,5.19,25.78-0.58,37.27c-5.41,11.23-14.61,20.13-24.51,27.46
		c-18.05,13.05-38.94,21.52-60.11,28.05c-38.62,11.55-79,16.49-119.22,17.19c-45.89,0.6-92.16-4.13-136.22-17.34
		c-23.54-7.33-46.97-16.98-66.04-32.95c-10.58-9.03-19.85-20.81-22.09-34.88c-2.45-13.39,2.75-27.16,11.27-37.43
		c12.67-15.44,30.51-25.52,48.51-33.51c4.12-2,8.61-3.2,12.65-5.36c14.73-35.59,33.36-69.87,57.99-99.64
		c-8.55-4.1-16.93-9.09-23.4-16.13c-5.08-5.5-5.28-13.86-2.81-20.59C151.41,212.26,158.48,204.46,166.58,198.58 M167.39,207.34
		c-5.7,4.87-10.74,10.91-13,18.16c-1.31,4.26-0.95,9.43,2.45,12.65c8.29,8.21,18.99,13.52,29.88,17.41
		c-4.86,5.22-9.46,10.69-13.85,16.33c-20.78,27.11-37.11,57.49-49.8,89.15c22.68-7.65,46.16-12.77,69.87-16.01
		c43.73-5.77,88.26-5.86,132.01-0.19c24.23,3.22,48.26,8.34,71.41,16.22c-15.33-38.29-35.92-74.9-63.58-105.69
		c10.9-3.47,21.31-9.04,29.63-16.96c4.1-3.73,4.03-10,2.02-14.79c-4.25-10.33-13.1-18.09-22.77-23.3
		c-7.18-3.65-15.6-6.37-23.65-4.26c-3.66,0.85-6.39,3.82-7.73,7.22c-3.68,8.84-5.28,18.46-5.39,28
		c-13.38-8.62-28.74-15.1-44.89-15.03c-16.26-0.2-31.77,6.25-45.23,14.94c-0.6-10.07-1.92-20.38-6.39-29.54
		c-2.36-4.97-8.29-6.6-13.38-6.35C184.72,195.84,175.18,200.86,167.39,207.34 M227.63,344.09c-37.09,2.42-74.24,8.5-109.25,21.32
		c-17.68,6.67-35.1,15.02-49.42,27.57c-9.27,8.28-17.44,19.22-18.32,32.03c-0.93,10.39,3.41,20.53,9.87,28.47
		c8.77,10.85,20.57,18.78,32.77,25.32c22.47,11.75,46.99,19.03,71.73,24.23c25.67,5.3,51.82,7.99,77.99,8.96
		c42.8,1.22,85.92-2.25,127.53-12.63c21.19-5.48,42.14-12.66,61.16-23.63c12.64-7.47,24.97-16.71,32.3-29.73
		c5.3-9.2,6.56-20.71,2.75-30.69c-4.14-11.14-12.73-19.93-21.99-27.06c-15.37-11.59-33.23-19.37-51.35-25.57
		c-27.01-9.05-55.19-14.21-83.49-17.15C282.58,342.91,255.04,342.28,227.63,344.09z"/>
	<path fill="#FFFFFF" d="M167.39,207.34c7.79-6.48,17.33-11.5,27.61-12.04c5.09-0.25,11.02,1.38,13.38,6.35
		c4.47,9.16,5.79,19.47,6.39,29.54c13.46-8.69,28.97-15.14,45.23-14.94c16.15-0.07,31.51,6.41,44.89,15.03
		c0.11-9.54,1.71-19.16,5.39-28c1.34-3.4,4.07-6.37,7.73-7.22c8.05-2.11,16.47,0.61,23.65,4.26c9.67,5.21,18.52,12.97,22.77,23.3
		c2.01,4.79,2.08,11.06-2.02,14.79c-8.32,7.92-18.73,13.49-29.63,16.96c27.66,30.79,48.25,67.4,63.58,105.69
		c-23.15-7.88-47.18-13-71.41-16.22c-43.75-5.67-88.28-5.58-132.01,0.19c-23.71,3.24-47.19,8.36-69.87,16.01
		c12.69-31.66,29.02-62.04,49.8-89.15c4.39-5.64,8.99-11.11,13.85-16.33c-10.89-3.89-21.59-9.2-29.88-17.41
		c-3.4-3.22-3.76-8.39-2.45-12.65C156.65,218.25,161.69,212.21,167.39,207.34 M188.36,210.4c-7.6,1.72-14.78,7.18-17.1,14.8
		c-1.03,3.21,0.17,6.67,2.76,8.75c5.7,4.94,12.42,9.28,19.98,10.52c4.62,0.95,9.12-3.38,9.41-7.86c0.77-7.49-0.91-15.12-3.95-21.96
		C197.64,210.44,192.42,209.42,188.36,210.4 M325.34,210.37c-4.91,0.94-6.35,6.27-7.6,10.38c-1.66,6.2-2.93,13.05-0.76,19.28
		c1.8,2.51,4.61,5.19,7.99,4.5c8.08-1.2,15.34-5.81,21.2-11.33c3.89-3.47,2.37-9.36-0.36-13.05
		C341.23,213.86,333.31,209.05,325.34,210.37 M208.36,297.33c-4.88,2.15-6.55,7.91-7.09,12.78c-0.28,5.4,1.06,11.59,5.51,15.11
		c3.02,2.3,7.42,0.96,9.37-2.08c4.39-6.33,4.52-15.29,0.68-21.9C215.19,298.4,211.7,295.91,208.36,297.33 M307.33,297.22
		c-2.86,1-4.75,3.61-5.88,6.3c-2.59,6.6-2.11,14.87,2.55,20.46c2.45,3.13,7.6,3.18,10.07,0.03c4.74-5.59,5.12-13.97,2.53-20.6
		C315.23,299.77,311.57,295.88,307.33,297.22z"/>
	<path fill="#373536" d="M188.36,210.4c4.06-0.98,9.28,0.04,11.1,4.25c3.04,6.84,4.72,14.47,3.95,21.96
		c-0.29,4.48-4.79,8.81-9.41,7.86c-7.56-1.24-14.28-5.58-19.98-10.52c-2.59-2.08-3.79-5.54-2.76-8.75
		C173.58,217.58,180.76,212.12,188.36,210.4 M178.02,227.73c5.14,4.29,11,8.94,17.95,9.27c1.04-6.75-0.77-13.63-3.38-19.82
		C186.33,217.84,180.23,221.65,178.02,227.73z"/>
	<path fill="#373536" d="M325.34,210.37c7.97-1.32,15.89,3.49,20.47,9.78c2.73,3.69,4.25,9.58,0.36,13.05
		c-5.86,5.52-13.12,10.13-21.2,11.33c-3.38,0.69-6.19-1.99-7.99-4.5c-2.17-6.23-0.9-13.08,0.76-19.28
		C318.99,216.64,320.43,211.31,325.34,210.37 M323.96,237.29c4.93-0.61,9.19-3.41,13.24-6.08c1.43-1.2,3.44-2.17,3.94-4.12
		c-2.25-5.77-8.24-9.39-14.28-9.79C324.4,223.52,321.96,230.65,323.96,237.29z"/>
	<path fill="#FFFFFF" d="M178.02,227.73c2.21-6.08,8.31-9.89,14.57-10.55c2.61,6.19,4.42,13.07,3.38,19.82
		C189.02,236.67,183.16,232.02,178.02,227.73z"/>
	<path fill="#FFFFFF" d="M323.96,237.29c-2-6.64,0.44-13.77,2.9-19.99c6.04,0.4,12.03,4.02,14.28,9.79
		c-0.5,1.95-2.51,2.92-3.94,4.12C333.15,233.88,328.89,236.68,323.96,237.29z"/>
	<path fill="#373536" d="M208.36,297.33c3.34-1.42,6.83,1.07,8.47,3.91c3.84,6.61,3.71,15.57-0.68,21.9
		c-1.95,3.04-6.35,4.38-9.37,2.08c-4.45-3.52-5.79-9.71-5.51-15.11C201.81,305.24,203.48,299.48,208.36,297.33z"/>
	<path fill="#373536" d="M307.33,297.22c4.24-1.34,7.9,2.55,9.27,6.19c2.59,6.63,2.21,15.01-2.53,20.6
		c-2.47,3.15-7.62,3.1-10.07-0.03c-4.66-5.59-5.14-13.86-2.55-20.46C302.58,300.83,304.47,298.22,307.33,297.22z"/>
	<path fill="#FFFFFF" d="M227.63,344.09c27.41-1.81,54.95-1.18,82.28,1.44c28.3,2.94,56.48,8.1,83.49,17.15
		c18.12,6.2,35.98,13.98,51.35,25.57c9.26,7.13,17.85,15.92,21.99,27.06c3.81,9.98,2.55,21.49-2.75,30.69
		c-7.33,13.02-19.66,22.26-32.3,29.73c-19.02,10.97-39.97,18.15-61.16,23.63c-41.61,10.38-84.73,13.85-127.53,12.63
		c-26.17-0.97-52.32-3.66-77.99-8.96c-24.74-5.2-49.26-12.48-71.73-24.23c-12.2-6.54-24-14.47-32.77-25.32
		c-6.46-7.94-10.8-18.08-9.87-28.47c0.88-12.81,9.05-23.75,18.32-32.03c14.32-12.55,31.74-20.9,49.42-27.57
		C153.39,352.59,190.54,346.51,227.63,344.09 M218.53,356.46c-2.92,1.33-6.82,2.87-7.24,6.54c0.89,3.78,3.46,6.86,5.95,9.73
		c10.5,11.42,25.15,19.2,40.73,20.34c0.02,18.21,0.11,36.43-0.05,54.64c-14.72,3.72-29.42,7.52-44.08,11.46
		c1.19,4.37,6.42,0.2,9.38,0.17c4.45,8.46,8.38,17.19,12.69,25.72c0.66,1.26,1.64,2.9,3.31,2.73c7.29-0.65,14.49-2.25,21.78-2.89
		c7.31,0.57,14.5,2.24,21.81,2.91c2.18,0.06,3.27-2.17,4.1-3.83c3.78-7.96,7.63-15.87,11.37-23.84c2.22,0.46,4.45,0.92,6.72,1.18
		c-0.05-0.54-0.15-1.64-0.2-2.19c-14.36-4.16-28.98-7.5-43.4-11.49c-0.05-18.16,0.11-36.32-0.08-54.47
		c16.66-1.39,32.44-9.96,42.97-22.89c1.8-2.59,4.45-5.56,3.54-8.95c-2.09-3.23-5.97-4.55-9.42-5.78c-14.98-4.6-30.84-5.02-46.4-4.66
		C240.71,351.39,229.22,352.51,218.53,356.46 M79.91,425.77c0.01,0.8,0.05,2.4,0.06,3.2c24.44,0.08,48.89-0.01,73.33,0.05
		c0.02-0.82,0.06-2.47,0.08-3.29C128.89,425.63,104.4,425.57,79.91,425.77 M366.01,425.82c0.02,0.78,0.06,2.34,0.08,3.13
		c24.51,0.04,49.04,0.19,73.54-0.08c0.02-0.73,0.06-2.17,0.07-2.9c-5.21-0.62-10.47-0.21-15.7-0.31
		C404.67,425.76,385.33,425.44,366.01,425.82 M158.08,437.06c-20.58,6.07-41.18,12.05-61.76,18.1c-2.23,0.26-1.91,4.56,0.67,3.18
		c23.34-6.68,46.65-13.52,69.91-20.47c-0.03-0.75-0.09-2.25-0.12-2.99C163.8,435.27,160.95,436.22,158.08,437.06 M365.1,434.82
		c-0.06,0.77-0.17,2.29-0.23,3.06c23.73,7.13,47.56,13.95,71.33,20.95c0.29-1.24,1.53-3.05-0.43-3.51
		c-8.96-2.79-18.02-5.3-27.02-7.98C394.18,443.26,379.78,438.5,365.1,434.82z"/>
	<path fill="#373536" d="M218.53,356.46c10.69-3.95,22.18-5.07,33.48-5.57c15.56-0.36,31.42,0.06,46.4,4.66
		c3.45,1.23,7.33,2.55,9.42,5.78c0.91,3.39-1.74,6.36-3.54,8.95c-10.53,12.93-26.31,21.5-42.97,22.89
		c0.19,18.15,0.03,36.31,0.08,54.47c14.42,3.99,29.04,7.33,43.4,11.49c0.05,0.55,0.15,1.65,0.2,2.19c-2.27-0.26-4.5-0.72-6.72-1.18
		c-3.74,7.97-7.59,15.88-11.37,23.84c-0.83,1.66-1.92,3.89-4.1,3.83c-7.31-0.67-14.5-2.34-21.81-2.91
		c-7.29,0.64-14.49,2.24-21.78,2.89c-1.67,0.17-2.65-1.47-3.31-2.73c-4.31-8.53-8.24-17.26-12.69-25.72
		c-2.96,0.03-8.19,4.2-9.38-0.17c14.66-3.94,29.36-7.74,44.08-11.46c0.16-18.21,0.07-36.43,0.05-54.64
		c-15.58-1.14-30.23-8.92-40.73-20.34c-2.49-2.87-5.06-5.95-5.95-9.73C211.71,359.33,215.61,357.79,218.53,356.46 M227.9,460.08
		c3.7,8.03,7.82,15.86,11.52,23.89c6.88-0.62,13.69-1.82,20.51-2.88c-1.85-9.32-2.62-18.82-3.89-28.22
		C246.59,455.01,237.27,457.65,227.9,460.08 M263.23,452.83c-0.5,9.4,0.79,18.99-1.01,28.27c6.83,1.07,13.65,2.17,20.52,2.98
		c3.72-7.8,7.55-15.56,11.16-23.42C283.63,458.23,273.5,455.25,263.23,452.83z"/>
	<path fill="#373536" d="M79.91,425.77c24.49-0.2,48.98-0.14,73.47-0.04c-0.02,0.82-0.06,2.47-0.08,3.29
		c-24.44-0.06-48.89,0.03-73.33-0.05C79.96,428.17,79.92,426.57,79.91,425.77z"/>
	<path fill="#373536" d="M366.01,425.82c19.32-0.38,38.66-0.06,57.99-0.16c5.23,0.1,10.49-0.31,15.7,0.31
		c-0.01,0.73-0.05,2.17-0.07,2.9c-24.5,0.27-49.03,0.12-73.54,0.08C366.07,428.16,366.03,426.6,366.01,425.82z"/>
	<path fill="#373536" d="M158.08,437.06c2.87-0.84,5.72-1.79,8.7-2.18c0.03,0.74,0.09,2.24,0.12,2.99
		c-23.26,6.95-46.57,13.79-69.91,20.47c-2.58,1.38-2.9-2.92-0.67-3.18C116.9,449.11,137.5,443.13,158.08,437.06z"/>
	<path fill="#373536" d="M365.1,434.82c14.68,3.68,29.08,8.44,43.65,12.52c9,2.68,18.06,5.19,27.02,7.98
		c1.96,0.46,0.72,2.27,0.43,3.51c-23.77-7-47.6-13.82-71.33-20.95C364.93,437.11,365.04,435.59,365.1,434.82z"/>
	<path fill="#FFFFFF" d="M227.9,460.08c9.37-2.43,18.69-5.07,28.14-7.21c1.27,9.4,2.04,18.9,3.89,28.22
		c-6.82,1.06-13.63,2.26-20.51,2.88C235.72,475.94,231.6,468.11,227.9,460.08z"/>
	<path fill="#FFFFFF" d="M263.23,452.83c10.27,2.42,20.4,5.4,30.67,7.83c-3.61,7.86-7.44,15.62-11.16,23.42
		c-6.87-0.81-13.69-1.91-20.52-2.98C264.02,471.82,262.73,462.23,263.23,452.83z"/>
</g>
<g>
	<path fill="#373536" d="M527.45,6.43c7.81-5.36,17.95-5.95,26.95-3.78c11.17,2.77,21.2,8.79,30.38,15.56
		c15.92,11.92,29.5,26.6,42.25,41.78c24.15,28.38,48.1,57.42,65.35,90.64c10.98,20.79,19.8,42.65,27.68,64.79
		c10.22-3.81,20.93-6.8,31.94-6.54c11.39-0.08,22.57,2.92,32.98,7.37c7.83-21.56,16.25-42.98,26.86-63.34
		c15.39-30.22,36.33-57.1,58.11-82.93c13.48-16.08,27.01-32.32,43.18-45.81c10.72-8.89,22.49-17.1,36-21.03
		c9.4-2.68,20.21-2.47,28.55,3.12c9.09,5.8,13.91,16.31,15.66,26.64c2.34,13.98,0.23,28.31-3.61,41.83
		c-4.33,15.37-11.97,29.5-19.53,43.46c-16.18,29.6-36.29,57.03-59.66,81.34c-21.35,22.46-45,42.55-68.86,62.27
		c-1.44,0.77,0.09,2.09,0.62,2.89c22.15,27.86,39,59.59,52.61,92.38c0.45,1.59,2.21,1.85,3.51,2.48
		c16.3,6.29,32.22,14.12,45.84,25.18c9.45,7.8,17.96,17.46,21.89,29.26c3.9,11.17,2.6,23.84-2.96,34.22
		c-7.54,14.26-20.54,24.69-34.11,32.91c-27.1,15.99-57.79,24.66-88.47,30.62c-43,7.89-87.04,9.68-130.59,6.23
		c-24.55-2.06-48.99-5.78-72.85-11.96c-20.73-5.46-41.2-12.58-59.89-23.21c-12.95-7.48-25.35-16.72-33.8101-29.24
		c-6.64-9.77-10.0699-22.07-7.64-33.79c2.46-12.95,10.74-23.96,20.44-32.52c14.1-12.31,31.06-20.86,48.43-27.55
		c1.26-0.68,3.1-0.85,3.76-2.29c14.06-34.06,31.7-66.97,55.05-95.62c-29.33-24.61-58.71-49.52-83.59-78.78
		c-23.06-26.79-41.96-57.02-57.05-88.95c-8.19-18.27-13.47-38.49-11.18-58.62C513.08,24.34,517.81,12.81,527.45,6.43 M528.79,14.76
		c-7.37,6.95-9.81,17.51-10.27,27.28c-0.52,16.79,4.11,33.36,10.91,48.58c15.61,33.22,35.55,64.48,59.93,91.96
		c25.22,28.55,54.36,53.26,83.78,77.32c1.34,0.72-0.06,1.87-0.58,2.59c-12.6,14.55-22.91,30.89-32.61,47.47
		c-9.28,16.45-17.76,33.42-24.48,51.09c43.85-14.79,90.4-20.3,136.53-20.36c46.22,0.05,92.85,5.6,136.77,20.44
		c-7.24-19.43-16.39-38.12-27.02-55.91c-9.25-15.31-19.44-30.11-31.29-43.52c4.81-4.65,10.3-8.53,15.33-12.93
		c17.2-14.38,34.19-29.06,50.1-44.88c34.31-33.48,62.2-73.47,81.82-117.2c6.84-17.12,11.68-36.08,7.92-54.5
		c-1.7-8.58-6.29-17.45-14.64-21.17c-8.17-3.89-17.66-1.98-25.71,1.24c-13.8101,5.79-25.58,15.42-36.39,25.6
		c-12.23,11.51-22.83,24.56-33.65,37.36c-11.79,13.98-23.29,28.23-33.82,43.19c-11.5,16.38-21.55,33.79-29.93,51.98
		c-8.58,18.24-15.52,37.18-22.33,56.13c-11.08-6.04-23.46-10.12-36.17-10.26c-12.92-0.3-25.67,3.53-37,9.57
		c-8.68-24.45-17.94-48.8-30.15-71.74c-15.6-30.03-36.79-56.64-58.59-82.35c-13.44-16.1-27.2-32.18-43.74-45.22
		c-9.52-7.41-19.99-14.25-31.92-16.92C543.76,7.78,534.78,9.06,528.79,14.76 M721.56,344.01c-26.57,1.61-53.05,5.29-78.89,11.7
		c-20.12,5.12-39.98,11.82-58.3,21.71c-12.07,6.64-23.71,14.74-32.17,25.77c-6.34,8.28-10.24,18.92-8.57,29.41
		c1.5,10.91,8.17,20.33,15.96,27.79c11.36,10.71,25.2,18.36,39.4,24.63c22.79,9.88,47,16.09,71.4,20.43
		c44.39,7.5,89.78,8.66,134.54,4.08c30.71-3.32,61.32-9.28,90.31-20.15c16.75-6.43,33.24-14.39,46.97-26.14
		c8.63-7.45,16.23-16.9,18.75-28.26c2.19-9.7-0.36-19.97-5.72-28.2c-7.66-11.92-19.38-20.51-31.45-27.57
		c-19.88-11.33-41.78-18.61-63.91-24.09C814.7,344.37,767.86,341.31,721.56,344.01z"/>
	<path fill="#FFFFFF" d="M528.79,14.76c5.9901-5.7,14.97-6.98,22.8-5.16c11.93,2.67,22.4,9.51,31.92,16.92
		c16.54,13.04,30.3,29.12,43.74,45.22c21.8,25.71,42.99,52.32,58.59,82.35c12.21,22.94,21.47,47.29,30.15,71.74
		c11.33-6.04,24.08-9.87,37-9.57c12.71,0.14,25.09,4.22,36.17,10.26c6.81-18.95,13.75-37.89,22.33-56.13
		c8.38-18.19,18.43-35.6,29.93-51.98c10.53-14.96,22.03-29.21,33.82-43.19c10.82-12.8,21.42-25.85,33.65-37.36
		c10.81-10.18,22.58-19.81,36.39-25.6c8.05-3.22,17.54-5.13,25.71-1.24c8.35,3.72,12.94,12.59,14.64,21.17
		c3.76,18.42-1.08,37.38-7.92,54.5c-19.62,43.73-47.51,83.72-81.82,117.2c-15.91,15.82-32.9,30.5-50.1,44.88
		c-5.03,4.4-10.52,8.28-15.33,12.93c11.85,13.41,22.04,28.21,31.29,43.52c10.63,17.79,19.78,36.48,27.02,55.91
		c-43.92-14.84-90.55-20.39-136.77-20.44c-46.13,0.06-92.68,5.57-136.53,20.36c6.72-17.67,15.2-34.64,24.48-51.09
		c9.7-16.58,20.01-32.92,32.61-47.47c0.52-0.72,1.92-1.87,0.58-2.59c-29.42-24.06-58.56-48.77-83.78-77.32
		c-24.38-27.48-44.32-58.74-59.93-91.96c-6.8-15.22-11.43-31.79-10.91-48.58C518.98,32.27,521.42,21.71,528.79,14.76 M560.37,39.41
		c-4.54,0.79-7.61,4.84-8.84,9.05c-2.67,8.99-1.32,18.5,0.28,27.56c3.69,17.79,10.8,34.73,19.66,50.54
		c10.33,18.59,20.91,37.17,34.14,53.88c11.84,15.04,25.9,28.1,39.79,41.19c10.18,9.15,21.02,18.19,33.98,23.06
		c4.24,1.39,9.87,2.76,13.35-0.94c4.44-3.46,3.65-9.82,3.22-14.77c-3.14-18.52-11.94-35.35-19.73-52.23
		c-8.9-18.91-17.85-37.93-29.7599-55.18C636.19,106.7,624.43,92.96,613,78.99c-10.33-12.25-21.15-24.41-34.41-33.58
		C573.2,42.01,566.97,38.4,560.37,39.41 M939.4,39.59c-4.42,0.97-8.46,3.13-12.21,5.59c-12.37,8.39-22.55,19.52-32.22,30.81
		C883.3,90.03,871.5,104,860.86,118.85c-11.9,16.61-20.86,35.04-29.57,53.45c-7.68,16.7-16.39,33.15-20.79,51.12
		c-1.15,5.19-1.96,10.68-0.75,15.94c0.75,3.49,3.74,6.36,7.36,6.68c5.78,0.5,11.25-2.04,16.28-4.6
		c15.17-8.16,27.41-20.51,39.76-32.27c11.24-10.8,22.06-22.13,31.2599-34.75c11.36-15.43,20.8-32.15,30.1-48.87
		c9.69-17.58,17.41-36.55,20.26-56.51c0.74-8.08,1.54-16.94-2.53-24.31C949.86,40.22,944.21,38.15,939.4,39.59 M700.35,297.35
		c-5.37,2.54-7.08,9.18-7.0099,14.65c0.05,5.03,1.6,10.79,6.11,13.62c3.55,2.11,7.83-0.32,9.54-3.66c3.3-5.91,3.33-13.45,0.54-19.56
		C707.97,299.08,704.22,295.73,700.35,297.35 M799.33,297.22c-4.65,1.85-6.64,7.11-7.19,11.73c-0.58,5.6,0.48,12.08,4.91,15.97
		c2.59,2.33,6.85,1.75,9.01-0.88c4.72-5.31,4.98-13.38,2.89-19.87C807.67,300.24,803.92,295.79,799.33,297.22z"/>
	<path fill="#373536" d="M560.37,39.41c6.6-1.01,12.83,2.6,18.22,6C591.85,54.58,602.67,66.74,613,78.99
		c11.43,13.97,23.19,27.71,33.46,42.58c11.91,17.25,20.86,36.27,29.7599,55.18c7.79,16.88,16.59,33.71,19.73,52.23
		c0.43,4.95,1.22,11.31-3.22,14.77c-3.48,3.7-9.11,2.33-13.35,0.94c-12.96-4.87-23.8-13.91-33.98-23.06
		c-13.89-13.09-27.95-26.15-39.79-41.19c-13.23-16.71-23.81-35.29-34.14-53.88c-8.86-15.81-15.97-32.75-19.66-50.54
		c-1.6-9.06-2.95-18.57-0.28-27.56C552.76,44.25,555.83,40.2,560.37,39.41 M557.71,54.99c-1.27,16.85,4.34,33.29,10.63,48.67
		c7.28,16.43,16.59,31.85,25.8,47.25c10.71,17.71,23.71,33.99,38.6,48.36c11.09,10.59,21.79,21.77,34.47,30.52
		c6.2599,4.21,12.98,8.44,20.68,9.19c0.87-2.21,1.35-4.6,0.96-6.97c-1.65-13.15-7.09-25.39-12.45-37.37
		c-8.2401-17.6-16.2401-35.34-25.72-52.32c-10.6-19.04-24.66-35.8-38.42-52.59c-10.35-12.55-20.89-25.17-33.71-35.32
		c-4.66-3.41-9.65-7.11-15.57-7.73C558.75,46.48,558.15,51.86,557.71,54.99z"/>
	<path fill="#373536" d="M939.4,39.59c4.81-1.44,10.46,0.63,12.84,5.14c4.07,7.37,3.27,16.23,2.53,24.31
		c-2.85,19.96-10.57,38.93-20.26,56.51c-9.3,16.72-18.74,33.44-30.1,48.87c-9.2,12.62-20.02,23.95-31.2599,34.75
		c-12.35,11.76-24.59,24.11-39.76,32.27c-5.03,2.56-10.5,5.1-16.28,4.6c-3.62-0.32-6.61-3.19-7.36-6.68
		c-1.21-5.26-0.4-10.75,0.75-15.94c4.4-17.97,13.11-34.42,20.79-51.12c8.71-18.41,17.67-36.84,29.57-53.45
		C871.5,104,883.3,90.03,894.97,75.99c9.67-11.29,19.85-22.42,32.22-30.81C930.94,42.72,934.98,40.56,939.4,39.59 M932.53,50.49
		C921.11,57.77,911.91,67.94,902.99,78c-11.62,13.78-23.17,27.64-33.92,42.11c-12.57,16.95-21.93,35.95-30.9,54.96
		c-6.82,14.8-14.38,29.35-19.1,45c-1.61,6.06-3.65,12.52-1.79,18.76c6.24-0.16,11.83-3.36,17.04-6.49
		c14.12-8.83,25.67-20.96,37.66-32.36c12.92-12.58,24.75-26.33,34.49-41.54c9.34-14.32,17.76-29.25,25.7401-44.37
		c7.75-15.68,14.05-32.44,15.63-49.97c0.05-5.67,0.87-12.42-3.1201-17.03C940.4,45.86,936.15,48.4,932.53,50.49z"/>
	<path fill="#FFFFFF" d="M557.71,54.99c0.44-3.13,1.04-8.51,5.27-8.31c5.92,0.62,10.91,4.32,15.57,7.73
		c12.82,10.15,23.36,22.77,33.71,35.32c13.76,16.79,27.82,33.55,38.42,52.59c9.48,16.98,17.48,34.72,25.72,52.32
		c5.36,11.98,10.8,24.22,12.45,37.37c0.39,2.37-0.09,4.76-0.96,6.97c-7.7-0.75-14.42-4.98-20.68-9.19
		c-12.68-8.75-23.38-19.93-34.47-30.52c-14.89-14.37-27.89-30.65-38.6-48.36c-9.21-15.4-18.52-30.82-25.8-47.25
		C562.05,88.28,556.44,71.84,557.71,54.99z"/>
	<path fill="#FFFFFF" d="M932.53,50.49c3.62-2.09,7.87-4.63,12.1899-3.42c3.9901,4.61,3.17,11.36,3.1201,17.03
		c-1.58,17.53-7.88,34.29-15.63,49.97c-7.98,15.12-16.4,30.05-25.7401,44.37c-9.74,15.21-21.5699,28.96-34.49,41.54
		c-11.99,11.4-23.54,23.53-37.66,32.36c-5.21,3.13-10.8,6.33-17.04,6.49c-1.86-6.24,0.18-12.7,1.79-18.76
		c4.72-15.65,12.28-30.2,19.1-45c8.97-19.01,18.33-38.01,30.9-54.96c10.75-14.47,22.3-28.33,33.92-42.11
		C911.91,67.94,921.11,57.77,932.53,50.49z"/>
	<path fill="#373536" d="M700.35,297.35c3.87-1.62,7.62,1.73,9.1801,5.05c2.79,6.11,2.7599,13.65-0.54,19.56
		c-1.71,3.34-5.99,5.77-9.54,3.66c-4.51-2.83-6.06-8.59-6.11-13.62C693.27,306.53,694.98,299.89,700.35,297.35z"/>
	<path fill="#373536" d="M799.33,297.22c4.59-1.43,8.34,3.02,9.62,6.95c2.09,6.49,1.83,14.56-2.89,19.87
		c-2.16,2.63-6.42,3.21-9.01,0.88c-4.43-3.89-5.49-10.37-4.91-15.97C792.69,304.33,794.68,299.07,799.33,297.22z"/>
	<path fill="#FFFFFF" d="M721.56,344.01c46.3-2.7,93.14,0.36,138.32,11.11c22.13,5.48,44.03,12.76,63.91,24.09
		c12.07,7.06,23.79,15.65,31.45,27.57c5.36,8.23,7.91,18.5,5.72,28.2c-2.52,11.36-10.12,20.81-18.75,28.26
		c-13.73,11.75-30.22,19.71-46.97,26.14c-28.99,10.87-59.6,16.83-90.31,20.15c-44.76,4.58-90.15,3.42-134.54-4.08
		c-24.4-4.34-48.61-10.55-71.4-20.43c-14.2-6.27-28.04-13.92-39.4-24.63c-7.79-7.46-14.46-16.88-15.96-27.79
		c-1.67-10.49,2.23-21.13,8.57-29.41c8.46-11.03,20.1-19.13,32.17-25.77c18.32-9.89,38.18-16.59,58.3-21.71
		C668.51,349.3,694.99,345.62,721.56,344.01 M710.54,356.48c-2.88,1.32-6.89,2.85-7.15,6.52c0.53,3.11,2.56,5.68,4.48,8.09
		c10.53,12.4,25.9,20.73,42.19,22.02c-0.02,18.19,0.28,36.39-0.14,54.57c-14.69,3.82-29.43,7.45-44.03,11.57
		c0.3,0.52,0.92,1.56,1.23,2.09c2.74-0.47,5.42-1.27,8.12-1.98c4.47,8.44,8.4,17.15,12.68,25.68c0.66,1.26,1.62,2.9,3.3,2.75
		c7.29-0.64,14.48-2.25,21.77-2.89c7.31,0.57,14.51,2.24,21.82,2.9c2.19,0.09,3.32-2.14,4.15-3.82c3.77-7.96,7.63-15.87,11.36-23.84
		c2.37,0.14,6.28,2.72,6.98-0.96c-14.58-4.04-29.29-7.58-43.89-11.54c-0.03-18.15,0.09-36.31-0.06-54.46
		c14.78-1.25,28.82-8.1,39.19-18.65c3.01-3.12,6.08-6.47,7.42-10.68c0.67-2.19-0.98-4.07-2.69-5.15c-4.23-2.71-9.17-3.97-14.02-5.04
		c-13.19-2.91-26.79-3.1-40.24-2.73C732.04,351.5,720.89,352.61,710.54,356.48 M571.86,425.78c0.02,0.79,0.06,2.39,0.07,3.19
		c24.45,0.1,48.9-0.02,73.35,0.05c0.02-0.82,0.08-2.46,0.11-3.29C620.88,425.63,596.37,425.55,571.86,425.78 M858.03,425.83
		c0.03,0.77,0.08,2.32,0.1,3.09c24.51,0.12,49.04,0.18,73.55-0.03c0.02-0.74,0.04-2.21,0.06-2.95c-5.57-0.56-11.16-0.18-16.74-0.28
		C896.01,425.77,877.01,425.43,858.03,425.83 M630.01,443c-13.97,4-27.89,8.14-41.83,12.24c-1.96,0.25-1.51,3.99,0.55,3.25
		c23.43-6.85,46.9-13.61,70.28-20.66c-0.04-0.74-0.13-2.22-0.17-2.97C649.07,436.95,639.62,440.31,630.01,443 M857.03,434.8
		c-0.03,0.77-0.09,2.29-0.1201,3.06c23.7401,7.18,47.6,13.95,71.3701,21c0.2-1.1,0.39-2.21,0.5699-3.32
		C904.87,448.75,881.1,441.2,857.03,434.8z"/>
	<path fill="#373536" d="M710.54,356.48c10.35-3.87,21.5-4.98,32.47-5.55c13.45-0.37,27.05-0.18,40.24,2.73
		c4.85,1.07,9.79,2.33,14.02,5.04c1.71,1.08,3.36,2.96,2.69,5.15c-1.34,4.21-4.41,7.56-7.42,10.68
		c-10.37,10.55-24.41,17.4-39.19,18.65c0.15,18.15,0.03,36.31,0.06,54.46c14.6,3.96,29.31,7.5,43.89,11.54
		c-0.7,3.68-4.61,1.1-6.98,0.96c-3.73,7.97-7.59,15.88-11.36,23.84c-0.83,1.68-1.96,3.91-4.15,3.82c-7.31-0.66-14.51-2.33-21.82-2.9
		c-7.29,0.64-14.48,2.25-21.77,2.89c-1.68,0.15-2.64-1.49-3.3-2.75c-4.28-8.53-8.21-17.24-12.68-25.68
		c-2.7,0.71-5.38,1.51-8.12,1.98c-0.31-0.53-0.93-1.57-1.23-2.09c14.6-4.12,29.34-7.75,44.03-11.57
		c0.42-18.18,0.12-36.38,0.14-54.57c-16.29-1.29-31.66-9.62-42.19-22.02c-1.92-2.41-3.95-4.98-4.48-8.09
		C703.65,359.33,707.66,357.8,710.54,356.48 M719.93,460.09c3.71,8.01,7.84,15.83,11.48,23.88c6.89-0.62,13.71-1.79,20.54-2.89
		c-2.04-9.28-2.33-18.85-3.94-28.2C738.59,455.04,729.28,457.64,719.93,460.09 M755.23,452.84c-0.04,6.05-0.14,12.1-0.19,18.15
		c-0.08,3.38,0.33,6.86-0.81,10.12c6.84,1.07,13.67,2.14,20.54,2.97c3.71-7.81,7.58-15.54,11.15-23.41
		C775.64,458.26,765.52,455.22,755.23,452.84z"/>
	<path fill="#373536" d="M571.86,425.78c24.51-0.23,49.02-0.15,73.53-0.05c-0.03,0.83-0.09,2.47-0.11,3.29
		c-24.45-0.07-48.9,0.05-73.35-0.05C571.92,428.17,571.88,426.57,571.86,425.78z"/>
	<path fill="#373536" d="M858.03,425.83c18.98-0.4,37.98-0.06,56.97-0.17c5.58,0.1,11.17-0.28,16.74,0.28
		c-0.02,0.74-0.04,2.21-0.06,2.95c-24.51,0.21-49.04,0.15-73.55,0.03C858.11,428.15,858.06,426.6,858.03,425.83z"/>
	<path fill="#373536" d="M630.01,443c9.61-2.69,19.06-6.05,28.83-8.14c0.04,0.75,0.1299,2.23,0.17,2.97
		c-23.38,7.05-46.85,13.81-70.28,20.66c-2.06,0.74-2.51-3-0.55-3.25C602.12,451.14,616.04,447,630.01,443z"/>
	<path fill="#373536" d="M857.03,434.8c24.0699,6.4,47.84,13.95,71.8199,20.74c-0.18,1.11-0.37,2.22-0.5699,3.32
		c-23.77-7.05-47.63-13.82-71.3701-21C856.94,437.09,857,435.57,857.03,434.8z"/>
	<path fill="#FFFFFF" d="M719.93,460.09c9.35-2.45,18.66-5.05,28.08-7.21c1.61,9.35,1.9,18.92,3.94,28.2
		c-6.83,1.1-13.65,2.27-20.54,2.89C727.77,475.92,723.64,468.1,719.93,460.09z"/>
	<path fill="#FFFFFF" d="M755.23,452.84c10.29,2.38,20.41,5.42,30.69,7.83c-3.57,7.87-7.44,15.6-11.15,23.41
		c-6.87-0.83-13.7-1.9-20.54-2.97c1.14-3.26,0.73-6.74,0.81-10.12C755.09,464.94,755.19,458.89,755.23,452.84z"/>
</g>
<g>
	<path fill="#373536" d="M154.22,707.22c2.92-2.93,7.24-1.71,10.85-1.3199c21.25,2.59,42.57,8.89,59.99,21.72
		c14.07-6.54,29.93-9.61,45.37-7.27c8.12,1.05,15.9,3.78,23.41,6.95c17.48-12.64,38.74-18.92,59.96-21.44
		c3.38-0.35,7.39-1.46,10.21,1.12c3.06,2.36,2.82,6.53,2.78,9.99c-0.32,20.4901-4.25,41.73-16.09,58.8701
		c21.37,27.0099,37.64,57.66,51.19,89.21c6.81,3.25,14.1,5.66,20.79,9.29c16.55,8.42,32.39,19.4,43.35,34.65
		c5.45,7.93,10.3,17.15,9.32,27.09c11.49,0.43,23.01-0.03,34.5,0.21c1.83-0.38,1.99,1.51,2.48,2.77c-1.73,0.45-3.5,0.7-5.28,0.66
		c-9.04-0.08-18.07-0.0099-27.1-0.06c-1.4,0.2401-3.26-0.54-4.33,0.63c-0.35,4.45-0.23,9.1-2.09,13.27
		c-1.31,2.76-3.14,5.23-4.63,7.9c12.99,1.48,25.98,3.04,38.95,4.79c-0.02,0.69-0.05,2.07-0.06,2.76
		c-13.71-0.44-27.25-3.22-40.9-4.45c-5.76,10.7-15.77,18.09-25.68,24.67c-21.5,13.7-45.89,22.14-70.48,28.37
		c-30.01,7.4501-60.86,11.13-91.73,12.4c-35.38,1.1899-70.93-0.89-105.79-7.17c-31.3-5.86-62.6-14.59-90.29-30.7
		c-10.94-6.79-22.21-14.27-28.9-25.59c-8.38,0.69-16.68,2.44-25.11,2.55c0.04-0.73,0.11-2.2,0.15-2.94
		c7.49-1.12,15.07-1.62,22.55-2.87c-2.29-3.79-5.22-7.29-6.39-11.65c-1.45-3.82-1.17-7.94-1.16-11.93
		c-11.66-0.1-23.33,0.08-34.99-0.07c-2.07,0.41-2.05-3.69,0-3.3c11.68-0.24,23.36,0.02,35.04-0.11
		c-1.04-11.8799,5.46-22.68,12.39-31.75c15.53-19.1899,37.66-31.77,60.37-40.6c1.25-0.34,2.05-1.36,2.45-2.54
		c12.75-30.25,29.02-59.05,48.96-85.15c-12.09-16.37-15.88-37.28-16.52-57.2C151.92,715.04,150.8,710.13,154.22,707.22
		 M159.04,712.81c-0.1,6.43,0.33,12.84,1.08,19.23c2.05,15.78,6.47,32.38,17.98,44.01c-11,13.33-20.7,27.7-29.33,42.67
		C140.06,833.97,132,849.65,125.53,866c41.58-13.87,86.95-14.94,129.55-5.19c3.18,0.81,6.51,0.75,9.72,0.08
		c43.09-8.33,88.41-6.56,130.21,7.22c-13.79-33.12-31.4-64.85-54.07-92.75c7.06-6.94,11.11-16.27,13.9-25.62
		c3.37-11.99,4.89-24.49,4.46-36.94c-22.93,2-46.37,8.46-64.52,23.18c-9.33-4.49-19.27-8.11-29.68-8.81
		c-14.23-1.36-28.31,2.77-40.94,9.06C205.8,721.45,182.23,714.66,159.04,712.81 M119,870.99c-18.81,7.28-36.96,17.34-51.2,31.81
		c-8.81,9.09-16.33,20.47-17.24,33.42c42.47,0.07,84.95-0.03,127.43,0.05c2.46-1.06,3.45,3.4,0.93,3.35
		c-42.79,0.15-85.58-0.01-128.37,0.08c0.2,8.27,3.77,15.99,8.47,22.65c40.76-4.71,81.45-9.95,122.19-14.8
		c5.97-0.62,11.9-1.91,17.93-1.84c-0.05,0.75-0.16,2.2599-0.21,3.0099c-45.75,5.65-91.5,11.2401-137.26,16.77
		c9.1,10.84,21.28,18.6,33.72,25.08c14.29,7.32,29.47,12.73,44.88,17.13c38.58,10.82,78.75,14.94,118.73,15.29
		c31.58-0.17,63.22-2.76,94.21-9c26.42-5.53,52.71-13.25,76.43-26.4c11.02-6.35,21.9-13.7401,29.61-24.03
		c-40.69-4.87-81.38-9.85-122.06-14.84c-0.04-0.73-0.12-2.17-0.16-2.9c5.96-0.36,11.82,1.17,17.73,1.7
		c35.73,4.18,71.4,8.9,107.15,12.87c3.83-6.27,6.76-13.22,7.11-20.63c-43.36-0.24-86.73,0.07-130.09-0.16
		c-0.02-1.09-0.02-2.17-0.01-3.24c43.37-0.33,86.75,0.05,130.12-0.19c-1.51-15.7-12.03-28.69-23.7-38.48
		c-12.91-10.7-27.96-18.57-43.58-24.51c-40.56-15.2-85.23-18.26-127.83-11.31c10.04,1.22,20.5,1.94,29.7,6.56
		c2.29,1.24,5.34,3.34,4.24,6.38c-1.79,4.77-5.43,8.53-9.02,12.03c-10.18,9.44-23.39,16.11-37.42,16.7599
		c-0.04,18.29-0.06,36.59,0.01,54.89c12.92,8.05,28.3,11.25,43.38,11.15c0.01,0.58,0.01,1.72,0.02,2.3
		c-15.63,0.9-31.45-3.07-44.95-10.94c-3.21,1.1-5.79,3.56-8.93,4.87c-11.19,5.48-23.89,6.48-36.16,6.36
		c-0.26-0.86-0.5-1.71-0.74-2.54c15.22,0.15,30.64-3.16,43.76-11.07c0.35-18.37,0.18-36.74,0.09-55.11
		c-15.3-0.61-29.57-8.55-40.05-19.4c-2.79-3.19-5.95-6.62-6.58-10.97c0.8-2.93,3.81-4.38,6.32-5.61
		c9.36-3.89,19.56-4.7401,29.52-5.86C204.68,853.14,159.63,855.61,119,870.99z"/>
	<path fill="#FFFFFF" d="M159.04,712.81c23.19,1.85,46.76,8.64,65.12,23.42c12.63-6.29,26.71-10.42,40.94-9.06
		c10.41,0.7,20.35,4.32,29.68,8.81c18.15-14.72,41.59-21.18,64.52-23.18c0.43,12.45-1.09,24.95-4.46,36.94
		c-2.79,9.35-6.84,18.68-13.9,25.62c22.67,27.9,40.28,59.63,54.07,92.75c-41.8-13.78-87.12-15.55-130.21-7.22
		c-3.21,0.67-6.54,0.73-9.72-0.08c-42.6-9.75-87.97-8.68-129.55,5.19c6.47-16.35,14.53-32.03,23.24-47.28
		c8.63-14.97,18.33-29.34,29.33-42.67c-11.51-11.63-15.93-28.23-17.98-44.01C159.37,725.65,158.94,719.24,159.04,712.81
		 M308.57,745.1c8.39,7.73,17.29,14.89,25.73,22.57c1.96-0.28,3.18-2.51,4.53-3.86c7.03-9.57,8.58-21.98,8.47-33.55
		C333.39,731.55,319.28,735.78,308.57,745.1 M170.99,730.43c0.27,13.33,2.13,28.77,13.11,37.81c8.9-7.44,17.83-14.91,26.31-22.83
		C199.49,736.03,185.22,731.27,170.99,730.43 M207.47,808.42c-4.78,3.03-6.24,9.21-6.26,14.53c0.3,4.78,1.67,10.11,5.73,13.09
		c2.92,2.09,7.14,0.87,9.06-2.0099c4.54-6.28,4.68-15.3,0.91-21.97C215.15,808.83,211.01,806.27,207.47,808.42 M306.37,808.27
		c-4.96,2.94-6.58,9.32-6.44,14.74c0.16,5.04,1.82,10.91,6.54,13.5c3.52,1.83,7.5-0.72,9.16-3.9c3.5-6.36,3.45-14.69-0.3-20.93
		C313.6,808.68,309.71,806.47,306.37,808.27z"/>
	<path fill="#373536" d="M308.57,745.1c10.71-9.3199,24.82-13.55,38.73-14.84c0.11,11.57-1.44,23.98-8.47,33.55
		c-1.35,1.35-2.57,3.58-4.53,3.86C325.86,759.99,316.96,752.83,308.57,745.1 M320.45,745.78c4.57,3.97,9.13,7.9399,13.77,11.8199
		c3.18-5.74,4.88-12.23,5.37-18.7599C332.93,740.18,326.23,742.09,320.45,745.78z"/>
	<path fill="#373536" d="M170.99,730.43c14.23,0.84,28.5,5.6,39.42,14.98c-8.48,7.92-17.41,15.39-26.31,22.83
		C173.12,759.2,171.26,743.76,170.99,730.43 M178.89,738.86c0.55,6.7,2.37,13.29,5.52,19.25c4.98-3.73,9.56-7.96,14.17-12.13
		C192.53,742.38,185.79,740.12,178.89,738.86z"/>
	<path fill="#FFFFFF" d="M178.89,738.86c6.9,1.26,13.64,3.52,19.69,7.12c-4.61,4.17-9.19,8.4-14.17,12.13
		C181.26,752.15,179.44,745.56,178.89,738.86z"/>
	<path fill="#FFFFFF" d="M320.45,745.78c5.78-3.69,12.48-5.6,19.14-6.94c-0.49,6.53-2.19,13.02-5.37,18.7599
		C329.58,753.72,325.02,749.75,320.45,745.78z"/>
	<path fill="#373536" d="M207.47,808.42c3.54-2.15,7.68,0.41,9.44,3.64c3.77,6.67,3.63,15.69-0.91,21.97
		c-1.92,2.8799-6.14,4.1-9.06,2.0099c-4.06-2.98-5.43-8.31-5.73-13.09C201.23,817.63,202.69,811.45,207.47,808.42z"/>
	<path fill="#373536" d="M306.37,808.27c3.34-1.8,7.23,0.41,8.96,3.41c3.75,6.24,3.8,14.57,0.3,20.93c-1.66,3.18-5.64,5.73-9.16,3.9
		c-4.72-2.59-6.38-8.46-6.54-13.5C299.79,817.59,301.41,811.21,306.37,808.27z"/>
	<path fill="#FFFFFF" d="M119,870.99c40.63-15.38,85.68-17.85,128.12-9.32c-9.96,1.12-20.16,1.97-29.52,5.86
		c-2.51,1.23-5.52,2.68-6.32,5.61c0.63,4.35,3.79,7.78,6.58,10.97c10.48,10.85,24.75,18.79,40.05,19.4
		c0.09,18.37,0.26,36.74-0.09,55.11c-13.12,7.91-28.54,11.22-43.76,11.07c0.24,0.83,0.48,1.68,0.74,2.54
		c12.27,0.12,24.97-0.88,36.16-6.36c3.14-1.31,5.72-3.77,8.93-4.87c13.5,7.87,29.32,11.84,44.95,10.94
		c-0.01-0.58-0.01-1.72-0.02-2.3c-15.08,0.1-30.46-3.1-43.38-11.15c-0.07-18.3-0.05-36.6-0.01-54.89
		c14.03-0.65,27.24-7.3199,37.42-16.7599c3.59-3.5,7.23-7.26,9.02-12.03c1.1-3.04-1.95-5.14-4.24-6.38
		c-9.2-4.62-19.66-5.34-29.7-6.56c42.6-6.95,87.27-3.89,127.83,11.31c15.62,5.94,30.67,13.81,43.58,24.51
		c11.67,9.79,22.19,22.78,23.7,38.48c-43.37,0.24-86.75-0.14-130.12,0.19c-0.01,1.07-0.01,2.15,0.01,3.24
		c43.36,0.23,86.73-0.08,130.09,0.16c-0.35,7.41-3.28,14.36-7.11,20.63c-35.75-3.97-71.42-8.69-107.15-12.87
		c-5.91-0.53-11.77-2.06-17.73-1.7c0.04,0.73,0.12,2.17,0.16,2.9c40.68,4.9901,81.37,9.97,122.06,14.84
		c-7.71,10.29-18.59,17.68-29.61,24.03c-23.72,13.15-50.01,20.87-76.43,26.4c-30.99,6.24-62.63,8.83-94.21,9
		c-39.98-0.35-80.15-4.47-118.73-15.29c-15.41-4.4-30.59-9.81-44.88-17.13c-12.44-6.48-24.62-14.24-33.72-25.08
		c45.76-5.53,91.51-11.12,137.26-16.77c0.05-0.75,0.16-2.2599,0.21-3.0099c-6.03-0.07-11.96,1.22-17.93,1.84
		c-40.74,4.85-81.43,10.09-122.19,14.8c-4.7-6.66-8.27-14.38-8.47-22.65c42.79-0.09,85.58,0.07,128.37-0.08
		c2.52,0.05,1.53-4.41-0.93-3.35c-42.48-0.08-84.96,0.02-127.43-0.05c0.91-12.95,8.43-24.33,17.24-33.42
		C82.04,888.33,100.19,878.27,119,870.99z"/>
</g>
<g>
	<path fill="#373536" d="M1152.98,733.28c12.3301-9.51,27.14-16.65,42.9501-17.01c16.5499-0.37,32.45,6.71,45.24,16.83
		c4.88-4.52,10.59-8.3199,17.1599-9.85c10.2001-2.66,21.25-1.42,30.9501,2.56c6.72,3.19,7.74,11.52,8.61,18.09
		c0.88,18.22-1.74,36.38-4.4,54.36c11.01,2.06,21.6901,7.78,27.9301,17.33c3.7999,5.28,5.1,11.74,5.83,18.08
		c10.95,11.72,20.49,25.08,25.88,40.32c7.53,20.21,7.58,43.05,0.2,63.31c-9.9299,27.68-31.8199,49.61-56.89,64.17
		c-36.72,21.3101-80.58,28.87-122.5499,24.3101c-36.52-4.05-72.77-17.55-100.47-42.16c-14.4-12.88-26.26-28.99-32.55-47.36
		c-6.37-18.15-6.79-38.29-1.29-56.7c4.8101-16.28,13.9701-31.11,25.63-43.38c1.0801-1.23,2.5701-2.42,2.42-4.24
		c0.5-10.77,6.91-20.67,15.75-26.59c5.12-3.66,11.17-5.6,17.24-7.03c-2.33-14-3.9399-28.13-4.61-42.3
		c-0.0701-8.5-0.34-17.57,3.63-25.33c2.87-5.54,9.62-6.58,15.13-7.81C1128.1899,720,1143.1801,723.34,1152.98,733.28
		 M1151.75,743.99c-2.98-4.21-6.38-8.31-11.03-10.74c-9.46-5.14-21.0399-4.8-31.0399-1.49c-2.7401,0.62-4.65,2.92-5.12,5.63
		c-2.15,10.43-1,21.18-0.29,31.71c0.76,11.29,3.37,22.39,3.89,33.6801c4.3199-0.15,8.51,1.0099,12.77,1.49
		c42.38-17.1,90.5099-19.23,134.34-6.39c6.4,1.72,12.47,4.48,18.78,6.43c4.2-0.76,8.4099-1.66,12.72-1.48
		c-1.67-5.06,0.39-10.31,0.85-15.4c1.85-14.35,3.6901-28.86,2.88-43.35c-0.6-4.29-0.46-10.49-5.48-12.08
		c-9.27-3.33-19.84-3.98-29.0801-0.16c-5.7599,2.27-9.9299,6.98-13.5599,11.8c-12.48-11.1-28.23-20.11-45.38-19.91
		C1179.85,723.7,1164.2,732.88,1151.75,743.99 M1121.64,806.71c-1.61,0.54-3.27-0.35-4.85-0.53
		c-13.52-3.24-29.29,1.58-37.3101,13.28c-3.58,5.0099-4.87,11.27-4.48,17.34c-17,16.1-29.49,37.84-31.49,61.45
		c-2.3101,23,5.89,46.22,20.12,64.17c20.9399,26.56,52.24,43.17,84.62,51.34c44.27,10.6899,92.49,7.02,133.67-12.91
		c25.5299-12.42,48.74-31.85,61.0299-57.88c9.74-20.23,11.1801-44.27,3.6001-65.43c-5.4-15.67-15.29-29.43-27.0801-40.93
		c0.28-5.4-0.48-11.01-3.4199-15.64C1308.49,808.28,1291.98,802.84,1277.96,806.15c-1.83,0.23-3.73,1.21-5.52,0.41
		C1224.71,787.08,1169.34,787.25,1121.64,806.71z"/>
	<path fill="#FFFFFF" d="M1151.75,743.99c12.45-11.11,28.1-20.29,45.25-20.26c17.15-0.2,32.9,8.81,45.38,19.91
		c3.63-4.82,7.8-9.53,13.5599-11.8c9.2401-3.82,19.8101-3.17,29.0801,0.16c5.02,1.59,4.88,7.79,5.48,12.08
		c0.8101,14.49-1.03,29-2.88,43.35c-0.46,5.09-2.52,10.34-0.85,15.4c-4.3101-0.18-8.52,0.72-12.72,1.48
		c-6.3101-1.95-12.38-4.71-18.78-6.43c-43.8301-12.84-91.96-10.71-134.34,6.39c-4.26-0.48-8.4501-1.64-12.77-1.49
		c-0.52-11.29-3.13-22.39-3.89-33.6801c-0.71-10.53-1.86-21.28,0.29-31.71c0.47-2.71,2.3799-5.01,5.12-5.63
		c10-3.31,21.58-3.65,31.0399,1.49C1145.37,735.68,1148.77,739.78,1151.75,743.99 M1112.51,749c0.3,13.11,1.99,26.14,3.15,39.19
		c7.0399-10.39,14-20.89,22.33-30.33c-3.66-8.87-12.99-15.86-22.83-14.8C1112.21,743.32,1112.73,746.9,1112.51,749 M1256.23,757.58
		c8.46,9.15,15.05,19.78,22.3101,29.83c0.6599-7.53,1.35-15.05,2.3099-22.55c0.5801-6.22,1.78-12.47,1.13-18.72
		c-0.02-2.07-2.38-2.41-3.95-2.49C1268.77,743.06,1259.66,749,1256.23,757.58 M1145.38,765.33c-4.55,2.37-6.33,7.83-6.63,12.64
		c-0.3199,5.34,0.84,11.44,5.21,14.9901c3.1001,2.44,7.91,1.03,9.8101-2.28c4.25-6.54,4.24-15.81-0.0801-22.31
		C1151.95,765.7,1148.47,763.86,1145.38,765.33 M1244.3,765.2c-3.01,1.27-4.8101,4.26-5.8401,7.22
		c-2.1699,6.34-1.49,14.01,2.8101,19.32c2.5,3.21,7.9299,3.24,10.38-0.07c4.8099-6.09,5.1-15.14,1.5699-21.91
		C1251.61,766.57,1247.99,763.78,1244.3,765.2z"/>
	<path fill="#373536" d="M1112.51,749c0.22-2.1-0.3-5.68,2.65-5.94c9.84-1.06,19.1699,5.93,22.83,14.8
		c-8.33,9.44-15.29,19.94-22.33,30.33C1114.5,775.14,1112.8101,762.11,1112.51,749 M1117.47,749.92
		c0.5901,5.87,2.5601,11.48,3.3301,17.33c2.96-3.3,5.4199-7,8.3099-10.36C1126.13,753.3,1122.02,750.89,1117.47,749.92z"/>
	<path fill="#373536" d="M1256.23,757.58c3.4301-8.58,12.54-14.52,21.8-13.93c1.5699,0.08,3.9299,0.42,3.95,2.49
		c0.65,6.25-0.5499,12.5-1.13,18.72c-0.96,7.5-1.65,15.02-2.3099,22.55C1271.28,777.36,1264.6899,766.73,1256.23,757.58
		 M1265.23,756.64c2.65,3.23,5.2001,6.55,7.77,9.85c0.8101-5.45,3.1801-10.46,4.51-15.77
		C1272.8,750.97,1268.3,753.05,1265.23,756.64z"/>
	<path fill="#FFFFFF" d="M1117.47,749.92c4.55,0.97,8.66,3.38,11.64,6.97c-2.89,3.36-5.35,7.06-8.3099,10.36
		C1120.03,761.4,1118.0601,755.79,1117.47,749.92z"/>
	<path fill="#FFFFFF" d="M1265.23,756.64c3.0701-3.59,7.5701-5.67,12.28-5.92c-1.33,5.3101-3.7,10.32-4.51,15.77
		C1270.4301,763.19,1267.88,759.87,1265.23,756.64z"/>
	<path fill="#373536" d="M1145.38,765.33c3.09-1.47,6.5699,0.37,8.3099,3.04c4.3201,6.5,4.3301,15.77,0.0801,22.31
		c-1.9,3.31-6.71,4.72-9.8101,2.28c-4.37-3.55-5.5299-9.65-5.21-14.9901C1139.05,773.16,1140.83,767.7,1145.38,765.33z"/>
	<path fill="#373536" d="M1244.3,765.2c3.6899-1.42,7.3099,1.37,8.9199,4.56c3.53,6.77,3.24,15.82-1.5699,21.91
		c-2.4501,3.31-7.88,3.28-10.38,0.07c-4.3-5.31-4.98-12.98-2.8101-19.32C1239.49,769.46,1241.29,766.47,1244.3,765.2z"/>
	<path fill="#FFFFFF" d="M1121.64,806.71c47.7-19.46,103.0699-19.63,150.7999-0.15c1.79,0.8,3.6901-0.18,5.52-0.41
		c14.02-3.31,30.53,2.13,38.0901,14.8199c2.9399,4.63,3.7,10.2401,3.4199,15.64c11.79,11.5,21.6801,25.26,27.0801,40.93
		c7.58,21.16,6.1399,45.2-3.6001,65.43c-12.2899,26.03-35.5,45.46-61.0299,57.88c-41.1801,19.9301-89.4,23.6-133.67,12.91
		c-32.38-8.17-63.6801-24.78-84.62-51.34c-14.23-17.95-22.4301-41.17-20.12-64.17c2-23.61,14.49-45.35,31.49-61.45
		c-0.39-6.07,0.9-12.33,4.48-17.34c8.02-11.7,23.79-16.52,37.3101-13.28C1118.37,806.36,1120.03,807.25,1121.64,806.71
		 M1101.39,819.46c-6.15,1.91-11.3201,7.89-10.75,14.56c0.33,7.13,6.78,12.6,13.52,13.69c9.4299,2.07,20.96-5.34,19.9199-15.71
		C1123.05,821.6,1110.59,816.05,1101.39,819.46 M1283.3101,819.24c-7.4801,1.8-13.25,9.77-11.03,17.47
		c2.5699,9.2,14.0699,13.56,22.59,10.14c7.08-2.23,12.35-10.18,9.88-17.55C1301.98,820.7,1291.59,816.7,1283.3101,819.24
		 M1259.99,947.77c-0.51,3.33-2.54,6.2-5.6799,7.51c-12.16,5.97-25.9301,7.11-39.2001,8.53c-22.0599,1.26-44.5699,0.81-66.0499-4.89
		c-5.3101-1.68-11.65-3.28-14.4501-8.61c-1.1899-2.84-4.6899-1.54-6.96-1.37c-0.16,5.52,5.75,7.87,9.8099,10.11
		c-1.2799,6.41-2.88,12.76-3.97,19.21c-0.71,3,1.46,6.27,4.55,6.67c5.3099,1.11,10.6,2.4,15.96,3.29
		c2.65,0.64,5.77-0.9399,6.46-3.67c1.36-5.25,2.26-10.6,3.3501-15.91c0.2899-1.12,0.2599-3.53,2.1299-2.86
		c21.27,2.78,42.88,2.52,64.15-0.17c1.04,6.23,2.4301,12.39,3.87,18.54c0.5601,2.64,3.3101,4.62,6.02,4.14
		c4.85-0.7,9.6-1.95,14.42-2.87c1.9199-0.51,4.26-0.68,5.5399-2.43c1.7001-1.92,1.1801-4.67,0.7401-6.94
		c-1.29-5.71-2.2201-11.49-3.7101-17.14c4.3-2.29,10.22-5.14,9.53-10.99C1264.35,947.27,1262.13,947.1,1259.99,947.77z"/>
	<path fill="#373536" d="M1101.39,819.46c9.2-3.41,21.66,2.14,22.6899,12.54c1.04,10.37-10.49,17.78-19.9199,15.71
		c-6.74-1.09-13.1901-6.56-13.52-13.69C1090.0699,827.35,1095.24,821.37,1101.39,819.46z"/>
	<path fill="#373536" d="M1283.3101,819.24c8.2799-2.54,18.6699,1.46,21.4399,10.06c2.47,7.37-2.8,15.32-9.88,17.55
		c-8.52,3.42-20.02-0.94-22.59-10.14C1270.0601,829.01,1275.83,821.04,1283.3101,819.24z"/>
	<path fill="#373536" d="M1259.99,947.77c2.14-0.67,4.36-0.5,6.51,0.15c0.6899,5.85-5.23,8.7-9.53,10.99
		c1.49,5.65,2.42,11.4301,3.7101,17.14c0.4399,2.27,0.96,5.02-0.7401,6.94c-1.2799,1.75-3.62,1.92-5.5399,2.43
		c-4.8201,0.92-9.5701,2.17-14.42,2.87c-2.71,0.48-5.46-1.5-6.02-4.14c-1.4399-6.15-2.83-12.31-3.87-18.54
		c-21.27,2.69-42.88,2.95-64.15,0.17c-1.87-0.67-1.84,1.74-2.1299,2.86c-1.0901,5.31-1.9901,10.66-3.3501,15.91
		c-0.6899,2.73-3.8099,4.31-6.46,3.67c-5.36-0.89-10.65-2.18-15.96-3.29c-3.0901-0.4-5.26-3.67-4.55-6.67
		c1.09-6.45,2.6901-12.8,3.97-19.21c-4.0599-2.24-9.97-4.59-9.8099-10.11c2.27-0.17,5.77-1.47,6.96,1.37
		c2.8,5.33,9.14,6.93,14.4501,8.61c21.48,5.7,43.99,6.15,66.0499,4.89c13.27-1.42,27.04-2.56,39.2001-8.53
		C1257.45,953.97,1259.48,951.1,1259.99,947.77 M1139.87,959.94c-1.52,6.31-2.9399,12.68-3.9399,19.1
		c-0.6101,2.15,1.62,3.4,3.4299,3.69c5.23,1.11,10.4501,2.37,15.76,3.13c1.62,0.24,2.89-1.15,3.15-2.65
		c1.5-5.94,2.46-12.01,3.75-17.9901C1154.49,964.18,1147.04,962.45,1139.87,959.94 M1232.62,965.13c0.75,5.38,2.13,10.64,3.15,15.98
		c0.41,1.47,0.4299,3.38,1.9,4.31c1.37,0.9,3.0599,0.21,4.5699,0.03c4.75-1.05,9.5701-1.81,14.27-3.09c1.71-0.39,2.7-2.33,2.13-3.95
		c-1.29-6.18-2.53-12.37-3.8201-18.54C1247.55,962.13,1240.1801,964.14,1232.62,965.13z"/>
	<path fill="#FFFFFF" d="M1139.87,959.94c7.17,2.51,14.62,4.24,22.15,5.28c-1.29,5.98-2.25,12.05-3.75,17.9901
		c-0.26,1.5-1.53,2.89-3.15,2.65c-5.3099-0.76-10.53-2.02-15.76-3.13c-1.8099-0.29-4.04-1.54-3.4299-3.69
		C1136.9301,972.62,1138.35,966.25,1139.87,959.94z"/>
	<path fill="#FFFFFF" d="M1232.62,965.13c7.5601-0.99,14.9301-3,22.2-5.26c1.29,6.17,2.53,12.36,3.8201,18.54
		c0.5699,1.6201-0.42,3.56-2.13,3.95c-4.7,1.28-9.52,2.04-14.27,3.09c-1.51,0.18-3.2,0.87-4.5699-0.03
		c-1.4701-0.93-1.49-2.84-1.9-4.31C1234.75,975.77,1233.37,970.51,1232.62,965.13z"/>
</g>
<g>
	<path fill="#373536" d="M644.37,694.36c13.92-8.2,31.91-6.89,45.91,0.42c12.45,7.11,21.29,18.74,30.83,29.1299
		c11.96-4.86,25.06-7.29,37.94-5.65c6.72,0.79,13.2,2.8,19.61,4.89c7.56-8.55,14.96-17.41,24.04-24.42
		c9.9-7.74,22.95-10.72,35.34-9.78c12.11,1.12,23.04,8.11,30.42,17.57c10.98,13.89,16.39,31.27,19.41,48.48
		c1.86,12.2,2.63,24.69,0.89,36.95c-0.74,4.88-2.11,9.8-4.87,13.95c-2.56,3.71-7.26,6.41-11.84,5.23c-4.51-0.94-7.1-5.04-10.12-8.1
		c11.58,19.04,22.2,38.73,30.6,59.41c0.71,1.51,1.15,3.58,3.0699,4.01c16.23,6.29,31.9,14.49,45.29,25.7
		c12.37,10.35,23.3,23.98,25.8,40.35c2.17,14.2-4.02,28.36-13.4,38.78c-13.34,14.9-31.2599,24.7599-49.45,32.5
		c-41.1,16.92-85.63,23.6799-129.78,26.08c-49.77,1.91-100.15-2.11-148.15-15.91c-17.3799-5.17-34.49-11.6-50.24-20.64
		c-12.11-7.02-23.66-15.6-32.03-26.95c-6-8.18-10.07-18.12-9.79-28.39c0.01-13.93,7.2401-26.74,16.22-36.9399
		c15.44-17.36,36.28-28.85,57.67-37.26c10.07-24.42,22.54-47.86,37.33-69.75c10.41-15.25,22.04-29.75,35.44-42.5
		c2.53-2.54,5.51-4.63,7.76-7.44c-10.24,1.49-20.51,5.78-27.12,14.03c-9.66,11.84-12.77,27.35-20.97,40.08
		c-3.13,4.68-6.28,9.92-11.56,12.41c-5.15,2.34-11.17-0.72-13.88-5.31c-4.59-7.57-5.03-16.71-5.46-25.3
		c-0.09-18.56,3.05-37.27,10.2-54.45C624.72,713.2,632.59,701.29,644.37,694.36 M711.8,736.8c-22.77,13.51-40.69,33.68-56.08,54.92
		c-16.46,23.19-30.33,48.3-40.93,74.69c40.16-13.52,83.88-15.37,125.29-6.83c12.39,2.54,24.84-0.56,37.15-1.99
		c36.82-4.1801,74.57-0.78,109.8,10.87c-9.95-24.62-22.4301-48.23-37.26-70.26c-12.8-18.76-27.44-36.51-45.14-50.85
		c-12.53-9.96-26.88-18.35-42.82-21.14C744.54,722.72,726.68,728.04,711.8,736.8 M813.44,744.69c2.96,3.32,6.52,6.04,9.62,9.24
		c13.23,12.97,24.44,27.78,34.88,43.03c-1.98-4.26-4.37-8.32-6.22-12.64c-4.15-9.22-7.62-19.02-14.31-26.79
		C831.39,750.43,822.54,746.13,813.44,744.69 M666.97,857.92c-27.6899,2.6-55.18,9.99-79.6299,23.42
		c-13.27,7.42-25.82,16.68-35.1801,28.78c-6.74,8.77-11.78,19.63-10.85,30.92c0.8,10.89,6.94,20.59,14.42,28.23
		c10.59,10.67,23.77,18.37,37.31,24.68c20.67,9.49,42.69,15.7,64.93,20.22c48.02,9.42,97.46,10.98,146.09,5.93
		c23.76-2.64,47.39-6.86,70.31-13.71c20.29-6.12,40.31-14.07,57.81-26.22c10.42-7.45,20.26-16.74,25.05-28.89
		c3.28-8.4,3.15-17.96-0.14-26.32c-3.67-9.48-10.28-17.5-17.69-24.31c-10.97-10-23.96-17.53-37.45-23.58
		c-21.27-9.39-44.15-14.84-67.22-17.34c-23.23-2.22-46.8-1.84-69.82,2.11c9.97,1.31,20.38,2.0099,29.53,6.62
		c2.15,1.19,5.19,3.29,4.22,6.17c-1.46,4.12-4.44,7.49-7.45,10.58c-10.35,10.35-24.27,17.71-39.08,18.35
		c0.18,18.3-0.41,36.69,0.29,54.93c13.2,8.81,29.39,10.88,44.89,11.54c-0.38,0.52-1.14,1.56-1.52,2.08
		c-8.35,0.34-16.72-0.72-24.85-2.58c0.75,5.1899,0.95,10.6-0.85,15.62c-2.61,8.29-10.17,15.33-19.1201,15.66
		c-8.27,0.44-15.85-5.2-19.3199-12.45c-2.91-5.6-3.1-12.11-2.27-18.23c-8.36,1.86-17.01,2.41-25.54,1.9
		c-0.11-0.54-0.34-1.61-0.45-2.15c12.7-0.3,25.66-1.73,37.29-7.22c2.76-1.47,6.01-2.5,8.14-4.85c0.06-18.04-0.02-36.08,0.03-54.11
		c-16.9-1.09-32.86-10.09-43.36-23.23c-2.14-2.87-5.45-7.6-1.46-10.43c9.99-6.61,22.54-6.74,34.02-8.5099
		C714.65,857.25,690.68,855.49,666.97,857.92 M732.25,969.41c-1.91,7.04-0.81,14.94,3.44,20.9301c3.23,4.61,8.54,8,14.29,8
		c5.83,0.23,11.22-3.22,14.59-7.78c3.99-5.53,5.41-12.75,4.05-19.4c-0.28-1.16-0.41-2.67-1.86-2.87c-5.07-1.69-9.93-3.91-14.64-6.43
		c0.01,8.06,0.07,16.11-0.04,24.17c-0.78,0-2.34,0.0099-3.12,0.0099c-0.09-8.09-0.03-16.18-0.03-24.2599
		C743.72,965.02,738.19,967.79,732.25,969.41z"/>
	<path fill="#FFFFFF" d="M711.8,736.8c14.88-8.76,32.74-14.08,50.01-10.59c15.94,2.79,30.29,11.18,42.82,21.14
		c17.7,14.34,32.34,32.09,45.14,50.85c14.83,22.03,27.31,45.64,37.26,70.26c-35.23-11.65-72.98-15.05-109.8-10.87
		c-12.31,1.43-24.76,4.53-37.15,1.99c-41.41-8.54-85.13-6.69-125.29,6.83c10.6-26.39,24.47-51.5,40.93-74.69
		C671.11,770.48,689.03,750.31,711.8,736.8 M698.39,808.29c-5.8,3.58-7.04,11.45-6.15,17.71c0.79,4.27,2.64,9.24,7.09,10.83
		c3.09,1.08,6.34-0.97,7.92-3.58c3.8-5.97,3.91-14.01,0.86-20.32C706.48,809.41,702.32,806.18,698.39,808.29 M797.28,808.15
		c-4.85,2.67-6.4901,8.66-6.63,13.84c-0.07,5.22,1.45,11.23,6.05,14.3c3.1,1.96,7.11,0.21,8.94-2.68c4.41-6.5,4.37-15.73,0.13-22.3
		C804.05,808.52,800.45,806.71,797.28,808.15z"/>
	<path fill="#FFFFFF" d="M813.44,744.69c9.1,1.44,17.95,5.74,23.97,12.84c6.69,7.77,10.16,17.5699,14.31,26.79
		c1.85,4.32,4.2401,8.38,6.22,12.64c-10.44-15.25-21.65-30.06-34.88-43.03C819.96,750.73,816.4,748.01,813.44,744.69z"/>
	<path fill="#373536" d="M698.39,808.29c3.93-2.11,8.09,1.12,9.72,4.64c3.05,6.31,2.94,14.35-0.86,20.32
		c-1.58,2.61-4.83,4.66-7.92,3.58c-4.45-1.59-6.3-6.56-7.09-10.83C691.35,819.74,692.59,811.87,698.39,808.29z"/>
	<path fill="#373536" d="M797.28,808.15c3.17-1.44,6.77,0.37,8.49,3.16c4.24,6.57,4.28,15.8-0.13,22.3
		c-1.83,2.89-5.84,4.64-8.94,2.68c-4.6-3.07-6.12-9.08-6.05-14.3C790.79,816.81,792.43,810.82,797.28,808.15z"/>
	<path fill="#FFFFFF" d="M666.97,857.92c23.71-2.43,47.6801-0.67,71.08,3.61c-11.48,1.77-24.03,1.9-34.02,8.5099
		c-3.9901,2.83-0.6801,7.56,1.46,10.43c10.5,13.14,26.46,22.14,43.36,23.23c-0.05,18.03,0.03,36.07-0.03,54.11
		c-2.13,2.35-5.38,3.38-8.14,4.85c-11.63,5.4901-24.59,6.92-37.29,7.22c0.11,0.54,0.34,1.61,0.45,2.15
		c8.53,0.5099,17.18-0.04,25.54-1.9c-0.83,6.12-0.64,12.63,2.27,18.23c3.47,7.25,11.05,12.89,19.3199,12.45
		c8.95-0.33,16.51-7.37,19.1201-15.66c1.8-5.02,1.6-10.4301,0.85-15.62c8.13,1.86,16.5,2.92,24.85,2.58
		c0.38-0.52,1.14-1.56,1.52-2.08c-15.5-0.66-31.69-2.73-44.89-11.54c-0.7-18.24-0.11-36.63-0.29-54.93
		c14.81-0.64,28.73-8,39.08-18.35c3.0099-3.09,5.99-6.46,7.45-10.58c0.97-2.88-2.0699-4.98-4.22-6.17
		c-9.15-4.61-19.56-5.31-29.53-6.62c23.02-3.95,46.59-4.33,69.82-2.11c23.07,2.5,45.95,7.95,67.22,17.34
		c13.49,6.05,26.48,13.58,37.45,23.58c7.41,6.81,14.02,14.83,17.69,24.31c3.29,8.36,3.42,17.92,0.14,26.32
		c-4.79,12.15-14.63,21.4399-25.05,28.89c-17.5,12.15-37.52,20.1-57.81,26.22c-22.92,6.85-46.55,11.07-70.31,13.71
		c-48.63,5.05-98.07,3.4901-146.09-5.93c-22.24-4.52-44.2599-10.73-64.93-20.22c-13.54-6.31-26.72-14.01-37.31-24.68
		c-7.48-7.64-13.62-17.34-14.42-28.23c-0.93-11.29,4.11-22.15,10.85-30.92c9.36-12.1,21.91-21.36,35.1801-28.78
		C611.79,867.91,639.28,860.52,666.97,857.92z"/>
	<path fill="#FFFFFF" d="M732.25,969.41c5.94-1.62,11.47-4.39,16.68-7.6299c0,8.08-0.06,16.17,0.03,24.2599
		c0.78,0,2.34-0.0099,3.12-0.0099c0.11-8.0601,0.05-16.11,0.04-24.17c4.71,2.52,9.57,4.74,14.64,6.43c1.45,0.2,1.58,1.71,1.86,2.87
		c1.36,6.65-0.06,13.8701-4.05,19.4c-3.37,4.56-8.76,8.01-14.59,7.78c-5.75,0-11.06-3.39-14.29-8
		C731.44,984.35,730.34,976.45,732.25,969.41z"/>
</g>
<g>
	<path fill="#373536" d="M1651.99,679.98c-1.45-6.16,3.73-12.69,10.04-12.74c14.6699-0.12,29.35-0.07,44.02-0.02
		c6.3199-0.12,11.8199,6.2401,10.49,12.5c-2.65,13.4-5.6901,26.7401-8.3201,40.15c9.9,2.9,18.87,8.09,27.64,13.42
		c9.5701-11.85,20.4301-22.85,33.08-31.41c5.9501-3.68,12.64-7.6,19.92-6.7c3.84,0.57,5.97,4.37,7.17,7.71
		c3.5499,10.29,3.73,21.33,3.95,32.1c-0.1699,15.98-1.0599,31.97-3.1,47.82c-0.53,5.35-1.75,10.65-1.99,16.02
		c19.6899,31.91,35.76,66.23,46.04,102.34c3.0599,11.39,5.7799,23.03,5.86,34.88c-0.2201,15.12-7.1801,29.43-17.13,40.56
		c-11.25,12.65-25.6901,22.04-40.89,29.25c-19.75,9.3-41.03,14.98-62.5601,18.24c-43.4299,6.15-88.6699,3.01-130.01-12.17
		c-17.6799-6.59-34.72-15.65-48.6799-28.48c-11.16-10.26-20.26-23.52-22.97-38.66c-2.39-14.09,1.0499-28.25,4.5-41.86
		c8.9299-32.13,22.5399-62.86,39.1399-91.74c2.1801-4.16,5.2401-7.88,7-12.24c-3.4099-23.14-5.6399-46.54-5.1399-69.96
		c0.4199-9.04,0.87-18.32,4.1399-26.86c1.1801-3.13,3.3301-6.5,6.9501-6.97c6.77-0.84,13.0699,2.64,18.7,5.98
		c13.42,8.66,24.53,20.38,34.7201,32.56c7.8999-5.77,16.85-9.86,25.8999-13.49C1657.5,706.83,1654.71,693.41,1651.99,679.98
		 M1580.1801,705.15c-2.12,6.0099-2.3201,12.47-2.67,18.78c-0.88,25.73,1.47,51.49,5.54,76.87
		c-8.3401,13.63-16.3601,27.49-23.2001,41.96c-10.2899,21.63-19.26,44.05-24.9399,67.36c2.88-4.17,5.37-8.63,8.7999-12.39
		c10.7101-12.41,24.6801-21.56,39.3501-28.62c21.33-10.14,44.49-15.97,67.86-18.98c40.9199-4.84,83.2699-1.46,122.08,12.87
		c19.0699,7.27,37.61,17.32,51.66,32.38c4.39,4.4,7.46,9.81,11.09,14.8c-10.1801-38.5-26.88-75.19-48.13-108.81
		c-1.05-1.26-0.54-2.85-0.3-4.25c1.15-5.97,1.89-12.01,2.55-18.05c2.39-21.72,3.8101-43.71,1.75-65.51
		c-0.97-3.83-0.54-9.68-4.86-11.36c-5.12,0.08-9.6,3.13-13.77,5.78c-13.88,9.71-25.8,22.08-35.74,35.75
		c-14.7-11.29-32.4-19.9-51.27-19.98c-19.5499-0.33-38.03,8.49-53.15,20.3c-8.88-12.52-19.62-23.72-31.76-33.1
		c-4.96-3.64-10.1599-7.4-16.2799-8.71C1582.72,701.67,1580.67,703.15,1580.1801,705.15 M1657.5,851.92
		c-21.71,2.11-43.22,6.95-63.49,15.07c-15.53,6.34-30.51,14.67-42.6901,26.33c-9.24,8.78-16.74,19.88-19.33,32.52
		c-2.2,10.89-0.3,22.44,4.9301,32.22c6.96,13.41,18.6,23.74,31.1499,31.85c17.41,11.11,37.0701,18.31,57.1001,23.03
		c20.5599,4.84,41.74,6.77,62.84,6.72c23.77-0.39,47.61-3.36,70.42-10.22c18.9299-5.64,37.36-13.8,53.0399-25.95
		c11.99-9.35,22.49-21.64,26.4-36.61c3.79-14.2,0.1-29.62-8.3199-41.46c-9.3201-13.38-22.77-23.31-37-30.93
		c-20.6101-10.93-43.3301-17.36-66.3-20.94C1703.52,850.19,1680.36,849.55,1657.5,851.92z"/>
	<path fill="#FFFFFF" d="M1580.1801,705.15c0.49-2,2.5399-3.48,4.61-2.91c6.12,1.31,11.3199,5.07,16.2799,8.71
		c12.14,9.38,22.88,20.58,31.76,33.1c15.12-11.81,33.6001-20.63,53.15-20.3c18.87,0.08,36.5701,8.69,51.27,19.98
		c9.9399-13.67,21.86-26.04,35.74-35.75c4.17-2.65,8.65-5.7,13.77-5.78c4.3199,1.68,3.89,7.53,4.86,11.36
		c2.0601,21.8,0.64,43.79-1.75,65.51c-0.66,6.04-1.4,12.08-2.55,18.05c-0.24,1.4-0.75,2.99,0.3,4.25
		c21.25,33.62,37.95,70.31,48.13,108.81c-3.63-4.99-6.7-10.4-11.09-14.8c-14.05-15.06-32.5901-25.11-51.66-32.38
		c-38.8101-14.33-81.16-17.71-122.08-12.87c-23.37,3.01-46.53,8.84-67.86,18.98c-14.67,7.06-28.64,16.21-39.3501,28.62
		c-3.4299,3.76-5.9199,8.22-8.7999,12.39c5.6799-23.31,14.65-45.73,24.9399-67.36c6.84-14.47,14.86-28.33,23.2001-41.96
		c-4.0701-25.38-6.42-51.14-5.54-76.87C1577.86,717.62,1578.0601,711.16,1580.1801,705.15 M1591.24,728.99
		c-1.66,6.53-1.54,13.32-1.71,20.01c0.03,13.13,0.71,26.24,1.9,39.31c8.09-10.51,16.1799-21.08,25.6799-30.38
		c-4.33-8.86-9.99-17.11-16.85-24.2C1597.75,731.45,1595.01,728.23,1591.24,728.99 M1769.7,733.69
		c-6.49,6.72-11.9299,14.47-16.21,22.77c-0.97,1.65,1.39,2.67,2.1801,3.86c8.4199,8.36,15.4399,17.97,22.86,27.18
		c1.53-17.14,2.4299-34.4,1.35-51.59c-0.47-2.36-0.13-5.42-2-7.14C1774.46,728.79,1772.02,731.56,1769.7,733.69 M1634.48,804.5
		c-3.9199,1.07-6.12,5.04-7.11,8.7c-1.47,6.29-0.97,13.84,3.78,18.67c2.46,2.7,7.13,2.56,9.4299-0.3
		c5.1001-5.79,5.3301-14.72,2.3301-21.56C1641.4301,806.88,1638.23,803.59,1634.48,804.5 M1733.41,804.43
		c-4.0601,0.87-6.3401,4.95-7.3301,8.66c-1.6,6.18-0.99,13.53,3.41,18.46c2.29,2.83,6.9,3.04,9.4301,0.39
		c4.96-5.06,5.35-13.04,3.6-19.55C1741.3,808.46,1738.08,803.77,1733.41,804.43z"/>
	<path fill="#373536" d="M1591.24,728.99c3.77-0.76,6.51,2.46,9.02,4.74c6.86,7.09,12.52,15.34,16.85,24.2
		c-9.5,9.3-17.59,19.87-25.6799,30.38c-1.1901-13.07-1.87-26.18-1.9-39.31C1589.7,742.31,1589.58,735.52,1591.24,728.99
		 M1596.15,739.99c1.23,9.39,0.52,18.89,1.2,28.32c3.8201-3.63,6.86-7.99,10.7101-11.6
		C1604.86,750.63,1600.62,745.17,1596.15,739.99z"/>
	<path fill="#373536" d="M1769.7,733.69c2.3201-2.13,4.76-4.9,8.1801-4.92c1.87,1.72,1.53,4.78,2,7.14
		c1.08,17.19,0.1801,34.45-1.35,51.59c-7.42-9.21-14.4401-18.82-22.86-27.18c-0.79-1.19-3.15-2.21-2.1801-3.86
		C1757.77,748.16,1763.21,740.41,1769.7,733.69 M1762,756.09c3.64,3.89,7.11,7.93,10.62,11.95c0.55-9.32-0.09-18.71,1.14-27.97
		C1769.29,744.98,1765.48,750.44,1762,756.09z"/>
	<path fill="#FFFFFF" d="M1596.15,739.99c4.47,5.18,8.71,10.64,11.91,16.72c-3.8501,3.61-6.89,7.97-10.7101,11.6
		C1596.67,758.88,1597.38,749.38,1596.15,739.99z"/>
	<path fill="#FFFFFF" d="M1762,756.09c3.48-5.65,7.29-11.11,11.76-16.02c-1.23,9.26-0.59,18.65-1.14,27.97
		C1769.11,764.02,1765.64,759.98,1762,756.09z"/>
	<path fill="#373536" d="M1634.48,804.5c3.75-0.91,6.9501,2.38,8.4301,5.51c3,6.84,2.77,15.77-2.3301,21.56
		c-2.2999,2.86-6.97,3-9.4299,0.3c-4.75-4.83-5.25-12.38-3.78-18.67C1628.36,809.54,1630.5601,805.57,1634.48,804.5z"/>
	<path fill="#373536" d="M1733.41,804.43c4.6699-0.66,7.89,4.03,9.11,7.96c1.75,6.51,1.36,14.49-3.6,19.55
		c-2.53,2.65-7.14,2.44-9.4301-0.39c-4.4-4.93-5.01-12.28-3.41-18.46C1727.0699,809.38,1729.35,805.3,1733.41,804.43z"/>
	<path fill="#FFFFFF" d="M1657.5,851.92c22.86-2.37,46.02-1.73,68.75,1.63c22.97,3.58,45.6899,10.01,66.3,20.94
		c14.23,7.62,27.6799,17.55,37,30.93c8.4199,11.84,12.11,27.26,8.3199,41.46c-3.91,14.97-14.41,27.26-26.4,36.61
		c-15.6799,12.15-34.11,20.31-53.0399,25.95c-22.8101,6.86-46.65,9.83-70.42,10.22c-21.1,0.05-42.28-1.8799-62.84-6.72
		c-20.03-4.72-39.6901-11.92-57.1001-23.03c-12.5499-8.11-24.1899-18.44-31.1499-31.85c-5.2301-9.78-7.13-21.33-4.9301-32.22
		c2.59-12.64,10.09-23.7401,19.33-32.52c12.1801-11.66,27.16-19.99,42.6901-26.33C1614.28,858.87,1635.79,854.03,1657.5,851.92
		 M1602.48,886.66c-6.66,1.2401-11.9399,7.54-11.87,14.33c-0.3099,7.76,6.5701,14.94,14.36,14.85c8.4501,0.58,15.99-7.53,15.11-15.9
		C1619.6,891.49,1610.76,884.73,1602.48,886.66 M1762.4399,886.56c-6.8799,1.02-12.5299,7.44-12.4299,14.43
		c-0.3101,7.98,6.97,15.32,15,14.87c8.2,0.13,15.37-7.72,14.4299-15.89C1779.09,891.67,1770.55,885.06,1762.4399,886.56
		 M1715.04,968.66c-1.39,2.82-1.0801,6.46-3.7001,8.66c-6.65,6.46-16.38,8.24-25.3099,8.56c-9.1901,0.03-19.04-1.58-26.35-7.54
		c-2.8101-2.02-3.39-5.51-4.75-8.44c-0.4901,0.04-1.4701,0.12-1.9601,0.17c-1.1799,3.5,1.01,7.09,3.37,9.57
		c5.77,5.8,14.05,8.2,21.98,9.15c10.27,0.93,21.16,0.02,30.27-5.2c4.5801-2.63,8.86-6.9901,8.9401-12.6
		C1717.6,969.22,1716.77,968.44,1715.04,968.66z"/>
	<path fill="#373536" d="M1602.48,886.66c8.28-1.93,17.12,4.83,17.6,13.28c0.88,8.37-6.6599,16.48-15.11,15.9
		c-7.7899,0.09-14.6699-7.09-14.36-14.85C1590.54,894.2,1595.8199,887.9,1602.48,886.66z"/>
	<path fill="#373536" d="M1762.4399,886.56c8.1101-1.5,16.65,5.11,17,13.41c0.9401,8.17-6.23,16.02-14.4299,15.89
		c-8.03,0.45-15.3101-6.89-15-14.87C1749.91,894,1755.5601,887.58,1762.4399,886.56z"/>
	<path fill="#373536" d="M1715.04,968.66c1.73-0.22,2.5599,0.56,2.49,2.33c-0.0801,5.61-4.36,9.97-8.9401,12.6
		c-9.11,5.22-20,6.1299-30.27,5.2c-7.9299-0.95-16.21-3.35-21.98-9.15c-2.36-2.48-4.5499-6.07-3.37-9.57
		c0.49-0.05,1.47-0.13,1.9601-0.17c1.36,2.93,1.9399,6.42,4.75,8.44c7.3099,5.96,17.1599,7.5699,26.35,7.54
		c8.9299-0.32,18.6599-2.1,25.3099-8.56C1713.96,975.12,1713.65,971.48,1715.04,968.66z"/>
</g>
</svg>
