<?xml version="1.0" encoding="UTF-8" standalone="no"?>
<!-- Created with Inkscape (http://www.inkscape.org/) -->

<svg
   xmlns:dc="http://purl.org/dc/elements/1.1/"
   xmlns:cc="http://creativecommons.org/ns#"
   xmlns:rdf="http://www.w3.org/1999/02/22-rdf-syntax-ns#"
   xmlns:svg="http://www.w3.org/2000/svg"
   xmlns="http://www.w3.org/2000/svg"
   xmlns:sodipodi="http://sodipodi.sourceforge.net/DTD/sodipodi-0.dtd"
   xmlns:inkscape="http://www.inkscape.org/namespaces/inkscape"
   id="svg4649"
   sodipodi:docname="bear-publicdomainvectors.org.svg"
   xml:space="preserve"
   viewBox="0 0 707.13 572.47"
   version="1.1"
   inkscape:version="0.92.1 r15371"
   width="754.27203"
   height="610.63464"><defs
     id="defs4653"><clipPath
       id="clipPath4663"
       clipPathUnits="userSpaceOnUse"><path
         id="path4665"
         inkscape:connector-curvature="0"
         d="M 0,600 H 600 V 0 H 0 Z" /></clipPath></defs><sodipodi:namedview
     id="namedview4651"
     bordercolor="#666666"
     inkscape:pageshadow="2"
     guidetolerance="10"
     pagecolor="#ffffff"
     gridtolerance="10"
     inkscape:window-maximized="0"
     inkscape:zoom="0.31466667"
     objecttolerance="10"
     borderopacity="1"
     inkscape:current-layer="g4657"
     inkscape:cx="352.30875"
     inkscape:cy="-23.140933"
     inkscape:window-y="0"
     inkscape:window-x="0"
     inkscape:window-width="640"
     showgrid="false"
     inkscape:pageopacity="0"
     inkscape:window-height="480" /><g
     id="g4657"
     inkscape:label="bear-publicdomainvectors.org"
     inkscape:groupmode="layer"
     transform="matrix(1.25,0,0,-1.25,-22.691,668.25)"><g
       id="g4659"><g
         id="g4661"
         clip-path="url(#clipPath4663)"><path
           id="path4667"
           style="fill:#110f0d"
           inkscape:connector-curvature="0"
           d="m 468.21,369.28 c -4.932,6.695 -10.441,13.074 -16.476,19.085 11.317,4.355 19.363,15.297 19.363,28.149 0,16.666 -13.513,30.178 -30.176,30.178 -15.822,0 -28.782,-12.185 -30.053,-27.68 -7.273,4.078 -14.899,7.758 -22.83,11.012 6.029,23.58 27.448,41.067 52.883,41.067 30.094,0 54.571,-24.484 54.571,-54.577 0,-20.157 -10.988,-37.782 -27.282,-47.234 M 167.38,471.1 c 24.624,0 45.479,-16.394 52.252,-38.836 -7.831,-2.958 -15.385,-6.33 -22.619,-10.083 -2.654,13.96 -14.901,24.52 -29.633,24.52 -16.662,0 -30.175,-13.512 -30.175,-30.178 0,-11.187 6.1,-20.926 15.138,-26.14 -6.003,-5.785 -11.517,-11.923 -16.483,-18.372 -13.937,9.898 -23.055,26.152 -23.055,44.512 0,30.093 24.48,54.577 54.575,54.577 M 301,133.58 c -103.78,0 -188.2,68.689 -188.2,153.13 0,84.436 84.426,153.13 188.2,153.13 103.78,0 188.2,-68.695 188.2,-153.13 0,-84.441 -84.426,-153.13 -188.2,-153.13 m 0,401.02 C 144.78,534.6 18.15,432.08 18.15,305.61 18.15,179.14 144.79,76.62 301,76.62 c 156.21,0 282.85,102.52 282.85,228.99 0,126.47 -126.64,228.99 -282.85,228.99" /><path
           id="path4669"
           style="fill:#110f0d"
           inkscape:connector-curvature="0"
           d="m 356.21,181.88 c -3.085,0.839 -8.468,2.15 -15.27,3.188 -5.447,0.903 -11.791,1.659 -18.602,2.154 -6.538,0.517 -13.492,0.804 -20.462,0.825 l 5.895,47.664 c 9.801,8.417 24.182,28.536 24.182,37.1 0,10.972 -61.89,10.972 -61.89,0 0,-8.452 14.512,-28.133 24.138,-36.748 l 5.941,-48.016 c -6.971,-0.025 -13.927,-0.335 -20.464,-0.847 -6.808,-0.502 -13.158,-1.245 -18.602,-2.151 -6.798,-1.039 -12.177,-2.341 -15.265,-3.174 -10.741,12.114 -17.24,27.779 -17.24,44.887 0,38.281 32.492,69.424 72.437,69.424 39.945,0 72.439,-31.143 72.439,-69.424 0,-17.103 -6.498,-32.768 -17.237,-44.882 m -55.202,-24.543 c -21.005,0 -39.937,8.617 -53.18,22.348 3.18,-0.798 7.75,-1.812 13.248,-2.651 5.444,-0.903 11.794,-1.648 18.602,-2.148 6.808,-0.534 14.069,-0.857 21.33,-0.857 7.263,0 14.518,0.295 21.33,0.835 6.811,0.493 13.155,1.246 18.602,2.15 5.492,0.84 10.055,1.856 13.236,2.66 -13.26,-13.72 -32.19,-22.33 -53.19,-22.33 m 0,145.86 c -43.811,0 -79.452,-34.287 -79.452,-76.44 0,-42.153 35.641,-76.439 79.452,-76.439 43.808,0 79.453,34.286 79.453,76.439 0,42.153 -35.645,76.44 -79.453,76.44" /><path
           id="path4671"
           style="fill:#110f0d"
           inkscape:connector-curvature="0"
           d="m 230.54,326.32 c 0,11.44 -9.274,20.713 -20.71,20.713 -11.44,0 -20.713,-9.273 -20.713,-20.713 0,-11.437 9.273,-20.713 20.713,-20.713 11.436,0 20.71,9.276 20.71,20.713" /><path
           id="path4673"
           style="fill:#110f0d"
           inkscape:connector-curvature="0"
           d="m 392.18,347.04 c -11.436,0 -20.712,-9.273 -20.712,-20.713 0,-11.437 9.276,-20.713 20.712,-20.713 11.441,0 20.714,9.276 20.714,20.713 0,11.44 -9.273,20.713 -20.714,20.713" /><path
           id="path4675"
           style="fill:#110f0d"
           inkscape:connector-curvature="0"
           d="m 245.44,349.96 c 23.132,-14.05 62.734,47.983 5.698,53.627 -62.026,6.138 -94.248,-47.903 -99.598,-79.637 -2.607,-15.463 8.769,-24.697 15.838,-7.157 21.734,53.917 61.698,43.105 78.062,33.167" /><path
           id="path4677"
           style="fill:#110f0d"
           inkscape:connector-curvature="0"
           d="m 456.47,323.95 c -5.348,31.733 -37.569,85.776 -99.594,79.637 -57.035,-5.644 -17.432,-67.678 5.698,-53.628 16.365,9.938 56.327,20.752 78.064,-33.166 7.068,-17.54 18.445,-8.307 15.832,7.157" /></g></g></g><metadata
     id="metadata16"><rdf:RDF><cc:Work><dc:format>image/svg+xml</dc:format><dc:type
           rdf:resource="http://purl.org/dc/dcmitype/StillImage" /><cc:license
           rdf:resource="http://creativecommons.org/licenses/publicdomain/" /><dc:publisher><cc:Agent
             rdf:about="http://openclipart.org/"><dc:title>Openclipart</dc:title></cc:Agent></dc:publisher></cc:Work><cc:License
         rdf:about="http://creativecommons.org/licenses/publicdomain/"><cc:permits
           rdf:resource="http://creativecommons.org/ns#Reproduction" /><cc:permits
           rdf:resource="http://creativecommons.org/ns#Distribution" /><cc:permits
           rdf:resource="http://creativecommons.org/ns#DerivativeWorks" /></cc:License></rdf:RDF></metadata></svg>