<?xml version="1.0" encoding="UTF-8" standalone="no"?>
<!-- Created with Inkscape (http://www.inkscape.org/) -->

<svg
   xmlns:dc="http://purl.org/dc/elements/1.1/"
   xmlns:cc="http://creativecommons.org/ns#"
   xmlns:rdf="http://www.w3.org/1999/02/22-rdf-syntax-ns#"
   xmlns:svg="http://www.w3.org/2000/svg"
   xmlns="http://www.w3.org/2000/svg"
   xmlns:sodipodi="http://sodipodi.sourceforge.net/DTD/sodipodi-0.dtd"
   xmlns:inkscape="http://www.inkscape.org/namespaces/inkscape"
   id="svg2706"
   sodipodi:docname="choochus-Wolf-Head-Howl-1.svg"
   viewBox="0 0 223.24 294.42"
   sodipodi:version="0.32"
   version="1.0"
   inkscape:output_extension="org.inkscape.output.svg.inkscape"
   inkscape:version="0.92.1 r15371"
   width="238.12267"
   height="314.048">
  <defs
     id="defs8" />
  <sodipodi:namedview
     id="base"
     bordercolor="#666666"
     inkscape:pageshadow="2"
     guidetolerance="10"
     pagecolor="#ffffff"
     gridtolerance="10000"
     inkscape:window-height="675"
     inkscape:zoom="1.4"
     objecttolerance="10"
     showgrid="false"
     borderopacity="1.0"
     inkscape:current-layer="layer1"
     inkscape:cx="122.61123"
     inkscape:cy="153.73837"
     showguides="true"
     inkscape:window-y="182"
     inkscape:window-x="1670"
     inkscape:window-width="640"
     inkscape:guide-bbox="true"
     inkscape:pageopacity="0.0"
     inkscape:document-units="px" />
  <g
     id="layer1"
     inkscape:label="Layer 1"
     inkscape:groupmode="layer"
     transform="translate(-260.22,-345.13)">
    <path
       id="path4352"
       sodipodi:nodetypes="cssssssscccsssccssssssssssssssc"
       style="fill:#000000"
       d="m 434.08,345.13 c -0.97,0 -6.14,7.04 -11.47,15.62 -14.36,23.1 -38.51,54.1 -43.69,56.09 -2.49,0.96 -7.43,2.01 -10.97,2.32 -6.51,0.57 -14.52,7.47 -32.31,27.81 -7.69,8.79 -12.88,12.1 -26.1,16.66 -10.16,3.49 -19.04,8.38 -23.09,12.71 -6.03,6.45 -6.31,7.48 -3.37,12.41 1.76,2.96 8.93,8.5 15.93,12.28 l 12.72,6.88 -3.19,11.28 c -1.76,6.21 -3.23,14.68 -3.25,18.81 -0.01,4.13 -2.4,12.33 -5.31,18.19 -5.61,11.3 -13.59,41.66 -14.75,56.12 -0.41,5.07 -20.6,27.24 -25.01,27.24 h 195.33 c -0.03,-7.72 -1.92,-18.71 -2.94,-19.39 -2.81,-1.86 0.03,-30.73 3.62,-36.88 4.77,-8.14 3.78,-22.99 -2.5,-37.4 -4.66,-10.7 -5.67,-16.68 -5.69,-34.29 -0.01,-13.62 1.15,-23.69 3.19,-27.9 1.76,-3.63 4.3,-13.01 5.66,-20.85 2.6,-15.02 11.05,-32.97 18.03,-38.25 7,-5.28 10.65,-19.47 7.25,-28.25 -4.01,-10.34 -8.31,-13.84 -12.47,-10.15 -2.41,2.14 -4.45,2.19 -7.91,0.22 -4.08,-2.34 -4.6,-2.02 -4.12,2.59 0.3,2.89 -0.81,5.8 -2.5,6.44 -2.39,0.9 -2.78,-1.05 -1.78,-8.72 0.71,-5.43 0.15,-13.45 -1.22,-17.84 -2.42,-7.78 -14.58,-23.75 -18.09,-23.75 z"
       inkscape:connector-curvature="0" />
  </g>
  <metadata
     id="metadata5">
    <rdf:RDF>
      <cc:Work>
        <dc:format>image/svg+xml</dc:format>
        <dc:type
           rdf:resource="http://purl.org/dc/dcmitype/StillImage" />
        <cc:license
           rdf:resource="http://creativecommons.org/licenses/publicdomain/" />
        <dc:publisher>
          <cc:Agent
             rdf:about="http://openclipart.org/">
            <dc:title>Openclipart</dc:title>
          </cc:Agent>
        </dc:publisher>
        <dc:title>Wolf Head Howl 1</dc:title>
        <dc:date>2008-12-23T15:28:34</dc:date>
        <dc:description>The head of a wolf howling</dc:description>
        <dc:source>https://openclipart.org/detail/20806/wolf-head-howl-1-by-choochus</dc:source>
        <dc:creator>
          <cc:Agent>
            <dc:title>choochus</dc:title>
          </cc:Agent>
        </dc:creator>
        <dc:subject>
          <rdf:Bag>
            <rdf:li>animal</rdf:li>
            <rdf:li>howl</rdf:li>
            <rdf:li>silhouette</rdf:li>
            <rdf:li>wolf</rdf:li>
          </rdf:Bag>
        </dc:subject>
      </cc:Work>
      <cc:License
         rdf:about="http://creativecommons.org/licenses/publicdomain/">
        <cc:permits
           rdf:resource="http://creativecommons.org/ns#Reproduction" />
        <cc:permits
           rdf:resource="http://creativecommons.org/ns#Distribution" />
        <cc:permits
           rdf:resource="http://creativecommons.org/ns#DerivativeWorks" />
      </cc:License>
    </rdf:RDF>
  </metadata>
</svg>
