<?xml version="1.0" encoding="UTF-8" standalone="no"?>
<!-- Created with Inkscape (http://www.inkscape.org/) -->

<svg
   xmlns:dc="http://purl.org/dc/elements/1.1/"
   xmlns:cc="http://creativecommons.org/ns#"
   xmlns:rdf="http://www.w3.org/1999/02/22-rdf-syntax-ns#"
   xmlns:svg="http://www.w3.org/2000/svg"
   xmlns="http://www.w3.org/2000/svg"
   xmlns:sodipodi="http://sodipodi.sourceforge.net/DTD/sodipodi-0.dtd"
   xmlns:inkscape="http://www.inkscape.org/namespaces/inkscape"
   id="svg1307"
   sodipodi:docname="Fawn-01-Face-Cartoon.svg"
   inkscape:export-filename="/home/ulisse/Desktop/greasemonkey/greasemonkey.png"
   viewBox="0 0 397.69 379.39"
   sodipodi:version="0.32"
   inkscape:export-xdpi="90"
   version="1.1"
   inkscape:output_extension="org.inkscape.output.svg.inkscape"
   inkscape:export-ydpi="90"
   inkscape:version="0.92.1 r15371"
   width="424.20267"
   height="404.68268">
  <defs
     id="defs1309">
    <radialGradient
       id="radialGradient4693"
       gradientUnits="userSpaceOnUse"
       cy="37.75"
       cx="-6"
       gradientTransform="matrix(1,0,0,0.26786,0,27.638)"
       r="14"
       inkscape:collect="always">
      <stop
         id="stop2307-7-6-6"
         style="stop-color:#000000"
         offset="0" />
      <stop
         id="stop2309-1-2-7"
         style="stop-color:#000000;stop-opacity:0"
         offset="1" />
    </radialGradient>
    <linearGradient
       id="linearGradient4695"
       y2="588.52002"
       gradientUnits="userSpaceOnUse"
       x2="527.10999"
       gradientTransform="matrix(0,-0.87774,0.76002,0,338.84,421.53)"
       y1="590.06"
       x1="800.57001"
       inkscape:collect="always">
      <stop
         id="stop4383"
         style="stop-color:#a75a3e"
         offset="0" />
      <stop
         id="stop4385"
         style="stop-color:#ffffff"
         offset="1" />
    </linearGradient>
    <linearGradient
       id="linearGradient4697"
       y2="-330.35001"
       gradientUnits="userSpaceOnUse"
       x2="750.5"
       gradientTransform="matrix(-0.75882,0.37743,-0.13433,0.79458,1444,-360.48)"
       y1="-387"
       x1="754.14001"
       inkscape:collect="always">
      <stop
         id="stop4266-9"
         style="stop-color:#e2d1d1"
         offset="0" />
      <stop
         id="stop4268-8"
         style="stop-color:#ffffff"
         offset="1" />
    </linearGradient>
    <linearGradient
       id="linearGradient4699"
       y2="-330.35001"
       gradientUnits="userSpaceOnUse"
       x2="750.5"
       gradientTransform="matrix(0.75882,0.37743,0.13433,0.79458,130.72,-360.48)"
       y1="-387"
       x1="754.14001"
       inkscape:collect="always">
      <stop
         id="stop4266-9-4"
         style="stop-color:#e2d1d1"
         offset="0" />
      <stop
         id="stop4268-8-4"
         style="stop-color:#ffffff"
         offset="1" />
    </linearGradient>
  </defs>
  <sodipodi:namedview
     id="base"
     fit-margin-left="0"
     inkscape:showpageshadow="false"
     inkscape:zoom="2.4122331"
     borderopacity="0.09019608"
     inkscape:current-layer="layer1"
     inkscape:cx="193.62808"
     inkscape:cy="187.71327"
     fill="#729fcf"
     inkscape:grid-points="false"
     inkscape:grid-bbox="false"
     inkscape:window-maximized="1"
     showgrid="false"
     fit-margin-right="0"
     inkscape:guide-bbox="true"
     showguides="true"
     bordercolor="#666"
     inkscape:window-x="-8"
     inkscape:window-y="-8"
     fit-margin-bottom="0"
     inkscape:window-width="1920"
     inkscape:pageopacity="0.0"
     inkscape:pageshadow="2"
     pagecolor="#ffffff"
     inkscape:document-units="px"
     inkscape:window-height="1138"
     showborder="true"
     fit-margin-top="0">
    <inkscape:grid
       id="GridFromPre046Settings"
       opacity=".2"
       visible="true"
       color="#0000ff"
       enabled="true"
       originy="0"
       originx="0"
       empspacing="2"
       spacingy="0.49999999"
       spacingx="0.5"
       snapvisiblegridlinesonly="true"
       empopacity="0.4"
       type="xygrid"
       empcolor="#0000ff" />
  </sodipodi:namedview>
  <g
     id="layer1"
     inkscape:label="Layer 1"
     inkscape:groupmode="layer"
     transform="translate(-588.52,441.06)">
    <g
       id="g4670">
      <path
         id="path5046-4-7-2-5-7-6-3"
         d="m 723.36,-383.82 c 4.8301,6.0178 8.4771,11.936 11.422,33.913 1.9542,14.582 3.082,21.637 2.3176,24.382 -5.5452,19.912 -3.9077,22.373 -28.303,27.795 -3.9563,0.87932 -41.089,-10.9 -56.424,-21.324 -24.451,-16.62 -38.748,-42.872 -46.683,-60.456 -8.9303,-19.788 -14.998,-43.99 -17.171,-61.35 14.662,-2.129 61.536,12.457 79.129,19.013 16.834,6.273 23.511,8.1389 37.776,20.453 14.264,12.314 13.108,11.556 17.938,17.573 z"
         sodipodi:nodetypes="zssssscszz"
         style="color:#000000;fill:#000000;fill-rule:evenodd"
         inkscape:connector-curvature="0" />
      <path
         id="path5046-4-7-2-5-7-6"
         d="m 851.37,-383.82 c -4.8301,6.0178 -8.4771,11.936 -11.422,33.913 -1.9542,14.582 -3.082,21.637 -2.3176,24.382 5.5452,19.912 3.9077,22.373 28.303,27.795 3.9563,0.87932 41.089,-10.9 56.424,-21.324 24.451,-16.62 38.748,-42.872 46.683,-60.456 8.9303,-19.788 14.998,-43.99 17.171,-61.35 -14.662,-2.129 -61.536,12.457 -79.129,19.013 -16.834,6.273 -23.511,8.1389 -37.776,20.453 -14.264,12.314 -13.108,11.556 -17.938,17.573 z"
         sodipodi:nodetypes="zssssscszz"
         style="color:#000000;fill:#000000;fill-rule:evenodd"
         inkscape:connector-curvature="0" />
      <ellipse
         id="path5044-1-8-7"
         style="color:#000000;opacity:0.48453997;fill:url(#radialGradient4693);fill-rule:evenodd"
         inkscape:export-ydpi="1256.7957"
         inkscape:export-filename="/Users/mdespont/Desktop/recherche en cours/kong/path5090.png"
         transform="matrix(11.615,0,0,11.443,866.75,-536.57)"
         inkscape:export-xdpi="1256.7957"
         cx="-6"
         cy="37.75"
         rx="14"
         ry="3.75" />
      <path
         id="path4205-1"
         style="fill:#000000"
         d="m 872.86,587.75 c -0.43025,81.275 -63.631,136.71 -135.1,139.33 -27.404,-2.5153 -33.813,-6.4129 -55.408,-23.624 -35.735,-28.48 -84.154,-66.92 -84.154,-115.45 0,-48.155 37.067,-80.663 85.494,-116.66 22.319,-16.59 25.176,-17.79 54.962,-19.588 73.699,0 134.58,65.749 134.2,135.99 z"
         sodipodi:nodetypes="sccsscs"
         inkscape:connector-curvature="0"
         transform="matrix(0,-0.92838,0.8072,0,312.44,458.79)" />
      <path
         id="path4205"
         d="m 787.88,-348.34 c 59.237,0 107.26,55.459 107.26,123.87 0,30.564 -17.206,46.231 -33.094,67.834 -19.674,26.751 -41.392,56.037 -74.164,56.037 -34.501,0 -60.507,-29.951 -80.127,-59.178 -14.067,-20.955 -27.131,-36.125 -27.131,-64.693 0,-68.412 48.021,-123.87 107.26,-123.87 z"
         sodipodi:nodetypes="sssssss"
         style="fill:url(#linearGradient4695)"
         inkscape:connector-curvature="0" />
      <g
         id="g4614"
         transform="translate(-8.8972)">
        <g
           id="g5058-1-5-0"
           transform="matrix(3.4154,0,0,2.0088,923.07,-294.93)">
          <circle
             id="path5060-6-7-9"
             style="fill:#ffffff"
             transform="matrix(0.17771,0,0,0.17771,-42.905,-80.331)"
             cx="120"
             cy="592.36218"
             r="57.142857" />
          <circle
             id="path5062-8-8-5"
             style="fill:#000000;stroke:#000000;stroke-width:0.1"
             transform="matrix(0.11892,0,0,0.13546,-35.976,-55.558)"
             cx="120"
             cy="592.36218"
             r="57.142857" />
          <circle
             id="path5064-5-2-8"
             style="fill:#ffffff;stroke:#000000;stroke-width:0.1"
             transform="matrix(0.044528,0,0,0.044528,-26.134,-5.617)"
             cx="120"
             cy="592.36218"
             r="57.142857" />
        </g>
        <g
           id="g5066-7-7-9"
           transform="matrix(3.4154,0,0,2.0088,817.9,-294.93)">
          <circle
             id="path5068-6-8-0"
             style="fill:#ffffff"
             transform="matrix(0.17771,0,0,0.17771,-42.905,-80.331)"
             cx="120"
             cy="592.36218"
             r="57.142857" />
          <circle
             id="path5070-1-0-0"
             style="fill:#000000;stroke:#000000;stroke-width:0.1"
             transform="matrix(0.11892,0,0,0.13546,-35.976,-55.558)"
             cx="120"
             cy="592.36218"
             r="57.142857" />
          <circle
             id="path5072-8-2-0"
             style="fill:#ffffff;stroke:#000000;stroke-width:0.1"
             transform="matrix(0.044528,0,0,0.044528,-26.134,-5.617)"
             cx="120"
             cy="592.36218"
             r="57.142857" />
        </g>
      </g>
      <path
         id="path3201-7-0-7-3"
         style="fill:#000000;fill-rule:evenodd"
         inkscape:connector-curvature="0"
         d="m 831.75,-127.49 c 0,15.581 -19.629,28.226 -43.815,28.226 -24.186,0 -43.815,-12.645 -43.815,-28.226 0,-15.581 19.629,-28.226 43.815,-28.226 24.186,0 43.815,12.645 43.815,28.226 z" />
      <path
         id="path3288"
         d="m 767.45,-127.76 c 0,6.2068 6.7157,11.929 0.50897,11.929 -6.2068,0 -11.238,-5.0316 -11.238,-11.238 0,-6.2068 5.0316,-11.238 11.238,-11.238 6.2068,0 -0.50897,4.3406 -0.50897,10.547 z"
         sodipodi:nodetypes="sssss"
         style="fill:#d1d1d2"
         inkscape:connector-curvature="0" />
      <path
         id="path3288-3"
         d="m 818.77,-127.56 c 0,6.2068 -5.0316,11.238 -11.238,11.238 -6.2068,0 -0.18205,-5.7226 -0.18205,-11.929 0,-6.2068 -6.0247,-10.547 0.18205,-10.547 6.20675,0 11.238,5.0316 11.238,11.238 z"
         sodipodi:nodetypes="sssss"
         style="fill:#d1d1d2"
         inkscape:connector-curvature="0" />
      <path
         id="path5046-4-7-2-5-07"
         d="m 863.6,-392.8 c -10.318,10.241 -17.444,16.744 -19.773,35.251 -1.7532,13.934 -3.9414,31.538 -3.1771,34.283 5.5452,19.912 -5.2242,17.392 19.171,22.814 3.9563,0.87933 40.729,-8.5395 61.053,-21.63 20.324,-13.091 37.482,-41.555 45.417,-59.139 8.9303,-19.788 12.963,-39.427 16.895,-56.786 -15.541,-0.37021 -57.793,11.786 -75.385,18.342 -16.834,6.273 -33.884,16.624 -44.201,26.865 z"
         sodipodi:nodetypes="zssszscsz"
         style="color:#000000;fill:#a75a3e;fill-rule:evenodd"
         inkscape:connector-curvature="0" />
      <path
         id="path5046-4-7-2-5-0-1"
         d="m 881.4,-380.75 c -7.9607,7.5084 -13.953,15.165 -20.31,24.76 -5.312,8.0181 -14.076,17.604 -14.218,28.322 7.2477,5.9101 9.2301,8.4778 18.619,18.905 10.435,-0.75913 43.307,-14.769 45.634,-15.927 21.027,-10.458 39.929,-36.351 47.551,-59.305 4.4966,-13.541 14.523,-36.677 17.003,-47.179 -8.0258,3.213 -32.511,7.1133 -44.883,12.973 -15.094,7.1491 -11.449,5.3329 -21.305,12.953 -9.8558,7.6204 -18.109,15.083 -28.092,24.498 z"
         sodipodi:nodetypes="ssccsscszs"
         style="color:#000000;fill:url(#linearGradient4697);fill-rule:evenodd"
         inkscape:connector-curvature="0" />
      <path
         id="path5046-4-7-2-5-07-8"
         d="m 711.14,-392.8 c 10.318,10.241 17.444,16.744 19.773,35.251 1.7532,13.934 3.9414,31.538 3.1771,34.283 -5.5452,19.912 5.2242,17.392 -19.171,22.814 -3.9563,0.87933 -40.729,-8.5395 -61.053,-21.63 -20.324,-13.091 -37.482,-41.555 -45.417,-59.139 -8.9303,-19.788 -12.963,-39.427 -16.895,-56.786 15.541,-0.37021 57.793,11.786 75.385,18.342 16.834,6.273 33.884,16.624 44.201,26.865 z"
         sodipodi:nodetypes="zssszscsz"
         style="color:#000000;fill:#a75a3e;fill-rule:evenodd"
         inkscape:connector-curvature="0" />
      <path
         id="path5046-4-7-2-5-0-1-9"
         d="m 693.33,-380.75 c 7.9607,7.5084 13.953,15.165 20.31,24.76 5.312,8.0181 14.076,17.604 14.218,28.322 -7.2477,5.9101 -9.2301,8.4778 -18.619,18.905 -10.435,-0.75913 -43.307,-14.769 -45.634,-15.927 -21.027,-10.458 -39.929,-36.351 -47.551,-59.305 -4.4966,-13.541 -14.523,-36.677 -17.003,-47.179 8.0258,3.213 32.511,7.1133 44.883,12.973 15.094,7.1491 11.449,5.3329 21.305,12.953 9.8558,7.6204 18.109,15.083 28.092,24.498 z"
         sodipodi:nodetypes="ssccsscszs"
         style="color:#000000;fill:url(#linearGradient4699);fill-rule:evenodd"
         inkscape:connector-curvature="0" />
    </g>
  </g>
  <metadata
     id="metadata40">
    <rdf:RDF>
      <cc:Work>
        <dc:format>image/svg+xml</dc:format>
        <dc:type
           rdf:resource="http://purl.org/dc/dcmitype/StillImage" />
        <cc:license
           rdf:resource="http://creativecommons.org/licenses/publicdomain/" />
        <dc:publisher>
          <cc:Agent
             rdf:about="http://openclipart.org/">
            <dc:title>Openclipart</dc:title>
          </cc:Agent>
        </dc:publisher>
        <dc:title>Funny Fawn Face Brown Cartoon</dc:title>
        <dc:date>2010-10-06T21:59:11</dc:date>
        <dc:description>Funny Fawn Face Brown Cartoon - Drôle de petit museau de faon brun - Lustige Kitz Gesicht braun - Musetto di Cerbiatto divertente marrone (partially remixed from &quot;Martouf&quot; work)</dc:description>
        <dc:source>https://openclipart.org/detail/89041/funny-fawn-face-brown-cartoon-by-palomaironique</dc:source>
        <dc:creator>
          <cc:Agent>
            <dc:title>palomaironique</dc:title>
          </cc:Agent>
        </dc:creator>
        <dc:subject>
          <rdf:Bag>
            <rdf:li>Bild</rdf:li>
            <rdf:li>Cerbiatto</rdf:li>
            <rdf:li>Drôle</rdf:li>
            <rdf:li>Face</rdf:li>
            <rdf:li>Fawn</rdf:li>
            <rdf:li>Figur</rdf:li>
            <rdf:li>Gesicht</rdf:li>
            <rdf:li>Grafik</rdf:li>
            <rdf:li>Ikone</rdf:li>
            <rdf:li>Kitz</rdf:li>
            <rdf:li>Kopf</rdf:li>
            <rdf:li>Lustige</rdf:li>
            <rdf:li>Medien</rdf:li>
            <rdf:li>Musetto</rdf:li>
            <rdf:li>Nase</rdf:li>
            <rdf:li>Plüsch</rdf:li>
            <rdf:li>Ricke</rdf:li>
            <rdf:li>Spielzeug</rdf:li>
            <rdf:li>Symbol</rdf:li>
            <rdf:li>Säugetier</rdf:li>
            <rdf:li>Tier</rdf:li>
            <rdf:li>Vektor</rdf:li>
            <rdf:li>Zeichen</rdf:li>
            <rdf:li>amusant</rdf:li>
            <rdf:li>amüsant</rdf:li>
            <rdf:li>animal</rdf:li>
            <rdf:li>animale</rdf:li>
            <rdf:li>art</rdf:li>
            <rdf:li>biche</rdf:li>
            <rdf:li>braun</rdf:li>
            <rdf:li>brown</rdf:li>
            <rdf:li>brun</rdf:li>
            <rdf:li>carino</rdf:li>
            <rdf:li>cartoon</rdf:li>
            <rdf:li>comics</rdf:li>
            <rdf:li>daino</rdf:li>
            <rdf:li>deer</rdf:li>
            <rdf:li>divertente</rdf:li>
            <rdf:li>doe</rdf:li>
            <rdf:li>domain</rdf:li>
            <rdf:li>domaine</rdf:li>
            <rdf:li>drollig</rdf:li>
            <rdf:li>faccia</rdf:li>
            <rdf:li>faccina</rdf:li>
            <rdf:li>face</rdf:li>
            <rdf:li>faon</rdf:li>
            <rdf:li>figure</rdf:li>
            <rdf:li>fumetti</rdf:li>
            <rdf:li>fumetto</rdf:li>
            <rdf:li>funny</rdf:li>
            <rdf:li>gigante</rdf:li>
            <rdf:li>giocattolo</rdf:li>
            <rdf:li>giochi</rdf:li>
            <rdf:li>grafica</rdf:li>
            <rdf:li>graphic</rdf:li>
            <rdf:li>graphique</rdf:li>
            <rdf:li>head</rdf:li>
            <rdf:li>hind</rdf:li>
            <rdf:li>icon</rdf:li>
            <rdf:li>icona</rdf:li>
            <rdf:li>icône</rdf:li>
            <rdf:li>immagine</rdf:li>
            <rdf:li>jouet</rdf:li>
            <rdf:li>komisch</rdf:li>
            <rdf:li>line</rdf:li>
            <rdf:li>lineart</rdf:li>
            <rdf:li>lustig</rdf:li>
            <rdf:li>lächerlich</rdf:li>
            <rdf:li>mammal</rdf:li>
            <rdf:li>mammifero</rdf:li>
            <rdf:li>mammifère</rdf:li>
            <rdf:li>marrone</rdf:li>
            <rdf:li>museau</rdf:li>
            <rdf:li>muso</rdf:li>
            <rdf:li>peluche</rdf:li>
            <rdf:li>petit</rdf:li>
            <rdf:li>plush</rdf:li>
            <rdf:li>public</rdf:li>
            <rdf:li>schwarz</rdf:li>
            <rdf:li>signe</rdf:li>
            <rdf:li>snuggy</rdf:li>
            <rdf:li>spaßhaft</rdf:li>
            <rdf:li>spaßig</rdf:li>
            <rdf:li>symbole</rdf:li>
            <rdf:li>testa</rdf:li>
            <rdf:li>toudou</rdf:li>
            <rdf:li>toy</rdf:li>
            <rdf:li>tête</rdf:li>
            <rdf:li>vecteur</rdf:li>
            <rdf:li>vector</rdf:li>
            <rdf:li>vettore</rdf:li>
            <rdf:li>vettoriale</rdf:li>
            <rdf:li>visage</rdf:li>
            <rdf:li>viso</rdf:li>
            <rdf:li>weiss</rdf:li>
            <rdf:li>witzig</rdf:li>
          </rdf:Bag>
        </dc:subject>
      </cc:Work>
      <cc:License
         rdf:about="http://creativecommons.org/licenses/publicdomain/">
        <cc:permits
           rdf:resource="http://creativecommons.org/ns#Reproduction" />
        <cc:permits
           rdf:resource="http://creativecommons.org/ns#Distribution" />
        <cc:permits
           rdf:resource="http://creativecommons.org/ns#DerivativeWorks" />
      </cc:License>
    </rdf:RDF>
  </metadata>
</svg>
