<?xml version="1.0" encoding="UTF-8" standalone="no"?>
<!-- Created with Inkscape (http://www.inkscape.org/) -->

<svg
   xmlns:dc="http://purl.org/dc/elements/1.1/"
   xmlns:cc="http://creativecommons.org/ns#"
   xmlns:rdf="http://www.w3.org/1999/02/22-rdf-syntax-ns#"
   xmlns:svg="http://www.w3.org/2000/svg"
   xmlns="http://www.w3.org/2000/svg"
   xmlns:sodipodi="http://sodipodi.sourceforge.net/DTD/sodipodi-0.dtd"
   xmlns:inkscape="http://www.inkscape.org/namespaces/inkscape"
   id="svg2"
   sodipodi:modified="TRUE"
   sodipodi:docname="noonespillow-Man-in-Chair.svg"
   inkscape:export-filename="E:\Graphic Design\guyinchair_1.png"
   viewBox="0 0 606.05 828.32"
   sodipodi:version="0.32"
   inkscape:export-xdpi="37.743835"
   version="1.0"
   inkscape:output_extension="org.inkscape.output.svg.inkscape"
   inkscape:export-ydpi="37.743835"
   inkscape:version="0.92.1 r15371"
   width="646.45331"
   height="883.54132">
  <defs
     id="defs14" />
  <sodipodi:namedview
     id="base"
     bordercolor="#666666"
     inkscape:pageshadow="2"
     guidetolerance="10"
     pagecolor="#ffffff"
     gridtolerance="10000"
     inkscape:window-height="742"
     inkscape:zoom="0.49497475"
     objecttolerance="10"
     borderopacity="1.0"
     inkscape:current-layer="layer1"
     inkscape:cx="469.67739"
     inkscape:cy="420.4172"
     inkscape:window-y="-4"
     inkscape:window-x="-4"
     inkscape:window-width="1024"
     inkscape:pageopacity="0.0"
     inkscape:document-units="px"
     showgrid="false" />
  <g
     id="layer1"
     inkscape:label="Layer 1"
     inkscape:groupmode="layer"
     transform="translate(-8.0752,-9.8848)">
    <rect
       id="rect3133"
       style="fill:#d87c08"
       transform="matrix(0.28047,0.95986,-0.97111,0.23861,0,0)"
       rx="44.397999"
       ry="44.410999"
       height="88.417999"
       width="369.14001"
       y="-368.57999"
       x="582.31" />
    <rect
       id="rect3135"
       style="fill:#d87c08"
       rx="44.446999"
       ry="44.446999"
       height="88.892998"
       width="400.01999"
       y="480.72"
       x="133.64999" />
    <rect
       id="rect3155"
       style="fill:#d87c08"
       transform="rotate(-90)"
       rx="44.446999"
       ry="44.446999"
       height="88.892998"
       width="400.01999"
       y="131.63"
       x="-567.59998" />
    <path
       id="path3157"
       sodipodi:rx="66.670067"
       sodipodi:ry="66.670067"
       style="fill:#d87c08"
       sodipodi:type="arc"
       d="m 139.78421,236.16004 a 66.670067,66.670067 0 0 1 66.28628,66.95634 66.670067,66.670067 0 0 1 -66.86101,66.38242 66.670067,66.670067 0 0 1 -66.478431,-66.76557 66.670067,66.670067 0 0 1 66.669981,-66.57429"
       sodipodi:open="true"
       transform="matrix(1.6364,0,0,1.6364,-50.324,-376.56)"
       sodipodi:cy="302.82901"
       sodipodi:cx="139.40105"
       sodipodi:end="4.7123887"
       sodipodi:start="4.7181361" />
    <rect
       id="rect3159"
       style="fill:#d87c08"
       rx="44.446999"
       ry="44.446999"
       height="88.892998"
       width="400.01999"
       y="277.87"
       x="132.22" />
    <path
       id="rect3161"
       style="fill:#d87c08"
       d="M 44.438,545.47 C 19.814,545.47 0,565.31 0,589.94 v 193.94 c 0,24.62 19.814,44.43 44.438,44.43 h 14.156 v -44.43 -125.26 -22 c 0,-24.62 19.814,-44.43 44.436,-44.43 h 224.25 c 24.62,0 44.47,19.81 44.47,44.43 v 22 125.26 44.43 h 12.13 c 24.62,0 44.43,-19.81 44.43,-44.43 V 589.94 c 0,-24.63 -19.81,-44.47 -44.43,-44.47 H 44.44 Z"
       transform="translate(8.0752,9.8848)"
       inkscape:connector-curvature="0" />
    <path
       id="rect5101"
       style="fill:#d87c08"
       d="m 52.231,195.39 c -24.46,0 -44.156,19.81 -44.156,44.44 l 2e-4,356.81 c 0,24.62 19.696,44.44 44.156,44.44 5.341,0 10.458,-0.96 15.188,-2.69 2.854,-15.55 13.727,-28.21 28.219,-33.56 0.488,-2.66 0.75,-5.39 0.75,-8.19 V 239.83 c 0,-24.63 -19.696,-44.44 -44.157,-44.44 z"
       inkscape:connector-curvature="0" />
  </g>
  <metadata
     id="metadata11">
    <rdf:RDF>
      <cc:Work>
        <dc:format>image/svg+xml</dc:format>
        <dc:type
           rdf:resource="http://purl.org/dc/dcmitype/StillImage" />
        <cc:license
           rdf:resource="http://creativecommons.org/licenses/publicdomain/" />
        <dc:publisher>
          <cc:Agent
             rdf:about="http://openclipart.org/">
            <dc:title>Openclipart</dc:title>
          </cc:Agent>
        </dc:publisher>
        <dc:title>Man in Chair</dc:title>
        <dc:date>2007-04-07T13:08:45</dc:date>
        <dc:description />
        <dc:source>https://openclipart.org/detail/3817/man-in-chair-by-noonespillow</dc:source>
        <dc:creator>
          <cc:Agent>
            <dc:title>noonespillow</dc:title>
          </cc:Agent>
        </dc:creator>
        <dc:subject>
          <rdf:Bag>
            <rdf:li>man chair</rdf:li>
            <rdf:li>silhouette</rdf:li>
          </rdf:Bag>
        </dc:subject>
      </cc:Work>
      <cc:License
         rdf:about="http://creativecommons.org/licenses/publicdomain/">
        <cc:permits
           rdf:resource="http://creativecommons.org/ns#Reproduction" />
        <cc:permits
           rdf:resource="http://creativecommons.org/ns#Distribution" />
        <cc:permits
           rdf:resource="http://creativecommons.org/ns#DerivativeWorks" />
      </cc:License>
    </rdf:RDF>
  </metadata>
</svg>
