<?xml version="1.0" encoding="UTF-8" standalone="no"?>
<!-- Created with Inkscape (http://www.inkscape.org/) -->

<svg
   xmlns:dc="http://purl.org/dc/elements/1.1/"
   xmlns:cc="http://creativecommons.org/ns#"
   xmlns:rdf="http://www.w3.org/1999/02/22-rdf-syntax-ns#"
   xmlns:svg="http://www.w3.org/2000/svg"
   xmlns="http://www.w3.org/2000/svg"
   xmlns:sodipodi="http://sodipodi.sourceforge.net/DTD/sodipodi-0.dtd"
   xmlns:inkscape="http://www.inkscape.org/namespaces/inkscape"
   width="480"
   height="288"
   id="svg2"
   version="1.1"
   inkscape:version="0.92.1 r15371"
   sodipodi:docname="jisdu.svg"
   viewBox="0 0 450 270"
   inkscape:export-filename="jisdu.png"
   inkscape:export-xdpi="300"
   inkscape:export-ydpi="300">
  <defs
     id="defs4" />
  <sodipodi:namedview
     id="base"
     pagecolor="#ffffff"
     bordercolor="#666666"
     borderopacity="1.0"
     inkscape:pageopacity="0.0"
     inkscape:pageshadow="2"
     inkscape:zoom="1.0609375"
     inkscape:cx="192.6729"
     inkscape:cy="2.4249523"
     inkscape:document-units="px"
     inkscape:current-layer="layer1"
     showgrid="false"
     units="px"
     inkscape:window-width="1920"
     inkscape:window-height="1003"
     inkscape:window-x="0"
     inkscape:window-y="25"
     inkscape:window-maximized="1"
     borderlayer="true"
     showguides="true" />
  <metadata
     id="metadata7">
    <rdf:RDF>
      <cc:Work
         rdf:about="">
        <dc:format>image/svg+xml</dc:format>
        <dc:type
           rdf:resource="http://purl.org/dc/dcmitype/StillImage" />
        <dc:title />
      </cc:Work>
    </rdf:RDF>
  </metadata>
  <g
     inkscape:label="Layer 1"
     inkscape:groupmode="layer"
     id="layer1"
     transform="translate(0,-782.36218)">
    <rect
       style="opacity:1;fill:#ffffff;fill-opacity:1;fill-rule:nonzero;stroke:#000000;stroke-width:4.04577875;stroke-linecap:round;stroke-linejoin:round;stroke-miterlimit:4;stroke-dasharray:none;stroke-dashoffset:0;stroke-opacity:1"
       id="rect3749"
       width="445.95422"
       height="265.95422"
       x="2.0228882"
       y="784.38507" />
    <g
       id="layer1-9"
       inkscape:label="Layer 1"
       transform="translate(-35.756307,507.10901)">
      <g
         id="Layer_1"
         transform="translate(-244.49951,955.86218)" />
    </g>
    <g
       id="g3341"
       transform="translate(-2014.6385,527.53864)"
       style="stroke:#000000">
      <path
         style="fill:#373536;stroke:#000000"
         inkscape:connector-curvature="0"
         d="m 1113.83,192.79 c 8.17,-3.85 17.6001,-6.28 26.5601,-4.03 4.97,1.19 9.42,4.45 11.79,9 3.4199,6.59 5.1899,13.89 6.2999,21.18 11.9301,-6.01 25.05,-10.17 38.52,-10.07 13.6,-0.18 26.89,3.93 38.92,10.04 1.39,-7.83 3.1499,-15.85 7.33,-22.72 4.77,-7.29 14.34,-9.17 22.46,-8.01 14.8101,2.27 28.29,10.96 37.41,22.72 4.96,6.61 8.8,15.02 7.13,23.44 -0.78,4.41 -3.58,8.12 -6.9,10.99 -6.0599,5.43 -13.1,9.65 -20.4299,13.12 23.09,28.06 41.1899,59.97 55.26,93.41 8.2599,19.86 15.38,40.34 19.23,61.55 0.85,4.04 0.64,8.19 0.6899,12.3 6.3301,-0.03 12.67,-0.16 19,0.08 -0.01,0.79 -0.05,2.39 -0.06,3.19 -6.3401,0.06 -12.6801,0 -19.01,0.04 -0.06,3.26 0.2899,6.58 -0.4,9.79 -1.1,3.64 -2.84,7.05 -4.3101,10.54 6.5,2.06 13.1001,3.8 19.63,5.81 1.87,0.22 1.0701,2.37 1.1101,3.6 -7.4301,-1.72 -14.6201,-4.31 -22.02,-6.17 -2.1901,5.85 -5.48,11.19 -9.6901,15.8 -13.41,15.4 -31.4,26.05 -50.09,33.81 -37.02,14.99 -77.71,19.46 -117.36,16.62 -25.6901,-2.19 -51.28,-7.52 -75.0601,-17.64 -13.84,-5.96 -27.11,-13.52 -38.46,-23.5 -6.98,-6.25 -13.5699,-13.26 -17.41,-21.92 -3.71,0.98 -7.39,2.04 -11.08,3.04 -0.1,-0.68 -0.29,-2.05 -0.39,-2.73 2.8,-1.97 6.49,-2.2 9.71,-3.27 -1.58,-3.79 -3.9399,-7.27 -4.75,-11.35 -1.1599,-4.05 -1.12,-8.28 -1.09,-12.44 -6.34,-0.07 -12.68,0.16 -19.01,-0.13 -0.02,-0.73 -0.05,-2.19 -0.07,-2.93 6.37,-0.6 12.78,-0.13 19.17,-0.28 -0.6699,-10.94 2.4501,-21.6 5.15,-32.07 7.3,-25.93 17.79,-50.89 30.24,-74.75 11.23,-21.27 24.16,-41.74 39.6801,-60.15 -8.62,-4.76 -17.64,-9.52 -24.04,-17.22 -5.0599,-6.24 -4.39,-15.24 -1.14,-22.15 5.4699,-11.84 15.9,-20.88 27.48,-26.54 m 2.15,7.19 c -9.95,5.17 -19.1,13.07 -23.4199,23.64 -2.1101,4.8 -2.0901,11.05 2.0399,14.79 8.28,7.92 18.6901,13.46 29.5601,16.94 -28.91,32.26 -50.03,70.83 -65.7201,111.03 -4.4299,11.98 -8.86,24.07 -11.47,36.6 6.42,-11.75 16.11,-21.38 27,-29.04 16.17,-11.34 34.6901,-18.96 53.64,-24.24 24.17,-6.65 49.33,-9.43 74.37,-8.95 21.24,0.22 42.4501,3.02 63,8.42 19.04,5.17 37.6801,12.59 54.0601,23.74 11.61,7.85 21.75,17.98 28.72,30.19 -4.99,-19.99 -12.24,-39.36 -20.65,-58.15 -14.7,-32.28 -32.91,-63.33 -56.95,-89.58 8.9,-2.65 17.23,-7.04 24.6699,-12.57 2.4,-1.86 4.8301,-3.79 6.63,-6.26 2.7001,-3.89 1.9501,-9.06 0.37,-13.24 -4.1799,-9.81 -12.5199,-17.27 -21.6499,-22.44 -6.9,-3.75 -14.8601,-6.46 -22.79,-5.24 -3.9301,0.51 -7.5601,2.98 -9.12,6.67 -4.0801,9.03 -5.7001,19 -5.9301,28.85 -8.5399,-5.09 -17.37,-9.96 -27.08,-12.42 -12.1,-3.42 -25.15,-3.29 -37.1901,0.32 -9.3099,2.52 -17.7999,7.2 -25.97,12.2 -0.1,-9.52 -1.77,-19.12 -5.39,-27.95 -1.34,-3.45 -4.1499,-6.35 -7.7999,-7.25 -7.79,-2.04 -15.93,0.49 -22.93,3.94 m 60.7001,143.9 c -23.2201,1.65 -46.3101,6.31 -68.0701,14.66 -18.28,7.17 -36.01,17.02 -49.4399,31.6 -8.99,9.71 -15.3401,22.17 -16.14,35.53 15.97,0.08 31.95,-0.23 47.9099,0.15 -0.01,0.78 -0.03,2.33 -0.04,3.11 -15.97,0.21 -31.9401,-0.06 -47.91,0.14 0.52,7.53 2.4401,14.94 5.9301,21.65 18.46,-5.23 36.7799,-11.04 55.33,-15.97 0.2,1.58 0.34,3.73 -1.8199,3.77 -17.2301,5.2 -34.63,9.9 -51.79,15.34 5.67,9.21 13.38,17.02 22.01,23.48 13.23,9.87 28.33,17 43.9,22.31 22.0399,7.49 45.24,11.19 68.4399,12.34 24.87,0.97 49.92,-1.06 74.13,-6.9 20.09,-4.95 39.8199,-12.31 57.12,-23.8 11.85,-7.85 22.52,-17.93 29.36,-30.52 -14.33,-4.67 -28.98,-8.32 -43.2999,-13.02 0.02,-0.69 0.08,-2.06 0.11,-2.75 2.99,0.11 5.8099,1.22 8.6799,2.03 11.9701,3.55 23.98,7.02 35.9701,10.55 2.5699,-5.86 4.08,-12.17 4.33,-18.56 -15.9,-0.03 -31.8,-0.03 -47.6901,0 -0.03,-0.82 -0.08,-2.47 -0.1,-3.3 15.85,-0.1 31.7001,-0.13 47.55,0.03 0.01,-9.65 -3.8,-18.97 -9.04,-26.93 -8.54,-12.7 -20.91,-22.33 -34.09,-29.85 -17.25,-9.8 -36.28,-16.11 -55.61,-20.29 -24.8501,-5.09 -50.4302,-6.82 -75.7301,-4.8 z"
         id="path3343" />
      <path
         style="fill:#ffffff;stroke:#000000"
         inkscape:connector-curvature="0"
         d="m 1115.98,199.98 c 7,-3.45 15.14,-5.98 22.9301,-3.94 3.65,0.9 6.46,3.8 7.7999,7.25 3.62,8.83 5.29,18.43 5.39,27.95 8.17,-5 16.66,-9.68 25.97,-12.2 12.04,-3.61 25.0901,-3.74 37.1901,-0.32 9.71,2.46 18.54,7.33 27.08,12.42 0.23,-9.85 1.85,-19.82 5.9301,-28.85 1.5599,-3.69 5.1899,-6.16 9.12,-6.67 7.9299,-1.22 15.89,1.49 22.79,5.24 9.13,5.17 17.47,12.63 21.6499,22.44 1.5801,4.18 2.3301,9.35 -0.37,13.24 -1.7999,2.47 -4.23,4.4 -6.63,6.26 -7.4399,5.53 -15.7699,9.92 -24.6699,12.57 24.0399,26.25 42.25,57.3 56.95,89.58 8.41,18.79 15.66,38.16 20.65,58.15 -6.97,-12.21 -17.11,-22.34 -28.72,-30.19 -16.38,-11.15 -35.02,-18.57 -54.0601,-23.74 -20.5499,-5.4 -41.76,-8.2 -63,-8.42 -25.04,-0.48 -50.2,2.3 -74.37,8.95 -18.95,5.28 -37.47,12.9 -53.64,24.24 -10.89,7.66 -20.58,17.29 -27,29.04 2.61,-12.53 7.04,-24.62 11.47,-36.6 15.6901,-40.2 36.8101,-78.77 65.7201,-111.03 -10.87,-3.48 -21.28,-9.02 -29.5601,-16.94 -4.13,-3.74 -4.15,-9.99 -2.0399,-14.79 4.3198,-10.57 13.4698,-18.47 23.4198,-23.64 m 10.36,10.32 c -8.2799,1.7 -16.48,8 -17.88,16.7 -0.5299,5.06 4.28,8.09 7.8101,10.72 5.52,3.61 11.86,7.44 18.72,6.67 2.89,-1.48 5.71,-4.02 5.85,-7.51 0.8201,-7.69 -0.74,-15.65 -4.09,-22.62 -1.8501,-3.8 -6.6101,-4.71 -10.4101,-3.96 m 136.06,0.21 c -2.72,0.68 -4.64,2.98 -5.53,5.54 -2.47,6.51 -4.15,13.57 -3.3199,20.56 0.34,4.48 4.7799,8.83 9.4299,7.87 6.64,-1.05 12.5601,-4.66 17.8301,-8.68 2.1599,-1.83 4.8099,-3.82 5.12,-6.87 0.6,-5.54 -3.2201,-10.34 -7.2301,-13.67 -4.5199,-3.51 -10.5101,-6.2 -16.3,-4.75 m -116.0801,86.64 c -4.49,1.59 -6.5199,6.52 -7.23,10.88 -0.73,5.7 0.03,12.27 4.3301,16.49 2.59,2.7 7.25,2.33 9.5499,-0.56 4.5801,-5.34 4.91,-13.25 2.8401,-19.7 -1.34,-3.89 -4.8799,-8.32 -9.4901,-7.11 m 98.0801,0.23 c -3.29,1.35 -5.05,4.75 -6.0601,7.95 -1.7799,6.29 -1.12,13.87 3.41,18.87 2.4,2.82 7.13,2.89 9.5601,0.07 5.3999,-6.03 5.6799,-15.57 1.96,-22.53 -1.5801,-3.12 -5.29,-5.93 -8.87,-4.36 z"
         id="path3345" />
      <path
         style="fill:#373536;stroke:#000000"
         inkscape:connector-curvature="0"
         d="m 1126.34,210.3 c 3.8,-0.75 8.5601,0.16 10.41,3.96 3.35,6.97 4.91,14.93 4.09,22.62 -0.14,3.49 -2.96,6.03 -5.85,7.51 -6.86,0.77 -13.2,-3.06 -18.72,-6.67 -3.53,-2.63 -8.34,-5.66 -7.8101,-10.72 1.4001,-8.7 9.6002,-15 17.8801,-16.7 m -9.46,14.66 c -0.61,1.02 -1.63,2.47 -0.38,3.47 3.6899,3.58 8.29,6.18 13.0699,8.03 1.3301,0.39 3.8501,1.46 4.0601,-0.81 0.55,-6.28 -1,-12.6 -3.51,-18.33 -5.3001,0.32 -10.4301,3.11 -13.24,7.64 z"
         id="path3347" />
      <path
         style="fill:#373536;stroke:#000000"
         inkscape:connector-curvature="0"
         d="m 1262.4,210.51 c 5.7899,-1.45 11.78,1.24 16.2999,4.75 4.01,3.33 7.8301,8.13 7.2301,13.67 -0.3101,3.05 -2.9601,5.04 -5.12,6.87 -5.27,4.02 -11.1901,7.63 -17.8301,8.68 -4.65,0.96 -9.09,-3.39 -9.4299,-7.87 -0.8301,-6.99 0.85,-14.05 3.3199,-20.56 0.8901,-2.56 2.8102,-4.86 5.5301,-5.54 m 1.6601,7 c -2.2301,6.24 -4.05,12.91 -2.9401,19.58 5.65,-0.35 10.55,-3.73 15,-6.95 0.92,-1.04 3.3101,-2 2.3,-3.7 -2.6001,-5.32 -8.37,-9.13 -14.3599,-8.93 z"
         id="path3349" />
      <path
         style="fill:#ffffff;stroke:#000000"
         inkscape:connector-curvature="0"
         d="m 1116.88,224.96 c 2.8099,-4.53 7.9399,-7.32 13.24,-7.64 2.51,5.73 4.0601,12.05 3.51,18.33 -0.21,2.27 -2.73,1.2 -4.0601,0.81 -4.7799,-1.85 -9.38,-4.45 -13.0699,-8.03 -1.25,-1 -0.23,-2.45 0.38,-3.47 z"
         id="path3351" />
      <path
         style="fill:#ffffff;stroke:#000000"
         inkscape:connector-curvature="0"
         d="m 1264.0601,217.51 c 5.99,-0.2 11.7599,3.61 14.36,8.93 1.01,1.7 -1.38,2.66 -2.3,3.7 -4.45,3.22 -9.35,6.6 -15,6.95 -1.1101,-6.67 0.7099,-13.34 2.94,-19.58 z"
         id="path3353" />
      <path
         style="fill:#373536;stroke:#000000"
         inkscape:connector-curvature="0"
         d="m 1146.3199,297.15 c 4.6101,-1.21 8.15,3.22 9.4901,7.11 2.0699,6.45 1.74,14.36 -2.8401,19.7 -2.2999,2.89 -6.96,3.26 -9.5499,0.56 -4.3,-4.22 -5.0601,-10.79 -4.3301,-16.49 0.7101,-4.36 2.7401,-9.29 7.23,-10.88 z"
         id="path3355" />
      <path
         style="fill:#373536;stroke:#000000"
         inkscape:connector-curvature="0"
         d="m 1244.4,297.38 c 3.58,-1.57 7.2899,1.24 8.87,4.36 3.72,6.96 3.4399,16.5 -1.96,22.53 -2.4301,2.82 -7.16,2.75 -9.5601,-0.07 -4.53,-5 -5.1899,-12.58 -3.41,-18.87 1.0101,-3.2 2.7701,-6.6 6.0601,-7.95 z"
         id="path3357" />
      <path
         style="fill:#ffffff;stroke:#000000"
         inkscape:connector-curvature="0"
         d="m 1176.6801,343.88 c 25.2999,-2.02 50.88,-0.29 75.73,4.8 19.33,4.18 38.36,10.49 55.61,20.29 13.1799,7.52 25.5499,17.15 34.09,29.85 5.24,7.96 9.05,17.28 9.04,26.93 -15.85,-0.16 -31.7001,-0.13 -47.55,-0.03 0.02,0.83 0.07,2.48 0.1,3.3 15.89,-0.03 31.79,-0.03 47.6901,0 -0.25,6.39 -1.76,12.7 -4.33,18.56 -11.9901,-3.53 -24,-7 -35.9701,-10.55 -2.87,-0.81 -5.6899,-1.92 -8.6799,-2.03 -0.03,0.69 -0.09,2.06 -0.11,2.75 14.3199,4.7 28.97,8.35 43.2999,13.02 -6.84,12.59 -17.51,22.67 -29.36,30.52 -17.3,11.49 -37.03,18.85 -57.12,23.8 -24.21,5.84 -49.26,7.87 -74.13,6.9 -23.2,-1.15 -46.4,-4.85 -68.4399,-12.34 -15.5701,-5.31 -30.67,-12.44 -43.9,-22.31 -8.63,-6.46 -16.34,-14.27 -22.01,-23.48 17.16,-5.44 34.5599,-10.14 51.79,-15.34 2.1599,-0.04 2.0199,-2.19 1.8199,-3.77 -18.55,4.93 -36.87,10.74 -55.33,15.97 -3.49,-6.71 -5.41,-14.12 -5.9301,-21.65 15.97,-0.2 31.9401,0.07 47.91,-0.14 0.01,-0.78 0.03,-2.33 0.04,-3.11 -15.96,-0.38 -31.9399,-0.07 -47.9099,-0.15 0.7999,-13.36 7.15,-25.82 16.14,-35.53 13.4299,-14.58 31.1599,-24.43 49.4399,-31.6 21.7601,-8.35 44.8501,-13.01 68.0702,-14.66 M 1159.99,355.1 c -3.91,1.32 -8.4299,2.59 -10.8,6.23 -0.9399,2.89 1.16,5.53 2.64,7.82 10.4501,13.6 26.7201,22.58 43.8401,24.02 -0.15,18.68 -0.08,37.36 -0.03,56.04 0.84,0.01 2.52,0.03 3.37,0.03 0,-18.72 -0.05,-37.44 0.02,-56.16 15.7999,-1.21 30.7,-9.15 41.1899,-20.91 2.3,-2.71 4.6801,-5.63 5.47,-9.18 -0.4099,-3.58 -4.2699,-5.13 -7.12,-6.47 -10.38,-3.9 -21.5699,-5.02 -32.5699,-5.59 -15.4101,-0.43 -31.0901,-0.08 -46.0101,4.17 z"
         id="path3359" />
      <path
         style="fill:#373536;stroke:#000000"
         inkscape:connector-curvature="0"
         d="m 1159.99,355.1 c 14.92,-4.25 30.6,-4.6 46.01,-4.17 11,0.57 22.1899,1.69 32.5699,5.59 2.8501,1.34 6.7101,2.89 7.12,6.47 -0.7899,3.55 -3.1699,6.47 -5.47,9.18 -10.49,11.76 -25.39,19.7 -41.1899,20.91 -0.07,18.72 -0.02,37.44 -0.02,56.16 -0.85,0 -2.53,-0.02 -3.37,-0.03 -0.05,-18.68 -0.12,-37.36 0.03,-56.04 -17.12,-1.44 -33.39,-10.42 -43.8401,-24.02 -1.48,-2.29 -3.58,-4.93 -2.64,-7.82 2.3702,-3.64 6.8901,-4.91 10.8001,-6.23 z"
         id="path3361" />
    </g>
    <g
       id="g3363"
       transform="translate(-2014.6385,527.53864)"
       style="stroke:#000000">
      <path
         style="fill:#373536;stroke:#000000"
         inkscape:connector-curvature="0"
         d="m 1675.3101,129.23 c 26.1,-1.57 52.5399,1.68 77.2999,10.21 31.89,10.77 60.78,29.67 84.36,53.59 27.16,27.6 47.4,61.77 59.5,98.5 13.8,41.57 17.16,86.42 10.66,129.68 -6.46,42.27 -22.86,83.15 -48.42,117.51 -22.22,29.9301 -51.47,54.89 -85.34,70.66 -40.33,19.01 -87.1,24.07 -130.5,13.71 -34.75,-8.06 -67,-25.71 -93.36,-49.63 -26.3101,-23.75 -47.01,-53.5 -60.99,-86.03 -34.63,-80.11 -28.6,-177.04 17.54,-251.39 19.12,-30.91 45.0599,-57.83 76.12,-76.86 28.03,-17.29 60.23,-27.84 93.1301,-29.95 m -2.7701,7.63 c -41.75,3.32 -81.8201,21.06 -113.4601,48.29 -25.9199,22.1 -46.5199,50.16 -60.87,81 -36.3199,78.17 -32.12,174.24 12.42,248.25 19.55,32.68 46.97,60.88 80,80 36.34,21.18 79.66,30.54 121.4399,25.05 38.3,-4.6 74.7201,-21.42 104.13,-46.21 26.87,-22.54 48.1801,-51.43 62.77,-83.26 35.63,-77.52 31.51,-172.39 -12.11,-245.91 -18.99,-32.15 -45.5,-60.08 -77.5499,-79.39 -34.74,-21.2 -76.1799,-31.26 -116.7699,-27.82 z"
         id="path3365" />
      <path
         style="fill:#ffffff;stroke:#000000"
         inkscape:connector-curvature="0"
         d="m 1672.54,136.86 c 40.59,-3.44 82.0299,6.62 116.77,27.82 32.0499,19.31 58.5599,47.24 77.5499,79.39 43.62,73.52 47.74,168.39 12.11,245.91 -14.59,31.83 -35.9,60.72 -62.77,83.26 -29.4099,24.79 -65.83,41.61 -104.13,46.21 -41.7799,5.49 -85.1,-3.87 -121.4399,-25.05 -33.03,-19.12 -60.45,-47.32 -80,-80 -44.54,-74.01 -48.74,-170.08 -12.42,-248.25 14.3501,-30.84 34.9501,-58.9 60.87,-81 31.64,-27.23 71.71,-44.97 113.46,-48.29 m -58.16,57.53 c -11.13,3.47 -21.17,10.46 -28.2,19.76 -3.92,5.35 -7.13,11.93 -6.0801,18.73 0.4301,3.52 2.72,6.43 5.3101,8.71 7.47,6.63 16.39,11.43 25.65,15.08 -8.4501,9.16 -15.9,19.2 -22.91,29.49 -23.2101,34.5 -40.52,72.92 -51.03,113.15 -2.65,10.37 -6.17,20.84 -5.27,31.7 1.02,15.37 9.5,29.26 20.4,39.74 13.73,13.32 30.98,22.42 48.75,29.15 39.3,14.43 82.2,17.61 123.59,12.46 24.2001,-3.29 48.1901,-9.65 70.03,-20.76 14.2,-7.33 27.65,-16.77 37.58,-29.44 10.4801,-12.95 15.42,-30.54 11.4401,-46.91 -3.21,-20.63 -10.29,-40.42 -18.15,-59.69 -14.9,-35.69 -34.27,-69.81 -59.6899,-99.1 8.26,-2.96 16.0299,-7.27 22.9399,-12.69 3.3,-2.69 6.88,-5.75 7.75,-10.15 1.28,-6.16 -1.23,-12.41 -4.58,-17.49 -5.3301,-8 -13.02,-14.27 -21.5701,-18.57 -6.85,-3.27 -14.5599,-5.64 -22.2,-4.41 -4.4401,0.65 -8.67,3.29 -10.64,7.4 -4.0601,8.18 -5.4399,17.33 -6.48,26.31 -9.9501,-6 -20.88,-10.6 -32.4301,-12.3 -18.49,-3.02 -37.2899,2.76 -53.0299,12.34 -0.7201,-8.73 -2.29,-17.53 -5.9301,-25.55 -1.46,-3.36 -4.25,-6.08 -7.71,-7.29 -5.6499,-2.06 -11.8899,-1.31 -17.5399,0.33 z"
         id="path3367" />
      <path
         style="fill:#373536;stroke:#000000"
         inkscape:connector-curvature="0"
         d="m 1614.38,194.39 c 5.65,-1.64 11.89,-2.39 17.54,-0.33 3.46,1.21 6.25,3.93 7.71,7.29 3.64,8.02 5.21,16.82 5.9301,25.55 15.74,-9.58 34.5399,-15.36 53.0299,-12.34 11.55,1.7 22.48,6.3 32.4301,12.3 1.04,-8.98 2.4199,-18.13 6.48,-26.31 1.97,-4.11 6.2,-6.75 10.64,-7.4 7.64,-1.23 15.35,1.14 22.2,4.41 8.55,4.3 16.24,10.57 21.5701,18.57 3.35,5.08 5.86,11.33 4.58,17.49 -0.87,4.4 -4.45,7.46 -7.75,10.15 -6.91,5.42 -14.6799,9.73 -22.9399,12.69 25.4199,29.29 44.7899,63.41 59.6899,99.1 7.86,19.27 14.9401,39.06 18.15,59.69 3.98,16.37 -0.96,33.96 -11.4401,46.91 -9.9299,12.67 -23.38,22.11 -37.58,29.44 -21.84,11.11 -45.83,17.47 -70.03,20.76 -41.39,5.15 -84.2899,1.97 -123.59,-12.46 -17.77,-6.73 -35.02,-15.83 -48.75,-29.15 -10.9,-10.48 -19.38,-24.37 -20.4,-39.74 -0.9,-10.86 2.62,-21.33 5.27,-31.7 10.51,-40.23 27.8199,-78.65 51.03,-113.15 7.01,-10.29 14.46,-20.33 22.91,-29.49 -9.26,-3.65 -18.1801,-8.45 -25.65,-15.08 -2.5901,-2.28 -4.88,-5.19 -5.3101,-8.71 -1.0499,-6.8 2.16,-13.38 6.0801,-18.73 7.0299,-9.3 17.0699,-16.29 28.1999,-19.76 m 0.33,2.46 c -9.6899,3.12 -18.45,9.08 -25.01,16.84 -3.83,4.63 -7.09,10.17 -7.3999,16.3 -0.26,3.9 1.9399,7.43 4.85,9.85 8.15,7.08 17.87,12.27 28.14,15.55 -23.9401,26.48 -42.3101,57.52 -56.98,89.94 -8.25,18.44 -15.3701,37.46 -20.25,57.08 3.2999,-4.48 6.0499,-9.38 9.9199,-13.43 15.97,-17.55 37.8101,-28.53 60.01,-36.03 25.12,-8.26 51.6,-12.13 78.02,-12.24 23.5699,-0.31 47.1799,2.45 69.98,8.43 18.37,4.97 36.33,12.04 52.29,22.52 12.39,7.99 23.13,18.57 30.59,31.34 -5.38,-21.47 -13.34,-42.22 -22.59,-62.3 -14.37,-30.62 -31.87,-60.16 -54.88,-85.12 11.03,-4.07 22.0399,-9.34 30.2899,-17.94 4,-4.37 2.9301,-11 0.5601,-15.91 -4.67,-9.51 -13.09,-16.73 -22.34,-21.61 -6.8,-3.45 -14.64,-5.89 -22.29,-4.35 -3.9399,0.72 -7.2,3.62 -8.61,7.32 -3.77,8.84 -5.3201,18.51 -5.64,28.07 -12.4301,-7.9 -26.41,-14.07 -41.3,-14.83 -17.45,-1.15 -34.3199,5.56 -48.75,14.87 -0.13,-8.31 -1.5599,-16.58 -4.1499,-24.47 -1.36,-3.84 -3.0901,-8.15 -7.0701,-9.92 -5.49,-2.46 -11.7899,-1.57 -17.39,0.04 m -12.1499,160.63 c -17.65,6.57 -34.7101,15.59 -48.42,28.67 -10.85,10.37 -19.2001,24.22 -19.98,39.49 15.97,0.13 31.9399,-0.18 47.9,0.16 -0.03,0.79 -0.08,2.36 -0.1101,3.15 -15.9399,0.19 -31.8899,-0.11 -47.83,0.15 0.38,7.54 2.51,14.92 5.91,21.65 18.4299,-5.3 36.76,-10.99 55.26,-16.02 0.46,1.64 0.3199,3.76 -1.8301,3.82 -17.23,5.17 -34.6,9.92 -51.76,15.32 5.74,9.14 13.37,16.98 22,23.41 15.9401,11.93 34.53,19.85 53.5601,25.39 41.1899,11.54 85.1799,12.5 127.01,3.8 21.25,-4.64 42.1699,-11.94 60.65,-23.59 12.8199,-8.12 24.5199,-18.64 31.7899,-32.13 -14.3999,-4.66 -29.1,-8.32 -43.46,-13.06 0.1899,-1 0.42,-1.99 0.6801,-2.98 14.7899,4.14 29.49,8.6 44.24,12.87 2.51,-5.87 4.1899,-12.15 4.2999,-18.56 -15.88,-0.03 -31.76,-0.03 -47.64,0 -0.02,-0.82 -0.07,-2.45 -0.09,-3.27 15.96,-0.39 31.9401,0.3 47.89,-0.34 -0.85,-10.46 -4.8199,-20.56 -11.0601,-28.97 -8.96,-12.17 -21.35,-21.38 -34.48,-28.62 -21.08,-11.43 -44.4399,-18.12 -68.0499,-21.74 -42.22,-6.1 -86.22,-3.19 -126.4798,11.4 z"
         id="path3369" />
      <path
         style="fill:#ffffff;stroke:#000000"
         inkscape:connector-curvature="0"
         d="m 1614.71,196.85 c 5.6001,-1.61 11.9,-2.5 17.39,-0.04 3.98,1.77 5.7101,6.08 7.0701,9.92 2.59,7.89 4.0199,16.16 4.1499,24.47 14.4301,-9.31 31.3,-16.02 48.75,-14.87 14.89,0.76 28.87,6.93 41.3,14.83 0.3199,-9.56 1.87,-19.23 5.64,-28.07 1.41,-3.7 4.67,-6.6 8.61,-7.32 7.65,-1.54 15.49,0.9 22.29,4.35 9.25,4.88 17.6699,12.1 22.34,21.61 2.37,4.91 3.4399,11.54 -0.5601,15.91 -8.25,8.6 -19.2599,13.87 -30.2899,17.94 23.01,24.96 40.51,54.5 54.88,85.12 9.25,20.08 17.21,40.83 22.59,62.3 -7.46,-12.77 -18.2,-23.35 -30.59,-31.34 -15.9601,-10.48 -33.92,-17.55 -52.29,-22.52 -22.8,-5.98 -46.41,-8.74 -69.98,-8.43 -26.42,0.11 -52.9,3.98 -78.02,12.24 -22.2,7.5 -44.04,18.48 -60.01,36.03 -3.87,4.05 -6.62,8.95 -9.9199,13.43 4.8799,-19.62 12,-38.64 20.25,-57.08 14.6699,-32.42 33.0399,-63.46 56.98,-89.94 -10.27,-3.28 -19.99,-8.47 -28.14,-15.55 -2.91,-2.42 -5.11,-5.95 -4.85,-9.85 0.3099,-6.13 3.5699,-11.67 7.3999,-16.3 6.56,-7.76 15.32,-13.72 25.01,-16.84 m 1.66,13.69 c -6.33,1.57 -12.09,5.75 -15.24,11.5 -1.84,3.41 -2.41,8.26 0.74,11.1 4.71,4.6 10.45,8.21 16.6801,10.39 3.24,1.01 7.47,2.09 10.11,-0.83 4.1,-2.85 3.62,-8.38 3.4099,-12.76 -0.6,-5.39 -1.74,-10.87 -4.23,-15.72 -2.07,-4.16 -7.43,-4.78 -11.47,-3.68 m 137.02,0.02 c -4.4,1.15 -5.74,6.05 -6.9501,9.85 -1.6299,6.41 -3.1299,13.47 -0.6899,19.87 1.7,2.22 4.15,4.66 7.23,4.3 7.05,-0.69 13.35,-4.52 18.87,-8.74 2.41,-2.01 5.42,-4.36 5.22,-7.86 -0.01,-5.94 -4.38,-10.87 -9.0499,-14.04 -4.2701,-2.71 -9.5701,-4.8 -14.6301,-3.38 m -116.06,86.65 c -3.13,1.03 -5.0199,4 -6.14,6.92 -2.09,6.09 -1.7899,13.35 1.91,18.78 1.77,2.77 5.48,4.48 8.61,2.91 3.63,-2.03 5.4,-6.17 6.0801,-10.1 0.72,-5.27 0.26,-11.1 -3.02,-15.49 -1.6801,-2.22 -4.6101,-4.02 -7.4401,-3.02 m 98.1001,0.22 c -4.3601,2.04 -6.2101,7.06 -6.65,11.57 -0.54,5.46 0.3199,11.74 4.5599,15.64 2.0601,2.06 5.53,2.33 7.91,0.63 3.3,-2.42 4.8199,-6.54 5.33,-10.47 0.5801,-5.13 -0.09,-10.82 -3.47,-14.93 -1.78,-2.2 -4.95,-3.82 -7.6799,-2.44 z"
         id="path3371" />
      <path
         style="fill:#373536;stroke:#000000"
         inkscape:connector-curvature="0"
         d="m 1616.37,210.54 c 4.04,-1.1 9.4,-0.48 11.47,3.68 2.49,4.85 3.63,10.33 4.23,15.72 0.2101,4.38 0.6901,9.91 -3.4099,12.76 -2.64,2.92 -6.87,1.84 -10.11,0.83 -6.2301,-2.18 -11.9701,-5.79 -16.6801,-10.39 -3.15,-2.84 -2.58,-7.69 -0.74,-11.1 3.15,-5.75 8.91,-9.93 15.24,-11.5 M 1603,227.82 c 3.4301,3.41 7.37,6.28 11.61,8.63 4.13,2.11 8.4,4.83 13.24,4.47 1.65,-9.32 -0.4199,-19.32 -4.61,-27.74 -8.76,0.51 -17.34,6.21 -20.24,14.64 z"
         id="path3373" />
      <path
         style="fill:#373536;stroke:#000000"
         inkscape:connector-curvature="0"
         d="m 1753.39,210.56 c 5.0599,-1.42 10.36,0.67 14.63,3.38 4.6699,3.17 9.04,8.1 9.0499,14.04 0.2001,3.5 -2.8099,5.85 -5.22,7.86 -5.52,4.22 -11.8199,8.05 -18.87,8.74 -3.08,0.36 -5.53,-2.08 -7.23,-4.3 -2.4399,-6.4 -0.9399,-13.46 0.6899,-19.87 1.2102,-3.8 2.5502,-8.7 6.9502,-9.85 m -0.41,2.13 c -3.97,8.36 -5.9,17.92 -5.0699,27.14 0.49,3.14 3.97,1.67 5.9199,0.94 7.37,-3.02 14.66,-6.99 20.15,-12.86 -0.2999,-2.48 -1.8099,-4.64 -3.33,-6.54 -4.42,-5.07 -10.8399,-8.67 -17.67,-8.68 z"
         id="path3375" />
      <path
         style="fill:#ffffff;stroke:#000000"
         inkscape:connector-curvature="0"
         d="m 1752.98,212.69 c 6.8301,0.01 13.25,3.61 17.67,8.68 1.52,1.9 3.03,4.06 3.33,6.54 -5.49,5.87 -12.78,9.84 -20.15,12.86 -1.95,0.73 -5.4299,2.2 -5.9199,-0.94 -0.8301,-9.22 1.0999,-18.78 5.0699,-27.14 z"
         id="path3377" />
      <path
         style="fill:#ffffff;stroke:#000000"
         inkscape:connector-curvature="0"
         d="m 1603,227.82 c 2.9,-8.43 11.48,-14.13 20.24,-14.64 4.1901,8.42 6.26,18.42 4.61,27.74 -4.84,0.36 -9.11,-2.36 -13.24,-4.47 -4.24,-2.35 -8.1799,-5.22 -11.61,-8.63 z"
         id="path3379" />
      <path
         style="fill:#373536;stroke:#000000"
         inkscape:connector-curvature="0"
         d="m 1637.33,297.21 c 2.8301,-1 5.76,0.8 7.4401,3.02 3.28,4.39 3.74,10.22 3.02,15.49 -0.6801,3.93 -2.4501,8.07 -6.0801,10.1 -3.13,1.57 -6.84,-0.14 -8.61,-2.91 -3.7,-5.43 -4,-12.69 -1.91,-18.78 1.1201,-2.92 3.01,-5.89 6.14,-6.92 z"
         id="path3381" />
      <path
         style="fill:#373536;stroke:#000000"
         inkscape:connector-curvature="0"
         d="m 1735.4301,297.43 c 2.73,-1.38 5.8999,0.24 7.6799,2.44 3.38,4.11 4.05,9.8 3.47,14.93 -0.51,3.93 -2.0299,8.05 -5.33,10.47 -2.38,1.7 -5.85,1.43 -7.91,-0.63 -4.24,-3.9 -5.1,-10.18 -4.5599,-15.64 0.4399,-4.51 2.2898,-9.53 6.65,-11.57 z"
         id="path3383" />
      <path
         style="fill:#ffffff;stroke:#000000"
         inkscape:connector-curvature="0"
         d="m 1602.5601,357.48 c 40.2599,-14.59 84.2599,-17.5 126.48,-11.4 23.61,3.62 46.97,10.31 68.0499,21.74 13.13,7.24 25.52,16.45 34.48,28.62 6.2401,8.41 10.2101,18.51 11.0601,28.97 -15.95,0.64 -31.9301,-0.05 -47.89,0.34 0.02,0.82 0.07,2.45 0.09,3.27 15.88,-0.03 31.76,-0.03 47.64,0 -0.11,6.41 -1.7899,12.69 -4.2999,18.56 -14.75,-4.27 -29.4501,-8.73 -44.24,-12.87 -0.26,0.99 -0.4901,1.98 -0.6801,2.98 14.36,4.74 29.0601,8.4 43.46,13.06 -7.27,13.49 -18.97,24.01 -31.7899,32.13 -18.4801,11.65 -39.4,18.95 -60.65,23.59 -41.8301,8.7 -85.8201,7.74 -127.01,-3.8 -19.03,-5.54 -37.62,-13.46 -53.5601,-25.39 -8.63,-6.43 -16.26,-14.27 -22,-23.41 17.16,-5.4 34.53,-10.15 51.76,-15.32 2.15,-0.06 2.29,-2.18 1.8301,-3.82 -18.5,5.03 -36.8301,10.72 -55.26,16.02 -3.4,-6.73 -5.53,-14.11 -5.91,-21.65 15.9401,-0.26 31.89,0.04 47.83,-0.15 0.03,-0.79 0.08,-2.36 0.1101,-3.15 -15.9601,-0.34 -31.9301,-0.03 -47.9,-0.16 0.7799,-15.27 9.13,-29.12 19.98,-39.49 13.7097,-13.08 30.7697,-22.1 48.4198,-28.67 m 54.0599,-3.76 c -5.42,1.28 -11.29,2.52 -15.47,6.44 -2.62,2.71 0.05,6.42 1.73,8.88 10.39,13.66 26.7,22.66 43.83,24.12 -0.08,18.69 -0.06,37.38 -0.01,56.07 0.8401,0 2.54,0 3.38,0 -0.01,-18.72 0.02,-37.44 -0.02,-56.15 15.5699,-1.15 30.24,-8.87 40.74,-20.3 2.4199,-2.9 5.22,-5.92 5.8999,-9.77 -0.1899,-3.68 -4.3099,-5.22 -7.1599,-6.56 -10.7101,-3.95 -22.23,-5.06 -33.55,-5.57 -13.1702,-0.28 -26.4701,-0.05 -39.3701,2.84 z"
         id="path3385" />
      <path
         style="fill:#373536;stroke:#000000"
         inkscape:connector-curvature="0"
         d="m 1656.62,353.72 c 12.9,-2.89 26.2,-3.12 39.37,-2.84 11.3201,0.51 22.84,1.62 33.55,5.57 2.85,1.34 6.97,2.88 7.1599,6.56 -0.6799,3.85 -3.48,6.87 -5.8999,9.77 -10.5,11.43 -25.17,19.15 -40.74,20.3 0.04,18.71 0.01,37.43 0.02,56.15 -0.84,0 -2.5399,0 -3.38,0 -0.05,-18.69 -0.07,-37.38 0.01,-56.07 -17.13,-1.46 -33.4399,-10.46 -43.83,-24.12 -1.6801,-2.46 -4.35,-6.17 -1.73,-8.88 4.1801,-3.92 10.0501,-5.16 15.4701,-6.44 z"
         id="path3387" />
    </g>
    <g
       id="g3389"
       transform="matrix(0.60102476,0,0,0.60102476,286.06526,1256.1857)"
       style="stroke:#000000">
      <path
         style="fill:#373536;stroke:#000000"
         inkscape:connector-curvature="0"
         d="m 166.58,198.58 c 9.12,-6.49 20.11,-11.23 31.5,-10.61 6.3,0.36 12.82,3.29 16.08,8.92 3.89,6.74 5.52,14.46 6.92,22.03 13.78,-7.15 29.43,-11.27 45.02,-9.78 11.36,0.88 22.28,4.73 32.41,9.82 1.21,-7.96 3.1,-16.08 7.39,-22.99 4.78,-7.11 14.16,-8.88 22.15,-7.84 14.05,2.1 26.87,10.06 36.01,20.8 5.07,6.23 9.32,13.84 9.06,22.11 -0.01,4.24 -1.63,8.42 -4.53,11.53 -6.41,7.04 -14.9,11.62 -23.15,16.12 24.47,29.29 42.91,63.19 57.43,98.37 0.35,1.34 1.68,1.73 2.82,2.2 15.9,6.07 31.4,13.64 44.88,24.13 8.99,7.06 17.11,15.69 21.85,26.21 5.41,11.66 5.19,25.78 -0.58,37.27 -5.41,11.23 -14.61,20.13 -24.51,27.46 -18.05,13.05 -38.94,21.52 -60.11,28.05 -38.62,11.55 -79,16.49 -119.22,17.19 -45.89,0.6 -92.16,-4.13 -136.22,-17.34 C 108.24,494.9 84.81,485.25 65.74,469.28 55.16,460.25 45.89,448.47 43.65,434.4 41.2,421.01 46.4,407.24 54.92,396.97 c 12.67,-15.44 30.51,-25.52 48.51,-33.51 4.12,-2 8.61,-3.2 12.65,-5.36 14.73,-35.59 33.36,-69.87 57.99,-99.64 -8.55,-4.1 -16.93,-9.09 -23.4,-16.13 -5.08,-5.5 -5.28,-13.86 -2.81,-20.59 3.55,-9.48 10.62,-17.28 18.72,-23.16 m 0.81,8.76 c -5.7,4.87 -10.74,10.91 -13,18.16 -1.31,4.26 -0.95,9.43 2.45,12.65 8.29,8.21 18.99,13.52 29.88,17.41 -4.86,5.22 -9.46,10.69 -13.85,16.33 -20.78,27.11 -37.11,57.49 -49.8,89.15 22.68,-7.65 46.16,-12.77 69.87,-16.01 43.73,-5.77 88.26,-5.86 132.01,-0.19 24.23,3.22 48.26,8.34 71.41,16.22 -15.33,-38.29 -35.92,-74.9 -63.58,-105.69 10.9,-3.47 21.31,-9.04 29.63,-16.96 4.1,-3.73 4.03,-10 2.02,-14.79 -4.25,-10.33 -13.1,-18.09 -22.77,-23.3 -7.18,-3.65 -15.6,-6.37 -23.65,-4.26 -3.66,0.85 -6.39,3.82 -7.73,7.22 -3.68,8.84 -5.28,18.46 -5.39,28 -13.38,-8.62 -28.74,-15.1 -44.89,-15.03 -16.26,-0.2 -31.77,6.25 -45.23,14.94 -0.6,-10.07 -1.92,-20.38 -6.39,-29.54 -2.36,-4.97 -8.29,-6.6 -13.38,-6.35 -10.28,0.54 -19.82,5.56 -27.61,12.04 m 60.24,136.75 c -37.09,2.42 -74.24,8.5 -109.25,21.32 -17.68,6.67 -35.1,15.02 -49.42,27.57 -9.27,8.28 -17.44,19.22 -18.32,32.03 -0.93,10.39 3.41,20.53 9.87,28.47 8.77,10.85 20.57,18.78 32.77,25.32 22.47,11.75 46.99,19.03 71.73,24.23 25.67,5.3 51.82,7.99 77.99,8.96 42.8,1.22 85.92,-2.25 127.53,-12.63 21.19,-5.48 42.14,-12.66 61.16,-23.63 12.64,-7.47 24.97,-16.71 32.3,-29.73 5.3,-9.2 6.56,-20.71 2.75,-30.69 -4.14,-11.14 -12.73,-19.93 -21.99,-27.06 -15.37,-11.59 -33.23,-19.37 -51.35,-25.57 -27.01,-9.05 -55.19,-14.21 -83.49,-17.15 -27.33,-2.62 -54.87,-3.25 -82.28,-1.44 z"
         id="path3391" />
      <path
         style="fill:#ffffff;stroke:#000000"
         inkscape:connector-curvature="0"
         d="m 167.39,207.34 c 7.79,-6.48 17.33,-11.5 27.61,-12.04 5.09,-0.25 11.02,1.38 13.38,6.35 4.47,9.16 5.79,19.47 6.39,29.54 13.46,-8.69 28.97,-15.14 45.23,-14.94 16.15,-0.07 31.51,6.41 44.89,15.03 0.11,-9.54 1.71,-19.16 5.39,-28 1.34,-3.4 4.07,-6.37 7.73,-7.22 8.05,-2.11 16.47,0.61 23.65,4.26 9.67,5.21 18.52,12.97 22.77,23.3 2.01,4.79 2.08,11.06 -2.02,14.79 -8.32,7.92 -18.73,13.49 -29.63,16.96 27.66,30.79 48.25,67.4 63.58,105.69 -23.15,-7.88 -47.18,-13 -71.41,-16.22 -43.75,-5.67 -88.28,-5.58 -132.01,0.19 -23.71,3.24 -47.19,8.36 -69.87,16.01 12.69,-31.66 29.02,-62.04 49.8,-89.15 4.39,-5.64 8.99,-11.11 13.85,-16.33 -10.89,-3.89 -21.59,-9.2 -29.88,-17.41 -3.4,-3.22 -3.76,-8.39 -2.45,-12.65 2.26,-7.25 7.3,-13.29 13,-18.16 m 20.97,3.06 c -7.6,1.72 -14.78,7.18 -17.1,14.8 -1.03,3.21 0.17,6.67 2.76,8.75 5.7,4.94 12.42,9.28 19.98,10.52 4.62,0.95 9.12,-3.38 9.41,-7.86 0.77,-7.49 -0.91,-15.12 -3.95,-21.96 -1.82,-4.21 -7.04,-5.23 -11.1,-4.25 m 136.98,-0.03 c -4.91,0.94 -6.35,6.27 -7.6,10.38 -1.66,6.2 -2.93,13.05 -0.76,19.28 1.8,2.51 4.61,5.19 7.99,4.5 8.08,-1.2 15.34,-5.81 21.2,-11.33 3.89,-3.47 2.37,-9.36 -0.36,-13.05 -4.58,-6.29 -12.5,-11.1 -20.47,-9.78 m -116.98,86.96 c -4.88,2.15 -6.55,7.91 -7.09,12.78 -0.28,5.4 1.06,11.59 5.51,15.11 3.02,2.3 7.42,0.96 9.37,-2.08 4.39,-6.33 4.52,-15.29 0.68,-21.9 -1.64,-2.84 -5.13,-5.33 -8.47,-3.91 m 98.97,-0.11 c -2.86,1 -4.75,3.61 -5.88,6.3 -2.59,6.6 -2.11,14.87 2.55,20.46 2.45,3.13 7.6,3.18 10.07,0.03 4.74,-5.59 5.12,-13.97 2.53,-20.6 -1.37,-3.64 -5.03,-7.53 -9.27,-6.19 z"
         id="path3393" />
      <path
         style="fill:#373536;stroke:#000000"
         inkscape:connector-curvature="0"
         d="m 188.36,210.4 c 4.06,-0.98 9.28,0.04 11.1,4.25 3.04,6.84 4.72,14.47 3.95,21.96 -0.29,4.48 -4.79,8.81 -9.41,7.86 -7.56,-1.24 -14.28,-5.58 -19.98,-10.52 -2.59,-2.08 -3.79,-5.54 -2.76,-8.75 2.32,-7.62 9.5,-13.08 17.1,-14.8 m -10.34,17.33 c 5.14,4.29 11,8.94 17.95,9.27 1.04,-6.75 -0.77,-13.63 -3.38,-19.82 -6.26,0.66 -12.36,4.47 -14.57,10.55 z"
         id="path3395" />
      <path
         style="fill:#373536;stroke:#000000"
         inkscape:connector-curvature="0"
         d="m 325.34,210.37 c 7.97,-1.32 15.89,3.49 20.47,9.78 2.73,3.69 4.25,9.58 0.36,13.05 -5.86,5.52 -13.12,10.13 -21.2,11.33 -3.38,0.69 -6.19,-1.99 -7.99,-4.5 -2.17,-6.23 -0.9,-13.08 0.76,-19.28 1.25,-4.11 2.69,-9.44 7.6,-10.38 m -1.38,26.92 c 4.93,-0.61 9.19,-3.41 13.24,-6.08 1.43,-1.2 3.44,-2.17 3.94,-4.12 -2.25,-5.77 -8.24,-9.39 -14.28,-9.79 -2.46,6.22 -4.9,13.35 -2.9,19.99 z"
         id="path3397" />
      <path
         style="fill:#ffffff;stroke:#000000"
         inkscape:connector-curvature="0"
         d="m 178.02,227.73 c 2.21,-6.08 8.31,-9.89 14.57,-10.55 2.61,6.19 4.42,13.07 3.38,19.82 -6.95,-0.33 -12.81,-4.98 -17.95,-9.27 z"
         id="path3399" />
      <path
         style="fill:#ffffff;stroke:#000000"
         inkscape:connector-curvature="0"
         d="m 323.96,237.29 c -2,-6.64 0.44,-13.77 2.9,-19.99 6.04,0.4 12.03,4.02 14.28,9.79 -0.5,1.95 -2.51,2.92 -3.94,4.12 -4.05,2.67 -8.31,5.47 -13.24,6.08 z"
         id="path3401" />
      <path
         style="fill:#373536;stroke:#000000"
         inkscape:connector-curvature="0"
         d="m 208.36,297.33 c 3.34,-1.42 6.83,1.07 8.47,3.91 3.84,6.61 3.71,15.57 -0.68,21.9 -1.95,3.04 -6.35,4.38 -9.37,2.08 -4.45,-3.52 -5.79,-9.71 -5.51,-15.11 0.54,-4.87 2.21,-10.63 7.09,-12.78 z"
         id="path3403" />
      <path
         style="fill:#373536;stroke:#000000"
         inkscape:connector-curvature="0"
         d="m 307.33,297.22 c 4.24,-1.34 7.9,2.55 9.27,6.19 2.59,6.63 2.21,15.01 -2.53,20.6 -2.47,3.15 -7.62,3.1 -10.07,-0.03 -4.66,-5.59 -5.14,-13.86 -2.55,-20.46 1.13,-2.69 3.02,-5.3 5.88,-6.3 z"
         id="path3405" />
      <path
         style="fill:#ffffff;stroke:#000000"
         inkscape:connector-curvature="0"
         d="m 227.63,344.09 c 27.41,-1.81 54.95,-1.18 82.28,1.44 28.3,2.94 56.48,8.1 83.49,17.15 18.12,6.2 35.98,13.98 51.35,25.57 9.26,7.13 17.85,15.92 21.99,27.06 3.81,9.98 2.55,21.49 -2.75,30.69 -7.33,13.02 -19.66,22.26 -32.3,29.73 -19.02,10.97 -39.97,18.15 -61.16,23.63 -41.61,10.38 -84.73,13.85 -127.53,12.63 -26.17,-0.97 -52.32,-3.66 -77.99,-8.96 -24.74,-5.2 -49.26,-12.48 -71.73,-24.23 -12.2,-6.54 -24,-14.47 -32.77,-25.32 -6.46,-7.94 -10.8,-18.08 -9.87,-28.47 0.88,-12.81 9.05,-23.75 18.32,-32.03 14.32,-12.55 31.74,-20.9 49.42,-27.57 35.01,-12.82 72.16,-18.9 109.25,-21.32 m -9.1,12.37 c -2.92,1.33 -6.82,2.87 -7.24,6.54 0.89,3.78 3.46,6.86 5.95,9.73 10.5,11.42 25.15,19.2 40.73,20.34 0.02,18.21 0.11,36.43 -0.05,54.64 -14.72,3.72 -29.42,7.52 -44.08,11.46 1.19,4.37 6.42,0.2 9.38,0.17 4.45,8.46 8.38,17.19 12.69,25.72 0.66,1.26 1.64,2.9 3.31,2.73 7.29,-0.65 14.49,-2.25 21.78,-2.89 7.31,0.57 14.5,2.24 21.81,2.91 2.18,0.06 3.27,-2.17 4.1,-3.83 3.78,-7.96 7.63,-15.87 11.37,-23.84 2.22,0.46 4.45,0.92 6.72,1.18 -0.05,-0.54 -0.15,-1.64 -0.2,-2.19 -14.36,-4.16 -28.98,-7.5 -43.4,-11.49 -0.05,-18.16 0.11,-36.32 -0.08,-54.47 16.66,-1.39 32.44,-9.96 42.97,-22.89 1.8,-2.59 4.45,-5.56 3.54,-8.95 -2.09,-3.23 -5.97,-4.55 -9.42,-5.78 -14.98,-4.6 -30.84,-5.02 -46.4,-4.66 -11.3,0.5 -22.79,1.62 -33.48,5.57 M 79.91,425.77 c 0.01,0.8 0.05,2.4 0.06,3.2 24.44,0.08 48.89,-0.01 73.33,0.05 0.02,-0.82 0.06,-2.47 0.08,-3.29 -24.49,-0.1 -48.98,-0.16 -73.47,0.04 m 286.1,0.05 c 0.02,0.78 0.06,2.34 0.08,3.13 24.51,0.04 49.04,0.19 73.54,-0.08 0.02,-0.73 0.06,-2.17 0.07,-2.9 -5.21,-0.62 -10.47,-0.21 -15.7,-0.31 -19.33,0.1 -38.67,-0.22 -57.99,0.16 m -207.93,11.24 c -20.58,6.07 -41.18,12.05 -61.76,18.1 -2.23,0.26 -1.91,4.56 0.67,3.18 23.34,-6.68 46.65,-13.52 69.91,-20.47 -0.03,-0.75 -0.09,-2.25 -0.12,-2.99 -2.98,0.39 -5.83,1.34 -8.7,2.18 m 207.02,-2.24 c -0.06,0.77 -0.17,2.29 -0.23,3.06 23.73,7.13 47.56,13.95 71.33,20.95 0.29,-1.24 1.53,-3.05 -0.43,-3.51 -8.96,-2.79 -18.02,-5.3 -27.02,-7.98 -14.57,-4.08 -28.97,-8.84 -43.65,-12.52 z"
         id="path3407" />
      <path
         style="fill:#373536;stroke:#000000"
         inkscape:connector-curvature="0"
         d="m 218.53,356.46 c 10.69,-3.95 22.18,-5.07 33.48,-5.57 15.56,-0.36 31.42,0.06 46.4,4.66 3.45,1.23 7.33,2.55 9.42,5.78 0.91,3.39 -1.74,6.36 -3.54,8.95 -10.53,12.93 -26.31,21.5 -42.97,22.89 0.19,18.15 0.03,36.31 0.08,54.47 14.42,3.99 29.04,7.33 43.4,11.49 0.05,0.55 0.15,1.65 0.2,2.19 -2.27,-0.26 -4.5,-0.72 -6.72,-1.18 -3.74,7.97 -7.59,15.88 -11.37,23.84 -0.83,1.66 -1.92,3.89 -4.1,3.83 -7.31,-0.67 -14.5,-2.34 -21.81,-2.91 -7.29,0.64 -14.49,2.24 -21.78,2.89 -1.67,0.17 -2.65,-1.47 -3.31,-2.73 -4.31,-8.53 -8.24,-17.26 -12.69,-25.72 -2.96,0.03 -8.19,4.2 -9.38,-0.17 14.66,-3.94 29.36,-7.74 44.08,-11.46 0.16,-18.21 0.07,-36.43 0.05,-54.64 -15.58,-1.14 -30.23,-8.92 -40.73,-20.34 -2.49,-2.87 -5.06,-5.95 -5.95,-9.73 0.42,-3.67 4.32,-5.21 7.24,-6.54 m 9.37,103.62 c 3.7,8.03 7.82,15.86 11.52,23.89 6.88,-0.62 13.69,-1.82 20.51,-2.88 -1.85,-9.32 -2.62,-18.82 -3.89,-28.22 -9.45,2.14 -18.77,4.78 -28.14,7.21 m 35.33,-7.25 c -0.5,9.4 0.79,18.99 -1.01,28.27 6.83,1.07 13.65,2.17 20.52,2.98 3.72,-7.8 7.55,-15.56 11.16,-23.42 -10.27,-2.43 -20.4,-5.41 -30.67,-7.83 z"
         id="path3409" />
      <path
         style="fill:#373536;stroke:#000000"
         inkscape:connector-curvature="0"
         d="m 79.91,425.77 c 24.49,-0.2 48.98,-0.14 73.47,-0.04 -0.02,0.82 -0.06,2.47 -0.08,3.29 -24.44,-0.06 -48.89,0.03 -73.33,-0.05 -0.01,-0.8 -0.05,-2.4 -0.06,-3.2 z"
         id="path3411" />
      <path
         style="fill:#373536;stroke:#000000"
         inkscape:connector-curvature="0"
         d="m 366.01,425.82 c 19.32,-0.38 38.66,-0.06 57.99,-0.16 5.23,0.1 10.49,-0.31 15.7,0.31 -0.01,0.73 -0.05,2.17 -0.07,2.9 -24.5,0.27 -49.03,0.12 -73.54,0.08 -0.02,-0.79 -0.06,-2.35 -0.08,-3.13 z"
         id="path3413" />
      <path
         style="fill:#373536;stroke:#000000"
         inkscape:connector-curvature="0"
         d="m 158.08,437.06 c 2.87,-0.84 5.72,-1.79 8.7,-2.18 0.03,0.74 0.09,2.24 0.12,2.99 -23.26,6.95 -46.57,13.79 -69.91,20.47 -2.58,1.38 -2.9,-2.92 -0.67,-3.18 20.58,-6.05 41.18,-12.03 61.76,-18.1 z"
         id="path3415" />
      <path
         style="fill:#373536;stroke:#000000"
         inkscape:connector-curvature="0"
         d="m 365.1,434.82 c 14.68,3.68 29.08,8.44 43.65,12.52 9,2.68 18.06,5.19 27.02,7.98 1.96,0.46 0.72,2.27 0.43,3.51 -23.77,-7 -47.6,-13.82 -71.33,-20.95 0.06,-0.77 0.17,-2.29 0.23,-3.06 z"
         id="path3417" />
      <path
         style="fill:#ffffff;stroke:#000000"
         inkscape:connector-curvature="0"
         d="m 227.9,460.08 c 9.37,-2.43 18.69,-5.07 28.14,-7.21 1.27,9.4 2.04,18.9 3.89,28.22 -6.82,1.06 -13.63,2.26 -20.51,2.88 -3.7,-8.03 -7.82,-15.86 -11.52,-23.89 z"
         id="path3419" />
      <path
         style="fill:#ffffff;stroke:#000000"
         inkscape:connector-curvature="0"
         d="m 263.23,452.83 c 10.27,2.42 20.4,5.4 30.67,7.83 -3.61,7.86 -7.44,15.62 -11.16,23.42 -6.87,-0.81 -13.69,-1.91 -20.52,-2.98 1.8,-9.28 0.51,-18.87 1.01,-28.27 z"
         id="path3421" />
    </g>
    <g
       id="g3924"
       transform="matrix(1.2499999,0,0,1.2499999,-56.249977,-229.34046)">
      <path
         style="fill:#000000;stroke:#000000;stroke-width:0.38522625"
         inkscape:connector-curvature="0"
         d="m 138.21381,819.46601 c 3.00862,-2.06481 6.91481,-2.29209 10.38185,-1.45615 4.30298,1.06708 8.1668,3.38614 11.70317,5.99412 6.13281,4.5919 11.36418,10.24702 16.27581,16.09475 9.30322,10.93272 18.52939,22.11969 25.17454,34.91691 4.22978,8.00885 7.62748,16.4299 10.66306,24.95881 3.93701,-1.46771 8.06279,-2.61954 12.30413,-2.51938 4.38772,-0.0308 8.69455,1.12486 12.70476,2.83912 3.01632,-8.30548 6.25993,-16.55703 10.34718,-24.40023 5.92863,-11.64154 13.99527,-21.99642 22.38549,-31.94682 5.19285,-6.19444 10.40496,-12.45051 16.63407,-17.64721 4.12963,-3.42466 8.66374,-6.58737 13.86815,-8.10131 3.62112,-1.03241 7.78542,-0.95151 10.99821,1.20191 3.5017,2.23431 5.35849,6.28304 6.03264,10.26242 0.90143,5.38547 0.0886,10.90576 -1.39067,16.11402 -1.66803,5.92093 -4.61115,11.36417 -7.52347,16.74193 -6.23296,11.4027 -13.97986,21.96945 -22.98259,31.3343 -8.22458,8.65219 -17.33518,16.39138 -26.52668,23.98804 -0.55473,0.29663 0.0347,0.80513 0.23884,1.11331 8.53276,10.7324 15.02382,22.95563 20.26675,35.5872 0.17335,0.61251 0.85135,0.71267 1.35214,0.95536 6.27919,2.42307 12.41199,5.43939 17.65878,9.7 3.64038,3.00476 6.91866,6.72605 8.4326,11.27172 1.50238,4.30297 1.00159,9.18379 -1.14027,13.18244 -2.90461,5.49332 -7.91255,9.51123 -13.14007,12.67783 -10.43963,6.1597 -22.26222,9.4996 -34.08096,11.7956 -16.56473,3.0394 -33.5301,3.729 -50.3067,2.4 -9.45731,-0.7936 -18.87223,-2.2267 -28.06373,-4.6074 -7.98574,-2.1033 -15.87132,-4.8461 -23.0712,-8.9411 -4.98868,-2.8814 -9.76549,-6.44094 -13.02454,-11.26397 -2.5579,-3.76366 -3.87919,-8.50195 -2.94313,-13.0168 0.94766,-4.98868 4.13733,-9.23002 7.87402,-12.52755 5.43169,-4.74214 11.96513,-8.03582 18.65651,-10.61299 0.48539,-0.26195 1.1942,-0.32744 1.44845,-0.88217 5.41628,-13.1208 12.21167,-25.7986 21.20671,-36.83533 -11.29869,-9.48042 -22.61664,-19.0764 -32.20106,-30.34812 -8.88332,-10.32022 -16.1641,-21.9656 -21.97716,-34.26588 -3.15501,-7.03808 -5.189,-14.82736 -4.30683,-22.58196 0.5355,-4.27601 2.35762,-8.71767 6.0712,-11.17542 m 0.51621,3.20894 c -2.83912,2.67732 -3.77907,6.74531 -3.95628,10.50897 -0.20032,6.46795 1.58328,12.85115 4.20282,18.71429 6.01338,12.79722 13.69479,24.83939 23.08661,35.42541 9.71541,10.99821 20.9409,20.51715 32.27425,29.78569 0.51621,0.27737 -0.0231,0.72038 -0.22343,0.99774 -4.85385,5.60504 -8.82553,11.89964 -12.56222,18.28669 -3.5749,6.33697 -6.84162,12.87426 -9.43034,19.68121 16.89217,-5.6975 34.82445,-7.8201 52.59494,-7.84321 17.80515,0.0193 35.76825,2.15727 52.68739,7.87403 -2.78904,-7.48495 -6.31386,-14.68483 -10.40881,-21.538 -3.56334,-5.89782 -7.4888,-11.59917 -12.05373,-16.76505 1.85294,-1.7913 3.96783,-3.28598 5.90552,-4.98098 6.62589,-5.53955 13.17088,-11.19467 19.29983,-17.28895 13.21711,-12.89737 23.96107,-28.30257 31.51921,-45.14852 2.63495,-6.59507 4.49945,-13.89896 3.051,-20.99483 -0.65489,-3.30524 -2.42308,-6.7222 -5.63972,-8.15524 -3.14729,-1.49853 -6.80309,-0.76274 -9.90416,0.47768 -5.32002,2.23046 -9.85409,5.94019 -14.01839,9.8618 -4.71131,4.43395 -8.79471,9.46115 -12.96286,14.39205 -4.54182,5.38546 -8.97192,10.87494 -13.02835,16.63792 -4.4301,6.31001 -8.30163,13.0168 -11.52982,20.02406 -3.30524,7.02653 -5.97871,14.32271 -8.60211,21.62275 -4.2683,-2.32677 -9.0374,-3.89849 -13.93363,-3.95242 -4.97712,-0.11557 -9.88876,1.35985 -14.25337,3.68661 -3.34376,-9.41878 -6.91096,-18.79904 -11.61457,-27.63613 -6.00953,-11.56834 -14.17248,-21.81921 -22.57041,-31.72338 -5.17744,-6.20214 -10.47815,-12.39658 -16.84979,-17.41993 -3.66736,-2.85453 -7.70068,-5.48947 -12.29643,-6.51803 -3.01632,-0.70111 -6.47565,-0.20802 -8.78315,1.98777 m 74.26006,126.83574 c -10.23546,0.62022 -20.43625,2.03785 -30.3905,4.50715 -7.75075,1.97236 -15.40134,4.55337 -22.45869,8.36326 -4.64968,2.5579 -9.13371,5.67824 -12.39273,9.92728 -2.44233,3.18968 -3.94471,7.28848 -3.30139,11.32951 0.57784,4.20281 3.1473,7.83165 6.14821,10.70543 4.37617,4.12578 9.70771,7.07278 15.17792,9.48808 8.7793,3.8061 18.10563,6.1983 27.50515,7.8702 17.1002,2.8892 34.58562,3.3361 51.82834,1.5717 11.8303,-1.2789 23.62208,-3.5749 34.78979,-7.7623 6.45253,-2.477 12.80492,-5.54337 18.09407,-10.06978 3.3245,-2.86994 6.25222,-6.51033 7.22299,-10.8865 0.84365,-3.73669 -0.13868,-7.69296 -2.20349,-10.86338 -2.95083,-4.59189 -7.46568,-7.90099 -12.11537,-10.62068 -7.65829,-4.36462 -16.09475,-7.16906 -24.61981,-9.2801 -17.40452,-4.14119 -35.44851,-5.31998 -53.28449,-4.27987 z"
         id="path3425" />
      <path
         style="fill:#ffffff;stroke:#000000;stroke-width:0.38522625"
         inkscape:connector-curvature="0"
         d="m 138.73002,822.67495 c 2.30754,-2.19579 5.76683,-2.68888 8.78315,-1.98777 4.59575,1.02856 8.62907,3.6635 12.29643,6.51803 6.37164,5.02335 11.67235,11.21779 16.84979,17.41993 8.39793,9.90417 16.56088,20.15504 22.57041,31.72338 4.70361,8.83709 8.27081,18.21735 11.61457,27.63613 4.36461,-2.32676 9.27625,-3.80218 14.25337,-3.68661 4.89623,0.0539 9.66533,1.62565 13.93363,3.95242 2.6234,-7.30004 5.29687,-14.59622 8.60211,-21.62275 3.22819,-7.00726 7.09972,-13.71405 11.52982,-20.02406 4.05643,-5.76298 8.48653,-11.25246 13.02835,-16.63792 4.16815,-4.9309 8.25155,-9.9581 12.96286,-14.39205 4.1643,-3.92161 8.69841,-7.63134 14.01839,-9.8618 3.10107,-1.24042 6.75687,-1.97621 9.90416,-0.47768 3.21664,1.43304 4.98483,4.85 5.63972,8.15524 1.44845,7.09587 -0.41605,14.39976 -3.051,20.99483 -7.55814,16.84595 -18.3021,32.25115 -31.51921,45.14852 -6.12895,6.09428 -12.67394,11.7494 -19.29983,17.28895 -1.93769,1.695 -4.05258,3.18968 -5.90552,4.98098 4.56493,5.16588 8.49039,10.86723 12.05373,16.76505 4.09495,6.85317 7.61977,14.05305 10.40881,21.538 -16.91914,-5.71676 -34.88224,-7.85477 -52.68739,-7.87403 -17.77049,0.0231 -35.70277,2.14571 -52.59494,7.84321 2.58872,-6.80695 5.85544,-13.34424 9.43034,-19.68121 3.73669,-6.38705 7.70837,-12.68165 12.56222,-18.28669 0.20032,-0.27736 0.73964,-0.72037 0.22343,-0.99774 -11.33335,-9.26854 -22.55884,-18.78748 -32.27425,-29.78569 -9.39182,-10.58602 -17.07323,-22.62819 -23.08661,-35.42541 -2.61954,-5.86314 -4.40314,-12.24634 -4.20282,-18.71429 0.17721,-3.76366 1.11716,-7.83165 3.95628,-10.50897 m 12.16544,9.49583 c -1.74893,0.30433 -2.93157,1.86449 -3.4054,3.48629 -1.02855,3.46319 -0.5085,7.12669 0.10786,10.61684 1.42149,6.85317 4.16045,13.37891 7.57355,19.46933 3.97939,7.16136 8.05508,14.31886 13.15163,20.75599 4.56108,5.79381 9.97736,10.82486 15.32815,15.86747 3.9216,3.52482 8.09745,7.00727 13.08999,8.88332 1.63336,0.53547 3.80218,1.06323 5.14277,-0.36211 1.7104,-1.33288 1.40607,-3.78292 1.24043,-5.68979 -1.20961,-7.13439 -4.59961,-13.61775 -7.60052,-20.12037 -3.42851,-7.28463 -6.87629,-14.61163 -11.46429,-21.25678 -3.95632,-5.72832 -8.48658,-11.02133 -12.88971,-16.40294 -3.97939,-4.71902 -8.14754,-9.40337 -13.25564,-12.9359 -2.07637,-1.30977 -4.47633,-2.70043 -7.01882,-2.31135 m 146.01231,0.0693 c -1.7027,0.37367 -3.25902,1.20576 -4.70362,2.15341 -4.76524,3.23205 -8.68685,7.51962 -12.41199,11.86882 -4.49559,5.40858 -9.04126,10.79019 -13.14006,16.5108 -4.5842,6.39861 -8.03582,13.49833 -11.39114,20.59034 -2.95854,6.43328 -6.31386,12.77025 -8.00886,19.69277 -0.44301,1.99932 -0.75504,4.11422 -0.28892,6.14051 0.28892,1.34443 1.44075,2.45003 2.83527,2.57331 2.22661,0.19261 4.33379,-0.78586 6.27148,-1.77204 5.84388,-3.14345 10.55905,-7.90099 15.3166,-12.43126 4.32994,-4.16044 8.49809,-8.52505 12.04213,-13.38661 4.37617,-5.94404 8.01271,-12.38502 11.59531,-18.826 3.73284,-6.77228 6.70679,-14.08002 7.80469,-21.76914 0.28506,-3.11263 0.59324,-6.52573 -0.97463,-9.36485 -0.9168,-1.73737 -3.09333,-2.53479 -4.94626,-1.98006 M 204.81943,931.536 c -2.06866,0.97847 -2.7274,3.53637 -2.7004,5.64356 0.0193,1.93769 0.61637,4.15659 2.35374,5.24678 1.36755,0.81283 3.01632,-0.12327 3.67505,-1.40993 1.27125,-2.27668 1.28281,-5.18129 0.20803,-7.53502 -0.60099,-1.27895 -2.04559,-2.56946 -3.53642,-1.94539 m 38.1297,-0.0501 c -1.79131,0.71266 -2.55791,2.73895 -2.76978,4.5187 -0.22343,2.15727 0.18491,4.65353 1.89146,6.15206 0.99774,0.89758 2.6388,0.67415 3.47089,-0.339 1.81827,-2.04555 1.91842,-5.15432 1.1133,-7.65444 -0.49309,-1.51394 -1.93769,-3.2282 -3.70587,-2.67732 z"
         id="path3427" />
      <path
         style="fill:#000000;stroke:#000000;stroke-width:0.38522625"
         inkscape:connector-curvature="0"
         d="m 150.89546,832.17078 c 2.54249,-0.38908 4.94245,1.00158 7.01882,2.31135 5.1081,3.53253 9.27625,8.21688 13.25564,12.9359 4.40313,5.38161 8.93339,10.67462 12.88967,16.40294 4.58804,6.64515 8.03582,13.97215 11.46429,21.25678 3.00092,6.50262 6.39091,12.98598 7.60052,20.12037 0.16564,1.90687 0.46997,4.35691 -1.24043,5.68979 -1.34059,1.42534 -3.50941,0.89758 -5.14277,0.36211 -4.99253,-1.87605 -9.16839,-5.3585 -13.08999,-8.88332 -5.35079,-5.04261 -10.76707,-10.07366 -15.32815,-15.86747 -5.09655,-6.43713 -9.17224,-13.59463 -13.15163,-20.75599 -3.4131,-6.09042 -6.15206,-12.61616 -7.57354,-19.46933 -0.61637,-3.49015 -1.13642,-7.15365 -0.10787,-10.61684 0.47387,-1.6218 1.65651,-3.18196 3.40544,-3.48629 m -1.0247,6.00182 c -0.48924,6.49106 1.67188,12.82418 4.09495,18.74896 2.80445,6.32927 6.39091,12.26946 9.93884,18.20194 4.12577,6.82236 9.13372,13.09384 14.86973,18.62954 4.27216,4.07955 8.39408,8.38638 13.27875,11.75711 2.41148,1.6218 5.00024,3.25131 7.96648,3.54023 0.33515,-0.85135 0.52006,-1.77204 0.36982,-2.68503 -0.63562,-5.06572 -2.73125,-9.78089 -4.79607,-14.3959 -3.1743,-6.77998 -6.25611,-13.6139 -9.90802,-20.15504 -4.08339,-7.33471 -9.49968,-13.7911 -14.80039,-20.25905 -3.98709,-4.83459 -8.04738,-9.69614 -12.98598,-13.60619 -1.79515,-1.31362 -3.71743,-2.73896 -5.99797,-2.9778 -1.62951,-0.077 -1.86064,1.99547 -2.03014,3.20123 z"
         id="path3429" />
      <path
         style="fill:#000000;stroke:#000000;stroke-width:0.38522625"
         inkscape:connector-curvature="0"
         d="m 296.90777,832.24012 c 1.85293,-0.55473 4.02946,0.24269 4.9463,1.98006 1.56787,2.83912 1.25969,6.25222 0.97462,9.36485 -1.09789,7.68912 -4.07184,14.99686 -7.80468,21.76914 -3.5826,6.44098 -7.21914,12.88196 -11.59531,18.826 -3.54408,4.86156 -7.71223,9.22617 -12.04213,13.38661 -4.75755,4.53027 -9.47272,9.28781 -15.3166,12.43126 -1.93769,0.98618 -4.04488,1.96465 -6.27148,1.77204 -1.39452,-0.12328 -2.54635,-1.22888 -2.83527,-2.57331 -0.46612,-2.02629 -0.15409,-4.14119 0.28892,-6.14051 1.695,-6.92252 5.05032,-13.25949 8.00885,-19.69277 3.35533,-7.09201 6.80695,-14.19173 11.39115,-20.59034 4.09876,-5.72061 8.64443,-11.10222 13.14002,-16.5108 3.72514,-4.3492 7.64675,-8.63677 12.41199,-11.86882 1.4446,-0.94765 3.00092,-1.77974 4.70362,-2.15341 m -2.64651,4.19896 c -4.39928,2.80445 -7.94336,6.7222 -11.37958,10.59758 -4.47633,5.30842 -8.92569,10.64765 -13.06688,16.22187 -4.84229,6.52959 -8.44801,13.84889 -11.90349,21.17204 -2.62724,5.70135 -5.53955,11.30639 -7.35782,17.33518 -0.62021,2.33447 -1.40607,4.82303 -0.68955,7.22685 2.40381,-0.0616 4.55722,-1.29436 6.56425,-2.50012 5.4394,-3.40155 9.88876,-8.07435 14.50762,-12.46592 4.97713,-4.84615 9.53435,-10.14301 13.28646,-16.0023 3.59801,-5.51644 6.84161,-11.26787 9.91576,-17.09249 2.9855,-6.04035 5.41243,-12.49674 6.02108,-19.24976 0.0193,-2.18423 0.33515,-4.78451 -1.20194,-6.5604 -1.66418,-0.46612 -3.30139,0.51235 -4.69591,1.31747 z"
         id="path3431" />
      <path
         style="fill:#ffffff;stroke:#000000;stroke-width:0.38522625"
         inkscape:connector-curvature="0"
         d="m 149.87076,838.1726 c 0.1695,-1.20576 0.40063,-3.27827 2.03014,-3.20123 2.28054,0.23884 4.20282,1.66418 5.99797,2.9778 4.9386,3.91005 8.99889,8.7716 12.98598,13.60619 5.30071,6.46795 10.717,12.92434 14.80039,20.25905 3.65195,6.54114 6.73376,13.37506 9.90802,20.15504 2.06482,4.61501 4.16045,9.33018 4.79607,14.3959 0.15024,0.91299 -0.0347,1.83368 -0.36982,2.68503 -2.96624,-0.28892 -5.55496,-1.91843 -7.96648,-3.54023 -4.88467,-3.37073 -9.00659,-7.67756 -13.27875,-11.75711 -5.73601,-5.5357 -10.74396,-11.80718 -14.86973,-18.62954 -3.54793,-5.93248 -7.13439,-11.87267 -9.93884,-18.20194 -2.42307,-5.92478 -4.58419,-12.2579 -4.09495,-18.74896 z"
         id="path3433" />
      <path
         style="fill:#ffffff;stroke:#000000;stroke-width:0.38522625"
         inkscape:connector-curvature="0"
         d="m 294.26126,836.43908 c 1.39452,-0.80512 3.03173,-1.78359 4.69587,-1.31747 1.53709,1.77589 1.22117,4.37617 1.20195,6.5604 -0.60866,6.75302 -3.03559,13.20941 -6.02109,19.24976 -3.07411,5.82462 -6.31771,11.57605 -9.91576,17.09249 -3.75211,5.85929 -8.30929,11.15615 -13.28646,16.0023 -4.61886,4.39157 -9.06822,9.06437 -14.50762,12.46592 -2.00703,1.20576 -4.16044,2.43848 -6.56425,2.50012 -0.71652,-2.40382 0.0693,-4.89238 0.68955,-7.22685 1.81827,-6.02879 4.73058,-11.63383 7.35782,-17.33518 3.45548,-7.32315 7.0612,-14.64245 11.9035,-21.17204 4.14118,-5.57422 8.59054,-10.91345 13.06687,-16.22187 3.43626,-3.87538 6.98034,-7.79313 11.37962,-10.59758 z"
         id="path3435" />
      <path
         style="fill:#000000;stroke:#000000;stroke-width:0.38522625"
         inkscape:connector-curvature="0"
         d="m 204.81943,931.53604 c 1.49083,-0.62407 2.93543,0.66644 3.53642,1.94539 1.07478,2.35373 1.06318,5.25834 -0.20803,7.53502 -0.65873,1.28666 -2.3075,2.22276 -3.67505,1.40993 -1.73737,-1.09019 -2.33447,-3.30909 -2.35374,-5.24678 -0.027,-2.10719 0.63174,-4.66509 2.7004,-5.64356 z"
         id="path3437" />
      <path
         style="fill:#000000;stroke:#000000;stroke-width:0.38522625"
         inkscape:connector-curvature="0"
         d="m 242.94913,931.48596 c 1.76818,-0.55088 3.21278,1.16338 3.70587,2.67732 0.80512,2.50012 0.70497,5.60889 -1.1133,7.65444 -0.83209,1.01315 -2.47315,1.23658 -3.47089,0.339 -1.70655,-1.49853 -2.11489,-3.99479 -1.89146,-6.15206 0.21187,-1.77975 0.97847,-3.80604 2.76978,-4.5187 z"
         id="path3439" />
      <path
         style="fill:#ffffff;stroke:#000000;stroke-width:0.38522625"
         inkscape:connector-curvature="0"
         d="m 212.99008,949.51069 c 17.83598,-1.04011 35.87997,0.13868 53.28449,4.27987 8.52506,2.11104 16.96152,4.91548 24.61981,9.2801 4.64969,2.71969 9.16454,6.02879 12.11537,10.62068 2.06481,3.17042 3.04714,7.12669 2.20349,10.86338 -0.97077,4.37617 -3.89849,8.01656 -7.22299,10.8865 -5.28915,4.52641 -11.64154,7.59278 -18.09407,10.06978 -11.16771,4.1874 -22.95949,6.4834 -34.78979,7.7623 -17.24272,1.7644 -34.72814,1.3175 -51.82834,-1.5717 -9.39952,-1.6719 -18.72585,-4.0641 -27.50515,-7.8702 -5.47021,-2.4153 -10.80175,-5.3623 -15.17792,-9.48808 -3.00091,-2.87378 -5.57037,-6.50262 -6.14821,-10.70543 -0.64332,-4.04103 0.85906,-8.13983 3.30139,-11.32951 3.25902,-4.24904 7.74305,-7.36938 12.39273,-9.92728 7.05735,-3.80989 14.70794,-6.3909 22.45869,-8.36326 9.95425,-2.4693 20.15504,-3.88693 30.3905,-4.50715 m -4.24519,4.80377 c -1.10945,0.5085 -2.65421,1.0979 -2.75437,2.51168 0.20417,1.19805 0.98618,2.18808 1.72581,3.11648 4.05643,4.7768 9.97736,7.98574 16.2527,8.48268 -0.008,7.00727 0.10786,14.01838 -0.0539,21.0218 -5.65898,1.47156 -11.33721,2.86993 -16.96152,4.45707 0.11557,0.20031 0.35441,0.60095 0.47383,0.80512 1.05552,-0.18106 2.08793,-0.48924 3.12804,-0.76275 1.72196,3.25131 3.2359,6.60666 4.88467,9.89266 0.25425,0.4853 0.62407,1.1171 1.27125,1.0593 2.80829,-0.2465 5.57807,-0.8667 8.38637,-1.1133 2.816,0.2196 5.58963,0.8629 8.40564,1.1172 0.84364,0.035 1.27895,-0.8244 1.59869,-1.4716 1.4523,-3.0664 2.93927,-6.11353 4.37617,-9.18378 0.91298,0.0539 2.41922,1.04781 2.68888,-0.36982 -5.6166,-1.55631 -11.28328,-2.92002 -16.90758,-4.44551 -0.0116,-6.99186 0.0347,-13.98757 -0.0231,-20.97942 5.69365,-0.48154 11.10222,-3.12034 15.09702,-7.18447 1.15953,-1.20191 2.34217,-2.49242 2.85838,-4.11422 0.2581,-0.84364 -0.37752,-1.56787 -1.03626,-1.98391 -1.62951,-1.04397 -3.53253,-1.52935 -5.40087,-1.94154 -5.08114,-1.12101 -10.32021,-1.19421 -15.50151,-1.05167 -4.22593,0.21958 -8.5212,0.64718 -12.50829,2.138 m -53.42318,26.69618 c 0.008,0.30433 0.0231,0.92069 0.027,1.22887 9.41878,0.0385 18.83756,-0.008 28.25634,0.0193 0.008,-0.31589 0.0308,-0.94766 0.0424,-1.2674 -9.4419,-0.0385 -18.88379,-0.0693 -28.32569,0.0193 m 110.2402,0.0193 c 0.0115,0.29663 0.0308,0.89373 0.0385,1.19035 9.44189,0.0462 18.89149,0.0693 28.33339,-0.0115 0.008,-0.28507 0.0154,-0.85135 0.0231,-1.13642 -2.14571,-0.21573 -4.29912,-0.0693 -6.44868,-0.10786 -7.31545,0.0424 -14.63475,-0.0886 -21.94634,0.0655 m -87.83929,6.61434 c -5.38161,1.5409 -10.74396,3.13574 -16.11402,4.71517 -0.75504,0.0963 -0.58169,1.53705 0.21188,1.25198 9.02585,-2.6388 18.06711,-5.24293 27.0737,-7.95877 -0.0154,-0.28507 -0.0501,-0.8552 -0.0655,-1.14412 -3.76366,0.80512 -7.40405,2.09948 -11.10607,3.13574 m 87.45406,-3.15886 c -0.0116,0.29663 -0.0347,0.88217 -0.0463,1.1788 9.14531,2.76592 18.33677,5.3739 27.49364,8.08975 0.077,-0.42375 0.15024,-0.85135 0.21954,-1.27895 -9.23769,-2.61569 -18.39451,-5.52415 -27.66691,-7.9896 z"
         id="path3441" />
      <path
         style="fill:#000000;stroke:#000000;stroke-width:0.38522625"
         inkscape:connector-curvature="0"
         d="m 208.74489,954.31446 c 3.98709,-1.49082 8.28236,-1.91842 12.50829,-2.138 5.1813,-0.14254 10.42037,-0.0693 15.50151,1.05167 1.86834,0.41219 3.77136,0.89757 5.40087,1.94154 0.65874,0.41604 1.29436,1.14027 1.03626,1.98391 -0.51621,1.6218 -1.69885,2.91231 -2.85838,4.11422 -3.9948,4.06413 -9.40337,6.70293 -15.09702,7.18447 0.0578,6.99185 0.0116,13.98756 0.0231,20.97942 5.6243,1.52549 11.29098,2.8892 16.90758,4.44551 -0.26966,1.41763 -1.7759,0.42375 -2.68888,0.36982 -1.4369,3.07025 -2.92387,6.11738 -4.37617,9.18378 -0.31974,0.6472 -0.75505,1.5062 -1.59869,1.4716 -2.81601,-0.2543 -5.58964,-0.8976 -8.40564,-1.1172 -2.8083,0.2466 -5.57808,0.8668 -8.38637,1.1133 -0.64718,0.058 -1.017,-0.574 -1.27125,-1.0593 -1.64877,-3.286 -3.16271,-6.64135 -4.88467,-9.89266 -1.04011,0.27351 -2.07252,0.58169 -3.12804,0.76275 -0.11942,-0.20417 -0.35826,-0.60481 -0.47383,-0.80512 5.62431,-1.58714 11.30254,-2.98551 16.96152,-4.45707 0.16179,-7.00342 0.0462,-14.01453 0.0539,-21.0218 -6.27534,-0.49694 -12.19626,-3.70588 -16.2527,-8.48268 -0.73963,-0.9284 -1.52164,-1.91843 -1.72581,-3.11648 0.10016,-1.41378 1.64492,-2.00318 2.75437,-2.51168 m 3.61727,39.9133 c 1.42919,3.08566 3.02017,6.09814 4.4224,9.19924 2.65421,-0.2389 5.28145,-0.6896 7.91255,-1.1133 -0.78587,-3.57495 -0.89758,-7.26156 -1.5178,-10.86343 -3.62883,0.83209 -7.21528,1.83368 -10.81715,2.77749 m 13.59849,-2.79289 c -0.0154,2.33061 -0.0539,4.66123 -0.0732,6.99185 -0.0308,1.30207 0.12713,2.64268 -0.31203,3.89848 2.63495,0.4122 5.26604,0.8244 7.91255,1.1441 1.42919,-3.0086 2.92001,-5.98638 4.29527,-9.01811 -3.96012,-0.9284 -7.85861,-2.09949 -11.82259,-3.01632 z"
         id="path3443" />
      <path
         style="fill:#000000;stroke:#000000;stroke-width:0.38522625"
         inkscape:connector-curvature="0"
         d="m 155.32171,981.01064 c 9.4419,-0.0886 18.88379,-0.0578 28.32569,-0.0193 -0.0116,0.31974 -0.0347,0.95151 -0.0424,1.2674 -9.41878,-0.027 -18.83756,0.0193 -28.25634,-0.0193 -0.004,-0.30818 -0.0193,-0.92454 -0.027,-1.22887 z"
         id="path3445" />
      <path
         style="fill:#000000;stroke:#000000;stroke-width:0.38522625"
         inkscape:connector-curvature="0"
         d="m 265.56191,981.0299 c 7.31159,-0.15409 14.63089,-0.0231 21.94634,-0.0655 2.14956,0.0385 4.30297,-0.10787 6.44868,0.10786 -0.008,0.28507 -0.0154,0.85135 -0.0231,1.13642 -9.4419,0.0809 -18.8915,0.0578 -28.33339,0.0115 -0.008,-0.29662 -0.027,-0.89372 -0.0385,-1.19035 z"
         id="path3447" />
      <path
         style="fill:#000000;stroke:#000000;stroke-width:0.38522625"
         inkscape:connector-curvature="0"
         d="m 177.72262,987.64424 c 3.70202,-1.03626 7.34241,-2.33062 11.10607,-3.13574 0.0154,0.28892 0.05,0.85905 0.0655,1.14412 -9.00659,2.71584 -18.04785,5.31997 -27.0737,7.95877 -0.79357,0.28507 -0.96692,-1.15568 -0.21188,-1.25198 5.37006,-1.57943 10.73241,-3.17427 16.11402,-4.71517 z"
         id="path3449" />
      <path
         style="fill:#000000;stroke:#000000;stroke-width:0.38522625"
         inkscape:connector-curvature="0"
         d="m 265.17668,984.48538 c 9.27236,2.46545 18.42922,5.37391 27.66691,7.9896 -0.0693,0.4276 -0.14253,0.8552 -0.21954,1.27895 -9.15683,-2.71585 -18.34833,-5.32383 -27.49364,-8.08975 0.0116,-0.29663 0.0347,-0.88217 0.0463,-1.1788 z"
         id="path3451" />
      <path
         style="fill:#ffffff;stroke:#000000;stroke-width:0.38522625"
         inkscape:connector-curvature="0"
         d="m 212.36216,994.22776 c 3.60187,-0.94381 7.18832,-1.9454 10.81715,-2.77749 0.62022,3.60187 0.73193,7.28848 1.5178,10.86343 -2.6311,0.4237 -5.25834,0.8744 -7.91255,1.1133 -1.40223,-3.1011 -2.99321,-6.11358 -4.4224,-9.19924 z"
         id="path3453" />
      <path
         style="fill:#ffffff;stroke:#000000;stroke-width:0.38522625"
         inkscape:connector-curvature="0"
         d="m 225.96065,991.43487 c 3.96398,0.91683 7.86247,2.08792 11.82259,3.01632 -1.37526,3.03173 -2.86608,6.00951 -4.29527,9.01811 -2.64651,-0.3197 -5.2776,-0.7319 -7.91255,-1.1441 0.43916,-1.2558 0.28122,-2.59641 0.31203,-3.89848 0.0193,-2.33062 0.0578,-4.66124 0.0732,-6.99185 z"
         id="path3455" />
    </g>
    <g
       id="g3457"
       transform="translate(-2014.6385,527.53864)"
       style="stroke:#000000">
      <path
         style="fill:#373536;stroke:#000000"
         inkscape:connector-curvature="0"
         d="m 154.22,707.22 c 2.92,-2.93 7.24,-1.71 10.85,-1.3199 21.25,2.59 42.57,8.89 59.99,21.72 14.07,-6.54 29.93,-9.61 45.37,-7.27 8.12,1.05 15.9,3.78 23.41,6.95 17.48,-12.64 38.74,-18.92 59.96,-21.44 3.38,-0.35 7.39,-1.46 10.21,1.12 3.06,2.36 2.82,6.53 2.78,9.99 -0.32,20.4901 -4.25,41.73 -16.09,58.8701 21.37,27.0099 37.64,57.66 51.19,89.21 6.81,3.25 14.1,5.66 20.79,9.29 16.55,8.42 32.39,19.4 43.35,34.65 5.45,7.93 10.3,17.15 9.32,27.09 11.49,0.43 23.01,-0.03 34.5,0.21 1.83,-0.38 1.99,1.51 2.48,2.77 -1.73,0.45 -3.5,0.7 -5.28,0.66 -9.04,-0.08 -18.07,-0.01 -27.1,-0.06 -1.4,0.2401 -3.26,-0.54 -4.33,0.63 -0.35,4.45 -0.23,9.1 -2.09,13.27 -1.31,2.76 -3.14,5.23 -4.63,7.9 12.99,1.48 25.98,3.04 38.95,4.79 -0.02,0.69 -0.05,2.07 -0.06,2.76 -13.71,-0.44 -27.25,-3.22 -40.9,-4.45 -5.76,10.7 -15.77,18.09 -25.68,24.67 -21.5,13.7 -45.89,22.14 -70.48,28.37 -30.01,7.4501 -60.86,11.13 -91.73,12.4 -35.38,1.1899 -70.93,-0.89 -105.79,-7.17 -31.3,-5.86 -62.6,-14.59 -90.29,-30.7 -10.94,-6.79 -22.21,-14.27 -28.9,-25.59 -8.38,0.69 -16.68,2.44 -25.11,2.55 0.04,-0.73 0.11,-2.2 0.15,-2.94 7.49,-1.12 15.07,-1.62 22.55,-2.87 -2.29,-3.79 -5.22,-7.29 -6.39,-11.65 -1.45,-3.82 -1.17,-7.94 -1.16,-11.93 -11.66,-0.1 -23.33,0.08 -34.99,-0.07 -2.07,0.41 -2.05,-3.69 0,-3.3 11.68,-0.24 23.36,0.02 35.04,-0.11 -1.04,-11.8799 5.46,-22.68 12.39,-31.75 15.53,-19.1899 37.66,-31.77 60.37,-40.6 1.25,-0.34 2.05,-1.36 2.45,-2.54 12.75,-30.25 29.02,-59.05 48.96,-85.15 -12.09,-16.37 -15.88,-37.28 -16.52,-57.2 0.16,-3.9402 -0.96,-8.8502 2.46,-11.7602 m 4.82,5.59 c -0.1,6.43 0.33,12.84 1.08,19.23 2.05,15.78 6.47,32.38 17.98,44.01 -11,13.33 -20.7,27.7 -29.33,42.67 -8.71,15.25 -16.77,30.93 -23.24,47.28 41.58,-13.87 86.95,-14.94 129.55,-5.19 3.18,0.81 6.51,0.75 9.72,0.08 43.09,-8.33 88.41,-6.56 130.21,7.22 -13.79,-33.12 -31.4,-64.85 -54.07,-92.75 7.06,-6.94 11.11,-16.27 13.9,-25.62 3.37,-11.99 4.89,-24.49 4.46,-36.94 -22.93,2 -46.37,8.46 -64.52,23.18 -9.33,-4.49 -19.27,-8.11 -29.68,-8.81 -14.23,-1.36 -28.31,2.77 -40.94,9.06 -18.36,-14.78 -41.93,-21.57 -65.12,-23.42 M 119,870.99 c -18.81,7.28 -36.96,17.34 -51.2,31.81 -8.81,9.09 -16.33,20.47 -17.24,33.42 42.47,0.07 84.95,-0.03 127.43,0.05 2.46,-1.06 3.45,3.4 0.93,3.35 -42.79,0.15 -85.58,-0.01 -128.37,0.08 0.2,8.27 3.77,15.99 8.47,22.65 40.76,-4.71 81.45,-9.95 122.19,-14.8 5.97,-0.62 11.9,-1.91 17.93,-1.84 -0.05,0.75 -0.16,2.2599 -0.21,3.0099 -45.75,5.65 -91.5,11.2401 -137.26,16.77 9.1,10.84 21.28,18.6 33.72,25.08 14.29,7.32 29.47,12.73 44.88,17.13 38.58,10.82 78.75,14.94 118.73,15.29 31.58,-0.17 63.22,-2.76 94.21,-9 26.42,-5.53 52.71,-13.25 76.43,-26.4 11.02,-6.35 21.9,-13.7401 29.61,-24.03 -40.69,-4.87 -81.38,-9.85 -122.06,-14.84 -0.04,-0.73 -0.12,-2.17 -0.16,-2.9 5.96,-0.36 11.82,1.17 17.73,1.7 35.73,4.18 71.4,8.9 107.15,12.87 3.83,-6.27 6.76,-13.22 7.11,-20.63 -43.36,-0.24 -86.73,0.07 -130.09,-0.16 -0.02,-1.09 -0.02,-2.17 -0.01,-3.24 43.37,-0.33 86.75,0.05 130.12,-0.19 -1.51,-15.7 -12.03,-28.69 -23.7,-38.48 -12.91,-10.7 -27.96,-18.57 -43.58,-24.51 -40.56,-15.2 -85.23,-18.26 -127.83,-11.31 10.04,1.22 20.5,1.94 29.7,6.56 2.29,1.24 5.34,3.34 4.24,6.38 -1.79,4.77 -5.43,8.53 -9.02,12.03 -10.18,9.44 -23.39,16.11 -37.42,16.7599 -0.04,18.29 -0.06,36.59 0.01,54.89 12.92,8.05 28.3,11.25 43.38,11.15 0.01,0.58 0.01,1.72 0.02,2.3 -15.63,0.9 -31.45,-3.07 -44.95,-10.94 -3.21,1.1 -5.79,3.56 -8.93,4.87 -11.19,5.48 -23.89,6.48 -36.16,6.36 -0.26,-0.86 -0.5,-1.71 -0.74,-2.54 15.22,0.15 30.64,-3.16 43.76,-11.07 0.35,-18.37 0.18,-36.74 0.09,-55.11 -15.3,-0.61 -29.57,-8.55 -40.05,-19.4 -2.79,-3.19 -5.95,-6.62 -6.58,-10.97 0.8,-2.93 3.81,-4.38 6.32,-5.61 9.36,-3.89 19.56,-4.7401 29.52,-5.86 C 204.68,853.14 159.63,855.61 119,870.99 Z"
         id="path3459" />
      <path
         style="fill:#ffffff;stroke:#000000"
         inkscape:connector-curvature="0"
         d="m 159.04,712.81 c 23.19,1.85 46.76,8.64 65.12,23.42 12.63,-6.29 26.71,-10.42 40.94,-9.06 10.41,0.7 20.35,4.32 29.68,8.81 18.15,-14.72 41.59,-21.18 64.52,-23.18 0.43,12.45 -1.09,24.95 -4.46,36.94 -2.79,9.35 -6.84,18.68 -13.9,25.62 22.67,27.9 40.28,59.63 54.07,92.75 -41.8,-13.78 -87.12,-15.55 -130.21,-7.22 -3.21,0.67 -6.54,0.73 -9.72,-0.08 -42.6,-9.75 -87.97,-8.68 -129.55,5.19 6.47,-16.35 14.53,-32.03 23.24,-47.28 8.63,-14.97 18.33,-29.34 29.33,-42.67 -11.51,-11.63 -15.93,-28.23 -17.98,-44.01 -0.75,-6.39 -1.18,-12.8 -1.08,-19.23 m 149.53,32.29 c 8.39,7.73 17.29,14.89 25.73,22.57 1.96,-0.28 3.18,-2.51 4.53,-3.86 7.03,-9.57 8.58,-21.98 8.47,-33.55 -13.91,1.29 -28.02,5.52 -38.73,14.84 M 170.99,730.43 c 0.27,13.33 2.13,28.77 13.11,37.81 8.9,-7.44 17.83,-14.91 26.31,-22.83 -10.92,-9.38 -25.19,-14.14 -39.42,-14.98 m 36.48,77.99 c -4.78,3.03 -6.24,9.21 -6.26,14.53 0.3,4.78 1.67,10.11 5.73,13.09 2.92,2.09 7.14,0.87 9.06,-2.0099 4.54,-6.28 4.68,-15.3 0.91,-21.97 -1.76,-3.2301 -5.9,-5.7901 -9.44,-3.6401 m 98.9,-0.15 c -4.96,2.94 -6.58,9.32 -6.44,14.74 0.16,5.04 1.82,10.91 6.54,13.5 3.52,1.83 7.5,-0.72 9.16,-3.9 3.5,-6.36 3.45,-14.69 -0.3,-20.93 -1.73,-3 -5.62,-5.21 -8.96,-3.41 z"
         id="path3461" />
      <path
         style="fill:#373536;stroke:#000000"
         inkscape:connector-curvature="0"
         d="m 308.57,745.1 c 10.71,-9.3199 24.82,-13.55 38.73,-14.84 0.11,11.57 -1.44,23.98 -8.47,33.55 -1.35,1.35 -2.57,3.58 -4.53,3.86 -8.44,-7.68 -17.34,-14.84 -25.73,-22.57 m 11.88,0.68 c 4.57,3.97 9.13,7.9399 13.77,11.8199 3.18,-5.74 4.88,-12.23 5.37,-18.7599 -6.66,1.34 -13.36,3.25 -19.14,6.94 z"
         id="path3463" />
      <path
         style="fill:#373536;stroke:#000000"
         inkscape:connector-curvature="0"
         d="m 170.99,730.43 c 14.23,0.84 28.5,5.6 39.42,14.98 -8.48,7.92 -17.41,15.39 -26.31,22.83 -10.98,-9.04 -12.84,-24.48 -13.11,-37.81 m 7.9,8.43 c 0.55,6.7 2.37,13.29 5.52,19.25 4.98,-3.73 9.56,-7.96 14.17,-12.13 -6.05,-3.6 -12.79,-5.86 -19.69,-7.12 z"
         id="path3465" />
      <path
         style="fill:#ffffff;stroke:#000000"
         inkscape:connector-curvature="0"
         d="m 178.89,738.86 c 6.9,1.26 13.64,3.52 19.69,7.12 -4.61,4.17 -9.19,8.4 -14.17,12.13 -3.15,-5.96 -4.97,-12.55 -5.52,-19.25 z"
         id="path3467" />
      <path
         style="fill:#ffffff;stroke:#000000"
         inkscape:connector-curvature="0"
         d="m 320.45,745.78 c 5.78,-3.69 12.48,-5.6 19.14,-6.94 -0.49,6.53 -2.19,13.02 -5.37,18.7599 -4.64,-3.8799 -9.2,-7.8499 -13.77,-11.8199 z"
         id="path3469" />
      <path
         style="fill:#373536;stroke:#000000"
         inkscape:connector-curvature="0"
         d="m 207.47,808.42 c 3.54,-2.15 7.68,0.41 9.44,3.64 3.77,6.67 3.63,15.69 -0.91,21.97 -1.92,2.8799 -6.14,4.1 -9.06,2.0099 -4.06,-2.98 -5.43,-8.31 -5.73,-13.09 0.02,-5.3199 1.48,-11.4999 6.26,-14.5299 z"
         id="path3471" />
      <path
         style="fill:#373536;stroke:#000000"
         inkscape:connector-curvature="0"
         d="m 306.37,808.27 c 3.34,-1.8 7.23,0.41 8.96,3.41 3.75,6.24 3.8,14.57 0.3,20.93 -1.66,3.18 -5.64,5.73 -9.16,3.9 -4.72,-2.59 -6.38,-8.46 -6.54,-13.5 -0.14,-5.42 1.48,-11.8 6.44,-14.74 z"
         id="path3473" />
      <path
         style="fill:#ffffff;stroke:#000000"
         inkscape:connector-curvature="0"
         d="m 119,870.99 c 40.63,-15.38 85.68,-17.85 128.12,-9.32 -9.96,1.12 -20.16,1.97 -29.52,5.86 -2.51,1.23 -5.52,2.68 -6.32,5.61 0.63,4.35 3.79,7.78 6.58,10.97 10.48,10.85 24.75,18.79 40.05,19.4 0.09,18.37 0.26,36.74 -0.09,55.11 -13.12,7.91 -28.54,11.22 -43.76,11.07 0.24,0.83 0.48,1.68 0.74,2.54 12.27,0.12 24.97,-0.88 36.16,-6.36 3.14,-1.31 5.72,-3.77 8.93,-4.87 13.5,7.87 29.32,11.84 44.95,10.94 -0.01,-0.58 -0.01,-1.72 -0.02,-2.3 -15.08,0.1 -30.46,-3.1 -43.38,-11.15 -0.07,-18.3 -0.05,-36.6 -0.01,-54.89 14.03,-0.65 27.24,-7.3199 37.42,-16.7599 3.59,-3.5 7.23,-7.26 9.02,-12.03 1.1,-3.04 -1.95,-5.14 -4.24,-6.38 -9.2,-4.62 -19.66,-5.34 -29.7,-6.56 42.6,-6.95 87.27,-3.89 127.83,11.31 15.62,5.94 30.67,13.81 43.58,24.51 11.67,9.79 22.19,22.78 23.7,38.48 -43.37,0.24 -86.75,-0.14 -130.12,0.19 -0.01,1.07 -0.01,2.15 0.01,3.24 43.36,0.23 86.73,-0.08 130.09,0.16 -0.35,7.41 -3.28,14.36 -7.11,20.63 -35.75,-3.97 -71.42,-8.69 -107.15,-12.87 -5.91,-0.53 -11.77,-2.06 -17.73,-1.7 0.04,0.73 0.12,2.17 0.16,2.9 40.68,4.9901 81.37,9.97 122.06,14.84 -7.71,10.29 -18.59,17.68 -29.61,24.03 -23.72,13.15 -50.01,20.87 -76.43,26.4 -30.99,6.24 -62.63,8.83 -94.21,9 -39.98,-0.35 -80.15,-4.47 -118.73,-15.29 -15.41,-4.4 -30.59,-9.81 -44.88,-17.13 -12.44,-6.48 -24.62,-14.24 -33.72,-25.08 45.76,-5.53 91.51,-11.12 137.26,-16.77 0.05,-0.75 0.16,-2.2599 0.21,-3.0099 -6.03,-0.07 -11.96,1.22 -17.93,1.84 -40.74,4.85 -81.43,10.09 -122.19,14.8 -4.7,-6.66 -8.27,-14.38 -8.47,-22.65 42.79,-0.09 85.58,0.07 128.37,-0.08 2.52,0.05 1.53,-4.41 -0.93,-3.35 -42.48,-0.08 -84.96,0.02 -127.43,-0.05 0.91,-12.95 8.43,-24.33 17.24,-33.42 C 82.04,888.33 100.19,878.27 119,870.99 Z"
         id="path3475" />
    </g>
    <g
       id="g3477"
       transform="translate(-2014.6385,527.53864)"
       style="stroke:#000000">
      <path
         style="fill:#373536;stroke:#000000"
         inkscape:connector-curvature="0"
         d="m 1152.98,733.28 c 12.3301,-9.51 27.14,-16.65 42.9501,-17.01 16.5499,-0.37 32.45,6.71 45.24,16.83 4.88,-4.52 10.59,-8.3199 17.1599,-9.85 10.2001,-2.66 21.25,-1.42 30.9501,2.56 6.72,3.19 7.74,11.52 8.61,18.09 0.88,18.22 -1.74,36.38 -4.4,54.36 11.01,2.06 21.6901,7.78 27.9301,17.33 3.7999,5.28 5.1,11.74 5.83,18.08 10.95,11.72 20.49,25.08 25.88,40.32 7.53,20.21 7.58,43.05 0.2,63.31 -9.9299,27.68 -31.8199,49.61 -56.89,64.17 -36.72,21.3101 -80.58,28.87 -122.5499,24.3101 -36.52,-4.05 -72.77,-17.55 -100.47,-42.16 -14.4,-12.88 -26.26,-28.99 -32.55,-47.36 -6.37,-18.15 -6.79,-38.29 -1.29,-56.7 4.8101,-16.28 13.9701,-31.11 25.63,-43.38 1.0801,-1.23 2.5701,-2.42 2.42,-4.24 0.5,-10.77 6.91,-20.67 15.75,-26.59 5.12,-3.66 11.17,-5.6 17.24,-7.03 -2.33,-14 -3.9399,-28.13 -4.61,-42.3 -0.07,-8.5 -0.34,-17.57 3.63,-25.33 2.87,-5.54 9.62,-6.58 15.13,-7.81 13.4196,-2.8801 28.4098,0.4599 38.2097,10.3999 m -1.23,10.71 c -2.98,-4.21 -6.38,-8.31 -11.03,-10.74 -9.46,-5.14 -21.0399,-4.8 -31.0399,-1.49 -2.7401,0.62 -4.65,2.92 -5.12,5.63 -2.15,10.43 -1,21.18 -0.29,31.71 0.76,11.29 3.37,22.39 3.89,33.6801 4.3199,-0.15 8.51,1.0099 12.77,1.49 42.38,-17.1 90.5099,-19.23 134.34,-6.39 6.4,1.72 12.47,4.48 18.78,6.43 4.2,-0.76 8.4099,-1.66 12.72,-1.48 -1.67,-5.06 0.39,-10.31 0.85,-15.4 1.85,-14.35 3.6901,-28.86 2.88,-43.35 -0.6,-4.29 -0.46,-10.49 -5.48,-12.08 -9.27,-3.33 -19.84,-3.98 -29.0801,-0.16 -5.7599,2.27 -9.9299,6.98 -13.5599,11.8 -12.48,-11.1 -28.23,-20.11 -45.38,-19.91 C 1179.85,723.7 1164.2,732.88 1151.75,743.99 m -30.11,62.72 c -1.61,0.54 -3.27,-0.35 -4.85,-0.53 -13.52,-3.24 -29.29,1.58 -37.3101,13.28 -3.58,5.0099 -4.87,11.27 -4.48,17.34 -17,16.1 -29.49,37.84 -31.49,61.45 -2.3101,23 5.89,46.22 20.12,64.17 20.9399,26.56 52.24,43.17 84.62,51.34 44.27,10.6899 92.49,7.02 133.67,-12.91 25.5299,-12.42 48.74,-31.85 61.0299,-57.88 9.74,-20.23 11.1801,-44.27 3.6001,-65.43 -5.4,-15.67 -15.29,-29.43 -27.0801,-40.93 0.28,-5.4 -0.48,-11.01 -3.4199,-15.64 -7.5599,-12.69 -24.0699,-18.13 -38.0899,-14.82 -1.83,0.23 -3.73,1.21 -5.52,0.41 -47.73,-19.48 -103.1,-19.31 -150.8,0.15 z"
         id="path3479" />
      <path
         style="fill:#ffffff;stroke:#000000"
         inkscape:connector-curvature="0"
         d="m 1151.75,743.99 c 12.45,-11.11 28.1,-20.29 45.25,-20.26 17.15,-0.2 32.9,8.81 45.38,19.91 3.63,-4.82 7.8,-9.53 13.5599,-11.8 9.2401,-3.82 19.8101,-3.17 29.0801,0.16 5.02,1.59 4.88,7.79 5.48,12.08 0.8101,14.49 -1.03,29 -2.88,43.35 -0.46,5.09 -2.52,10.34 -0.85,15.4 -4.3101,-0.18 -8.52,0.72 -12.72,1.48 -6.3101,-1.95 -12.38,-4.71 -18.78,-6.43 -43.8301,-12.84 -91.96,-10.71 -134.34,6.39 -4.26,-0.48 -8.4501,-1.64 -12.77,-1.49 -0.52,-11.29 -3.13,-22.39 -3.89,-33.6801 -0.71,-10.53 -1.86,-21.28 0.29,-31.71 0.47,-2.71 2.3799,-5.01 5.12,-5.63 10,-3.31 21.58,-3.65 31.0399,1.49 4.6501,2.4301 8.0501,6.5301 11.0301,10.7401 m -39.24,5.01 c 0.3,13.11 1.99,26.14 3.15,39.19 7.0399,-10.39 14,-20.89 22.33,-30.33 -3.66,-8.87 -12.99,-15.86 -22.83,-14.8 -2.95,0.26 -2.43,3.84 -2.65,5.94 m 143.72,8.58 c 8.46,9.15 15.05,19.78 22.3101,29.83 0.6599,-7.53 1.35,-15.05 2.3099,-22.55 0.5801,-6.22 1.78,-12.47 1.13,-18.72 -0.02,-2.07 -2.38,-2.41 -3.95,-2.49 -9.26,-0.59 -18.37,5.35 -21.8,13.93 m -110.85,7.75 c -4.55,2.37 -6.33,7.83 -6.63,12.64 -0.3199,5.34 0.84,11.44 5.21,14.9901 3.1001,2.44 7.91,1.03 9.8101,-2.28 4.25,-6.54 4.24,-15.81 -0.08,-22.31 -1.74,-2.6701 -5.22,-4.5101 -8.31,-3.0401 m 98.92,-0.13 c -3.01,1.27 -4.8101,4.26 -5.8401,7.22 -2.1699,6.34 -1.49,14.01 2.8101,19.32 2.5,3.21 7.9299,3.24 10.38,-0.07 4.8099,-6.09 5.1,-15.14 1.5699,-21.91 -1.6099,-3.19 -5.2299,-5.98 -8.9199,-4.56 z"
         id="path3481" />
      <path
         style="fill:#373536;stroke:#000000"
         inkscape:connector-curvature="0"
         d="m 1112.51,749 c 0.22,-2.1 -0.3,-5.68 2.65,-5.94 9.84,-1.06 19.1699,5.93 22.83,14.8 -8.33,9.44 -15.29,19.94 -22.33,30.33 -1.16,-13.05 -2.8499,-26.08 -3.15,-39.19 m 4.96,0.92 c 0.5901,5.87 2.5601,11.48 3.3301,17.33 2.96,-3.3 5.4199,-7 8.3099,-10.36 -2.98,-3.59 -7.09,-6 -11.64,-6.97 z"
         id="path3483" />
      <path
         style="fill:#373536;stroke:#000000"
         inkscape:connector-curvature="0"
         d="m 1256.23,757.58 c 3.4301,-8.58 12.54,-14.52 21.8,-13.93 1.5699,0.08 3.9299,0.42 3.95,2.49 0.65,6.25 -0.5499,12.5 -1.13,18.72 -0.96,7.5 -1.65,15.02 -2.3099,22.55 -7.2601,-10.05 -13.8502,-20.68 -22.3101,-29.83 m 9,-0.94 c 2.65,3.23 5.2001,6.55 7.77,9.85 0.8101,-5.45 3.1801,-10.46 4.51,-15.77 -4.71,0.25 -9.21,2.33 -12.28,5.92 z"
         id="path3485" />
      <path
         style="fill:#ffffff;stroke:#000000"
         inkscape:connector-curvature="0"
         d="m 1117.47,749.92 c 4.55,0.97 8.66,3.38 11.64,6.97 -2.89,3.36 -5.35,7.06 -8.3099,10.36 -0.7701,-5.85 -2.74,-11.46 -3.3301,-17.33 z"
         id="path3487" />
      <path
         style="fill:#ffffff;stroke:#000000"
         inkscape:connector-curvature="0"
         d="m 1265.23,756.64 c 3.0701,-3.59 7.5701,-5.67 12.28,-5.92 -1.33,5.3101 -3.7,10.32 -4.51,15.77 -2.5699,-3.3 -5.12,-6.62 -7.77,-9.85 z"
         id="path3489" />
      <path
         style="fill:#373536;stroke:#000000"
         inkscape:connector-curvature="0"
         d="m 1145.38,765.33 c 3.09,-1.47 6.5699,0.37 8.3099,3.04 4.3201,6.5 4.3301,15.77 0.08,22.31 -1.9,3.31 -6.71,4.72 -9.8101,2.28 -4.37,-3.55 -5.5299,-9.65 -5.21,-14.9901 C 1139.05,773.16 1140.83,767.7 1145.38,765.33 Z"
         id="path3491" />
      <path
         style="fill:#373536;stroke:#000000"
         inkscape:connector-curvature="0"
         d="m 1244.3,765.2 c 3.6899,-1.42 7.3099,1.37 8.9199,4.56 3.53,6.77 3.24,15.82 -1.5699,21.91 -2.4501,3.31 -7.88,3.28 -10.38,0.07 -4.3,-5.31 -4.98,-12.98 -2.8101,-19.32 1.0301,-2.96 2.8301,-5.95 5.8401,-7.22 z"
         id="path3493" />
      <path
         style="fill:#ffffff;stroke:#000000"
         inkscape:connector-curvature="0"
         d="m 1121.64,806.71 c 47.7,-19.46 103.0699,-19.63 150.7999,-0.15 1.79,0.8 3.6901,-0.18 5.52,-0.41 14.02,-3.31 30.53,2.13 38.0901,14.8199 2.9399,4.63 3.7,10.2401 3.4199,15.64 11.79,11.5 21.6801,25.26 27.0801,40.93 7.58,21.16 6.1399,45.2 -3.6001,65.43 -12.2899,26.03 -35.5,45.46 -61.0299,57.88 -41.1801,19.9301 -89.4,23.6 -133.67,12.91 -32.38,-8.17 -63.6801,-24.78 -84.62,-51.34 -14.23,-17.95 -22.4301,-41.17 -20.12,-64.17 2,-23.61 14.49,-45.35 31.49,-61.45 -0.39,-6.07 0.9,-12.33 4.48,-17.34 8.02,-11.7 23.79,-16.52 37.3101,-13.28 1.5799,0.1801 3.2399,1.0701 4.8499,0.5301 m -20.25,12.75 c -6.15,1.91 -11.3201,7.89 -10.75,14.56 0.33,7.13 6.78,12.6 13.52,13.69 9.4299,2.07 20.96,-5.34 19.9199,-15.71 -1.0299,-10.4 -13.4899,-15.95 -22.6899,-12.54 m 181.9201,-0.22 c -7.4801,1.8 -13.25,9.77 -11.03,17.47 2.5699,9.2 14.0699,13.56 22.59,10.14 7.08,-2.23 12.35,-10.18 9.88,-17.55 -2.7701,-8.6 -13.1601,-12.6 -21.44,-10.06 M 1259.99,947.77 c -0.51,3.33 -2.54,6.2 -5.6799,7.51 -12.16,5.97 -25.9301,7.11 -39.2001,8.53 -22.0599,1.26 -44.5699,0.81 -66.0499,-4.89 -5.3101,-1.68 -11.65,-3.28 -14.4501,-8.61 -1.1899,-2.84 -4.6899,-1.54 -6.96,-1.37 -0.16,5.52 5.75,7.87 9.8099,10.11 -1.2799,6.41 -2.88,12.76 -3.97,19.21 -0.71,3 1.46,6.27 4.55,6.67 5.3099,1.11 10.6,2.4 15.96,3.29 2.65,0.64 5.77,-0.9399 6.46,-3.67 1.36,-5.25 2.26,-10.6 3.3501,-15.91 0.2899,-1.12 0.2599,-3.53 2.1299,-2.86 21.27,2.78 42.88,2.52 64.15,-0.17 1.04,6.23 2.4301,12.39 3.87,18.54 0.5601,2.64 3.3101,4.62 6.02,4.14 4.85,-0.7 9.6,-1.95 14.42,-2.87 1.9199,-0.51 4.26,-0.68 5.5399,-2.43 1.7001,-1.92 1.1801,-4.67 0.7401,-6.94 -1.29,-5.71 -2.2201,-11.49 -3.7101,-17.14 4.3,-2.29 10.22,-5.14 9.53,-10.99 -2.1498,-0.65 -4.3698,-0.82 -6.5098,-0.15 z"
         id="path3495" />
      <path
         style="fill:#373536;stroke:#000000"
         inkscape:connector-curvature="0"
         d="m 1101.39,819.46 c 9.2,-3.41 21.66,2.14 22.6899,12.54 1.04,10.37 -10.49,17.78 -19.9199,15.71 -6.74,-1.09 -13.1901,-6.56 -13.52,-13.69 -0.5701,-6.67 4.6,-12.65 10.75,-14.56 z"
         id="path3497" />
      <path
         style="fill:#373536;stroke:#000000"
         inkscape:connector-curvature="0"
         d="m 1283.3101,819.24 c 8.2799,-2.54 18.6699,1.46 21.4399,10.06 2.47,7.37 -2.8,15.32 -9.88,17.55 -8.52,3.42 -20.02,-0.94 -22.59,-10.14 -2.2199,-7.7 3.55,-15.67 11.0301,-17.47 z"
         id="path3499" />
      <path
         style="fill:#373536;stroke:#000000"
         inkscape:connector-curvature="0"
         d="m 1259.99,947.77 c 2.14,-0.67 4.36,-0.5 6.51,0.15 0.6899,5.85 -5.23,8.7 -9.53,10.99 1.49,5.65 2.42,11.4301 3.7101,17.14 0.4399,2.27 0.96,5.02 -0.7401,6.94 -1.2799,1.75 -3.62,1.92 -5.5399,2.43 -4.8201,0.92 -9.5701,2.17 -14.42,2.87 -2.71,0.48 -5.46,-1.5 -6.02,-4.14 -1.4399,-6.15 -2.83,-12.31 -3.87,-18.54 -21.27,2.69 -42.88,2.95 -64.15,0.17 -1.87,-0.67 -1.84,1.74 -2.1299,2.86 -1.0901,5.31 -1.9901,10.66 -3.3501,15.91 -0.6899,2.73 -3.8099,4.31 -6.46,3.67 -5.36,-0.89 -10.65,-2.18 -15.96,-3.29 -3.0901,-0.4 -5.26,-3.67 -4.55,-6.67 1.09,-6.45 2.6901,-12.8 3.97,-19.21 -4.0599,-2.24 -9.97,-4.59 -9.8099,-10.11 2.27,-0.17 5.77,-1.47 6.96,1.37 2.8,5.33 9.14,6.93 14.4501,8.61 21.48,5.7 43.99,6.15 66.0499,4.89 13.27,-1.42 27.04,-2.56 39.2001,-8.53 3.1397,-1.31 5.1697,-4.18 5.6797,-7.51 m -120.12,12.17 c -1.52,6.31 -2.9399,12.68 -3.9399,19.1 -0.6101,2.15 1.62,3.4 3.4299,3.69 5.23,1.11 10.4501,2.37 15.76,3.13 1.62,0.24 2.89,-1.15 3.15,-2.65 1.5,-5.94 2.46,-12.01 3.75,-17.9901 -7.53,-1.0399 -14.98,-2.7699 -22.15,-5.2799 m 92.75,5.19 c 0.75,5.38 2.13,10.64 3.15,15.98 0.41,1.47 0.4299,3.38 1.9,4.31 1.37,0.9 3.0599,0.21 4.5699,0.03 4.75,-1.05 9.5701,-1.81 14.27,-3.09 1.71,-0.39 2.7,-2.33 2.13,-3.95 -1.29,-6.18 -2.53,-12.37 -3.8201,-18.54 -7.2698,2.26 -14.6397,4.27 -22.1998,5.26 z"
         id="path3501" />
      <path
         style="fill:#ffffff;stroke:#000000"
         inkscape:connector-curvature="0"
         d="m 1139.87,959.94 c 7.17,2.51 14.62,4.24 22.15,5.28 -1.29,5.98 -2.25,12.05 -3.75,17.9901 -0.26,1.5 -1.53,2.89 -3.15,2.65 -5.3099,-0.76 -10.53,-2.02 -15.76,-3.13 -1.8099,-0.29 -4.04,-1.54 -3.4299,-3.69 1,-6.4201 2.4199,-12.7901 3.9399,-19.1001 z"
         id="path3503" />
      <path
         style="fill:#ffffff;stroke:#000000"
         inkscape:connector-curvature="0"
         d="m 1232.62,965.13 c 7.5601,-0.99 14.9301,-3 22.2,-5.26 1.29,6.17 2.53,12.36 3.8201,18.54 0.5699,1.6201 -0.42,3.56 -2.13,3.95 -4.7,1.28 -9.52,2.04 -14.27,3.09 -1.51,0.18 -3.2,0.87 -4.5699,-0.03 -1.4701,-0.93 -1.49,-2.84 -1.9,-4.31 -1.0202,-5.34 -2.4002,-10.6 -3.1502,-15.98 z"
         id="path3505" />
    </g>
    <g
       id="g3507"
       transform="translate(-2014.6385,527.53864)"
       style="stroke:#000000">
      <path
         style="fill:#373536;stroke:#000000"
         inkscape:connector-curvature="0"
         d="m 644.37,694.36 c 13.92,-8.2 31.91,-6.89 45.91,0.42 12.45,7.11 21.29,18.74 30.83,29.1299 11.96,-4.86 25.06,-7.29 37.94,-5.65 6.72,0.79 13.2,2.8 19.61,4.89 7.56,-8.55 14.96,-17.41 24.04,-24.42 9.9,-7.74 22.95,-10.72 35.34,-9.78 12.11,1.12 23.04,8.11 30.42,17.57 10.98,13.89 16.39,31.27 19.41,48.48 1.86,12.2 2.63,24.69 0.89,36.95 -0.74,4.88 -2.11,9.8 -4.87,13.95 -2.56,3.71 -7.26,6.41 -11.84,5.23 -4.51,-0.94 -7.1,-5.04 -10.12,-8.1 11.58,19.04 22.2,38.73 30.6,59.41 0.71,1.51 1.15,3.58 3.0699,4.01 16.23,6.29 31.9,14.49 45.29,25.7 12.37,10.35 23.3,23.98 25.8,40.35 2.17,14.2 -4.02,28.36 -13.4,38.78 -13.34,14.9 -31.2599,24.7599 -49.45,32.5 -41.1,16.92 -85.63,23.6799 -129.78,26.08 -49.77,1.91 -100.15,-2.11 -148.15,-15.91 -17.3799,-5.17 -34.49,-11.6 -50.24,-20.64 -12.11,-7.02 -23.66,-15.6 -32.03,-26.95 -6,-8.18 -10.07,-18.12 -9.79,-28.39 0.01,-13.93 7.2401,-26.74 16.22,-36.9399 15.44,-17.36 36.28,-28.85 57.67,-37.26 10.07,-24.42 22.54,-47.86 37.33,-69.75 10.41,-15.25 22.04,-29.75 35.44,-42.5 2.53,-2.54 5.51,-4.63 7.76,-7.44 -10.24,1.49 -20.51,5.78 -27.12,14.03 -9.66,11.84 -12.77,27.35 -20.97,40.08 -3.13,4.68 -6.28,9.92 -11.56,12.41 -5.15,2.34 -11.17,-0.72 -13.88,-5.31 -4.59,-7.57 -5.03,-16.71 -5.46,-25.3 -0.09,-18.56 3.05,-37.27 10.2,-54.45 C 624.72,713.2 632.59,701.29 644.37,694.36 m 67.43,42.44 c -22.77,13.51 -40.69,33.68 -56.08,54.92 -16.46,23.19 -30.33,48.3 -40.93,74.69 40.16,-13.52 83.88,-15.37 125.29,-6.83 12.39,2.54 24.84,-0.56 37.15,-1.99 36.82,-4.1801 74.57,-0.78 109.8,10.87 -9.95,-24.62 -22.4301,-48.23 -37.26,-70.26 -12.8,-18.76 -27.44,-36.51 -45.14,-50.85 -12.53,-9.96 -26.88,-18.35 -42.82,-21.14 -17.27,-3.49 -35.13,1.83 -50.01,10.59 m 101.64,7.89 c 2.96,3.32 6.52,6.04 9.62,9.24 13.23,12.97 24.44,27.78 34.88,43.03 -1.98,-4.26 -4.37,-8.32 -6.22,-12.64 -4.15,-9.22 -7.62,-19.02 -14.31,-26.79 -6.02,-7.1 -14.87,-11.4 -23.97,-12.84 M 666.97,857.92 c -27.6899,2.6 -55.18,9.99 -79.6299,23.42 -13.27,7.42 -25.82,16.68 -35.1801,28.78 -6.74,8.77 -11.78,19.63 -10.85,30.92 0.8,10.89 6.94,20.59 14.42,28.23 10.59,10.67 23.77,18.37 37.31,24.68 20.67,9.49 42.69,15.7 64.93,20.22 48.02,9.42 97.46,10.98 146.09,5.93 23.76,-2.64 47.39,-6.86 70.31,-13.71 20.29,-6.12 40.31,-14.07 57.81,-26.22 10.42,-7.45 20.26,-16.74 25.05,-28.89 3.28,-8.4 3.15,-17.96 -0.14,-26.32 -3.67,-9.48 -10.28,-17.5 -17.69,-24.31 -10.97,-10 -23.96,-17.53 -37.45,-23.58 -21.27,-9.39 -44.15,-14.84 -67.22,-17.34 -23.23,-2.22 -46.8,-1.84 -69.82,2.11 9.97,1.31 20.38,2.0099 29.53,6.62 2.15,1.19 5.19,3.29 4.22,6.17 -1.46,4.12 -4.44,7.49 -7.45,10.58 -10.35,10.35 -24.27,17.71 -39.08,18.35 0.18,18.3 -0.41,36.69 0.29,54.93 13.2,8.81 29.39,10.88 44.89,11.54 -0.38,0.52 -1.14,1.56 -1.52,2.08 -8.35,0.34 -16.72,-0.72 -24.85,-2.58 0.75,5.1899 0.95,10.6 -0.85,15.62 -2.61,8.29 -10.17,15.33 -19.1201,15.66 -8.27,0.44 -15.85,-5.2 -19.3199,-12.45 -2.91,-5.6 -3.1,-12.11 -2.27,-18.23 -8.36,1.86 -17.01,2.41 -25.54,1.9 -0.11,-0.54 -0.34,-1.61 -0.45,-2.15 12.7,-0.3 25.66,-1.73 37.29,-7.22 2.76,-1.47 6.01,-2.5 8.14,-4.85 0.06,-18.04 -0.02,-36.08 0.03,-54.11 -16.9,-1.09 -32.86,-10.09 -43.36,-23.23 -2.14,-2.87 -5.45,-7.6 -1.46,-10.43 9.99,-6.61 22.54,-6.74 34.02,-8.5099 -23.4,-4.2801 -47.37,-6.0401 -71.08,-3.6101 m 65.28,111.49 c -1.91,7.04 -0.81,14.94 3.44,20.9301 3.23,4.61 8.54,8 14.29,8 5.83,0.23 11.22,-3.22 14.59,-7.78 3.99,-5.53 5.41,-12.75 4.05,-19.4 -0.28,-1.16 -0.41,-2.67 -1.86,-2.87 -5.07,-1.69 -9.93,-3.91 -14.64,-6.43 0.01,8.06 0.07,16.11 -0.04,24.17 -0.78,0 -2.34,0.01 -3.12,0.01 -0.09,-8.09 -0.03,-16.18 -0.03,-24.2599 -5.21,3.2399 -10.74,6.0099 -16.68,7.6299 z"
         id="path3509" />
      <path
         style="fill:#ffffff;stroke:#000000"
         inkscape:connector-curvature="0"
         d="m 711.8,736.8 c 14.88,-8.76 32.74,-14.08 50.01,-10.59 15.94,2.79 30.29,11.18 42.82,21.14 17.7,14.34 32.34,32.09 45.14,50.85 14.83,22.03 27.31,45.64 37.26,70.26 -35.23,-11.65 -72.98,-15.05 -109.8,-10.87 -12.31,1.43 -24.76,4.53 -37.15,1.99 -41.41,-8.54 -85.13,-6.69 -125.29,6.83 10.6,-26.39 24.47,-51.5 40.93,-74.69 15.39,-21.24 33.31,-41.41 56.08,-54.92 m -13.41,71.49 c -5.8,3.58 -7.04,11.45 -6.15,17.71 0.79,4.27 2.64,9.24 7.09,10.83 3.09,1.08 6.34,-0.97 7.92,-3.58 3.8,-5.97 3.91,-14.01 0.86,-20.32 -1.63,-3.52 -5.79,-6.75 -9.72,-4.64 m 98.89,-0.14 c -4.85,2.67 -6.4901,8.66 -6.63,13.84 -0.07,5.22 1.45,11.23 6.05,14.3 3.1,1.96 7.11,0.21 8.94,-2.68 4.41,-6.5 4.37,-15.73 0.13,-22.3 -1.72,-2.79 -5.32,-4.6 -8.49,-3.16 z"
         id="path3511" />
      <path
         style="fill:#ffffff;stroke:#000000"
         inkscape:connector-curvature="0"
         d="m 813.44,744.69 c 9.1,1.44 17.95,5.74 23.97,12.84 6.69,7.77 10.16,17.5699 14.31,26.79 1.85,4.32 4.2401,8.38 6.22,12.64 -10.44,-15.25 -21.65,-30.06 -34.88,-43.03 -3.1,-3.2 -6.66,-5.92 -9.62,-9.24 z"
         id="path3513" />
      <path
         style="fill:#373536;stroke:#000000"
         inkscape:connector-curvature="0"
         d="m 698.39,808.29 c 3.93,-2.11 8.09,1.12 9.72,4.64 3.05,6.31 2.94,14.35 -0.86,20.32 -1.58,2.61 -4.83,4.66 -7.92,3.58 -4.45,-1.59 -6.3,-6.56 -7.09,-10.83 -0.89,-6.26 0.35,-14.13 6.15,-17.71 z"
         id="path3515" />
      <path
         style="fill:#373536;stroke:#000000"
         inkscape:connector-curvature="0"
         d="m 797.28,808.15 c 3.17,-1.44 6.77,0.37 8.49,3.16 4.24,6.57 4.28,15.8 -0.13,22.3 -1.83,2.89 -5.84,4.64 -8.94,2.68 -4.6,-3.07 -6.12,-9.08 -6.05,-14.3 0.14,-5.18 1.78,-11.17 6.63,-13.84 z"
         id="path3517" />
      <path
         style="fill:#ffffff;stroke:#000000"
         inkscape:connector-curvature="0"
         d="m 666.97,857.92 c 23.71,-2.43 47.6801,-0.67 71.08,3.61 -11.48,1.77 -24.03,1.9 -34.02,8.5099 -3.9901,2.83 -0.6801,7.56 1.46,10.43 10.5,13.14 26.46,22.14 43.36,23.23 -0.05,18.03 0.03,36.07 -0.03,54.11 -2.13,2.35 -5.38,3.38 -8.14,4.85 -11.63,5.4901 -24.59,6.92 -37.29,7.22 0.11,0.54 0.34,1.61 0.45,2.15 8.53,0.5099 17.18,-0.04 25.54,-1.9 -0.83,6.12 -0.64,12.63 2.27,18.23 3.47,7.25 11.05,12.89 19.3199,12.45 8.95,-0.33 16.51,-7.37 19.1201,-15.66 1.8,-5.02 1.6,-10.4301 0.85,-15.62 8.13,1.86 16.5,2.92 24.85,2.58 0.38,-0.52 1.14,-1.56 1.52,-2.08 -15.5,-0.66 -31.69,-2.73 -44.89,-11.54 -0.7,-18.24 -0.11,-36.63 -0.29,-54.93 14.81,-0.64 28.73,-8 39.08,-18.35 3.0099,-3.09 5.99,-6.46 7.45,-10.58 0.97,-2.88 -2.0699,-4.98 -4.22,-6.17 -9.15,-4.61 -19.56,-5.31 -29.53,-6.62 23.02,-3.95 46.59,-4.33 69.82,-2.11 23.07,2.5 45.95,7.95 67.22,17.34 13.49,6.05 26.48,13.58 37.45,23.58 7.41,6.81 14.02,14.83 17.69,24.31 3.29,8.36 3.42,17.92 0.14,26.32 -4.79,12.15 -14.63,21.4399 -25.05,28.89 -17.5,12.15 -37.52,20.1 -57.81,26.22 -22.92,6.85 -46.55,11.07 -70.31,13.71 -48.63,5.05 -98.07,3.4901 -146.09,-5.93 -22.24,-4.52 -44.2599,-10.73 -64.93,-20.22 -13.54,-6.31 -26.72,-14.01 -37.31,-24.68 -7.48,-7.64 -13.62,-17.34 -14.42,-28.23 -0.93,-11.29 4.11,-22.15 10.85,-30.92 9.36,-12.1 21.91,-21.36 35.1801,-28.78 C 611.79,867.91 639.28,860.52 666.97,857.92 Z"
         id="path3519" />
      <path
         style="fill:#ffffff;stroke:#000000"
         inkscape:connector-curvature="0"
         d="m 732.25,969.41 c 5.94,-1.62 11.47,-4.39 16.68,-7.6299 0,8.08 -0.06,16.17 0.03,24.2599 0.78,0 2.34,-0.01 3.12,-0.01 0.11,-8.0601 0.05,-16.11 0.04,-24.17 4.71,2.52 9.57,4.74 14.64,6.43 1.45,0.2 1.58,1.71 1.86,2.87 1.36,6.65 -0.06,13.8701 -4.05,19.4 -3.37,4.56 -8.76,8.01 -14.59,7.78 -5.75,0 -11.06,-3.39 -14.29,-8 -4.25,-5.9901 -5.35,-13.8901 -3.44,-20.9301 z"
         id="path3521" />
    </g>
    <g
       id="g3523"
       transform="translate(-2014.6385,527.53864)"
       style="stroke:#000000">
      <path
         style="fill:#373536;stroke:#000000"
         inkscape:connector-curvature="0"
         d="m 1651.99,679.98 c -1.45,-6.16 3.73,-12.69 10.04,-12.74 14.6699,-0.12 29.35,-0.07 44.02,-0.02 6.3199,-0.12 11.8199,6.2401 10.49,12.5 -2.65,13.4 -5.6901,26.7401 -8.3201,40.15 9.9,2.9 18.87,8.09 27.64,13.42 9.5701,-11.85 20.4301,-22.85 33.08,-31.41 5.9501,-3.68 12.64,-7.6 19.92,-6.7 3.84,0.57 5.97,4.37 7.17,7.71 3.5499,10.29 3.73,21.33 3.95,32.1 -0.1699,15.98 -1.0599,31.97 -3.1,47.82 -0.53,5.35 -1.75,10.65 -1.99,16.02 19.6899,31.91 35.76,66.23 46.04,102.34 3.0599,11.39 5.7799,23.03 5.86,34.88 -0.2201,15.12 -7.1801,29.43 -17.13,40.56 -11.25,12.65 -25.6901,22.04 -40.89,29.25 -19.75,9.3 -41.03,14.98 -62.5601,18.24 -43.4299,6.15 -88.6699,3.01 -130.01,-12.17 -17.6799,-6.59 -34.72,-15.65 -48.6799,-28.48 -11.16,-10.26 -20.26,-23.52 -22.97,-38.66 -2.39,-14.09 1.0499,-28.25 4.5,-41.86 8.9299,-32.13 22.5399,-62.86 39.1399,-91.74 2.1801,-4.16 5.2401,-7.88 7,-12.24 -3.4099,-23.14 -5.6399,-46.54 -5.1399,-69.96 0.4199,-9.04 0.87,-18.32 4.1399,-26.86 1.1801,-3.13 3.3301,-6.5 6.9501,-6.97 6.77,-0.84 13.0699,2.64 18.7,5.98 13.42,8.66 24.53,20.38 34.7201,32.56 7.8999,-5.77 16.85,-9.86 25.8999,-13.49 -2.9599,-13.38 -5.7499,-26.8 -8.4699,-40.23 m -71.8099,25.17 c -2.12,6.0099 -2.3201,12.47 -2.67,18.78 -0.88,25.73 1.47,51.49 5.54,76.87 -8.3401,13.63 -16.3601,27.49 -23.2001,41.96 -10.2899,21.63 -19.26,44.05 -24.9399,67.36 2.88,-4.17 5.37,-8.63 8.7999,-12.39 10.7101,-12.41 24.6801,-21.56 39.3501,-28.62 21.33,-10.14 44.49,-15.97 67.86,-18.98 40.9199,-4.84 83.2699,-1.46 122.08,12.87 19.0699,7.27 37.61,17.32 51.66,32.38 4.39,4.4 7.46,9.81 11.09,14.8 -10.1801,-38.5 -26.88,-75.19 -48.13,-108.81 -1.05,-1.26 -0.54,-2.85 -0.3,-4.25 1.15,-5.97 1.89,-12.01 2.55,-18.05 2.39,-21.72 3.8101,-43.71 1.75,-65.51 -0.97,-3.83 -0.54,-9.68 -4.86,-11.36 -5.12,0.08 -9.6,3.13 -13.77,5.78 -13.88,9.71 -25.8,22.08 -35.74,35.75 -14.7,-11.29 -32.4,-19.9 -51.27,-19.98 -19.5499,-0.33 -38.03,8.49 -53.15,20.3 -8.88,-12.52 -19.62,-23.72 -31.76,-33.1 -4.96,-3.64 -10.1599,-7.4 -16.2799,-8.71 -2.0702,-0.57 -4.1202,0.91 -4.6101,2.91 M 1657.5,851.92 c -21.71,2.11 -43.22,6.95 -63.49,15.07 -15.53,6.34 -30.51,14.67 -42.6901,26.33 -9.24,8.78 -16.74,19.88 -19.33,32.52 -2.2,10.89 -0.3,22.44 4.9301,32.22 6.96,13.41 18.6,23.74 31.1499,31.85 17.41,11.11 37.0701,18.31 57.1001,23.03 20.5599,4.84 41.74,6.77 62.84,6.72 23.77,-0.39 47.61,-3.36 70.42,-10.22 18.9299,-5.64 37.36,-13.8 53.0399,-25.95 11.99,-9.35 22.49,-21.64 26.4,-36.61 3.79,-14.2 0.1,-29.62 -8.3199,-41.46 -9.3201,-13.38 -22.77,-23.31 -37,-30.93 -20.6101,-10.93 -43.3301,-17.36 -66.3,-20.94 -22.73,-3.36 -45.89,-4 -68.75,-1.63 z"
         id="path3525" />
      <path
         style="fill:#ffffff;stroke:#000000"
         inkscape:connector-curvature="0"
         d="m 1580.1801,705.15 c 0.49,-2 2.5399,-3.48 4.61,-2.91 6.12,1.31 11.3199,5.07 16.2799,8.71 12.14,9.38 22.88,20.58 31.76,33.1 15.12,-11.81 33.6001,-20.63 53.15,-20.3 18.87,0.08 36.5701,8.69 51.27,19.98 9.9399,-13.67 21.86,-26.04 35.74,-35.75 4.17,-2.65 8.65,-5.7 13.77,-5.78 4.3199,1.68 3.89,7.53 4.86,11.36 2.0601,21.8 0.64,43.79 -1.75,65.51 -0.66,6.04 -1.4,12.08 -2.55,18.05 -0.24,1.4 -0.75,2.99 0.3,4.25 21.25,33.62 37.95,70.31 48.13,108.81 -3.63,-4.99 -6.7,-10.4 -11.09,-14.8 -14.05,-15.06 -32.5901,-25.11 -51.66,-32.38 -38.8101,-14.33 -81.16,-17.71 -122.08,-12.87 -23.37,3.01 -46.53,8.84 -67.86,18.98 -14.67,7.06 -28.64,16.21 -39.3501,28.62 -3.4299,3.76 -5.9199,8.22 -8.7999,12.39 5.6799,-23.31 14.65,-45.73 24.9399,-67.36 6.84,-14.47 14.86,-28.33 23.2001,-41.96 -4.0701,-25.38 -6.42,-51.14 -5.54,-76.87 0.35,-6.31 0.5501,-12.77 2.6701,-18.78 m 11.0599,23.84 c -1.66,6.53 -1.54,13.32 -1.71,20.01 0.03,13.13 0.71,26.24 1.9,39.31 8.09,-10.51 16.1799,-21.08 25.6799,-30.38 -4.33,-8.86 -9.99,-17.11 -16.85,-24.2 -2.5099,-2.28 -5.2499,-5.5 -9.0199,-4.74 m 178.46,4.7 c -6.49,6.72 -11.9299,14.47 -16.21,22.77 -0.97,1.65 1.39,2.67 2.1801,3.86 8.4199,8.36 15.4399,17.97 22.86,27.18 1.53,-17.14 2.4299,-34.4 1.35,-51.59 -0.47,-2.36 -0.13,-5.42 -2,-7.14 -3.4201,0.02 -5.8601,2.79 -8.1801,4.92 m -135.22,70.81 c -3.9199,1.07 -6.12,5.04 -7.11,8.7 -1.47,6.29 -0.97,13.84 3.78,18.67 2.46,2.7 7.13,2.56 9.4299,-0.3 5.1001,-5.79 5.3301,-14.72 2.3301,-21.56 -1.4799,-3.13 -4.68,-6.42 -8.43,-5.51 m 98.93,-0.07 c -4.0601,0.87 -6.3401,4.95 -7.3301,8.66 -1.6,6.18 -0.99,13.53 3.41,18.46 2.29,2.83 6.9,3.04 9.4301,0.39 4.96,-5.06 5.35,-13.04 3.6,-19.55 -1.22,-3.93 -4.44,-8.62 -9.11,-7.96 z"
         id="path3527" />
      <path
         style="fill:#373536;stroke:#000000"
         inkscape:connector-curvature="0"
         d="m 1591.24,728.99 c 3.77,-0.76 6.51,2.46 9.02,4.74 6.86,7.09 12.52,15.34 16.85,24.2 -9.5,9.3 -17.59,19.87 -25.6799,30.38 -1.1901,-13.07 -1.87,-26.18 -1.9,-39.31 0.1699,-6.69 0.05,-13.48 1.7099,-20.01 m 4.91,11 c 1.23,9.39 0.52,18.89 1.2,28.32 3.8201,-3.63 6.86,-7.99 10.7101,-11.6 -3.2001,-6.08 -7.4401,-11.54 -11.9101,-16.72 z"
         id="path3529" />
      <path
         style="fill:#373536;stroke:#000000"
         inkscape:connector-curvature="0"
         d="m 1769.7,733.69 c 2.3201,-2.13 4.76,-4.9 8.1801,-4.92 1.87,1.72 1.53,4.78 2,7.14 1.08,17.19 0.1801,34.45 -1.35,51.59 -7.42,-9.21 -14.4401,-18.82 -22.86,-27.18 -0.79,-1.19 -3.15,-2.21 -2.1801,-3.86 4.28,-8.3 9.72,-16.05 16.21,-22.77 m -7.7,22.4 c 3.64,3.89 7.11,7.93 10.62,11.95 0.55,-9.32 -0.09,-18.71 1.14,-27.97 -4.47,4.91 -8.28,10.37 -11.76,16.02 z"
         id="path3531" />
      <path
         style="fill:#ffffff;stroke:#000000"
         inkscape:connector-curvature="0"
         d="m 1596.15,739.99 c 4.47,5.18 8.71,10.64 11.91,16.72 -3.8501,3.61 -6.89,7.97 -10.7101,11.6 -0.6799,-9.43 0.03,-18.93 -1.1999,-28.32 z"
         id="path3533" />
      <path
         style="fill:#ffffff;stroke:#000000"
         inkscape:connector-curvature="0"
         d="m 1762,756.09 c 3.48,-5.65 7.29,-11.11 11.76,-16.02 -1.23,9.26 -0.59,18.65 -1.14,27.97 -3.51,-4.02 -6.98,-8.06 -10.62,-11.95 z"
         id="path3535" />
      <path
         style="fill:#373536;stroke:#000000"
         inkscape:connector-curvature="0"
         d="m 1634.48,804.5 c 3.75,-0.91 6.9501,2.38 8.4301,5.51 3,6.84 2.77,15.77 -2.3301,21.56 -2.2999,2.86 -6.97,3 -9.4299,0.3 -4.75,-4.83 -5.25,-12.38 -3.78,-18.67 0.9899,-3.66 3.19,-7.63 7.1099,-8.7 z"
         id="path3537" />
      <path
         style="fill:#373536;stroke:#000000"
         inkscape:connector-curvature="0"
         d="m 1733.41,804.43 c 4.6699,-0.66 7.89,4.03 9.11,7.96 1.75,6.51 1.36,14.49 -3.6,19.55 -2.53,2.65 -7.14,2.44 -9.4301,-0.39 -4.4,-4.93 -5.01,-12.28 -3.41,-18.46 0.99,-3.71 3.2701,-7.79 7.3301,-8.66 z"
         id="path3539" />
      <path
         style="fill:#ffffff;stroke:#000000"
         inkscape:connector-curvature="0"
         d="m 1657.5,851.92 c 22.86,-2.37 46.02,-1.73 68.75,1.63 22.97,3.58 45.6899,10.01 66.3,20.94 14.23,7.62 27.6799,17.55 37,30.93 8.4199,11.84 12.11,27.26 8.3199,41.46 -3.91,14.97 -14.41,27.26 -26.4,36.61 -15.6799,12.15 -34.11,20.31 -53.0399,25.95 -22.8101,6.86 -46.65,9.83 -70.42,10.22 -21.1,0.05 -42.28,-1.8799 -62.84,-6.72 -20.03,-4.72 -39.6901,-11.92 -57.1001,-23.03 -12.5499,-8.11 -24.1899,-18.44 -31.1499,-31.85 -5.2301,-9.78 -7.13,-21.33 -4.9301,-32.22 2.59,-12.64 10.09,-23.7401 19.33,-32.52 12.1801,-11.66 27.16,-19.99 42.6901,-26.33 20.27,-8.12 41.78,-12.96 63.49,-15.07 m -55.02,34.74 c -6.66,1.2401 -11.9399,7.54 -11.87,14.33 -0.3099,7.76 6.5701,14.94 14.36,14.85 8.4501,0.58 15.99,-7.53 15.11,-15.9 -0.48,-8.45 -9.32,-15.21 -17.6,-13.28 m 159.9599,-0.1 c -6.8799,1.02 -12.5299,7.44 -12.4299,14.43 -0.3101,7.98 6.97,15.32 15,14.87 8.2,0.13 15.37,-7.72 14.4299,-15.89 -0.3499,-8.3 -8.8899,-14.91 -17,-13.41 m -47.3999,82.1 c -1.39,2.82 -1.0801,6.46 -3.7001,8.66 -6.65,6.46 -16.38,8.24 -25.3099,8.56 -9.1901,0.03 -19.04,-1.58 -26.35,-7.54 -2.8101,-2.02 -3.39,-5.51 -4.75,-8.44 -0.4901,0.04 -1.4701,0.12 -1.9601,0.17 -1.1799,3.5 1.01,7.09 3.37,9.57 5.77,5.8 14.05,8.2 21.98,9.15 10.27,0.93 21.16,0.02 30.27,-5.2 4.5801,-2.63 8.86,-6.9901 8.9401,-12.6 0.07,-1.77 -0.76,-2.55 -2.49,-2.33 z"
         id="path3541" />
      <path
         style="fill:#373536;stroke:#000000"
         inkscape:connector-curvature="0"
         d="m 1602.48,886.66 c 8.28,-1.93 17.12,4.83 17.6,13.28 0.88,8.37 -6.6599,16.48 -15.11,15.9 -7.7899,0.09 -14.6699,-7.09 -14.36,-14.85 -0.07,-6.79 5.2099,-13.09 11.87,-14.33 z"
         id="path3543" />
      <path
         style="fill:#373536;stroke:#000000"
         inkscape:connector-curvature="0"
         d="m 1762.4399,886.56 c 8.1101,-1.5 16.65,5.11 17,13.41 0.9401,8.17 -6.23,16.02 -14.4299,15.89 -8.03,0.45 -15.3101,-6.89 -15,-14.87 -0.1,-6.99 5.5501,-13.41 12.4299,-14.43 z"
         id="path3545" />
      <path
         style="fill:#373536;stroke:#000000"
         inkscape:connector-curvature="0"
         d="m 1715.04,968.66 c 1.73,-0.22 2.5599,0.56 2.49,2.33 -0.08,5.61 -4.36,9.97 -8.9401,12.6 -9.11,5.22 -20,6.1299 -30.27,5.2 -7.9299,-0.95 -16.21,-3.35 -21.98,-9.15 -2.36,-2.48 -4.5499,-6.07 -3.37,-9.57 0.49,-0.05 1.47,-0.13 1.9601,-0.17 1.36,2.93 1.9399,6.42 4.75,8.44 7.3099,5.96 17.1599,7.5699 26.35,7.54 8.9299,-0.32 18.6599,-2.1 25.3099,-8.56 2.6201,-2.2 2.3101,-5.84 3.7001,-8.66 z"
         id="path3547" />
    </g>
  </g>
</svg>
