<?xml version="1.0" encoding="UTF-8" standalone="no"?>
<!-- Created with Inkscape (http://www.inkscape.org/) -->

<svg
   xmlns:dc="http://purl.org/dc/elements/1.1/"
   xmlns:cc="http://creativecommons.org/ns#"
   xmlns:rdf="http://www.w3.org/1999/02/22-rdf-syntax-ns#"
   xmlns:svg="http://www.w3.org/2000/svg"
   xmlns="http://www.w3.org/2000/svg"
   xmlns:sodipodi="http://sodipodi.sourceforge.net/DTD/sodipodi-0.dtd"
   xmlns:inkscape="http://www.inkscape.org/namespaces/inkscape"
   width="480"
   height="288"
   id="svg2"
   version="1.1"
   inkscape:version="0.92.1 r15371"
   sodipodi:docname="wesa.svg"
   viewBox="0 0 450 270"
   inkscape:export-filename="wesa.png"
   inkscape:export-xdpi="300"
   inkscape:export-ydpi="300">
  <defs
     id="defs4" />
  <sodipodi:namedview
     id="base"
     pagecolor="#ffffff"
     bordercolor="#666666"
     borderopacity="1.0"
     inkscape:pageopacity="0.0"
     inkscape:pageshadow="2"
     inkscape:zoom="2.8"
     inkscape:cx="170.89286"
     inkscape:cy="135"
     inkscape:document-units="px"
     inkscape:current-layer="layer1"
     showgrid="false"
     units="px"
     inkscape:window-width="1920"
     inkscape:window-height="1003"
     inkscape:window-x="0"
     inkscape:window-y="25"
     inkscape:window-maximized="1"
     borderlayer="true"
     showguides="true" />
  <metadata
     id="metadata7">
    <rdf:RDF>
      <cc:Work
         rdf:about="">
        <dc:format>image/svg+xml</dc:format>
        <dc:type
           rdf:resource="http://purl.org/dc/dcmitype/StillImage" />
        <dc:title />
      </cc:Work>
    </rdf:RDF>
  </metadata>
  <g
     inkscape:label="Layer 1"
     inkscape:groupmode="layer"
     id="layer1"
     transform="translate(0,-782.36218)">
    <rect
       style="opacity:1;fill:#ffffff;fill-opacity:1;fill-rule:nonzero;stroke:#000000;stroke-width:4.04577875;stroke-linecap:round;stroke-linejoin:round;stroke-miterlimit:4;stroke-dasharray:none;stroke-dashoffset:0;stroke-opacity:1"
       id="rect3749"
       width="445.95422"
       height="265.95422"
       x="2.0228882"
       y="784.38507" />
    <g
       id="layer1-9"
       inkscape:label="Layer 1"
       transform="translate(-35.756307,507.10901)">
      <g
         id="Layer_1"
         transform="translate(-244.49951,955.86218)" />
    </g>
    <g
       id="g3341"
       transform="translate(-2014.6385,527.53864)"
       style="stroke:#000000">
      <path
         style="fill:#373536;stroke:#000000"
         inkscape:connector-curvature="0"
         d="m 1113.83,192.79 c 8.17,-3.85 17.6001,-6.28 26.5601,-4.03 4.97,1.19 9.42,4.45 11.79,9 3.4199,6.59 5.1899,13.89 6.2999,21.18 11.9301,-6.01 25.05,-10.17 38.52,-10.07 13.6,-0.18 26.89,3.93 38.92,10.04 1.39,-7.83 3.1499,-15.85 7.33,-22.72 4.77,-7.29 14.34,-9.17 22.46,-8.01 14.8101,2.27 28.29,10.96 37.41,22.72 4.96,6.61 8.8,15.02 7.13,23.44 -0.78,4.41 -3.58,8.12 -6.9,10.99 -6.0599,5.43 -13.1,9.65 -20.4299,13.12 23.09,28.06 41.1899,59.97 55.26,93.41 8.2599,19.86 15.38,40.34 19.23,61.55 0.85,4.04 0.64,8.19 0.6899,12.3 6.3301,-0.03 12.67,-0.16 19,0.08 -0.01,0.79 -0.05,2.39 -0.06,3.19 -6.3401,0.06 -12.6801,0 -19.01,0.04 -0.06,3.26 0.2899,6.58 -0.4,9.79 -1.1,3.64 -2.84,7.05 -4.3101,10.54 6.5,2.06 13.1001,3.8 19.63,5.81 1.87,0.22 1.0701,2.37 1.1101,3.6 -7.4301,-1.72 -14.6201,-4.31 -22.02,-6.17 -2.1901,5.85 -5.48,11.19 -9.6901,15.8 -13.41,15.4 -31.4,26.05 -50.09,33.81 -37.02,14.99 -77.71,19.46 -117.36,16.62 -25.6901,-2.19 -51.28,-7.52 -75.0601,-17.64 -13.84,-5.96 -27.11,-13.52 -38.46,-23.5 -6.98,-6.25 -13.5699,-13.26 -17.41,-21.92 -3.71,0.98 -7.39,2.04 -11.08,3.04 -0.1,-0.68 -0.29,-2.05 -0.39,-2.73 2.8,-1.97 6.49,-2.2 9.71,-3.27 -1.58,-3.79 -3.9399,-7.27 -4.75,-11.35 -1.1599,-4.05 -1.12,-8.28 -1.09,-12.44 -6.34,-0.07 -12.68,0.16 -19.01,-0.13 -0.02,-0.73 -0.05,-2.19 -0.07,-2.93 6.37,-0.6 12.78,-0.13 19.17,-0.28 -0.6699,-10.94 2.4501,-21.6 5.15,-32.07 7.3,-25.93 17.79,-50.89 30.24,-74.75 11.23,-21.27 24.16,-41.74 39.6801,-60.15 -8.62,-4.76 -17.64,-9.52 -24.04,-17.22 -5.0599,-6.24 -4.39,-15.24 -1.14,-22.15 5.4699,-11.84 15.9,-20.88 27.48,-26.54 m 2.15,7.19 c -9.95,5.17 -19.1,13.07 -23.4199,23.64 -2.1101,4.8 -2.0901,11.05 2.0399,14.79 8.28,7.92 18.6901,13.46 29.5601,16.94 -28.91,32.26 -50.03,70.83 -65.7201,111.03 -4.4299,11.98 -8.86,24.07 -11.47,36.6 6.42,-11.75 16.11,-21.38 27,-29.04 16.17,-11.34 34.6901,-18.96 53.64,-24.24 24.17,-6.65 49.33,-9.43 74.37,-8.95 21.24,0.22 42.4501,3.02 63,8.42 19.04,5.17 37.6801,12.59 54.0601,23.74 11.61,7.85 21.75,17.98 28.72,30.19 -4.99,-19.99 -12.24,-39.36 -20.65,-58.15 -14.7,-32.28 -32.91,-63.33 -56.95,-89.58 8.9,-2.65 17.23,-7.04 24.6699,-12.57 2.4,-1.86 4.8301,-3.79 6.63,-6.26 2.7001,-3.89 1.9501,-9.06 0.37,-13.24 -4.1799,-9.81 -12.5199,-17.27 -21.6499,-22.44 -6.9,-3.75 -14.8601,-6.46 -22.79,-5.24 -3.9301,0.51 -7.5601,2.98 -9.12,6.67 -4.0801,9.03 -5.7001,19 -5.9301,28.85 -8.5399,-5.09 -17.37,-9.96 -27.08,-12.42 -12.1,-3.42 -25.15,-3.29 -37.1901,0.32 -9.3099,2.52 -17.7999,7.2 -25.97,12.2 -0.1,-9.52 -1.77,-19.12 -5.39,-27.95 -1.34,-3.45 -4.1499,-6.35 -7.7999,-7.25 -7.79,-2.04 -15.93,0.49 -22.93,3.94 m 60.7001,143.9 c -23.2201,1.65 -46.3101,6.31 -68.0701,14.66 -18.28,7.17 -36.01,17.02 -49.4399,31.6 -8.99,9.71 -15.3401,22.17 -16.14,35.53 15.97,0.08 31.95,-0.23 47.9099,0.15 -0.01,0.78 -0.03,2.33 -0.04,3.11 -15.97,0.21 -31.9401,-0.06 -47.91,0.14 0.52,7.53 2.4401,14.94 5.9301,21.65 18.46,-5.23 36.7799,-11.04 55.33,-15.97 0.2,1.58 0.34,3.73 -1.8199,3.77 -17.2301,5.2 -34.63,9.9 -51.79,15.34 5.67,9.21 13.38,17.02 22.01,23.48 13.23,9.87 28.33,17 43.9,22.31 22.0399,7.49 45.24,11.19 68.4399,12.34 24.87,0.97 49.92,-1.06 74.13,-6.9 20.09,-4.95 39.8199,-12.31 57.12,-23.8 11.85,-7.85 22.52,-17.93 29.36,-30.52 -14.33,-4.67 -28.98,-8.32 -43.2999,-13.02 0.02,-0.69 0.08,-2.06 0.11,-2.75 2.99,0.11 5.8099,1.22 8.6799,2.03 11.9701,3.55 23.98,7.02 35.9701,10.55 2.5699,-5.86 4.08,-12.17 4.33,-18.56 -15.9,-0.03 -31.8,-0.03 -47.6901,0 -0.03,-0.82 -0.08,-2.47 -0.1,-3.3 15.85,-0.1 31.7001,-0.13 47.55,0.03 0.01,-9.65 -3.8,-18.97 -9.04,-26.93 -8.54,-12.7 -20.91,-22.33 -34.09,-29.85 -17.25,-9.8 -36.28,-16.11 -55.61,-20.29 -24.8501,-5.09 -50.4302,-6.82 -75.7301,-4.8 z"
         id="path3343" />
      <path
         style="fill:#ffffff;stroke:#000000"
         inkscape:connector-curvature="0"
         d="m 1115.98,199.98 c 7,-3.45 15.14,-5.98 22.9301,-3.94 3.65,0.9 6.46,3.8 7.7999,7.25 3.62,8.83 5.29,18.43 5.39,27.95 8.17,-5 16.66,-9.68 25.97,-12.2 12.04,-3.61 25.0901,-3.74 37.1901,-0.32 9.71,2.46 18.54,7.33 27.08,12.42 0.23,-9.85 1.85,-19.82 5.9301,-28.85 1.5599,-3.69 5.1899,-6.16 9.12,-6.67 7.9299,-1.22 15.89,1.49 22.79,5.24 9.13,5.17 17.47,12.63 21.6499,22.44 1.5801,4.18 2.3301,9.35 -0.37,13.24 -1.7999,2.47 -4.23,4.4 -6.63,6.26 -7.4399,5.53 -15.7699,9.92 -24.6699,12.57 24.0399,26.25 42.25,57.3 56.95,89.58 8.41,18.79 15.66,38.16 20.65,58.15 -6.97,-12.21 -17.11,-22.34 -28.72,-30.19 -16.38,-11.15 -35.02,-18.57 -54.0601,-23.74 -20.5499,-5.4 -41.76,-8.2 -63,-8.42 -25.04,-0.48 -50.2,2.3 -74.37,8.95 -18.95,5.28 -37.47,12.9 -53.64,24.24 -10.89,7.66 -20.58,17.29 -27,29.04 2.61,-12.53 7.04,-24.62 11.47,-36.6 15.6901,-40.2 36.8101,-78.77 65.7201,-111.03 -10.87,-3.48 -21.28,-9.02 -29.5601,-16.94 -4.13,-3.74 -4.15,-9.99 -2.0399,-14.79 4.3198,-10.57 13.4698,-18.47 23.4198,-23.64 m 10.36,10.32 c -8.2799,1.7 -16.48,8 -17.88,16.7 -0.5299,5.06 4.28,8.09 7.8101,10.72 5.52,3.61 11.86,7.44 18.72,6.67 2.89,-1.48 5.71,-4.02 5.85,-7.51 0.8201,-7.69 -0.74,-15.65 -4.09,-22.62 -1.8501,-3.8 -6.6101,-4.71 -10.4101,-3.96 m 136.06,0.21 c -2.72,0.68 -4.64,2.98 -5.53,5.54 -2.47,6.51 -4.15,13.57 -3.3199,20.56 0.34,4.48 4.7799,8.83 9.4299,7.87 6.64,-1.05 12.5601,-4.66 17.8301,-8.68 2.1599,-1.83 4.8099,-3.82 5.12,-6.87 0.6,-5.54 -3.2201,-10.34 -7.2301,-13.67 -4.5199,-3.51 -10.5101,-6.2 -16.3,-4.75 m -116.0801,86.64 c -4.49,1.59 -6.5199,6.52 -7.23,10.88 -0.73,5.7 0.03,12.27 4.3301,16.49 2.59,2.7 7.25,2.33 9.5499,-0.56 4.5801,-5.34 4.91,-13.25 2.8401,-19.7 -1.34,-3.89 -4.8799,-8.32 -9.4901,-7.11 m 98.0801,0.23 c -3.29,1.35 -5.05,4.75 -6.0601,7.95 -1.7799,6.29 -1.12,13.87 3.41,18.87 2.4,2.82 7.13,2.89 9.5601,0.07 5.3999,-6.03 5.6799,-15.57 1.96,-22.53 -1.5801,-3.12 -5.29,-5.93 -8.87,-4.36 z"
         id="path3345" />
      <path
         style="fill:#373536;stroke:#000000"
         inkscape:connector-curvature="0"
         d="m 1126.34,210.3 c 3.8,-0.75 8.5601,0.16 10.41,3.96 3.35,6.97 4.91,14.93 4.09,22.62 -0.14,3.49 -2.96,6.03 -5.85,7.51 -6.86,0.77 -13.2,-3.06 -18.72,-6.67 -3.53,-2.63 -8.34,-5.66 -7.8101,-10.72 1.4001,-8.7 9.6002,-15 17.8801,-16.7 m -9.46,14.66 c -0.61,1.02 -1.63,2.47 -0.38,3.47 3.6899,3.58 8.29,6.18 13.0699,8.03 1.3301,0.39 3.8501,1.46 4.0601,-0.81 0.55,-6.28 -1,-12.6 -3.51,-18.33 -5.3001,0.32 -10.4301,3.11 -13.24,7.64 z"
         id="path3347" />
      <path
         style="fill:#373536;stroke:#000000"
         inkscape:connector-curvature="0"
         d="m 1262.4,210.51 c 5.7899,-1.45 11.78,1.24 16.2999,4.75 4.01,3.33 7.8301,8.13 7.2301,13.67 -0.3101,3.05 -2.9601,5.04 -5.12,6.87 -5.27,4.02 -11.1901,7.63 -17.8301,8.68 -4.65,0.96 -9.09,-3.39 -9.4299,-7.87 -0.8301,-6.99 0.85,-14.05 3.3199,-20.56 0.8901,-2.56 2.8102,-4.86 5.5301,-5.54 m 1.6601,7 c -2.2301,6.24 -4.05,12.91 -2.9401,19.58 5.65,-0.35 10.55,-3.73 15,-6.95 0.92,-1.04 3.3101,-2 2.3,-3.7 -2.6001,-5.32 -8.37,-9.13 -14.3599,-8.93 z"
         id="path3349" />
      <path
         style="fill:#ffffff;stroke:#000000"
         inkscape:connector-curvature="0"
         d="m 1116.88,224.96 c 2.8099,-4.53 7.9399,-7.32 13.24,-7.64 2.51,5.73 4.0601,12.05 3.51,18.33 -0.21,2.27 -2.73,1.2 -4.0601,0.81 -4.7799,-1.85 -9.38,-4.45 -13.0699,-8.03 -1.25,-1 -0.23,-2.45 0.38,-3.47 z"
         id="path3351" />
      <path
         style="fill:#ffffff;stroke:#000000"
         inkscape:connector-curvature="0"
         d="m 1264.0601,217.51 c 5.99,-0.2 11.7599,3.61 14.36,8.93 1.01,1.7 -1.38,2.66 -2.3,3.7 -4.45,3.22 -9.35,6.6 -15,6.95 -1.1101,-6.67 0.7099,-13.34 2.94,-19.58 z"
         id="path3353" />
      <path
         style="fill:#373536;stroke:#000000"
         inkscape:connector-curvature="0"
         d="m 1146.3199,297.15 c 4.6101,-1.21 8.15,3.22 9.4901,7.11 2.0699,6.45 1.74,14.36 -2.8401,19.7 -2.2999,2.89 -6.96,3.26 -9.5499,0.56 -4.3,-4.22 -5.0601,-10.79 -4.3301,-16.49 0.7101,-4.36 2.7401,-9.29 7.23,-10.88 z"
         id="path3355" />
      <path
         style="fill:#373536;stroke:#000000"
         inkscape:connector-curvature="0"
         d="m 1244.4,297.38 c 3.58,-1.57 7.2899,1.24 8.87,4.36 3.72,6.96 3.4399,16.5 -1.96,22.53 -2.4301,2.82 -7.16,2.75 -9.5601,-0.07 -4.53,-5 -5.1899,-12.58 -3.41,-18.87 1.0101,-3.2 2.7701,-6.6 6.0601,-7.95 z"
         id="path3357" />
      <path
         style="fill:#ffffff;stroke:#000000"
         inkscape:connector-curvature="0"
         d="m 1176.6801,343.88 c 25.2999,-2.02 50.88,-0.29 75.73,4.8 19.33,4.18 38.36,10.49 55.61,20.29 13.1799,7.52 25.5499,17.15 34.09,29.85 5.24,7.96 9.05,17.28 9.04,26.93 -15.85,-0.16 -31.7001,-0.13 -47.55,-0.03 0.02,0.83 0.07,2.48 0.1,3.3 15.89,-0.03 31.79,-0.03 47.6901,0 -0.25,6.39 -1.76,12.7 -4.33,18.56 -11.9901,-3.53 -24,-7 -35.9701,-10.55 -2.87,-0.81 -5.6899,-1.92 -8.6799,-2.03 -0.03,0.69 -0.09,2.06 -0.11,2.75 14.3199,4.7 28.97,8.35 43.2999,13.02 -6.84,12.59 -17.51,22.67 -29.36,30.52 -17.3,11.49 -37.03,18.85 -57.12,23.8 -24.21,5.84 -49.26,7.87 -74.13,6.9 -23.2,-1.15 -46.4,-4.85 -68.4399,-12.34 -15.5701,-5.31 -30.67,-12.44 -43.9,-22.31 -8.63,-6.46 -16.34,-14.27 -22.01,-23.48 17.16,-5.44 34.5599,-10.14 51.79,-15.34 2.1599,-0.04 2.0199,-2.19 1.8199,-3.77 -18.55,4.93 -36.87,10.74 -55.33,15.97 -3.49,-6.71 -5.41,-14.12 -5.9301,-21.65 15.97,-0.2 31.9401,0.07 47.91,-0.14 0.01,-0.78 0.03,-2.33 0.04,-3.11 -15.96,-0.38 -31.9399,-0.07 -47.9099,-0.15 0.7999,-13.36 7.15,-25.82 16.14,-35.53 13.4299,-14.58 31.1599,-24.43 49.4399,-31.6 21.7601,-8.35 44.8501,-13.01 68.0702,-14.66 M 1159.99,355.1 c -3.91,1.32 -8.4299,2.59 -10.8,6.23 -0.9399,2.89 1.16,5.53 2.64,7.82 10.4501,13.6 26.7201,22.58 43.8401,24.02 -0.15,18.68 -0.08,37.36 -0.03,56.04 0.84,0.01 2.52,0.03 3.37,0.03 0,-18.72 -0.05,-37.44 0.02,-56.16 15.7999,-1.21 30.7,-9.15 41.1899,-20.91 2.3,-2.71 4.6801,-5.63 5.47,-9.18 -0.4099,-3.58 -4.2699,-5.13 -7.12,-6.47 -10.38,-3.9 -21.5699,-5.02 -32.5699,-5.59 -15.4101,-0.43 -31.0901,-0.08 -46.0101,4.17 z"
         id="path3359" />
      <path
         style="fill:#373536;stroke:#000000"
         inkscape:connector-curvature="0"
         d="m 1159.99,355.1 c 14.92,-4.25 30.6,-4.6 46.01,-4.17 11,0.57 22.1899,1.69 32.5699,5.59 2.8501,1.34 6.7101,2.89 7.12,6.47 -0.7899,3.55 -3.1699,6.47 -5.47,9.18 -10.49,11.76 -25.39,19.7 -41.1899,20.91 -0.07,18.72 -0.02,37.44 -0.02,56.16 -0.85,0 -2.53,-0.02 -3.37,-0.03 -0.05,-18.68 -0.12,-37.36 0.03,-56.04 -17.12,-1.44 -33.39,-10.42 -43.8401,-24.02 -1.48,-2.29 -3.58,-4.93 -2.64,-7.82 2.3702,-3.64 6.8901,-4.91 10.8001,-6.23 z"
         id="path3361" />
    </g>
    <g
       id="g3363"
       transform="translate(-2014.6385,527.53864)"
       style="stroke:#000000">
      <path
         style="fill:#373536;stroke:#000000"
         inkscape:connector-curvature="0"
         d="m 1675.3101,129.23 c 26.1,-1.57 52.5399,1.68 77.2999,10.21 31.89,10.77 60.78,29.67 84.36,53.59 27.16,27.6 47.4,61.77 59.5,98.5 13.8,41.57 17.16,86.42 10.66,129.68 -6.46,42.27 -22.86,83.15 -48.42,117.51 -22.22,29.9301 -51.47,54.89 -85.34,70.66 -40.33,19.01 -87.1,24.07 -130.5,13.71 -34.75,-8.06 -67,-25.71 -93.36,-49.63 -26.3101,-23.75 -47.01,-53.5 -60.99,-86.03 -34.63,-80.11 -28.6,-177.04 17.54,-251.39 19.12,-30.91 45.0599,-57.83 76.12,-76.86 28.03,-17.29 60.23,-27.84 93.1301,-29.95 m -2.7701,7.63 c -41.75,3.32 -81.8201,21.06 -113.4601,48.29 -25.9199,22.1 -46.5199,50.16 -60.87,81 -36.3199,78.17 -32.12,174.24 12.42,248.25 19.55,32.68 46.97,60.88 80,80 36.34,21.18 79.66,30.54 121.4399,25.05 38.3,-4.6 74.7201,-21.42 104.13,-46.21 26.87,-22.54 48.1801,-51.43 62.77,-83.26 35.63,-77.52 31.51,-172.39 -12.11,-245.91 -18.99,-32.15 -45.5,-60.08 -77.5499,-79.39 -34.74,-21.2 -76.1799,-31.26 -116.7699,-27.82 z"
         id="path3365" />
      <path
         style="fill:#ffffff;stroke:#000000"
         inkscape:connector-curvature="0"
         d="m 1672.54,136.86 c 40.59,-3.44 82.0299,6.62 116.77,27.82 32.0499,19.31 58.5599,47.24 77.5499,79.39 43.62,73.52 47.74,168.39 12.11,245.91 -14.59,31.83 -35.9,60.72 -62.77,83.26 -29.4099,24.79 -65.83,41.61 -104.13,46.21 -41.7799,5.49 -85.1,-3.87 -121.4399,-25.05 -33.03,-19.12 -60.45,-47.32 -80,-80 -44.54,-74.01 -48.74,-170.08 -12.42,-248.25 14.3501,-30.84 34.9501,-58.9 60.87,-81 31.64,-27.23 71.71,-44.97 113.46,-48.29 m -58.16,57.53 c -11.13,3.47 -21.17,10.46 -28.2,19.76 -3.92,5.35 -7.13,11.93 -6.0801,18.73 0.4301,3.52 2.72,6.43 5.3101,8.71 7.47,6.63 16.39,11.43 25.65,15.08 -8.4501,9.16 -15.9,19.2 -22.91,29.49 -23.2101,34.5 -40.52,72.92 -51.03,113.15 -2.65,10.37 -6.17,20.84 -5.27,31.7 1.02,15.37 9.5,29.26 20.4,39.74 13.73,13.32 30.98,22.42 48.75,29.15 39.3,14.43 82.2,17.61 123.59,12.46 24.2001,-3.29 48.1901,-9.65 70.03,-20.76 14.2,-7.33 27.65,-16.77 37.58,-29.44 10.4801,-12.95 15.42,-30.54 11.4401,-46.91 -3.21,-20.63 -10.29,-40.42 -18.15,-59.69 -14.9,-35.69 -34.27,-69.81 -59.6899,-99.1 8.26,-2.96 16.0299,-7.27 22.9399,-12.69 3.3,-2.69 6.88,-5.75 7.75,-10.15 1.28,-6.16 -1.23,-12.41 -4.58,-17.49 -5.3301,-8 -13.02,-14.27 -21.5701,-18.57 -6.85,-3.27 -14.5599,-5.64 -22.2,-4.41 -4.4401,0.65 -8.67,3.29 -10.64,7.4 -4.0601,8.18 -5.4399,17.33 -6.48,26.31 -9.9501,-6 -20.88,-10.6 -32.4301,-12.3 -18.49,-3.02 -37.2899,2.76 -53.0299,12.34 -0.7201,-8.73 -2.29,-17.53 -5.9301,-25.55 -1.46,-3.36 -4.25,-6.08 -7.71,-7.29 -5.6499,-2.06 -11.8899,-1.31 -17.5399,0.33 z"
         id="path3367" />
      <path
         style="fill:#373536;stroke:#000000"
         inkscape:connector-curvature="0"
         d="m 1614.38,194.39 c 5.65,-1.64 11.89,-2.39 17.54,-0.33 3.46,1.21 6.25,3.93 7.71,7.29 3.64,8.02 5.21,16.82 5.9301,25.55 15.74,-9.58 34.5399,-15.36 53.0299,-12.34 11.55,1.7 22.48,6.3 32.4301,12.3 1.04,-8.98 2.4199,-18.13 6.48,-26.31 1.97,-4.11 6.2,-6.75 10.64,-7.4 7.64,-1.23 15.35,1.14 22.2,4.41 8.55,4.3 16.24,10.57 21.5701,18.57 3.35,5.08 5.86,11.33 4.58,17.49 -0.87,4.4 -4.45,7.46 -7.75,10.15 -6.91,5.42 -14.6799,9.73 -22.9399,12.69 25.4199,29.29 44.7899,63.41 59.6899,99.1 7.86,19.27 14.9401,39.06 18.15,59.69 3.98,16.37 -0.96,33.96 -11.4401,46.91 -9.9299,12.67 -23.38,22.11 -37.58,29.44 -21.84,11.11 -45.83,17.47 -70.03,20.76 -41.39,5.15 -84.2899,1.97 -123.59,-12.46 -17.77,-6.73 -35.02,-15.83 -48.75,-29.15 -10.9,-10.48 -19.38,-24.37 -20.4,-39.74 -0.9,-10.86 2.62,-21.33 5.27,-31.7 10.51,-40.23 27.8199,-78.65 51.03,-113.15 7.01,-10.29 14.46,-20.33 22.91,-29.49 -9.26,-3.65 -18.1801,-8.45 -25.65,-15.08 -2.5901,-2.28 -4.88,-5.19 -5.3101,-8.71 -1.0499,-6.8 2.16,-13.38 6.0801,-18.73 7.0299,-9.3 17.0699,-16.29 28.1999,-19.76 m 0.33,2.46 c -9.6899,3.12 -18.45,9.08 -25.01,16.84 -3.83,4.63 -7.09,10.17 -7.3999,16.3 -0.26,3.9 1.9399,7.43 4.85,9.85 8.15,7.08 17.87,12.27 28.14,15.55 -23.9401,26.48 -42.3101,57.52 -56.98,89.94 -8.25,18.44 -15.3701,37.46 -20.25,57.08 3.2999,-4.48 6.0499,-9.38 9.9199,-13.43 15.97,-17.55 37.8101,-28.53 60.01,-36.03 25.12,-8.26 51.6,-12.13 78.02,-12.24 23.5699,-0.31 47.1799,2.45 69.98,8.43 18.37,4.97 36.33,12.04 52.29,22.52 12.39,7.99 23.13,18.57 30.59,31.34 -5.38,-21.47 -13.34,-42.22 -22.59,-62.3 -14.37,-30.62 -31.87,-60.16 -54.88,-85.12 11.03,-4.07 22.0399,-9.34 30.2899,-17.94 4,-4.37 2.9301,-11 0.5601,-15.91 -4.67,-9.51 -13.09,-16.73 -22.34,-21.61 -6.8,-3.45 -14.64,-5.89 -22.29,-4.35 -3.9399,0.72 -7.2,3.62 -8.61,7.32 -3.77,8.84 -5.3201,18.51 -5.64,28.07 -12.4301,-7.9 -26.41,-14.07 -41.3,-14.83 -17.45,-1.15 -34.3199,5.56 -48.75,14.87 -0.13,-8.31 -1.5599,-16.58 -4.1499,-24.47 -1.36,-3.84 -3.0901,-8.15 -7.0701,-9.92 -5.49,-2.46 -11.7899,-1.57 -17.39,0.04 m -12.1499,160.63 c -17.65,6.57 -34.7101,15.59 -48.42,28.67 -10.85,10.37 -19.2001,24.22 -19.98,39.49 15.97,0.13 31.9399,-0.18 47.9,0.16 -0.03,0.79 -0.08,2.36 -0.1101,3.15 -15.9399,0.19 -31.8899,-0.11 -47.83,0.15 0.38,7.54 2.51,14.92 5.91,21.65 18.4299,-5.3 36.76,-10.99 55.26,-16.02 0.46,1.64 0.3199,3.76 -1.8301,3.82 -17.23,5.17 -34.6,9.92 -51.76,15.32 5.74,9.14 13.37,16.98 22,23.41 15.9401,11.93 34.53,19.85 53.5601,25.39 41.1899,11.54 85.1799,12.5 127.01,3.8 21.25,-4.64 42.1699,-11.94 60.65,-23.59 12.8199,-8.12 24.5199,-18.64 31.7899,-32.13 -14.3999,-4.66 -29.1,-8.32 -43.46,-13.06 0.1899,-1 0.42,-1.99 0.6801,-2.98 14.7899,4.14 29.49,8.6 44.24,12.87 2.51,-5.87 4.1899,-12.15 4.2999,-18.56 -15.88,-0.03 -31.76,-0.03 -47.64,0 -0.02,-0.82 -0.07,-2.45 -0.09,-3.27 15.96,-0.39 31.9401,0.3 47.89,-0.34 -0.85,-10.46 -4.8199,-20.56 -11.0601,-28.97 -8.96,-12.17 -21.35,-21.38 -34.48,-28.62 -21.08,-11.43 -44.4399,-18.12 -68.0499,-21.74 -42.22,-6.1 -86.22,-3.19 -126.4798,11.4 z"
         id="path3369" />
      <path
         style="fill:#ffffff;stroke:#000000"
         inkscape:connector-curvature="0"
         d="m 1614.71,196.85 c 5.6001,-1.61 11.9,-2.5 17.39,-0.04 3.98,1.77 5.7101,6.08 7.0701,9.92 2.59,7.89 4.0199,16.16 4.1499,24.47 14.4301,-9.31 31.3,-16.02 48.75,-14.87 14.89,0.76 28.87,6.93 41.3,14.83 0.3199,-9.56 1.87,-19.23 5.64,-28.07 1.41,-3.7 4.67,-6.6 8.61,-7.32 7.65,-1.54 15.49,0.9 22.29,4.35 9.25,4.88 17.6699,12.1 22.34,21.61 2.37,4.91 3.4399,11.54 -0.5601,15.91 -8.25,8.6 -19.2599,13.87 -30.2899,17.94 23.01,24.96 40.51,54.5 54.88,85.12 9.25,20.08 17.21,40.83 22.59,62.3 -7.46,-12.77 -18.2,-23.35 -30.59,-31.34 -15.9601,-10.48 -33.92,-17.55 -52.29,-22.52 -22.8,-5.98 -46.41,-8.74 -69.98,-8.43 -26.42,0.11 -52.9,3.98 -78.02,12.24 -22.2,7.5 -44.04,18.48 -60.01,36.03 -3.87,4.05 -6.62,8.95 -9.9199,13.43 4.8799,-19.62 12,-38.64 20.25,-57.08 14.6699,-32.42 33.0399,-63.46 56.98,-89.94 -10.27,-3.28 -19.99,-8.47 -28.14,-15.55 -2.91,-2.42 -5.11,-5.95 -4.85,-9.85 0.3099,-6.13 3.5699,-11.67 7.3999,-16.3 6.56,-7.76 15.32,-13.72 25.01,-16.84 m 1.66,13.69 c -6.33,1.57 -12.09,5.75 -15.24,11.5 -1.84,3.41 -2.41,8.26 0.74,11.1 4.71,4.6 10.45,8.21 16.6801,10.39 3.24,1.01 7.47,2.09 10.11,-0.83 4.1,-2.85 3.62,-8.38 3.4099,-12.76 -0.6,-5.39 -1.74,-10.87 -4.23,-15.72 -2.07,-4.16 -7.43,-4.78 -11.47,-3.68 m 137.02,0.02 c -4.4,1.15 -5.74,6.05 -6.9501,9.85 -1.6299,6.41 -3.1299,13.47 -0.6899,19.87 1.7,2.22 4.15,4.66 7.23,4.3 7.05,-0.69 13.35,-4.52 18.87,-8.74 2.41,-2.01 5.42,-4.36 5.22,-7.86 -0.01,-5.94 -4.38,-10.87 -9.0499,-14.04 -4.2701,-2.71 -9.5701,-4.8 -14.6301,-3.38 m -116.06,86.65 c -3.13,1.03 -5.0199,4 -6.14,6.92 -2.09,6.09 -1.7899,13.35 1.91,18.78 1.77,2.77 5.48,4.48 8.61,2.91 3.63,-2.03 5.4,-6.17 6.0801,-10.1 0.72,-5.27 0.26,-11.1 -3.02,-15.49 -1.6801,-2.22 -4.6101,-4.02 -7.4401,-3.02 m 98.1001,0.22 c -4.3601,2.04 -6.2101,7.06 -6.65,11.57 -0.54,5.46 0.3199,11.74 4.5599,15.64 2.0601,2.06 5.53,2.33 7.91,0.63 3.3,-2.42 4.8199,-6.54 5.33,-10.47 0.5801,-5.13 -0.09,-10.82 -3.47,-14.93 -1.78,-2.2 -4.95,-3.82 -7.6799,-2.44 z"
         id="path3371" />
      <path
         style="fill:#373536;stroke:#000000"
         inkscape:connector-curvature="0"
         d="m 1616.37,210.54 c 4.04,-1.1 9.4,-0.48 11.47,3.68 2.49,4.85 3.63,10.33 4.23,15.72 0.2101,4.38 0.6901,9.91 -3.4099,12.76 -2.64,2.92 -6.87,1.84 -10.11,0.83 -6.2301,-2.18 -11.9701,-5.79 -16.6801,-10.39 -3.15,-2.84 -2.58,-7.69 -0.74,-11.1 3.15,-5.75 8.91,-9.93 15.24,-11.5 M 1603,227.82 c 3.4301,3.41 7.37,6.28 11.61,8.63 4.13,2.11 8.4,4.83 13.24,4.47 1.65,-9.32 -0.4199,-19.32 -4.61,-27.74 -8.76,0.51 -17.34,6.21 -20.24,14.64 z"
         id="path3373" />
      <path
         style="fill:#373536;stroke:#000000"
         inkscape:connector-curvature="0"
         d="m 1753.39,210.56 c 5.0599,-1.42 10.36,0.67 14.63,3.38 4.6699,3.17 9.04,8.1 9.0499,14.04 0.2001,3.5 -2.8099,5.85 -5.22,7.86 -5.52,4.22 -11.8199,8.05 -18.87,8.74 -3.08,0.36 -5.53,-2.08 -7.23,-4.3 -2.4399,-6.4 -0.9399,-13.46 0.6899,-19.87 1.2102,-3.8 2.5502,-8.7 6.9502,-9.85 m -0.41,2.13 c -3.97,8.36 -5.9,17.92 -5.0699,27.14 0.49,3.14 3.97,1.67 5.9199,0.94 7.37,-3.02 14.66,-6.99 20.15,-12.86 -0.2999,-2.48 -1.8099,-4.64 -3.33,-6.54 -4.42,-5.07 -10.8399,-8.67 -17.67,-8.68 z"
         id="path3375" />
      <path
         style="fill:#ffffff;stroke:#000000"
         inkscape:connector-curvature="0"
         d="m 1752.98,212.69 c 6.8301,0.01 13.25,3.61 17.67,8.68 1.52,1.9 3.03,4.06 3.33,6.54 -5.49,5.87 -12.78,9.84 -20.15,12.86 -1.95,0.73 -5.4299,2.2 -5.9199,-0.94 -0.8301,-9.22 1.0999,-18.78 5.0699,-27.14 z"
         id="path3377" />
      <path
         style="fill:#ffffff;stroke:#000000"
         inkscape:connector-curvature="0"
         d="m 1603,227.82 c 2.9,-8.43 11.48,-14.13 20.24,-14.64 4.1901,8.42 6.26,18.42 4.61,27.74 -4.84,0.36 -9.11,-2.36 -13.24,-4.47 -4.24,-2.35 -8.1799,-5.22 -11.61,-8.63 z"
         id="path3379" />
      <path
         style="fill:#373536;stroke:#000000"
         inkscape:connector-curvature="0"
         d="m 1637.33,297.21 c 2.8301,-1 5.76,0.8 7.4401,3.02 3.28,4.39 3.74,10.22 3.02,15.49 -0.6801,3.93 -2.4501,8.07 -6.0801,10.1 -3.13,1.57 -6.84,-0.14 -8.61,-2.91 -3.7,-5.43 -4,-12.69 -1.91,-18.78 1.1201,-2.92 3.01,-5.89 6.14,-6.92 z"
         id="path3381" />
      <path
         style="fill:#373536;stroke:#000000"
         inkscape:connector-curvature="0"
         d="m 1735.4301,297.43 c 2.73,-1.38 5.8999,0.24 7.6799,2.44 3.38,4.11 4.05,9.8 3.47,14.93 -0.51,3.93 -2.0299,8.05 -5.33,10.47 -2.38,1.7 -5.85,1.43 -7.91,-0.63 -4.24,-3.9 -5.1,-10.18 -4.5599,-15.64 0.4399,-4.51 2.2898,-9.53 6.65,-11.57 z"
         id="path3383" />
      <path
         style="fill:#ffffff;stroke:#000000"
         inkscape:connector-curvature="0"
         d="m 1602.5601,357.48 c 40.2599,-14.59 84.2599,-17.5 126.48,-11.4 23.61,3.62 46.97,10.31 68.0499,21.74 13.13,7.24 25.52,16.45 34.48,28.62 6.2401,8.41 10.2101,18.51 11.0601,28.97 -15.95,0.64 -31.9301,-0.05 -47.89,0.34 0.02,0.82 0.07,2.45 0.09,3.27 15.88,-0.03 31.76,-0.03 47.64,0 -0.11,6.41 -1.7899,12.69 -4.2999,18.56 -14.75,-4.27 -29.4501,-8.73 -44.24,-12.87 -0.26,0.99 -0.4901,1.98 -0.6801,2.98 14.36,4.74 29.0601,8.4 43.46,13.06 -7.27,13.49 -18.97,24.01 -31.7899,32.13 -18.4801,11.65 -39.4,18.95 -60.65,23.59 -41.8301,8.7 -85.8201,7.74 -127.01,-3.8 -19.03,-5.54 -37.62,-13.46 -53.5601,-25.39 -8.63,-6.43 -16.26,-14.27 -22,-23.41 17.16,-5.4 34.53,-10.15 51.76,-15.32 2.15,-0.06 2.29,-2.18 1.8301,-3.82 -18.5,5.03 -36.8301,10.72 -55.26,16.02 -3.4,-6.73 -5.53,-14.11 -5.91,-21.65 15.9401,-0.26 31.89,0.04 47.83,-0.15 0.03,-0.79 0.08,-2.36 0.1101,-3.15 -15.9601,-0.34 -31.9301,-0.03 -47.9,-0.16 0.7799,-15.27 9.13,-29.12 19.98,-39.49 13.7097,-13.08 30.7697,-22.1 48.4198,-28.67 m 54.0599,-3.76 c -5.42,1.28 -11.29,2.52 -15.47,6.44 -2.62,2.71 0.05,6.42 1.73,8.88 10.39,13.66 26.7,22.66 43.83,24.12 -0.08,18.69 -0.06,37.38 -0.01,56.07 0.8401,0 2.54,0 3.38,0 -0.01,-18.72 0.02,-37.44 -0.02,-56.15 15.5699,-1.15 30.24,-8.87 40.74,-20.3 2.4199,-2.9 5.22,-5.92 5.8999,-9.77 -0.1899,-3.68 -4.3099,-5.22 -7.1599,-6.56 -10.7101,-3.95 -22.23,-5.06 -33.55,-5.57 -13.1702,-0.28 -26.4701,-0.05 -39.3701,2.84 z"
         id="path3385" />
      <path
         style="fill:#373536;stroke:#000000"
         inkscape:connector-curvature="0"
         d="m 1656.62,353.72 c 12.9,-2.89 26.2,-3.12 39.37,-2.84 11.3201,0.51 22.84,1.62 33.55,5.57 2.85,1.34 6.97,2.88 7.1599,6.56 -0.6799,3.85 -3.48,6.87 -5.8999,9.77 -10.5,11.43 -25.17,19.15 -40.74,20.3 0.04,18.71 0.01,37.43 0.02,56.15 -0.84,0 -2.5399,0 -3.38,0 -0.05,-18.69 -0.07,-37.38 0.01,-56.07 -17.13,-1.46 -33.4399,-10.46 -43.83,-24.12 -1.6801,-2.46 -4.35,-6.17 -1.73,-8.88 4.1801,-3.92 10.0501,-5.16 15.4701,-6.44 z"
         id="path3387" />
    </g>
    <g
       id="g3389"
       transform="matrix(0.60102476,0,0,0.60102476,286.06526,1256.1857)"
       style="stroke:#000000">
      <path
         style="fill:#373536;stroke:#000000"
         inkscape:connector-curvature="0"
         d="m 166.58,198.58 c 9.12,-6.49 20.11,-11.23 31.5,-10.61 6.3,0.36 12.82,3.29 16.08,8.92 3.89,6.74 5.52,14.46 6.92,22.03 13.78,-7.15 29.43,-11.27 45.02,-9.78 11.36,0.88 22.28,4.73 32.41,9.82 1.21,-7.96 3.1,-16.08 7.39,-22.99 4.78,-7.11 14.16,-8.88 22.15,-7.84 14.05,2.1 26.87,10.06 36.01,20.8 5.07,6.23 9.32,13.84 9.06,22.11 -0.01,4.24 -1.63,8.42 -4.53,11.53 -6.41,7.04 -14.9,11.62 -23.15,16.12 24.47,29.29 42.91,63.19 57.43,98.37 0.35,1.34 1.68,1.73 2.82,2.2 15.9,6.07 31.4,13.64 44.88,24.13 8.99,7.06 17.11,15.69 21.85,26.21 5.41,11.66 5.19,25.78 -0.58,37.27 -5.41,11.23 -14.61,20.13 -24.51,27.46 -18.05,13.05 -38.94,21.52 -60.11,28.05 -38.62,11.55 -79,16.49 -119.22,17.19 -45.89,0.6 -92.16,-4.13 -136.22,-17.34 C 108.24,494.9 84.81,485.25 65.74,469.28 55.16,460.25 45.89,448.47 43.65,434.4 41.2,421.01 46.4,407.24 54.92,396.97 c 12.67,-15.44 30.51,-25.52 48.51,-33.51 4.12,-2 8.61,-3.2 12.65,-5.36 14.73,-35.59 33.36,-69.87 57.99,-99.64 -8.55,-4.1 -16.93,-9.09 -23.4,-16.13 -5.08,-5.5 -5.28,-13.86 -2.81,-20.59 3.55,-9.48 10.62,-17.28 18.72,-23.16 m 0.81,8.76 c -5.7,4.87 -10.74,10.91 -13,18.16 -1.31,4.26 -0.95,9.43 2.45,12.65 8.29,8.21 18.99,13.52 29.88,17.41 -4.86,5.22 -9.46,10.69 -13.85,16.33 -20.78,27.11 -37.11,57.49 -49.8,89.15 22.68,-7.65 46.16,-12.77 69.87,-16.01 43.73,-5.77 88.26,-5.86 132.01,-0.19 24.23,3.22 48.26,8.34 71.41,16.22 -15.33,-38.29 -35.92,-74.9 -63.58,-105.69 10.9,-3.47 21.31,-9.04 29.63,-16.96 4.1,-3.73 4.03,-10 2.02,-14.79 -4.25,-10.33 -13.1,-18.09 -22.77,-23.3 -7.18,-3.65 -15.6,-6.37 -23.65,-4.26 -3.66,0.85 -6.39,3.82 -7.73,7.22 -3.68,8.84 -5.28,18.46 -5.39,28 -13.38,-8.62 -28.74,-15.1 -44.89,-15.03 -16.26,-0.2 -31.77,6.25 -45.23,14.94 -0.6,-10.07 -1.92,-20.38 -6.39,-29.54 -2.36,-4.97 -8.29,-6.6 -13.38,-6.35 -10.28,0.54 -19.82,5.56 -27.61,12.04 m 60.24,136.75 c -37.09,2.42 -74.24,8.5 -109.25,21.32 -17.68,6.67 -35.1,15.02 -49.42,27.57 -9.27,8.28 -17.44,19.22 -18.32,32.03 -0.93,10.39 3.41,20.53 9.87,28.47 8.77,10.85 20.57,18.78 32.77,25.32 22.47,11.75 46.99,19.03 71.73,24.23 25.67,5.3 51.82,7.99 77.99,8.96 42.8,1.22 85.92,-2.25 127.53,-12.63 21.19,-5.48 42.14,-12.66 61.16,-23.63 12.64,-7.47 24.97,-16.71 32.3,-29.73 5.3,-9.2 6.56,-20.71 2.75,-30.69 -4.14,-11.14 -12.73,-19.93 -21.99,-27.06 -15.37,-11.59 -33.23,-19.37 -51.35,-25.57 -27.01,-9.05 -55.19,-14.21 -83.49,-17.15 -27.33,-2.62 -54.87,-3.25 -82.28,-1.44 z"
         id="path3391" />
      <path
         style="fill:#ffffff;stroke:#000000"
         inkscape:connector-curvature="0"
         d="m 167.39,207.34 c 7.79,-6.48 17.33,-11.5 27.61,-12.04 5.09,-0.25 11.02,1.38 13.38,6.35 4.47,9.16 5.79,19.47 6.39,29.54 13.46,-8.69 28.97,-15.14 45.23,-14.94 16.15,-0.07 31.51,6.41 44.89,15.03 0.11,-9.54 1.71,-19.16 5.39,-28 1.34,-3.4 4.07,-6.37 7.73,-7.22 8.05,-2.11 16.47,0.61 23.65,4.26 9.67,5.21 18.52,12.97 22.77,23.3 2.01,4.79 2.08,11.06 -2.02,14.79 -8.32,7.92 -18.73,13.49 -29.63,16.96 27.66,30.79 48.25,67.4 63.58,105.69 -23.15,-7.88 -47.18,-13 -71.41,-16.22 -43.75,-5.67 -88.28,-5.58 -132.01,0.19 -23.71,3.24 -47.19,8.36 -69.87,16.01 12.69,-31.66 29.02,-62.04 49.8,-89.15 4.39,-5.64 8.99,-11.11 13.85,-16.33 -10.89,-3.89 -21.59,-9.2 -29.88,-17.41 -3.4,-3.22 -3.76,-8.39 -2.45,-12.65 2.26,-7.25 7.3,-13.29 13,-18.16 m 20.97,3.06 c -7.6,1.72 -14.78,7.18 -17.1,14.8 -1.03,3.21 0.17,6.67 2.76,8.75 5.7,4.94 12.42,9.28 19.98,10.52 4.62,0.95 9.12,-3.38 9.41,-7.86 0.77,-7.49 -0.91,-15.12 -3.95,-21.96 -1.82,-4.21 -7.04,-5.23 -11.1,-4.25 m 136.98,-0.03 c -4.91,0.94 -6.35,6.27 -7.6,10.38 -1.66,6.2 -2.93,13.05 -0.76,19.28 1.8,2.51 4.61,5.19 7.99,4.5 8.08,-1.2 15.34,-5.81 21.2,-11.33 3.89,-3.47 2.37,-9.36 -0.36,-13.05 -4.58,-6.29 -12.5,-11.1 -20.47,-9.78 m -116.98,86.96 c -4.88,2.15 -6.55,7.91 -7.09,12.78 -0.28,5.4 1.06,11.59 5.51,15.11 3.02,2.3 7.42,0.96 9.37,-2.08 4.39,-6.33 4.52,-15.29 0.68,-21.9 -1.64,-2.84 -5.13,-5.33 -8.47,-3.91 m 98.97,-0.11 c -2.86,1 -4.75,3.61 -5.88,6.3 -2.59,6.6 -2.11,14.87 2.55,20.46 2.45,3.13 7.6,3.18 10.07,0.03 4.74,-5.59 5.12,-13.97 2.53,-20.6 -1.37,-3.64 -5.03,-7.53 -9.27,-6.19 z"
         id="path3393" />
      <path
         style="fill:#373536;stroke:#000000"
         inkscape:connector-curvature="0"
         d="m 188.36,210.4 c 4.06,-0.98 9.28,0.04 11.1,4.25 3.04,6.84 4.72,14.47 3.95,21.96 -0.29,4.48 -4.79,8.81 -9.41,7.86 -7.56,-1.24 -14.28,-5.58 -19.98,-10.52 -2.59,-2.08 -3.79,-5.54 -2.76,-8.75 2.32,-7.62 9.5,-13.08 17.1,-14.8 m -10.34,17.33 c 5.14,4.29 11,8.94 17.95,9.27 1.04,-6.75 -0.77,-13.63 -3.38,-19.82 -6.26,0.66 -12.36,4.47 -14.57,10.55 z"
         id="path3395" />
      <path
         style="fill:#373536;stroke:#000000"
         inkscape:connector-curvature="0"
         d="m 325.34,210.37 c 7.97,-1.32 15.89,3.49 20.47,9.78 2.73,3.69 4.25,9.58 0.36,13.05 -5.86,5.52 -13.12,10.13 -21.2,11.33 -3.38,0.69 -6.19,-1.99 -7.99,-4.5 -2.17,-6.23 -0.9,-13.08 0.76,-19.28 1.25,-4.11 2.69,-9.44 7.6,-10.38 m -1.38,26.92 c 4.93,-0.61 9.19,-3.41 13.24,-6.08 1.43,-1.2 3.44,-2.17 3.94,-4.12 -2.25,-5.77 -8.24,-9.39 -14.28,-9.79 -2.46,6.22 -4.9,13.35 -2.9,19.99 z"
         id="path3397" />
      <path
         style="fill:#ffffff;stroke:#000000"
         inkscape:connector-curvature="0"
         d="m 178.02,227.73 c 2.21,-6.08 8.31,-9.89 14.57,-10.55 2.61,6.19 4.42,13.07 3.38,19.82 -6.95,-0.33 -12.81,-4.98 -17.95,-9.27 z"
         id="path3399" />
      <path
         style="fill:#ffffff;stroke:#000000"
         inkscape:connector-curvature="0"
         d="m 323.96,237.29 c -2,-6.64 0.44,-13.77 2.9,-19.99 6.04,0.4 12.03,4.02 14.28,9.79 -0.5,1.95 -2.51,2.92 -3.94,4.12 -4.05,2.67 -8.31,5.47 -13.24,6.08 z"
         id="path3401" />
      <path
         style="fill:#373536;stroke:#000000"
         inkscape:connector-curvature="0"
         d="m 208.36,297.33 c 3.34,-1.42 6.83,1.07 8.47,3.91 3.84,6.61 3.71,15.57 -0.68,21.9 -1.95,3.04 -6.35,4.38 -9.37,2.08 -4.45,-3.52 -5.79,-9.71 -5.51,-15.11 0.54,-4.87 2.21,-10.63 7.09,-12.78 z"
         id="path3403" />
      <path
         style="fill:#373536;stroke:#000000"
         inkscape:connector-curvature="0"
         d="m 307.33,297.22 c 4.24,-1.34 7.9,2.55 9.27,6.19 2.59,6.63 2.21,15.01 -2.53,20.6 -2.47,3.15 -7.62,3.1 -10.07,-0.03 -4.66,-5.59 -5.14,-13.86 -2.55,-20.46 1.13,-2.69 3.02,-5.3 5.88,-6.3 z"
         id="path3405" />
      <path
         style="fill:#ffffff;stroke:#000000"
         inkscape:connector-curvature="0"
         d="m 227.63,344.09 c 27.41,-1.81 54.95,-1.18 82.28,1.44 28.3,2.94 56.48,8.1 83.49,17.15 18.12,6.2 35.98,13.98 51.35,25.57 9.26,7.13 17.85,15.92 21.99,27.06 3.81,9.98 2.55,21.49 -2.75,30.69 -7.33,13.02 -19.66,22.26 -32.3,29.73 -19.02,10.97 -39.97,18.15 -61.16,23.63 -41.61,10.38 -84.73,13.85 -127.53,12.63 -26.17,-0.97 -52.32,-3.66 -77.99,-8.96 -24.74,-5.2 -49.26,-12.48 -71.73,-24.23 -12.2,-6.54 -24,-14.47 -32.77,-25.32 -6.46,-7.94 -10.8,-18.08 -9.87,-28.47 0.88,-12.81 9.05,-23.75 18.32,-32.03 14.32,-12.55 31.74,-20.9 49.42,-27.57 35.01,-12.82 72.16,-18.9 109.25,-21.32 m -9.1,12.37 c -2.92,1.33 -6.82,2.87 -7.24,6.54 0.89,3.78 3.46,6.86 5.95,9.73 10.5,11.42 25.15,19.2 40.73,20.34 0.02,18.21 0.11,36.43 -0.05,54.64 -14.72,3.72 -29.42,7.52 -44.08,11.46 1.19,4.37 6.42,0.2 9.38,0.17 4.45,8.46 8.38,17.19 12.69,25.72 0.66,1.26 1.64,2.9 3.31,2.73 7.29,-0.65 14.49,-2.25 21.78,-2.89 7.31,0.57 14.5,2.24 21.81,2.91 2.18,0.06 3.27,-2.17 4.1,-3.83 3.78,-7.96 7.63,-15.87 11.37,-23.84 2.22,0.46 4.45,0.92 6.72,1.18 -0.05,-0.54 -0.15,-1.64 -0.2,-2.19 -14.36,-4.16 -28.98,-7.5 -43.4,-11.49 -0.05,-18.16 0.11,-36.32 -0.08,-54.47 16.66,-1.39 32.44,-9.96 42.97,-22.89 1.8,-2.59 4.45,-5.56 3.54,-8.95 -2.09,-3.23 -5.97,-4.55 -9.42,-5.78 -14.98,-4.6 -30.84,-5.02 -46.4,-4.66 -11.3,0.5 -22.79,1.62 -33.48,5.57 M 79.91,425.77 c 0.01,0.8 0.05,2.4 0.06,3.2 24.44,0.08 48.89,-0.01 73.33,0.05 0.02,-0.82 0.06,-2.47 0.08,-3.29 -24.49,-0.1 -48.98,-0.16 -73.47,0.04 m 286.1,0.05 c 0.02,0.78 0.06,2.34 0.08,3.13 24.51,0.04 49.04,0.19 73.54,-0.08 0.02,-0.73 0.06,-2.17 0.07,-2.9 -5.21,-0.62 -10.47,-0.21 -15.7,-0.31 -19.33,0.1 -38.67,-0.22 -57.99,0.16 m -207.93,11.24 c -20.58,6.07 -41.18,12.05 -61.76,18.1 -2.23,0.26 -1.91,4.56 0.67,3.18 23.34,-6.68 46.65,-13.52 69.91,-20.47 -0.03,-0.75 -0.09,-2.25 -0.12,-2.99 -2.98,0.39 -5.83,1.34 -8.7,2.18 m 207.02,-2.24 c -0.06,0.77 -0.17,2.29 -0.23,3.06 23.73,7.13 47.56,13.95 71.33,20.95 0.29,-1.24 1.53,-3.05 -0.43,-3.51 -8.96,-2.79 -18.02,-5.3 -27.02,-7.98 -14.57,-4.08 -28.97,-8.84 -43.65,-12.52 z"
         id="path3407" />
      <path
         style="fill:#373536;stroke:#000000"
         inkscape:connector-curvature="0"
         d="m 218.53,356.46 c 10.69,-3.95 22.18,-5.07 33.48,-5.57 15.56,-0.36 31.42,0.06 46.4,4.66 3.45,1.23 7.33,2.55 9.42,5.78 0.91,3.39 -1.74,6.36 -3.54,8.95 -10.53,12.93 -26.31,21.5 -42.97,22.89 0.19,18.15 0.03,36.31 0.08,54.47 14.42,3.99 29.04,7.33 43.4,11.49 0.05,0.55 0.15,1.65 0.2,2.19 -2.27,-0.26 -4.5,-0.72 -6.72,-1.18 -3.74,7.97 -7.59,15.88 -11.37,23.84 -0.83,1.66 -1.92,3.89 -4.1,3.83 -7.31,-0.67 -14.5,-2.34 -21.81,-2.91 -7.29,0.64 -14.49,2.24 -21.78,2.89 -1.67,0.17 -2.65,-1.47 -3.31,-2.73 -4.31,-8.53 -8.24,-17.26 -12.69,-25.72 -2.96,0.03 -8.19,4.2 -9.38,-0.17 14.66,-3.94 29.36,-7.74 44.08,-11.46 0.16,-18.21 0.07,-36.43 0.05,-54.64 -15.58,-1.14 -30.23,-8.92 -40.73,-20.34 -2.49,-2.87 -5.06,-5.95 -5.95,-9.73 0.42,-3.67 4.32,-5.21 7.24,-6.54 m 9.37,103.62 c 3.7,8.03 7.82,15.86 11.52,23.89 6.88,-0.62 13.69,-1.82 20.51,-2.88 -1.85,-9.32 -2.62,-18.82 -3.89,-28.22 -9.45,2.14 -18.77,4.78 -28.14,7.21 m 35.33,-7.25 c -0.5,9.4 0.79,18.99 -1.01,28.27 6.83,1.07 13.65,2.17 20.52,2.98 3.72,-7.8 7.55,-15.56 11.16,-23.42 -10.27,-2.43 -20.4,-5.41 -30.67,-7.83 z"
         id="path3409" />
      <path
         style="fill:#373536;stroke:#000000"
         inkscape:connector-curvature="0"
         d="m 79.91,425.77 c 24.49,-0.2 48.98,-0.14 73.47,-0.04 -0.02,0.82 -0.06,2.47 -0.08,3.29 -24.44,-0.06 -48.89,0.03 -73.33,-0.05 -0.01,-0.8 -0.05,-2.4 -0.06,-3.2 z"
         id="path3411" />
      <path
         style="fill:#373536;stroke:#000000"
         inkscape:connector-curvature="0"
         d="m 366.01,425.82 c 19.32,-0.38 38.66,-0.06 57.99,-0.16 5.23,0.1 10.49,-0.31 15.7,0.31 -0.01,0.73 -0.05,2.17 -0.07,2.9 -24.5,0.27 -49.03,0.12 -73.54,0.08 -0.02,-0.79 -0.06,-2.35 -0.08,-3.13 z"
         id="path3413" />
      <path
         style="fill:#373536;stroke:#000000"
         inkscape:connector-curvature="0"
         d="m 158.08,437.06 c 2.87,-0.84 5.72,-1.79 8.7,-2.18 0.03,0.74 0.09,2.24 0.12,2.99 -23.26,6.95 -46.57,13.79 -69.91,20.47 -2.58,1.38 -2.9,-2.92 -0.67,-3.18 20.58,-6.05 41.18,-12.03 61.76,-18.1 z"
         id="path3415" />
      <path
         style="fill:#373536;stroke:#000000"
         inkscape:connector-curvature="0"
         d="m 365.1,434.82 c 14.68,3.68 29.08,8.44 43.65,12.52 9,2.68 18.06,5.19 27.02,7.98 1.96,0.46 0.72,2.27 0.43,3.51 -23.77,-7 -47.6,-13.82 -71.33,-20.95 0.06,-0.77 0.17,-2.29 0.23,-3.06 z"
         id="path3417" />
      <path
         style="fill:#ffffff;stroke:#000000"
         inkscape:connector-curvature="0"
         d="m 227.9,460.08 c 9.37,-2.43 18.69,-5.07 28.14,-7.21 1.27,9.4 2.04,18.9 3.89,28.22 -6.82,1.06 -13.63,2.26 -20.51,2.88 -3.7,-8.03 -7.82,-15.86 -11.52,-23.89 z"
         id="path3419" />
      <path
         style="fill:#ffffff;stroke:#000000"
         inkscape:connector-curvature="0"
         d="m 263.23,452.83 c 10.27,2.42 20.4,5.4 30.67,7.83 -3.61,7.86 -7.44,15.62 -11.16,23.42 -6.87,-0.81 -13.69,-1.91 -20.52,-2.98 1.8,-9.28 0.51,-18.87 1.01,-28.27 z"
         id="path3421" />
    </g>
    <g
       id="g3423"
       transform="matrix(0.38522625,0,0,0.38522625,-73.545202,1346.989)"
       style="stroke:#000000">
      <path
         style="fill:#373536;stroke:#000000"
         inkscape:connector-curvature="0"
         d="m 527.45,6.43 c 7.81,-5.36 17.95,-5.95 26.95,-3.78 11.17,2.77 21.2,8.79 30.38,15.56 15.92,11.92 29.5,26.6 42.25,41.78 24.15,28.38 48.1,57.42 65.35,90.64 10.98,20.79 19.8,42.65 27.68,64.79 10.22,-3.81 20.93,-6.8 31.94,-6.54 11.39,-0.08 22.57,2.92 32.98,7.37 7.83,-21.56 16.25,-42.98 26.86,-63.34 15.39,-30.22 36.33,-57.1 58.11,-82.93 13.48,-16.08 27.01,-32.32 43.18,-45.81 10.72,-8.89 22.49,-17.1 36,-21.03 9.4,-2.68 20.21,-2.47 28.55,3.12 9.09,5.8 13.91,16.31 15.66,26.64 2.34,13.98 0.23,28.31 -3.61,41.83 -4.33,15.37 -11.97,29.5 -19.53,43.46 -16.18,29.6 -36.29,57.03 -59.66,81.34 -21.35,22.46 -45,42.55 -68.86,62.27 -1.44,0.77 0.09,2.09 0.62,2.89 22.15,27.86 39,59.59 52.61,92.38 0.45,1.59 2.21,1.85 3.51,2.48 16.3,6.29 32.22,14.12 45.84,25.18 9.45,7.8 17.96,17.46 21.89,29.26 3.9,11.17 2.6,23.84 -2.96,34.22 -7.54,14.26 -20.54,24.69 -34.11,32.91 -27.1,15.99 -57.79,24.66 -88.47,30.62 -43,7.89 -87.04,9.68 -130.59,6.23 -24.55,-2.06 -48.99,-5.78 -72.85,-11.96 -20.73,-5.46 -41.2,-12.58 -59.89,-23.21 -12.95,-7.48 -25.35,-16.72 -33.8101,-29.24 -6.64,-9.77 -10.0699,-22.07 -7.64,-33.79 2.46,-12.95 10.74,-23.96 20.44,-32.52 14.1,-12.31 31.06,-20.86 48.43,-27.55 1.26,-0.68 3.1,-0.85 3.76,-2.29 14.06,-34.06 31.7,-66.97 55.05,-95.62 -29.33,-24.61 -58.71,-49.52 -83.59,-78.78 -23.06,-26.79 -41.96,-57.02 -57.05,-88.95 -8.19,-18.27 -13.47,-38.49 -11.18,-58.62 C 513.08,24.34 517.81,12.81 527.45,6.43 m 1.34,8.33 c -7.37,6.95 -9.81,17.51 -10.27,27.28 -0.52,16.79 4.11,33.36 10.91,48.58 15.61,33.22 35.55,64.48 59.93,91.96 25.22,28.55 54.36,53.26 83.78,77.32 1.34,0.72 -0.06,1.87 -0.58,2.59 -12.6,14.55 -22.91,30.89 -32.61,47.47 -9.28,16.45 -17.76,33.42 -24.48,51.09 43.85,-14.79 90.4,-20.3 136.53,-20.36 46.22,0.05 92.85,5.6 136.77,20.44 -7.24,-19.43 -16.39,-38.12 -27.02,-55.91 -9.25,-15.31 -19.44,-30.11 -31.29,-43.52 4.81,-4.65 10.3,-8.53 15.33,-12.93 17.2,-14.38 34.19,-29.06 50.1,-44.88 34.31,-33.48 62.2,-73.47 81.82,-117.2 6.84,-17.12 11.68,-36.08 7.92,-54.5 -1.7,-8.58 -6.29,-17.45 -14.64,-21.17 -8.17,-3.89 -17.66,-1.98 -25.71,1.24 -13.8101,5.79 -25.58,15.42 -36.39,25.6 -12.23,11.51 -22.83,24.56 -33.65,37.36 -11.79,13.98 -23.29,28.23 -33.82,43.19 -11.5,16.38 -21.55,33.79 -29.93,51.98 -8.58,18.24 -15.52,37.18 -22.33,56.13 -11.08,-6.04 -23.46,-10.12 -36.17,-10.26 -12.92,-0.3 -25.67,3.53 -37,9.57 -8.68,-24.45 -17.94,-48.8 -30.15,-71.74 C 670.24,124.06 649.05,97.45 627.25,71.74 613.81,55.64 600.05,39.56 583.51,26.52 573.99,19.11 563.52,12.27 551.59,9.6 543.76,7.78 534.78,9.06 528.79,14.76 m 192.77,329.25 c -26.57,1.61 -53.05,5.29 -78.89,11.7 -20.12,5.12 -39.98,11.82 -58.3,21.71 -12.07,6.64 -23.71,14.74 -32.17,25.77 -6.34,8.28 -10.24,18.92 -8.57,29.41 1.5,10.91 8.17,20.33 15.96,27.79 11.36,10.71 25.2,18.36 39.4,24.63 22.79,9.88 47,16.09 71.4,20.43 44.39,7.5 89.78,8.66 134.54,4.08 30.71,-3.32 61.32,-9.28 90.31,-20.15 16.75,-6.43 33.24,-14.39 46.97,-26.14 8.63,-7.45 16.23,-16.9 18.75,-28.26 2.19,-9.7 -0.36,-19.97 -5.72,-28.2 -7.66,-11.92 -19.38,-20.51 -31.45,-27.57 C 903.91,367.88 882.01,360.6 859.88,355.12 814.7,344.37 767.86,341.31 721.56,344.01 Z"
         id="path3425" />
      <path
         style="fill:#ffffff;stroke:#000000"
         inkscape:connector-curvature="0"
         d="m 528.79,14.76 c 5.9901,-5.7 14.97,-6.98 22.8,-5.16 11.93,2.67 22.4,9.51 31.92,16.92 16.54,13.04 30.3,29.12 43.74,45.22 21.8,25.71 42.99,52.32 58.59,82.35 12.21,22.94 21.47,47.29 30.15,71.74 11.33,-6.04 24.08,-9.87 37,-9.57 12.71,0.14 25.09,4.22 36.17,10.26 6.81,-18.95 13.75,-37.89 22.33,-56.13 8.38,-18.19 18.43,-35.6 29.93,-51.98 10.53,-14.96 22.03,-29.21 33.82,-43.19 10.82,-12.8 21.42,-25.85 33.65,-37.36 10.81,-10.18 22.58,-19.81 36.39,-25.6 8.05,-3.22 17.54,-5.13 25.71,-1.24 8.35,3.72 12.94,12.59 14.64,21.17 3.76,18.42 -1.08,37.38 -7.92,54.5 -19.62,43.73 -47.51,83.72 -81.82,117.2 -15.91,15.82 -32.9,30.5 -50.1,44.88 -5.03,4.4 -10.52,8.28 -15.33,12.93 11.85,13.41 22.04,28.21 31.29,43.52 10.63,17.79 19.78,36.48 27.02,55.91 -43.92,-14.84 -90.55,-20.39 -136.77,-20.44 -46.13,0.06 -92.68,5.57 -136.53,20.36 6.72,-17.67 15.2,-34.64 24.48,-51.09 9.7,-16.58 20.01,-32.92 32.61,-47.47 0.52,-0.72 1.92,-1.87 0.58,-2.59 C 643.72,235.84 614.58,211.13 589.36,182.58 564.98,155.1 545.04,123.84 529.43,90.62 522.63,75.4 518,58.83 518.52,42.04 c 0.46,-9.77 2.9,-20.33 10.27,-27.28 m 31.58,24.65 c -4.54,0.79 -7.61,4.84 -8.84,9.05 -2.67,8.99 -1.32,18.5 0.28,27.56 3.69,17.79 10.8,34.73 19.66,50.54 10.33,18.59 20.91,37.17 34.14,53.88 11.84,15.04 25.9,28.1 39.79,41.19 10.18,9.15 21.02,18.19 33.98,23.06 4.24,1.39 9.87,2.76 13.35,-0.94 4.44,-3.46 3.65,-9.82 3.22,-14.77 -3.14,-18.52 -11.94,-35.35 -19.73,-52.23 -8.9,-18.91 -17.85,-37.93 -29.7599,-55.18 C 636.19,106.7 624.43,92.96 613,78.99 602.67,66.74 591.85,54.58 578.59,45.41 c -5.39,-3.4 -11.62,-7.01 -18.22,-6 m 379.03,0.18 c -4.42,0.97 -8.46,3.13 -12.21,5.59 -12.37,8.39 -22.55,19.52 -32.22,30.81 -11.67,14.04 -23.47,28.01 -34.11,42.86 -11.9,16.61 -20.86,35.04 -29.57,53.45 -7.68,16.7 -16.39,33.15 -20.79,51.12 -1.15,5.19 -1.96,10.68 -0.75,15.94 0.75,3.49 3.74,6.36 7.36,6.68 5.78,0.5 11.25,-2.04 16.28,-4.6 15.17,-8.16 27.41,-20.51 39.76,-32.27 11.24,-10.8 22.06,-22.13 31.2599,-34.75 11.36,-15.43 20.8,-32.15 30.1,-48.87 9.69,-17.58 17.41,-36.55 20.26,-56.51 0.74,-8.08 1.54,-16.94 -2.53,-24.31 C 949.86,40.22 944.21,38.15 939.4,39.59 M 700.35,297.35 c -5.37,2.54 -7.08,9.18 -7.0099,14.65 0.05,5.03 1.6,10.79 6.11,13.62 3.55,2.11 7.83,-0.32 9.54,-3.66 3.3,-5.91 3.33,-13.45 0.54,-19.56 -1.5601,-3.32 -5.3101,-6.67 -9.1801,-5.05 m 98.98,-0.13 c -4.65,1.85 -6.64,7.11 -7.19,11.73 -0.58,5.6 0.48,12.08 4.91,15.97 2.59,2.33 6.85,1.75 9.01,-0.88 4.72,-5.31 4.98,-13.38 2.89,-19.87 -1.28,-3.93 -5.03,-8.38 -9.62,-6.95 z"
         id="path3427" />
      <path
         style="fill:#373536;stroke:#000000"
         inkscape:connector-curvature="0"
         d="m 560.37,39.41 c 6.6,-1.01 12.83,2.6 18.22,6 13.26,9.17 24.08,21.33 34.41,33.58 11.43,13.97 23.19,27.71 33.46,42.58 11.91,17.25 20.86,36.27 29.7599,55.18 7.79,16.88 16.59,33.71 19.73,52.23 0.43,4.95 1.22,11.31 -3.22,14.77 -3.48,3.7 -9.11,2.33 -13.35,0.94 -12.96,-4.87 -23.8,-13.91 -33.98,-23.06 -13.89,-13.09 -27.95,-26.15 -39.79,-41.19 -13.23,-16.71 -23.81,-35.29 -34.14,-53.88 -8.86,-15.81 -15.97,-32.75 -19.66,-50.54 -1.6,-9.06 -2.95,-18.57 -0.28,-27.56 1.2301,-4.21 4.3001,-8.26 8.8401,-9.05 m -2.66,15.58 c -1.27,16.85 4.34,33.29 10.63,48.67 7.28,16.43 16.59,31.85 25.8,47.25 10.71,17.71 23.71,33.99 38.6,48.36 11.09,10.59 21.79,21.77 34.47,30.52 6.2599,4.21 12.98,8.44 20.68,9.19 0.87,-2.21 1.35,-4.6 0.96,-6.97 -1.65,-13.15 -7.09,-25.39 -12.45,-37.37 -8.2401,-17.6 -16.2401,-35.34 -25.72,-52.32 -10.6,-19.04 -24.66,-35.8 -38.42,-52.59 C 601.91,77.18 591.37,64.56 578.55,54.41 573.89,51 568.9,47.3 562.98,46.68 c -4.23,-0.2 -4.83,5.18 -5.27,8.31 z"
         id="path3429" />
      <path
         style="fill:#373536;stroke:#000000"
         inkscape:connector-curvature="0"
         d="m 939.4,39.59 c 4.81,-1.44 10.46,0.63 12.84,5.14 4.07,7.37 3.27,16.23 2.53,24.31 -2.85,19.96 -10.57,38.93 -20.26,56.51 -9.3,16.72 -18.74,33.44 -30.1,48.87 -9.2,12.62 -20.02,23.95 -31.2599,34.75 -12.35,11.76 -24.59,24.11 -39.76,32.27 -5.03,2.56 -10.5,5.1 -16.28,4.6 -3.62,-0.32 -6.61,-3.19 -7.36,-6.68 -1.21,-5.26 -0.4,-10.75 0.75,-15.94 4.4,-17.97 13.11,-34.42 20.79,-51.12 8.71,-18.41 17.67,-36.84 29.57,-53.45 C 871.5,104 883.3,90.03 894.97,75.99 c 9.67,-11.29 19.85,-22.42 32.22,-30.81 3.75,-2.46 7.79,-4.62 12.21,-5.59 m -6.87,10.9 c -11.42,7.28 -20.62,17.45 -29.54,27.51 -11.62,13.78 -23.17,27.64 -33.92,42.11 -12.57,16.95 -21.93,35.95 -30.9,54.96 -6.82,14.8 -14.38,29.35 -19.1,45 -1.61,6.06 -3.65,12.52 -1.79,18.76 6.24,-0.16 11.83,-3.36 17.04,-6.49 14.12,-8.83 25.67,-20.96 37.66,-32.36 12.92,-12.58 24.75,-26.33 34.49,-41.54 9.34,-14.32 17.76,-29.25 25.7401,-44.37 7.75,-15.68 14.05,-32.44 15.63,-49.97 0.05,-5.67 0.87,-12.42 -3.1201,-17.03 -4.32,-1.21 -8.57,1.33 -12.19,3.42 z"
         id="path3431" />
      <path
         style="fill:#ffffff;stroke:#000000"
         inkscape:connector-curvature="0"
         d="m 557.71,54.99 c 0.44,-3.13 1.04,-8.51 5.27,-8.31 5.92,0.62 10.91,4.32 15.57,7.73 12.82,10.15 23.36,22.77 33.71,35.32 13.76,16.79 27.82,33.55 38.42,52.59 9.48,16.98 17.48,34.72 25.72,52.32 5.36,11.98 10.8,24.22 12.45,37.37 0.39,2.37 -0.09,4.76 -0.96,6.97 -7.7,-0.75 -14.42,-4.98 -20.68,-9.19 -12.68,-8.75 -23.38,-19.93 -34.47,-30.52 -14.89,-14.37 -27.89,-30.65 -38.6,-48.36 -9.21,-15.4 -18.52,-30.82 -25.8,-47.25 -6.29,-15.38 -11.9,-31.82 -10.63,-48.67 z"
         id="path3433" />
      <path
         style="fill:#ffffff;stroke:#000000"
         inkscape:connector-curvature="0"
         d="m 932.53,50.49 c 3.62,-2.09 7.87,-4.63 12.1899,-3.42 3.9901,4.61 3.17,11.36 3.1201,17.03 -1.58,17.53 -7.88,34.29 -15.63,49.97 -7.98,15.12 -16.4,30.05 -25.7401,44.37 -9.74,15.21 -21.5699,28.96 -34.49,41.54 -11.99,11.4 -23.54,23.53 -37.66,32.36 -5.21,3.13 -10.8,6.33 -17.04,6.49 -1.86,-6.24 0.18,-12.7 1.79,-18.76 4.72,-15.65 12.28,-30.2 19.1,-45 8.97,-19.01 18.33,-38.01 30.9,-54.96 10.75,-14.47 22.3,-28.33 33.92,-42.11 C 911.91,67.94 921.11,57.77 932.53,50.49 Z"
         id="path3435" />
      <path
         style="fill:#373536;stroke:#000000"
         inkscape:connector-curvature="0"
         d="m 700.35,297.35 c 3.87,-1.62 7.62,1.73 9.1801,5.05 2.79,6.11 2.7599,13.65 -0.54,19.56 -1.71,3.34 -5.99,5.77 -9.54,3.66 -4.51,-2.83 -6.06,-8.59 -6.11,-13.62 -0.0701,-5.47 1.6399,-12.11 7.0099,-14.65 z"
         id="path3437" />
      <path
         style="fill:#373536;stroke:#000000"
         inkscape:connector-curvature="0"
         d="m 799.33,297.22 c 4.59,-1.43 8.34,3.02 9.62,6.95 2.09,6.49 1.83,14.56 -2.89,19.87 -2.16,2.63 -6.42,3.21 -9.01,0.88 -4.43,-3.89 -5.49,-10.37 -4.91,-15.97 0.55,-4.62 2.54,-9.88 7.19,-11.73 z"
         id="path3439" />
      <path
         style="fill:#ffffff;stroke:#000000"
         inkscape:connector-curvature="0"
         d="m 721.56,344.01 c 46.3,-2.7 93.14,0.36 138.32,11.11 22.13,5.48 44.03,12.76 63.91,24.09 12.07,7.06 23.79,15.65 31.45,27.57 5.36,8.23 7.91,18.5 5.72,28.2 -2.52,11.36 -10.12,20.81 -18.75,28.26 -13.73,11.75 -30.22,19.71 -46.97,26.14 -28.99,10.87 -59.6,16.83 -90.31,20.15 -44.76,4.58 -90.15,3.42 -134.54,-4.08 -24.4,-4.34 -48.61,-10.55 -71.4,-20.43 -14.2,-6.27 -28.04,-13.92 -39.4,-24.63 -7.79,-7.46 -14.46,-16.88 -15.96,-27.79 -1.67,-10.49 2.23,-21.13 8.57,-29.41 8.46,-11.03 20.1,-19.13 32.17,-25.77 18.32,-9.89 38.18,-16.59 58.3,-21.71 25.84,-6.41 52.32,-10.09 78.89,-11.7 m -11.02,12.47 c -2.88,1.32 -6.89,2.85 -7.15,6.52 0.53,3.11 2.56,5.68 4.48,8.09 10.53,12.4 25.9,20.73 42.19,22.02 -0.02,18.19 0.28,36.39 -0.14,54.57 -14.69,3.82 -29.43,7.45 -44.03,11.57 0.3,0.52 0.92,1.56 1.23,2.09 2.74,-0.47 5.42,-1.27 8.12,-1.98 4.47,8.44 8.4,17.15 12.68,25.68 0.66,1.26 1.62,2.9 3.3,2.75 7.29,-0.64 14.48,-2.25 21.77,-2.89 7.31,0.57 14.51,2.24 21.82,2.9 2.19,0.09 3.32,-2.14 4.15,-3.82 3.77,-7.96 7.63,-15.87 11.36,-23.84 2.37,0.14 6.28,2.72 6.98,-0.96 -14.58,-4.04 -29.29,-7.58 -43.89,-11.54 -0.03,-18.15 0.09,-36.31 -0.06,-54.46 14.78,-1.25 28.82,-8.1 39.19,-18.65 3.01,-3.12 6.08,-6.47 7.42,-10.68 0.67,-2.19 -0.98,-4.07 -2.69,-5.15 -4.23,-2.71 -9.17,-3.97 -14.02,-5.04 -13.19,-2.91 -26.79,-3.1 -40.24,-2.73 -10.97,0.57 -22.12,1.68 -32.47,5.55 m -138.68,69.3 c 0.02,0.79 0.06,2.39 0.07,3.19 24.45,0.1 48.9,-0.02 73.35,0.05 0.02,-0.82 0.08,-2.46 0.11,-3.29 -24.51,-0.1 -49.02,-0.18 -73.53,0.05 m 286.17,0.05 c 0.03,0.77 0.08,2.32 0.1,3.09 24.51,0.12 49.04,0.18 73.55,-0.03 0.02,-0.74 0.04,-2.21 0.06,-2.95 -5.57,-0.56 -11.16,-0.18 -16.74,-0.28 -18.99,0.11 -37.99,-0.23 -56.97,0.17 M 630.01,443 c -13.97,4 -27.89,8.14 -41.83,12.24 -1.96,0.25 -1.51,3.99 0.55,3.25 23.43,-6.85 46.9,-13.61 70.28,-20.66 -0.04,-0.74 -0.13,-2.22 -0.17,-2.97 -9.77,2.09 -19.22,5.45 -28.83,8.14 m 227.02,-8.2 c -0.03,0.77 -0.09,2.29 -0.1201,3.06 23.7401,7.18 47.6,13.95 71.3701,21 0.2,-1.1 0.39,-2.21 0.5699,-3.32 C 904.87,448.75 881.1,441.2 857.03,434.8 Z"
         id="path3441" />
      <path
         style="fill:#373536;stroke:#000000"
         inkscape:connector-curvature="0"
         d="m 710.54,356.48 c 10.35,-3.87 21.5,-4.98 32.47,-5.55 13.45,-0.37 27.05,-0.18 40.24,2.73 4.85,1.07 9.79,2.33 14.02,5.04 1.71,1.08 3.36,2.96 2.69,5.15 -1.34,4.21 -4.41,7.56 -7.42,10.68 -10.37,10.55 -24.41,17.4 -39.19,18.65 0.15,18.15 0.03,36.31 0.06,54.46 14.6,3.96 29.31,7.5 43.89,11.54 -0.7,3.68 -4.61,1.1 -6.98,0.96 -3.73,7.97 -7.59,15.88 -11.36,23.84 -0.83,1.68 -1.96,3.91 -4.15,3.82 -7.31,-0.66 -14.51,-2.33 -21.82,-2.9 -7.29,0.64 -14.48,2.25 -21.77,2.89 -1.68,0.15 -2.64,-1.49 -3.3,-2.75 -4.28,-8.53 -8.21,-17.24 -12.68,-25.68 -2.7,0.71 -5.38,1.51 -8.12,1.98 -0.31,-0.53 -0.93,-1.57 -1.23,-2.09 14.6,-4.12 29.34,-7.75 44.03,-11.57 0.42,-18.18 0.12,-36.38 0.14,-54.57 -16.29,-1.29 -31.66,-9.62 -42.19,-22.02 -1.92,-2.41 -3.95,-4.98 -4.48,-8.09 0.26,-3.67 4.27,-5.2 7.15,-6.52 m 9.39,103.61 c 3.71,8.01 7.84,15.83 11.48,23.88 6.89,-0.62 13.71,-1.79 20.54,-2.89 -2.04,-9.28 -2.33,-18.85 -3.94,-28.2 -9.42,2.16 -18.73,4.76 -28.08,7.21 m 35.3,-7.25 c -0.04,6.05 -0.14,12.1 -0.19,18.15 -0.08,3.38 0.33,6.86 -0.81,10.12 6.84,1.07 13.67,2.14 20.54,2.97 3.71,-7.81 7.58,-15.54 11.15,-23.41 -10.28,-2.41 -20.4,-5.45 -30.69,-7.83 z"
         id="path3443" />
      <path
         style="fill:#373536;stroke:#000000"
         inkscape:connector-curvature="0"
         d="m 571.86,425.78 c 24.51,-0.23 49.02,-0.15 73.53,-0.05 -0.03,0.83 -0.09,2.47 -0.11,3.29 -24.45,-0.07 -48.9,0.05 -73.35,-0.05 -0.01,-0.8 -0.05,-2.4 -0.07,-3.19 z"
         id="path3445" />
      <path
         style="fill:#373536;stroke:#000000"
         inkscape:connector-curvature="0"
         d="m 858.03,425.83 c 18.98,-0.4 37.98,-0.06 56.97,-0.17 5.58,0.1 11.17,-0.28 16.74,0.28 -0.02,0.74 -0.04,2.21 -0.06,2.95 -24.51,0.21 -49.04,0.15 -73.55,0.03 -0.02,-0.77 -0.07,-2.32 -0.1,-3.09 z"
         id="path3447" />
      <path
         style="fill:#373536;stroke:#000000"
         inkscape:connector-curvature="0"
         d="m 630.01,443 c 9.61,-2.69 19.06,-6.05 28.83,-8.14 0.04,0.75 0.1299,2.23 0.17,2.97 -23.38,7.05 -46.85,13.81 -70.28,20.66 -2.06,0.74 -2.51,-3 -0.55,-3.25 13.94,-4.1 27.86,-8.24 41.83,-12.24 z"
         id="path3449" />
      <path
         style="fill:#373536;stroke:#000000"
         inkscape:connector-curvature="0"
         d="m 857.03,434.8 c 24.0699,6.4 47.84,13.95 71.8199,20.74 -0.18,1.11 -0.37,2.22 -0.5699,3.32 -23.77,-7.05 -47.63,-13.82 -71.3701,-21 0.0301,-0.77 0.0901,-2.29 0.1201,-3.06 z"
         id="path3451" />
      <path
         style="fill:#ffffff;stroke:#000000"
         inkscape:connector-curvature="0"
         d="m 719.93,460.09 c 9.35,-2.45 18.66,-5.05 28.08,-7.21 1.61,9.35 1.9,18.92 3.94,28.2 -6.83,1.1 -13.65,2.27 -20.54,2.89 -3.64,-8.05 -7.77,-15.87 -11.48,-23.88 z"
         id="path3453" />
      <path
         style="fill:#ffffff;stroke:#000000"
         inkscape:connector-curvature="0"
         d="m 755.23,452.84 c 10.29,2.38 20.41,5.42 30.69,7.83 -3.57,7.87 -7.44,15.6 -11.15,23.41 -6.87,-0.83 -13.7,-1.9 -20.54,-2.97 1.14,-3.26 0.73,-6.74 0.81,-10.12 0.05,-6.05 0.15,-12.1 0.19,-18.15 z"
         id="path3455" />
    </g>
    <g
       id="g3895"
       transform="matrix(1.25,0,0,1.25,-56.250004,-229.34054)">
      <path
         style="fill:#000000;stroke:#000000;stroke-width:0.61348784"
         inkscape:connector-curvature="0"
         d="m 160.0977,818.83779 c 1.79138,-1.79752 4.44165,-1.04907 6.65634,-0.80975 13.03662,1.58894 26.11618,5.45391 36.80314,13.32496 8.63177,-4.01221 18.36169,-5.89562 27.83394,-4.46006 4.98152,0.64416 9.75446,2.31899 14.36175,4.26374 10.72377,-7.75448 23.76652,-11.60719 36.78473,-13.15318 2.07359,-0.21472 4.53367,-0.89569 6.26371,0.68711 1.87727,1.44783 1.73004,4.00608 1.7055,6.12874 -0.19632,12.57043 -2.60733,25.60085 -9.87102,36.11609 13.11023,16.57025 23.09168,35.37371 31.40444,54.72925 4.17785,1.99384 8.65018,3.47234 12.75441,5.6993 10.15322,5.16557 19.87087,11.90167 26.5947,21.25736 3.34351,4.86495 6.31892,10.52131 5.7177,16.61938 7.04898,0.2638 14.11636,-0.0184 21.16533,0.12883 1.12269,-0.23312 1.22084,0.92637 1.52145,1.69936 -1.06133,0.27607 -2.1472,0.42945 -3.23921,0.40491 -5.54593,-0.0491 -11.08573,-0.006 -16.62552,-0.0368 -0.85889,0.1473 -1.99997,-0.33129 -2.65641,0.38649 -0.21472,2.73003 -0.1411,5.58274 -1.28218,8.14099 -0.80367,1.69322 -1.92636,3.20854 -2.84045,4.84655 7.9692,0.90796 15.93841,1.86501 23.89535,2.93861 -0.0123,0.42331 -0.0307,1.26992 -0.0368,1.69323 -8.41092,-0.26994 -16.71754,-1.97544 -25.09165,-2.73003 -3.53369,6.56432 -9.67471,11.098 -15.75437,15.13475 -13.18999,8.40478 -28.15296,13.58258 -43.23862,17.40468 -18.41077,4.5705 -37.33687,6.8281 -56.27524,7.6072 -21.7052,0.73 -43.51469,-0.546 -64.90088,-4.3987 -19.20217,-3.595 -38.40433,-8.9508 -55.39181,-18.83407 -6.71156,-4.16558 -13.62557,-8.75447 -17.7298,-15.69915 -5.141028,0.42331 -10.232977,1.49691 -15.404679,1.56439 0.02454,-0.44784 0.06748,-1.34967 0.09202,-1.80365 4.595024,-0.68711 9.245261,-0.99385 13.83415,-1.76071 -1.404887,-2.32512 -3.202406,-4.47233 -3.920187,-7.14713 -0.889557,-2.34353 -0.717781,-4.8711 -0.711646,-7.31891 -7.153268,-0.0613 -14.31267,0.0491 -21.465938,-0.043 -1.26992,0.25153 -1.257651,-2.26377 0,-2.02451 7.165537,-0.14723 14.331075,0.0123 21.496613,-0.0675 -0.638028,-7.28817 3.349643,-13.9139 7.601117,-19.47824 9.52747,-11.77277 23.10395,-19.49051 37.03626,-24.9076 0.76686,-0.20859 1.25765,-0.83435 1.50304,-1.55826 7.82197,-18.55801 17.80342,-36.22646 30.03637,-52.23849 -7.41707,-10.0428 -9.74219,-22.87083 -10.13482,-35.0915 0.0982,-2.41727 -0.58895,-5.42949 1.50918,-7.21474 m 2.95701,3.42939 c -0.0614,3.94473 0.20245,7.87719 0.66257,11.79737 1.25765,9.68084 3.96926,19.86474 11.03051,26.9996 -6.74837,8.1778 -12.6992,16.99362 -17.9936,26.17753 -5.34348,9.35569 -10.28819,18.97518 -14.25746,29.0057 25.50883,-8.50907 53.34277,-9.16551 79.47735,-3.184 1.95089,0.49693 3.99381,0.46012 5.9631,0.0491 26.43519,-5.11035 54.23846,-4.02448 79.88225,4.42938 -8.46,-20.31872 -19.26352,-39.78468 -33.17128,-56.90099 4.33122,-4.25761 6.81585,-9.98145 8.52748,-15.71756 2.06745,-7.35572 2.99995,-15.02432 2.73615,-22.66224 -14.06727,1.22697 -28.44743,5.19011 -39.58223,14.22065 -5.72384,-2.75456 -11.82191,-4.97539 -18.20832,-5.40483 -8.72993,-0.83435 -17.36784,1.69936 -25.11619,5.5582 -11.26364,-9.06735 -25.72355,-13.23293 -39.95033,-14.36789 m -24.56405,97.04151 c -11.53971,4.46619 -22.67451,10.63788 -31.41058,19.51504 -5.40483,5.57661 -10.018257,12.5581 -10.576531,20.50277 26.054831,0.0429 52.115791,-0.0184 78.176761,0.0307 1.50918,-0.6503 2.11653,2.08586 0.57054,2.05519 -26.25115,0.092 -52.50229,-0.006 -78.753436,0.0491 0.122698,5.07355 2.312849,9.80967 5.196246,13.8955 25.00576,-2.88952 49.96858,-6.1042 74.96208,-9.07962 3.66252,-0.38036 7.3005,-1.17176 10.99983,-1.12881 -0.0307,0.46011 -0.0982,1.38642 -0.12883,1.84653 -28.06707,3.46621 -56.13414,6.89567 -84.20734,10.28819 5.58274,6.65021 13.05502,11.41088 20.68681,15.38628 8.76674,4.49073 18.07949,7.80968 27.53333,10.50898 23.66836,6.638 48.31217,9.1656 72.83941,9.3803 19.37395,-0.1043 38.7847,-1.6933 57.79669,-5.5214 16.20835,-3.3926 32.33694,-8.12871 46.88887,-16.19608 6.76064,-3.89564 13.43539,-8.42938 18.16538,-14.74211 -24.96282,-2.98768 -49.92564,-6.04285 -74.88232,-9.10416 -0.0245,-0.44784 -0.0736,-1.33127 -0.0982,-1.77911 3.65639,-0.22086 7.25142,0.71778 10.87714,1.04293 21.91992,2.56438 43.80303,5.46004 65.73522,7.89559 2.34966,-3.84657 4.14717,-8.11031 4.3619,-12.65626 -26.60084,-0.14723 -53.2078,0.0429 -79.80864,-0.0982 -0.0123,-0.6687 -0.0123,-1.33126 -0.006,-1.9877 26.60697,-0.20245 53.22007,0.0307 79.82704,-0.11656 -0.92637,-9.63176 -7.38026,-17.60096 -14.53967,-23.60701 -7.92012,-6.56432 -17.15312,-11.39247 -26.7358,-15.03659 -24.88306,-9.32501 -52.28756,-11.20228 -78.42214,-6.93854 6.15941,0.74845 12.5765,1.19016 18.22058,4.02448 1.40489,0.76072 3.27603,2.04905 2.60119,3.91405 -1.09814,2.92634 -3.33124,5.23305 -5.53366,7.38026 -6.2453,5.79132 -14.34948,9.88329 -22.95671,10.28199 -0.0245,11.22069 -0.0368,22.44752 0.006,33.67435 7.92627,4.93857 17.36171,6.90174 26.61311,6.84039 0.006,0.35582 0.006,1.0552 0.0123,1.41102 -9.58882,0.55214 -19.2942,-1.88341 -27.57628,-6.71156 -1.9693,0.67484 -3.5521,2.18402 -5.47845,2.98769 -6.86493,3.36191 -14.65622,3.9754 -22.18372,3.90178 -0.15951,-0.5276 -0.30674,-1.04906 -0.45398,-1.55826 9.33729,0.092 18.79727,-1.93862 26.84623,-6.79131 0.21472,-11.26977 0.11043,-22.53954 0.0552,-33.80931 -9.38636,-0.37423 -18.14083,-5.24532 -24.57019,-11.90167 -1.71163,-1.95702 -3.65025,-4.06129 -4.03675,-6.72996 0.49079,-1.79752 2.33739,-2.68707 3.87725,-3.44166 5.74224,-2.38647 11.99982,-2.908 18.11016,-3.59504 -26.03643,-5.23293 -53.67405,-3.71762 -78.60006,5.71783 z"
         id="path3459" />
      <path
         style="fill:#ffffff;stroke:#000000;stroke-width:0.61348784"
         inkscape:connector-curvature="0"
         d="m 163.05471,822.26718 c 14.22678,1.13496 28.68669,5.30054 39.95033,14.36789 7.74835,-3.85884 16.38626,-6.39255 25.11619,-5.5582 6.38641,0.42944 12.48448,2.65027 18.20832,5.40483 11.1348,-9.03054 25.51496,-12.99368 39.58223,-14.22065 0.2638,7.63792 -0.6687,15.30652 -2.73615,22.66224 -1.71163,5.73611 -4.19626,11.45995 -8.52748,15.71756 13.90776,17.11631 24.71128,36.58227 33.17128,56.90099 -25.64379,-8.45386 -53.44706,-9.53973 -79.88225,-4.42938 -1.96929,0.41104 -4.01221,0.44785 -5.9631,-0.0491 -26.13458,-5.98151 -53.96852,-5.32507 -79.47735,3.184 3.96927,-10.03052 8.91398,-19.65001 14.25746,-29.0057 5.2944,-9.18391 11.24523,-17.99973 17.9936,-26.17753 -7.06125,-7.13486 -9.77286,-17.31876 -11.03051,-26.9996 -0.46012,-3.92018 -0.72392,-7.85264 -0.66257,-11.79737 m 91.73483,19.80952 c 5.14717,4.74227 10.60721,9.13484 15.78505,13.84642 1.20243,-0.17177 1.95089,-1.53985 2.7791,-2.36806 4.31282,-5.87108 5.26372,-13.48446 5.19624,-20.58251 -8.53362,0.79139 -17.18993,3.38645 -23.76039,9.10415 m -84.40365,-8.99986 c 0.16564,8.17779 1.30673,17.65004 8.04283,23.19597 5.46004,-4.56435 10.93848,-9.1471 16.14086,-14.00592 -6.69929,-5.75452 -15.45376,-8.67472 -24.18369,-9.19005 m 22.38004,47.84591 c -2.93248,1.85887 -3.82817,5.65023 -3.84044,8.91398 0.18405,2.93247 1.02453,6.20236 3.51529,8.03056 1.79138,1.28219 4.3803,0.53373 5.5582,-1.23305 2.78523,-3.85271 2.87112,-9.38637 0.55827,-13.47833 -1.07974,-1.98163 -3.61958,-3.55216 -5.79132,-2.23316 m 60.67394,-0.092 c -3.0429,1.80365 -4.03675,5.71771 -3.95086,9.04281 0.0982,3.09198 1.11655,6.69315 4.01221,8.28209 2.15948,1.12268 4.60116,-0.44171 5.61955,-2.39261 2.14721,-3.90178 2.11653,-9.01213 -0.18405,-12.8403 -1.06133,-1.84046 -3.4478,-3.19627 -5.49685,-2.09199 z"
         id="path3461" />
      <path
         style="fill:#000000;stroke:#000000;stroke-width:0.61348784"
         inkscape:connector-curvature="0"
         d="m 254.78954,842.0767 c 6.57046,-5.71764 15.22677,-8.31276 23.76039,-9.10415 0.0675,7.09805 -0.88342,14.71143 -5.19624,20.58251 -0.82821,0.82821 -1.57667,2.19629 -2.7791,2.36806 -5.17784,-4.71158 -10.63788,-9.10415 -15.78505,-13.84642 m 7.28824,0.41718 c 2.80364,2.43554 5.60114,4.87103 8.44773,7.25136 1.95089,-3.52142 2.99382,-7.50295 3.29443,-11.50897 -4.08583,0.82207 -8.1962,1.99384 -11.74216,4.25761 z"
         id="path3463" />
      <path
         style="fill:#000000;stroke:#000000;stroke-width:0.61348784"
         inkscape:connector-curvature="0"
         d="m 170.38589,833.07684 c 8.72993,0.51533 17.4844,3.43553 24.18369,9.19005 -5.20238,4.85882 -10.68082,9.44157 -16.14086,14.00592 -6.7361,-5.54593 -7.87719,-15.01818 -8.04283,-23.19597 m 4.84655,5.1717 c 0.33742,4.11037 1.45397,8.15325 3.38646,11.80964 3.05517,-2.28831 5.86494,-4.88336 8.69312,-7.44161 -3.7116,-2.20855 -7.84651,-3.59503 -12.07958,-4.36803 z"
         id="path3465" />
      <path
         style="fill:#ffffff;stroke:#000000;stroke-width:0.61348784"
         inkscape:connector-curvature="0"
         d="m 175.23244,838.24854 c 4.23307,0.773 8.36798,2.15948 12.07958,4.36803 -2.82818,2.55825 -5.63795,5.1533 -8.69312,7.44161 -1.93249,-3.65639 -3.04904,-7.69927 -3.38646,-11.80964 z"
         id="path3467" />
      <path
         style="fill:#ffffff;stroke:#000000;stroke-width:0.61348784"
         inkscape:connector-curvature="0"
         d="m 262.07778,842.49388 c 3.54596,-2.26377 7.65633,-3.43554 11.74216,-4.25761 -0.30061,4.00608 -1.34354,7.98761 -3.29443,11.50897 -2.84659,-2.38027 -5.64409,-4.81582 -8.44773,-7.25136 z"
         id="path3469" />
      <path
         style="fill:#000000;stroke:#000000;stroke-width:0.61348784"
         inkscape:connector-curvature="0"
         d="m 192.76593,880.92275 c 2.17174,-1.319 4.71158,0.25153 5.79132,2.2331 2.31285,4.09196 2.22696,9.62562 -0.55827,13.47833 -1.1779,1.76678 -3.76682,2.5153 -5.5582,1.23305 -2.49076,-1.8282 -3.33124,-5.09809 -3.51529,-8.03056 0.0123,-3.26369 0.90796,-7.05505 3.84044,-8.91392 z"
         id="path3471" />
      <path
         style="fill:#000000;stroke:#000000;stroke-width:0.61348784"
         inkscape:connector-curvature="0"
         d="m 253.43987,880.83073 c 2.04905,-1.10428 4.43552,0.25153 5.49685,2.09199 2.30058,3.82817 2.33126,8.93852 0.18405,12.8403 -1.01839,1.9509 -3.46007,3.51529 -5.61955,2.39261 -2.89566,-1.58894 -3.91405,-5.19011 -4.01221,-8.28209 -0.0859,-3.3251 0.90796,-7.23916 3.95086,-9.04281 z"
         id="path3473" />
      <path
         style="fill:#ffffff;stroke:#000000;stroke-width:0.61348784"
         inkscape:connector-curvature="0"
         d="m 138.49066,919.30869 c 24.92601,-9.43545 52.56363,-10.95076 78.60006,-5.71771 -6.11034,0.68711 -12.36792,1.20857 -18.11016,3.59504 -1.53986,0.75459 -3.38646,1.64415 -3.87725,3.44167 0.3865,2.66867 2.32512,4.77293 4.03675,6.72996 6.42936,6.65634 15.18383,11.52743 24.57019,11.90166 0.0552,11.26977 0.15951,22.53954 -0.0552,33.80931 -8.04896,4.85269 -17.50894,6.88334 -26.84623,6.79131 0.14724,0.5092 0.29447,1.03066 0.45398,1.55826 7.5275,0.0736 15.31879,-0.53987 22.18372,-3.90178 1.92635,-0.80367 3.50915,-2.31285 5.47845,-2.98768 8.28208,4.82814 17.98746,7.26369 27.57628,6.71155 -0.006,-0.35582 -0.006,-1.0552 -0.0123,-1.41102 -9.2514,0.0614 -18.68684,-1.90181 -26.61311,-6.84039 -0.0429,-11.22683 -0.0307,-22.45365 -0.006,-33.67435 8.60723,-0.39876 16.71141,-4.49067 22.95671,-10.28199 2.20242,-2.14721 4.43552,-4.45392 5.53366,-7.38026 0.67484,-1.865 -1.1963,-3.15333 -2.60119,-3.91405 -5.64408,-2.83431 -12.06117,-3.27603 -18.22058,-4.02448 26.13458,-4.26374 53.53908,-2.38647 78.42214,6.93855 9.58268,3.64411 18.81568,8.47226 26.7358,15.03658 7.15941,6.00605 13.6133,13.97526 14.53967,23.60701 -26.60697,0.14724 -53.22007,-0.0859 -79.82704,0.11657 -0.006,0.65643 -0.006,1.319 0.006,1.9877 26.60084,0.1411 53.2078,-0.0491 79.80864,0.0982 -0.21473,4.54594 -2.01224,8.80968 -4.3619,12.65625 -21.93219,-2.43555 -43.8153,-5.33121 -65.73522,-7.89559 -3.62572,-0.32515 -7.22075,-1.26378 -10.87714,-1.04293 0.0245,0.44785 0.0736,1.33127 0.0982,1.77912 24.95668,3.06136 49.9195,6.11647 74.88232,9.10416 -4.72999,6.31278 -11.40474,10.84646 -18.16538,14.74211 -14.55193,8.06736 -30.68052,12.80343 -46.88887,16.19603 -19.01199,3.8282 -38.42274,5.4171 -57.79669,5.5214 -24.52724,-0.2147 -49.17105,-2.7423 -72.83941,-9.3802 -9.45384,-2.6994 -18.76659,-6.01831 -27.53333,-10.50904 -7.63179,-3.9754 -15.10407,-8.73607 -20.68681,-15.38627 28.0732,-3.39259 56.14027,-6.82199 84.20734,-10.28819 0.0307,-0.46012 0.0982,-1.38643 0.12883,-1.84654 -3.69933,-0.043 -7.33731,0.74845 -10.99983,1.12882 -24.9935,2.97541 -49.95632,6.19009 -74.96208,9.07962 -2.883394,-4.08583 -5.073545,-8.82196 -5.196243,-13.8955 26.251143,-0.0552 52.502283,0.0429 78.753433,-0.0491 1.54599,0.0307 0.93864,-2.70548 -0.57054,-2.05519 -26.06097,-0.0491 -52.12193,0.0123 -78.176758,-0.0307 0.558274,-7.94467 5.171698,-14.92616 10.576528,-20.50276 8.73607,-8.87729 19.87087,-15.04898 31.41058,-19.51517 z"
         id="path3475" />
    </g>
    <g
       id="g3477"
       transform="translate(-2014.6385,527.53864)"
       style="stroke:#000000">
      <path
         style="fill:#373536;stroke:#000000"
         inkscape:connector-curvature="0"
         d="m 1152.98,733.28 c 12.3301,-9.51 27.14,-16.65 42.9501,-17.01 16.5499,-0.37 32.45,6.71 45.24,16.83 4.88,-4.52 10.59,-8.3199 17.1599,-9.85 10.2001,-2.66 21.25,-1.42 30.9501,2.56 6.72,3.19 7.74,11.52 8.61,18.09 0.88,18.22 -1.74,36.38 -4.4,54.36 11.01,2.06 21.6901,7.78 27.9301,17.33 3.7999,5.28 5.1,11.74 5.83,18.08 10.95,11.72 20.49,25.08 25.88,40.32 7.53,20.21 7.58,43.05 0.2,63.31 -9.9299,27.68 -31.8199,49.61 -56.89,64.17 -36.72,21.3101 -80.58,28.87 -122.5499,24.3101 -36.52,-4.05 -72.77,-17.55 -100.47,-42.16 -14.4,-12.88 -26.26,-28.99 -32.55,-47.36 -6.37,-18.15 -6.79,-38.29 -1.29,-56.7 4.8101,-16.28 13.9701,-31.11 25.63,-43.38 1.0801,-1.23 2.5701,-2.42 2.42,-4.24 0.5,-10.77 6.91,-20.67 15.75,-26.59 5.12,-3.66 11.17,-5.6 17.24,-7.03 -2.33,-14 -3.9399,-28.13 -4.61,-42.3 -0.07,-8.5 -0.34,-17.57 3.63,-25.33 2.87,-5.54 9.62,-6.58 15.13,-7.81 13.4196,-2.8801 28.4098,0.4599 38.2097,10.3999 m -1.23,10.71 c -2.98,-4.21 -6.38,-8.31 -11.03,-10.74 -9.46,-5.14 -21.0399,-4.8 -31.0399,-1.49 -2.7401,0.62 -4.65,2.92 -5.12,5.63 -2.15,10.43 -1,21.18 -0.29,31.71 0.76,11.29 3.37,22.39 3.89,33.6801 4.3199,-0.15 8.51,1.0099 12.77,1.49 42.38,-17.1 90.5099,-19.23 134.34,-6.39 6.4,1.72 12.47,4.48 18.78,6.43 4.2,-0.76 8.4099,-1.66 12.72,-1.48 -1.67,-5.06 0.39,-10.31 0.85,-15.4 1.85,-14.35 3.6901,-28.86 2.88,-43.35 -0.6,-4.29 -0.46,-10.49 -5.48,-12.08 -9.27,-3.33 -19.84,-3.98 -29.0801,-0.16 -5.7599,2.27 -9.9299,6.98 -13.5599,11.8 -12.48,-11.1 -28.23,-20.11 -45.38,-19.91 C 1179.85,723.7 1164.2,732.88 1151.75,743.99 m -30.11,62.72 c -1.61,0.54 -3.27,-0.35 -4.85,-0.53 -13.52,-3.24 -29.29,1.58 -37.3101,13.28 -3.58,5.0099 -4.87,11.27 -4.48,17.34 -17,16.1 -29.49,37.84 -31.49,61.45 -2.3101,23 5.89,46.22 20.12,64.17 20.9399,26.56 52.24,43.17 84.62,51.34 44.27,10.6899 92.49,7.02 133.67,-12.91 25.5299,-12.42 48.74,-31.85 61.0299,-57.88 9.74,-20.23 11.1801,-44.27 3.6001,-65.43 -5.4,-15.67 -15.29,-29.43 -27.0801,-40.93 0.28,-5.4 -0.48,-11.01 -3.4199,-15.64 -7.5599,-12.69 -24.0699,-18.13 -38.0899,-14.82 -1.83,0.23 -3.73,1.21 -5.52,0.41 -47.73,-19.48 -103.1,-19.31 -150.8,0.15 z"
         id="path3479" />
      <path
         style="fill:#ffffff;stroke:#000000"
         inkscape:connector-curvature="0"
         d="m 1151.75,743.99 c 12.45,-11.11 28.1,-20.29 45.25,-20.26 17.15,-0.2 32.9,8.81 45.38,19.91 3.63,-4.82 7.8,-9.53 13.5599,-11.8 9.2401,-3.82 19.8101,-3.17 29.0801,0.16 5.02,1.59 4.88,7.79 5.48,12.08 0.8101,14.49 -1.03,29 -2.88,43.35 -0.46,5.09 -2.52,10.34 -0.85,15.4 -4.3101,-0.18 -8.52,0.72 -12.72,1.48 -6.3101,-1.95 -12.38,-4.71 -18.78,-6.43 -43.8301,-12.84 -91.96,-10.71 -134.34,6.39 -4.26,-0.48 -8.4501,-1.64 -12.77,-1.49 -0.52,-11.29 -3.13,-22.39 -3.89,-33.6801 -0.71,-10.53 -1.86,-21.28 0.29,-31.71 0.47,-2.71 2.3799,-5.01 5.12,-5.63 10,-3.31 21.58,-3.65 31.0399,1.49 4.6501,2.4301 8.0501,6.5301 11.0301,10.7401 m -39.24,5.01 c 0.3,13.11 1.99,26.14 3.15,39.19 7.0399,-10.39 14,-20.89 22.33,-30.33 -3.66,-8.87 -12.99,-15.86 -22.83,-14.8 -2.95,0.26 -2.43,3.84 -2.65,5.94 m 143.72,8.58 c 8.46,9.15 15.05,19.78 22.3101,29.83 0.6599,-7.53 1.35,-15.05 2.3099,-22.55 0.5801,-6.22 1.78,-12.47 1.13,-18.72 -0.02,-2.07 -2.38,-2.41 -3.95,-2.49 -9.26,-0.59 -18.37,5.35 -21.8,13.93 m -110.85,7.75 c -4.55,2.37 -6.33,7.83 -6.63,12.64 -0.3199,5.34 0.84,11.44 5.21,14.9901 3.1001,2.44 7.91,1.03 9.8101,-2.28 4.25,-6.54 4.24,-15.81 -0.08,-22.31 -1.74,-2.6701 -5.22,-4.5101 -8.31,-3.0401 m 98.92,-0.13 c -3.01,1.27 -4.8101,4.26 -5.8401,7.22 -2.1699,6.34 -1.49,14.01 2.8101,19.32 2.5,3.21 7.9299,3.24 10.38,-0.07 4.8099,-6.09 5.1,-15.14 1.5699,-21.91 -1.6099,-3.19 -5.2299,-5.98 -8.9199,-4.56 z"
         id="path3481" />
      <path
         style="fill:#373536;stroke:#000000"
         inkscape:connector-curvature="0"
         d="m 1112.51,749 c 0.22,-2.1 -0.3,-5.68 2.65,-5.94 9.84,-1.06 19.1699,5.93 22.83,14.8 -8.33,9.44 -15.29,19.94 -22.33,30.33 -1.16,-13.05 -2.8499,-26.08 -3.15,-39.19 m 4.96,0.92 c 0.5901,5.87 2.5601,11.48 3.3301,17.33 2.96,-3.3 5.4199,-7 8.3099,-10.36 -2.98,-3.59 -7.09,-6 -11.64,-6.97 z"
         id="path3483" />
      <path
         style="fill:#373536;stroke:#000000"
         inkscape:connector-curvature="0"
         d="m 1256.23,757.58 c 3.4301,-8.58 12.54,-14.52 21.8,-13.93 1.5699,0.08 3.9299,0.42 3.95,2.49 0.65,6.25 -0.5499,12.5 -1.13,18.72 -0.96,7.5 -1.65,15.02 -2.3099,22.55 -7.2601,-10.05 -13.8502,-20.68 -22.3101,-29.83 m 9,-0.94 c 2.65,3.23 5.2001,6.55 7.77,9.85 0.8101,-5.45 3.1801,-10.46 4.51,-15.77 -4.71,0.25 -9.21,2.33 -12.28,5.92 z"
         id="path3485" />
      <path
         style="fill:#ffffff;stroke:#000000"
         inkscape:connector-curvature="0"
         d="m 1117.47,749.92 c 4.55,0.97 8.66,3.38 11.64,6.97 -2.89,3.36 -5.35,7.06 -8.3099,10.36 -0.7701,-5.85 -2.74,-11.46 -3.3301,-17.33 z"
         id="path3487" />
      <path
         style="fill:#ffffff;stroke:#000000"
         inkscape:connector-curvature="0"
         d="m 1265.23,756.64 c 3.0701,-3.59 7.5701,-5.67 12.28,-5.92 -1.33,5.3101 -3.7,10.32 -4.51,15.77 -2.5699,-3.3 -5.12,-6.62 -7.77,-9.85 z"
         id="path3489" />
      <path
         style="fill:#373536;stroke:#000000"
         inkscape:connector-curvature="0"
         d="m 1145.38,765.33 c 3.09,-1.47 6.5699,0.37 8.3099,3.04 4.3201,6.5 4.3301,15.77 0.08,22.31 -1.9,3.31 -6.71,4.72 -9.8101,2.28 -4.37,-3.55 -5.5299,-9.65 -5.21,-14.9901 C 1139.05,773.16 1140.83,767.7 1145.38,765.33 Z"
         id="path3491" />
      <path
         style="fill:#373536;stroke:#000000"
         inkscape:connector-curvature="0"
         d="m 1244.3,765.2 c 3.6899,-1.42 7.3099,1.37 8.9199,4.56 3.53,6.77 3.24,15.82 -1.5699,21.91 -2.4501,3.31 -7.88,3.28 -10.38,0.07 -4.3,-5.31 -4.98,-12.98 -2.8101,-19.32 1.0301,-2.96 2.8301,-5.95 5.8401,-7.22 z"
         id="path3493" />
      <path
         style="fill:#ffffff;stroke:#000000"
         inkscape:connector-curvature="0"
         d="m 1121.64,806.71 c 47.7,-19.46 103.0699,-19.63 150.7999,-0.15 1.79,0.8 3.6901,-0.18 5.52,-0.41 14.02,-3.31 30.53,2.13 38.0901,14.8199 2.9399,4.63 3.7,10.2401 3.4199,15.64 11.79,11.5 21.6801,25.26 27.0801,40.93 7.58,21.16 6.1399,45.2 -3.6001,65.43 -12.2899,26.03 -35.5,45.46 -61.0299,57.88 -41.1801,19.9301 -89.4,23.6 -133.67,12.91 -32.38,-8.17 -63.6801,-24.78 -84.62,-51.34 -14.23,-17.95 -22.4301,-41.17 -20.12,-64.17 2,-23.61 14.49,-45.35 31.49,-61.45 -0.39,-6.07 0.9,-12.33 4.48,-17.34 8.02,-11.7 23.79,-16.52 37.3101,-13.28 1.5799,0.1801 3.2399,1.0701 4.8499,0.5301 m -20.25,12.75 c -6.15,1.91 -11.3201,7.89 -10.75,14.56 0.33,7.13 6.78,12.6 13.52,13.69 9.4299,2.07 20.96,-5.34 19.9199,-15.71 -1.0299,-10.4 -13.4899,-15.95 -22.6899,-12.54 m 181.9201,-0.22 c -7.4801,1.8 -13.25,9.77 -11.03,17.47 2.5699,9.2 14.0699,13.56 22.59,10.14 7.08,-2.23 12.35,-10.18 9.88,-17.55 -2.7701,-8.6 -13.1601,-12.6 -21.44,-10.06 M 1259.99,947.77 c -0.51,3.33 -2.54,6.2 -5.6799,7.51 -12.16,5.97 -25.9301,7.11 -39.2001,8.53 -22.0599,1.26 -44.5699,0.81 -66.0499,-4.89 -5.3101,-1.68 -11.65,-3.28 -14.4501,-8.61 -1.1899,-2.84 -4.6899,-1.54 -6.96,-1.37 -0.16,5.52 5.75,7.87 9.8099,10.11 -1.2799,6.41 -2.88,12.76 -3.97,19.21 -0.71,3 1.46,6.27 4.55,6.67 5.3099,1.11 10.6,2.4 15.96,3.29 2.65,0.64 5.77,-0.9399 6.46,-3.67 1.36,-5.25 2.26,-10.6 3.3501,-15.91 0.2899,-1.12 0.2599,-3.53 2.1299,-2.86 21.27,2.78 42.88,2.52 64.15,-0.17 1.04,6.23 2.4301,12.39 3.87,18.54 0.5601,2.64 3.3101,4.62 6.02,4.14 4.85,-0.7 9.6,-1.95 14.42,-2.87 1.9199,-0.51 4.26,-0.68 5.5399,-2.43 1.7001,-1.92 1.1801,-4.67 0.7401,-6.94 -1.29,-5.71 -2.2201,-11.49 -3.7101,-17.14 4.3,-2.29 10.22,-5.14 9.53,-10.99 -2.1498,-0.65 -4.3698,-0.82 -6.5098,-0.15 z"
         id="path3495" />
      <path
         style="fill:#373536;stroke:#000000"
         inkscape:connector-curvature="0"
         d="m 1101.39,819.46 c 9.2,-3.41 21.66,2.14 22.6899,12.54 1.04,10.37 -10.49,17.78 -19.9199,15.71 -6.74,-1.09 -13.1901,-6.56 -13.52,-13.69 -0.5701,-6.67 4.6,-12.65 10.75,-14.56 z"
         id="path3497" />
      <path
         style="fill:#373536;stroke:#000000"
         inkscape:connector-curvature="0"
         d="m 1283.3101,819.24 c 8.2799,-2.54 18.6699,1.46 21.4399,10.06 2.47,7.37 -2.8,15.32 -9.88,17.55 -8.52,3.42 -20.02,-0.94 -22.59,-10.14 -2.2199,-7.7 3.55,-15.67 11.0301,-17.47 z"
         id="path3499" />
      <path
         style="fill:#373536;stroke:#000000"
         inkscape:connector-curvature="0"
         d="m 1259.99,947.77 c 2.14,-0.67 4.36,-0.5 6.51,0.15 0.6899,5.85 -5.23,8.7 -9.53,10.99 1.49,5.65 2.42,11.4301 3.7101,17.14 0.4399,2.27 0.96,5.02 -0.7401,6.94 -1.2799,1.75 -3.62,1.92 -5.5399,2.43 -4.8201,0.92 -9.5701,2.17 -14.42,2.87 -2.71,0.48 -5.46,-1.5 -6.02,-4.14 -1.4399,-6.15 -2.83,-12.31 -3.87,-18.54 -21.27,2.69 -42.88,2.95 -64.15,0.17 -1.87,-0.67 -1.84,1.74 -2.1299,2.86 -1.0901,5.31 -1.9901,10.66 -3.3501,15.91 -0.6899,2.73 -3.8099,4.31 -6.46,3.67 -5.36,-0.89 -10.65,-2.18 -15.96,-3.29 -3.0901,-0.4 -5.26,-3.67 -4.55,-6.67 1.09,-6.45 2.6901,-12.8 3.97,-19.21 -4.0599,-2.24 -9.97,-4.59 -9.8099,-10.11 2.27,-0.17 5.77,-1.47 6.96,1.37 2.8,5.33 9.14,6.93 14.4501,8.61 21.48,5.7 43.99,6.15 66.0499,4.89 13.27,-1.42 27.04,-2.56 39.2001,-8.53 3.1397,-1.31 5.1697,-4.18 5.6797,-7.51 m -120.12,12.17 c -1.52,6.31 -2.9399,12.68 -3.9399,19.1 -0.6101,2.15 1.62,3.4 3.4299,3.69 5.23,1.11 10.4501,2.37 15.76,3.13 1.62,0.24 2.89,-1.15 3.15,-2.65 1.5,-5.94 2.46,-12.01 3.75,-17.9901 -7.53,-1.0399 -14.98,-2.7699 -22.15,-5.2799 m 92.75,5.19 c 0.75,5.38 2.13,10.64 3.15,15.98 0.41,1.47 0.4299,3.38 1.9,4.31 1.37,0.9 3.0599,0.21 4.5699,0.03 4.75,-1.05 9.5701,-1.81 14.27,-3.09 1.71,-0.39 2.7,-2.33 2.13,-3.95 -1.29,-6.18 -2.53,-12.37 -3.8201,-18.54 -7.2698,2.26 -14.6397,4.27 -22.1998,5.26 z"
         id="path3501" />
      <path
         style="fill:#ffffff;stroke:#000000"
         inkscape:connector-curvature="0"
         d="m 1139.87,959.94 c 7.17,2.51 14.62,4.24 22.15,5.28 -1.29,5.98 -2.25,12.05 -3.75,17.9901 -0.26,1.5 -1.53,2.89 -3.15,2.65 -5.3099,-0.76 -10.53,-2.02 -15.76,-3.13 -1.8099,-0.29 -4.04,-1.54 -3.4299,-3.69 1,-6.4201 2.4199,-12.7901 3.9399,-19.1001 z"
         id="path3503" />
      <path
         style="fill:#ffffff;stroke:#000000"
         inkscape:connector-curvature="0"
         d="m 1232.62,965.13 c 7.5601,-0.99 14.9301,-3 22.2,-5.26 1.29,6.17 2.53,12.36 3.8201,18.54 0.5699,1.6201 -0.42,3.56 -2.13,3.95 -4.7,1.28 -9.52,2.04 -14.27,3.09 -1.51,0.18 -3.2,0.87 -4.5699,-0.03 -1.4701,-0.93 -1.49,-2.84 -1.9,-4.31 -1.0202,-5.34 -2.4002,-10.6 -3.1502,-15.98 z"
         id="path3505" />
    </g>
    <g
       id="g3507"
       transform="matrix(0.46052314,0,0,0.46052314,387.95773,1084.3908)"
       style="stroke:#000000">
      <path
         style="fill:#373536;stroke:#000000"
         inkscape:connector-curvature="0"
         d="m 644.37,694.36 c 13.92,-8.2 31.91,-6.89 45.91,0.42 12.45,7.11 21.29,18.74 30.83,29.1299 11.96,-4.86 25.06,-7.29 37.94,-5.65 6.72,0.79 13.2,2.8 19.61,4.89 7.56,-8.55 14.96,-17.41 24.04,-24.42 9.9,-7.74 22.95,-10.72 35.34,-9.78 12.11,1.12 23.04,8.11 30.42,17.57 10.98,13.89 16.39,31.27 19.41,48.48 1.86,12.2 2.63,24.69 0.89,36.95 -0.74,4.88 -2.11,9.8 -4.87,13.95 -2.56,3.71 -7.26,6.41 -11.84,5.23 -4.51,-0.94 -7.1,-5.04 -10.12,-8.1 11.58,19.04 22.2,38.73 30.6,59.41 0.71,1.51 1.15,3.58 3.0699,4.01 16.23,6.29 31.9,14.49 45.29,25.7 12.37,10.35 23.3,23.98 25.8,40.35 2.17,14.2 -4.02,28.36 -13.4,38.78 -13.34,14.9 -31.2599,24.7599 -49.45,32.5 -41.1,16.92 -85.63,23.6799 -129.78,26.08 -49.77,1.91 -100.15,-2.11 -148.15,-15.91 -17.3799,-5.17 -34.49,-11.6 -50.24,-20.64 -12.11,-7.02 -23.66,-15.6 -32.03,-26.95 -6,-8.18 -10.07,-18.12 -9.79,-28.39 0.01,-13.93 7.2401,-26.74 16.22,-36.9399 15.44,-17.36 36.28,-28.85 57.67,-37.26 10.07,-24.42 22.54,-47.86 37.33,-69.75 10.41,-15.25 22.04,-29.75 35.44,-42.5 2.53,-2.54 5.51,-4.63 7.76,-7.44 -10.24,1.49 -20.51,5.78 -27.12,14.03 -9.66,11.84 -12.77,27.35 -20.97,40.08 -3.13,4.68 -6.28,9.92 -11.56,12.41 -5.15,2.34 -11.17,-0.72 -13.88,-5.31 -4.59,-7.57 -5.03,-16.71 -5.46,-25.3 -0.09,-18.56 3.05,-37.27 10.2,-54.45 C 624.72,713.2 632.59,701.29 644.37,694.36 m 67.43,42.44 c -22.77,13.51 -40.69,33.68 -56.08,54.92 -16.46,23.19 -30.33,48.3 -40.93,74.69 40.16,-13.52 83.88,-15.37 125.29,-6.83 12.39,2.54 24.84,-0.56 37.15,-1.99 36.82,-4.1801 74.57,-0.78 109.8,10.87 -9.95,-24.62 -22.4301,-48.23 -37.26,-70.26 -12.8,-18.76 -27.44,-36.51 -45.14,-50.85 -12.53,-9.96 -26.88,-18.35 -42.82,-21.14 -17.27,-3.49 -35.13,1.83 -50.01,10.59 m 101.64,7.89 c 2.96,3.32 6.52,6.04 9.62,9.24 13.23,12.97 24.44,27.78 34.88,43.03 -1.98,-4.26 -4.37,-8.32 -6.22,-12.64 -4.15,-9.22 -7.62,-19.02 -14.31,-26.79 -6.02,-7.1 -14.87,-11.4 -23.97,-12.84 M 666.97,857.92 c -27.6899,2.6 -55.18,9.99 -79.6299,23.42 -13.27,7.42 -25.82,16.68 -35.1801,28.78 -6.74,8.77 -11.78,19.63 -10.85,30.92 0.8,10.89 6.94,20.59 14.42,28.23 10.59,10.67 23.77,18.37 37.31,24.68 20.67,9.49 42.69,15.7 64.93,20.22 48.02,9.42 97.46,10.98 146.09,5.93 23.76,-2.64 47.39,-6.86 70.31,-13.71 20.29,-6.12 40.31,-14.07 57.81,-26.22 10.42,-7.45 20.26,-16.74 25.05,-28.89 3.28,-8.4 3.15,-17.96 -0.14,-26.32 -3.67,-9.48 -10.28,-17.5 -17.69,-24.31 -10.97,-10 -23.96,-17.53 -37.45,-23.58 -21.27,-9.39 -44.15,-14.84 -67.22,-17.34 -23.23,-2.22 -46.8,-1.84 -69.82,2.11 9.97,1.31 20.38,2.0099 29.53,6.62 2.15,1.19 5.19,3.29 4.22,6.17 -1.46,4.12 -4.44,7.49 -7.45,10.58 -10.35,10.35 -24.27,17.71 -39.08,18.35 0.18,18.3 -0.41,36.69 0.29,54.93 13.2,8.81 29.39,10.88 44.89,11.54 -0.38,0.52 -1.14,1.56 -1.52,2.08 -8.35,0.34 -16.72,-0.72 -24.85,-2.58 0.75,5.1899 0.95,10.6 -0.85,15.62 -2.61,8.29 -10.17,15.33 -19.1201,15.66 -8.27,0.44 -15.85,-5.2 -19.3199,-12.45 -2.91,-5.6 -3.1,-12.11 -2.27,-18.23 -8.36,1.86 -17.01,2.41 -25.54,1.9 -0.11,-0.54 -0.34,-1.61 -0.45,-2.15 12.7,-0.3 25.66,-1.73 37.29,-7.22 2.76,-1.47 6.01,-2.5 8.14,-4.85 0.06,-18.04 -0.02,-36.08 0.03,-54.11 -16.9,-1.09 -32.86,-10.09 -43.36,-23.23 -2.14,-2.87 -5.45,-7.6 -1.46,-10.43 9.99,-6.61 22.54,-6.74 34.02,-8.5099 -23.4,-4.2801 -47.37,-6.0401 -71.08,-3.6101 m 65.28,111.49 c -1.91,7.04 -0.81,14.94 3.44,20.9301 3.23,4.61 8.54,8 14.29,8 5.83,0.23 11.22,-3.22 14.59,-7.78 3.99,-5.53 5.41,-12.75 4.05,-19.4 -0.28,-1.16 -0.41,-2.67 -1.86,-2.87 -5.07,-1.69 -9.93,-3.91 -14.64,-6.43 0.01,8.06 0.07,16.11 -0.04,24.17 -0.78,0 -2.34,0.01 -3.12,0.01 -0.09,-8.09 -0.03,-16.18 -0.03,-24.2599 -5.21,3.2399 -10.74,6.0099 -16.68,7.6299 z"
         id="path3509" />
      <path
         style="fill:#ffffff;stroke:#000000"
         inkscape:connector-curvature="0"
         d="m 711.8,736.8 c 14.88,-8.76 32.74,-14.08 50.01,-10.59 15.94,2.79 30.29,11.18 42.82,21.14 17.7,14.34 32.34,32.09 45.14,50.85 14.83,22.03 27.31,45.64 37.26,70.26 -35.23,-11.65 -72.98,-15.05 -109.8,-10.87 -12.31,1.43 -24.76,4.53 -37.15,1.99 -41.41,-8.54 -85.13,-6.69 -125.29,6.83 10.6,-26.39 24.47,-51.5 40.93,-74.69 15.39,-21.24 33.31,-41.41 56.08,-54.92 m -13.41,71.49 c -5.8,3.58 -7.04,11.45 -6.15,17.71 0.79,4.27 2.64,9.24 7.09,10.83 3.09,1.08 6.34,-0.97 7.92,-3.58 3.8,-5.97 3.91,-14.01 0.86,-20.32 -1.63,-3.52 -5.79,-6.75 -9.72,-4.64 m 98.89,-0.14 c -4.85,2.67 -6.4901,8.66 -6.63,13.84 -0.07,5.22 1.45,11.23 6.05,14.3 3.1,1.96 7.11,0.21 8.94,-2.68 4.41,-6.5 4.37,-15.73 0.13,-22.3 -1.72,-2.79 -5.32,-4.6 -8.49,-3.16 z"
         id="path3511" />
      <path
         style="fill:#ffffff;stroke:#000000"
         inkscape:connector-curvature="0"
         d="m 813.44,744.69 c 9.1,1.44 17.95,5.74 23.97,12.84 6.69,7.77 10.16,17.5699 14.31,26.79 1.85,4.32 4.2401,8.38 6.22,12.64 -10.44,-15.25 -21.65,-30.06 -34.88,-43.03 -3.1,-3.2 -6.66,-5.92 -9.62,-9.24 z"
         id="path3513" />
      <path
         style="fill:#373536;stroke:#000000"
         inkscape:connector-curvature="0"
         d="m 698.39,808.29 c 3.93,-2.11 8.09,1.12 9.72,4.64 3.05,6.31 2.94,14.35 -0.86,20.32 -1.58,2.61 -4.83,4.66 -7.92,3.58 -4.45,-1.59 -6.3,-6.56 -7.09,-10.83 -0.89,-6.26 0.35,-14.13 6.15,-17.71 z"
         id="path3515" />
      <path
         style="fill:#373536;stroke:#000000"
         inkscape:connector-curvature="0"
         d="m 797.28,808.15 c 3.17,-1.44 6.77,0.37 8.49,3.16 4.24,6.57 4.28,15.8 -0.13,22.3 -1.83,2.89 -5.84,4.64 -8.94,2.68 -4.6,-3.07 -6.12,-9.08 -6.05,-14.3 0.14,-5.18 1.78,-11.17 6.63,-13.84 z"
         id="path3517" />
      <path
         style="fill:#ffffff;stroke:#000000"
         inkscape:connector-curvature="0"
         d="m 666.97,857.92 c 23.71,-2.43 47.6801,-0.67 71.08,3.61 -11.48,1.77 -24.03,1.9 -34.02,8.5099 -3.9901,2.83 -0.6801,7.56 1.46,10.43 10.5,13.14 26.46,22.14 43.36,23.23 -0.05,18.03 0.03,36.07 -0.03,54.11 -2.13,2.35 -5.38,3.38 -8.14,4.85 -11.63,5.4901 -24.59,6.92 -37.29,7.22 0.11,0.54 0.34,1.61 0.45,2.15 8.53,0.5099 17.18,-0.04 25.54,-1.9 -0.83,6.12 -0.64,12.63 2.27,18.23 3.47,7.25 11.05,12.89 19.3199,12.45 8.95,-0.33 16.51,-7.37 19.1201,-15.66 1.8,-5.02 1.6,-10.4301 0.85,-15.62 8.13,1.86 16.5,2.92 24.85,2.58 0.38,-0.52 1.14,-1.56 1.52,-2.08 -15.5,-0.66 -31.69,-2.73 -44.89,-11.54 -0.7,-18.24 -0.11,-36.63 -0.29,-54.93 14.81,-0.64 28.73,-8 39.08,-18.35 3.0099,-3.09 5.99,-6.46 7.45,-10.58 0.97,-2.88 -2.0699,-4.98 -4.22,-6.17 -9.15,-4.61 -19.56,-5.31 -29.53,-6.62 23.02,-3.95 46.59,-4.33 69.82,-2.11 23.07,2.5 45.95,7.95 67.22,17.34 13.49,6.05 26.48,13.58 37.45,23.58 7.41,6.81 14.02,14.83 17.69,24.31 3.29,8.36 3.42,17.92 0.14,26.32 -4.79,12.15 -14.63,21.4399 -25.05,28.89 -17.5,12.15 -37.52,20.1 -57.81,26.22 -22.92,6.85 -46.55,11.07 -70.31,13.71 -48.63,5.05 -98.07,3.4901 -146.09,-5.93 -22.24,-4.52 -44.2599,-10.73 -64.93,-20.22 -13.54,-6.31 -26.72,-14.01 -37.31,-24.68 -7.48,-7.64 -13.62,-17.34 -14.42,-28.23 -0.93,-11.29 4.11,-22.15 10.85,-30.92 9.36,-12.1 21.91,-21.36 35.1801,-28.78 C 611.79,867.91 639.28,860.52 666.97,857.92 Z"
         id="path3519" />
      <path
         style="fill:#ffffff;stroke:#000000"
         inkscape:connector-curvature="0"
         d="m 732.25,969.41 c 5.94,-1.62 11.47,-4.39 16.68,-7.6299 0,8.08 -0.06,16.17 0.03,24.2599 0.78,0 2.34,-0.01 3.12,-0.01 0.11,-8.0601 0.05,-16.11 0.04,-24.17 4.71,2.52 9.57,4.74 14.64,6.43 1.45,0.2 1.58,1.71 1.86,2.87 1.36,6.65 -0.06,13.8701 -4.05,19.4 -3.37,4.56 -8.76,8.01 -14.59,7.78 -5.75,0 -11.06,-3.39 -14.29,-8 -4.25,-5.9901 -5.35,-13.8901 -3.44,-20.9301 z"
         id="path3521" />
    </g>
    <g
       id="g3523"
       transform="translate(-2014.6385,527.53864)"
       style="stroke:#000000">
      <path
         style="fill:#373536;stroke:#000000"
         inkscape:connector-curvature="0"
         d="m 1651.99,679.98 c -1.45,-6.16 3.73,-12.69 10.04,-12.74 14.6699,-0.12 29.35,-0.07 44.02,-0.02 6.3199,-0.12 11.8199,6.2401 10.49,12.5 -2.65,13.4 -5.6901,26.7401 -8.3201,40.15 9.9,2.9 18.87,8.09 27.64,13.42 9.5701,-11.85 20.4301,-22.85 33.08,-31.41 5.9501,-3.68 12.64,-7.6 19.92,-6.7 3.84,0.57 5.97,4.37 7.17,7.71 3.5499,10.29 3.73,21.33 3.95,32.1 -0.1699,15.98 -1.0599,31.97 -3.1,47.82 -0.53,5.35 -1.75,10.65 -1.99,16.02 19.6899,31.91 35.76,66.23 46.04,102.34 3.0599,11.39 5.7799,23.03 5.86,34.88 -0.2201,15.12 -7.1801,29.43 -17.13,40.56 -11.25,12.65 -25.6901,22.04 -40.89,29.25 -19.75,9.3 -41.03,14.98 -62.5601,18.24 -43.4299,6.15 -88.6699,3.01 -130.01,-12.17 -17.6799,-6.59 -34.72,-15.65 -48.6799,-28.48 -11.16,-10.26 -20.26,-23.52 -22.97,-38.66 -2.39,-14.09 1.0499,-28.25 4.5,-41.86 8.9299,-32.13 22.5399,-62.86 39.1399,-91.74 2.1801,-4.16 5.2401,-7.88 7,-12.24 -3.4099,-23.14 -5.6399,-46.54 -5.1399,-69.96 0.4199,-9.04 0.87,-18.32 4.1399,-26.86 1.1801,-3.13 3.3301,-6.5 6.9501,-6.97 6.77,-0.84 13.0699,2.64 18.7,5.98 13.42,8.66 24.53,20.38 34.7201,32.56 7.8999,-5.77 16.85,-9.86 25.8999,-13.49 -2.9599,-13.38 -5.7499,-26.8 -8.4699,-40.23 m -71.8099,25.17 c -2.12,6.0099 -2.3201,12.47 -2.67,18.78 -0.88,25.73 1.47,51.49 5.54,76.87 -8.3401,13.63 -16.3601,27.49 -23.2001,41.96 -10.2899,21.63 -19.26,44.05 -24.9399,67.36 2.88,-4.17 5.37,-8.63 8.7999,-12.39 10.7101,-12.41 24.6801,-21.56 39.3501,-28.62 21.33,-10.14 44.49,-15.97 67.86,-18.98 40.9199,-4.84 83.2699,-1.46 122.08,12.87 19.0699,7.27 37.61,17.32 51.66,32.38 4.39,4.4 7.46,9.81 11.09,14.8 -10.1801,-38.5 -26.88,-75.19 -48.13,-108.81 -1.05,-1.26 -0.54,-2.85 -0.3,-4.25 1.15,-5.97 1.89,-12.01 2.55,-18.05 2.39,-21.72 3.8101,-43.71 1.75,-65.51 -0.97,-3.83 -0.54,-9.68 -4.86,-11.36 -5.12,0.08 -9.6,3.13 -13.77,5.78 -13.88,9.71 -25.8,22.08 -35.74,35.75 -14.7,-11.29 -32.4,-19.9 -51.27,-19.98 -19.5499,-0.33 -38.03,8.49 -53.15,20.3 -8.88,-12.52 -19.62,-23.72 -31.76,-33.1 -4.96,-3.64 -10.1599,-7.4 -16.2799,-8.71 -2.0702,-0.57 -4.1202,0.91 -4.6101,2.91 M 1657.5,851.92 c -21.71,2.11 -43.22,6.95 -63.49,15.07 -15.53,6.34 -30.51,14.67 -42.6901,26.33 -9.24,8.78 -16.74,19.88 -19.33,32.52 -2.2,10.89 -0.3,22.44 4.9301,32.22 6.96,13.41 18.6,23.74 31.1499,31.85 17.41,11.11 37.0701,18.31 57.1001,23.03 20.5599,4.84 41.74,6.77 62.84,6.72 23.77,-0.39 47.61,-3.36 70.42,-10.22 18.9299,-5.64 37.36,-13.8 53.0399,-25.95 11.99,-9.35 22.49,-21.64 26.4,-36.61 3.79,-14.2 0.1,-29.62 -8.3199,-41.46 -9.3201,-13.38 -22.77,-23.31 -37,-30.93 -20.6101,-10.93 -43.3301,-17.36 -66.3,-20.94 -22.73,-3.36 -45.89,-4 -68.75,-1.63 z"
         id="path3525" />
      <path
         style="fill:#ffffff;stroke:#000000"
         inkscape:connector-curvature="0"
         d="m 1580.1801,705.15 c 0.49,-2 2.5399,-3.48 4.61,-2.91 6.12,1.31 11.3199,5.07 16.2799,8.71 12.14,9.38 22.88,20.58 31.76,33.1 15.12,-11.81 33.6001,-20.63 53.15,-20.3 18.87,0.08 36.5701,8.69 51.27,19.98 9.9399,-13.67 21.86,-26.04 35.74,-35.75 4.17,-2.65 8.65,-5.7 13.77,-5.78 4.3199,1.68 3.89,7.53 4.86,11.36 2.0601,21.8 0.64,43.79 -1.75,65.51 -0.66,6.04 -1.4,12.08 -2.55,18.05 -0.24,1.4 -0.75,2.99 0.3,4.25 21.25,33.62 37.95,70.31 48.13,108.81 -3.63,-4.99 -6.7,-10.4 -11.09,-14.8 -14.05,-15.06 -32.5901,-25.11 -51.66,-32.38 -38.8101,-14.33 -81.16,-17.71 -122.08,-12.87 -23.37,3.01 -46.53,8.84 -67.86,18.98 -14.67,7.06 -28.64,16.21 -39.3501,28.62 -3.4299,3.76 -5.9199,8.22 -8.7999,12.39 5.6799,-23.31 14.65,-45.73 24.9399,-67.36 6.84,-14.47 14.86,-28.33 23.2001,-41.96 -4.0701,-25.38 -6.42,-51.14 -5.54,-76.87 0.35,-6.31 0.5501,-12.77 2.6701,-18.78 m 11.0599,23.84 c -1.66,6.53 -1.54,13.32 -1.71,20.01 0.03,13.13 0.71,26.24 1.9,39.31 8.09,-10.51 16.1799,-21.08 25.6799,-30.38 -4.33,-8.86 -9.99,-17.11 -16.85,-24.2 -2.5099,-2.28 -5.2499,-5.5 -9.0199,-4.74 m 178.46,4.7 c -6.49,6.72 -11.9299,14.47 -16.21,22.77 -0.97,1.65 1.39,2.67 2.1801,3.86 8.4199,8.36 15.4399,17.97 22.86,27.18 1.53,-17.14 2.4299,-34.4 1.35,-51.59 -0.47,-2.36 -0.13,-5.42 -2,-7.14 -3.4201,0.02 -5.8601,2.79 -8.1801,4.92 m -135.22,70.81 c -3.9199,1.07 -6.12,5.04 -7.11,8.7 -1.47,6.29 -0.97,13.84 3.78,18.67 2.46,2.7 7.13,2.56 9.4299,-0.3 5.1001,-5.79 5.3301,-14.72 2.3301,-21.56 -1.4799,-3.13 -4.68,-6.42 -8.43,-5.51 m 98.93,-0.07 c -4.0601,0.87 -6.3401,4.95 -7.3301,8.66 -1.6,6.18 -0.99,13.53 3.41,18.46 2.29,2.83 6.9,3.04 9.4301,0.39 4.96,-5.06 5.35,-13.04 3.6,-19.55 -1.22,-3.93 -4.44,-8.62 -9.11,-7.96 z"
         id="path3527" />
      <path
         style="fill:#373536;stroke:#000000"
         inkscape:connector-curvature="0"
         d="m 1591.24,728.99 c 3.77,-0.76 6.51,2.46 9.02,4.74 6.86,7.09 12.52,15.34 16.85,24.2 -9.5,9.3 -17.59,19.87 -25.6799,30.38 -1.1901,-13.07 -1.87,-26.18 -1.9,-39.31 0.1699,-6.69 0.05,-13.48 1.7099,-20.01 m 4.91,11 c 1.23,9.39 0.52,18.89 1.2,28.32 3.8201,-3.63 6.86,-7.99 10.7101,-11.6 -3.2001,-6.08 -7.4401,-11.54 -11.9101,-16.72 z"
         id="path3529" />
      <path
         style="fill:#373536;stroke:#000000"
         inkscape:connector-curvature="0"
         d="m 1769.7,733.69 c 2.3201,-2.13 4.76,-4.9 8.1801,-4.92 1.87,1.72 1.53,4.78 2,7.14 1.08,17.19 0.1801,34.45 -1.35,51.59 -7.42,-9.21 -14.4401,-18.82 -22.86,-27.18 -0.79,-1.19 -3.15,-2.21 -2.1801,-3.86 4.28,-8.3 9.72,-16.05 16.21,-22.77 m -7.7,22.4 c 3.64,3.89 7.11,7.93 10.62,11.95 0.55,-9.32 -0.09,-18.71 1.14,-27.97 -4.47,4.91 -8.28,10.37 -11.76,16.02 z"
         id="path3531" />
      <path
         style="fill:#ffffff;stroke:#000000"
         inkscape:connector-curvature="0"
         d="m 1596.15,739.99 c 4.47,5.18 8.71,10.64 11.91,16.72 -3.8501,3.61 -6.89,7.97 -10.7101,11.6 -0.6799,-9.43 0.03,-18.93 -1.1999,-28.32 z"
         id="path3533" />
      <path
         style="fill:#ffffff;stroke:#000000"
         inkscape:connector-curvature="0"
         d="m 1762,756.09 c 3.48,-5.65 7.29,-11.11 11.76,-16.02 -1.23,9.26 -0.59,18.65 -1.14,27.97 -3.51,-4.02 -6.98,-8.06 -10.62,-11.95 z"
         id="path3535" />
      <path
         style="fill:#373536;stroke:#000000"
         inkscape:connector-curvature="0"
         d="m 1634.48,804.5 c 3.75,-0.91 6.9501,2.38 8.4301,5.51 3,6.84 2.77,15.77 -2.3301,21.56 -2.2999,2.86 -6.97,3 -9.4299,0.3 -4.75,-4.83 -5.25,-12.38 -3.78,-18.67 0.9899,-3.66 3.19,-7.63 7.1099,-8.7 z"
         id="path3537" />
      <path
         style="fill:#373536;stroke:#000000"
         inkscape:connector-curvature="0"
         d="m 1733.41,804.43 c 4.6699,-0.66 7.89,4.03 9.11,7.96 1.75,6.51 1.36,14.49 -3.6,19.55 -2.53,2.65 -7.14,2.44 -9.4301,-0.39 -4.4,-4.93 -5.01,-12.28 -3.41,-18.46 0.99,-3.71 3.2701,-7.79 7.3301,-8.66 z"
         id="path3539" />
      <path
         style="fill:#ffffff;stroke:#000000"
         inkscape:connector-curvature="0"
         d="m 1657.5,851.92 c 22.86,-2.37 46.02,-1.73 68.75,1.63 22.97,3.58 45.6899,10.01 66.3,20.94 14.23,7.62 27.6799,17.55 37,30.93 8.4199,11.84 12.11,27.26 8.3199,41.46 -3.91,14.97 -14.41,27.26 -26.4,36.61 -15.6799,12.15 -34.11,20.31 -53.0399,25.95 -22.8101,6.86 -46.65,9.83 -70.42,10.22 -21.1,0.05 -42.28,-1.8799 -62.84,-6.72 -20.03,-4.72 -39.6901,-11.92 -57.1001,-23.03 -12.5499,-8.11 -24.1899,-18.44 -31.1499,-31.85 -5.2301,-9.78 -7.13,-21.33 -4.9301,-32.22 2.59,-12.64 10.09,-23.7401 19.33,-32.52 12.1801,-11.66 27.16,-19.99 42.6901,-26.33 20.27,-8.12 41.78,-12.96 63.49,-15.07 m -55.02,34.74 c -6.66,1.2401 -11.9399,7.54 -11.87,14.33 -0.3099,7.76 6.5701,14.94 14.36,14.85 8.4501,0.58 15.99,-7.53 15.11,-15.9 -0.48,-8.45 -9.32,-15.21 -17.6,-13.28 m 159.9599,-0.1 c -6.8799,1.02 -12.5299,7.44 -12.4299,14.43 -0.3101,7.98 6.97,15.32 15,14.87 8.2,0.13 15.37,-7.72 14.4299,-15.89 -0.3499,-8.3 -8.8899,-14.91 -17,-13.41 m -47.3999,82.1 c -1.39,2.82 -1.0801,6.46 -3.7001,8.66 -6.65,6.46 -16.38,8.24 -25.3099,8.56 -9.1901,0.03 -19.04,-1.58 -26.35,-7.54 -2.8101,-2.02 -3.39,-5.51 -4.75,-8.44 -0.4901,0.04 -1.4701,0.12 -1.9601,0.17 -1.1799,3.5 1.01,7.09 3.37,9.57 5.77,5.8 14.05,8.2 21.98,9.15 10.27,0.93 21.16,0.02 30.27,-5.2 4.5801,-2.63 8.86,-6.9901 8.9401,-12.6 0.07,-1.77 -0.76,-2.55 -2.49,-2.33 z"
         id="path3541" />
      <path
         style="fill:#373536;stroke:#000000"
         inkscape:connector-curvature="0"
         d="m 1602.48,886.66 c 8.28,-1.93 17.12,4.83 17.6,13.28 0.88,8.37 -6.6599,16.48 -15.11,15.9 -7.7899,0.09 -14.6699,-7.09 -14.36,-14.85 -0.07,-6.79 5.2099,-13.09 11.87,-14.33 z"
         id="path3543" />
      <path
         style="fill:#373536;stroke:#000000"
         inkscape:connector-curvature="0"
         d="m 1762.4399,886.56 c 8.1101,-1.5 16.65,5.11 17,13.41 0.9401,8.17 -6.23,16.02 -14.4299,15.89 -8.03,0.45 -15.3101,-6.89 -15,-14.87 -0.1,-6.99 5.5501,-13.41 12.4299,-14.43 z"
         id="path3545" />
      <path
         style="fill:#373536;stroke:#000000"
         inkscape:connector-curvature="0"
         d="m 1715.04,968.66 c 1.73,-0.22 2.5599,0.56 2.49,2.33 -0.08,5.61 -4.36,9.97 -8.9401,12.6 -9.11,5.22 -20,6.1299 -30.27,5.2 -7.9299,-0.95 -16.21,-3.35 -21.98,-9.15 -2.36,-2.48 -4.5499,-6.07 -3.37,-9.57 0.49,-0.05 1.47,-0.13 1.9601,-0.17 1.36,2.93 1.9399,6.42 4.75,8.44 7.3099,5.96 17.1599,7.5699 26.35,7.54 8.9299,-0.32 18.6599,-2.1 25.3099,-8.56 2.6201,-2.2 2.3101,-5.84 3.7001,-8.66 z"
         id="path3547" />
    </g>
  </g>
</svg>
