<?xml version="1.0" encoding="UTF-8" standalone="no"?>
<!-- Created with Inkscape (http://www.inkscape.org/) -->

<svg
   xmlns:dc="http://purl.org/dc/elements/1.1/"
   xmlns:cc="http://creativecommons.org/ns#"
   xmlns:rdf="http://www.w3.org/1999/02/22-rdf-syntax-ns#"
   xmlns:svg="http://www.w3.org/2000/svg"
   xmlns="http://www.w3.org/2000/svg"
   xmlns:sodipodi="http://sodipodi.sourceforge.net/DTD/sodipodi-0.dtd"
   xmlns:inkscape="http://www.inkscape.org/namespaces/inkscape"
   width="480"
   height="288"
   id="svg2"
   version="1.1"
   inkscape:version="0.92.1 r15371"
   sodipodi:docname="adaksi-flag-blind.svg"
   viewBox="0 0 450 270"
   inkscape:export-filename="adaksi-flag-blind.png"
   inkscape:export-xdpi="300"
   inkscape:export-ydpi="300">
  <defs
     id="defs4" />
  <sodipodi:namedview
     id="base"
     pagecolor="#ffffff"
     bordercolor="#666666"
     borderopacity="1.0"
     inkscape:pageopacity="0.0"
     inkscape:pageshadow="2"
     inkscape:zoom="2.8"
     inkscape:cx="225"
     inkscape:cy="135"
     inkscape:document-units="px"
     inkscape:current-layer="layer1"
     showgrid="false"
     units="px"
     inkscape:window-width="1920"
     inkscape:window-height="1003"
     inkscape:window-x="0"
     inkscape:window-y="25"
     inkscape:window-maximized="1"
     borderlayer="true" />
  <metadata
     id="metadata7">
    <rdf:RDF>
      <cc:Work
         rdf:about="">
        <dc:format>image/svg+xml</dc:format>
        <dc:type
           rdf:resource="http://purl.org/dc/dcmitype/StillImage" />
        <dc:title />
      </cc:Work>
    </rdf:RDF>
  </metadata>
  <g
     inkscape:label="Layer 1"
     inkscape:groupmode="layer"
     id="layer1"
     transform="translate(0,-782.36218)">
    <rect
       style="opacity:1;fill:#ffffff;fill-opacity:1;fill-rule:nonzero;stroke:#000000;stroke-width:4.04577875;stroke-linecap:round;stroke-linejoin:round;stroke-miterlimit:4;stroke-dasharray:none;stroke-dashoffset:0;stroke-opacity:1"
       id="rect3749"
       width="445.95422"
       height="265.95422"
       x="2.0228882"
       y="784.38507" />
    <rect
       style="fill:#ffffff;stroke:#000000;stroke-width:4;stroke-miterlimit:4;stroke-dasharray:none"
       y="813.56116"
       x="251.72673"
       width="132.17462"
       height="79.304771"
       id="rect3725" />
    <g
       transform="matrix(0.52384991,0,0,0.52384991,4.5559871,790.14432)"
       inkscape:label="Layer 1"
       id="layer1-7">
      <g
         transform="translate(15.143,-322.57)"
         id="g3982">
        <circle
           style="fill:none;stroke:#000000;stroke-width:10"
           id="path2985"
           cx="234"
           cy="450.36218"
           r="41" />
        <path
           inkscape:connector-curvature="0"
           style="fill:none;stroke:#000000;stroke-width:8.41870022;stroke-linecap:round;stroke-linejoin:round"
           d="M 234,511.91 V 650.82 Z"
           id="path3755" />
        <path
           inkscape:connector-curvature="0"
           style="fill:none;stroke:#000000;stroke-width:10;stroke-linecap:round;stroke-linejoin:round"
           d="m 244,667.36 47,72 z"
           id="path3937" />
        <path
           inkscape:connector-curvature="0"
           style="fill:none;stroke:#000000;stroke-width:10;stroke-linecap:round;stroke-linejoin:round"
           d="m 222.5,666.36 -47,72 z"
           id="path3937-6" />
        <path
           inkscape:connector-curvature="0"
           style="fill:none;stroke:#000000;stroke-width:10;stroke-linecap:round;stroke-linejoin:round"
           d="m 211.5,520.36 -47,72 z"
           id="path3937-6-8" />
        <path
           inkscape:connector-curvature="0"
           style="fill:none;stroke:#000000;stroke-width:10;stroke-linecap:round;stroke-linejoin:round"
           d="m 257.5,514.36 47,72 z"
           id="path3937-6-7" />
      </g>
    </g>
    <g
       id="layer1-9"
       inkscape:label="Layer 1"
       transform="translate(-35.756307,507.10901)">
      <g
         id="Layer_1"
         transform="translate(-244.49951,955.86218)" />
    </g>
    <g
       id="g4769"
       transform="matrix(0.44300819,0,0,0.44300819,468.34548,441.91801)">
      <path
         style="fill:#ffffff"
         inkscape:connector-curvature="0"
         d="m -295.14881,945.2502 c 0.232,1.856 0.359,3.745 0.359,5.664 0,4.582 -0.689,9.002 -1.963,13.168 5.726,4.079 9.463,10.767 9.463,18.332 0,12.427 -10.073,22.5 -22.5,22.5 -7.959,0 -14.947,-4.136 -18.947,-10.372 -3.537,0.894 -7.238,1.372 -11.053,1.372 -3.814,0 -7.516,-0.479 -11.053,-1.372 -4,6.236 -10.988,10.372 -18.947,10.372 -12.427,0 -22.5,-10.073 -22.5,-22.5 0,-7.565 3.737,-14.253 9.462,-18.332 -1.273,-4.166 -1.962,-8.586 -1.962,-13.168 0,-1.919 0.126,-3.808 0.359,-5.664 -8.928,-2.985 -15.362,-11.407 -15.362,-21.336 0,-12.427 10.073,-22.5 22.5,-22.5 7.342,0 13.861,3.518 17.968,8.959 3.307,-1.597 6.835,-2.807 10.532,-3.557 v -11.78 c -7.945,-3.472 -13.5,-11.396 -13.5,-20.622 0,-12.427 10.074,-22.5 22.5,-22.5 12.426,0 22.5,10.073 22.5,22.5 0,9.226 -5.555,17.15 -13.5,20.622 v 11.78 c 3.697,0.75 7.225,1.96 10.532,3.557 4.106,-5.441 10.626,-8.959 17.968,-8.959 12.427,0 22.5,10.073 22.5,22.5 0,9.93 -6.44,18.352 -15.36,21.337 z"
         id="path4594" />
      <path
         inkscape:connector-curvature="0"
         d="m -291.67881,944.8152 c 0.257,2.045 0.387,4.097 0.387,6.1 0,4.823 -0.711,9.598 -2.115,14.19 l -1.316,-3.873 c 6.846,4.877 10.932,12.796 10.932,21.183 0,14.337 -11.664,26 -26,26 -8.896,0 -17.081,-4.479 -21.894,-11.982 l 3.804,1.504 c -3.884,0.981 -7.891,1.479 -11.91,1.479 -4.019,0 -8.026,-0.497 -11.91,-1.479 l 3.804,-1.504 c -4.816,7.502 -13.001,11.981 -21.897,11.981 -14.336,0 -26,-11.663 -26,-26 0,-8.387 4.086,-16.306 10.932,-21.183 l -1.316,3.873 c -1.404,-4.593 -2.115,-9.367 -2.115,-14.19 0,-2.003 0.13,-4.055 0.387,-6.1 l 2.362,3.755 c -10.618,-3.551 -17.75,-13.459 -17.75,-24.655 0,-14.337 11.664,-26 26,-26 8.23,0 15.797,3.772 20.762,10.351 l -4.316,-1.044 c 3.628,-1.751 7.45,-3.041 11.358,-3.834 l -2.804,3.43 v -11.78 l 2.099,3.207 c -9.476,-4.141 -15.599,-13.494 -15.599,-23.829 0,-14.337 11.664,-26 26,-26 14.336,0 26,11.663 26,26 0,10.335 -6.123,19.688 -15.599,23.829 l 2.099,-3.207 v 11.78 l -2.805,-3.43 c 3.909,0.793 7.73,2.083 11.358,3.834 l -4.315,1.044 c 4.965,-6.578 12.531,-10.351 20.762,-10.351 14.336,0 26,11.663 26,26 0,11.196 -7.133,21.104 -17.749,24.655 l 2.36,-3.753 z m 8.39,-20.901 c 0,-10.477 -8.523,-19 -19,-19 -6.014,0 -11.545,2.758 -15.174,7.567 l -1.73,2.292 -2.586,-1.248 c -3.103,-1.499 -6.368,-2.602 -9.705,-3.279 l -2.805,-0.568 v -16.931 l 2.099,-0.917 c 6.927,-3.026 11.401,-9.862 11.401,-17.415 0,-10.477 -8.523,-19 -19,-19 -10.477,0 -19,8.523 -19,19 0,7.553 4.475,14.389 11.401,17.415 l 2.099,0.917 v 16.931 l -2.804,0.568 c -3.337,0.678 -6.603,1.78 -9.707,3.279 l -2.585,1.248 -1.73,-2.292 c -3.629,-4.81 -9.16,-7.567 -15.174,-7.567 -10.477,0 -19,8.523 -19,19 0,8.182 5.212,15.422 12.97,18.017 l 2.719,0.91 -0.357,2.845 c -0.22,1.757 -0.332,3.516 -0.332,5.229 0,4.129 0.609,8.216 1.81,12.146 l 0.737,2.41 -2.057,1.463 c -5.005,3.566 -7.993,9.354 -7.993,15.481 0,10.477 8.523,19 19,19 6.5,0 12.482,-3.275 16.001,-8.762 l 1.361,-2.121 2.443,0.617 c 3.323,0.84 6.753,1.266 10.195,1.266 3.441,0 6.872,-0.426 10.195,-1.266 l 2.443,-0.617 1.36,2.121 c 3.519,5.486 9.501,8.762 16.001,8.762 10.477,0 19,-8.523 19,-19 0,-6.128 -2.988,-11.915 -7.993,-15.481 l -2.054,-1.463 0.737,-2.41 c 1.2,-3.93 1.81,-8.017 1.81,-12.146 0,-1.713 -0.111,-3.472 -0.332,-5.229 l -0.357,-2.845 2.72,-0.91 c 7.75,-2.594 12.96,-9.834 12.96,-18.016 z"
         id="path4596" />
      <path
         style="fill:#ffffff;stroke:none"
         inkscape:connector-curvature="0"
         d="m -294.78881,950.9142 c 0,24.854 -20.147,45 -45,45 -24.853,0 -45,-20.146 -45,-45 0,-21.771 15.46,-39.929 36,-44.098 v -11.78 c -7.945,-3.472 -13.5,-11.396 -13.5,-20.622 0,-12.427 10.074,-22.5 22.5,-22.5 12.426,0 22.5,10.073 22.5,22.5 0,9.226 -5.555,17.15 -13.5,20.622 v 11.78 c 20.536,4.17 36,22.33 36,44.101 z"
         id="path4628" />
      <path
         inkscape:connector-curvature="0"
         d="m -293.28881,950.9142 c 0,25.641 -20.859,46.5 -46.5,46.5 -25.64,0 -46.5,-20.859 -46.5,-46.5 0,-22.028 15.646,-41.192 37.202,-45.567 l -1.202,1.47 v -11.78 l 0.899,1.374 c -8.748,-3.821 -14.399,-12.456 -14.399,-21.996 0,-13.233 10.766,-24 24,-24 13.234,0 24,10.767 24,24 0,9.54 -5.652,18.175 -14.399,21.996 l 0.899,-1.374 v 11.78 l -1.201,-1.47 c 21.551,4.38 37.201,23.543 37.201,45.571 z m -39.003,-44.101 v -12.761 l 0.899,-0.394 c 7.655,-3.344 12.601,-10.899 12.601,-19.247 0,-11.579 -9.42,-21 -21,-21 -11.58,0 -21,9.421 -21,21 0,8.348 4.946,15.903 12.601,19.247 l 0.899,0.394 v 13.988 l -1.202,0.243 c -20.164,4.093 -34.798,22.021 -34.798,42.628 0,23.986 19.514,43.5 43.5,43.5 23.986,0 43.5,-19.514 43.5,-43.5 0,-20.607 -14.635,-38.535 -34.799,-42.628 l -1.201,-0.243 v -1.23 z"
         id="path4630"
         style="stroke:none" />
    </g>
    <g
       id="g3719"
       transform="matrix(0.16618972,0,0,0.16618972,254.85578,732.01703)"
       style="fill:#000000">
      <path
         inkscape:connector-curvature="0"
         id="path3463"
         style="fill:#000000;fill-rule:evenodd;stroke:#000000;stroke-width:2.59179997"
         d="m -870.5881,749.20689 c -1.29,-1.61 -3.94,-6.76 -5.91,-11.45 -3.1,-7.39 -3.64,-9.64 -4.06,-16.96 -0.4,-6.98 -0.22,-9.02 1.07,-11.87 l 1.55,-3.45 h 28.66 c 26.19,0 29.2,-0.15 35.07,-1.77 15.98,-4.39 26.31,-5.27 71.22,-6.02 40,-0.67 50.2,-1.21 63.49,-3.32 3.09,-0.49 13.02,-1.11 22.07,-1.39 20.82,-0.62 25.24,-1.35 31.66,-5.17 4.8,-2.86 5.31,-2.98 8.73,-2.08 3.11,0.82 4.99,0.63 12.99,-1.31 11.34,-2.75 11.74,-2.75 18.45,-0.35 3.68,1.32 5.5,2.47 5.83,3.67 0.81,2.99 -4.23,11.97 -8.8,15.69 -2.26,1.83 -6.82,6.09 -10.15,9.48 l -6.05,6.15 -10.8,0.58 c -13.03,0.7 -28.51,2.54 -41.17,4.89 -5.15,0.95 -16.43,2.7 -25.07,3.88 -15.78,2.16 -25.35,4.08 -46.93,9.44 -17.26,4.29 -19.52,4.64 -39.31,6.01 -9.98,0.7 -21.83,2.03 -26.35,2.96 -12.65,2.62 -22.07,3.52 -46.33,4.44 -12.29,0.46 -23.52,0.85 -24.94,0.86 -1.92,0.01 -3.2,-0.74 -4.92,-2.91 z" />
      <path
         inkscape:connector-curvature="0"
         id="path3465"
         style="fill:#000000;fill-rule:evenodd;stroke:#000000;stroke-width:2.59179997"
         d="m -566.8781,671.29689 c 0.29,-0.92 1.28,-5.37 2.21,-9.88 3.09,-15.06 7.76,-31.39 9.47,-33.1 1.76,-1.77 0.95,-2.04 27.97,9.52 1.79,0.76 3.69,1.92 4.24,2.58 1.67,2.01 -2.84,5.68 -14.13,11.51 -5.7,2.95 -12.46,7.07 -15.02,9.15 -2.56,2.09 -5,3.8 -5.43,3.8 -0.42,0 -1.26,0.59 -1.87,1.32 -0.61,0.74 -2.65,2.56 -4.53,4.05 -2.76,2.19 -3.33,2.39 -2.91,1.05 z" />
      <path
         inkscape:connector-curvature="0"
         id="path3467"
         style="fill:#000000;fill-rule:evenodd;stroke:#000000;stroke-width:2.59179997"
         d="m -575.0181,686.62689 c 0,-1.21 -0.07,-7.45 6.58,-12.78 6.2,-4.98 16.08,-6.71 31.06,-10.23 16.53,-3.88 19.47,-4.28 23.62,-3.18 7.43,1.97 11.11,4.22 11.7,7.16 1.1,5.51 0.61,9.37 -1.46,11.44 -1.97,1.98 -2.17,1.99 -31.31,2.48 -23.65,0.4 -30.07,0.76 -33.11,1.86 -4.42,1.6 -4.43,1.6 -4.43,0.59 z" />
    </g>
  </g>
</svg>
