<?xml version="1.0" encoding="UTF-8" standalone="no"?>
<!-- Created with Inkscape (http://www.inkscape.org/) -->

<svg
   width="480"
   height="288"
   id="svg2"
   version="1.1"
   inkscape:version="1.1.2 (0a00cf5339, 2022-02-04)"
   sodipodi:docname="agihli-flag.svg"
   viewBox="0 0 450 270"
   inkscape:export-filename="agihli-flag.png"
   inkscape:export-xdpi="300"
   inkscape:export-ydpi="300"
   xmlns:inkscape="http://www.inkscape.org/namespaces/inkscape"
   xmlns:sodipodi="http://sodipodi.sourceforge.net/DTD/sodipodi-0.dtd"
   xmlns="http://www.w3.org/2000/svg"
   xmlns:svg="http://www.w3.org/2000/svg"
   xmlns:rdf="http://www.w3.org/1999/02/22-rdf-syntax-ns#"
   xmlns:cc="http://creativecommons.org/ns#"
   xmlns:dc="http://purl.org/dc/elements/1.1/">
  <defs
     id="defs4" />
  <sodipodi:namedview
     id="base"
     pagecolor="#ffffff"
     bordercolor="#666666"
     borderopacity="1.0"
     inkscape:pageopacity="0.0"
     inkscape:pageshadow="2"
     inkscape:zoom="2.625"
     inkscape:cx="240"
     inkscape:cy="144"
     inkscape:document-units="px"
     inkscape:current-layer="layer1"
     showgrid="false"
     units="px"
     inkscape:window-width="1920"
     inkscape:window-height="1003"
     inkscape:window-x="0"
     inkscape:window-y="25"
     inkscape:window-maximized="1"
     borderlayer="true"
     showguides="false"
     inkscape:pagecheckerboard="0" />
  <metadata
     id="metadata7">
    <rdf:RDF>
      <cc:Work
         rdf:about="">
        <dc:format>image/svg+xml</dc:format>
        <dc:type
           rdf:resource="http://purl.org/dc/dcmitype/StillImage" />
      </cc:Work>
    </rdf:RDF>
  </metadata>
  <g
     inkscape:label="Layer 1"
     inkscape:groupmode="layer"
     id="layer1"
     transform="translate(0,-782.36218)">
    <rect
       style="opacity:1;fill:#ffffff;fill-opacity:1;fill-rule:nonzero;stroke:#000000;stroke-width:4.04577875;stroke-linecap:round;stroke-linejoin:round;stroke-miterlimit:4;stroke-dasharray:none;stroke-dashoffset:0;stroke-opacity:1"
       id="rect3749"
       width="445.95422"
       height="265.95422"
       x="2.0228882"
       y="784.38507" />
    <rect
       style="fill:none;stroke:#000000;stroke-width:4;stroke-miterlimit:4;stroke-dasharray:none"
       y="813.56116"
       x="251.72673"
       width="132.17462"
       height="79.304771"
       id="rect3725" />
    <g
       id="layer1-9"
       inkscape:label="Layer 1"
       transform="translate(-35.756307,507.10901)">
      <g
         id="Layer_1"
         transform="translate(-244.49951,955.86218)" />
    </g>
    <g
       id="layer1-7"
       inkscape:label="Layer 1"
       transform="matrix(0.52384991,0,0,0.52384991,-39.444013,790.14432)">
      <g
         id="g3982"
         transform="translate(15.143,-322.57)">
        <circle
           r="41"
           cy="450.36218"
           cx="234"
           id="path2985"
           style="fill:none;stroke:#000000;stroke-width:10" />
        <path
           id="path3755"
           d="M 234,511.91 V 650.82 Z"
           style="fill:none;stroke:#000000;stroke-width:8.4187;stroke-linecap:round;stroke-linejoin:round"
           inkscape:connector-curvature="0" />
        <path
           id="path3937"
           d="m 244,667.36 47,72 z"
           style="fill:none;stroke:#000000;stroke-width:10;stroke-linecap:round;stroke-linejoin:round"
           inkscape:connector-curvature="0" />
        <path
           id="path3937-6"
           d="m 222.5,666.36 -47,72 z"
           style="fill:none;stroke:#000000;stroke-width:10;stroke-linecap:round;stroke-linejoin:round"
           inkscape:connector-curvature="0" />
        <path
           id="path3937-6-8"
           d="m 211.5,520.36 -47,72 z"
           style="fill:none;stroke:#000000;stroke-width:10;stroke-linecap:round;stroke-linejoin:round"
           inkscape:connector-curvature="0" />
        <path
           id="path3937-6-7"
           d="m 257.5,514.36 47,72 z"
           style="fill:none;stroke:#000000;stroke-width:10;stroke-linecap:round;stroke-linejoin:round"
           inkscape:connector-curvature="0" />
      </g>
    </g>
    <g
       id="layer1-9-6"
       inkscape:label="Layer 1"
       transform="translate(-675.06124,244.63229)">
      <g
         id="Layer_1-2"
         transform="translate(-244.49951,955.86218)" />
    </g>
    <g
       id="g3942"
       transform="matrix(0.40650716,0,0,0.40650716,226.34993,480.29925)">
      <path
         style="fill:#000000;stroke:#000000;stroke-width:0.46052313"
         inkscape:connector-curvature="0"
         d="m 176.1336,841.30252 c 6.41048,-3.77629 14.69529,-3.17301 21.14261,0.19342 5.73352,3.27432 9.80454,8.6302 14.19793,13.41499 5.50786,-2.23814 11.54071,-3.35721 17.47225,-2.60196 3.09471,0.36382 6.0789,1.28947 9.03086,2.25196 3.48155,-3.93747 6.88942,-8.01771 11.07097,-11.24597 4.55918,-3.56445 10.56901,-4.93681 16.27489,-4.50392 5.57694,0.51579 10.61046,3.73484 14.00912,8.09139 5.05654,6.39667 7.54797,14.40056 8.93875,22.32616 0.85657,5.61839 1.21118,11.37032 0.40987,17.01633 -0.34079,2.24736 -0.97171,4.51313 -2.24275,6.4243 -1.17894,1.70854 -3.3434,2.95196 -5.4526,2.40854 -2.07696,-0.43289 -3.26971,-2.32104 -4.66049,-3.73024 5.33286,8.76836 10.22361,17.83606 14.09201,27.35968 0.32697,0.69539 0.5296,1.64867 1.41376,1.8467 7.47429,2.89669 14.69069,6.67298 20.85709,11.83544 5.69667,4.76642 10.73019,11.04335 11.8815,18.58211 0.99933,6.53943 -1.8513,13.06044 -6.17101,17.85909 -6.14338,6.86179 -14.39591,11.40251 -22.77287,14.967 -18.9275,7.79205 -39.4346,10.90514 -59.76669,12.01044 -22.92024,0.8796 -46.1214,-0.9717 -68.22651,-7.32692 -8.00384,-2.3809 -15.88344,-5.34207 -23.13668,-9.5052 -5.57694,-3.23287 -10.89598,-7.18416 -14.75056,-12.41109 -2.76314,-3.76708 -4.63746,-8.34468 -4.50852,-13.07426 0.005,-6.41508 3.33424,-12.31439 7.46969,-17.01168 7.11047,-7.99468 16.70778,-13.28609 26.55837,-17.15909 4.63747,-11.24597 10.38019,-22.04063 17.19133,-32.12149 4.79404,-7.02297 10.14993,-13.70056 16.32094,-19.57223 1.16512,-1.16973 2.53748,-2.13222 3.57366,-3.42629 -4.71576,0.68618 -9.44533,2.66182 -12.48939,6.46114 -4.44866,5.45259 -5.88088,12.59531 -9.65717,18.45777 -1.44144,2.15524 -2.89209,4.56838 -5.32365,5.71509 -2.37169,1.07762 -5.14404,-0.33158 -6.39206,-2.44538 -2.1138,-3.48616 -2.31643,-7.69534 -2.51446,-11.65124 -0.0414,-8.54731 1.4046,-17.16369 4.69734,-25.07548 2.41319,-5.68286 6.0375,-11.16769 11.46247,-14.35911 m 31.05307,19.5446 c -10.48611,6.22167 -18.73869,15.51042 -25.82614,25.29193 -7.58021,10.67953 -13.96766,22.24327 -18.84921,34.39647 18.49461,-6.22627 38.62868,-7.07824 57.69895,-3.14537 5.70588,1.16973 11.43939,-0.25789 17.10843,-0.91644 16.95646,-1.92503 34.34121,-0.35921 50.56544,5.00589 -4.5822,-11.33808 -10.32958,-22.21103 -17.15909,-32.35636 -5.8947,-8.63941 -12.63676,-16.8137 -20.78802,-23.4176 -5.77035,-4.58681 -12.37886,-8.4506 -19.7196,-9.73546 -7.95323,-1.60723 -16.17817,0.84276 -23.03076,4.87694 m 46.80757,3.63353 c 1.36315,1.52893 3.00261,2.78156 4.43024,4.25523 6.09272,5.97299 11.25518,12.79333 16.06304,19.81631 -0.91183,-1.96183 -2.01248,-3.83155 -2.86445,-5.82101 -1.91117,-4.24602 -3.50919,-8.75915 -6.59009,-12.33742 -2.77235,-3.26971 -6.84798,-5.24996 -11.03874,-5.91311 m -67.45282,52.14503 c -12.75184,1.19736 -25.41167,4.60063 -36.67141,10.78545 -6.11114,3.41709 -11.89071,7.68153 -16.20125,13.25386 -3.10393,4.03879 -5.42497,9.04007 -4.99668,14.23938 0.36842,5.01509 3.19603,9.48217 6.64074,13.00056 4.87694,4.91379 10.94664,8.45981 17.18212,11.36572 9.51902,4.37036 19.65974,7.23021 29.90177,9.31177 22.11432,4.33813 44.88259,5.05655 67.27783,2.73091 10.94203,-1.21579 21.82419,-3.15919 32.37938,-6.31378 9.34401,-2.8184 18.56369,-6.47956 26.62284,-12.07491 4.79865,-3.4309 9.3302,-7.70916 11.53611,-13.30452 1.51051,-3.86839 1.45064,-8.27099 -0.0645,-12.12097 -1.69012,-4.36576 -4.73418,-8.05915 -8.14665,-11.19531 -5.05194,-4.60524 -11.03414,-8.07297 -17.24659,-10.85914 -9.79533,-4.32431 -20.3321,-6.83416 -30.95637,-7.98547 -10.69795,-1.02236 -21.55248,-0.84736 -32.15372,0.9717 4.59141,0.60329 9.38546,0.92561 13.59924,3.04867 0.99013,0.54802 2.39012,1.51512 1.94341,2.84142 -0.67236,1.89736 -2.04472,3.44932 -3.4309,4.87234 -4.76641,4.76641 -11.17689,8.15586 -17.99724,8.4506 0.0829,8.42757 -0.18882,16.89659 0.13355,25.29653 6.07891,4.05721 13.53478,5.0105 20.67288,5.31444 -0.17499,0.23947 -0.52499,0.71842 -0.69999,0.95789 -3.84537,0.15658 -7.69995,-0.33158 -11.444,-1.18815 0.34539,2.39007 0.4375,4.88155 -0.39145,7.19337 -1.20196,3.81774 -4.68352,7.05982 -8.80524,7.21179 -3.80853,0.20263 -7.2993,-2.39472 -8.89726,-5.73351 -1.34013,-2.57893 -1.42763,-5.57693 -1.04539,-8.39534 -3.84998,0.85658 -7.8335,1.10986 -11.76176,0.875 -0.0507,-0.24868 -0.15658,-0.74144 -0.20724,-0.99013 5.84865,-0.13815 11.81703,-0.7967 17.17291,-3.32497 1.27104,-0.67697 2.76774,-1.15131 3.74866,-2.23354 0.0276,-8.30784 -0.009,-16.61568 0.0138,-24.91891 -7.78284,-0.50197 -15.13279,-4.64668 -19.96828,-10.69795 -0.98552,-1.3217 -2.50985,-3.49998 -0.67236,-4.80326 4.60062,-3.04406 10.38019,-3.10392 15.66699,-3.919 -10.77624,-1.97109 -21.81498,-2.78161 -32.73398,-1.66254 m 30.06295,51.34373 c -0.8796,3.24208 -0.37302,6.88021 1.5842,9.63879 1.48749,2.12301 3.93287,3.68419 6.58087,3.68419 2.68485,0.10592 5.16707,-1.48289 6.71904,-3.58287 1.83748,-2.5467 2.49143,-5.87167 1.86512,-8.93415 -0.12895,-0.53421 -0.18882,-1.2296 -0.85658,-1.3217 -2.33485,-0.77829 -4.57299,-1.80065 -6.74206,-2.96117 0.005,3.71182 0.0322,7.41903 -0.0184,11.13085 -0.3592,0 -1.07762,0.005 -1.43683,0.005 -0.0414,-3.72563 -0.0138,-7.45126 -0.0138,-11.17224 -2.39933,1.49205 -4.94602,2.7677 -7.68153,3.51374 z"
         id="path3509" />
      <path
         style="fill:#ffffff;stroke:#000000;stroke-width:0.46052313"
         inkscape:connector-curvature="0"
         d="m 207.18667,860.84712 c 6.85259,-4.03418 15.07753,-6.48417 23.03076,-4.87694 7.34074,1.28486 13.94925,5.14865 19.7196,9.73546 8.15126,6.6039 14.89332,14.77819 20.78802,23.4176 6.82956,10.14533 12.57689,21.01828 17.15909,32.35636 -16.22423,-5.3651 -33.60898,-6.93088 -50.56544,-5.00589 -5.66904,0.65855 -11.40255,2.08617 -17.10843,0.91644 -19.07027,-3.93287 -39.20434,-3.0809 -57.69895,3.14537 4.88155,-12.1532 11.269,-23.71694 18.84921,-34.39647 7.08745,-9.78151 15.34003,-19.07026 25.82614,-25.29193 m -6.17561,32.9228 c -2.67104,1.64867 -3.24209,5.27299 -2.83222,8.15586 0.36381,1.96644 1.21578,4.25524 3.26511,4.98747 1.42301,0.49736 2.91971,-0.44671 3.64734,-1.64867 1.74999,-2.74933 1.80065,-6.45193 0.39605,-9.35783 -0.75065,-1.62105 -2.66643,-3.10853 -4.47628,-2.13683 m 45.54113,-0.0645 c -2.23354,1.22959 -2.98884,3.98813 -3.05327,6.37364 -0.0322,2.40393 0.66776,5.17167 2.78617,6.58548 1.42762,0.90262 3.27432,0.0967 4.11707,-1.23421 2.03091,-2.9934 2.01249,-7.24402 0.0599,-10.26966 -0.7921,-1.28486 -2.44998,-2.11841 -3.90984,-1.45525 z"
         id="path3511" />
      <path
         style="fill:#ffffff;stroke:#000000;stroke-width:0.46052313"
         inkscape:connector-curvature="0"
         d="m 253.99424,864.48065 c 4.19076,0.66315 8.26639,2.6434 11.03874,5.91311 3.0809,3.57827 4.67892,8.09135 6.59009,12.33742 0.85197,1.98946 1.95266,3.85918 2.86445,5.82101 -4.80786,-7.02298 -9.97032,-13.84332 -16.06304,-19.81631 -1.42763,-1.47367 -3.06709,-2.7263 -4.43024,-4.25523 z"
         id="path3513" />
      <path
         style="fill:#000000;stroke:#000000;stroke-width:0.46052313"
         inkscape:connector-curvature="0"
         d="m 201.01106,893.76992 c 1.80985,-0.9717 3.72563,0.51578 4.47628,2.13683 1.4046,2.9059 1.35394,6.6085 -0.39605,9.35783 -0.72763,1.20196 -2.22433,2.14603 -3.64734,1.64867 -2.04933,-0.73223 -2.9013,-3.02103 -3.26511,-4.98747 -0.40987,-2.88287 0.16118,-6.50719 2.83222,-8.15586 z"
         id="path3515" />
      <path
         style="fill:#000000;stroke:#000000;stroke-width:0.46052313"
         inkscape:connector-curvature="0"
         d="m 246.55219,893.70545 c 1.45986,-0.66316 3.11774,0.17039 3.90984,1.45525 1.95262,3.02564 1.97104,7.27626 -0.0599,10.26966 -0.84275,1.33092 -2.68945,2.13683 -4.11707,1.23421 -2.11841,-1.41381 -2.81841,-4.18155 -2.78617,-6.58548 0.0645,-2.38551 0.81973,-5.14405 3.05327,-6.37364 z"
         id="path3517" />
      <path
         style="fill:#ffffff;stroke:#000000;stroke-width:0.46052313"
         inkscape:connector-curvature="0"
         d="m 186.54142,916.62568 c 10.919,-1.11907 21.95779,-0.30855 32.73398,1.66249 -5.2868,0.81513 -11.06637,0.87499 -15.66699,3.91901 -1.83754,1.30328 -0.31321,3.48155 0.67236,4.80325 4.83549,6.05128 12.18544,10.19599 19.96828,10.69796 -0.023,8.30323 0.0138,16.61107 -0.0138,24.9189 -0.98092,1.08223 -2.47762,1.55657 -3.74866,2.23354 -5.35588,2.52832 -11.32426,3.18682 -17.17291,3.32498 0.0507,0.24868 0.15658,0.74144 0.20724,0.99012 3.92826,0.23482 7.91178,-0.0184 11.76176,-0.87499 -0.38224,2.8184 -0.29474,5.81641 1.04539,8.39533 1.59801,3.3388 5.08878,5.93615 8.89726,5.73352 4.12168,-0.15197 7.60323,-3.39406 8.80524,-7.21179 0.82895,-2.31183 0.73684,-4.80331 0.39145,-7.19338 3.74405,0.85658 7.59863,1.34473 11.444,1.18815 0.175,-0.23947 0.525,-0.71841 0.69999,-0.95788 -7.1381,-0.30395 -14.59397,-1.25723 -20.67288,-5.31444 -0.32237,-8.39994 -0.0507,-16.86896 -0.13355,-25.29654 6.82035,-0.29473 13.23083,-3.68418 17.99724,-8.4506 1.38613,-1.42301 2.75854,-2.97498 3.4309,-4.87233 0.44671,-1.32631 -0.95324,-2.29341 -1.94341,-2.84143 -4.21378,-2.12301 -9.00783,-2.44538 -13.59924,-3.04866 10.60124,-1.81907 21.45577,-1.99407 32.15372,-0.97171 10.62427,1.15131 21.16104,3.66116 30.95637,7.98547 6.21245,2.78617 12.19465,6.25391 17.24659,10.85914 3.41247,3.13616 6.45653,6.82956 8.14665,11.19532 1.51512,3.84997 1.57499,8.25257 0.0645,12.12097 -2.20591,5.59535 -6.73746,9.87357 -11.53611,13.30451 -8.05915,5.59536 -17.27883,9.25652 -26.62284,12.07492 -10.55519,3.15458 -21.43735,5.09799 -32.37938,6.31377 -22.39524,2.32564 -45.16351,1.60727 -67.27783,-2.7309 -10.24203,-2.08157 -20.38271,-4.94142 -29.90177,-9.31178 -6.23548,-2.9059 -12.30518,-6.45193 -17.18212,-11.36571 -3.44471,-3.5184 -6.27232,-7.98547 -6.64074,-13.00057 -0.42829,-5.19931 1.89275,-10.20059 4.99668,-14.23938 4.31049,-5.57233 10.09006,-9.83677 16.20125,-13.25385 11.25974,-6.18478 23.91952,-9.58805 36.67141,-10.78541 z"
         id="path3519" />
      <path
         style="fill:#ffffff;stroke:#000000;stroke-width:0.46052313"
         inkscape:connector-curvature="0"
         d="m 216.60437,967.96941 c 2.73551,-0.74605 5.2822,-2.0217 7.68153,-3.51375 0,3.72103 -0.0276,7.44666 0.0138,11.17225 0.35921,0 1.07763,-0.005 1.43683,-0.005 0.0507,-3.71186 0.023,-7.41903 0.0184,-11.13084 2.16907,1.16052 4.40721,2.18288 6.74206,2.96116 0.66776,0.0921 0.72763,0.7875 0.85658,1.3217 0.62631,3.06248 -0.0276,6.3875 -1.86512,8.93415 -1.55197,2.09999 -4.03419,3.68879 -6.71904,3.58287 -2.648,0 -5.09338,-1.56117 -6.58087,-3.68418 -1.95722,-2.75858 -2.4638,-6.39672 -1.5842,-9.6388 z"
         id="path3521" />
    </g>
  </g>
</svg>
