<?xml version="1.0" encoding="UTF-8" standalone="no"?>
<!-- Created with Inkscape (http://www.inkscape.org/) -->

<svg
   width="480"
   height="288"
   id="svg2"
   version="1.1"
   inkscape:version="1.1.2 (0a00cf5339, 2022-02-04)"
   sodipodi:docname="ajisdu-flag.svg"
   viewBox="0 0 450 270"
   inkscape:export-filename="ajisdu-flag.png"
   inkscape:export-xdpi="300"
   inkscape:export-ydpi="300"
   xmlns:inkscape="http://www.inkscape.org/namespaces/inkscape"
   xmlns:sodipodi="http://sodipodi.sourceforge.net/DTD/sodipodi-0.dtd"
   xmlns="http://www.w3.org/2000/svg"
   xmlns:svg="http://www.w3.org/2000/svg"
   xmlns:rdf="http://www.w3.org/1999/02/22-rdf-syntax-ns#"
   xmlns:cc="http://creativecommons.org/ns#"
   xmlns:dc="http://purl.org/dc/elements/1.1/">
  <defs
     id="defs4" />
  <sodipodi:namedview
     id="base"
     pagecolor="#ffffff"
     bordercolor="#666666"
     borderopacity="1.0"
     inkscape:pageopacity="0.0"
     inkscape:pageshadow="2"
     inkscape:zoom="2.625"
     inkscape:cx="240"
     inkscape:cy="144"
     inkscape:document-units="px"
     inkscape:current-layer="layer1"
     showgrid="false"
     units="px"
     inkscape:window-width="1920"
     inkscape:window-height="1003"
     inkscape:window-x="0"
     inkscape:window-y="25"
     inkscape:window-maximized="1"
     borderlayer="true"
     showguides="false"
     inkscape:pagecheckerboard="0" />
  <metadata
     id="metadata7">
    <rdf:RDF>
      <cc:Work
         rdf:about="">
        <dc:format>image/svg+xml</dc:format>
        <dc:type
           rdf:resource="http://purl.org/dc/dcmitype/StillImage" />
      </cc:Work>
    </rdf:RDF>
  </metadata>
  <g
     inkscape:label="Layer 1"
     inkscape:groupmode="layer"
     id="layer1"
     transform="translate(0,-782.36218)">
    <rect
       style="opacity:1;fill:#ffffff;fill-opacity:1;fill-rule:nonzero;stroke:#000000;stroke-width:4.04577875;stroke-linecap:round;stroke-linejoin:round;stroke-miterlimit:4;stroke-dasharray:none;stroke-dashoffset:0;stroke-opacity:1"
       id="rect3749"
       width="445.95422"
       height="265.95422"
       x="2.0228882"
       y="784.38507" />
    <g
       id="layer1-9"
       inkscape:label="Layer 1"
       transform="translate(-35.756307,507.10901)">
      <g
         id="Layer_1"
         transform="translate(-244.49951,955.86218)" />
    </g>
    <g
       id="layer1-7"
       inkscape:label="Layer 1"
       transform="matrix(0.52384991,0,0,0.52384991,-39.444013,790.14432)">
      <g
         id="g3982"
         transform="translate(15.143,-322.57)">
        <circle
           r="41"
           cy="450.36218"
           cx="234"
           id="path2985"
           style="fill:none;stroke:#000000;stroke-width:10" />
        <path
           id="path3755"
           d="M 234,511.91 V 650.82 Z"
           style="fill:none;stroke:#000000;stroke-width:8.4187;stroke-linecap:round;stroke-linejoin:round"
           inkscape:connector-curvature="0" />
        <path
           id="path3937"
           d="m 244,667.36 47,72 z"
           style="fill:none;stroke:#000000;stroke-width:10;stroke-linecap:round;stroke-linejoin:round"
           inkscape:connector-curvature="0" />
        <path
           id="path3937-6"
           d="m 222.5,666.36 -47,72 z"
           style="fill:none;stroke:#000000;stroke-width:10;stroke-linecap:round;stroke-linejoin:round"
           inkscape:connector-curvature="0" />
        <path
           id="path3937-6-8"
           d="m 211.5,520.36 -47,72 z"
           style="fill:none;stroke:#000000;stroke-width:10;stroke-linecap:round;stroke-linejoin:round"
           inkscape:connector-curvature="0" />
        <path
           id="path3937-6-7"
           d="m 257.5,514.36 47,72 z"
           style="fill:none;stroke:#000000;stroke-width:10;stroke-linecap:round;stroke-linejoin:round"
           inkscape:connector-curvature="0" />
      </g>
    </g>
    <g
       id="layer1-9-6"
       inkscape:label="Layer 1"
       transform="translate(-675.06124,244.63229)">
      <g
         id="Layer_1-2"
         transform="translate(-244.49951,955.86218)" />
    </g>
    <g
       id="layer1-9-3"
       inkscape:label="Layer 1"
       transform="translate(-3490.0184,257.16314)">
      <g
         id="Layer_1-6"
         transform="translate(-244.49951,955.86218)" />
    </g>
    <g
       id="layer1-9-7"
       inkscape:label="Layer 1"
       transform="translate(104.24569,117.84657)">
      <g
         id="Layer_1-9"
         transform="translate(-244.49951,955.86218)" />
    </g>
    <g
       id="layer1-9-2"
       inkscape:label="Layer 1"
       transform="translate(-789.70404,144.27515)">
      <g
         id="Layer_1-28"
         transform="translate(-244.49951,955.86218)" />
    </g>
    <g
       id="g3379">
      <rect
         id="rect3725"
         height="79.304771"
         width="132.17462"
         x="251.72673"
         y="813.56116"
         style="fill:none;stroke:#000000;stroke-width:4;stroke-miterlimit:4;stroke-dasharray:none" />
      <g
         transform="matrix(0.31543509,0,0,0.31543509,246.84115,563.84532)"
         id="g3924">
        <path
           id="path3425"
           d="m 138.21381,819.46601 c 3.00862,-2.06481 6.91481,-2.29209 10.38185,-1.45615 4.30298,1.06708 8.1668,3.38614 11.70317,5.99412 6.13281,4.5919 11.36418,10.24702 16.27581,16.09475 9.30322,10.93272 18.52939,22.11969 25.17454,34.91691 4.22978,8.00885 7.62748,16.4299 10.66306,24.95881 3.93701,-1.46771 8.06279,-2.61954 12.30413,-2.51938 4.38772,-0.0308 8.69455,1.12486 12.70476,2.83912 3.01632,-8.30548 6.25993,-16.55703 10.34718,-24.40023 5.92863,-11.64154 13.99527,-21.99642 22.38549,-31.94682 5.19285,-6.19444 10.40496,-12.45051 16.63407,-17.64721 4.12963,-3.42466 8.66374,-6.58737 13.86815,-8.10131 3.62112,-1.03241 7.78542,-0.95151 10.99821,1.20191 3.5017,2.23431 5.35849,6.28304 6.03264,10.26242 0.90143,5.38547 0.0886,10.90576 -1.39067,16.11402 -1.66803,5.92093 -4.61115,11.36417 -7.52347,16.74193 -6.23296,11.4027 -13.97986,21.96945 -22.98259,31.3343 -8.22458,8.65219 -17.33518,16.39138 -26.52668,23.98804 -0.55473,0.29663 0.0347,0.80513 0.23884,1.11331 8.53276,10.7324 15.02382,22.95563 20.26675,35.5872 0.17335,0.61251 0.85135,0.71267 1.35214,0.95536 6.27919,2.42307 12.41199,5.43939 17.65878,9.7 3.64038,3.00476 6.91866,6.72605 8.4326,11.27172 1.50238,4.30297 1.00159,9.18379 -1.14027,13.18244 -2.90461,5.49332 -7.91255,9.51123 -13.14007,12.67783 -10.43963,6.1597 -22.26222,9.4996 -34.08096,11.7956 -16.56473,3.0394 -33.5301,3.729 -50.3067,2.4 -9.45731,-0.7936 -18.87223,-2.2267 -28.06373,-4.6074 -7.98574,-2.1033 -15.87132,-4.8461 -23.0712,-8.9411 -4.98868,-2.8814 -9.76549,-6.44094 -13.02454,-11.26397 -2.5579,-3.76366 -3.87919,-8.50195 -2.94313,-13.0168 0.94766,-4.98868 4.13733,-9.23002 7.87402,-12.52755 5.43169,-4.74214 11.96513,-8.03582 18.65651,-10.61299 0.48539,-0.26195 1.1942,-0.32744 1.44845,-0.88217 5.41628,-13.1208 12.21167,-25.7986 21.20671,-36.83533 -11.29869,-9.48042 -22.61664,-19.0764 -32.20106,-30.34812 -8.88332,-10.32022 -16.1641,-21.9656 -21.97716,-34.26588 -3.15501,-7.03808 -5.189,-14.82736 -4.30683,-22.58196 0.5355,-4.27601 2.35762,-8.71767 6.0712,-11.17542 m 0.51621,3.20894 c -2.83912,2.67732 -3.77907,6.74531 -3.95628,10.50897 -0.20032,6.46795 1.58328,12.85115 4.20282,18.71429 6.01338,12.79722 13.69479,24.83939 23.08661,35.42541 9.71541,10.99821 20.9409,20.51715 32.27425,29.78569 0.51621,0.27737 -0.0231,0.72038 -0.22343,0.99774 -4.85385,5.60504 -8.82553,11.89964 -12.56222,18.28669 -3.5749,6.33697 -6.84162,12.87426 -9.43034,19.68121 16.89217,-5.6975 34.82445,-7.8201 52.59494,-7.84321 17.80515,0.0193 35.76825,2.15727 52.68739,7.87403 -2.78904,-7.48495 -6.31386,-14.68483 -10.40881,-21.538 -3.56334,-5.89782 -7.4888,-11.59917 -12.05373,-16.76505 1.85294,-1.7913 3.96783,-3.28598 5.90552,-4.98098 6.62589,-5.53955 13.17088,-11.19467 19.29983,-17.28895 13.21711,-12.89737 23.96107,-28.30257 31.51921,-45.14852 2.63495,-6.59507 4.49945,-13.89896 3.051,-20.99483 -0.65489,-3.30524 -2.42308,-6.7222 -5.63972,-8.15524 -3.14729,-1.49853 -6.80309,-0.76274 -9.90416,0.47768 -5.32002,2.23046 -9.85409,5.94019 -14.01839,9.8618 -4.71131,4.43395 -8.79471,9.46115 -12.96286,14.39205 -4.54182,5.38546 -8.97192,10.87494 -13.02835,16.63792 -4.4301,6.31001 -8.30163,13.0168 -11.52982,20.02406 -3.30524,7.02653 -5.97871,14.32271 -8.60211,21.62275 -4.2683,-2.32677 -9.0374,-3.89849 -13.93363,-3.95242 -4.97712,-0.11557 -9.88876,1.35985 -14.25337,3.68661 -3.34376,-9.41878 -6.91096,-18.79904 -11.61457,-27.63613 -6.00953,-11.56834 -14.17248,-21.81921 -22.57041,-31.72338 -5.17744,-6.20214 -10.47815,-12.39658 -16.84979,-17.41993 -3.66736,-2.85453 -7.70068,-5.48947 -12.29643,-6.51803 -3.01632,-0.70111 -6.47565,-0.20802 -8.78315,1.98777 m 74.26006,126.83574 c -10.23546,0.62022 -20.43625,2.03785 -30.3905,4.50715 -7.75075,1.97236 -15.40134,4.55337 -22.45869,8.36326 -4.64968,2.5579 -9.13371,5.67824 -12.39273,9.92728 -2.44233,3.18968 -3.94471,7.28848 -3.30139,11.32951 0.57784,4.20281 3.1473,7.83165 6.14821,10.70543 4.37617,4.12578 9.70771,7.07278 15.17792,9.48808 8.7793,3.8061 18.10563,6.1983 27.50515,7.8702 17.1002,2.8892 34.58562,3.3361 51.82834,1.5717 11.8303,-1.2789 23.62208,-3.5749 34.78979,-7.7623 6.45253,-2.477 12.80492,-5.54337 18.09407,-10.06978 3.3245,-2.86994 6.25222,-6.51033 7.22299,-10.8865 0.84365,-3.73669 -0.13868,-7.69296 -2.20349,-10.86338 -2.95083,-4.59189 -7.46568,-7.90099 -12.11537,-10.62068 -7.65829,-4.36462 -16.09475,-7.16906 -24.61981,-9.2801 -17.40452,-4.14119 -35.44851,-5.31998 -53.28449,-4.27987 z"
           inkscape:connector-curvature="0"
           style="fill:#000000;stroke:#000000;stroke-width:0.38522625" />
        <path
           id="path3427"
           d="m 138.73002,822.67495 c 2.30754,-2.19579 5.76683,-2.68888 8.78315,-1.98777 4.59575,1.02856 8.62907,3.6635 12.29643,6.51803 6.37164,5.02335 11.67235,11.21779 16.84979,17.41993 8.39793,9.90417 16.56088,20.15504 22.57041,31.72338 4.70361,8.83709 8.27081,18.21735 11.61457,27.63613 4.36461,-2.32676 9.27625,-3.80218 14.25337,-3.68661 4.89623,0.0539 9.66533,1.62565 13.93363,3.95242 2.6234,-7.30004 5.29687,-14.59622 8.60211,-21.62275 3.22819,-7.00726 7.09972,-13.71405 11.52982,-20.02406 4.05643,-5.76298 8.48653,-11.25246 13.02835,-16.63792 4.16815,-4.9309 8.25155,-9.9581 12.96286,-14.39205 4.1643,-3.92161 8.69841,-7.63134 14.01839,-9.8618 3.10107,-1.24042 6.75687,-1.97621 9.90416,-0.47768 3.21664,1.43304 4.98483,4.85 5.63972,8.15524 1.44845,7.09587 -0.41605,14.39976 -3.051,20.99483 -7.55814,16.84595 -18.3021,32.25115 -31.51921,45.14852 -6.12895,6.09428 -12.67394,11.7494 -19.29983,17.28895 -1.93769,1.695 -4.05258,3.18968 -5.90552,4.98098 4.56493,5.16588 8.49039,10.86723 12.05373,16.76505 4.09495,6.85317 7.61977,14.05305 10.40881,21.538 -16.91914,-5.71676 -34.88224,-7.85477 -52.68739,-7.87403 -17.77049,0.0231 -35.70277,2.14571 -52.59494,7.84321 2.58872,-6.80695 5.85544,-13.34424 9.43034,-19.68121 3.73669,-6.38705 7.70837,-12.68165 12.56222,-18.28669 0.20032,-0.27736 0.73964,-0.72037 0.22343,-0.99774 -11.33335,-9.26854 -22.55884,-18.78748 -32.27425,-29.78569 -9.39182,-10.58602 -17.07323,-22.62819 -23.08661,-35.42541 -2.61954,-5.86314 -4.40314,-12.24634 -4.20282,-18.71429 0.17721,-3.76366 1.11716,-7.83165 3.95628,-10.50897 m 12.16544,9.49583 c -1.74893,0.30433 -2.93157,1.86449 -3.4054,3.48629 -1.02855,3.46319 -0.5085,7.12669 0.10786,10.61684 1.42149,6.85317 4.16045,13.37891 7.57355,19.46933 3.97939,7.16136 8.05508,14.31886 13.15163,20.75599 4.56108,5.79381 9.97736,10.82486 15.32815,15.86747 3.9216,3.52482 8.09745,7.00727 13.08999,8.88332 1.63336,0.53547 3.80218,1.06323 5.14277,-0.36211 1.7104,-1.33288 1.40607,-3.78292 1.24043,-5.68979 -1.20961,-7.13439 -4.59961,-13.61775 -7.60052,-20.12037 -3.42851,-7.28463 -6.87629,-14.61163 -11.46429,-21.25678 -3.95632,-5.72832 -8.48658,-11.02133 -12.88971,-16.40294 -3.97939,-4.71902 -8.14754,-9.40337 -13.25564,-12.9359 -2.07637,-1.30977 -4.47633,-2.70043 -7.01882,-2.31135 m 146.01231,0.0693 c -1.7027,0.37367 -3.25902,1.20576 -4.70362,2.15341 -4.76524,3.23205 -8.68685,7.51962 -12.41199,11.86882 -4.49559,5.40858 -9.04126,10.79019 -13.14006,16.5108 -4.5842,6.39861 -8.03582,13.49833 -11.39114,20.59034 -2.95854,6.43328 -6.31386,12.77025 -8.00886,19.69277 -0.44301,1.99932 -0.75504,4.11422 -0.28892,6.14051 0.28892,1.34443 1.44075,2.45003 2.83527,2.57331 2.22661,0.19261 4.33379,-0.78586 6.27148,-1.77204 5.84388,-3.14345 10.55905,-7.90099 15.3166,-12.43126 4.32994,-4.16044 8.49809,-8.52505 12.04213,-13.38661 4.37617,-5.94404 8.01271,-12.38502 11.59531,-18.826 3.73284,-6.77228 6.70679,-14.08002 7.80469,-21.76914 0.28506,-3.11263 0.59324,-6.52573 -0.97463,-9.36485 -0.9168,-1.73737 -3.09333,-2.53479 -4.94626,-1.98006 M 204.81943,931.536 c -2.06866,0.97847 -2.7274,3.53637 -2.7004,5.64356 0.0193,1.93769 0.61637,4.15659 2.35374,5.24678 1.36755,0.81283 3.01632,-0.12327 3.67505,-1.40993 1.27125,-2.27668 1.28281,-5.18129 0.20803,-7.53502 -0.60099,-1.27895 -2.04559,-2.56946 -3.53642,-1.94539 m 38.1297,-0.0501 c -1.79131,0.71266 -2.55791,2.73895 -2.76978,4.5187 -0.22343,2.15727 0.18491,4.65353 1.89146,6.15206 0.99774,0.89758 2.6388,0.67415 3.47089,-0.339 1.81827,-2.04555 1.91842,-5.15432 1.1133,-7.65444 -0.49309,-1.51394 -1.93769,-3.2282 -3.70587,-2.67732 z"
           inkscape:connector-curvature="0"
           style="fill:#ffffff;stroke:#000000;stroke-width:0.38522625" />
        <path
           id="path3429"
           d="m 150.89546,832.17078 c 2.54249,-0.38908 4.94245,1.00158 7.01882,2.31135 5.1081,3.53253 9.27625,8.21688 13.25564,12.9359 4.40313,5.38161 8.93339,10.67462 12.88967,16.40294 4.58804,6.64515 8.03582,13.97215 11.46429,21.25678 3.00092,6.50262 6.39091,12.98598 7.60052,20.12037 0.16564,1.90687 0.46997,4.35691 -1.24043,5.68979 -1.34059,1.42534 -3.50941,0.89758 -5.14277,0.36211 -4.99253,-1.87605 -9.16839,-5.3585 -13.08999,-8.88332 -5.35079,-5.04261 -10.76707,-10.07366 -15.32815,-15.86747 -5.09655,-6.43713 -9.17224,-13.59463 -13.15163,-20.75599 -3.4131,-6.09042 -6.15206,-12.61616 -7.57354,-19.46933 -0.61637,-3.49015 -1.13642,-7.15365 -0.10787,-10.61684 0.47387,-1.6218 1.65651,-3.18196 3.40544,-3.48629 m -1.0247,6.00182 c -0.48924,6.49106 1.67188,12.82418 4.09495,18.74896 2.80445,6.32927 6.39091,12.26946 9.93884,18.20194 4.12577,6.82236 9.13372,13.09384 14.86973,18.62954 4.27216,4.07955 8.39408,8.38638 13.27875,11.75711 2.41148,1.6218 5.00024,3.25131 7.96648,3.54023 0.33515,-0.85135 0.52006,-1.77204 0.36982,-2.68503 -0.63562,-5.06572 -2.73125,-9.78089 -4.79607,-14.3959 -3.1743,-6.77998 -6.25611,-13.6139 -9.90802,-20.15504 -4.08339,-7.33471 -9.49968,-13.7911 -14.80039,-20.25905 -3.98709,-4.83459 -8.04738,-9.69614 -12.98598,-13.60619 -1.79515,-1.31362 -3.71743,-2.73896 -5.99797,-2.9778 -1.62951,-0.077 -1.86064,1.99547 -2.03014,3.20123 z"
           inkscape:connector-curvature="0"
           style="fill:#000000;stroke:#000000;stroke-width:0.38522625" />
        <path
           id="path3431"
           d="m 296.90777,832.24012 c 1.85293,-0.55473 4.02946,0.24269 4.9463,1.98006 1.56787,2.83912 1.25969,6.25222 0.97462,9.36485 -1.09789,7.68912 -4.07184,14.99686 -7.80468,21.76914 -3.5826,6.44098 -7.21914,12.88196 -11.59531,18.826 -3.54408,4.86156 -7.71223,9.22617 -12.04213,13.38661 -4.75755,4.53027 -9.47272,9.28781 -15.3166,12.43126 -1.93769,0.98618 -4.04488,1.96465 -6.27148,1.77204 -1.39452,-0.12328 -2.54635,-1.22888 -2.83527,-2.57331 -0.46612,-2.02629 -0.15409,-4.14119 0.28892,-6.14051 1.695,-6.92252 5.05032,-13.25949 8.00885,-19.69277 3.35533,-7.09201 6.80695,-14.19173 11.39115,-20.59034 4.09876,-5.72061 8.64443,-11.10222 13.14002,-16.5108 3.72514,-4.3492 7.64675,-8.63677 12.41199,-11.86882 1.4446,-0.94765 3.00092,-1.77974 4.70362,-2.15341 m -2.64651,4.19896 c -4.39928,2.80445 -7.94336,6.7222 -11.37958,10.59758 -4.47633,5.30842 -8.92569,10.64765 -13.06688,16.22187 -4.84229,6.52959 -8.44801,13.84889 -11.90349,21.17204 -2.62724,5.70135 -5.53955,11.30639 -7.35782,17.33518 -0.62021,2.33447 -1.40607,4.82303 -0.68955,7.22685 2.40381,-0.0616 4.55722,-1.29436 6.56425,-2.50012 5.4394,-3.40155 9.88876,-8.07435 14.50762,-12.46592 4.97713,-4.84615 9.53435,-10.14301 13.28646,-16.0023 3.59801,-5.51644 6.84161,-11.26787 9.91576,-17.09249 2.9855,-6.04035 5.41243,-12.49674 6.02108,-19.24976 0.0193,-2.18423 0.33515,-4.78451 -1.20194,-6.5604 -1.66418,-0.46612 -3.30139,0.51235 -4.69591,1.31747 z"
           inkscape:connector-curvature="0"
           style="fill:#000000;stroke:#000000;stroke-width:0.38522625" />
        <path
           id="path3433"
           d="m 149.87076,838.1726 c 0.1695,-1.20576 0.40063,-3.27827 2.03014,-3.20123 2.28054,0.23884 4.20282,1.66418 5.99797,2.9778 4.9386,3.91005 8.99889,8.7716 12.98598,13.60619 5.30071,6.46795 10.717,12.92434 14.80039,20.25905 3.65195,6.54114 6.73376,13.37506 9.90802,20.15504 2.06482,4.61501 4.16045,9.33018 4.79607,14.3959 0.15024,0.91299 -0.0347,1.83368 -0.36982,2.68503 -2.96624,-0.28892 -5.55496,-1.91843 -7.96648,-3.54023 -4.88467,-3.37073 -9.00659,-7.67756 -13.27875,-11.75711 -5.73601,-5.5357 -10.74396,-11.80718 -14.86973,-18.62954 -3.54793,-5.93248 -7.13439,-11.87267 -9.93884,-18.20194 -2.42307,-5.92478 -4.58419,-12.2579 -4.09495,-18.74896 z"
           inkscape:connector-curvature="0"
           style="fill:#ffffff;stroke:#000000;stroke-width:0.38522625" />
        <path
           id="path3435"
           d="m 294.26126,836.43908 c 1.39452,-0.80512 3.03173,-1.78359 4.69587,-1.31747 1.53709,1.77589 1.22117,4.37617 1.20195,6.5604 -0.60866,6.75302 -3.03559,13.20941 -6.02109,19.24976 -3.07411,5.82462 -6.31771,11.57605 -9.91576,17.09249 -3.75211,5.85929 -8.30929,11.15615 -13.28646,16.0023 -4.61886,4.39157 -9.06822,9.06437 -14.50762,12.46592 -2.00703,1.20576 -4.16044,2.43848 -6.56425,2.50012 -0.71652,-2.40382 0.0693,-4.89238 0.68955,-7.22685 1.81827,-6.02879 4.73058,-11.63383 7.35782,-17.33518 3.45548,-7.32315 7.0612,-14.64245 11.9035,-21.17204 4.14118,-5.57422 8.59054,-10.91345 13.06687,-16.22187 3.43626,-3.87538 6.98034,-7.79313 11.37962,-10.59758 z"
           inkscape:connector-curvature="0"
           style="fill:#ffffff;stroke:#000000;stroke-width:0.38522625" />
        <path
           id="path3437"
           d="m 204.81943,931.53604 c 1.49083,-0.62407 2.93543,0.66644 3.53642,1.94539 1.07478,2.35373 1.06318,5.25834 -0.20803,7.53502 -0.65873,1.28666 -2.3075,2.22276 -3.67505,1.40993 -1.73737,-1.09019 -2.33447,-3.30909 -2.35374,-5.24678 -0.027,-2.10719 0.63174,-4.66509 2.7004,-5.64356 z"
           inkscape:connector-curvature="0"
           style="fill:#000000;stroke:#000000;stroke-width:0.38522625" />
        <path
           id="path3439"
           d="m 242.94913,931.48596 c 1.76818,-0.55088 3.21278,1.16338 3.70587,2.67732 0.80512,2.50012 0.70497,5.60889 -1.1133,7.65444 -0.83209,1.01315 -2.47315,1.23658 -3.47089,0.339 -1.70655,-1.49853 -2.11489,-3.99479 -1.89146,-6.15206 0.21187,-1.77975 0.97847,-3.80604 2.76978,-4.5187 z"
           inkscape:connector-curvature="0"
           style="fill:#000000;stroke:#000000;stroke-width:0.38522625" />
        <path
           id="path3441"
           d="m 212.99008,949.51069 c 17.83598,-1.04011 35.87997,0.13868 53.28449,4.27987 8.52506,2.11104 16.96152,4.91548 24.61981,9.2801 4.64969,2.71969 9.16454,6.02879 12.11537,10.62068 2.06481,3.17042 3.04714,7.12669 2.20349,10.86338 -0.97077,4.37617 -3.89849,8.01656 -7.22299,10.8865 -5.28915,4.52641 -11.64154,7.59278 -18.09407,10.06978 -11.16771,4.1874 -22.95949,6.4834 -34.78979,7.7623 -17.24272,1.7644 -34.72814,1.3175 -51.82834,-1.5717 -9.39952,-1.6719 -18.72585,-4.0641 -27.50515,-7.8702 -5.47021,-2.4153 -10.80175,-5.3623 -15.17792,-9.48808 -3.00091,-2.87378 -5.57037,-6.50262 -6.14821,-10.70543 -0.64332,-4.04103 0.85906,-8.13983 3.30139,-11.32951 3.25902,-4.24904 7.74305,-7.36938 12.39273,-9.92728 7.05735,-3.80989 14.70794,-6.3909 22.45869,-8.36326 9.95425,-2.4693 20.15504,-3.88693 30.3905,-4.50715 m -4.24519,4.80377 c -1.10945,0.5085 -2.65421,1.0979 -2.75437,2.51168 0.20417,1.19805 0.98618,2.18808 1.72581,3.11648 4.05643,4.7768 9.97736,7.98574 16.2527,8.48268 -0.008,7.00727 0.10786,14.01838 -0.0539,21.0218 -5.65898,1.47156 -11.33721,2.86993 -16.96152,4.45707 0.11557,0.20031 0.35441,0.60095 0.47383,0.80512 1.05552,-0.18106 2.08793,-0.48924 3.12804,-0.76275 1.72196,3.25131 3.2359,6.60666 4.88467,9.89266 0.25425,0.4853 0.62407,1.1171 1.27125,1.0593 2.80829,-0.2465 5.57807,-0.8667 8.38637,-1.1133 2.816,0.2196 5.58963,0.8629 8.40564,1.1172 0.84364,0.035 1.27895,-0.8244 1.59869,-1.4716 1.4523,-3.0664 2.93927,-6.11353 4.37617,-9.18378 0.91298,0.0539 2.41922,1.04781 2.68888,-0.36982 -5.6166,-1.55631 -11.28328,-2.92002 -16.90758,-4.44551 -0.0116,-6.99186 0.0347,-13.98757 -0.0231,-20.97942 5.69365,-0.48154 11.10222,-3.12034 15.09702,-7.18447 1.15953,-1.20191 2.34217,-2.49242 2.85838,-4.11422 0.2581,-0.84364 -0.37752,-1.56787 -1.03626,-1.98391 -1.62951,-1.04397 -3.53253,-1.52935 -5.40087,-1.94154 -5.08114,-1.12101 -10.32021,-1.19421 -15.50151,-1.05167 -4.22593,0.21958 -8.5212,0.64718 -12.50829,2.138 m -53.42318,26.69618 c 0.008,0.30433 0.0231,0.92069 0.027,1.22887 9.41878,0.0385 18.83756,-0.008 28.25634,0.0193 0.008,-0.31589 0.0308,-0.94766 0.0424,-1.2674 -9.4419,-0.0385 -18.88379,-0.0693 -28.32569,0.0193 m 110.2402,0.0193 c 0.0115,0.29663 0.0308,0.89373 0.0385,1.19035 9.44189,0.0462 18.89149,0.0693 28.33339,-0.0115 0.008,-0.28507 0.0154,-0.85135 0.0231,-1.13642 -2.14571,-0.21573 -4.29912,-0.0693 -6.44868,-0.10786 -7.31545,0.0424 -14.63475,-0.0886 -21.94634,0.0655 m -87.83929,6.61434 c -5.38161,1.5409 -10.74396,3.13574 -16.11402,4.71517 -0.75504,0.0963 -0.58169,1.53705 0.21188,1.25198 9.02585,-2.6388 18.06711,-5.24293 27.0737,-7.95877 -0.0154,-0.28507 -0.0501,-0.8552 -0.0655,-1.14412 -3.76366,0.80512 -7.40405,2.09948 -11.10607,3.13574 m 87.45406,-3.15886 c -0.0116,0.29663 -0.0347,0.88217 -0.0463,1.1788 9.14531,2.76592 18.33677,5.3739 27.49364,8.08975 0.077,-0.42375 0.15024,-0.85135 0.21954,-1.27895 -9.23769,-2.61569 -18.39451,-5.52415 -27.66691,-7.9896 z"
           inkscape:connector-curvature="0"
           style="fill:#ffffff;stroke:#000000;stroke-width:0.38522625" />
        <path
           id="path3443"
           d="m 208.74489,954.31446 c 3.98709,-1.49082 8.28236,-1.91842 12.50829,-2.138 5.1813,-0.14254 10.42037,-0.0693 15.50151,1.05167 1.86834,0.41219 3.77136,0.89757 5.40087,1.94154 0.65874,0.41604 1.29436,1.14027 1.03626,1.98391 -0.51621,1.6218 -1.69885,2.91231 -2.85838,4.11422 -3.9948,4.06413 -9.40337,6.70293 -15.09702,7.18447 0.0578,6.99185 0.0116,13.98756 0.0231,20.97942 5.6243,1.52549 11.29098,2.8892 16.90758,4.44551 -0.26966,1.41763 -1.7759,0.42375 -2.68888,0.36982 -1.4369,3.07025 -2.92387,6.11738 -4.37617,9.18378 -0.31974,0.6472 -0.75505,1.5062 -1.59869,1.4716 -2.81601,-0.2543 -5.58964,-0.8976 -8.40564,-1.1172 -2.8083,0.2466 -5.57808,0.8668 -8.38637,1.1133 -0.64718,0.058 -1.017,-0.574 -1.27125,-1.0593 -1.64877,-3.286 -3.16271,-6.64135 -4.88467,-9.89266 -1.04011,0.27351 -2.07252,0.58169 -3.12804,0.76275 -0.11942,-0.20417 -0.35826,-0.60481 -0.47383,-0.80512 5.62431,-1.58714 11.30254,-2.98551 16.96152,-4.45707 0.16179,-7.00342 0.0462,-14.01453 0.0539,-21.0218 -6.27534,-0.49694 -12.19626,-3.70588 -16.2527,-8.48268 -0.73963,-0.9284 -1.52164,-1.91843 -1.72581,-3.11648 0.10016,-1.41378 1.64492,-2.00318 2.75437,-2.51168 m 3.61727,39.9133 c 1.42919,3.08566 3.02017,6.09814 4.4224,9.19924 2.65421,-0.2389 5.28145,-0.6896 7.91255,-1.1133 -0.78587,-3.57495 -0.89758,-7.26156 -1.5178,-10.86343 -3.62883,0.83209 -7.21528,1.83368 -10.81715,2.77749 m 13.59849,-2.79289 c -0.0154,2.33061 -0.0539,4.66123 -0.0732,6.99185 -0.0308,1.30207 0.12713,2.64268 -0.31203,3.89848 2.63495,0.4122 5.26604,0.8244 7.91255,1.1441 1.42919,-3.0086 2.92001,-5.98638 4.29527,-9.01811 -3.96012,-0.9284 -7.85861,-2.09949 -11.82259,-3.01632 z"
           inkscape:connector-curvature="0"
           style="fill:#000000;stroke:#000000;stroke-width:0.38522625" />
        <path
           id="path3445"
           d="m 155.32171,981.01064 c 9.4419,-0.0886 18.88379,-0.0578 28.32569,-0.0193 -0.0116,0.31974 -0.0347,0.95151 -0.0424,1.2674 -9.41878,-0.027 -18.83756,0.0193 -28.25634,-0.0193 -0.004,-0.30818 -0.0193,-0.92454 -0.027,-1.22887 z"
           inkscape:connector-curvature="0"
           style="fill:#000000;stroke:#000000;stroke-width:0.38522625" />
        <path
           id="path3447"
           d="m 265.56191,981.0299 c 7.31159,-0.15409 14.63089,-0.0231 21.94634,-0.0655 2.14956,0.0385 4.30297,-0.10787 6.44868,0.10786 -0.008,0.28507 -0.0154,0.85135 -0.0231,1.13642 -9.4419,0.0809 -18.8915,0.0578 -28.33339,0.0115 -0.008,-0.29662 -0.027,-0.89372 -0.0385,-1.19035 z"
           inkscape:connector-curvature="0"
           style="fill:#000000;stroke:#000000;stroke-width:0.38522625" />
        <path
           id="path3449"
           d="m 177.72262,987.64424 c 3.70202,-1.03626 7.34241,-2.33062 11.10607,-3.13574 0.0154,0.28892 0.05,0.85905 0.0655,1.14412 -9.00659,2.71584 -18.04785,5.31997 -27.0737,7.95877 -0.79357,0.28507 -0.96692,-1.15568 -0.21188,-1.25198 5.37006,-1.57943 10.73241,-3.17427 16.11402,-4.71517 z"
           inkscape:connector-curvature="0"
           style="fill:#000000;stroke:#000000;stroke-width:0.38522625" />
        <path
           id="path3451"
           d="m 265.17668,984.48538 c 9.27236,2.46545 18.42922,5.37391 27.66691,7.9896 -0.0693,0.4276 -0.14253,0.8552 -0.21954,1.27895 -9.15683,-2.71585 -18.34833,-5.32383 -27.49364,-8.08975 0.0116,-0.29663 0.0347,-0.88217 0.0463,-1.1788 z"
           inkscape:connector-curvature="0"
           style="fill:#000000;stroke:#000000;stroke-width:0.38522625" />
        <path
           id="path3453"
           d="m 212.36216,994.22776 c 3.60187,-0.94381 7.18832,-1.9454 10.81715,-2.77749 0.62022,3.60187 0.73193,7.28848 1.5178,10.86343 -2.6311,0.4237 -5.25834,0.8744 -7.91255,1.1133 -1.40223,-3.1011 -2.99321,-6.11358 -4.4224,-9.19924 z"
           inkscape:connector-curvature="0"
           style="fill:#ffffff;stroke:#000000;stroke-width:0.38522625" />
        <path
           id="path3455"
           d="m 225.96065,991.43487 c 3.96398,0.91683 7.86247,2.08792 11.82259,3.01632 -1.37526,3.03173 -2.86608,6.00951 -4.29527,9.01811 -2.64651,-0.3197 -5.2776,-0.7319 -7.91255,-1.1441 0.43916,-1.2558 0.28122,-2.59641 0.31203,-3.89848 0.0193,-2.33062 0.0578,-4.66124 0.0732,-6.99185 z"
           inkscape:connector-curvature="0"
           style="fill:#ffffff;stroke:#000000;stroke-width:0.38522625" />
      </g>
    </g>
  </g>
</svg>
