<?xml version="1.0" encoding="UTF-8" standalone="no"?>
<!-- Created with Inkscape (http://www.inkscape.org/) -->

<svg
   xmlns:dc="http://purl.org/dc/elements/1.1/"
   xmlns:cc="http://creativecommons.org/ns#"
   xmlns:rdf="http://www.w3.org/1999/02/22-rdf-syntax-ns#"
   xmlns:svg="http://www.w3.org/2000/svg"
   xmlns="http://www.w3.org/2000/svg"
   xmlns:sodipodi="http://sodipodi.sourceforge.net/DTD/sodipodi-0.dtd"
   xmlns:inkscape="http://www.inkscape.org/namespaces/inkscape"
   width="480"
   height="288"
   id="svg2"
   version="1.1"
   inkscape:version="0.92.1 r15371"
   sodipodi:docname="aniahwi-flag.svg"
   viewBox="0 0 450 270"
   inkscape:export-filename="aniahwi-flag.png"
   inkscape:export-xdpi="300"
   inkscape:export-ydpi="300">
  <defs
     id="defs4">
    <clipPath
       id="clipPath4663"
       clipPathUnits="userSpaceOnUse">
      <path
         id="path4665"
         inkscape:connector-curvature="0"
         d="M 0,600 H 600 V 0 H 0 Z" />
    </clipPath>
  </defs>
  <sodipodi:namedview
     id="base"
     pagecolor="#ffffff"
     bordercolor="#666666"
     borderopacity="1.0"
     inkscape:pageopacity="0.0"
     inkscape:pageshadow="2"
     inkscape:zoom="1.4"
     inkscape:cx="-50.986787"
     inkscape:cy="116.13129"
     inkscape:document-units="px"
     inkscape:current-layer="layer1"
     showgrid="false"
     units="px"
     inkscape:window-width="1920"
     inkscape:window-height="1003"
     inkscape:window-x="0"
     inkscape:window-y="25"
     inkscape:window-maximized="1"
     borderlayer="true"
     showguides="false" />
  <metadata
     id="metadata7">
    <rdf:RDF>
      <cc:Work
         rdf:about="">
        <dc:format>image/svg+xml</dc:format>
        <dc:type
           rdf:resource="http://purl.org/dc/dcmitype/StillImage" />
        <dc:title />
      </cc:Work>
    </rdf:RDF>
  </metadata>
  <g
     inkscape:label="Layer 1"
     inkscape:groupmode="layer"
     id="layer1"
     transform="translate(0,-782.36218)">
    <rect
       style="opacity:1;fill:#ffffff;fill-opacity:1;fill-rule:nonzero;stroke:#000000;stroke-width:4.04577875;stroke-linecap:round;stroke-linejoin:round;stroke-miterlimit:4;stroke-dasharray:none;stroke-dashoffset:0;stroke-opacity:1"
       id="rect3749"
       width="445.95422"
       height="265.95422"
       x="2.0228882"
       y="784.38507" />
    <rect
       style="fill:none;stroke:#000000;stroke-width:4;stroke-miterlimit:4;stroke-dasharray:none"
       y="813.56116"
       x="251.72673"
       width="132.17462"
       height="79.304771"
       id="rect3725" />
    <g
       id="layer1-9"
       inkscape:label="Layer 1"
       transform="translate(-35.756307,507.10901)">
      <g
         id="Layer_1"
         transform="translate(-244.49951,955.86218)" />
    </g>
    <g
       id="g3652"
       transform="translate(-44)">
      <g
         id="layer1-7"
         inkscape:label="Layer 1"
         transform="matrix(0.52384991,0,0,0.52384991,4.5559871,790.14432)">
        <g
           id="g3982"
           transform="translate(15.143,-322.57)">
          <circle
             r="41"
             cy="450.36218"
             cx="234"
             id="path2985"
             style="fill:none;stroke:#000000;stroke-width:10" />
          <path
             id="path3755"
             d="M 234,511.91 V 650.82 Z"
             style="fill:none;stroke:#000000;stroke-width:8.41870022;stroke-linecap:round;stroke-linejoin:round"
             inkscape:connector-curvature="0" />
          <path
             id="path3937"
             d="m 244,667.36 47,72 z"
             style="fill:none;stroke:#000000;stroke-width:10;stroke-linecap:round;stroke-linejoin:round"
             inkscape:connector-curvature="0" />
          <path
             id="path3937-6"
             d="m 222.5,666.36 -47,72 z"
             style="fill:none;stroke:#000000;stroke-width:10;stroke-linecap:round;stroke-linejoin:round"
             inkscape:connector-curvature="0" />
          <path
             id="path3937-6-8"
             d="m 211.5,520.36 -47,72 z"
             style="fill:none;stroke:#000000;stroke-width:10;stroke-linecap:round;stroke-linejoin:round"
             inkscape:connector-curvature="0" />
          <path
             id="path3937-6-7"
             d="m 257.5,514.36 47,72 z"
             style="fill:none;stroke:#000000;stroke-width:10;stroke-linecap:round;stroke-linejoin:round"
             inkscape:connector-curvature="0" />
        </g>
      </g>
      <g
         transform="matrix(0.52384991,0,0,0.52384991,92.555987,790.14432)"
         inkscape:label="Layer 1"
         id="g3636">
        <g
           transform="translate(15.143,-322.57)"
           id="g3638">
          <circle
             style="fill:none;stroke:#000000;stroke-width:10"
             id="circle3640"
             cx="234"
             cy="450.36218"
             r="41" />
          <path
             inkscape:connector-curvature="0"
             style="fill:none;stroke:#000000;stroke-width:8.41870022;stroke-linecap:round;stroke-linejoin:round"
             d="M 234,511.91 V 650.82 Z"
             id="path3642" />
          <path
             inkscape:connector-curvature="0"
             style="fill:none;stroke:#000000;stroke-width:10;stroke-linecap:round;stroke-linejoin:round"
             d="m 244,667.36 47,72 z"
             id="path3644" />
          <path
             inkscape:connector-curvature="0"
             style="fill:none;stroke:#000000;stroke-width:10;stroke-linecap:round;stroke-linejoin:round"
             d="m 222.5,666.36 -47,72 z"
             id="path3646" />
          <path
             inkscape:connector-curvature="0"
             style="fill:none;stroke:#000000;stroke-width:10;stroke-linecap:round;stroke-linejoin:round"
             d="m 211.5,520.36 -47,72 z"
             id="path3648" />
          <path
             inkscape:connector-curvature="0"
             style="fill:none;stroke:#000000;stroke-width:10;stroke-linecap:round;stroke-linejoin:round"
             d="m 257.5,514.36 47,72 z"
             id="path3650" />
        </g>
      </g>
    </g>
    <g
       id="layer1-9-6"
       inkscape:label="Layer 1"
       transform="translate(-675.06124,244.63229)">
      <g
         id="Layer_1-2"
         transform="translate(-244.49951,955.86218)" />
    </g>
    <g
       id="layer1-9-3"
       inkscape:label="Layer 1"
       transform="translate(-3490.0184,257.16314)">
      <g
         id="Layer_1-6"
         transform="translate(-244.49951,955.86218)" />
    </g>
    <g
       id="layer1-9-7"
       inkscape:label="Layer 1"
       transform="translate(104.24569,117.84657)">
      <g
         id="Layer_1-9"
         transform="translate(-244.49951,955.86218)" />
    </g>
    <g
       id="layer1-9-2"
       inkscape:label="Layer 1"
       transform="translate(-789.70404,144.27515)">
      <g
         id="Layer_1-28"
         transform="translate(-244.49951,955.86218)" />
    </g>
    <g
       id="layer1-9-9"
       inkscape:label="Layer 1"
       transform="translate(-1944.3796,188.918)">
      <g
         id="Layer_1-3"
         transform="translate(-244.49951,955.86218)" />
    </g>
    <g
       id="g3457"
       transform="translate(-3923.2618,209.34763)"
       style="stroke:#000000">
      <path
         style="fill:#373536;stroke:#000000"
         inkscape:connector-curvature="0"
         d="m 154.22,707.22 c 2.92,-2.93 7.24,-1.71 10.85,-1.3199 21.25,2.59 42.57,8.89 59.99,21.72 14.07,-6.54 29.93,-9.61 45.37,-7.27 8.12,1.05 15.9,3.78 23.41,6.95 17.48,-12.64 38.74,-18.92 59.96,-21.44 3.38,-0.35 7.39,-1.46 10.21,1.12 3.06,2.36 2.82,6.53 2.78,9.99 -0.32,20.4901 -4.25,41.73 -16.09,58.8701 21.37,27.0099 37.64,57.66 51.19,89.21 6.81,3.25 14.1,5.66 20.79,9.29 16.55,8.42 32.39,19.4 43.35,34.65 5.45,7.93 10.3,17.15 9.32,27.09 11.49,0.43 23.01,-0.03 34.5,0.21 1.83,-0.38 1.99,1.51 2.48,2.77 -1.73,0.45 -3.5,0.7 -5.28,0.66 -9.04,-0.08 -18.07,-0.01 -27.1,-0.06 -1.4,0.2401 -3.26,-0.54 -4.33,0.63 -0.35,4.45 -0.23,9.1 -2.09,13.27 -1.31,2.76 -3.14,5.23 -4.63,7.9 12.99,1.48 25.98,3.04 38.95,4.79 -0.02,0.69 -0.05,2.07 -0.06,2.76 -13.71,-0.44 -27.25,-3.22 -40.9,-4.45 -5.76,10.7 -15.77,18.09 -25.68,24.67 -21.5,13.7 -45.89,22.14 -70.48,28.37 -30.01,7.4501 -60.86,11.13 -91.73,12.4 -35.38,1.1899 -70.93,-0.89 -105.79,-7.17 -31.3,-5.86 -62.6,-14.59 -90.29,-30.7 -10.94,-6.79 -22.21,-14.27 -28.9,-25.59 -8.38,0.69 -16.68,2.44 -25.11,2.55 0.04,-0.73 0.11,-2.2 0.15,-2.94 7.49,-1.12 15.07,-1.62 22.55,-2.87 -2.29,-3.79 -5.22,-7.29 -6.39,-11.65 -1.45,-3.82 -1.17,-7.94 -1.16,-11.93 -11.66,-0.1 -23.33,0.08 -34.99,-0.07 -2.07,0.41 -2.05,-3.69 0,-3.3 11.68,-0.24 23.36,0.02 35.04,-0.11 -1.04,-11.8799 5.46,-22.68 12.39,-31.75 15.53,-19.1899 37.66,-31.77 60.37,-40.6 1.25,-0.34 2.05,-1.36 2.45,-2.54 12.75,-30.25 29.02,-59.05 48.96,-85.15 -12.09,-16.37 -15.88,-37.28 -16.52,-57.2 0.16,-3.9402 -0.96,-8.8502 2.46,-11.7602 m 4.82,5.59 c -0.1,6.43 0.33,12.84 1.08,19.23 2.05,15.78 6.47,32.38 17.98,44.01 -11,13.33 -20.7,27.7 -29.33,42.67 -8.71,15.25 -16.77,30.93 -23.24,47.28 41.58,-13.87 86.95,-14.94 129.55,-5.19 3.18,0.81 6.51,0.75 9.72,0.08 43.09,-8.33 88.41,-6.56 130.21,7.22 -13.79,-33.12 -31.4,-64.85 -54.07,-92.75 7.06,-6.94 11.11,-16.27 13.9,-25.62 3.37,-11.99 4.89,-24.49 4.46,-36.94 -22.93,2 -46.37,8.46 -64.52,23.18 -9.33,-4.49 -19.27,-8.11 -29.68,-8.81 -14.23,-1.36 -28.31,2.77 -40.94,9.06 -18.36,-14.78 -41.93,-21.57 -65.12,-23.42 M 119,870.99 c -18.81,7.28 -36.96,17.34 -51.2,31.81 -8.81,9.09 -16.33,20.47 -17.24,33.42 42.47,0.07 84.95,-0.03 127.43,0.05 2.46,-1.06 3.45,3.4 0.93,3.35 -42.79,0.15 -85.58,-0.01 -128.37,0.08 0.2,8.27 3.77,15.99 8.47,22.65 40.76,-4.71 81.45,-9.95 122.19,-14.8 5.97,-0.62 11.9,-1.91 17.93,-1.84 -0.05,0.75 -0.16,2.2599 -0.21,3.0099 -45.75,5.65 -91.5,11.2401 -137.26,16.77 9.1,10.84 21.28,18.6 33.72,25.08 14.29,7.32 29.47,12.73 44.88,17.13 38.58,10.82 78.75,14.94 118.73,15.29 31.58,-0.17 63.22,-2.76 94.21,-9 26.42,-5.53 52.71,-13.25 76.43,-26.4 11.02,-6.35 21.9,-13.7401 29.61,-24.03 -40.69,-4.87 -81.38,-9.85 -122.06,-14.84 -0.04,-0.73 -0.12,-2.17 -0.16,-2.9 5.96,-0.36 11.82,1.17 17.73,1.7 35.73,4.18 71.4,8.9 107.15,12.87 3.83,-6.27 6.76,-13.22 7.11,-20.63 -43.36,-0.24 -86.73,0.07 -130.09,-0.16 -0.02,-1.09 -0.02,-2.17 -0.01,-3.24 43.37,-0.33 86.75,0.05 130.12,-0.19 -1.51,-15.7 -12.03,-28.69 -23.7,-38.48 -12.91,-10.7 -27.96,-18.57 -43.58,-24.51 -40.56,-15.2 -85.23,-18.26 -127.83,-11.31 10.04,1.22 20.5,1.94 29.7,6.56 2.29,1.24 5.34,3.34 4.24,6.38 -1.79,4.77 -5.43,8.53 -9.02,12.03 -10.18,9.44 -23.39,16.11 -37.42,16.7599 -0.04,18.29 -0.06,36.59 0.01,54.89 12.92,8.05 28.3,11.25 43.38,11.15 0.01,0.58 0.01,1.72 0.02,2.3 -15.63,0.9 -31.45,-3.07 -44.95,-10.94 -3.21,1.1 -5.79,3.56 -8.93,4.87 -11.19,5.48 -23.89,6.48 -36.16,6.36 -0.26,-0.86 -0.5,-1.71 -0.74,-2.54 15.22,0.15 30.64,-3.16 43.76,-11.07 0.35,-18.37 0.18,-36.74 0.09,-55.11 -15.3,-0.61 -29.57,-8.55 -40.05,-19.4 -2.79,-3.19 -5.95,-6.62 -6.58,-10.97 0.8,-2.93 3.81,-4.38 6.32,-5.61 9.36,-3.89 19.56,-4.7401 29.52,-5.86 C 204.68,853.14 159.63,855.61 119,870.99 Z"
         id="path3459" />
      <path
         style="fill:#ffffff;stroke:#000000"
         inkscape:connector-curvature="0"
         d="m 159.04,712.81 c 23.19,1.85 46.76,8.64 65.12,23.42 12.63,-6.29 26.71,-10.42 40.94,-9.06 10.41,0.7 20.35,4.32 29.68,8.81 18.15,-14.72 41.59,-21.18 64.52,-23.18 0.43,12.45 -1.09,24.95 -4.46,36.94 -2.79,9.35 -6.84,18.68 -13.9,25.62 22.67,27.9 40.28,59.63 54.07,92.75 -41.8,-13.78 -87.12,-15.55 -130.21,-7.22 -3.21,0.67 -6.54,0.73 -9.72,-0.08 -42.6,-9.75 -87.97,-8.68 -129.55,5.19 6.47,-16.35 14.53,-32.03 23.24,-47.28 8.63,-14.97 18.33,-29.34 29.33,-42.67 -11.51,-11.63 -15.93,-28.23 -17.98,-44.01 -0.75,-6.39 -1.18,-12.8 -1.08,-19.23 m 149.53,32.29 c 8.39,7.73 17.29,14.89 25.73,22.57 1.96,-0.28 3.18,-2.51 4.53,-3.86 7.03,-9.57 8.58,-21.98 8.47,-33.55 -13.91,1.29 -28.02,5.52 -38.73,14.84 M 170.99,730.43 c 0.27,13.33 2.13,28.77 13.11,37.81 8.9,-7.44 17.83,-14.91 26.31,-22.83 -10.92,-9.38 -25.19,-14.14 -39.42,-14.98 m 36.48,77.99 c -4.78,3.03 -6.24,9.21 -6.26,14.53 0.3,4.78 1.67,10.11 5.73,13.09 2.92,2.09 7.14,0.87 9.06,-2.0099 4.54,-6.28 4.68,-15.3 0.91,-21.97 -1.76,-3.2301 -5.9,-5.7901 -9.44,-3.6401 m 98.9,-0.15 c -4.96,2.94 -6.58,9.32 -6.44,14.74 0.16,5.04 1.82,10.91 6.54,13.5 3.52,1.83 7.5,-0.72 9.16,-3.9 3.5,-6.36 3.45,-14.69 -0.3,-20.93 -1.73,-3 -5.62,-5.21 -8.96,-3.41 z"
         id="path3461" />
      <path
         style="fill:#373536;stroke:#000000"
         inkscape:connector-curvature="0"
         d="m 308.57,745.1 c 10.71,-9.3199 24.82,-13.55 38.73,-14.84 0.11,11.57 -1.44,23.98 -8.47,33.55 -1.35,1.35 -2.57,3.58 -4.53,3.86 -8.44,-7.68 -17.34,-14.84 -25.73,-22.57 m 11.88,0.68 c 4.57,3.97 9.13,7.9399 13.77,11.8199 3.18,-5.74 4.88,-12.23 5.37,-18.7599 -6.66,1.34 -13.36,3.25 -19.14,6.94 z"
         id="path3463" />
      <path
         style="fill:#373536;stroke:#000000"
         inkscape:connector-curvature="0"
         d="m 170.99,730.43 c 14.23,0.84 28.5,5.6 39.42,14.98 -8.48,7.92 -17.41,15.39 -26.31,22.83 -10.98,-9.04 -12.84,-24.48 -13.11,-37.81 m 7.9,8.43 c 0.55,6.7 2.37,13.29 5.52,19.25 4.98,-3.73 9.56,-7.96 14.17,-12.13 -6.05,-3.6 -12.79,-5.86 -19.69,-7.12 z"
         id="path3465" />
      <path
         style="fill:#ffffff;stroke:#000000"
         inkscape:connector-curvature="0"
         d="m 178.89,738.86 c 6.9,1.26 13.64,3.52 19.69,7.12 -4.61,4.17 -9.19,8.4 -14.17,12.13 -3.15,-5.96 -4.97,-12.55 -5.52,-19.25 z"
         id="path3467" />
      <path
         style="fill:#ffffff;stroke:#000000"
         inkscape:connector-curvature="0"
         d="m 320.45,745.78 c 5.78,-3.69 12.48,-5.6 19.14,-6.94 -0.49,6.53 -2.19,13.02 -5.37,18.7599 -4.64,-3.8799 -9.2,-7.8499 -13.77,-11.8199 z"
         id="path3469" />
      <path
         style="fill:#373536;stroke:#000000"
         inkscape:connector-curvature="0"
         d="m 207.47,808.42 c 3.54,-2.15 7.68,0.41 9.44,3.64 3.77,6.67 3.63,15.69 -0.91,21.97 -1.92,2.8799 -6.14,4.1 -9.06,2.0099 -4.06,-2.98 -5.43,-8.31 -5.73,-13.09 0.02,-5.3199 1.48,-11.4999 6.26,-14.5299 z"
         id="path3471" />
      <path
         style="fill:#373536;stroke:#000000"
         inkscape:connector-curvature="0"
         d="m 306.37,808.27 c 3.34,-1.8 7.23,0.41 8.96,3.41 3.75,6.24 3.8,14.57 0.3,20.93 -1.66,3.18 -5.64,5.73 -9.16,3.9 -4.72,-2.59 -6.38,-8.46 -6.54,-13.5 -0.14,-5.42 1.48,-11.8 6.44,-14.74 z"
         id="path3473" />
      <path
         style="fill:#ffffff;stroke:#000000"
         inkscape:connector-curvature="0"
         d="m 119,870.99 c 40.63,-15.38 85.68,-17.85 128.12,-9.32 -9.96,1.12 -20.16,1.97 -29.52,5.86 -2.51,1.23 -5.52,2.68 -6.32,5.61 0.63,4.35 3.79,7.78 6.58,10.97 10.48,10.85 24.75,18.79 40.05,19.4 0.09,18.37 0.26,36.74 -0.09,55.11 -13.12,7.91 -28.54,11.22 -43.76,11.07 0.24,0.83 0.48,1.68 0.74,2.54 12.27,0.12 24.97,-0.88 36.16,-6.36 3.14,-1.31 5.72,-3.77 8.93,-4.87 13.5,7.87 29.32,11.84 44.95,10.94 -0.01,-0.58 -0.01,-1.72 -0.02,-2.3 -15.08,0.1 -30.46,-3.1 -43.38,-11.15 -0.07,-18.3 -0.05,-36.6 -0.01,-54.89 14.03,-0.65 27.24,-7.3199 37.42,-16.7599 3.59,-3.5 7.23,-7.26 9.02,-12.03 1.1,-3.04 -1.95,-5.14 -4.24,-6.38 -9.2,-4.62 -19.66,-5.34 -29.7,-6.56 42.6,-6.95 87.27,-3.89 127.83,11.31 15.62,5.94 30.67,13.81 43.58,24.51 11.67,9.79 22.19,22.78 23.7,38.48 -43.37,0.24 -86.75,-0.14 -130.12,0.19 -0.01,1.07 -0.01,2.15 0.01,3.24 43.36,0.23 86.73,-0.08 130.09,0.16 -0.35,7.41 -3.28,14.36 -7.11,20.63 -35.75,-3.97 -71.42,-8.69 -107.15,-12.87 -5.91,-0.53 -11.77,-2.06 -17.73,-1.7 0.04,0.73 0.12,2.17 0.16,2.9 40.68,4.9901 81.37,9.97 122.06,14.84 -7.71,10.29 -18.59,17.68 -29.61,24.03 -23.72,13.15 -50.01,20.87 -76.43,26.4 -30.99,6.24 -62.63,8.83 -94.21,9 -39.98,-0.35 -80.15,-4.47 -118.73,-15.29 -15.41,-4.4 -30.59,-9.81 -44.88,-17.13 -12.44,-6.48 -24.62,-14.24 -33.72,-25.08 45.76,-5.53 91.51,-11.12 137.26,-16.77 0.05,-0.75 0.16,-2.2599 0.21,-3.0099 -6.03,-0.07 -11.96,1.22 -17.93,1.84 -40.74,4.85 -81.43,10.09 -122.19,14.8 -4.7,-6.66 -8.27,-14.38 -8.47,-22.65 42.79,-0.09 85.58,0.07 128.37,-0.08 2.52,0.05 1.53,-4.41 -0.93,-3.35 -42.48,-0.08 -84.96,0.02 -127.43,-0.05 0.91,-12.95 8.43,-24.33 17.24,-33.42 C 82.04,888.33 100.19,878.27 119,870.99 Z"
         id="path3475" />
    </g>
    <g
       transform="matrix(0.18038293,0,0,0.18038293,175.78684,901.70366)"
       id="g3390">
      <path
         id="path5046-4-7-2-5-7-6-3"
         d="m 723.36,-383.82 c 4.8301,6.0178 8.4771,11.936 11.422,33.913 1.9542,14.582 3.082,21.637 2.3176,24.382 -5.5452,19.912 -3.9077,22.373 -28.303,27.795 -3.9563,0.87932 -41.089,-10.9 -56.424,-21.324 -24.451,-16.62 -38.748,-42.872 -46.683,-60.456 -8.9303,-19.788 -14.998,-43.99 -17.171,-61.35 14.662,-2.129 61.536,12.457 79.129,19.013 16.834,6.273 23.511,8.1389 37.776,20.453 14.264,12.314 13.108,11.556 17.938,17.573 z"
         sodipodi:nodetypes="zssssscszz"
         style="color:#000000;fill:#000000;fill-rule:evenodd"
         inkscape:connector-curvature="0" />
      <path
         id="path5046-4-7-2-5-7-6"
         d="m 851.37,-383.82 c -4.8301,6.0178 -8.4771,11.936 -11.422,33.913 -1.9542,14.582 -3.082,21.637 -2.3176,24.382 5.5452,19.912 3.9077,22.373 28.303,27.795 3.9563,0.87932 41.089,-10.9 56.424,-21.324 24.451,-16.62 38.748,-42.872 46.683,-60.456 8.9303,-19.788 14.998,-43.99 17.171,-61.35 -14.662,-2.129 -61.536,12.457 -79.129,19.013 -16.834,6.273 -23.511,8.1389 -37.776,20.453 -14.264,12.314 -13.108,11.556 -17.938,17.573 z"
         sodipodi:nodetypes="zssssscszz"
         style="color:#000000;fill:#000000;fill-rule:evenodd"
         inkscape:connector-curvature="0" />
      <path
         id="path4205-1"
         style="fill:#000000"
         d="m 786.8718,-351.55577 c 65.60518,0.39944 110.35231,59.07375 112.46718,125.42414 -2.03035,25.44133 -5.1765,31.39131 -19.0693,51.43968 -22.98905,33.17566 -54.01782,78.126891 -93.19124,78.126891 -38.87071,0 -65.11117,-34.412261 -94.16795,-79.370921 -13.39145,-20.72051 -14.36009,-23.37289 -15.81143,-51.02562 0,-68.42068 53.07259,-124.94138 109.77113,-124.5886 z"
         sodipodi:nodetypes="sccsscs"
         inkscape:connector-curvature="0" />
      <path
         id="path4205"
         d="m 787.88,-348.34 c 59.237,0 107.26,55.459 107.26,123.87 0,30.564 -17.206,46.231 -33.094,67.834 -19.674,26.751 -41.392,56.037 -74.164,56.037 -34.501,0 -60.507,-29.951 -80.127,-59.178 -14.067,-20.955 -27.131,-36.125 -27.131,-64.693 0,-68.412 48.021,-123.87 107.26,-123.87 z"
         sodipodi:nodetypes="sssssss"
         style="fill:#ffffff"
         inkscape:connector-curvature="0" />
      <g
         id="g4614"
         transform="translate(-8.8972)">
        <g
           id="g5058-1-5-0"
           transform="matrix(3.4154,0,0,2.0088,923.07,-294.93)">
          <circle
             id="path5060-6-7-9"
             style="fill:#ffffff"
             transform="matrix(0.17771,0,0,0.17771,-42.905,-80.331)"
             cx="120"
             cy="592.36218"
             r="57.142857" />
          <circle
             id="path5062-8-8-5"
             style="fill:#000000;stroke:#000000;stroke-width:0.1"
             transform="matrix(0.11892,0,0,0.13546,-35.976,-55.558)"
             cx="120"
             cy="592.36218"
             r="57.142857" />
          <circle
             id="path5064-5-2-8"
             style="fill:#ffffff;stroke:#000000;stroke-width:0.1"
             transform="matrix(0.044528,0,0,0.044528,-26.134,-5.617)"
             cx="120"
             cy="592.36218"
             r="57.142857" />
        </g>
        <g
           id="g5066-7-7-9"
           transform="matrix(3.4154,0,0,2.0088,817.9,-294.93)">
          <circle
             id="path5068-6-8-0"
             style="fill:#ffffff"
             transform="matrix(0.17771,0,0,0.17771,-42.905,-80.331)"
             cx="120"
             cy="592.36218"
             r="57.142857" />
          <circle
             id="path5070-1-0-0"
             style="fill:#000000;stroke:#000000;stroke-width:0.1"
             transform="matrix(0.11892,0,0,0.13546,-35.976,-55.558)"
             cx="120"
             cy="592.36218"
             r="57.142857" />
          <circle
             id="path5072-8-2-0"
             style="fill:#ffffff;stroke:#000000;stroke-width:0.1"
             transform="matrix(0.044528,0,0,0.044528,-26.134,-5.617)"
             cx="120"
             cy="592.36218"
             r="57.142857" />
        </g>
      </g>
      <path
         id="path3201-7-0-7-3"
         style="fill:#000000;fill-rule:evenodd"
         inkscape:connector-curvature="0"
         d="m 831.75,-127.49 c 0,15.581 -19.629,28.226 -43.815,28.226 -24.186,0 -43.815,-12.645 -43.815,-28.226 0,-15.581 19.629,-28.226 43.815,-28.226 24.186,0 43.815,12.645 43.815,28.226 z" />
      <path
         id="path3288"
         d="m 767.45,-127.76 c 0,6.2068 6.7157,11.929 0.50897,11.929 -6.2068,0 -11.238,-5.0316 -11.238,-11.238 0,-6.2068 5.0316,-11.238 11.238,-11.238 6.2068,0 -0.50897,4.3406 -0.50897,10.547 z"
         sodipodi:nodetypes="sssss"
         style="fill:#d1d1d2"
         inkscape:connector-curvature="0" />
      <path
         id="path3288-3"
         d="m 818.77,-127.56 c 0,6.2068 -5.0316,11.238 -11.238,11.238 -6.2068,0 -0.18205,-5.7226 -0.18205,-11.929 0,-6.2068 -6.0247,-10.547 0.18205,-10.547 6.20675,0 11.238,5.0316 11.238,11.238 z"
         sodipodi:nodetypes="sssss"
         style="fill:#d1d1d2"
         inkscape:connector-curvature="0" />
      <path
         id="path5046-4-7-2-5-07"
         d="m 863.6,-392.8 c -10.318,10.241 -17.444,16.744 -19.773,35.251 -1.7532,13.934 -3.9414,31.538 -3.1771,34.283 5.5452,19.912 -5.2242,17.392 19.171,22.814 3.9563,0.87933 40.729,-8.5395 61.053,-21.63 20.324,-13.091 37.482,-41.555 45.417,-59.139 8.9303,-19.788 12.963,-39.427 16.895,-56.786 -15.541,-0.37021 -57.793,11.786 -75.385,18.342 -16.834,6.273 -33.884,16.624 -44.201,26.865 z"
         sodipodi:nodetypes="zssszscsz"
         style="color:#000000;fill:#ffffff;fill-rule:evenodd"
         inkscape:connector-curvature="0" />
      <path
         id="path5046-4-7-2-5-07-8"
         d="m 711.14,-392.8 c 10.318,10.241 17.444,16.744 19.773,35.251 1.7532,13.934 3.9414,31.538 3.1771,34.283 -5.5452,19.912 5.2242,17.392 -19.171,22.814 -3.9563,0.87933 -40.729,-8.5395 -61.053,-21.63 -20.324,-13.091 -37.482,-41.555 -45.417,-59.139 -8.9303,-19.788 -12.963,-39.427 -16.895,-56.786 15.541,-0.37021 57.793,11.786 75.385,18.342 16.834,6.273 33.884,16.624 44.201,26.865 z"
         sodipodi:nodetypes="zssszscsz"
         style="color:#000000;fill:#ffffff;fill-rule:evenodd"
         inkscape:connector-curvature="0" />
    </g>
  </g>
</svg>
