<?xml version="1.0" encoding="UTF-8" standalone="no"?>
<!-- Created with Inkscape (http://www.inkscape.org/) -->

<svg
   xmlns:dc="http://purl.org/dc/elements/1.1/"
   xmlns:cc="http://creativecommons.org/ns#"
   xmlns:rdf="http://www.w3.org/1999/02/22-rdf-syntax-ns#"
   xmlns:svg="http://www.w3.org/2000/svg"
   xmlns="http://www.w3.org/2000/svg"
   xmlns:sodipodi="http://sodipodi.sourceforge.net/DTD/sodipodi-0.dtd"
   xmlns:inkscape="http://www.inkscape.org/namespaces/inkscape"
   width="480"
   height="288"
   id="svg2"
   version="1.1"
   inkscape:version="0.92.1 r15371"
   sodipodi:docname="aniwesa-flag.svg"
   viewBox="0 0 450 270"
   inkscape:export-filename="aniwesa-flag.png"
   inkscape:export-xdpi="300"
   inkscape:export-ydpi="300">
  <defs
     id="defs4" />
  <sodipodi:namedview
     id="base"
     pagecolor="#ffffff"
     bordercolor="#666666"
     borderopacity="1.0"
     inkscape:pageopacity="0.0"
     inkscape:pageshadow="2"
     inkscape:zoom="2.9037037"
     inkscape:cx="225"
     inkscape:cy="135"
     inkscape:document-units="px"
     inkscape:current-layer="layer1"
     showgrid="false"
     units="px"
     inkscape:window-width="1920"
     inkscape:window-height="1003"
     inkscape:window-x="0"
     inkscape:window-y="25"
     inkscape:window-maximized="1"
     borderlayer="true"
     showguides="false" />
  <metadata
     id="metadata7">
    <rdf:RDF>
      <cc:Work
         rdf:about="">
        <dc:format>image/svg+xml</dc:format>
        <dc:type
           rdf:resource="http://purl.org/dc/dcmitype/StillImage" />
        <dc:title />
      </cc:Work>
    </rdf:RDF>
  </metadata>
  <g
     inkscape:label="Layer 1"
     inkscape:groupmode="layer"
     id="layer1"
     transform="translate(0,-782.36218)">
    <rect
       style="opacity:1;fill:#ffffff;fill-opacity:1;fill-rule:nonzero;stroke:#000000;stroke-width:4.04577875;stroke-linecap:round;stroke-linejoin:round;stroke-miterlimit:4;stroke-dasharray:none;stroke-dashoffset:0;stroke-opacity:1"
       id="rect3749"
       width="445.95422"
       height="265.95422"
       x="2.0228882"
       y="784.38507" />
    <g
       id="layer1-9"
       inkscape:label="Layer 1"
       transform="translate(-35.756307,507.10901)">
      <g
         id="Layer_1"
         transform="translate(-244.49951,955.86218)" />
    </g>
    <g
       id="g3652"
       transform="translate(-44)">
      <g
         id="layer1-7"
         inkscape:label="Layer 1"
         transform="matrix(0.52384991,0,0,0.52384991,4.5559871,790.14432)">
        <g
           id="g3982"
           transform="translate(15.143,-322.57)">
          <circle
             r="41"
             cy="450.36218"
             cx="234"
             id="path2985"
             style="fill:none;stroke:#000000;stroke-width:10" />
          <path
             id="path3755"
             d="M 234,511.91 V 650.82 Z"
             style="fill:none;stroke:#000000;stroke-width:8.41870022;stroke-linecap:round;stroke-linejoin:round"
             inkscape:connector-curvature="0" />
          <path
             id="path3937"
             d="m 244,667.36 47,72 z"
             style="fill:none;stroke:#000000;stroke-width:10;stroke-linecap:round;stroke-linejoin:round"
             inkscape:connector-curvature="0" />
          <path
             id="path3937-6"
             d="m 222.5,666.36 -47,72 z"
             style="fill:none;stroke:#000000;stroke-width:10;stroke-linecap:round;stroke-linejoin:round"
             inkscape:connector-curvature="0" />
          <path
             id="path3937-6-8"
             d="m 211.5,520.36 -47,72 z"
             style="fill:none;stroke:#000000;stroke-width:10;stroke-linecap:round;stroke-linejoin:round"
             inkscape:connector-curvature="0" />
          <path
             id="path3937-6-7"
             d="m 257.5,514.36 47,72 z"
             style="fill:none;stroke:#000000;stroke-width:10;stroke-linecap:round;stroke-linejoin:round"
             inkscape:connector-curvature="0" />
        </g>
      </g>
      <g
         transform="matrix(0.52384991,0,0,0.52384991,92.555987,790.14432)"
         inkscape:label="Layer 1"
         id="g3636">
        <g
           transform="translate(15.143,-322.57)"
           id="g3638">
          <circle
             style="fill:none;stroke:#000000;stroke-width:10"
             id="circle3640"
             cx="234"
             cy="450.36218"
             r="41" />
          <path
             inkscape:connector-curvature="0"
             style="fill:none;stroke:#000000;stroke-width:8.41870022;stroke-linecap:round;stroke-linejoin:round"
             d="M 234,511.91 V 650.82 Z"
             id="path3642" />
          <path
             inkscape:connector-curvature="0"
             style="fill:none;stroke:#000000;stroke-width:10;stroke-linecap:round;stroke-linejoin:round"
             d="m 244,667.36 47,72 z"
             id="path3644" />
          <path
             inkscape:connector-curvature="0"
             style="fill:none;stroke:#000000;stroke-width:10;stroke-linecap:round;stroke-linejoin:round"
             d="m 222.5,666.36 -47,72 z"
             id="path3646" />
          <path
             inkscape:connector-curvature="0"
             style="fill:none;stroke:#000000;stroke-width:10;stroke-linecap:round;stroke-linejoin:round"
             d="m 211.5,520.36 -47,72 z"
             id="path3648" />
          <path
             inkscape:connector-curvature="0"
             style="fill:none;stroke:#000000;stroke-width:10;stroke-linecap:round;stroke-linejoin:round"
             d="m 257.5,514.36 47,72 z"
             id="path3650" />
        </g>
      </g>
    </g>
    <g
       id="layer1-9-6"
       inkscape:label="Layer 1"
       transform="translate(-675.06124,244.63229)">
      <g
         id="Layer_1-2"
         transform="translate(-244.49951,955.86218)" />
    </g>
    <g
       id="layer1-9-3"
       inkscape:label="Layer 1"
       transform="translate(-3490.0184,257.16314)">
      <g
         id="Layer_1-6"
         transform="translate(-244.49951,955.86218)" />
    </g>
    <g
       id="layer1-9-7"
       inkscape:label="Layer 1"
       transform="translate(104.24569,117.84657)">
      <g
         id="Layer_1-9"
         transform="translate(-244.49951,955.86218)" />
    </g>
    <g
       id="g3370">
      <rect
         id="rect3725"
         height="79.304771"
         width="132.17462"
         x="251.72673"
         y="813.56116"
         style="fill:none;stroke:#000000;stroke-width:4;stroke-miterlimit:4;stroke-dasharray:none" />
      <g
         id="g4438"
         transform="matrix(0.33543095,0,0,0.33543095,242.34208,545.50188)">
        <path
           style="fill:#000000;stroke:#000000;stroke-width:0.61348784"
           inkscape:connector-curvature="0"
           d="m 160.0977,818.83779 c 1.79138,-1.79752 4.44165,-1.04907 6.65634,-0.80975 13.03662,1.58894 26.11618,5.45391 36.80314,13.32496 8.63177,-4.01221 18.36169,-5.89562 27.83394,-4.46006 4.98152,0.64416 9.75446,2.31899 14.36175,4.26374 10.72377,-7.75448 23.76652,-11.60719 36.78473,-13.15318 2.07359,-0.21472 4.53367,-0.89569 6.26371,0.68711 1.87727,1.44783 1.73004,4.00608 1.7055,6.12874 -0.19632,12.57043 -2.60733,25.60085 -9.87102,36.11609 13.11023,16.57025 23.09168,35.37371 31.40444,54.72925 4.17785,1.99384 8.65018,3.47234 12.75441,5.6993 10.15322,5.16557 19.87087,11.90167 26.5947,21.25736 3.34351,4.86495 6.31892,10.52131 5.7177,16.61938 7.04898,0.2638 14.11636,-0.0184 21.16533,0.12883 1.12269,-0.23312 1.22084,0.92637 1.52145,1.69936 -1.06133,0.27607 -2.1472,0.42945 -3.23921,0.40491 -5.54593,-0.0491 -11.08573,-0.006 -16.62552,-0.0368 -0.85889,0.1473 -1.99997,-0.33129 -2.65641,0.38649 -0.21472,2.73003 -0.1411,5.58274 -1.28218,8.14099 -0.80367,1.69322 -1.92636,3.20854 -2.84045,4.84655 7.9692,0.90796 15.93841,1.86501 23.89535,2.93861 -0.0123,0.42331 -0.0307,1.26992 -0.0368,1.69323 -8.41092,-0.26994 -16.71754,-1.97544 -25.09165,-2.73003 -3.53369,6.56432 -9.67471,11.098 -15.75437,15.13475 -13.18999,8.40478 -28.15296,13.58258 -43.23862,17.40468 -18.41077,4.5705 -37.33687,6.8281 -56.27524,7.6072 -21.7052,0.73 -43.51469,-0.546 -64.90088,-4.3987 -19.20217,-3.595 -38.40433,-8.9508 -55.39181,-18.83407 -6.71156,-4.16558 -13.62557,-8.75447 -17.7298,-15.69915 -5.141028,0.42331 -10.232977,1.49691 -15.404679,1.56439 0.02454,-0.44784 0.06748,-1.34967 0.09202,-1.80365 4.595024,-0.68711 9.245261,-0.99385 13.83415,-1.76071 -1.404887,-2.32512 -3.202406,-4.47233 -3.920187,-7.14713 -0.889557,-2.34353 -0.717781,-4.8711 -0.711646,-7.31891 -7.153268,-0.0613 -14.31267,0.0491 -21.465938,-0.043 -1.26992,0.25153 -1.257651,-2.26377 0,-2.02451 7.165537,-0.14723 14.331075,0.0123 21.496613,-0.0675 -0.638028,-7.28817 3.349643,-13.9139 7.601117,-19.47824 9.52747,-11.77277 23.10395,-19.49051 37.03626,-24.9076 0.76686,-0.20859 1.25765,-0.83435 1.50304,-1.55826 7.82197,-18.55801 17.80342,-36.22646 30.03637,-52.23849 -7.41707,-10.0428 -9.74219,-22.87083 -10.13482,-35.0915 0.0982,-2.41727 -0.58895,-5.42949 1.50918,-7.21474 m 2.95701,3.42939 c -0.0614,3.94473 0.20245,7.87719 0.66257,11.79737 1.25765,9.68084 3.96926,19.86474 11.03051,26.9996 -6.74837,8.1778 -12.6992,16.99362 -17.9936,26.17753 -5.34348,9.35569 -10.28819,18.97518 -14.25746,29.0057 25.50883,-8.50907 53.34277,-9.16551 79.47735,-3.184 1.95089,0.49693 3.99381,0.46012 5.9631,0.0491 26.43519,-5.11035 54.23846,-4.02448 79.88225,4.42938 -8.46,-20.31872 -19.26352,-39.78468 -33.17128,-56.90099 4.33122,-4.25761 6.81585,-9.98145 8.52748,-15.71756 2.06745,-7.35572 2.99995,-15.02432 2.73615,-22.66224 -14.06727,1.22697 -28.44743,5.19011 -39.58223,14.22065 -5.72384,-2.75456 -11.82191,-4.97539 -18.20832,-5.40483 -8.72993,-0.83435 -17.36784,1.69936 -25.11619,5.5582 -11.26364,-9.06735 -25.72355,-13.23293 -39.95033,-14.36789 m -24.56405,97.04151 c -11.53971,4.46619 -22.67451,10.63788 -31.41058,19.51504 -5.40483,5.57661 -10.018257,12.5581 -10.576531,20.50277 26.054831,0.0429 52.115791,-0.0184 78.176761,0.0307 1.50918,-0.6503 2.11653,2.08586 0.57054,2.05519 -26.25115,0.092 -52.50229,-0.006 -78.753436,0.0491 0.122698,5.07355 2.312849,9.80967 5.196246,13.8955 25.00576,-2.88952 49.96858,-6.1042 74.96208,-9.07962 3.66252,-0.38036 7.3005,-1.17176 10.99983,-1.12881 -0.0307,0.46011 -0.0982,1.38642 -0.12883,1.84653 -28.06707,3.46621 -56.13414,6.89567 -84.20734,10.28819 5.58274,6.65021 13.05502,11.41088 20.68681,15.38628 8.76674,4.49073 18.07949,7.80968 27.53333,10.50898 23.66836,6.638 48.31217,9.1656 72.83941,9.3803 19.37395,-0.1043 38.7847,-1.6933 57.79669,-5.5214 16.20835,-3.3926 32.33694,-8.12871 46.88887,-16.19608 6.76064,-3.89564 13.43539,-8.42938 18.16538,-14.74211 -24.96282,-2.98768 -49.92564,-6.04285 -74.88232,-9.10416 -0.0245,-0.44784 -0.0736,-1.33127 -0.0982,-1.77911 3.65639,-0.22086 7.25142,0.71778 10.87714,1.04293 21.91992,2.56438 43.80303,5.46004 65.73522,7.89559 2.34966,-3.84657 4.14717,-8.11031 4.3619,-12.65626 -26.60084,-0.14723 -53.2078,0.0429 -79.80864,-0.0982 -0.0123,-0.6687 -0.0123,-1.33126 -0.006,-1.9877 26.60697,-0.20245 53.22007,0.0307 79.82704,-0.11656 -0.92637,-9.63176 -7.38026,-17.60096 -14.53967,-23.60701 -7.92012,-6.56432 -17.15312,-11.39247 -26.7358,-15.03659 -24.88306,-9.32501 -52.28756,-11.20228 -78.42214,-6.93854 6.15941,0.74845 12.5765,1.19016 18.22058,4.02448 1.40489,0.76072 3.27603,2.04905 2.60119,3.91405 -1.09814,2.92634 -3.33124,5.23305 -5.53366,7.38026 -6.2453,5.79132 -14.34948,9.88329 -22.95671,10.28199 -0.0245,11.22069 -0.0368,22.44752 0.006,33.67435 7.92627,4.93857 17.36171,6.90174 26.61311,6.84039 0.006,0.35582 0.006,1.0552 0.0123,1.41102 -9.58882,0.55214 -19.2942,-1.88341 -27.57628,-6.71156 -1.9693,0.67484 -3.5521,2.18402 -5.47845,2.98769 -6.86493,3.36191 -14.65622,3.9754 -22.18372,3.90178 -0.15951,-0.5276 -0.30674,-1.04906 -0.45398,-1.55826 9.33729,0.092 18.79727,-1.93862 26.84623,-6.79131 0.21472,-11.26977 0.11043,-22.53954 0.0552,-33.80931 -9.38636,-0.37423 -18.14083,-5.24532 -24.57019,-11.90167 -1.71163,-1.95702 -3.65025,-4.06129 -4.03675,-6.72996 0.49079,-1.79752 2.33739,-2.68707 3.87725,-3.44166 5.74224,-2.38647 11.99982,-2.908 18.11016,-3.59504 -26.03643,-5.23293 -53.67405,-3.71762 -78.60006,5.71783 z"
           id="path4440" />
        <path
           style="fill:#ffffff;stroke:#000000;stroke-width:0.61348784"
           inkscape:connector-curvature="0"
           d="m 163.05471,822.26718 c 14.22678,1.13496 28.68669,5.30054 39.95033,14.36789 7.74835,-3.85884 16.38626,-6.39255 25.11619,-5.5582 6.38641,0.42944 12.48448,2.65027 18.20832,5.40483 11.1348,-9.03054 25.51496,-12.99368 39.58223,-14.22065 0.2638,7.63792 -0.6687,15.30652 -2.73615,22.66224 -1.71163,5.73611 -4.19626,11.45995 -8.52748,15.71756 13.90776,17.11631 24.71128,36.58227 33.17128,56.90099 -25.64379,-8.45386 -53.44706,-9.53973 -79.88225,-4.42938 -1.96929,0.41104 -4.01221,0.44785 -5.9631,-0.0491 -26.13458,-5.98151 -53.96852,-5.32507 -79.47735,3.184 3.96927,-10.03052 8.91398,-19.65001 14.25746,-29.0057 5.2944,-9.18391 11.24523,-17.99973 17.9936,-26.17753 -7.06125,-7.13486 -9.77286,-17.31876 -11.03051,-26.9996 -0.46012,-3.92018 -0.72392,-7.85264 -0.66257,-11.79737 m 91.73483,19.80952 c 5.14717,4.74227 10.60721,9.13484 15.78505,13.84642 1.20243,-0.17177 1.95089,-1.53985 2.7791,-2.36806 4.31282,-5.87108 5.26372,-13.48446 5.19624,-20.58251 -8.53362,0.79139 -17.18993,3.38645 -23.76039,9.10415 m -84.40365,-8.99986 c 0.16564,8.17779 1.30673,17.65004 8.04283,23.19597 5.46004,-4.56435 10.93848,-9.1471 16.14086,-14.00592 -6.69929,-5.75452 -15.45376,-8.67472 -24.18369,-9.19005 m 22.38004,47.84591 c -2.93248,1.85887 -3.82817,5.65023 -3.84044,8.91398 0.18405,2.93247 1.02453,6.20236 3.51529,8.03056 1.79138,1.28219 4.3803,0.53373 5.5582,-1.23305 2.78523,-3.85271 2.87112,-9.38637 0.55827,-13.47833 -1.07974,-1.98163 -3.61958,-3.55216 -5.79132,-2.23316 m 60.67394,-0.092 c -3.0429,1.80365 -4.03675,5.71771 -3.95086,9.04281 0.0982,3.09198 1.11655,6.69315 4.01221,8.28209 2.15948,1.12268 4.60116,-0.44171 5.61955,-2.39261 2.14721,-3.90178 2.11653,-9.01213 -0.18405,-12.8403 -1.06133,-1.84046 -3.4478,-3.19627 -5.49685,-2.09199 z"
           id="path4442" />
        <path
           style="fill:#000000;stroke:#000000;stroke-width:0.61348784"
           inkscape:connector-curvature="0"
           d="m 254.78954,842.0767 c 6.57046,-5.71764 15.22677,-8.31276 23.76039,-9.10415 0.0675,7.09805 -0.88342,14.71143 -5.19624,20.58251 -0.82821,0.82821 -1.57667,2.19629 -2.7791,2.36806 -5.17784,-4.71158 -10.63788,-9.10415 -15.78505,-13.84642 m 7.28824,0.41718 c 2.80364,2.43554 5.60114,4.87103 8.44773,7.25136 1.95089,-3.52142 2.99382,-7.50295 3.29443,-11.50897 -4.08583,0.82207 -8.1962,1.99384 -11.74216,4.25761 z"
           id="path4444" />
        <path
           style="fill:#000000;stroke:#000000;stroke-width:0.61348784"
           inkscape:connector-curvature="0"
           d="m 170.38589,833.07684 c 8.72993,0.51533 17.4844,3.43553 24.18369,9.19005 -5.20238,4.85882 -10.68082,9.44157 -16.14086,14.00592 -6.7361,-5.54593 -7.87719,-15.01818 -8.04283,-23.19597 m 4.84655,5.1717 c 0.33742,4.11037 1.45397,8.15325 3.38646,11.80964 3.05517,-2.28831 5.86494,-4.88336 8.69312,-7.44161 -3.7116,-2.20855 -7.84651,-3.59503 -12.07958,-4.36803 z"
           id="path4446" />
        <path
           style="fill:#ffffff;stroke:#000000;stroke-width:0.61348784"
           inkscape:connector-curvature="0"
           d="m 175.23244,838.24854 c 4.23307,0.773 8.36798,2.15948 12.07958,4.36803 -2.82818,2.55825 -5.63795,5.1533 -8.69312,7.44161 -1.93249,-3.65639 -3.04904,-7.69927 -3.38646,-11.80964 z"
           id="path4448" />
        <path
           style="fill:#ffffff;stroke:#000000;stroke-width:0.61348784"
           inkscape:connector-curvature="0"
           d="m 262.07778,842.49388 c 3.54596,-2.26377 7.65633,-3.43554 11.74216,-4.25761 -0.30061,4.00608 -1.34354,7.98761 -3.29443,11.50897 -2.84659,-2.38027 -5.64409,-4.81582 -8.44773,-7.25136 z"
           id="path4450" />
        <path
           style="fill:#000000;stroke:#000000;stroke-width:0.61348784"
           inkscape:connector-curvature="0"
           d="m 192.76593,880.92275 c 2.17174,-1.319 4.71158,0.25153 5.79132,2.2331 2.31285,4.09196 2.22696,9.62562 -0.55827,13.47833 -1.1779,1.76678 -3.76682,2.5153 -5.5582,1.23305 -2.49076,-1.8282 -3.33124,-5.09809 -3.51529,-8.03056 0.0123,-3.26369 0.90796,-7.05505 3.84044,-8.91392 z"
           id="path4452" />
        <path
           style="fill:#000000;stroke:#000000;stroke-width:0.61348784"
           inkscape:connector-curvature="0"
           d="m 253.43987,880.83073 c 2.04905,-1.10428 4.43552,0.25153 5.49685,2.09199 2.30058,3.82817 2.33126,8.93852 0.18405,12.8403 -1.01839,1.9509 -3.46007,3.51529 -5.61955,2.39261 -2.89566,-1.58894 -3.91405,-5.19011 -4.01221,-8.28209 -0.0859,-3.3251 0.90796,-7.23916 3.95086,-9.04281 z"
           id="path4454" />
        <path
           style="fill:#ffffff;stroke:#000000;stroke-width:0.61348784"
           inkscape:connector-curvature="0"
           d="m 138.49066,919.30869 c 24.92601,-9.43545 52.56363,-10.95076 78.60006,-5.71771 -6.11034,0.68711 -12.36792,1.20857 -18.11016,3.59504 -1.53986,0.75459 -3.38646,1.64415 -3.87725,3.44167 0.3865,2.66867 2.32512,4.77293 4.03675,6.72996 6.42936,6.65634 15.18383,11.52743 24.57019,11.90166 0.0552,11.26977 0.15951,22.53954 -0.0552,33.80931 -8.04896,4.85269 -17.50894,6.88334 -26.84623,6.79131 0.14724,0.5092 0.29447,1.03066 0.45398,1.55826 7.5275,0.0736 15.31879,-0.53987 22.18372,-3.90178 1.92635,-0.80367 3.50915,-2.31285 5.47845,-2.98768 8.28208,4.82814 17.98746,7.26369 27.57628,6.71155 -0.006,-0.35582 -0.006,-1.0552 -0.0123,-1.41102 -9.2514,0.0614 -18.68684,-1.90181 -26.61311,-6.84039 -0.0429,-11.22683 -0.0307,-22.45365 -0.006,-33.67435 8.60723,-0.39876 16.71141,-4.49067 22.95671,-10.28199 2.20242,-2.14721 4.43552,-4.45392 5.53366,-7.38026 0.67484,-1.865 -1.1963,-3.15333 -2.60119,-3.91405 -5.64408,-2.83431 -12.06117,-3.27603 -18.22058,-4.02448 26.13458,-4.26374 53.53908,-2.38647 78.42214,6.93855 9.58268,3.64411 18.81568,8.47226 26.7358,15.03658 7.15941,6.00605 13.6133,13.97526 14.53967,23.60701 -26.60697,0.14724 -53.22007,-0.0859 -79.82704,0.11657 -0.006,0.65643 -0.006,1.319 0.006,1.9877 26.60084,0.1411 53.2078,-0.0491 79.80864,0.0982 -0.21473,4.54594 -2.01224,8.80968 -4.3619,12.65625 -21.93219,-2.43555 -43.8153,-5.33121 -65.73522,-7.89559 -3.62572,-0.32515 -7.22075,-1.26378 -10.87714,-1.04293 0.0245,0.44785 0.0736,1.33127 0.0982,1.77912 24.95668,3.06136 49.9195,6.11647 74.88232,9.10416 -4.72999,6.31278 -11.40474,10.84646 -18.16538,14.74211 -14.55193,8.06736 -30.68052,12.80343 -46.88887,16.19603 -19.01199,3.8282 -38.42274,5.4171 -57.79669,5.5214 -24.52724,-0.2147 -49.17105,-2.7423 -72.83941,-9.3802 -9.45384,-2.6994 -18.76659,-6.01831 -27.53333,-10.50904 -7.63179,-3.9754 -15.10407,-8.73607 -20.68681,-15.38627 28.0732,-3.39259 56.14027,-6.82199 84.20734,-10.28819 0.0307,-0.46012 0.0982,-1.38643 0.12883,-1.84654 -3.69933,-0.043 -7.33731,0.74845 -10.99983,1.12882 -24.9935,2.97541 -49.95632,6.19009 -74.96208,9.07962 -2.883394,-4.08583 -5.073545,-8.82196 -5.196243,-13.8955 26.251143,-0.0552 52.502283,0.0429 78.753433,-0.0491 1.54599,0.0307 0.93864,-2.70548 -0.57054,-2.05519 -26.06097,-0.0491 -52.12193,0.0123 -78.176758,-0.0307 0.558274,-7.94467 5.171698,-14.92616 10.576528,-20.50276 8.73607,-8.87729 19.87087,-15.04898 31.41058,-19.51517 z"
           id="path4456" />
      </g>
    </g>
  </g>
</svg>
