<?xml version="1.0" encoding="UTF-8" standalone="no"?>
<!-- Created with Inkscape (http://www.inkscape.org/) -->

<svg
   xmlns:dc="http://purl.org/dc/elements/1.1/"
   xmlns:cc="http://creativecommons.org/ns#"
   xmlns:rdf="http://www.w3.org/1999/02/22-rdf-syntax-ns#"
   xmlns:svg="http://www.w3.org/2000/svg"
   xmlns="http://www.w3.org/2000/svg"
   xmlns:sodipodi="http://sodipodi.sourceforge.net/DTD/sodipodi-0.dtd"
   xmlns:inkscape="http://www.inkscape.org/namespaces/inkscape"
   width="480"
   height="288"
   id="svg2"
   version="1.1"
   inkscape:version="0.92.1 r15371"
   sodipodi:docname="aniyonega-flag-blind.svg"
   viewBox="0 0 450 270"
   inkscape:export-filename="aniyonega-flag-blind.png"
   inkscape:export-xdpi="300"
   inkscape:export-ydpi="300">
  <defs
     id="defs4" />
  <sodipodi:namedview
     id="base"
     pagecolor="#ffffff"
     bordercolor="#666666"
     borderopacity="1.0"
     inkscape:pageopacity="0.0"
     inkscape:pageshadow="2"
     inkscape:zoom="2.8"
     inkscape:cx="225"
     inkscape:cy="135"
     inkscape:document-units="px"
     inkscape:current-layer="layer1"
     showgrid="false"
     units="px"
     inkscape:window-width="1920"
     inkscape:window-height="1003"
     inkscape:window-x="0"
     inkscape:window-y="25"
     inkscape:window-maximized="1"
     borderlayer="true" />
  <metadata
     id="metadata7">
    <rdf:RDF>
      <cc:Work
         rdf:about="">
        <dc:format>image/svg+xml</dc:format>
        <dc:type
           rdf:resource="http://purl.org/dc/dcmitype/StillImage" />
        <dc:title />
      </cc:Work>
    </rdf:RDF>
  </metadata>
  <g
     inkscape:label="Layer 1"
     inkscape:groupmode="layer"
     id="layer1"
     transform="translate(0,-782.36218)">
    <rect
       style="opacity:1;fill:#ffffff;fill-opacity:1;fill-rule:nonzero;stroke:#000000;stroke-width:4.04577875;stroke-linecap:round;stroke-linejoin:round;stroke-miterlimit:4;stroke-dasharray:none;stroke-dashoffset:0;stroke-opacity:1"
       id="rect3749"
       width="445.95422"
       height="265.95422"
       x="2.0228882"
       y="784.38507" />
    <rect
       style="fill:#ffffff;stroke:#000000;stroke-width:4;stroke-miterlimit:4;stroke-dasharray:none"
       y="813.56116"
       x="251.72673"
       width="132.17462"
       height="79.304771"
       id="rect3725" />
    <g
       id="layer1-9"
       inkscape:label="Layer 1"
       transform="translate(-35.756307,507.10901)">
      <g
         id="Layer_1"
         transform="translate(-244.49951,955.86218)" />
    </g>
    <g
       id="g3744"
       transform="translate(-44)">
      <g
         id="g3703">
        <g
           transform="matrix(0.52384991,0,0,0.52384991,4.5559871,790.14432)"
           inkscape:label="Layer 1"
           id="layer1-7">
          <g
             transform="translate(15.143,-322.57)"
             id="g3982">
            <circle
               style="fill:none;stroke:#000000;stroke-width:10"
               id="path2985"
               cx="234"
               cy="450.36218"
               r="41" />
            <path
               inkscape:connector-curvature="0"
               style="fill:none;stroke:#000000;stroke-width:8.41870022;stroke-linecap:round;stroke-linejoin:round"
               d="M 234,511.91 V 650.82 Z"
               id="path3755" />
            <path
               inkscape:connector-curvature="0"
               style="fill:none;stroke:#000000;stroke-width:10;stroke-linecap:round;stroke-linejoin:round"
               d="m 244,667.36 47,72 z"
               id="path3937" />
            <path
               inkscape:connector-curvature="0"
               style="fill:none;stroke:#000000;stroke-width:10;stroke-linecap:round;stroke-linejoin:round"
               d="m 222.5,666.36 -47,72 z"
               id="path3937-6" />
            <path
               inkscape:connector-curvature="0"
               style="fill:none;stroke:#000000;stroke-width:10;stroke-linecap:round;stroke-linejoin:round"
               d="m 211.5,520.36 -47,72 z"
               id="path3937-6-8" />
            <path
               inkscape:connector-curvature="0"
               style="fill:none;stroke:#000000;stroke-width:10;stroke-linecap:round;stroke-linejoin:round"
               d="m 257.5,514.36 47,72 z"
               id="path3937-6-7" />
          </g>
        </g>
        <g
           id="g3719"
           transform="matrix(0.16618972,0,0,0.16618972,255.21293,731.30274)"
           style="fill:#000000">
          <path
             inkscape:connector-curvature="0"
             id="path3463"
             style="fill:#000000;fill-rule:evenodd;stroke:#000000;stroke-width:2.59179997"
             d="m -870.5881,749.20689 c -1.29,-1.61 -3.94,-6.76 -5.91,-11.45 -3.1,-7.39 -3.64,-9.64 -4.06,-16.96 -0.4,-6.98 -0.22,-9.02 1.07,-11.87 l 1.55,-3.45 h 28.66 c 26.19,0 29.2,-0.15 35.07,-1.77 15.98,-4.39 26.31,-5.27 71.22,-6.02 40,-0.67 50.2,-1.21 63.49,-3.32 3.09,-0.49 13.02,-1.11 22.07,-1.39 20.82,-0.62 25.24,-1.35 31.66,-5.17 4.8,-2.86 5.31,-2.98 8.73,-2.08 3.11,0.82 4.99,0.63 12.99,-1.31 11.34,-2.75 11.74,-2.75 18.45,-0.35 3.68,1.32 5.5,2.47 5.83,3.67 0.81,2.99 -4.23,11.97 -8.8,15.69 -2.26,1.83 -6.82,6.09 -10.15,9.48 l -6.05,6.15 -10.8,0.58 c -13.03,0.7 -28.51,2.54 -41.17,4.89 -5.15,0.95 -16.43,2.7 -25.07,3.88 -15.78,2.16 -25.35,4.08 -46.93,9.44 -17.26,4.29 -19.52,4.64 -39.31,6.01 -9.98,0.7 -21.83,2.03 -26.35,2.96 -12.65,2.62 -22.07,3.52 -46.33,4.44 -12.29,0.46 -23.52,0.85 -24.94,0.86 -1.92,0.01 -3.2,-0.74 -4.92,-2.91 z" />
          <path
             inkscape:connector-curvature="0"
             id="path3465"
             style="fill:#000000;fill-rule:evenodd;stroke:#000000;stroke-width:2.59179997"
             d="m -566.8781,671.29689 c 0.29,-0.92 1.28,-5.37 2.21,-9.88 3.09,-15.06 7.76,-31.39 9.47,-33.1 1.76,-1.77 0.95,-2.04 27.97,9.52 1.79,0.76 3.69,1.92 4.24,2.58 1.67,2.01 -2.84,5.68 -14.13,11.51 -5.7,2.95 -12.46,7.07 -15.02,9.15 -2.56,2.09 -5,3.8 -5.43,3.8 -0.42,0 -1.26,0.59 -1.87,1.32 -0.61,0.74 -2.65,2.56 -4.53,4.05 -2.76,2.19 -3.33,2.39 -2.91,1.05 z" />
          <path
             inkscape:connector-curvature="0"
             id="path3467"
             style="fill:#000000;fill-rule:evenodd;stroke:#000000;stroke-width:2.59179997"
             d="m -575.0181,686.62689 c 0,-1.21 -0.07,-7.45 6.58,-12.78 6.2,-4.98 16.08,-6.71 31.06,-10.23 16.53,-3.88 19.47,-4.28 23.62,-3.18 7.43,1.97 11.11,4.22 11.7,7.16 1.1,5.51 0.61,9.37 -1.46,11.44 -1.97,1.98 -2.17,1.99 -31.31,2.48 -23.65,0.4 -30.07,0.76 -33.11,1.86 -4.42,1.6 -4.43,1.6 -4.43,0.59 z" />
        </g>
      </g>
      <g
         transform="translate(86)"
         id="g3717">
        <g
           id="g3720"
           inkscape:label="Layer 1"
           transform="matrix(0.52384991,0,0,0.52384991,4.5559871,790.14432)">
          <g
             id="g3722"
             transform="translate(15.143,-322.57)">
            <circle
               r="41"
               cy="450.36218"
               cx="234"
               id="circle3724"
               style="fill:none;stroke:#000000;stroke-width:10" />
            <path
               id="path3726"
               d="M 234,511.91 V 650.82 Z"
               style="fill:none;stroke:#000000;stroke-width:8.41870022;stroke-linecap:round;stroke-linejoin:round"
               inkscape:connector-curvature="0" />
            <path
               id="path3728"
               d="m 244,667.36 47,72 z"
               style="fill:none;stroke:#000000;stroke-width:10;stroke-linecap:round;stroke-linejoin:round"
               inkscape:connector-curvature="0" />
            <path
               id="path3730"
               d="m 222.5,666.36 -47,72 z"
               style="fill:none;stroke:#000000;stroke-width:10;stroke-linecap:round;stroke-linejoin:round"
               inkscape:connector-curvature="0" />
            <path
               id="path3732"
               d="m 211.5,520.36 -47,72 z"
               style="fill:none;stroke:#000000;stroke-width:10;stroke-linecap:round;stroke-linejoin:round"
               inkscape:connector-curvature="0" />
            <path
               id="path3734"
               d="m 257.5,514.36 47,72 z"
               style="fill:none;stroke:#000000;stroke-width:10;stroke-linecap:round;stroke-linejoin:round"
               inkscape:connector-curvature="0" />
          </g>
        </g>
        <g
           style="fill:#000000"
           transform="matrix(0.16618972,0,0,0.16618972,255.21293,731.30274)"
           id="g3736">
          <path
             d="m -870.5881,749.20689 c -1.29,-1.61 -3.94,-6.76 -5.91,-11.45 -3.1,-7.39 -3.64,-9.64 -4.06,-16.96 -0.4,-6.98 -0.22,-9.02 1.07,-11.87 l 1.55,-3.45 h 28.66 c 26.19,0 29.2,-0.15 35.07,-1.77 15.98,-4.39 26.31,-5.27 71.22,-6.02 40,-0.67 50.2,-1.21 63.49,-3.32 3.09,-0.49 13.02,-1.11 22.07,-1.39 20.82,-0.62 25.24,-1.35 31.66,-5.17 4.8,-2.86 5.31,-2.98 8.73,-2.08 3.11,0.82 4.99,0.63 12.99,-1.31 11.34,-2.75 11.74,-2.75 18.45,-0.35 3.68,1.32 5.5,2.47 5.83,3.67 0.81,2.99 -4.23,11.97 -8.8,15.69 -2.26,1.83 -6.82,6.09 -10.15,9.48 l -6.05,6.15 -10.8,0.58 c -13.03,0.7 -28.51,2.54 -41.17,4.89 -5.15,0.95 -16.43,2.7 -25.07,3.88 -15.78,2.16 -25.35,4.08 -46.93,9.44 -17.26,4.29 -19.52,4.64 -39.31,6.01 -9.98,0.7 -21.83,2.03 -26.35,2.96 -12.65,2.62 -22.07,3.52 -46.33,4.44 -12.29,0.46 -23.52,0.85 -24.94,0.86 -1.92,0.01 -3.2,-0.74 -4.92,-2.91 z"
             style="fill:#000000;fill-rule:evenodd;stroke:#000000;stroke-width:2.59179997"
             id="path3738"
             inkscape:connector-curvature="0" />
          <path
             d="m -566.8781,671.29689 c 0.29,-0.92 1.28,-5.37 2.21,-9.88 3.09,-15.06 7.76,-31.39 9.47,-33.1 1.76,-1.77 0.95,-2.04 27.97,9.52 1.79,0.76 3.69,1.92 4.24,2.58 1.67,2.01 -2.84,5.68 -14.13,11.51 -5.7,2.95 -12.46,7.07 -15.02,9.15 -2.56,2.09 -5,3.8 -5.43,3.8 -0.42,0 -1.26,0.59 -1.87,1.32 -0.61,0.74 -2.65,2.56 -4.53,4.05 -2.76,2.19 -3.33,2.39 -2.91,1.05 z"
             style="fill:#000000;fill-rule:evenodd;stroke:#000000;stroke-width:2.59179997"
             id="path3740"
             inkscape:connector-curvature="0" />
          <path
             d="m -575.0181,686.62689 c 0,-1.21 -0.07,-7.45 6.58,-12.78 6.2,-4.98 16.08,-6.71 31.06,-10.23 16.53,-3.88 19.47,-4.28 23.62,-3.18 7.43,1.97 11.11,4.22 11.7,7.16 1.1,5.51 0.61,9.37 -1.46,11.44 -1.97,1.98 -2.17,1.99 -31.31,2.48 -23.65,0.4 -30.07,0.76 -33.11,1.86 -4.42,1.6 -4.43,1.6 -4.43,0.59 z"
             style="fill:#000000;fill-rule:evenodd;stroke:#000000;stroke-width:2.59179997"
             id="path3742"
             inkscape:connector-curvature="0" />
        </g>
      </g>
    </g>
  </g>
</svg>
