<?xml version="1.0" encoding="UTF-8" standalone="no"?>
<!-- Created with Inkscape (http://www.inkscape.org/) -->

<svg
   width="480"
   height="288"
   id="svg2"
   version="1.1"
   inkscape:version="1.1.2 (0a00cf5339, 2022-02-04)"
   sodipodi:docname="awahaya-flag.svg"
   viewBox="0 0 450 270"
   inkscape:export-filename="awahaya-flag.png"
   inkscape:export-xdpi="300"
   inkscape:export-ydpi="300"
   xmlns:inkscape="http://www.inkscape.org/namespaces/inkscape"
   xmlns:sodipodi="http://sodipodi.sourceforge.net/DTD/sodipodi-0.dtd"
   xmlns="http://www.w3.org/2000/svg"
   xmlns:svg="http://www.w3.org/2000/svg"
   xmlns:rdf="http://www.w3.org/1999/02/22-rdf-syntax-ns#"
   xmlns:cc="http://creativecommons.org/ns#"
   xmlns:dc="http://purl.org/dc/elements/1.1/">
  <defs
     id="defs4" />
  <sodipodi:namedview
     id="base"
     pagecolor="#ffffff"
     bordercolor="#666666"
     borderopacity="1.0"
     inkscape:pageopacity="0.0"
     inkscape:pageshadow="2"
     inkscape:zoom="2.7222222"
     inkscape:cx="239.87755"
     inkscape:cy="144"
     inkscape:document-units="px"
     inkscape:current-layer="layer1"
     showgrid="false"
     units="px"
     inkscape:window-width="1920"
     inkscape:window-height="1003"
     inkscape:window-x="0"
     inkscape:window-y="25"
     inkscape:window-maximized="1"
     borderlayer="true"
     showguides="false"
     inkscape:pagecheckerboard="0" />
  <metadata
     id="metadata7">
    <rdf:RDF>
      <cc:Work
         rdf:about="">
        <dc:format>image/svg+xml</dc:format>
        <dc:type
           rdf:resource="http://purl.org/dc/dcmitype/StillImage" />
      </cc:Work>
    </rdf:RDF>
  </metadata>
  <g
     inkscape:label="Layer 1"
     inkscape:groupmode="layer"
     id="layer1"
     transform="translate(0,-782.36218)">
    <rect
       style="opacity:1;fill:#ffffff;fill-opacity:1;fill-rule:nonzero;stroke:#000000;stroke-width:4.04577875;stroke-linecap:round;stroke-linejoin:round;stroke-miterlimit:4;stroke-dasharray:none;stroke-dashoffset:0;stroke-opacity:1"
       id="rect3749"
       width="445.95422"
       height="265.95422"
       x="2.0228882"
       y="784.38507" />
    <g
       id="layer1-9"
       inkscape:label="Layer 1"
       transform="translate(-35.756307,507.10901)">
      <g
         id="Layer_1"
         transform="translate(-244.49951,955.86218)" />
    </g>
    <g
       id="layer1-7"
       inkscape:label="Layer 1"
       transform="matrix(0.52384991,0,0,0.52384991,-39.444013,790.14432)">
      <g
         id="g3982"
         transform="translate(15.143,-322.57)">
        <circle
           r="41"
           cy="450.36218"
           cx="234"
           id="path2985"
           style="fill:none;stroke:#000000;stroke-width:10" />
        <path
           id="path3755"
           d="M 234,511.91 V 650.82 Z"
           style="fill:none;stroke:#000000;stroke-width:8.4187;stroke-linecap:round;stroke-linejoin:round"
           inkscape:connector-curvature="0" />
        <path
           id="path3937"
           d="m 244,667.36 47,72 z"
           style="fill:none;stroke:#000000;stroke-width:10;stroke-linecap:round;stroke-linejoin:round"
           inkscape:connector-curvature="0" />
        <path
           id="path3937-6"
           d="m 222.5,666.36 -47,72 z"
           style="fill:none;stroke:#000000;stroke-width:10;stroke-linecap:round;stroke-linejoin:round"
           inkscape:connector-curvature="0" />
        <path
           id="path3937-6-8"
           d="m 211.5,520.36 -47,72 z"
           style="fill:none;stroke:#000000;stroke-width:10;stroke-linecap:round;stroke-linejoin:round"
           inkscape:connector-curvature="0" />
        <path
           id="path3937-6-7"
           d="m 257.5,514.36 47,72 z"
           style="fill:none;stroke:#000000;stroke-width:10;stroke-linecap:round;stroke-linejoin:round"
           inkscape:connector-curvature="0" />
      </g>
    </g>
    <g
       id="layer1-9-6"
       inkscape:label="Layer 1"
       transform="translate(-675.06124,244.63229)">
      <g
         id="Layer_1-2"
         transform="translate(-244.49951,955.86218)" />
    </g>
    <g
       id="layer1-9-3"
       inkscape:label="Layer 1"
       transform="translate(-3490.0184,257.16314)">
      <g
         id="Layer_1-6"
         transform="translate(-244.49951,955.86218)" />
    </g>
    <g
       id="g3361">
      <rect
         id="rect3725"
         height="79.304771"
         width="132.17462"
         x="251.72673"
         y="813.56116"
         style="fill:none;stroke:#000000;stroke-width:4;stroke-miterlimit:4;stroke-dasharray:none" />
      <g
         transform="matrix(0.26633453,0,0,0.26633453,284.59291,608.88832)"
         id="g3487">
        <path
           d="m 175.94768,792.36217 c -0.82366,0 -5.21364,5.97785 -9.73949,13.26336 -12.19347,19.61484 -32.69988,45.93778 -37.09836,47.62754 -2.11433,0.81516 -6.30902,1.70675 -9.31493,1.96998 -5.52781,0.484 -12.32932,6.34297 -27.43529,23.61422 -6.52979,7.46383 -10.93676,10.27444 -22.16222,14.14646 -8.62713,2.96345 -16.16738,7.11568 -19.60635,10.7924 -5.12023,5.47687 -5.35799,6.35147 -2.86155,10.53767 1.49446,2.51342 7.5827,7.21758 13.52659,10.42728 l 10.8009,5.842 -2.70872,9.57815 c -1.49446,5.27308 -2.74268,12.46518 -2.75966,15.97208 -0.008,3.50689 -2.03791,10.46974 -4.50887,15.44562 -4.7636,9.59514 -11.53963,35.37467 -12.52462,47.65307 -0.34814,4.305 -17.49202,23.1302 -21.23667,23.1302 h 165.86 c -0.0255,-6.5553 -1.63033,-15.8872 -2.49644,-16.4646 -2.38604,-1.5794 0.0255,-26.09368 3.07384,-31.31582 4.05034,-6.91189 3.2097,-19.52143 -2.12281,-31.75735 -3.95694,-9.08566 -4.81456,-14.16344 -4.83154,-29.11657 -0.008,-11.56511 0.9765,-20.11582 2.70872,-23.69064 1.49446,-3.08233 3.65124,-11.04715 4.80606,-17.7043 2.20773,-12.75389 9.38285,-27.99572 15.30976,-32.47911 5.94389,-4.4834 9.0432,-16.53251 6.15617,-23.98785 -3.405,-8.77997 -7.05625,-11.75191 -10.58862,-8.61864 -2.04639,1.81714 -3.77861,1.85959 -6.71659,0.18681 -3.46444,-1.98695 -3.90599,-1.71523 -3.4984,2.19924 0.25473,2.45398 -0.6878,4.92494 -2.12282,5.46838 -2.02942,0.76421 -2.36058,-0.89158 -1.51145,-7.40439 0.60288,-4.61076 0.12737,-11.42076 -1.03593,-15.14843 -2.05489,-6.6062 -12.38028,-20.16676 -15.36071,-20.16676 z"
           style="fill:#ffffff;stroke:#000000;stroke-width:8;stroke-miterlimit:4;stroke-dasharray:none"
           sodipodi:nodetypes="cssssssscccsssccssssssssssssssc"
           id="path3490"
           inkscape:connector-curvature="0" />
        <path
           d="m 106.26156,885.54065 c 2.33321,-4.398 9.06959,-15.22783 10.43752,-16.78675 2.7823,-3.16945 7.09772,-4.52705 10.39622,-3.27269 0.72784,0.27358 1.32663,0.80011 1.32663,1.17177 0,1.60537 -4.18636,7.6707 -7.75845,11.23246 -2.94749,2.94233 -4.94001,4.39801 -8.25917,6.03952 -2.40548,1.18725 -4.91936,2.31256 -5.5801,2.49323 -1.12531,0.31488 -1.1666,0.2581 -0.56265,-0.87754 z"
           style="fill:#000000"
           id="path3492"
           inkscape:connector-curvature="0" />
      </g>
    </g>
  </g>
</svg>
