<?xml version="1.0" encoding="UTF-8" standalone="no"?>
<!-- Created with Inkscape (http://www.inkscape.org/) -->

<svg
   xmlns:dc="http://purl.org/dc/elements/1.1/"
   xmlns:cc="http://creativecommons.org/ns#"
   xmlns:rdf="http://www.w3.org/1999/02/22-rdf-syntax-ns#"
   xmlns:svg="http://www.w3.org/2000/svg"
   xmlns="http://www.w3.org/2000/svg"
   xmlns:sodipodi="http://sodipodi.sourceforge.net/DTD/sodipodi-0.dtd"
   xmlns:inkscape="http://www.inkscape.org/namespaces/inkscape"
   width="480"
   height="288"
   id="svg2"
   version="1.1"
   inkscape:version="0.92.1 r15371"
   sodipodi:docname="hlgv.svg"
   viewBox="0 0 450 270"
   inkscape:export-filename="hlgv.png"
   inkscape:export-xdpi="300"
   inkscape:export-ydpi="300">
  <defs
     id="defs4">
    <clipPath
       id="clipPath20">
      <path
         inkscape:connector-curvature="0"
         d="m 1,3.44 h 15 v 9 H 1 Z"
         id="path22" />
    </clipPath>
    <mask
       id="mask24">
      <g
         id="g26">
        <g
           clip-path="url(#clipPath20)"
           id="g28">
          <path
             inkscape:connector-curvature="0"
             d="m 1,3.44 h 15 v 9 H 1 Z"
             style="fill:#000000;fill-opacity:0.14839998"
             id="path30" />
        </g>
      </g>
    </mask>
    <clipPath
       id="clipPath36">
      <path
         inkscape:connector-curvature="0"
         d="m 1,3.44 h 15 v 9 H 1 Z"
         id="path38" />
    </clipPath>
    <clipPath
       id="clipPath40">
      <path
         inkscape:connector-curvature="0"
         d="m 1,4 h 15 v 9 H 1 Z"
         id="path42" />
    </clipPath>
    <clipPath
       id="clipPath64">
      <path
         inkscape:connector-curvature="0"
         d="m 1,3.44 h 15 v 9 H 1 Z"
         id="path66" />
    </clipPath>
    <mask
       id="mask68">
      <g
         id="g70">
        <g
           clip-path="url(#clipPath64)"
           id="g72">
          <path
             inkscape:connector-curvature="0"
             d="m 1,3.44 h 15 v 9 H 1 Z"
             style="fill:#000000;fill-opacity:0.19140003"
             id="path74" />
        </g>
      </g>
    </mask>
    <clipPath
       id="clipPath80">
      <path
         inkscape:connector-curvature="0"
         d="m 1,3.44 h 15 v 9 H 1 Z"
         id="path82" />
    </clipPath>
    <clipPath
       id="clipPath84">
      <path
         inkscape:connector-curvature="0"
         d="m 1,4 h 15 v 9 H 1 Z"
         id="path86" />
    </clipPath>
    <clipPath
       id="clipPath108">
      <path
         inkscape:connector-curvature="0"
         d="m 2,7.44 h 4 v 4 H 2 Z"
         id="path110" />
    </clipPath>
    <mask
       id="mask112">
      <g
         id="g114">
        <g
           clip-path="url(#clipPath108)"
           id="g116">
          <path
             inkscape:connector-curvature="0"
             d="m 2,7.44 h 4 v 4 H 2 Z"
             style="fill:#000000;fill-opacity:0.19920002"
             id="path118" />
        </g>
      </g>
    </mask>
    <clipPath
       id="clipPath124">
      <path
         inkscape:connector-curvature="0"
         d="m 2,7.44 h 4 v 4 H 2 Z"
         id="path126" />
    </clipPath>
    <clipPath
       id="clipPath128">
      <path
         inkscape:connector-curvature="0"
         d="m 2,8 h 4 v 4 H 2 Z"
         id="path130" />
    </clipPath>
    <clipPath
       id="clipPath152">
      <path
         inkscape:connector-curvature="0"
         d="m 6,6.44 h 7 v 5 H 6 Z"
         id="path154" />
    </clipPath>
    <mask
       id="mask156">
      <g
         id="g158">
        <g
           clip-path="url(#clipPath152)"
           id="g160">
          <path
             inkscape:connector-curvature="0"
             d="m 6,6.44 h 7 v 5 H 6 Z"
             style="fill:#000000;fill-opacity:0.19920002"
             id="path162" />
        </g>
      </g>
    </mask>
    <clipPath
       id="clipPath168">
      <path
         inkscape:connector-curvature="0"
         d="m 6,6.44 h 7 v 5 H 6 Z"
         id="path170" />
    </clipPath>
    <clipPath
       id="clipPath172">
      <path
         inkscape:connector-curvature="0"
         d="m 6,7 h 7 v 5 H 6 Z"
         id="path174" />
    </clipPath>
  </defs>
  <sodipodi:namedview
     id="base"
     pagecolor="#ffffff"
     bordercolor="#666666"
     borderopacity="1.0"
     inkscape:pageopacity="0.0"
     inkscape:pageshadow="2"
     inkscape:zoom="2.6493056"
     inkscape:cx="240"
     inkscape:cy="144"
     inkscape:document-units="px"
     inkscape:current-layer="layer1"
     showgrid="false"
     units="px"
     inkscape:window-width="1920"
     inkscape:window-height="1003"
     inkscape:window-x="0"
     inkscape:window-y="25"
     inkscape:window-maximized="1"
     borderlayer="true"
     showguides="true" />
  <metadata
     id="metadata7">
    <rdf:RDF>
      <cc:Work
         rdf:about="">
        <dc:format>image/svg+xml</dc:format>
        <dc:type
           rdf:resource="http://purl.org/dc/dcmitype/StillImage" />
        <dc:title />
      </cc:Work>
    </rdf:RDF>
  </metadata>
  <g
     inkscape:label="Layer 1"
     inkscape:groupmode="layer"
     id="layer1"
     transform="translate(0,-782.36218)">
    <rect
       style="opacity:1;fill:#ffffff;fill-opacity:1;fill-rule:nonzero;stroke:#000000;stroke-width:4.04577875;stroke-linecap:round;stroke-linejoin:round;stroke-miterlimit:4;stroke-dasharray:none;stroke-dashoffset:0;stroke-opacity:1"
       id="rect3749"
       width="445.95422"
       height="265.95422"
       x="2.0228882"
       y="784.38507" />
    <g
       id="layer1-9"
       inkscape:label="Layer 1"
       transform="translate(-35.756307,507.10901)">
      <g
         id="Layer_1"
         transform="translate(-244.49951,955.86218)" />
    </g>
    <g
       transform="matrix(29.339416,0,0,-29.339416,1336.7377,425.06076)"
       id="g10"
       style="fill:#ffffff;stroke:#000000;stroke-width:0.26423991;stroke-miterlimit:4;stroke-dasharray:none">
      <g
         id="g12"
         style="fill:#ffffff;stroke:#000000;stroke-width:0.26423991;stroke-miterlimit:4;stroke-dasharray:none">
        <path
           inkscape:connector-curvature="0"
           d="M 15.223,10.561 C 15.672,9.745 15.742,8.846 15.43,7.854 14.664,5.428 12.609,4.151 9.262,4.03 5.809,3.909 3.461,4.846 2.211,6.842 1.742,7.604 1.527,8.385 1.559,9.182 1.594,9.928 1.828,10.467 2.262,10.795 2.887,11.249 3.512,11.44 4.137,11.37 4.828,11.315 5.473,10.944 6.062,10.249 6.406,9.87 6.91,9.643 7.57,9.573 c 0.676,-0.051 1.2,0.097 1.563,0.441 0.277,0.246 0.762,0.758 1.457,1.535 0.711,0.61 1.449,0.836 2.211,0.68 1.129,-0.246 1.933,-0.801 2.422,-1.668 z"
           style="fill:#ffffff;fill-rule:evenodd;stroke:#000000;stroke-width:0.26423991;stroke-miterlimit:4;stroke-dasharray:none"
           id="path14" />
        <g
           id="g16"
           style="fill:#ffffff;stroke:#000000;stroke-width:0.26423991;stroke-miterlimit:4;stroke-dasharray:none">
          <g
             mask="url(#mask24)"
             id="g32"
             style="fill:#ffffff;stroke:#000000;stroke-width:0.26423991;stroke-miterlimit:4;stroke-dasharray:none">
            <g
               id="g44"
               style="fill:#ffffff;stroke:#000000;stroke-width:0.26423991;stroke-miterlimit:4;stroke-dasharray:none">
              <g
                 clip-path="url(#clipPath36)"
                 id="g46"
                 style="fill:#ffffff;stroke:#000000;stroke-width:0.26423991;stroke-miterlimit:4;stroke-dasharray:none">
                <g
                   transform="translate(0,-0.56)"
                   id="g48"
                   style="fill:#ffffff;stroke:#000000;stroke-width:0.26423991;stroke-miterlimit:4;stroke-dasharray:none">
                  <g
                     id="g52"
                     style="fill:#ffffff;stroke:#000000;stroke-width:0.26423991;stroke-miterlimit:4;stroke-dasharray:none">
                    <g
                       clip-path="url(#clipPath40)"
                       id="g54"
                       style="fill:#ffffff;stroke:#000000;stroke-width:0.26423991;stroke-miterlimit:4;stroke-dasharray:none">
                      <g
                         id="g56"
                         style="fill:#ffffff;stroke:#000000;stroke-width:0.26423991;stroke-miterlimit:4;stroke-dasharray:none">
                        <path
                           inkscape:connector-curvature="0"
                           d="M 12.801,12.789 C 13.93,12.543 14.734,11.988 15.219,11.121 15.672,10.309 15.742,9.406 15.43,8.418 14.664,5.988 12.609,4.711 9.262,4.59 5.898,4.469 3.574,5.371 2.289,7.297 1.805,8.027 1.559,8.789 1.559,9.586 1.543,10.332 1.734,10.887 2.133,11.254 1.855,10.801 1.805,10.23 1.977,9.535 2.168,8.789 2.574,8.121 3.199,7.531 4.152,6.613 5.645,6.137 7.676,6.102 c 1.992,-0.036 3.527,0.355 4.605,1.171 1.11,0.832 1.492,1.957 1.145,3.379 -0.364,1.426 -1.235,1.926 -2.602,1.512 l -0.211,-0.078 c 0.715,0.625 1.442,0.859 2.188,0.703 z"
                           style="fill:#ffffff;fill-rule:evenodd;stroke:#000000;stroke-width:0.26423991;stroke-miterlimit:4;stroke-dasharray:none"
                           id="path58" />
                      </g>
                    </g>
                  </g>
                </g>
              </g>
            </g>
          </g>
        </g>
        <g
           id="g60"
           style="fill:#ffffff;stroke:#000000;stroke-width:0.26423991;stroke-miterlimit:4;stroke-dasharray:none">
          <g
             mask="url(#mask68)"
             id="g76"
             style="fill:#ffffff;stroke:#000000;stroke-width:0.26423991;stroke-miterlimit:4;stroke-dasharray:none">
            <g
               id="g88"
               style="fill:#ffffff;stroke:#000000;stroke-width:0.26423991;stroke-miterlimit:4;stroke-dasharray:none">
              <g
                 clip-path="url(#clipPath80)"
                 id="g90"
                 style="fill:#ffffff;stroke:#000000;stroke-width:0.26423991;stroke-miterlimit:4;stroke-dasharray:none">
                <g
                   transform="translate(0,-0.56)"
                   id="g92"
                   style="fill:#ffffff;stroke:#000000;stroke-width:0.26423991;stroke-miterlimit:4;stroke-dasharray:none">
                  <g
                     id="g96"
                     style="fill:#ffffff;stroke:#000000;stroke-width:0.26423991;stroke-miterlimit:4;stroke-dasharray:none">
                    <g
                       clip-path="url(#clipPath84)"
                       id="g98"
                       style="fill:#ffffff;stroke:#000000;stroke-width:0.26423991;stroke-miterlimit:4;stroke-dasharray:none">
                      <g
                         id="g100"
                         style="fill:#ffffff;stroke:#000000;stroke-width:0.26423991;stroke-miterlimit:4;stroke-dasharray:none">
                        <path
                           inkscape:connector-curvature="0"
                           d="m 12.773,12.789 c 1.129,-0.246 1.934,-0.801 2.422,-1.668 0.45,-0.812 0.52,-1.715 0.207,-2.703 C 14.641,5.988 12.582,4.711 9.234,4.59 6.824,4.504 4.918,4.973 3.512,5.996 2.367,6.828 1.715,7.871 1.559,9.117 1.855,8.34 2.445,7.582 3.328,6.855 4.438,5.938 5.652,5.414 6.973,5.293 c 2.132,-0.207 3.902,0.012 5.308,0.652 1.336,0.606 2.168,1.481 2.496,2.629 0.606,2.172 -0.164,3.59 -2.3,4.254 z"
                           style="fill:#ffffff;fill-rule:evenodd;stroke:#000000;stroke-width:0.26423991;stroke-miterlimit:4;stroke-dasharray:none"
                           id="path102" />
                      </g>
                    </g>
                  </g>
                </g>
              </g>
            </g>
          </g>
        </g>
        <g
           id="g104"
           style="fill:#ffffff;stroke:#000000;stroke-width:0.26423991;stroke-miterlimit:4;stroke-dasharray:none">
          <g
             mask="url(#mask112)"
             id="g120"
             style="fill:#ffffff;stroke:#000000;stroke-width:0.26423991;stroke-miterlimit:4;stroke-dasharray:none">
            <g
               id="g132"
               style="fill:#ffffff;stroke:#000000;stroke-width:0.26423991;stroke-miterlimit:4;stroke-dasharray:none">
              <g
                 clip-path="url(#clipPath124)"
                 id="g134"
                 style="fill:#ffffff;stroke:#000000;stroke-width:0.26423991;stroke-miterlimit:4;stroke-dasharray:none">
                <g
                   transform="translate(0,-0.56)"
                   id="g136"
                   style="fill:#ffffff;stroke:#000000;stroke-width:0.26423991;stroke-miterlimit:4;stroke-dasharray:none">
                  <g
                     id="g140"
                     style="fill:#ffffff;stroke:#000000;stroke-width:0.26423991;stroke-miterlimit:4;stroke-dasharray:none">
                    <g
                       clip-path="url(#clipPath128)"
                       id="g142"
                       style="fill:#ffffff;stroke:#000000;stroke-width:0.26423991;stroke-miterlimit:4;stroke-dasharray:none">
                      <g
                         id="g144"
                         style="fill:#ffffff;stroke:#000000;stroke-width:0.26423991;stroke-miterlimit:4;stroke-dasharray:none">
                        <path
                           inkscape:connector-curvature="0"
                           d="M 3.934,10.328 C 3.984,10.086 4.238,9.887 4.688,9.73 5.191,9.539 5.512,9.348 5.652,9.156 5.875,8.828 5.703,8.594 5.129,8.453 4.523,8.297 3.926,8.367 3.336,8.664 2.781,8.922 2.449,9.305 2.348,9.809 c -0.09,0.433 0.007,0.812 0.285,1.144 0.207,0.223 0.457,0.27 0.754,0.129 0.297,-0.156 0.476,-0.406 0.547,-0.754 z"
                           style="fill:#ffffff;fill-rule:evenodd;stroke:#000000;stroke-width:0.26423991;stroke-miterlimit:4;stroke-dasharray:none"
                           id="path146" />
                      </g>
                    </g>
                  </g>
                </g>
              </g>
            </g>
          </g>
        </g>
        <g
           id="g148"
           style="fill:#ffffff;stroke:#000000;stroke-width:0.26423991;stroke-miterlimit:4;stroke-dasharray:none">
          <g
             mask="url(#mask156)"
             id="g164"
             style="fill:#ffffff;stroke:#000000;stroke-width:0.26423991;stroke-miterlimit:4;stroke-dasharray:none">
            <g
               id="g176"
               style="fill:#ffffff;stroke:#000000;stroke-width:0.26423991;stroke-miterlimit:4;stroke-dasharray:none">
              <g
                 clip-path="url(#clipPath168)"
                 id="g178"
                 style="fill:#ffffff;stroke:#000000;stroke-width:0.26423991;stroke-miterlimit:4;stroke-dasharray:none">
                <g
                   transform="translate(0,-0.56)"
                   id="g180"
                   style="fill:#ffffff;stroke:#000000;stroke-width:0.26423991;stroke-miterlimit:4;stroke-dasharray:none">
                  <g
                     id="g184"
                     style="fill:#ffffff;stroke:#000000;stroke-width:0.26423991;stroke-miterlimit:4;stroke-dasharray:none">
                    <g
                       clip-path="url(#clipPath172)"
                       id="g186"
                       style="fill:#ffffff;stroke:#000000;stroke-width:0.26423991;stroke-miterlimit:4;stroke-dasharray:none">
                      <g
                         id="g188"
                         style="fill:#ffffff;stroke:#000000;stroke-width:0.26423991;stroke-miterlimit:4;stroke-dasharray:none">
                        <path
                           inkscape:connector-curvature="0"
                           d="M 7.508,7.82 C 7.074,8.062 6.891,8.348 6.961,8.68 c 0.051,0.207 0.301,0.343 0.754,0.414 0.262,0.035 0.762,0.113 1.508,0.234 0.504,0.106 0.886,0.34 1.144,0.703 0.141,0.207 0.289,0.504 0.445,0.883 0.137,0.227 0.336,0.348 0.598,0.367 0.328,0.035 0.598,-0.148 0.805,-0.547 C 12.547,10.125 12.562,9.547 12.27,8.992 11.887,8.277 11.02,7.812 9.664,7.586 8.766,7.43 8.043,7.508 7.508,7.82 Z"
                           style="fill:#ffffff;fill-rule:evenodd;stroke:#000000;stroke-width:0.26423991;stroke-miterlimit:4;stroke-dasharray:none"
                           id="path190" />
                      </g>
                    </g>
                  </g>
                </g>
              </g>
            </g>
          </g>
        </g>
        <path
           inkscape:connector-curvature="0"
           d="M 10.953,10.198 C 11.336,10.284 11.492,10.12 11.422,9.706 11.336,9.272 10.953,8.889 10.277,8.561 9.773,8.335 9.297,8.237 8.844,8.272 8.258,8.307 8.238,8.362 8.793,8.428 c 0.746,0.086 1.25,0.383 1.512,0.887 0.277,0.555 0.492,0.848 0.648,0.883 z"
           style="fill:#ffffff;fill-rule:evenodd;stroke:#000000;stroke-width:0.26423991;stroke-miterlimit:4;stroke-dasharray:none"
           id="path192" />
        <path
           inkscape:connector-curvature="0"
           d="M 3.484,10.069 C 3.57,9.737 3.66,9.503 3.746,9.366 3.867,9.21 3.812,9.182 3.59,9.288 3.383,9.393 3.234,9.538 3.148,9.729 c -0.07,0.176 -0.043,0.305 0.079,0.391 0.121,0.086 0.207,0.07 0.257,-0.051 z"
           style="fill:#ffffff;fill-rule:evenodd;stroke:#000000;stroke-width:0.26423991;stroke-miterlimit:4;stroke-dasharray:none"
           id="path194" />
        <path
           inkscape:connector-curvature="0"
           d="M 4.238,9.053 C 4.57,8.862 4.707,8.741 4.656,8.69 4.605,8.62 4.492,8.628 4.32,8.713 4.195,8.768 4.117,8.854 4.086,8.975 4.066,9.096 4.117,9.124 4.238,9.053 Z"
           style="fill:#ffffff;fill-rule:evenodd;stroke:#000000;stroke-width:0.26423991;stroke-miterlimit:4;stroke-dasharray:none"
           id="path196" />
        <path
           inkscape:connector-curvature="0"
           d="M 7.855,8.323 C 8.031,8.288 8.125,8.237 8.145,8.17 8.145,8.1 8.059,8.053 7.883,8.038 7.711,8.003 7.625,8.053 7.625,8.194 7.621,8.315 7.699,8.358 7.855,8.323 Z"
           style="fill:#ffffff;fill-rule:evenodd;stroke:#000000;stroke-width:0.26423991;stroke-miterlimit:4;stroke-dasharray:none"
           id="path198" />
      </g>
    </g>
    <g
       inkscape:label="Layer 1"
       id="layer1-6"
       transform="matrix(2.523706,0,0,2.523706,1588.2709,441.4639)">
      <g
         id="g4023">
        <path
           d="m 40.098,91.252 c 12.583,3.4516 21.342,15.925 34.951,16.416 9.9834,1.3022 24.075,3.217 30.103,1.5434 14.458,-8.7502 18.89,-26.374 18.777,-37.91 -1.99,-7.135 -7.24,-12.651 -12.15,-17.94 -4.41,-9.214 -13.045,-15.932 -19.702,-23.662 -8.317,-8.677 -20.914,-6.631 -31.785,-8.86 -10.445,-2.529 -20.827,-9.749 -32.011,-6.745 -11.317,1.217 -22.023,8.135 -23.304,19.993 -3.5362,19.25 5.332,40.326 22.832,49.931"
           style="fill:#ffffff;fill-rule:evenodd"
           sodipodi:nodetypes="cccccccccc"
           id="path1655"
           inkscape:connector-curvature="0" />
        <path
           d="m 7.5707,27.435 c -2.4698,6.1101 -1.5788,10.174 -2.6389,16.623 0.076631,2.9143 0.44866,9.3239 1.8184,6.1549 2.466,-7.019 5.2978,-19.79 13.063,-22.619 5.0832,-2.4903 10.74,-3.4977 16.357,-3.2589 4.8929,-0.94867 10.182,-2.1419 14.815,0.3889 7.5973,3.1861 25.241,5.5517 34.235,4.2511 3.0524,1.0324 -3.872,-3.6189 -6.8581,-5.7173 -8.874,-4.887 -20.146,-2.832 -29.395,-6.671 -6.414,-2.356 -12.039,-3.171 -18.814,-1.929 -7.934,0.365 -13.049,-2.388 -17.492,4.991 -0.593,0.8 -4.5932,6.927 -5.0903,7.786 z"
           style="fill:#ffffff;fill-opacity:0.12353001;fill-rule:evenodd"
           sodipodi:nodetypes="cccccccccccc"
           id="path4927"
           inkscape:connector-curvature="0" />
        <path
           d="m 3.8422,42.211 c 2.031,-7.2369 2.6324,-15.369 7.8083,-21.255 4.9823,-5.4779 12.857,-5.9952 19.771,-6.4318 4.1103,-0.52802 8.3258,-0.74925 12.353,0.42758 6.4891,1.6154 12.638,4.7201 19.413,5.0574 4.6192,0.55454 9.1218,1.8898 13.476,3.4376 3.4003,1.1036 1.6984,4.1752 -1.2738,3.2128 -6.299,-0.024 -12.707,-0.155 -18.72,-2.277 -3.338,-0.862 -6.411,-2.626 -9.788,-3.281 -3.663,-0.521 -7.185,0.999 -10.764,1.294 -3.931,-0.177 -8.023,-0.187 -11.659,1.516 -5.437,1.422 -10.952,4.363 -13.468,9.646 -2.1864,3.597 -3.1609,7.752 -4.6977,11.608 -1.6345,2.087 -3.3837,-1.636 -2.4501,-2.955 z"
           style="fill:#ffffff;fill-opacity:0.12549002;fill-rule:evenodd"
           id="path4011"
           inkscape:connector-curvature="0" />
        <path
           d="m 9.5897,21.313 c -4.0861,7.1737 -6.2242,13.9 -5.5151,22.525 -0.33267,10.789 4.5144,19.247 8.3911,28.979 4.5354,8.784 16.033,9.9437 21.903,17.438 7.4232,3.586 14.947,4.7227 21.143,10.508 8.4439,6.2525 20.283,7.8541 30.422,8.8063 8.1869,1.5442 15.445,6.0913 22.412,-0.97781 7.7752,-7.2676 15.013,-16.523 15.252,-27.48 2.7233,-7.9489 2.3803,-17.313 -5.2054,-22.488 -10.3,-11.422 -18.34,-25.404 -31.743,-33.633 -12.015,-5.807 -24.496,-1.878 -36.239,-8.579 -9.054,-4.057 -16.266,-3.285 -27.379,-2.028 -3.974,0.607 -10.756,3.816 -13.439,6.93 z m 1.0891,2.1816 c 6.2247,-7.4302 16.316,-6.7719 24.846,-8.1358 8.5688,-1.4632 15.892,4.5227 23.81,6.2091 12.077,2.281 26.682,1.8728 35.576,11.926 10.685,10.222 15.846,22.963 26.71,33.022 -0.32291,8.6234 0.90027,15.77 -3.1074,27.406 -4.6959,6.8046 -10.621,15.968 -20.039,15.447 -7.679,-1.36 -15.489,-3.69 -23.285,-4.43 -9.256,-1.08 -17.992,-4.38 -25.026,-10.358 -5.609,-5.061 -14.311,-4.299 -19.225,-10.385 -5.734,-5.344 -13.877,-7.905 -17.846,-15.268 -3.6303,-8.583 -6.7939,-16.787 -7.1874,-26.295 -0.7991,-7.009 1.2071,-14.637 4.7784,-19.139 z"
           style="fill:#000000"
           sodipodi:nodetypes="cccccccccccccccccccccccccc"
           id="path1292"
           inkscape:connector-curvature="0" />
        <path
           d="m 88.702,88.54 c 0.0033,0.84738 0.14962,2.8939 0.96954,1.1413 1.7785,-1.9824 4.333,-2.9729 6.7848,-3.8381 1.8125,0.51741 3.0288,2.4345 3.3649,4.1853 -0.32274,0.9723 -1.2442,3.0023 -0.24875,3.4548 1.5061,-2.5219 1.3605,-6.012 -0.6876,-8.1994 -0.80588,-1.4896 -2.6866,-2.1212 -4.1061,-1.0845 -2.3152,0.91725 -4.7633,2.1178 -6.0768,4.3406 z m 1.1299,4.6964 c -0.46139,1.5362 -0.22638,3.3274 1.2565,4.2243 1.4134,1.3661 3.5404,1.528 5.2644,0.69763 1.4234,0.06006 2.0552,-2.87 0.78871,-2.747 -1.535,1.1199 -4.3041,1.6814 -5.4887,-0.21808 -0.26016,-0.92429 -1.9189,-2.3652 -1.524,-0.41411 -0.05241,1.9429 0.0041,-2.8202 -0.04474,-0.23331 -0.0918,1.7523 -0.17679,-1.0431 -0.25212,-1.3094 z"
           style="fill:#000000;stroke:#000000"
           id="path5884"
           inkscape:connector-curvature="0" />
        <path
           d="m 39.693,34.213 c 0.38433,0.6037 1.4112,1.9994 1.2069,0.3781 0.37668,-2.2175 1.7547,-4.0763 3.1158,-5.7994 1.5277,-0.4474 3.2605,0.37352 4.2898,1.4725 0.20774,0.8399 0.46461,2.7051 1.3796,2.5796 -0.06107,-2.48 -1.7381,-4.9071 -4.1869,-5.5462 -1.247,-0.70069 -2.8749,-0.30406 -3.4214,1.0762 -1.2401,1.6987 -2.4475,3.6596 -2.3837,5.8391 z m 2.9238,2.8449 c 0.36288,1.3051 1.3381,2.4785 2.8014,2.4507 1.6253,0.33862 3.2173,-0.50445 4.0743,-1.8746 1.0437,-0.5987 0.17424,-2.9762 -0.67487,-2.3175 -0.59155,1.4918 -2.3162,3.1409 -4.0184,2.3182 -0.60242,-0.54288 -2.4366,-0.8243 -1.2751,0.39116 0.83832,1.4113 -1.2683,-2.0161 -0.13712,-0.14647 0.72428,1.2929 -0.59645,-0.66534 -0.77026,-0.82156 z"
           style="fill:#000000;stroke:#000000"
           id="path6666"
           inkscape:connector-curvature="0" />
        <path
           d="m 36.548,34.276 c -0.1135,2.4704 1.3453,4.6244 2.7435,6.529 0.76397,0.93445 1.9438,1.5442 3.1406,1.6786 0.82314,0.18558 1.3793,-0.51721 0.66453,-1.1376 -0.93022,-0.92906 -2.4976,-0.39312 -3.459,-1.2839 -1.5796,-0.94597 -2.0636,-2.9544 -1.8871,-4.6787 0.11329,-0.69098 0.09942,-1.5034 0.61004,-2.0253 0.33258,-0.75713 0.0061,-1.7899 -0.69015,-2.2281 -0.91297,0.13223 -0.6116,1.576 -0.97262,2.2599 -0.06414,0.29272 -0.11812,0.58805 -0.14977,0.88619 z m 12.705,-8.7512 c 0.3375,1.6402 2.3363,2.4491 2.3383,4.213 -0.03449,1.123 0.14107,2.2539 0.03239,3.3811 -0.07101,1.0655 -0.28376,2.1331 -0.73502,3.106 0.02622,0.60656 0.67326,1.706 1.3364,1.2565 0.26605,-1.0379 0.42717,-2.1289 0.57458,-3.2005 0.23757,-1.7965 0.0259,-3.6666 -0.82002,-5.2869 -0.56533,-1.1112 -1.2227,-2.227 -2.1373,-3.0807 -0.19368,-0.13372 -0.39914,-0.24967 -0.58944,-0.38839 z"
           style="fill:#ffffff;fill-opacity:0.17059003"
           id="path6668"
           inkscape:connector-curvature="0" />
        <path
           d="m 44.952,80.922 c -0.11763,0.63888 -0.29757,2.2014 0.56864,0.99728 1.6209,-1.2414 3.6859,-1.6254 5.6558,-1.9297 1.2921,0.64678 1.9367,2.2635 1.9417,3.6303 -0.381,0.68676 -1.363,2.0855 -0.67723,2.5676 1.4922,-1.6865 1.8774,-4.3365 0.64447,-6.2749 -0.39595,-1.2366 -1.7233,-1.979 -2.9397,-1.3992 -1.8743,0.3628 -3.8889,0.9202 -5.1936,2.4086 z m 0.18539,3.6984 c -0.5654,1.0919 -0.64231,2.4748 0.34772,3.3607 0.87118,1.2296 2.4506,1.6531 3.8672,1.272 1.0639,0.24706 1.9553,-1.8709 0.98368,-1.9578 -1.3153,0.62611 -3.4811,0.65656 -4.1043,-0.94248 -0.06496,-0.73324 -1.1104,-2.054 -1.0894,-0.52805 -0.31495,1.4564 0.40294,-2.1242 -6.31e-4,-0.18212 -0.3176,1.3072 0.0147,-0.81096 -0.0043,-1.0222 z"
           style="fill:#000000;stroke:#000000"
           id="path6672"
           inkscape:connector-curvature="0" />
        <path
           d="m 42.822,79.02 c -1.6023,1.5721 -1.9638,3.9058 -2.2114,6.0361 -0.06966,1.0934 0.33782,2.228 1.0504,3.057 0.43252,0.63212 1.2366,0.50868 1.1449,-0.34558 -0.0442,-1.1926 -1.4174,-1.805 -1.506,-2.9914 -0.46547,-1.6052 0.45416,-3.2395 1.6372,-4.2768 0.50238,-0.38935 0.99527,-0.93799 1.6573,-0.96936 0.68905,-0.29778 1.1103,-1.1861 0.91828,-1.9078 -0.68867,-0.47636 -1.3807,0.66972 -2.0433,0.90123 -0.22356,0.15496 -0.44197,0.31793 -0.64729,0.49657 z m 13.855,2.0347 c -0.78935,1.299 0.03949,3.0722 -1.0494,4.246 -0.71702,0.72525 -1.2993,1.5856 -2.0682,2.2678 -0.70578,0.66448 -1.507,1.2427 -2.4084,1.6106 -0.35746,0.41945 -0.60681,1.5503 0.11189,1.6613 0.81838,-0.52558 1.5998,-1.1513 2.3601,-1.7726 1.2683,-1.0475 2.2834,-2.4215 2.7225,-4.0215 0.31096,-1.0881 0.56357,-2.2362 0.48322,-3.369 -0.04611,-0.2086 -0.11103,-0.41267 -0.15181,-0.62251 z"
           style="fill:#ffffff;fill-opacity:0.17059003"
           id="path6674"
           inkscape:connector-curvature="0" />
        <path
           d="m 76.063,43.691 c 0.27962,0.62437 1.057,2.0871 1.0889,0.52527 0.66432,-2.0449 2.2259,-3.6116 3.7526,-5.0521 1.507,-0.21091 3.0319,0.80624 3.8526,1.9887 0.0798,0.82323 0.06362,2.623 0.94641,2.6314 0.28678,-2.3541 -0.9622,-4.8826 -3.1894,-5.8272 -1.0821,-0.83594 -2.6768,-0.68697 -3.3855,0.54255 -1.4089,1.4343 -2.8232,3.1212 -3.0657,5.1914 z m 2.3701,3.0969 c 0.1619,1.2848 0.92125,2.5301 2.3091,2.707 1.4901,0.54606 3.113,-0.03014 4.1139,-1.207 1.0703,-0.42125 0.57825,-2.7906 -0.31633,-2.2856 -0.76672,1.3287 -2.627,2.6489 -4.1226,1.6343 -0.49435,-0.59714 -2.19,-1.1181 -1.2603,0.19281 0.59682,1.4512 -0.91941,-2.083 -0.10934,-0.15758 0.5054,1.3234 -0.47168,-0.71213 -0.61437,-0.88403 z"
           style="fill:#000000;stroke:#000000"
           id="path6678"
           inkscape:connector-curvature="0" />
        <path
           d="m 73.08,43.314 c -0.45054,2.3207 0.6299,4.5606 1.6877,6.5562 0.59274,0.98993 1.6239,1.7305 2.7372,2.0239 0.75273,0.28987 1.3764,-0.29755 0.78655,-0.98364 -0.75073,-1.0079 -2.3076,-0.71878 -3.0932,-1.6948 -1.3626,-1.1141 -1.5413,-3.081 -1.1348,-4.6872 0.20314,-0.63779 0.30288,-1.4081 0.85833,-1.8307 0.41973,-0.66988 0.25443,-1.692 -0.3432,-2.2032 -0.88185,-0.0018 -0.7974,1.4056 -1.2338,2.0022 -0.10133,0.26794 -0.19341,0.53976 -0.26476,0.81734 z m 13.232,-6.5118 c 0.09135,1.5981 1.8694,2.6409 1.6263,4.3094 -0.18864,1.0573 -0.17971,2.1514 -0.43908,3.2023 -0.21519,0.99791 -0.56472,1.978 -1.1267,2.8355 -0.05946,0.57732 0.39976,1.707 1.0894,1.374 0.39582,-0.94471 0.69977,-1.9542 0.98807,-2.9472 0.47427,-1.6661 0.53387,-3.4642 -0.04109,-5.1142 -0.38031,-1.1295 -0.84701,-2.2761 -1.5934,-3.2106 -0.1646,-0.15338 -0.34281,-0.29159 -0.50353,-0.44922 z"
           style="fill:#ffffff;fill-opacity:0.17059003"
           id="path6680"
           inkscape:connector-curvature="0" />
        <path
           d="m 16.685,60.261 c -0.47439,-0.24088 -1.6597,-0.74539 -0.91536,0.21476 0.5981,1.5615 0.41973,3.2725 0.2008,4.8902 -0.80828,0.86441 -2.2278,0.99483 -3.3023,0.68106 -0.45078,-0.45884 -1.321,-1.5552 -1.859,-1.1287 0.97757,1.5639 2.9692,2.4823 4.778,1.9646 1.0631,-0.02352 1.9547,-0.89337 1.7821,-1.9834 0.15075,-1.5563 0.18128,-3.268 -0.68433,-4.6385 z m -2.9475,-0.71406 c -0.72609,-0.69783 -1.7942,-1.0797 -2.7201,-0.50808 -1.1682,0.39835 -1.8679,1.5403 -1.8978,2.7414 -0.44132,0.77808 1.0147,1.9704 1.3088,1.2276 -0.18598,-1.1784 0.29352,-2.8864 1.6941,-3.0041 0.59093,0.11942 1.8711,-0.39458 0.66792,-0.73283 -1.0705,-0.58585 1.5745,0.81018 0.14317,0.04184 -0.95274,-0.55326 0.63345,0.20004 0.80379,0.23423 z"
           style="fill:#000000;stroke:#000000"
           id="path6684"
           inkscape:connector-curvature="0" />
        <path
           d="m 18.674,59.03 c -0.86221,-1.6237 -2.6108,-2.4501 -4.2263,-3.1397 -0.84249,-0.30886 -1.8282,-0.25257 -2.6449,0.11436 -0.59696,0.19274 -0.68692,0.85294 0.0053,0.97945 0.94683,0.24249 1.747,-0.69359 2.6993,-0.48742 1.3688,0.0076 2.4385,1.1097 2.9781,2.2798 0.18899,0.48504 0.50529,0.99964 0.37604,1.5268 0.0737,0.61035 0.67342,1.1477 1.2848,1.1646 0.53418,-0.43011 -0.20503,-1.2399 -0.23281,-1.8142 C 18.8438,59.4421 18.76658,59.2327 18.67401,59.02993 Z M 13.855,69.438 C 13.019,68.516 11.433,68.755 10.765,67.627 10.362,66.895 9.8214,66.238 9.4644,65.476 9.1067,64.767 8.8388,64.003 8.7594,63.21 8.5131,62.832 7.683,62.373 7.4287,62.912 c 0.22253,0.76486 0.53229,1.524 0.84348,2.2655 0.52782,1.2395 1.3709,2.3561 2.5254,3.0728 0.78226,0.49713 1.6251,0.96236 2.5335,1.1626 0.17454,0.01228 0.34989,0.0087 0.52416,0.02547 z"
           style="fill:#ffffff;fill-opacity:0.17059003"
           id="path6686"
           inkscape:connector-curvature="0" />
      </g>
    </g>
    <g
       id="g3444"
       transform="matrix(0.69211454,0,0,0.69211454,57.525238,772.56771)">
      <path
         id="path3446"
         d="m 171.95,34.535 c 9.293,-3.176 20.043,-0.979 28.109,-4.154 h 12.953 c 1.711,2.688 5.379,6.598 8.068,8.309 21.51,-1.465 43.994,-10.512 65.748,0 1.225,-0.732 2.199,-1.465 3.664,-1.223 2.207,2.201 0.738,3.668 0,5.863 -3.422,0.25 -7.086,0 -10.016,1.717 1.707,5.131 -6.111,3.422 -8.314,7.088 20.537,6.844 49.863,-6.844 62.33,17.111 -1.469,0.975 -0.244,2.686 0.977,2.93 11.002,1.711 23.223,-1.955 34.219,3.422 2.447,-4.154 9.777,-1.711 13.445,-2.936 4.891,6.357 16.617,7.578 15.152,17.602 -2.688,3.426 -7.09,6.355 -5.129,11.73 -0.736,-0.242 -0.982,0.246 -1.227,0.488 7.334,-0.975 9.781,7.578 16.867,5.379 4.646,3.18 12.709,-4.398 11.73,4.158 -2.445,1.465 -9.527,1.465 -6.844,6.354 l -2.936,2.441 -1.221,-1.223 -9.527,6.355 c 4.152,3.182 10.262,0.98 14.172,4.154 9.047,-1.219 16.381,0.492 25.18,2.449 l 31.771,0.486 c -2.439,5.867 -11.977,2.936 -15.889,7.09 -8.793,2.197 -17.598,4.398 -25.174,9.287 -15.645,6.111 -32.754,4.396 -46.441,12.955 6.354,2.443 12.467,4.887 20.049,4.645 l 7.08,2.932 c -13.441,22.242 -46.189,4.643 -61.592,24.197 -3.664,1.467 -5.379,5.867 -5.379,10.021 -6.6,5.133 -12.219,10.756 -21.02,7.58 -3.664,2.932 -10.75,0.488 -10.02,7.574 -0.73,0.49 -0.979,1.465 -1.711,1.223 l -0.734,-0.732 c -1.465,6.842 -3.422,14.174 -7.578,19.553 0.736,12.223 5.625,23.465 5.869,37.395 3.176,20.781 -2.689,44.244 10.51,61.6 -0.246,14.906 14.418,25.418 27.133,30.551 5.129,5.619 14.172,4.396 18.082,11.24 0.98,2.445 -1.221,2.938 -2.93,3.426 -15.152,0.732 -25.176,-11 -39.354,-12.955 -5.133,-3.668 -12.221,-0.246 -18.82,-2.201 -4.154,-1.953 -6.6,3.176 -10.506,3.422 -4.402,2.934 -3.672,8.309 -2.938,12.221 -7.086,-1.955 -10.266,8.801 -16.861,4.889 -6.361,-5.133 -8.807,-13.688 -15.891,-17.598 -15.154,2.936 -29.33,7.822 -42.773,14.666 -3.178,0.979 -4.643,-2.686 -5.869,-4.154 -0.73,-7.336 7.578,-5.379 11.002,-8.801 1.951,0.734 5.133,0.242 7.09,-1.223 -6.357,-4.889 3.416,-10.266 7.084,-12.219 2.689,-0.732 4.646,-3.176 7.086,-4.893 l -0.729,-1.709 c 15.891,-15.154 11.486,-35.195 10.51,-54.506 -5.621,-14.174 -1.469,-32.998 -16.867,-42.773 -12.709,0.979 -25.906,-3.668 -36.416,-1.221 -6.604,-2.447 -6.361,-10.023 -13.441,-11.248 0.244,-4.885 -5.623,-5.377 -8.314,-8.062 -3.422,-1.225 -7.576,-2.201 -9.287,-5.865 l 4.158,-3.668 c -4.645,-3.664 -9.047,-2.199 -14.18,-4.645 -5.623,-5.133 -6.352,-17.84 -17.107,-15.887 l -9.293,-3.908 c -10.998,2.686 -23.463,5.619 -33.971,10.998 -4.16,0.977 -6.109,-2.936 -7.582,-5.867 l 1.715,-4.648 c -3.422,-1.953 -6.848,-2.93 -8.312,-7.082 0.488,-1.957 -0.734,-3.426 -1.221,-5.141 -8.555,7.826 -14.906,-6.352 -21.018,-8.791 l -27.621,-4.16 c -2.934,-9.773 -15.398,-0.244 -18.82,-8.307 v -1.713 c 8.795,-3.424 20.281,0 28.352,-5.379 4.889,-0.24 10.512,-0.729 12.223,-6.352 -0.49,-3.178 2.686,-3.914 4.645,-5.871 10.756,-2.197 21.016,5.135 26.395,-4.15 10.754,-5.137 25.664,-0.736 34.711,-10.51 0.979,-2.203 -1.957,-2.689 -1.717,-4.646 -6.352,2.443 -16.371,3.18 -22.482,-0.732 -2.688,-0.736 -9.041,2.201 -10.512,-2.197 0.25,-1.471 0.734,-3.182 2.443,-3.668 5.869,-0.246 9.291,-3.18 14.666,-4.645 -5.133,-11.488 10.758,-6.354 15.885,-11 2.695,-4.154 10.029,-1.223 10.514,-7.09 -5.133,-0.486 -9.039,-6.111 -14.18,-8.305 -4.395,-3.426 -1.707,-8.07 -5.859,-11.002 -7.092,1.219 -16.137,0.49 -22.734,-2.936 7.334,-5.129 15.402,-7.09 24.443,-9.531 l 6.598,-3.424 c -1.955,-15.398 18.58,-5.619 21.752,-17.596 0,-5.375 -8.797,-4.891 -4.889,-11.242 l 1.959,-1.713 c 7.82,-1.711 17.84,1.467 23.461,-5.865 5.63,-0.721 8.81,4.412 13.45,5.879 z"
         inkscape:connector-curvature="0" />
      <path
         id="path3448"
         d="m 202.99,43.826 c 5.625,4.643 10.756,1.953 15.889,8.309 8.803,0.73 14.916,-5.377 22.734,-7.088 l 15.889,-2.203 c 6.594,4.404 -6.113,10.514 1.221,15.645 4.4,6.111 13.197,7.576 20.041,5.869 2.691,-1.227 6.361,-1.711 8.066,-3.914 8.312,9.043 19.309,-1.465 28.846,5.135 3.42,-1.467 3.912,2.443 5.133,3.668 0.244,2.93 -5.625,3.174 -3.428,6.838 -8.795,-2.441 -17.35,5.137 -25.904,1.225 -5.379,2.686 -12.713,-0.244 -18.088,2.447 1.465,8.064 11.977,6.109 17.596,7.574 7.088,-3.422 15.645,1.955 22.244,-2.445 11.73,3.422 24.197,-1.223 36.91,-0.486 3.91,7.33 15.152,2.932 21.26,5.865 l 9.293,-2.443 4.154,4.158 c -6.111,3.906 -5.621,11.484 -8.314,17.109 -0.244,3.664 2.443,5.617 4.893,7.082 4.398,0.246 7.086,1.957 11.734,0.49 -6.359,5.865 -13.203,12.223 -21.268,15.152 -1.467,3.67 0,5.135 1.225,8.314 5.375,5.621 11.242,-0.979 18.082,1.223 7.824,-2.691 12.957,5.133 20.535,2.199 -12.711,6.598 -28.355,5.865 -40.334,14.174 0.738,4.646 -1.465,11.486 5.133,12.955 1.225,0.734 2.693,0.734 4.16,1.225 -5.869,4.396 -13.936,2.93 -20.533,5.865 -6.352,5.375 -16.379,2.936 -21.021,10.998 -3.422,0.246 -4.643,2.936 -6.6,5.377 0.977,1.223 1.221,5.381 -0.488,7.092 l -20.039,2.93 c 3.906,-10.998 13.686,-22.975 25.416,-25.91 1.221,0.982 3.176,1.711 4.643,0.492 3.668,-3.666 4.891,-7.334 2.938,-12.223 -3.914,-0.979 -4.158,-8.064 -8.801,-5.379 -3.912,8.801 -15.889,9.291 -17.6,19.559 -5.377,3.174 -5.377,8.791 -8.799,12.709 -3.424,15.398 -12.465,30.305 -10.512,47.66 -6.354,22.73 1.715,52.305 0,76.26 4.891,15.152 13.688,28.6 16.867,44.484 -4.645,1.221 -9.041,-3.666 -12.955,-5.133 -8.309,-3.666 -13.934,0.732 -21.021,3.912 -4.887,4.643 -1.953,11.242 -7.092,14.664 -5.613,-6.354 -11.725,-16.619 -22.24,-13.443 -3.422,3.422 -8.555,1.957 -12.951,2.936 -1.467,-2.689 2.932,-6.602 0.729,-9.289 10.273,-6.598 18.824,-17.352 22.246,-29.33 -3.668,-15.154 -2.689,-32.021 -5.375,-47.666 2.441,-4.887 2.93,-11.242 1.707,-16.863 -6.355,-4.398 -11.73,-12.465 -12.707,-20.531 -0.734,-6.357 11,-11 1.707,-15.887 -6.109,-16.621 -20.039,-29.33 -30.059,-43.508 8.311,-1.713 11.727,5.623 15.887,10.754 11.242,9.047 20.531,21.754 30.059,32.264 3.918,2.443 6.359,-1.955 10.516,-2.932 -1.223,-6.844 12.219,-5.867 7.086,-14.664 l 12.709,-13.688 c 3.908,-12.709 22.975,-20.535 18.822,-35.199 0,-2.934 -2.441,-6.113 -2.199,-9.777 6.598,1.225 1.223,11.49 4.646,16.377 0.732,3.424 4.396,2.201 6.352,4.154 3.668,-5.133 14.666,-6.109 11.73,-13.688 l -9.283,4.887 -2.939,-10.02 c 4.404,1.711 6.115,-7.09 10.514,-2.443 2.445,0.49 4.887,-0.979 5.869,-2.932 0,-4.158 -4.893,-4.158 -7.09,-6.355 -6.844,-0.488 -12.959,7.086 -19.311,1.219 -4.645,0.492 -8.064,-1.465 -11.73,0.979 -2.691,-1.465 -4.889,1.225 -7.086,1.957 -0.98,1.709 0.24,4.396 2.441,5.133 l 7.574,-0.49 1.227,20.531 c -8.312,12.465 -19.801,19.557 -30.068,28.602 0.492,-3.668 -4.395,-3.668 -5.133,-6.852 -0.729,0.496 2.686,0 2.203,2.207 8.064,-1.225 10.752,-8.559 13.686,-13.934 -0.73,-3.91 1.467,-10.754 -4.152,-12.465 -2.203,0.242 -4.402,2.686 -4.646,4.643 0.486,7.58 -10.756,11.486 -8.314,18.334 -2.197,-1.469 -3.908,2.197 -5.863,2.93 l 1.715,9.287 c -4.16,-1.465 -2.938,-7.084 -4.16,-10.02 7.824,-6.6 -3.908,-12.467 -5.129,-19.307 -4.648,-4.156 -9.537,3.176 -14.668,1.219 -9.535,-2.688 -20.777,5.865 -28.109,-2.934 -5.619,4.891 -13.688,-4.887 -15.887,2.934 -4.156,-2.934 -8.555,0.246 -12.467,1.711 -0.24,1.469 -1.705,2.443 -0.979,4.154 3.182,4.889 8.314,0.244 12.223,3.424 10.023,-1.713 14.91,8.066 20.531,14.178 3.426,3.176 6.111,7.818 9.289,11.244 -9.531,-6.357 -21.508,5.375 -29.82,-5.865 -8.551,-4.889 -16.863,1.709 -25.906,0.973 l -3.912,6.604 c -8.555,-0.98 -12.223,-11.736 -20.045,-15.398 -16.859,-8.559 -29.332,5.865 -46.441,5.865 -2.93,-3.178 -8.551,-7.09 -6.355,-12.223 6.607,-1.467 14.668,0.732 20.049,-4.154 -2.443,-6.844 -10.998,-3.91 -17.109,-4.646 -7.826,1.225 -14.916,2.936 -22.98,0.492 -2.684,-7.334 -11.73,-7.09 -18.084,-9.291 3.178,-1.957 7.574,-0.246 10.02,-4.152 -1.223,-2.203 0.242,-4.158 1.713,-5.137 13.928,0.979 26.15,-6.84 40.572,-4.887 5.377,-4.4 13.445,-4.645 19.797,-5.133 -0.732,-5.867 5.629,-5.129 8.801,-3.664 10.02,6.6 21.754,-1.711 32.268,-0.98 3.174,-4.398 8.062,-2.688 11.729,-0.73 6.846,-1.465 15.156,0.73 21.754,-1.715 -2.688,-6.598 -10.754,-1.707 -14.664,-6.355 -9.291,1.469 -15.645,-5.617 -22.977,-6.6 -4.396,-2.932 -8.557,-1.463 -13.445,-3.416 -2.688,1.461 -5.863,2.197 -9.285,1.705 -0.246,-9.773 -9.533,-2.93 -15.887,-5.865 l -7.58,-3.422 c 5.623,-7.33 19.803,-4.154 23.467,-14.174 1.953,-1.467 4.154,-4.4 2.197,-7.09 -4.889,-5.377 -7.084,-14.178 -15.639,-14.666 3.908,-3.908 -3.918,-12.223 5.133,-12.223 5.373,-5.619 7.82,-13.195 16.371,-13.441 l 5.383,-11.73 c 13.195,-4.891 28.109,0 40.57,-6.602 3.44,0.039 9.06,-0.695 9.3,4.688 z"
         inkscape:connector-curvature="0"
         style="fill:#ffffff" />
      <path
         id="path3450"
         d="m 214.72,83.173 c -16.863,2.443 -34.953,5.867 -51.57,5.379 -2.445,2.689 -5.379,4.891 -8.799,7.09 -1.713,0.486 -3.422,1.223 -5.381,0.977 -2.441,-6.355 8.066,-3.668 8.312,-9.781 7.088,3.914 8.799,-7.082 15.889,-4.15 11.24,-5.865 26.15,-0.979 38.619,-2.447 z"
         inkscape:connector-curvature="0" />
      <path
         id="path3452"
         d="m 265.81,80.24 c 1.951,2.691 -0.979,4.645 -2.936,5.377 -2.689,0.248 -5.375,-0.244 -6.602,-2.443 0.5,-3.419 5.87,-2.688 9.54,-2.934 z"
         inkscape:connector-curvature="0" />
      <path
         id="path3454"
         d="m 360.89,103.7 -4.156,5.383 c 0.977,0.729 1.221,1.711 1.221,2.932 -10.506,5.131 -23.463,4.396 -35.93,5.131 -1.711,-1.955 -5.379,-1.223 -7.576,-0.49 -6.844,1.221 -3.664,8.555 -8.801,11.248 -3.418,2.193 1.471,6.84 -4.154,8.064 -5.373,0 -10.264,2.443 -14.666,2.932 -2.443,2.934 -7.09,1.465 -10.02,3.666 1.953,2.689 8.555,-3.422 8.314,2.932 -2.939,2.445 -6.85,1.223 -10.031,0 -0.971,-3.422 -6.838,-4.152 -4.639,-8.309 4.398,-5.867 13.445,1.223 18.818,-5.381 7.092,1.467 4.646,-8.795 11.002,-10.998 2.686,-0.242 5.133,-2.197 7.818,-0.73 -0.973,-1.223 -5.133,-5.135 -1.955,-8.064 10.756,-7.09 23.223,-2.932 33.488,-9.537 7.1,0.75 15.66,-3.894 21.28,1.23 z"
         inkscape:connector-curvature="0" />
      <path
         id="path3456"
         d="m 252.85,186.56 -3.422,5.867 c -2.93,-2.199 -7.332,-6.602 -10.748,-10.754 3.416,-0.975 5.615,0 8.795,-0.975 1.95,1.71 3.18,3.91 5.37,5.86 z"
         inkscape:connector-curvature="0"
         style="fill:#ffffff" />
      <path
         id="path3458"
         d="m 266.3,210.03 c 0,1.465 -1.715,1.715 -2.934,1.715 -1.715,-1.469 -1.225,-3.914 -2.938,-5.379 l 2.445,-1.223 c 0,2.2 1.95,2.94 3.42,4.89 z"
         inkscape:connector-curvature="0"
         style="fill:#ffffff" />
      <path
         id="path3460"
         d="m 187.84,212.96 c -2.195,1.957 -4.889,4.889 -8.311,4.643 1.47,-3.42 4.89,-4.39 8.31,-4.64 z"
         inkscape:connector-curvature="0"
         style="fill:#ffffff" />
      <path
         id="path3462"
         d="m 237.7,231.05 c -2.934,3.184 -1.953,7.824 -2.934,11.734 -1.955,0.486 -3.418,1.223 -4.891,2.934 0.492,1.465 -0.486,2.688 -1.707,2.932 -15.643,-4.4 -32.262,-6.354 -44.482,-18.82 h -1.225 c 2.934,-5.619 14.91,0.244 13.445,-10.02 10.748,-2.936 24.684,-1.465 35.193,-0.982 l 1.711,-1.221 c 3.68,3.68 7.59,8.56 4.9,13.45 z"
         inkscape:connector-curvature="0"
         style="fill:#ffffff" />
      <path
         id="path3464"
         d="m 293.43,231.05 c -2.195,5.625 0,15.402 -8.303,15.889 -3.182,-6.598 0.24,-13.688 4.148,-18.334 1.46,0.24 2.93,0.97 4.15,2.44 z"
         inkscape:connector-curvature="0" />
      <path
         id="path3466"
         d="m 288.54,254.03 c 0.732,20.045 3.914,41.062 1.953,60.375 l -1.953,1.711 c -3.91,-18.334 -3.664,-38.377 -6.844,-56.953 1.953,-2.693 0.732,-6.598 2.934,-9.291 2.44,-0.24 4.16,1.47 3.91,4.16 z"
         inkscape:connector-curvature="0" />
      <path
         id="path3468"
         d="m 295.63,326.13 c 0.977,3.912 -3.668,3.912 -5.867,2.932 -0.734,-0.977 -3.174,-2.199 -2.199,-4.156 2.7,-1.46 6.61,-2.44 8.07,1.23 z"
         inkscape:connector-curvature="0" />
    </g>
  </g>
</svg>
