<?xml version="1.0" encoding="UTF-8" standalone="no"?>
<!-- Created with Inkscape (http://www.inkscape.org/) -->

<svg
   width="480"
   height="288"
   id="svg2"
   version="1.1"
   inkscape:version="1.1.2 (0a00cf5339, 2022-02-04)"
   sodipodi:docname="gihli-dead-green.svg"
   viewBox="0 0 450 270"
   inkscape:export-filename="gihli-dead.png"
   inkscape:export-xdpi="300"
   inkscape:export-ydpi="300"
   xmlns:inkscape="http://www.inkscape.org/namespaces/inkscape"
   xmlns:sodipodi="http://sodipodi.sourceforge.net/DTD/sodipodi-0.dtd"
   xmlns="http://www.w3.org/2000/svg"
   xmlns:svg="http://www.w3.org/2000/svg"
   xmlns:rdf="http://www.w3.org/1999/02/22-rdf-syntax-ns#"
   xmlns:cc="http://creativecommons.org/ns#"
   xmlns:dc="http://purl.org/dc/elements/1.1/">
  <defs
     id="defs4" />
  <sodipodi:namedview
     id="base"
     pagecolor="#ffffff"
     bordercolor="#666666"
     borderopacity="1.0"
     inkscape:pageopacity="0.0"
     inkscape:pageshadow="2"
     inkscape:zoom="2.7222222"
     inkscape:cx="239.87755"
     inkscape:cy="144"
     inkscape:document-units="px"
     inkscape:current-layer="layer1"
     showgrid="false"
     units="px"
     inkscape:window-width="1920"
     inkscape:window-height="1003"
     inkscape:window-x="0"
     inkscape:window-y="25"
     inkscape:window-maximized="1"
     borderlayer="true"
     showguides="false"
     inkscape:pagecheckerboard="0" />
  <metadata
     id="metadata7">
    <rdf:RDF>
      <cc:Work
         rdf:about="">
        <dc:format>image/svg+xml</dc:format>
        <dc:type
           rdf:resource="http://purl.org/dc/dcmitype/StillImage" />
      </cc:Work>
    </rdf:RDF>
  </metadata>
  <g
     inkscape:label="Layer 1"
     inkscape:groupmode="layer"
     id="layer1"
     transform="translate(0,-782.36218)">
    <rect
       style="opacity:1;fill:#ffffff;fill-opacity:1;fill-rule:nonzero;stroke:#000000;stroke-width:4.04577875;stroke-linecap:round;stroke-linejoin:round;stroke-miterlimit:4;stroke-dasharray:none;stroke-dashoffset:0;stroke-opacity:1"
       id="rect3749"
       width="445.95422"
       height="265.95422"
       x="2.0228882"
       y="784.38507" />
    <g
       id="layer1-9"
       inkscape:label="Layer 1"
       transform="translate(-35.756307,507.10901)">
      <g
         id="Layer_1"
         transform="translate(-244.49951,955.86218)" />
    </g>
    <path
       style="fill:#00ff00;fill-rule:evenodd;stroke-width:0.650812;stroke-linecap:square;paint-order:stroke fill markers"
       d="m 256.90855,809.02734 c -3.50824,0.0781 -7.11156,0.3656 -10.44463,1.40379 -4.73324,7.63465 -8.15966,15.9985 -12.04116,24.08178 -1.2158,3.12727 -3.15424,6.11638 -3.78252,9.41127 0.67945,1.43733 2.09821,-0.50647 2.60108,-1.16567 4.77375,-5.93573 10.83392,-11.16825 18.09044,-13.71901 2.855,-0.1254 5.25318,-2.63667 8.18325,-1.59616 2.966,1.81613 5.11785,4.79658 7.42855,7.41914 3.86187,4.37851 4.63156,11.10013 1.68696,16.16739 -3.70889,6.08809 -7.31066,12.28039 -11.10718,18.29964 -4.12293,6.18804 -10.06602,12.48222 -17.95659,13.02687 -7.41299,0.34115 -15.03048,-3.20504 -19.34625,-9.28368 -2.62893,-4.01841 0.12155,-8.71022 2.31749,-12.20953 0.25866,-0.91702 2.33274,-2.54077 0.87885,-3.22402 -2.57088,1.09156 -4.27307,3.68597 -6.44171,5.406 -2.48764,2.38488 -5.45253,4.31289 -7.32707,7.27178 -0.84483,1.21541 -2.29167,1.89736 -3.11832,3.06451 0.0927,0.8115 2.06168,1.87263 1.34056,2.51632 -8.6457,1.89625 -17.85993,0.50967 -26.26211,3.77815 -7.92773,2.08695 -16.0234,3.57508 -23.93577,5.75305 -5.02771,1.07427 -10.64069,0.42889 -15.29364,2.97236 -3.55365,3.68341 -4.76308,9.69278 -9.72223,11.93115 -6.04958,3.05194 -12.78861,5.90194 -16.78419,11.64865 -1.55167,4.12235 -0.74748,8.69862 -1.24593,13.00611 -0.18325,8.44574 -1.97838,17.24324 1.13359,25.39313 2.79124,7.99901 6.20131,16.0461 11.76233,22.5426 1.12121,0.89714 2.30381,3.25981 4.01426,2.55398 3.79034,-2.75195 6.38191,-7.00107 10.97535,-8.54512 8.98213,-3.53437 18.43725,-5.67908 27.57029,-8.82007 13.27676,-4.20943 26.37279,-8.96518 39.64368,-13.1887 7.11199,-2.65644 14.31867,-5.50195 20.47778,-10.00988 -2.39977,4.93337 -6.86144,8.54347 -11.97249,10.41055 -15.46129,6.38225 -31.00999,12.67008 -46.71348,18.47315 -8.88317,3.27392 -18.17967,5.4361 -26.85605,9.24917 -1.49548,0.95739 -4.35067,2.27049 -3.59858,4.47503 1.88968,2.3188 5.31704,2.38108 8.00432,3.14927 18.67082,3.47855 37.83507,0.3872 56.06615,-4.0632 8.30015,-2.30263 16.80461,-4.19351 24.69883,-7.70585 9.94805,-6.24059 21.67124,-8.90084 33.30001,-9.47201 2.49577,-0.2821 1.71432,-3.44825 1.8208,-5.15101 -0.1763,-16.33168 -2.19551,-32.75728 -0.0652,-49.01877 1.57226,-7.65765 5.82336,-14.90431 5.336,-22.90918 -0.16646,-1.74643 -0.72242,-3.42223 -1.33585,-5.0555 7.15479,-3.60394 14.52839,-6.75046 21.81817,-10.07873 -7.45545,11.51471 -13.62502,23.94756 -17.25732,37.21632 -4.65329,16.14375 -5.48374,33.13663 -4.12902,49.81491 0.92992,12.70137 2.0867,25.63228 6.48283,37.67682 4.70819,10.24716 12.17767,19.09556 20.68949,26.40776 7.09126,5.6279 16.6742,6.1518 25.36091,5.9801 8.42796,-0.4897 16.89659,-1.2162 25.16994,-2.9223 10.61893,-3.0807 20.31657,-9.8468 26.50843,-19.0498 2.47909,-3.81006 4.18304,-8.22558 3.86313,-12.83786 0.62626,-10.54839 -3.45054,-20.61615 -7.83752,-29.9845 -6.83906,-14.04756 -14.58059,-27.64624 -22.44997,-41.1269 -5.74699,-10.5016 -11.21215,-21.53875 -20.22606,-29.6974 -1.53287,-1.54224 -4.05509,-3.65959 -2.45444,-6.04628 2.66995,-3.71189 7.52938,-4.66977 10.96997,-7.46892 0.74148,-0.49903 1.72316,-1.20511 2.34614,-0.0659 0.75291,0.5996 1.36235,1.50742 0.37399,2.21901 -4.04239,4.11901 -3.04089,10.59406 -0.95245,15.41471 3.34534,7.60387 7.81356,14.6543 11.19931,22.24249 1.13957,1.71405 1.99622,4.48059 4.27997,4.86797 1.86877,-0.607 1.16582,-3.25937 1.59048,-4.73042 0.88093,-10.39558 0.86947,-20.92839 -0.51157,-31.27829 -2.60176,-16.61427 -8.92682,-33.51862 -21.82346,-44.89271 -2.93595,-2.46728 -5.84934,-5.26577 -9.64677,-6.27049 -3.97585,-1.5946 -7.23094,-4.79798 -11.41143,-5.84037 -4.02562,-0.31105 -7.23475,-3.27635 -10.84687,-4.83757 -11.87024,-6.06849 -24.41726,-11.7932 -37.87266,-12.86917 -1.73508,-0.10754 -3.47476,-0.13702 -5.21281,-0.10994 z"
       id="path619" />
    <g
       id="g3419">
      <g
         id="layer1-97"
         inkscape:label="Layer 1"
         transform="matrix(2.1219093,0,0,2.1219093,77.184241,766.55696)">
        <path
           id="path1062"
           inkscape:connector-curvature="0"
           sodipodi:nodetypes="cccccccccccccccccccccccccccccccccccccccccccccccccccccccccccccccccccccccccc"
           style="fill:#000000"
           d="m 83.012,17.316 c -5.066,1.846 -9.37,8.198 -10.399,13.903 -2.077,5.33 -6.525,13 -11.574,16.377 1.825,2.441 6.5,-4.256 8.502,-5.144 -1.245,2.519 -4.261,5.321 -1.972,8.201 3.141,3.943 9.294,5.67 13.486,2.3 4.275,-3.175 6.031,-8.458 9.089,-12.634 1.887,-2.983 1.246,-6.974 -1.532,-9.176 -1.129,-1.507 -2.964,-3.94 -4.946,-2.123 -3.481,0.031 -9.342,4.375 -12.299,9.988 1.376,-4.028 6.177,-14.658 8.433,-18.211 9.962,-2.694 20.74,2.881 29.41,7.762 1.2,-1.046 5.39,3.095 7.38,3.062 12.23,7.621 15.41,24.545 13.82,38.478 0.01,4.297 -2.17,1.098 -3.42,-2.127 -2.34,-5.254 -8.16,-12.085 -3.52,-16.078 -1.29,-2.505 -1.85,-0.284 -3.54,0.293 -1.69,0.744 -5.1,2.281 -3.28,4.6 6.93,5.838 8.48,12.448 13.37,19.71 4.24,8.479 12.86,20.655 11.26,30.543 -1.35,6.82 -10.6,13.32 -17.41,13.44 -6.15,0.92 -13.7,1.84 -19.38,-1.03 -4.32,-3.37 -8.13,-7.9 -10.6,-12.7 -2.837,-7.432 -3.391,-18.516 -3.549,-26.427 0.369,-12.263 3.796,-23.13 10.729,-33.279 -4.132,2.082 -6.784,2.96 -10.897,5.074 2.469,5.27 -2.143,10.167 -2.087,15.48 -0.841,6.608 0.49,16.447 0.292,23.078 -6.917,0.464 -11.389,1.341 -17.207,5.04 -10.355,3.28 -24.421,7.274 -36.284,5.244 -1.323,-0.28 -8.567,-1.074 -2.147,-3.991 5.247,-1.901 10.724,-3.301 15.931,-5.429 6.474,-2.648 13.082,-5.116 19.504,-7.805 1.754,-1.277 3.59,-2.623 4.2,-4.824 -1.692,1.84 -8.986,5.101 -13.923,6.266 -8.404,2.999 -17.099,5.864 -25.673,8.32 -5.812,1.768 -5.459,4.393 -7.547,5.021 -3.068,-1.96 -7.284,-10.683 -7.773,-15.567 -0.166,-4.07 0.635,-9.162 0.498,-13.257 0.212,-2.766 6.053,-5.671 8.674,-6.681 1.989,-1.155 2.798,-4.241 4.253,-5.651 1.886,-0.785 4.252,-0.909 6.646,-0.973 4.441,-1.724 8.918,-1.787 13.4,-3.506 3.847,-0.995 7.206,-0.275 11.053,-1.272 -1.374,-2.858 -4.649,-1.775 -6.893,-0.978 -7.361,1.332 -14.651,3.668 -22.214,3.648 1.006,-1.965 1.817,-4.136 0.438,-6.202 -2.292,-4.474 -6.93,-7.236 -11.336,-9.31 -4.745,-1.286 -9.24,2.058 -12.325,5.307 -4.7566,5.908 -6.2903,14.309 -4.2545,21.569 1.7348,3.785 6.7715,2.931 10.09,2.354 0.341,6.188 -2.464,12.639 0.461,18.568 1.787,5.747 3.602,13.184 10.097,15.183 15.889,4.5 33.155,1.44 47.712,-5.878 4.317,-1.756 9.258,-3.596 13.882,-2.49 1.385,1.924 -0.044,4.593 0.717,6.838 0.803,8.52 6.502,15.68 13.543,20.15 3.66,2.56 7.9,5.07 12.54,4.15 9.01,-0.71 18.25,-3.79 24.98,-9.96 5,-4.68 7.06,-12.43 4.03,-18.749 -2.31,-6.5 -7.94,-11.363 -10.18,-17.787 -1.11,-10.396 -0.33,-21.001 -2.26,-31.284 -2.03,-8.023 -8.33,-14.491 -15.93,-17.527 -1.25,-1.316 -3.58,-1.384 -4.61,-2.069 -3.18,-2.869 -7.55,-4.26 -11.386,-6.166 -5.005,-2.348 -10.496,-4.05 -16.072,-3.662 z m 3.526,14.052 c 2.795,1.315 2.03,9.309 -0.289,10.553 0.806,-5.957 -5.991,-7.477 -8.947,-6.393 1.305,-0.98 5.722,-6.295 9.236,-4.16 z M 12.436,48.846 c 6.819,3.15 2.212,7.415 -0.562,9.2 C 9.6338,58.035 8.9692,54.371 9.0679,52.744 9.4406,51.573 11.82,49.87 12.436,48.846 Z" />
      </g>
      <rect
         transform="matrix(0.83433232,0.5512618,-0.50067619,0.86563465,0,0)"
         y="547.57892"
         x="623.73651"
         height="68.640533"
         width="41.057987"
         id="rect3417"
         style="opacity:1;fill:#ffffff;fill-opacity:1;fill-rule:nonzero;stroke:none;stroke-width:5.34121037;stroke-linecap:round;stroke-linejoin:round;stroke-miterlimit:4;stroke-dasharray:none;stroke-dashoffset:0;stroke-opacity:1" />
    </g>
    <text
       xml:space="preserve"
       style="font-style:normal;font-variant:normal;font-weight:normal;font-stretch:normal;line-height:0%;font-family:'Aboriginal Serif';-inkscape-font-specification:'Aboriginal Serif, Normal';text-align:start;letter-spacing:0px;word-spacing:0px;writing-mode:lr-tb;text-anchor:start;fill:none;fill-opacity:1;stroke:#000000;stroke-width:1.03836px;stroke-linecap:butt;stroke-linejoin:miter;stroke-opacity:1"
       x="397.2471"
       y="1042.9337"
       id="text3356"><tspan
         sodipodi:role="line"
         id="tspan3358"
         x="397.2471"
         y="1042.9337"
         style="font-size:53.1845px;line-height:1;stroke-width:1.03836px">❦</tspan></text>
    <text
       xml:space="preserve"
       style="font-style:normal;font-variant:normal;font-weight:normal;font-stretch:normal;line-height:0%;font-family:'Aboriginal Sans';-inkscape-font-specification:'Aboriginal Sans';text-align:start;letter-spacing:0px;word-spacing:0px;writing-mode:lr-tb;text-anchor:start;fill:#000000;fill-opacity:1;stroke:none;stroke-width:1px;stroke-linecap:butt;stroke-linejoin:miter;stroke-opacity:1"
       x="636.40955"
       y="635.61029"
       id="text3424"
       transform="rotate(31.293149)"><tspan
         sodipodi:role="line"
         id="tspan3426"
         x="636.40955"
         y="635.61029"
         style="font-size:63.7948px;line-height:1">X</tspan></text>
    <path
       style="fill:#228b22;fill-rule:evenodd;stroke-width:0.162703;stroke-linecap:square;paint-order:stroke fill markers"
       d="m 412.18624,1017.8348 c -2.34372,-0.038 -4.47212,1.4565 -5.59614,3.4499 -1.11691,1.9308 -1.60637,4.19 -1.48819,6.4117 0.0155,5.9 3.82362,11.4166 9.01227,14.0585 2.51509,1.284 5.3924,1.9756 8.2167,1.7025 0.59596,-0.1095 0.46309,-1.022 -0.12494,-1.0083 -1.14869,0.022 -2.40019,-0.2776 -3.11883,-1.2496 -0.62283,-0.7325 -0.73283,-1.801 -0.42511,-2.686 0.71936,-1.6419 2.47957,-2.3918 3.94196,-3.2321 2.65334,-1.3601 5.53769,-2.6602 7.3206,-5.1667 1.32987,-1.8542 1.62437,-4.366 0.94202,-6.523 -0.70168,-2.1618 -2.54981,-4.0466 -4.86885,-4.3323 -2.36291,-0.3129 -4.6969,0.9532 -6.11708,2.7938 -0.5651,0.6713 -1.02924,1.4178 -1.46887,2.1748 -0.36916,-0.1368 -0.76491,-0.2688 -1.09471,-0.4656 -0.10229,-1.508 -0.21346,-3.1476 -1.23562,-4.3567 -0.92392,-1.1582 -2.46442,-1.5944 -3.89521,-1.5709 z"
       id="path116" />
    <path
       style="fill:#228b22;fill-rule:evenodd;stroke-width:0.162703;stroke-linecap:square;paint-order:stroke fill markers"
       d="m 427.30499,1036.8585 c -0.85937,-0.02 -1.30072,0.8538 -1.37628,1.5973 -0.33667,1.5359 -1.15589,3.1306 -2.67599,3.7678 -0.51919,0.1509 -0.66189,0.9746 -0.0597,1.1135 0.96341,-0.025 1.90047,-0.3939 2.80179,-0.7197 1.54321,-0.6417 3.21651,-1.6818 3.61126,-3.4277 0.28639,-1.2566 -0.92639,-2.364 -2.13443,-2.331 -0.0555,0 -0.11114,0 -0.16665,-2e-4 z"
       id="path155" />
    <path
       style="fill:#228b22;fill-rule:evenodd;stroke-width:0.162703;stroke-linecap:square;paint-order:stroke fill markers"
       d="m 432.65544,1005.5747 c -1.39335,-0.028 -2.52363,1.1623 -2.75409,2.4803 -0.19267,0.6734 -0.19805,1.5376 0.46244,1.9614 0.58469,0.3681 1.12898,0.8917 1.1623,1.6303 0.15332,0.8946 -0.13187,1.7761 -0.49421,2.5792 -0.12975,0.5692 0.62575,0.8041 0.9839,0.4359 1.96674,-1.2621 3.73512,-3.3262 3.7294,-5.7761 0.0272,-1.5625 -1.1084,-3.1876 -2.74602,-3.2984 -0.11423,-0.011 -0.22902,-0.015 -0.34372,-0.013 z"
       id="path194" />
    <path
       style="fill:#228b22;fill-rule:evenodd;stroke-width:0.162703;stroke-linecap:square;paint-order:stroke fill markers"
       d="m 417.86392,1005.7039 c -1.30029,-0.06 -2.2996,0.965 -3.14761,1.8035 -0.2451,0.5843 -0.0504,1.2942 -0.11364,1.9111 -1.57736,-1.2796 -3.30976,-2.5964 -5.37366,-2.8955 -1.2104,-0.091 -2.5722,-0.095 -3.59808,0.6388 -0.42613,0.421 0.11928,1.0432 0.62571,0.8746 1.58047,-0.1735 3.05719,0.6194 4.45492,1.2455 3.67279,1.7709 6.95991,4.2308 10.60381,6.0667 1.51037,0.6301 3.06544,1.4314 4.74189,1.3876 0.57152,-0.089 0.47924,-0.9497 -0.0691,-0.9955 -1.55863,-0.3971 -2.98176,-1.1588 -4.35342,-1.9764 -1.74149,-0.6937 -3.43767,-1.7127 -4.5445,-3.2609 -0.70833,-0.9686 -0.56237,-2.55 0.56216,-3.1415 1.10893,-0.5194 2.36197,0.1296 3.05021,1.0345 0.25696,0.3516 0.54303,0.9744 1.08513,0.7283 0.60152,-0.3617 0.1284,-1.0992 -0.18111,-1.4929 -0.76758,-1.1726 -2.12289,-2.0669 -3.56562,-1.929 -0.0591,4e-4 -0.11805,7e-4 -0.17708,10e-4 z"
       id="path233" />
    <path
       style="fill:#228b22;fill-rule:evenodd;stroke-width:0.162703;stroke-linecap:square;paint-order:stroke fill markers"
       d="m 401.36829,1010.7468 c -0.64158,0.1987 -0.85858,0.963 -1.20301,1.4732 -0.62285,1.2813 -1.19333,2.77 -0.81892,4.2055 0.26088,1.011 1.47158,1.5782 2.40836,1.0979 0.6179,-0.2895 1.3108,-0.8959 1.24807,-1.6372 -0.30218,-0.657 -0.9555,-1.1133 -1.15121,-1.841 -0.37319,-0.9366 -0.002,-1.9262 0.0688,-2.871 -0.0373,-0.2609 -0.29003,-0.4564 -0.55206,-0.4274 z"
       id="path272" />
    <path
       style="fill:#00ff00;fill-opacity:1;fill-rule:evenodd;stroke-width:0.694199;stroke-linecap:square;paint-order:stroke fill markers"
       d="m 263.05557,37.962293 c -2.08066,1.724641 -3.0723,4.578847 -4.63612,6.778738 -4.52049,7.762736 -9.08927,15.563856 -13.65948,23.254744 -5.22174,9.705615 -11.12596,19.047645 -16.28165,28.779338 0.59345,1.398023 2.29872,-0.443491 3.29856,-0.554327 7.9057,-3.570414 15.90071,-7.068097 23.67489,-10.852802 0.18925,-8.690481 -0.98743,-17.441503 -1.01451,-26.129702 1.84025,1.11254 3.6947,2.201751 5.51451,3.347736 0.73673,6.674697 1.04832,13.49016 1.6588,20.108657 2.29329,-0.468672 4.48877,-2.0421 6.79241,-2.833094 3.93183,-1.589142 7.84327,-3.593813 11.84112,-4.835273 1.96131,0.965057 3.8115,2.157002 5.57478,3.44603 -7.65481,3.650209 -15.5472,6.958414 -23.18088,10.711895 -0.73914,2.325016 0.013,5.056605 -0.13036,7.513821 0.27431,7.326996 0.76543,14.659696 0.96622,21.977966 -1.97438,-1.04407 -3.8067,-2.33274 -5.69962,-3.51347 -0.61024,-7.3664 -0.67811,-14.83599 -1.70831,-22.138395 -1.40476,-1.116797 -3.2862,0.647695 -4.75411,0.951355 -5.5809,2.367063 -11.12665,4.81586 -16.69049,7.22283 -2.20368,-1.0463 -4.20124,-3.192185 -6.69403,-3.393653 -0.92229,0.957299 -2.1481,2.551023 -1.83889,3.816253 11.99889,7.89763 23.91537,15.92394 35.99857,23.691 1.52084,-0.20132 1.72731,-2.48431 2.7055,-3.48766 11.55836,-19.76093 23.13647,-39.520157 34.2552,-59.530274 -0.44389,-1.56987 -2.72084,-2.012069 -3.8439,-3.141959 -10.6142,-7.101586 -21.18465,-14.288043 -31.93512,-21.176122 l -0.19444,-0.01578 z"
       id="path3544"
       transform="matrix(0.9375,0,0,0.9375,0,782.36218)" />
  </g>
</svg>
