<?xml version="1.0" encoding="UTF-8" standalone="no"?>
<!-- Created with Inkscape (http://www.inkscape.org/) -->

<svg
   width="480"
   height="288"
   id="svg2"
   version="1.1"
   inkscape:version="1.1.2 (0a00cf5339, 2022-02-04)"
   sodipodi:docname="nvya-red.svg"
   viewBox="0 0 450 270"
   inkscape:export-filename="nvya.png"
   inkscape:export-xdpi="300"
   inkscape:export-ydpi="300"
   xmlns:inkscape="http://www.inkscape.org/namespaces/inkscape"
   xmlns:sodipodi="http://sodipodi.sourceforge.net/DTD/sodipodi-0.dtd"
   xmlns="http://www.w3.org/2000/svg"
   xmlns:svg="http://www.w3.org/2000/svg"
   xmlns:rdf="http://www.w3.org/1999/02/22-rdf-syntax-ns#"
   xmlns:cc="http://creativecommons.org/ns#"
   xmlns:dc="http://purl.org/dc/elements/1.1/">
  <defs
     id="defs4" />
  <sodipodi:namedview
     id="base"
     pagecolor="#ffffff"
     bordercolor="#666666"
     borderopacity="1.0"
     inkscape:pageopacity="0.0"
     inkscape:pageshadow="2"
     inkscape:zoom="2.8"
     inkscape:cx="225"
     inkscape:cy="135"
     inkscape:document-units="px"
     inkscape:current-layer="layer1"
     showgrid="false"
     units="px"
     inkscape:window-width="1920"
     inkscape:window-height="1003"
     inkscape:window-x="0"
     inkscape:window-y="25"
     inkscape:window-maximized="1"
     borderlayer="true"
     showguides="true"
     inkscape:pagecheckerboard="0" />
  <metadata
     id="metadata7">
    <rdf:RDF>
      <cc:Work
         rdf:about="">
        <dc:format>image/svg+xml</dc:format>
        <dc:type
           rdf:resource="http://purl.org/dc/dcmitype/StillImage" />
      </cc:Work>
    </rdf:RDF>
  </metadata>
  <g
     inkscape:label="Layer 1"
     inkscape:groupmode="layer"
     id="layer1"
     transform="translate(0,-782.36218)">
    <rect
       style="opacity:1;fill:#ffffff;fill-opacity:1;fill-rule:nonzero;stroke:#000000;stroke-width:4.04577875;stroke-linecap:round;stroke-linejoin:round;stroke-miterlimit:4;stroke-dasharray:none;stroke-dashoffset:0;stroke-opacity:1"
       id="rect3749"
       width="445.95422"
       height="265.95422"
       x="2.0228882"
       y="784.38507" />
    <g
       id="g4789">
      <path
         style="clip-rule:evenodd;fill:#ffffff;fill-rule:evenodd;stroke:#000000"
         inkscape:connector-curvature="0"
         d="m 122.70608,960.5027 c -1.537,-9.041 19.009,-11.71 22.849,-19.931 4.611,-9.868 2.499,-27.746 9.413,-37.614 6.144,-9.047 7.681,-19.729 13.825,-29.592 5.379,-9.047 15.363,-15.625 23.046,-22.196 9.982,-9.049 17.663,-16.446 31.494,-14.801 9.985,1.642 14.597,9.039 23.045,17.263 16.128,15.618 21.507,39.459 39.172,53.438 9.22,7.397 20.743,12.327 30.73,20.553 9.983,9.041 12.291,16.441 18.434,28.772 5.381,9.86 13.829,18.085 2.303,24.66 -6.911,3.292 -22.276,0.824 -30.724,1.647 -34.566,2.46 -69.136,3.284 -103.7,3.284 -27.654,0 -60.686,-6.569 -81.423,-26.302"
         id="path4765" />
      <g
         transform="translate(-83.393923,767.4827)"
         style="fill:#000000;stroke:#000000"
         id="g4767">
        <path
           style="fill:#000000;stroke:#000000"
           inkscape:connector-curvature="0"
           d="m 209,192.24 c -0.442,-4.355 4.055,-6.564 7.308,-8.328 3.913,-2.121 7.954,-3.943 11.544,-6.607 7.74,-5.743 7.054,-18.474 8.331,-27.025 0.89,-5.962 2.496,-11.223 5.782,-16.3 3.765,-5.816 5.809,-12.628 8.373,-19.01 2.648,-6.59 6.222,-12.377 11.178,-17.455 4.869,-4.99 10.686,-9.024 16.001,-13.512 4.71,-3.976 8.946,-8.322 14.358,-11.388 7.173,-4.063 15.647,-2.952 22.14,1.76 4.901,3.559 8.768,8.606 13.053,12.845 4.868,4.818 8.828,10.315 12.434,16.121 6.311,10.16 11.519,20.968 19.299,30.146 8.802,10.383 21.544,16.007 32.593,23.53 9.153,6.233 14.984,14.396 19.751,24.241 2.427,5.011 4.847,9.885 7.775,14.625 2.292,3.71 5.222,8.084 3.963,12.625 -1.644,5.932 -9.929,5.382 -14.642,5.376 -5.045,-0.006 -10.08,-0.386 -15.126,-0.263 -14.034,0.342 -28.094,1.754 -42.133,2.301 -13.953,0.544 -27.916,0.844 -41.879,1.007 -12.995,0.152 -26.046,0.526 -38.997,-0.748 -22.615,-2.228 -45.907,-9.296 -62.834,-25.058 -1.339,-1.247 -6.731,0.923 -5.413,2.15 18.21,16.958 43.371,23.856 67.62,26.024 14.338,1.282 28.878,0.66 43.249,0.46 16.627,-0.232 33.248,-0.738 49.857,-1.538 14.014,-0.676 27.835,-1.755 41.863,-1.449 8.432,0.184 20.157,-0.077 24.197,-9.106 1.785,-3.99 -1.275,-8.871 -3.21,-12.149 -3.309,-5.608 -6.271,-11.213 -9.11,-17.077 -5.546,-11.454 -13.096,-19.526 -23.819,-26.413 -11.33,-7.278 -22.63,-13.273 -31.063,-24.099 -7.586,-9.74 -12.695,-21.188 -19.55,-31.425 -3.435,-5.129 -7.534,-9.483 -11.841,-13.869 -4.146,-4.223 -7.995,-9.154 -13.203,-12.142 -9.309,-5.341 -20.619,-3.659 -29.643,1.452 -4.834,2.738 -8.975,6.636 -13.065,10.343 -4.935,4.472 -10.371,8.352 -15.324,12.809 -10.288,9.259 -13.925,21.046 -19.273,33.362 -2.387,5.495 -6.029,9.939 -7.712,15.758 -1.711,5.913 -2.081,12.199 -2.941,18.271 -0.645,4.552 -1.308,10.31 -4.876,13.586 -3.387,3.11 -8.13,4.839 -12.13,7.007 -4.099,2.223 -9.219,5.404 -8.681,10.715 0.16,1.62 5.99,0.41 5.79,-1.54 z"
           id="path4769" />
      </g>
    </g>
    <g
       id="layer1-9"
       inkscape:label="Layer 1"
       transform="translate(-35.756307,507.10901)">
      <g
         id="Layer_1"
         transform="translate(-244.49951,955.86218)" />
    </g>
    <path
       style="fill:#ff0000;fill-rule:evenodd;stroke-width:0.674916;stroke-linecap:square;paint-order:stroke fill markers"
       d="m 231.4488,59.22433 c -8.43769,0.287938 -14.73511,6.750543 -20.85031,11.779437 -10.1169,8.914136 -22.22803,16.414839 -28.72363,28.659501 -5.2968,9.432892 -7.60857,20.242162 -13.58003,29.323562 -6.23987,10.44288 -4.93189,23.11945 -7.81624,34.47435 -1.16083,4.74245 -4.09045,8.9917 -8.39223,11.39373 -5.24253,3.55332 -11.46721,5.61909 -16.27023,9.79841 -1.42618,1.49783 -2.50543,4.32698 -0.42271,5.78125 11.64047,9.67424 25.74891,16.19248 40.37152,19.89927 15.47046,3.95283 31.48152,5.40589 47.42284,5.07805 29.27694,-0.0794 58.58015,-0.61744 87.78299,-2.71168 14.78321,-0.93112 29.6157,-0.4446 44.40381,-1.19282 4.07648,-0.4162 7.57861,-4.31061 6.7334,-8.50376 -1.227,-6.09345 -5.58317,-10.90229 -8.11125,-16.45883 -6.01174,-11.14046 -11.09064,-23.57991 -21.51277,-31.46319 -13.05815,-10.4524 -29.66719,-16.522 -40.18409,-30.00192 C 280.25018,109.79882 273.28773,90.839519 259.32059,76.973354 254.07593,71.845491 249.37392,65.959946 243.15081,61.964286 239.6017,59.975152 235.49993,59.115657 231.4488,59.22433 Z"
       id="path117"
       transform="matrix(0.9375,0,0,0.9375,0,782.36218)" />
  </g>
</svg>
