<?xml version="1.0" encoding="UTF-8" standalone="no"?>
<!-- Created with Inkscape (http://www.inkscape.org/) -->

<svg
   width="480"
   height="288"
   id="svg2"
   version="1.1"
   inkscape:version="1.1.2 (0a00cf5339, 2022-02-04)"
   sodipodi:docname="squares-green.svg"
   viewBox="0 0 450 270"
   inkscape:export-filename="squares-white-with-leaf.png"
   inkscape:export-xdpi="300"
   inkscape:export-ydpi="300"
   xmlns:inkscape="http://www.inkscape.org/namespaces/inkscape"
   xmlns:sodipodi="http://sodipodi.sourceforge.net/DTD/sodipodi-0.dtd"
   xmlns="http://www.w3.org/2000/svg"
   xmlns:svg="http://www.w3.org/2000/svg"
   xmlns:rdf="http://www.w3.org/1999/02/22-rdf-syntax-ns#"
   xmlns:cc="http://creativecommons.org/ns#"
   xmlns:dc="http://purl.org/dc/elements/1.1/">
  <defs
     id="defs4" />
  <sodipodi:namedview
     id="base"
     pagecolor="#ffffff"
     bordercolor="#666666"
     borderopacity="1.0"
     inkscape:pageopacity="0.0"
     inkscape:pageshadow="2"
     inkscape:zoom="2.7222222"
     inkscape:cx="239.87755"
     inkscape:cy="144"
     inkscape:document-units="px"
     inkscape:current-layer="layer1"
     showgrid="false"
     units="px"
     inkscape:window-width="1920"
     inkscape:window-height="1003"
     inkscape:window-x="0"
     inkscape:window-y="25"
     inkscape:window-maximized="1"
     borderlayer="true"
     showguides="false"
     inkscape:pagecheckerboard="0" />
  <metadata
     id="metadata7">
    <rdf:RDF>
      <cc:Work
         rdf:about="">
        <dc:format>image/svg+xml</dc:format>
        <dc:type
           rdf:resource="http://purl.org/dc/dcmitype/StillImage" />
      </cc:Work>
    </rdf:RDF>
  </metadata>
  <g
     inkscape:label="Layer 1"
     inkscape:groupmode="layer"
     id="layer1"
     transform="translate(0,-782.36218)">
    <rect
       style="opacity:1;fill:#ffffff;fill-opacity:1;fill-rule:nonzero;stroke:#000000;stroke-width:4.04577875;stroke-linecap:round;stroke-linejoin:round;stroke-miterlimit:4;stroke-dasharray:none;stroke-dashoffset:0;stroke-opacity:1"
       id="rect3749"
       width="445.95422"
       height="265.95422"
       x="2.0228882"
       y="784.38507" />
    <g
       id="layer1-9"
       inkscape:label="Layer 1"
       transform="translate(-35.756307,507.10901)">
      <g
         id="Layer_1"
         transform="translate(-244.49951,955.86218)" />
    </g>
    <g
       id="g3363"
       transform="translate(-86.64286,0.17859388)">
      <rect
         y="847.7193"
         x="157.5"
         height="138.92857"
         width="144.28572"
         id="rect3347"
         style="opacity:1;fill:#ffffff;fill-opacity:1;fill-rule:nonzero;stroke:#000000;stroke-width:4;stroke-linecap:round;stroke-linejoin:round;stroke-miterlimit:4;stroke-dasharray:none;stroke-dashoffset:0;stroke-opacity:1" />
      <rect
         style="opacity:1;fill:#ffffff;fill-opacity:1;fill-rule:nonzero;stroke:#000000;stroke-width:4;stroke-linecap:round;stroke-linejoin:round;stroke-miterlimit:4;stroke-dasharray:none;stroke-dashoffset:0;stroke-opacity:1"
         id="rect3361"
         width="144.28572"
         height="138.92857"
         x="321.5"
         y="847.7193" />
    </g>
    <text
       xml:space="preserve"
       style="font-style:normal;font-variant:normal;font-weight:normal;font-stretch:normal;line-height:0%;font-family:'Aboriginal Serif';-inkscape-font-specification:'Aboriginal Serif, Normal';text-align:start;letter-spacing:0px;word-spacing:0px;writing-mode:lr-tb;text-anchor:start;fill:none;fill-opacity:1;stroke:#000000;stroke-width:1.03836px;stroke-linecap:butt;stroke-linejoin:miter;stroke-opacity:1"
       x="397.2471"
       y="1042.9337"
       id="text3356"><tspan
         sodipodi:role="line"
         id="tspan3358"
         x="397.2471"
         y="1042.9337"
         style="font-size:53.1845px;line-height:1;stroke-width:1.03836px">❦</tspan></text>
    <path
       style="fill:#228b22;fill-rule:evenodd;stroke-width:0.168574;stroke-linecap:square;paint-order:stroke fill markers"
       d="m 439.34637,251.19871 c -2.27522,0.003 -4.29563,1.54559 -5.49595,3.38729 -2.0631,3.29783 -2.17506,7.48863 -1.16403,11.1579 1.87972,6.73523 8.09803,12.12226 15.1014,12.74404 0.77617,0.009 1.59924,0.17265 2.34942,-0.072 0.52559,-0.30221 0.14994,-1.0725 -0.39706,-1.02811 -1.72595,0.0663 -3.46271,-1.43737 -3.32684,-3.22561 -0.0297,-1.51108 1.30684,-2.5421 2.4423,-3.3014 2.95332,-1.79216 6.40774,-3.00762 8.89317,-5.5247 1.35984,-1.4707 2.28131,-3.43844 2.18338,-5.47242 0.0956,-1.2224 -0.17768,-2.43545 -0.7225,-3.52842 -0.97685,-1.90759 -2.84219,-3.54645 -5.05979,-3.65763 -2.34713,-0.22136 -4.62034,0.98411 -6.09012,2.76391 -0.67953,0.77847 -1.25178,1.66344 -1.75359,2.5513 -0.3713,-0.20686 -0.96997,-0.2512 -1.21064,-0.55274 -0.0149,-1.84515 -0.30512,-3.94921 -1.85433,-5.16935 -1.08989,-0.89114 -2.51721,-1.16792 -3.89482,-1.07201 z"
       id="path99"
       transform="matrix(0.9375,0,0,0.9375,0,782.36218)" />
    <path
       style="fill:#228b22;fill-rule:evenodd;stroke-width:0.168574;stroke-linecap:square;paint-order:stroke fill markers"
       d="m 455.96558,271.48153 c -0.71558,-0.0379 -1.51817,0.4094 -1.54078,1.19471 -0.34086,1.62013 -0.93667,3.45875 -2.52843,4.27354 -0.46598,0.17857 -1.24457,0.62171 -0.79987,1.20512 0.57837,0.44633 1.35939,0.003 1.98876,-0.10147 1.96113,-0.55842 4.05513,-1.5625 4.97399,-3.4942 0.54453,-1.0491 0.0576,-2.459 -1.06417,-2.87978 -0.32455,-0.13615 -0.67795,-0.20111 -1.0295,-0.19792 z"
       id="path138"
       transform="matrix(0.9375,0,0,0.9375,0,782.36218)" />
    <path
       style="fill:#228b22;fill-rule:evenodd;stroke-width:0.168574;stroke-linecap:square;paint-order:stroke fill markers"
       d="m 461.50021,238.04554 c -1.84722,0.0245 -3.12401,1.94002 -3.04723,3.66884 -0.16103,0.86474 0.81443,1.13329 1.27919,1.67797 0.78176,0.75525 0.64823,1.98441 0.43504,2.94703 -0.14229,0.50491 -0.76328,1.11853 -0.25611,1.59085 0.6242,0.3475 1.17825,-0.37567 1.652,-0.68679 1.40923,-1.167 2.77596,-2.59807 3.11882,-4.46576 0.40227,-1.67629 -0.22571,-3.73261 -1.90621,-4.44937 -0.40072,-0.17483 -0.83725,-0.28056 -1.2755,-0.28277 z"
       id="path177"
       transform="matrix(0.9375,0,0,0.9375,0,782.36218)" />
    <path
       style="fill:#228b22;fill-rule:evenodd;stroke-width:0.168574;stroke-linecap:square;paint-order:stroke fill markers"
       d="m 445.97618,238.17795 c -1.46834,-0.0219 -2.71689,0.96993 -3.59598,2.04145 -0.16819,0.63993 -0.029,1.35054 -0.0758,2.01923 -1.92902,-1.53001 -4.07829,-3.19438 -6.65976,-3.20678 -0.97186,0.008 -2.01604,0.13353 -2.85784,0.64479 -0.4797,0.41464 0.0301,1.10015 0.57738,1.02846 1.6621,-0.0631 3.23123,0.57686 4.67998,1.30677 3.68311,1.83071 7.09484,4.22766 10.72226,6.20409 1.58119,0.72005 3.18656,1.52646 4.9278,1.75358 0.43314,0.0814 1.08549,0.004 1.03926,-0.58435 -0.21484,-0.64392 -1.05678,-0.57798 -1.57577,-0.83851 -1.38821,-0.43041 -2.5518,-1.32595 -3.85805,-1.92584 -1.89699,-0.83424 -3.89027,-2.0231 -4.75664,-4.00083 -0.31373,-0.88672 -0.047,-1.98726 0.78123,-2.50554 1.039,-0.70322 2.48036,-0.11056 3.22997,0.76746 0.34886,0.38724 0.75733,1.16912 1.38126,0.8213 0.55547,-0.44992 -0.0313,-1.1049 -0.3042,-1.53858 -0.82105,-1.18277 -2.1907,-2.01548 -3.65508,-1.9867 z"
       id="path216"
       transform="matrix(0.9375,0,0,0.9375,0,782.36218)" />
    <path
       style="fill:#228b22;fill-rule:evenodd;stroke-width:0.168574;stroke-linecap:square;paint-order:stroke fill markers"
       d="m 428.05376,243.56344 c -0.63291,0.34369 -0.87378,1.11996 -1.24451,1.70286 -0.59104,1.26643 -1.17636,2.6827 -0.93679,4.10565 0.19309,1.11654 1.43442,2.08127 2.54631,1.53214 0.62264,-0.32864 1.27396,-0.8306 1.50217,-1.51872 -0.0441,-0.70176 -0.77147,-1.11458 -1.02619,-1.73965 -0.52445,-0.87138 -0.44513,-1.97062 -0.26127,-2.9322 0.18736,-0.47739 0.15005,-1.29809 -0.57972,-1.15008 z"
       id="path255"
       transform="matrix(0.9375,0,0,0.9375,0,782.36218)" />
    <path
       style="fill:#00ff00;fill-rule:evenodd;stroke-width:0.70499;stroke-linecap:square;paint-order:stroke fill markers"
       d="m 77.576911,72.062662 c -0.251611,22.326136 -0.03595,44.731128 -0.107837,67.087598 0,25.49223 0,50.98446 0,76.47668 1.613555,1.16402 4.410715,0.16868 6.46875,0.49984 47.751296,0 95.502586,0 143.253886,0 1.16401,-1.61355 0.16867,-4.41071 0.49984,-6.46875 0,-45.76166 0,-91.52331 0,-137.284973 -1.61356,-1.164013 -4.41072,-0.168675 -6.46875,-0.499838 -47.7513,0 -95.50259,0 -143.253888,0 l -0.33589,0.162326 z"
       id="path331"
       transform="matrix(0.9375,0,0,0.9375,0,782.36218)" />
    <path
       style="fill:#00ff00;fill-rule:evenodd;stroke-width:0.70499;stroke-linecap:square;paint-order:stroke fill markers"
       d="m 252.54064,72.062662 c -0.25161,22.326136 -0.0359,44.731128 -0.10784,67.087598 0,25.49223 0,50.98446 0,76.47668 1.61356,1.16402 4.41072,0.16868 6.46875,0.49984 47.7513,0 95.5026,0 143.25389,0 1.16401,-1.61355 0.16867,-4.41071 0.49984,-6.46875 0,-45.76166 0,-91.52331 0,-137.284973 -1.61356,-1.164013 -4.41072,-0.168675 -6.46875,-0.499838 -47.7513,0 -95.50259,0 -143.25389,0 l -0.33589,0.162326 z"
       id="path370"
       transform="matrix(0.9375,0,0,0.9375,0,782.36218)" />
  </g>
</svg>
