<?xml version="1.0" encoding="UTF-8" standalone="no"?>
<!-- Created with Inkscape (http://www.inkscape.org/) -->

<svg
   width="480"
   height="288"
   id="svg2"
   version="1.1"
   inkscape:version="1.1.2 (0a00cf5339, 2022-02-04)"
   sodipodi:docname="square-green.svg"
   viewBox="0 0 450 270"
   inkscape:export-filename="square-white-with-leaf.png"
   inkscape:export-xdpi="300"
   inkscape:export-ydpi="300"
   xmlns:inkscape="http://www.inkscape.org/namespaces/inkscape"
   xmlns:sodipodi="http://sodipodi.sourceforge.net/DTD/sodipodi-0.dtd"
   xmlns="http://www.w3.org/2000/svg"
   xmlns:svg="http://www.w3.org/2000/svg"
   xmlns:rdf="http://www.w3.org/1999/02/22-rdf-syntax-ns#"
   xmlns:cc="http://creativecommons.org/ns#"
   xmlns:dc="http://purl.org/dc/elements/1.1/">
  <defs
     id="defs4" />
  <sodipodi:namedview
     id="base"
     pagecolor="#ffffff"
     bordercolor="#666666"
     borderopacity="1.0"
     inkscape:pageopacity="0.0"
     inkscape:pageshadow="2"
     inkscape:zoom="2.6805556"
     inkscape:cx="239.87565"
     inkscape:cy="146.23834"
     inkscape:document-units="px"
     inkscape:current-layer="layer1"
     showgrid="false"
     units="px"
     inkscape:window-width="1920"
     inkscape:window-height="1003"
     inkscape:window-x="0"
     inkscape:window-y="25"
     inkscape:window-maximized="1"
     borderlayer="true"
     showguides="false"
     inkscape:pagecheckerboard="0" />
  <metadata
     id="metadata7">
    <rdf:RDF>
      <cc:Work
         rdf:about="">
        <dc:format>image/svg+xml</dc:format>
        <dc:type
           rdf:resource="http://purl.org/dc/dcmitype/StillImage" />
      </cc:Work>
    </rdf:RDF>
  </metadata>
  <g
     inkscape:label="Layer 1"
     inkscape:groupmode="layer"
     id="layer1"
     transform="translate(0,-782.36218)">
    <rect
       style="opacity:1;fill:#ffffff;fill-opacity:1;fill-rule:nonzero;stroke:#000000;stroke-width:4.04577875;stroke-linecap:round;stroke-linejoin:round;stroke-miterlimit:4;stroke-dasharray:none;stroke-dashoffset:0;stroke-opacity:1"
       id="rect3749"
       width="445.95422"
       height="265.95422"
       x="2.0228882"
       y="784.38507" />
    <g
       id="layer1-9"
       inkscape:label="Layer 1"
       transform="translate(-35.756307,507.10901)">
      <g
         id="Layer_1"
         transform="translate(-244.49951,955.86218)" />
    </g>
    <rect
       style="opacity:1;fill:#ffffff;fill-opacity:1;fill-rule:nonzero;stroke:#000000;stroke-width:4;stroke-linecap:round;stroke-linejoin:round;stroke-miterlimit:4;stroke-dasharray:none;stroke-dashoffset:0;stroke-opacity:1"
       id="rect3347"
       width="144.28572"
       height="138.92857"
       x="157.5"
       y="847.7193" />
    <text
       xml:space="preserve"
       style="font-style:normal;font-variant:normal;font-weight:normal;font-stretch:normal;line-height:0%;font-family:'Aboriginal Serif';-inkscape-font-specification:'Aboriginal Serif, Normal';text-align:start;letter-spacing:0px;word-spacing:0px;writing-mode:lr-tb;text-anchor:start;fill:none;fill-opacity:1;stroke:#000000;stroke-width:1.03836px;stroke-linecap:butt;stroke-linejoin:miter;stroke-opacity:1"
       x="397.2471"
       y="1042.9337"
       id="text3356"><tspan
         sodipodi:role="line"
         id="tspan3358"
         x="397.2471"
         y="1042.9337"
         style="font-size:53.1845px;line-height:1;stroke-width:1.03836px">❦</tspan></text>
    <path
       style="fill:#00ff00;fill-rule:evenodd;stroke-width:0.650812;stroke-linecap:square;paint-order:stroke fill markers"
       d="m 170.08248,71.663594 c -0.25736,16.941798 -0.0368,33.965246 -0.11031,50.938446 0,30.9949 0,61.9898 0,92.98469 1.46963,1.14604 4.09827,0.1814 6.00997,0.49977 47.8699,0 95.7398,0 143.6097,0 1.14603,-1.46963 0.18139,-4.09827 0.49976,-6.00997 0,-46.03316 0,-92.06632 0,-138.099489 -1.46963,-1.146032 -4.09826,-0.181393 -6.00997,-0.499766 -47.86989,0 -95.73979,0 -143.60969,0 l -0.31067,0.148626 z"
       id="path95"
       transform="matrix(0.9375,0,0,0.9375,0,782.36218)" />
    <path
       style="fill:#228b22;fill-rule:evenodd;stroke-width:0.115048;stroke-linecap:square;paint-order:stroke fill markers"
       d="m 439.61134,251.13947 c -2.31166,9.8e-4 -4.45827,1.38193 -5.68784,3.29501 -1.79188,2.75314 -2.16032,6.22142 -1.67691,9.41361 0.98283,6.47299 5.97491,12.05196 12.19184,13.99285 3.50205,1.10659 7.46979,1.06243 10.7957,-0.58889 1.29671,-0.68347 2.62256,-1.69137 3.00474,-3.17924 0.27529,-0.97483 -0.29084,-2.05749 -1.23674,-2.40689 -0.73539,-0.2747 -1.7794,-0.39576 -2.30998,0.31903 -0.39298,0.64216 -0.35582,1.44141 -0.65363,2.12579 -0.43143,1.32218 -1.2858,2.651 -2.69036,3.06575 -1.11976,0.30456 -2.40507,0.33002 -3.42139,-0.30737 -1.19848,-0.69673 -1.90167,-2.27286 -1.34293,-3.59698 0.31096,-0.91277 1.10682,-1.54067 1.84305,-2.11026 2.88854,-1.89579 6.31041,-2.96744 8.87099,-5.35663 1.75666,-1.56552 2.78643,-3.90658 2.70394,-6.26257 -0.0409,-2.70837 -1.62806,-5.44976 -4.17728,-6.5077 -2.26827,-0.87672 -4.96498,-0.26068 -6.7538,1.35074 -1.16015,0.99278 -2.00631,2.28232 -2.78499,3.58036 -0.37588,-0.13832 -0.74763,-0.28749 -1.12092,-0.43258 -0.0726,-1.73456 -0.27337,-3.65531 -1.56242,-4.95183 -1.01004,-1.1052 -2.5498,-1.44278 -3.99107,-1.4422 z"
       id="path208"
       transform="matrix(0.9375,0,0,0.9375,0,782.36218)" />
    <path
       style="fill:#228b22;fill-rule:evenodd;stroke-width:0.115048;stroke-linecap:square;paint-order:stroke fill markers"
       d="m 445.90906,238.16007 c -1.32273,-0.0295 -2.43594,0.81913 -3.29848,1.73747 -0.54158,0.39926 -0.26604,1.12622 -0.33231,1.6938 -0.034,0.21195 0.12001,0.8312 -0.19916,0.43816 -1.79645,-1.47501 -3.86346,-2.90789 -6.26645,-3.01473 -1.14698,-0.0214 -2.33964,0.18625 -3.34102,0.76254 -0.43673,0.31704 -0.10878,1.01743 0.40143,0.96813 0.88878,3.8e-4 1.8027,-0.0761 2.65119,0.25596 2.39952,0.7775 4.57349,2.09886 6.74108,3.36145 2.14084,1.27244 4.22002,2.65325 6.41051,3.83966 1.45468,0.68752 2.94416,1.35408 4.5197,1.70732 0.48784,0.0297 1.03721,0.19228 1.49077,-0.051 0.40196,-0.30286 0.1316,-0.92189 -0.33163,-0.95897 -1.52727,-0.36607 -2.94473,-1.07226 -4.2658,-1.90766 -0.9865,-0.52147 -2.07042,-0.8887 -2.97103,-1.54049 -1.11508,-0.76604 -2.20944,-1.74139 -2.64304,-3.06182 -0.14432,-0.79184 0.058,-1.67989 0.72972,-2.18204 0.97097,-0.75959 2.3754,-0.33275 3.14898,0.50547 0.51946,0.47493 0.82557,1.11321 1.16373,1.71438 0.2781,0.46388 1.05438,0.21607 1.00535,-0.32473 -0.19118,-1.00121 -0.74137,-1.93151 -1.45396,-2.65638 -0.82803,-0.83043 -1.98273,-1.31771 -3.15958,-1.28654 z"
       id="path247"
       transform="matrix(0.9375,0,0,0.9375,0,782.36218)" />
    <path
       style="fill:#228b22;fill-rule:evenodd;stroke-width:0.115048;stroke-linecap:square;paint-order:stroke fill markers"
       d="m 461.49356,238.03891 c -1.43628,-0.004 -2.6101,1.20204 -2.91938,2.54565 -0.16011,0.69891 -0.35454,1.62418 0.30916,2.13234 0.5517,0.4116 1.19967,0.81548 1.35505,1.54173 0.19939,0.96533 0.091,2.03026 -0.45348,2.86372 -0.29713,0.34476 -0.12278,0.97051 0.37238,0.97456 0.55818,-0.0726 0.96702,-0.54237 1.42806,-0.83044 1.77764,-1.31076 3.22966,-3.33945 3.24244,-5.6183 0.0335,-1.51133 -0.94392,-3.0459 -2.42173,-3.47967 -0.29525,-0.0889 -0.60404,-0.13426 -0.9125,-0.12959 z"
       id="path286"
       transform="matrix(0.9375,0,0,0.9375,0,782.36218)" />
    <path
       style="fill:#228b22;fill-rule:evenodd;stroke-width:0.115048;stroke-linecap:square;paint-order:stroke fill markers"
       d="m 428.31078,243.26363 c -0.53402,0.17121 -0.75448,0.77396 -1.07153,1.18771 -0.86229,1.41267 -1.55066,3.06188 -1.39755,4.74794 0.0637,1.09598 1.16467,2.14727 2.28965,1.81438 0.77892,-0.26034 1.61429,-0.81692 1.77288,-1.67645 -0.01,-0.66653 -0.68077,-1.04175 -0.956,-1.59738 -0.65987,-1.05955 -0.52788,-2.41799 -0.1371,-3.55005 0.23052,-0.40278 0.0335,-0.99271 -0.50035,-0.92615 z"
       id="path325"
       transform="matrix(0.9375,0,0,0.9375,0,782.36218)" />
  </g>
</svg>
