<?xml version="1.0" encoding="UTF-8" standalone="no"?>
<!-- Created with Inkscape (http://www.inkscape.org/) -->

<svg
   width="480"
   height="288"
   id="svg2"
   version="1.1"
   inkscape:version="1.1.2 (0a00cf5339, 2022-02-04)"
   sodipodi:docname="wesa-tali-dead-brown.svg"
   viewBox="0 0 450 270"
   inkscape:export-filename="wesa-tali-dead.png"
   inkscape:export-xdpi="300"
   inkscape:export-ydpi="300"
   xmlns:inkscape="http://www.inkscape.org/namespaces/inkscape"
   xmlns:sodipodi="http://sodipodi.sourceforge.net/DTD/sodipodi-0.dtd"
   xmlns="http://www.w3.org/2000/svg"
   xmlns:svg="http://www.w3.org/2000/svg"
   xmlns:rdf="http://www.w3.org/1999/02/22-rdf-syntax-ns#"
   xmlns:cc="http://creativecommons.org/ns#"
   xmlns:dc="http://purl.org/dc/elements/1.1/">
  <defs
     id="defs4" />
  <sodipodi:namedview
     id="base"
     pagecolor="#ffffff"
     bordercolor="#666666"
     borderopacity="1.0"
     inkscape:pageopacity="0.0"
     inkscape:pageshadow="2"
     inkscape:zoom="2.7222222"
     inkscape:cx="239.87755"
     inkscape:cy="144"
     inkscape:document-units="px"
     inkscape:current-layer="layer1"
     showgrid="false"
     units="px"
     inkscape:window-width="1920"
     inkscape:window-height="1003"
     inkscape:window-x="0"
     inkscape:window-y="25"
     inkscape:window-maximized="1"
     borderlayer="true"
     showguides="true"
     inkscape:pagecheckerboard="0" />
  <metadata
     id="metadata7">
    <rdf:RDF>
      <cc:Work
         rdf:about="">
        <dc:format>image/svg+xml</dc:format>
        <dc:type
           rdf:resource="http://purl.org/dc/dcmitype/StillImage" />
      </cc:Work>
    </rdf:RDF>
  </metadata>
  <g
     inkscape:label="Layer 1"
     inkscape:groupmode="layer"
     id="layer1"
     transform="translate(0,-782.36218)">
    <rect
       style="opacity:1;fill:#ffffff;fill-opacity:1;fill-rule:nonzero;stroke:#000000;stroke-width:4.04577875;stroke-linecap:round;stroke-linejoin:round;stroke-miterlimit:4;stroke-dasharray:none;stroke-dashoffset:0;stroke-opacity:1"
       id="rect3749"
       width="445.95422"
       height="265.95422"
       x="2.0228882"
       y="784.38507" />
    <g
       id="layer1-9"
       inkscape:label="Layer 1"
       transform="translate(-35.756307,507.10901)">
      <g
         id="Layer_1"
         transform="translate(-244.49951,955.86218)" />
    </g>
    <g
       id="g3372"
       transform="matrix(0.5772175,0,0,0.5772175,-6.4335122,387.84468)">
      <g
         transform="translate(0,2.7044521)"
         id="g4728">
        <path
           id="path3568"
           d="m 162.46954,812.09859 c 15.34346,1.22404 30.93835,5.71658 43.08608,15.49565 8.35653,-4.16173 17.67245,-6.89431 27.0876,-5.99448 6.88768,0.46315 13.46441,2.85829 19.63751,5.82906 12.0088,-9.73936 27.51767,-14.01356 42.68911,-15.33685 0.2845,8.23745 -0.72119,16.50796 -2.95093,24.44103 -1.84598,6.18635 -4.52562,12.35946 -9.19682,16.95126 14.99941,18.45979 26.65093,39.45367 35.77495,61.36724 -27.6566,-9.11743 -57.64219,-10.28853 -86.15231,-4.77706 -2.12387,0.44331 -4.32713,0.483 -6.43115,-0.0529 -28.18593,-6.45101 -58.2046,-5.74305 -85.71564,3.43392 4.28082,-10.81784 9.61364,-21.19238 15.37654,-31.28241 5.70997,-9.90477 12.12789,-19.41255 19.40594,-28.23223 -7.61549,-7.6949 -10.53994,-18.67814 -11.8963,-29.11884 -0.49624,-4.22788 -0.78074,-8.46901 -0.71458,-12.72336 m 98.93523,21.36439 c 5.55117,5.11449 11.43977,9.85185 17.02403,14.93326 1.29682,-0.18527 2.10402,-1.66072 2.99724,-2.55395 4.65134,-6.3319 5.67688,-14.54287 5.6041,-22.19806 -9.20344,0.85352 -18.53919,3.65225 -25.62537,9.81875 m -91.02861,-9.70627 c 0.17863,8.81968 1.40929,19.03542 8.67411,25.01666 5.88861,-4.92261 11.79707,-9.86507 17.40779,-15.10528 -7.22513,-6.20619 -16.66675,-9.3556 -26.0819,-9.91138 m 24.13667,51.6014 c -3.16264,2.00477 -4.12864,6.09372 -4.14187,9.61366 0.19848,3.16264 1.10494,6.68919 3.7912,8.66088 1.93199,1.38283 4.72412,0.57562 5.99447,-1.32983 3.00386,-4.15511 3.09649,-10.12311 0.60209,-14.53626 -1.16449,-2.13717 -3.90368,-3.83097 -6.24589,-2.40845 m 65.43633,-0.0992 c -3.28175,1.94522 -4.35361,6.16649 -4.26097,9.75258 0.10591,3.33468 1.20418,7.21851 4.32713,8.93216 2.32898,1.21081 4.96232,-0.47638 6.06064,-2.58039 2.31574,-4.20804 2.28265,-9.71952 -0.19849,-13.84816 -1.14465,-1.98493 -3.71843,-3.44715 -5.92831,-2.25619 z"
           inkscape:connector-curvature="0"
           style="fill:#ffffff" />
        <text
           xml:space="preserve"
           style="font-style:normal;font-variant:normal;font-weight:normal;font-stretch:normal;line-height:0%;font-family:'Aboriginal Sans';-inkscape-font-specification:'Aboriginal Sans';text-align:start;letter-spacing:0px;word-spacing:0px;writing-mode:lr-tb;text-anchor:start;fill:#000000;fill-opacity:1;stroke:none;stroke-width:1px;stroke-linecap:butt;stroke-linejoin:miter;stroke-opacity:1"
           x="186.71597"
           y="894.50464"
           id="text4720"><tspan
             sodipodi:role="line"
             id="tspan4722"
             x="186.71597"
             y="894.50464"
             style="font-size:30px;line-height:1">X</tspan></text>
        <path
           id="path3566"
           d="m 159.28042,808.40002 c 1.932,-1.93862 4.79029,-1.13141 7.17882,-0.87331 14.05987,1.71365 28.16607,5.882 39.69186,14.37086 9.3093,-4.32714 19.80293,-6.35838 30.01866,-4.81014 5.37254,0.69473 10.5201,2.50101 15.48904,4.59841 11.56549,-8.36315 25.63197,-12.51826 39.672,-14.18558 2.23635,-0.23158 4.88953,-0.96601 6.75536,0.74103 2.02462,1.56147 1.86584,4.32051 1.83937,6.60979 -0.21173,13.55711 -2.81198,27.6103 -10.64581,38.9509 14.13927,17.87086 24.90418,38.15024 33.86942,59.02502 4.50578,2.15033 9.32914,3.74489 13.75552,6.14665 10.95017,5.57102 21.43057,12.83584 28.68216,22.92587 3.60594,5.24681 6.81491,11.34716 6.16649,17.92387 7.60226,0.2845 15.22437,-0.0198 22.82663,0.13894 1.2108,-0.25142 1.31666,0.99908 1.64087,1.83275 -1.14464,0.29774 -2.31574,0.46314 -3.49347,0.43668 -5.98123,-0.0529 -11.95586,-0.007 -17.93048,-0.0397 -0.92629,0.15886 -2.15695,-0.35728 -2.86491,0.41684 -0.23157,2.9443 -0.15217,6.02093 -1.38282,8.77998 -0.86676,1.82613 -2.07757,3.46038 -3.06341,5.22696 8.59473,0.97924 17.18944,2.01139 25.77093,3.16927 -0.0132,0.45653 -0.0331,1.36959 -0.0397,1.82612 -9.07111,-0.29112 -18.02973,-2.13048 -27.06113,-2.9443 -3.81106,7.07956 -10.43409,11.96909 -16.99096,16.32269 -14.22528,9.06448 -30.36271,14.64878 -46.63248,18.77078 -19.85585,4.9293 -40.26749,7.3641 -60.69236,8.2043 -23.40887,0.7874 -46.93022,-0.5888 -69.99503,-4.7439 -20.70938,-3.8772 -41.41875,-9.6534 -59.7396,-20.31242 -7.23836,-4.49254 -14.695054,-9.44162 -19.121436,-16.9314 -5.544554,0.45654 -11.036176,1.6144 -16.613813,1.68718 0.02647,-0.48299 0.07278,-1.4556 0.09925,-1.94522 4.955694,-0.74104 9.970935,-1.07186 14.920012,-1.89891 -1.515159,-2.50762 -3.453768,-4.82336 -4.227888,-7.70812 -0.95938,-2.52747 -0.77412,-5.25343 -0.767504,-7.89339 -7.714737,-0.0662 -15.436093,0.0529 -23.15083,-0.0463 -1.369597,0.27127 -1.356365,-2.44146 0,-2.18343 7.727971,-0.15878 15.455941,0.0132 23.183912,-0.0728 -0.688106,-7.86023 3.612562,-15.00602 8.197736,-21.00711 10.275291,-12.69683 24.917411,-21.02034 39.943281,-26.86264 0.82705,-0.22495 1.35636,-0.89983 1.62103,-1.68057 8.43592,-20.01465 19.20082,-39.06991 32.39396,-56.33875 -7.99925,-10.83107 -10.50688,-24.66599 -10.93032,-37.84589 0.10591,-2.60699 -0.63518,-5.85566 1.62763,-7.78103 m 3.18912,3.69857 c -0.0662,4.25436 0.21834,8.49548 0.71457,12.72336 1.35637,10.44071 4.28082,21.42395 11.89631,29.11884 -7.27805,8.81968 -13.69597,18.32746 -19.40594,28.23223 -5.7629,10.09003 -11.09572,20.46458 -15.37655,31.28241 27.51105,-9.17696 57.52972,-9.88492 85.71564,-3.43392 2.10403,0.53593 4.30729,0.49623 6.43116,0.0529 28.51012,-5.51147 58.49571,-4.34038 86.15231,4.77705 -9.12403,-21.91357 -20.77554,-42.90745 -35.77495,-61.36724 4.6712,-4.59179 7.35084,-10.7649 9.19682,-16.95125 2.22974,-7.93308 3.23543,-16.20359 2.95093,-24.44103 -15.17144,1.32328 -30.68031,5.59749 -42.68911,15.33684 -6.17311,-2.97077 -12.74983,-5.3659 -19.63752,-5.82905 -9.41515,-0.89984 -18.73106,1.83274 -27.08759,5.99447 -12.14773,-9.77907 -27.74262,-14.2716 -43.08608,-15.49564 m -26.49212,104.65843 c -12.44547,4.81674 -24.45426,11.47285 -33.87604,21.04681 -5.829054,6.01431 -10.804596,13.54379 -11.40669,22.11205 28.09991,0.0463 56.20643,-0.0199 84.31295,0.0331 1.62764,-0.70133 2.28266,2.24958 0.61533,2.2165 -28.31163,0.0993 -56.62327,-0.007 -84.934896,0.0529 0.132327,5.47177 2.494387,10.57965 5.604102,14.98618 26.968494,-3.11634 53.890684,-6.58333 80.845944,-9.7923 3.95,-0.41022 7.87354,-1.26373 11.86324,-1.21741 -0.0331,0.49623 -0.1059,1.49524 -0.13895,1.99147 -30.27009,3.73827 -60.54018,7.43691 -90.816884,11.09572 6.020934,7.17219 14.079724,12.30653 22.310544,16.59396 9.45485,4.84325 19.49856,8.42275 29.69446,11.33395 25.52612,7.1589 52.10425,9.8849 78.55668,10.1165 20.89463,-0.1125 41.82897,-1.8261 62.33323,-5.9548 17.48056,-3.6589 34.87511,-8.7667 50.56925,-17.46733 7.29128,-4.20143 14.48994,-9.09103 19.5912,-15.89925 -26.92219,-3.22219 -53.84438,-6.51717 -80.75995,-9.81875 -0.0265,-0.483 -0.0794,-1.43576 -0.10591,-1.91876 3.94338,-0.23819 7.8206,0.77412 11.7309,1.12479 23.64045,2.76566 47.24119,5.88861 70.89488,8.51532 2.53408,-4.14849 4.47269,-8.7469 4.70426,-13.64966 -28.68876,-0.15879 -57.38414,0.0463 -86.07292,-0.10591 -0.0132,-0.72118 -0.0132,-1.43576 -0.007,-2.14372 28.69539,-0.21833 57.39738,0.0331 86.09277,-0.12571 -0.99907,-10.38777 -7.95955,-18.98248 -15.6809,-25.45996 -8.54179,-7.07956 -18.49949,-12.28668 -28.83433,-16.21683 -26.83617,-10.05695 -56.39169,-12.08157 -84.57761,-7.48316 6.64288,0.8072 13.56365,1.28358 19.65075,4.34037 1.51516,0.82044 3.53316,2.20988 2.80536,4.22126 -1.18434,3.15604 -3.59272,5.64381 -5.96801,7.95955 -6.73551,6.2459 -15.47579,10.65905 -24.75861,11.08904 -0.0265,12.10142 -0.0397,24.20947 0.007,36.3175 8.54841,5.32621 18.72446,7.44347 28.70201,7.3773 0.007,0.38375 0.007,1.13803 0.0132,1.52178 -10.34145,0.59547 -20.80861,-2.03124 -29.74077,-7.23836 -2.12387,0.72781 -3.8309,2.35545 -5.90846,3.22219 -7.40376,3.6258 -15.80661,4.28743 -23.92495,4.20805 -0.17202,-0.56902 -0.33082,-1.13141 -0.48962,-1.68057 10.07018,0.0992 20.2727,-2.0908 28.95343,-7.32437 0.23158,-12.15435 0.1191,-24.3087 0.0595,-36.46306 -10.12312,-0.4036 -19.56474,-5.65703 -26.49874,-12.83585 -1.84598,-2.11063 -3.93676,-4.38006 -4.35359,-7.25819 0.52931,-1.93862 2.52085,-2.89799 4.18156,-3.71182 6.19297,-2.57378 12.94171,-3.13624 19.53166,-3.87722 -28.08005,-5.64366 -57.887,-4.00941 -84.76948,6.16664 z"
           inkscape:connector-curvature="0"
           style="fill:#000000" />
        <path
           id="path3570"
           d="m 261.40477,833.46299 c 7.08618,-6.16643 16.42193,-8.96524 25.62537,-9.81875 0.0728,7.65519 -0.95276,15.86615 -5.6041,22.19806 -0.89322,0.89322 -1.70042,2.36867 -2.99724,2.55394 -5.58426,-5.08141 -11.47286,-9.81876 -17.02403,-14.93325 m 7.8603,0.44992 c 3.02369,2.62671 6.04078,5.25337 9.11079,7.82053 2.10403,-3.79782 3.22882,-8.09187 3.55302,-12.41233 -4.40653,0.88661 -8.83952,2.15035 -12.66381,4.5918 z"
           inkscape:connector-curvature="0"
           style="fill:#000000" />
        <path
           id="path3572"
           d="m 170.37616,823.75671 c 9.41515,0.55578 18.85677,3.7052 26.0819,9.91139 -5.61072,5.2402 -11.51918,10.18266 -17.40779,15.10527 -7.26482,-5.98124 -8.49548,-16.19697 -8.67411,-25.01666 m 5.22696,5.57764 c 0.36391,4.43299 1.56809,8.79322 3.65226,12.73659 3.29498,-2.46792 6.32529,-5.26666 9.37546,-8.0257 -4.00293,-2.38192 -8.46239,-3.87722 -13.02772,-4.71089 z"
           inkscape:connector-curvature="0"
           style="fill:#000000" />
        <path
           id="path3574"
           d="m 175.60312,829.33435 c 4.56533,0.83367 9.02479,2.32897 13.02772,4.71089 -3.05017,2.75904 -6.08048,5.55778 -9.37546,8.0257 -2.08417,-3.94337 -3.28835,-8.3036 -3.65226,-12.73659 z"
           inkscape:connector-curvature="0"
           style="fill:#ffffff" />
        <path
           id="path3576"
           d="m 269.26507,833.91291 c 3.82429,-2.44145 8.25728,-3.70519 12.66381,-4.5918 -0.3242,4.32053 -1.44899,8.61458 -3.55302,12.41233 -3.07001,-2.5671 -6.0871,-5.19382 -9.11079,-7.82053 z"
           inkscape:connector-curvature="0"
           style="fill:#ffffff" />
        <text
           id="text4724"
           y="895.13513"
           x="251.78375"
           style="font-style:normal;font-variant:normal;font-weight:normal;font-stretch:normal;line-height:0%;font-family:'Aboriginal Sans';-inkscape-font-specification:'Aboriginal Sans';text-align:start;letter-spacing:0px;word-spacing:0px;writing-mode:lr-tb;text-anchor:start;fill:#000000;fill-opacity:1;stroke:none;stroke-width:1px;stroke-linecap:butt;stroke-linejoin:miter;stroke-opacity:1"
           xml:space="preserve"><tspan
             y="895.13513"
             x="251.78375"
             id="tspan4726"
             sodipodi:role="line"
             style="font-size:30px;line-height:1">X</tspan></text>
        <path
           id="path3582"
           d="m 135.97742,916.75702 c 26.88249,-10.17604 56.68944,-11.81029 84.76949,-6.1665 -6.58995,0.74104 -13.33869,1.30344 -19.53166,3.87722 -1.66071,0.81382 -3.65225,1.7732 -4.18156,3.71181 0.41683,2.87813 2.50761,5.14756 4.35359,7.25821 6.934,7.1788 16.37562,12.43223 26.49874,12.83584 0.0595,12.15435 0.17203,24.3087 -0.0595,36.46305 -8.68073,5.23359 -18.88325,7.42362 -28.95343,7.32437 0.1588,0.54916 0.3176,1.11156 0.48962,1.68057 8.11834,0.0794 16.52119,-0.58225 23.92495,-4.20804 2.07756,-0.86675 3.78458,-2.49439 5.90846,-3.2222 8.93216,5.20712 19.39932,7.83384 29.74077,7.23836 -0.007,-0.38375 -0.007,-1.13802 -0.0132,-1.52177 -9.97755,0.0662 -20.1536,-2.05109 -28.70201,-7.37731 -0.0463,-12.10803 -0.0331,-24.21606 -0.007,-36.31749 9.28282,-0.43007 18.0231,-4.84315 24.75861,-11.08904 2.37529,-2.31575 4.78367,-4.80351 5.968,-7.95954 0.72781,-2.0114 -1.29019,-3.40084 -2.80536,-4.22128 -6.0871,-3.05678 -13.00786,-3.53317 -19.65074,-4.34036 28.18592,-4.59841 57.74144,-2.57378 84.57761,7.48315 10.33484,3.93015 20.29254,9.13728 28.83433,16.21684 7.72135,6.47747 14.68183,15.07219 15.6809,25.45996 -28.69539,0.15879 -57.39738,-0.0926 -86.09278,0.12571 -0.007,0.70795 -0.007,1.42253 0.007,2.14372 28.68877,0.15217 57.38416,-0.0529 86.07292,0.1059 -0.23157,4.90276 -2.17018,9.50117 -4.70426,13.64965 -23.65369,-2.62671 -47.25443,-5.74965 -70.89488,-8.51531 -3.9103,-0.35068 -7.78752,-1.36299 -11.7309,-1.12479 0.0265,0.48299 0.0794,1.43575 0.10591,1.91875 26.91557,3.30166 53.83776,6.59656 80.75995,9.81875 -5.10126,6.8083 -12.29992,11.69782 -19.5912,15.89925 -15.69414,8.7006 -33.08869,13.8085 -50.56925,17.4673 -20.50426,4.1287 -41.4386,5.8423 -62.33323,5.9548 -26.45243,-0.2316 -53.03056,-2.9575 -78.55668,-10.1165 -10.1959,-2.9112 -20.23961,-6.4907 -29.69446,-11.33391 -8.23082,-4.28744 -16.28961,-9.42177 -22.31055,-16.59397 30.27671,-3.65887 60.54679,-7.35745 90.81689,-11.09572 0.0331,-0.49623 0.1059,-1.49524 0.13895,-1.99147 -3.9897,-0.0463 -7.91324,0.8072 -11.86324,1.21741 -26.95526,3.20897 -53.87745,6.67596 -80.845949,9.7923 -3.109716,-4.40653 -5.471775,-9.5144 -5.604103,-14.98618 28.311632,-0.0595 56.623272,0.0463 84.934902,-0.0529 1.66733,0.0331 1.01231,-2.91783 -0.61533,-2.2165 -28.10653,-0.0529 -56.21305,0.0132 -84.312956,-0.0331 0.602094,-8.56826 5.577637,-16.09773 11.406696,-22.11205 9.42177,-9.57409 21.43056,-16.2302 33.87604,-21.04694 z"
           inkscape:connector-curvature="0"
           style="fill:#ffffff" />
      </g>
      <g
         transform="translate(343.45186,2.7044521)"
         id="g3348">
        <path
           style="fill:#ffffff"
           inkscape:connector-curvature="0"
           d="m 162.46954,812.09859 c 15.34346,1.22404 30.93835,5.71658 43.08608,15.49565 8.35653,-4.16173 17.67245,-6.89431 27.0876,-5.99448 6.88768,0.46315 13.46441,2.85829 19.63751,5.82906 12.0088,-9.73936 27.51767,-14.01356 42.68911,-15.33685 0.2845,8.23745 -0.72119,16.50796 -2.95093,24.44103 -1.84598,6.18635 -4.52562,12.35946 -9.19682,16.95126 14.99941,18.45979 26.65093,39.45367 35.77495,61.36724 -27.6566,-9.11743 -57.64219,-10.28853 -86.15231,-4.77706 -2.12387,0.44331 -4.32713,0.483 -6.43115,-0.0529 -28.18593,-6.45101 -58.2046,-5.74305 -85.71564,3.43392 4.28082,-10.81784 9.61364,-21.19238 15.37654,-31.28241 5.70997,-9.90477 12.12789,-19.41255 19.40594,-28.23223 -7.61549,-7.6949 -10.53994,-18.67814 -11.8963,-29.11884 -0.49624,-4.22788 -0.78074,-8.46901 -0.71458,-12.72336 m 98.93523,21.36439 c 5.55117,5.11449 11.43977,9.85185 17.02403,14.93326 1.29682,-0.18527 2.10402,-1.66072 2.99724,-2.55395 4.65134,-6.3319 5.67688,-14.54287 5.6041,-22.19806 -9.20344,0.85352 -18.53919,3.65225 -25.62537,9.81875 m -91.02861,-9.70627 c 0.17863,8.81968 1.40929,19.03542 8.67411,25.01666 5.88861,-4.92261 11.79707,-9.86507 17.40779,-15.10528 -7.22513,-6.20619 -16.66675,-9.3556 -26.0819,-9.91138 m 24.13667,51.6014 c -3.16264,2.00477 -4.12864,6.09372 -4.14187,9.61366 0.19848,3.16264 1.10494,6.68919 3.7912,8.66088 1.93199,1.38283 4.72412,0.57562 5.99447,-1.32983 3.00386,-4.15511 3.09649,-10.12311 0.60209,-14.53626 -1.16449,-2.13717 -3.90368,-3.83097 -6.24589,-2.40845 m 65.43633,-0.0992 c -3.28175,1.94522 -4.35361,6.16649 -4.26097,9.75258 0.10591,3.33468 1.20418,7.21851 4.32713,8.93216 2.32898,1.21081 4.96232,-0.47638 6.06064,-2.58039 2.31574,-4.20804 2.28265,-9.71952 -0.19849,-13.84816 -1.14465,-1.98493 -3.71843,-3.44715 -5.92831,-2.25619 z"
           id="path3350" />
        <text
           id="text3352"
           y="894.50464"
           x="186.71597"
           style="font-style:normal;font-variant:normal;font-weight:normal;font-stretch:normal;line-height:0%;font-family:'Aboriginal Sans';-inkscape-font-specification:'Aboriginal Sans';text-align:start;letter-spacing:0px;word-spacing:0px;writing-mode:lr-tb;text-anchor:start;fill:#000000;fill-opacity:1;stroke:none;stroke-width:1px;stroke-linecap:butt;stroke-linejoin:miter;stroke-opacity:1"
           xml:space="preserve"><tspan
             y="894.50464"
             x="186.71597"
             id="tspan3354"
             sodipodi:role="line"
             style="font-size:30px;line-height:1">X</tspan></text>
        <path
           style="fill:#000000"
           inkscape:connector-curvature="0"
           d="m 159.28042,808.40002 c 1.932,-1.93862 4.79029,-1.13141 7.17882,-0.87331 14.05987,1.71365 28.16607,5.882 39.69186,14.37086 9.3093,-4.32714 19.80293,-6.35838 30.01866,-4.81014 5.37254,0.69473 10.5201,2.50101 15.48904,4.59841 11.56549,-8.36315 25.63197,-12.51826 39.672,-14.18558 2.23635,-0.23158 4.88953,-0.96601 6.75536,0.74103 2.02462,1.56147 1.86584,4.32051 1.83937,6.60979 -0.21173,13.55711 -2.81198,27.6103 -10.64581,38.9509 14.13927,17.87086 24.90418,38.15024 33.86942,59.02502 4.50578,2.15033 9.32914,3.74489 13.75552,6.14665 10.95017,5.57102 21.43057,12.83584 28.68216,22.92587 3.60594,5.24681 6.81491,11.34716 6.16649,17.92387 7.60226,0.2845 15.22437,-0.0198 22.82663,0.13894 1.2108,-0.25142 1.31666,0.99908 1.64087,1.83275 -1.14464,0.29774 -2.31574,0.46314 -3.49347,0.43668 -5.98123,-0.0529 -11.95586,-0.007 -17.93048,-0.0397 -0.92629,0.15886 -2.15695,-0.35728 -2.86491,0.41684 -0.23157,2.9443 -0.15217,6.02093 -1.38282,8.77998 -0.86676,1.82613 -2.07757,3.46038 -3.06341,5.22696 8.59473,0.97924 17.18944,2.01139 25.77093,3.16927 -0.0132,0.45653 -0.0331,1.36959 -0.0397,1.82612 -9.07111,-0.29112 -18.02973,-2.13048 -27.06113,-2.9443 -3.81106,7.07956 -10.43409,11.96909 -16.99096,16.32269 -14.22528,9.06448 -30.36271,14.64878 -46.63248,18.77078 -19.85585,4.9293 -40.26749,7.3641 -60.69236,8.2043 -23.40887,0.7874 -46.93022,-0.5888 -69.99503,-4.7439 -20.70938,-3.8772 -41.41875,-9.6534 -59.7396,-20.31242 -7.23836,-4.49254 -14.695054,-9.44162 -19.121436,-16.9314 -5.544554,0.45654 -11.036176,1.6144 -16.613813,1.68718 0.02647,-0.48299 0.07278,-1.4556 0.09925,-1.94522 4.955694,-0.74104 9.970935,-1.07186 14.920012,-1.89891 -1.515159,-2.50762 -3.453768,-4.82336 -4.227888,-7.70812 -0.95938,-2.52747 -0.77412,-5.25343 -0.767504,-7.89339 -7.714737,-0.0662 -15.436093,0.0529 -23.15083,-0.0463 -1.369597,0.27127 -1.356365,-2.44146 0,-2.18343 7.727971,-0.15878 15.455941,0.0132 23.183912,-0.0728 -0.688106,-7.86023 3.612562,-15.00602 8.197736,-21.00711 10.275291,-12.69683 24.917411,-21.02034 39.943281,-26.86264 0.82705,-0.22495 1.35636,-0.89983 1.62103,-1.68057 8.43592,-20.01465 19.20082,-39.06991 32.39396,-56.33875 -7.99925,-10.83107 -10.50688,-24.66599 -10.93032,-37.84589 0.10591,-2.60699 -0.63518,-5.85566 1.62763,-7.78103 m 3.18912,3.69857 c -0.0662,4.25436 0.21834,8.49548 0.71457,12.72336 1.35637,10.44071 4.28082,21.42395 11.89631,29.11884 -7.27805,8.81968 -13.69597,18.32746 -19.40594,28.23223 -5.7629,10.09003 -11.09572,20.46458 -15.37655,31.28241 27.51105,-9.17696 57.52972,-9.88492 85.71564,-3.43392 2.10403,0.53593 4.30729,0.49623 6.43116,0.0529 28.51012,-5.51147 58.49571,-4.34038 86.15231,4.77705 -9.12403,-21.91357 -20.77554,-42.90745 -35.77495,-61.36724 4.6712,-4.59179 7.35084,-10.7649 9.19682,-16.95125 2.22974,-7.93308 3.23543,-16.20359 2.95093,-24.44103 -15.17144,1.32328 -30.68031,5.59749 -42.68911,15.33684 -6.17311,-2.97077 -12.74983,-5.3659 -19.63752,-5.82905 -9.41515,-0.89984 -18.73106,1.83274 -27.08759,5.99447 -12.14773,-9.77907 -27.74262,-14.2716 -43.08608,-15.49564 m -26.49212,104.65843 c -12.44547,4.81674 -24.45426,11.47285 -33.87604,21.04681 -5.829054,6.01431 -10.804596,13.54379 -11.40669,22.11205 28.09991,0.0463 56.20643,-0.0199 84.31295,0.0331 1.62764,-0.70133 2.28266,2.24958 0.61533,2.2165 -28.31163,0.0993 -56.62327,-0.007 -84.934896,0.0529 0.132327,5.47177 2.494387,10.57965 5.604102,14.98618 26.968494,-3.11634 53.890684,-6.58333 80.845944,-9.7923 3.95,-0.41022 7.87354,-1.26373 11.86324,-1.21741 -0.0331,0.49623 -0.1059,1.49524 -0.13895,1.99147 -30.27009,3.73827 -60.54018,7.43691 -90.816884,11.09572 6.020934,7.17219 14.079724,12.30653 22.310544,16.59396 9.45485,4.84325 19.49856,8.42275 29.69446,11.33395 25.52612,7.1589 52.10425,9.8849 78.55668,10.1165 20.89463,-0.1125 41.82897,-1.8261 62.33323,-5.9548 17.48056,-3.6589 34.87511,-8.7667 50.56925,-17.46733 7.29128,-4.20143 14.48994,-9.09103 19.5912,-15.89925 -26.92219,-3.22219 -53.84438,-6.51717 -80.75995,-9.81875 -0.0265,-0.483 -0.0794,-1.43576 -0.10591,-1.91876 3.94338,-0.23819 7.8206,0.77412 11.7309,1.12479 23.64045,2.76566 47.24119,5.88861 70.89488,8.51532 2.53408,-4.14849 4.47269,-8.7469 4.70426,-13.64966 -28.68876,-0.15879 -57.38414,0.0463 -86.07292,-0.10591 -0.0132,-0.72118 -0.0132,-1.43576 -0.007,-2.14372 28.69539,-0.21833 57.39738,0.0331 86.09277,-0.12571 -0.99907,-10.38777 -7.95955,-18.98248 -15.6809,-25.45996 -8.54179,-7.07956 -18.49949,-12.28668 -28.83433,-16.21683 -26.83617,-10.05695 -56.39169,-12.08157 -84.57761,-7.48316 6.64288,0.8072 13.56365,1.28358 19.65075,4.34037 1.51516,0.82044 3.53316,2.20988 2.80536,4.22126 -1.18434,3.15604 -3.59272,5.64381 -5.96801,7.95955 -6.73551,6.2459 -15.47579,10.65905 -24.75861,11.08904 -0.0265,12.10142 -0.0397,24.20947 0.007,36.3175 8.54841,5.32621 18.72446,7.44347 28.70201,7.3773 0.007,0.38375 0.007,1.13803 0.0132,1.52178 -10.34145,0.59547 -20.80861,-2.03124 -29.74077,-7.23836 -2.12387,0.72781 -3.8309,2.35545 -5.90846,3.22219 -7.40376,3.6258 -15.80661,4.28743 -23.92495,4.20805 -0.17202,-0.56902 -0.33082,-1.13141 -0.48962,-1.68057 10.07018,0.0992 20.2727,-2.0908 28.95343,-7.32437 0.23158,-12.15435 0.1191,-24.3087 0.0595,-36.46306 -10.12312,-0.4036 -19.56474,-5.65703 -26.49874,-12.83585 -1.84598,-2.11063 -3.93676,-4.38006 -4.35359,-7.25819 0.52931,-1.93862 2.52085,-2.89799 4.18156,-3.71182 6.19297,-2.57378 12.94171,-3.13624 19.53166,-3.87722 -28.08005,-5.64366 -57.887,-4.00941 -84.76948,6.16664 z"
           id="path3356" />
        <path
           style="fill:#000000"
           inkscape:connector-curvature="0"
           d="m 261.40477,833.46299 c 7.08618,-6.16643 16.42193,-8.96524 25.62537,-9.81875 0.0728,7.65519 -0.95276,15.86615 -5.6041,22.19806 -0.89322,0.89322 -1.70042,2.36867 -2.99724,2.55394 -5.58426,-5.08141 -11.47286,-9.81876 -17.02403,-14.93325 m 7.8603,0.44992 c 3.02369,2.62671 6.04078,5.25337 9.11079,7.82053 2.10403,-3.79782 3.22882,-8.09187 3.55302,-12.41233 -4.40653,0.88661 -8.83952,2.15035 -12.66381,4.5918 z"
           id="path3358" />
        <path
           style="fill:#000000"
           inkscape:connector-curvature="0"
           d="m 170.37616,823.75671 c 9.41515,0.55578 18.85677,3.7052 26.0819,9.91139 -5.61072,5.2402 -11.51918,10.18266 -17.40779,15.10527 -7.26482,-5.98124 -8.49548,-16.19697 -8.67411,-25.01666 m 5.22696,5.57764 c 0.36391,4.43299 1.56809,8.79322 3.65226,12.73659 3.29498,-2.46792 6.32529,-5.26666 9.37546,-8.0257 -4.00293,-2.38192 -8.46239,-3.87722 -13.02772,-4.71089 z"
           id="path3360" />
        <path
           style="fill:#ffffff"
           inkscape:connector-curvature="0"
           d="m 175.60312,829.33435 c 4.56533,0.83367 9.02479,2.32897 13.02772,4.71089 -3.05017,2.75904 -6.08048,5.55778 -9.37546,8.0257 -2.08417,-3.94337 -3.28835,-8.3036 -3.65226,-12.73659 z"
           id="path3362" />
        <path
           style="fill:#ffffff"
           inkscape:connector-curvature="0"
           d="m 269.26507,833.91291 c 3.82429,-2.44145 8.25728,-3.70519 12.66381,-4.5918 -0.3242,4.32053 -1.44899,8.61458 -3.55302,12.41233 -3.07001,-2.5671 -6.0871,-5.19382 -9.11079,-7.82053 z"
           id="path3364" />
        <text
           xml:space="preserve"
           style="font-style:normal;font-variant:normal;font-weight:normal;font-stretch:normal;line-height:0%;font-family:'Aboriginal Sans';-inkscape-font-specification:'Aboriginal Sans';text-align:start;letter-spacing:0px;word-spacing:0px;writing-mode:lr-tb;text-anchor:start;fill:#000000;fill-opacity:1;stroke:none;stroke-width:1px;stroke-linecap:butt;stroke-linejoin:miter;stroke-opacity:1"
           x="251.78375"
           y="895.13513"
           id="text3366"><tspan
             sodipodi:role="line"
             id="tspan3368"
             x="251.78375"
             y="895.13513"
             style="font-size:30px;line-height:1">X</tspan></text>
        <path
           style="fill:#ffffff"
           inkscape:connector-curvature="0"
           d="m 135.97742,916.75702 c 26.88249,-10.17604 56.68944,-11.81029 84.76949,-6.1665 -6.58995,0.74104 -13.33869,1.30344 -19.53166,3.87722 -1.66071,0.81382 -3.65225,1.7732 -4.18156,3.71181 0.41683,2.87813 2.50761,5.14756 4.35359,7.25821 6.934,7.1788 16.37562,12.43223 26.49874,12.83584 0.0595,12.15435 0.17203,24.3087 -0.0595,36.46305 -8.68073,5.23359 -18.88325,7.42362 -28.95343,7.32437 0.1588,0.54916 0.3176,1.11156 0.48962,1.68057 8.11834,0.0794 16.52119,-0.58225 23.92495,-4.20804 2.07756,-0.86675 3.78458,-2.49439 5.90846,-3.2222 8.93216,5.20712 19.39932,7.83384 29.74077,7.23836 -0.007,-0.38375 -0.007,-1.13802 -0.0132,-1.52177 -9.97755,0.0662 -20.1536,-2.05109 -28.70201,-7.37731 -0.0463,-12.10803 -0.0331,-24.21606 -0.007,-36.31749 9.28282,-0.43007 18.0231,-4.84315 24.75861,-11.08904 2.37529,-2.31575 4.78367,-4.80351 5.968,-7.95954 0.72781,-2.0114 -1.29019,-3.40084 -2.80536,-4.22128 -6.0871,-3.05678 -13.00786,-3.53317 -19.65074,-4.34036 28.18592,-4.59841 57.74144,-2.57378 84.57761,7.48315 10.33484,3.93015 20.29254,9.13728 28.83433,16.21684 7.72135,6.47747 14.68183,15.07219 15.6809,25.45996 -28.69539,0.15879 -57.39738,-0.0926 -86.09278,0.12571 -0.007,0.70795 -0.007,1.42253 0.007,2.14372 28.68877,0.15217 57.38416,-0.0529 86.07292,0.1059 -0.23157,4.90276 -2.17018,9.50117 -4.70426,13.64965 -23.65369,-2.62671 -47.25443,-5.74965 -70.89488,-8.51531 -3.9103,-0.35068 -7.78752,-1.36299 -11.7309,-1.12479 0.0265,0.48299 0.0794,1.43575 0.10591,1.91875 26.91557,3.30166 53.83776,6.59656 80.75995,9.81875 -5.10126,6.8083 -12.29992,11.69782 -19.5912,15.89925 -15.69414,8.7006 -33.08869,13.8085 -50.56925,17.4673 -20.50426,4.1287 -41.4386,5.8423 -62.33323,5.9548 -26.45243,-0.2316 -53.03056,-2.9575 -78.55668,-10.1165 -10.1959,-2.9112 -20.23961,-6.4907 -29.69446,-11.33391 -8.23082,-4.28744 -16.28961,-9.42177 -22.31055,-16.59397 30.27671,-3.65887 60.54679,-7.35745 90.81689,-11.09572 0.0331,-0.49623 0.1059,-1.49524 0.13895,-1.99147 -3.9897,-0.0463 -7.91324,0.8072 -11.86324,1.21741 -26.95526,3.20897 -53.87745,6.67596 -80.845949,9.7923 -3.109716,-4.40653 -5.471775,-9.5144 -5.604103,-14.98618 28.311632,-0.0595 56.623272,0.0463 84.934902,-0.0529 1.66733,0.0331 1.01231,-2.91783 -0.61533,-2.2165 -28.10653,-0.0529 -56.21305,0.0132 -84.312956,-0.0331 0.602094,-8.56826 5.577637,-16.09773 11.406696,-22.11205 9.42177,-9.57409 21.43056,-16.2302 33.87604,-21.04694 z"
           id="path3370" />
      </g>
    </g>
    <path
       style="fill:#d15400;fill-rule:evenodd;stroke-width:0.694199;stroke-linecap:square;paint-order:stroke fill markers"
       d="m 172.13863,80.845743 c -8.51028,0.908935 -16.75434,3.996028 -23.70392,8.99713 -6.62983,-2.844103 -14.15849,-4.831083 -21.26898,-2.519081 -2.56591,0.653796 -5.05516,1.58659 -7.4257,2.765892 -7.47809,-5.570064 -16.66903,-8.77152 -25.93885,-9.378826 -1.772025,0.513776 -0.714666,2.972801 -0.859535,4.280452 0.546997,7.529659 2.457826,15.27102 7.153225,21.28173 0.73069,1.2911 -1.543739,2.27333 -1.891967,3.43286 -7.579064,9.96435 -13.613458,21.05467 -18.502495,32.54958 -0.376546,2.23408 2.6858,0.0936 3.870545,0.0444 13.877536,-3.70875 28.533357,-4.2781 42.673707,-1.95188 5.98889,1.4836 12.17693,0.97601 18.18033,-0.0976 14.67678,-1.69781 29.77084,-0.55048 43.91063,3.85289 1.72527,-0.42565 -0.034,-2.59524 -0.28,-3.55099 -5.38006,-12.01864 -11.99941,-23.53306 -20.10417,-33.89903 -0.60182,-0.99305 1.38183,-1.77362 1.65737,-2.79528 4.13779,-6.768096 5.616,-14.915292 5.38106,-22.769053 -0.36412,-1.082798 -2.05329,-0.08308 -2.85125,-0.243224 z m -72.571108,7.623884 c 4.984668,0.686192 10.267408,2.376546 13.972098,5.68168 -3.22022,3.180687 -6.73906,6.172073 -10.32446,8.878033 -3.956558,-3.810888 -4.518165,-9.579112 -4.956311,-14.72832 0.436224,0.0562 0.872449,0.112405 1.308673,0.168607 z m 69.915018,-0.166454 c 0.24158,4.650919 -0.86393,9.53138 -3.54073,13.380177 -0.82787,1.54592 -2.01868,0.74349 -2.89358,-0.22385 -2.80801,-2.428096 -6.10692,-4.854616 -8.39086,-7.546394 4.18583,-3.395454 9.58404,-4.937216 14.82517,-5.609933 z m -59.90338,30.849967 c 2.2836,0.0602 2.41761,3.61557 4.46843,3.9949 1.67267,-1.01812 2.06321,-4.18644 4.36871,-3.94324 -0.97588,2.07815 -2.95783,3.74215 -3.56011,5.8876 1.3799,2.08174 2.8435,4.15379 4.14054,6.26642 -2.21284,0.19799 -2.78238,-2.62197 -4.12332,-3.86288 -0.5751,-1.37093 -1.88492,-0.74576 -2.32534,0.36304 -1.05974,1.15882 -2.00231,3.96434 -3.74522,3.41159 1.21329,-2.27455 3.27892,-4.24419 4.04154,-6.65386 -1.19705,-1.82671 -2.46926,-3.60603 -3.6132,-5.46644 z m 40.04082,0.36735 c 2.2836,0.0602 2.41761,3.61557 4.46843,3.9949 1.61976,-1.0379 2.28708,-4.42161 4.44475,-3.91526 -1.09126,2.01792 -2.98234,3.78157 -3.58091,5.9414 1.36403,2.06588 2.8243,4.11267 4.08171,6.18822 -2.33652,0.20658 -2.85689,-2.87101 -4.30628,-4.17211 -1.25889,-1.62058 -2.26999,1.24682 -3.05501,2.0118 -0.57884,0.93188 -1.7911,2.69871 -2.82039,2.04193 1.22613,-2.27591 3.33938,-4.23809 4.09534,-6.63736 -1.21488,-1.82575 -2.52504,-3.5903 -3.67992,-5.45496 z"
       id="path1090"
       transform="matrix(0.9375,0,0,0.9375,0,782.36218)" />
    <path
       style="fill:#d15400;fill-rule:evenodd;stroke-width:0.694199;stroke-linecap:square;paint-order:stroke fill markers"
       d="m 304.39429,80.87229 c 0.0158,8.370287 1.29218,17.433551 6.46731,24.3201 2.42675,1.53068 -0.69705,3.24147 -1.48479,4.87798 -7.33472,10.06631 -13.72112,20.92909 -18.37131,32.49396 0.26821,1.67585 2.32043,-0.0988 3.31545,-0.0445 8.85908,-2.55562 18.06096,-3.62818 27.26762,-3.48951 7.63439,-0.20189 15.14763,1.08746 22.64278,2.37025 6.46253,0.20395 12.75254,-1.80515 19.22545,-1.75342 12.20681,-0.49183 24.60833,0.70089 36.28124,4.41884 1.72763,-0.28813 0.0799,-2.40434 -0.17304,-3.31233 -5.24975,-12.2226 -12.20992,-23.7027 -20.20682,-34.27329 1.17669,-2.22458 3.12356,-4.41601 3.9393,-6.983324 2.22379,-5.729661 3.61827,-11.973613 3.15006,-18.131154 -0.98585,-1.488264 -3.25682,-0.243087 -4.69012,-0.280533 -7.81698,1.225222 -15.46525,4.045629 -21.82199,8.822784 -5.3952,-2.444555 -11.27693,-4.070028 -17.2445,-3.37213 -4.05877,0.302082 -7.81329,2.001837 -11.54345,3.488361 -7.57503,-5.655953 -16.94502,-8.873792 -26.36145,-9.3408 l -0.33095,0.159415 z m 76.56601,9.499362 c -0.50703,4.243275 -1.10273,8.911674 -4.23095,12.070078 -1.11032,0.66162 -2.0271,-1.30828 -3.01052,-1.67459 -2.55022,-2.186909 -5.43478,-4.307727 -7.58801,-6.777982 3.32677,-3.06178 7.94693,-4.26318 12.23437,-5.312899 1.5075,-0.270247 3.53725,-0.915917 2.61699,1.436323 z m -69.84327,-1.884088 c 5.06724,0.612489 10.04675,2.514579 14.07111,5.703204 -3.47242,2.914251 -6.85587,6.213792 -10.478,8.776862 -4.07801,-3.69613 -4.60407,-9.505477 -4.96421,-14.642933 0.45704,0.05429 0.91407,0.108578 1.3711,0.162867 z m 18.32932,30.665576 c 1.17715,-0.0874 -0.59751,1.41367 -0.71404,1.90513 -0.79716,1.55046 -3.33438,3.37022 -1.62493,5.16128 0.92983,1.70227 2.62831,3.52192 3.15043,5.13209 -2.06066,-1.7e-4 -2.60688,-2.69473 -3.94395,-3.88871 -1.14837,-1.77534 -2.52884,0.87192 -3.25519,1.73127 -0.73615,0.87244 -1.38273,2.45342 -2.78451,2.1596 1.18427,-2.34902 3.29957,-4.35872 4.05373,-6.80238 -1.16306,-1.76991 -2.604,-3.61814 -3.59096,-5.38034 2.41287,-0.24439 2.7775,3.13411 4.45766,4.13624 1.74556,-0.81238 2.05502,-3.42693 3.81625,-4.13122 0.14446,-0.0177 0.29011,-0.0224 0.43551,-0.023 z m 31.74681,0.36806 c 2.17465,0.0766 2.26997,3.53522 4.22736,3.86361 1.83765,-0.86645 2.25941,-4.00733 4.56888,-3.8349 -0.98381,2.07211 -3.17819,3.8179 -3.30612,6.17243 1.13906,2.0945 2.61058,3.98658 3.84135,6.02535 -2.70386,0.13616 -2.86552,-3.85514 -5.17586,-4.48422 -2.29386,0.63809 -2.3666,4.68721 -5.04528,4.45121 1.19123,-2.3373 3.34095,-4.31051 4.10252,-6.74211 -1.17293,-1.78673 -2.63758,-3.66059 -3.62611,-5.4363 0.1375,-0.01 0.27539,-0.0152 0.41326,-0.0151 z"
       id="path1129"
       transform="matrix(0.9375,0,0,0.9375,0,782.36218)" />
    <path
       style="fill:#b27624;fill-rule:evenodd;stroke-width:0.694199;stroke-linecap:square;paint-order:stroke fill markers"
       d="m 108.92339,139.19005 c -14.834473,0.26917 -29.939884,3.45118 -42.859492,10.95425 -7.37034,4.59638 -14.950534,10.79424 -17.096982,19.61734 -1.414271,2.80788 1.654086,2.39031 3.481904,2.28946 16.11012,0.13199 32.262044,-0.2874 48.34559,0.28268 1.47781,0.18877 -0.36617,0.4354 -0.938921,0.35457 -16.886181,0.35817 -33.824905,0.1344 -50.730728,0.19933 -1.116856,0.99297 0.05083,3.10738 0.317124,4.44547 0.829462,1.83911 1.391814,4.11663 2.857701,5.4607 18.941473,-2.02628 37.990434,-4.75419 56.831874,-6.64095 -1.20118,1.30548 -3.47385,0.56648 -5.04415,1.11428 -16.66156,2.14821 -33.406236,3.87845 -50.022737,6.23768 -1.01284,1.3021 1.178395,2.49399 1.932159,3.36783 12.107515,10.14164 27.794628,14.55532 43.010358,17.5189 12.45193,2.25362 25.13964,3.22388 37.78373,3.16445 21.001,-0.75112 42.45304,-3.21824 61.77681,-11.98693 6.25588,-2.9622 12.55659,-6.60856 16.80099,-12.18622 -0.34505,-1.41207 -2.68077,-0.68311 -3.80339,-1.15709 -15.05158,-1.97935 -30.18379,-3.50952 -45.20155,-5.64457 -0.70609,-0.87966 1.6126,-0.20916 2.01538,-0.30708 16.02024,1.77073 32.0523,4.09053 48.08945,5.64509 1.92311,-2.00201 2.61907,-5.01412 3.30397,-7.65473 0.10477,-1.79513 -2.58252,-0.92545 -3.67404,-1.23291 -16.28205,-0.39531 -32.58505,0.18807 -48.85801,-0.40078 0.12779,-0.2658 2.20582,-0.32405 3.01317,-0.37733 16.32447,-0.31681 32.69279,-0.15983 49.03387,-0.20239 1.08281,-0.88568 -0.13819,-2.77957 -0.35659,-4.00207 -2.41448,-6.97147 -8.33757,-11.97924 -14.27897,-15.96919 -11.03449,-6.67726 -23.74551,-10.42547 -36.53456,-11.70262 -7.75684,-0.3079 -15.62373,-0.86066 -23.331,0.27289 -1.44994,0.0196 -1.39758,1.87388 0.0359,1.86544 2.83909,0.60495 6.18612,1.00479 8.34709,3.17267 0.66825,1.86803 -1.33136,3.5134 -2.34973,4.87452 -4.1585,4.30298 -9.83893,6.96848 -15.73708,7.80899 -0.95437,1.75106 -0.11653,4.31594 -0.39892,6.36687 0.13388,5.49929 -0.26808,11.15521 0.19786,16.55744 4.97944,2.96799 10.80126,4.28395 16.58459,4.51335 1.74679,0.27991 -0.54957,0.33443 -1.09271,0.28986 -5.40475,-0.21052 -10.94175,-1.63201 -15.76651,-4.19077 -3.13775,0.58332 -5.7678,2.89501 -8.99323,3.38183 -3.11127,0.58572 -6.36661,1.02175 -9.49178,0.66114 0.63587,-0.60157 2.4372,-0.15805 3.51634,-0.35587 4.95595,-0.33154 9.91976,-1.9728 14.11397,-4.45561 0.22116,-7.39005 0.0312,-14.90129 0.0949,-22.33775 -1.32646,-1.2055 -3.77864,-0.71614 -5.48581,-1.52966 -5.28034,-1.72235 -10.2144,-5.19959 -13.16279,-9.94204 -1.11971,-2.07588 1.72071,-3.06342 3.22361,-3.5472 2.66121,-0.99022 5.4789,-1.21267 8.22154,-1.75996 1.18361,-0.99147 -0.93661,-1.58905 -1.70543,-1.57486 -5.29407,-0.77619 -10.6606,-1.26543 -16.01475,-1.25845 z"
       id="path1205"
       transform="matrix(0.9375,0,0,0.9375,0,782.36218)" />
    <path
       style="fill:#b27624;fill-rule:evenodd;stroke-width:0.694199;stroke-linecap:square;paint-order:stroke fill markers"
       d="m 319.31489,139.17785 c -16.65432,0.40303 -33.72485,4.72642 -47.2925,14.69721 -5.6202,4.3535 -11.05509,10.21359 -11.80013,17.60278 1.29632,1.35136 4.13952,0.18862 6.00307,0.58814 15.50129,0.0561 31.00258,0.11179 46.50386,0.16736 -0.44383,1.50583 -4.08932,0.23394 -5.78427,0.65434 -15.46517,0 -30.93033,0 -46.39549,0 -1.10141,0.84921 0.087,2.76434 0.24178,4.00279 0.86554,1.92726 1.32893,4.56961 3.23151,5.71827 18.62244,-1.64906 37.14141,-4.53329 55.72624,-6.44149 0.98314,-0.29105 1.00884,0.61697 0.0395,0.56824 -17.92345,2.39032 -35.94555,4.15608 -53.8436,6.75072 -1.57728,0.61196 0.45955,2.21007 1.06121,2.81587 9.56157,8.69952 22.19389,12.97242 34.48679,16.16779 15.15033,3.6941 30.80323,5.07115 46.36609,5.08932 17.15964,-0.52234 34.44114,-2.29209 50.83531,-7.63961 10.3812,-3.46023 21.06113,-7.93339 28.34372,-16.44557 -0.25076,-1.8442 -3.87995,-0.78139 -5.40994,-1.45557 -14.626,-1.85554 -29.35188,-3.37588 -43.91285,-5.46734 -1.16686,-0.71671 1.06751,-0.38929 1.37115,-0.32645 16.27405,1.84099 32.54217,3.90185 48.81404,5.82589 1.91131,-2.29293 2.88174,-5.55798 3.39437,-8.57095 -1.24659,-1.39421 -4.1458,-0.19055 -6.00167,-0.59191 -15.53457,-0.1152 -31.08174,0.246 -46.60858,-0.2296 -0.88474,-0.21935 1.93776,-0.34269 2.43726,-0.39174 16.43697,-0.34058 33.01586,-0.16774 49.50574,-0.21524 1.07301,-0.96483 -0.0113,-2.99249 -0.28986,-4.30198 -4.16617,-10.20703 -14.15019,-16.50724 -23.8745,-20.70701 -15.78515,-6.56987 -33.34298,-8.33104 -50.24922,-6.42357 -1.11293,-0.007 -1.37325,1.53031 -0.19802,1.70113 2.94858,0.94092 6.47491,1.10511 8.76897,3.38935 0.6687,1.82262 -1.5132,3.30432 -2.41287,4.67292 -3.77768,4.07479 -9.09603,6.76875 -14.5468,7.78029 -2.97032,-0.72149 -1.64042,2.87839 -1.91709,4.57246 0.11912,6.07145 -0.23821,12.26654 0.17863,18.26073 5.0349,3.50174 11.4219,4.59695 17.44542,4.75944 -0.27398,0.915 -2.21603,0.0266 -3.0421,0.24322 -5.12255,-0.26554 -10.07354,-1.88239 -14.61782,-4.20511 -3.59056,1.48554 -7.21042,3.64723 -11.24067,3.9045 -2.1394,0.23817 -4.45557,0.27171 -6.49889,0.14493 5.75147,-0.38027 11.85831,-1.40077 16.752,-4.59225 0.70137,-7.16672 0.76613,-14.50165 0.19005,-21.70606 -0.13971,-2.09554 -3.12092,-1.35374 -4.54122,-2.07925 -5.49707,-1.60336 -10.74242,-5.02271 -13.79057,-9.96787 -0.9436,-1.2869 0.19325,-2.54641 1.46436,-2.93447 3.19808,-1.76219 7.01895,-1.61584 10.3345,-2.89931 0.22158,-1.49256 -2.21022,-1.02048 -3.13048,-1.39192 -5.3349,-0.67999 -10.71302,-1.1784 -16.0964,-1.09342 z"
       id="path1281"
       transform="matrix(0.9375,0,0,0.9375,0,782.36218)" />
  </g>
</svg>
