<?xml version="1.0" encoding="UTF-8" standalone="no"?>
<!-- Created with Inkscape (http://www.inkscape.org/) -->

<svg
   width="480"
   height="288"
   id="svg2"
   version="1.1"
   inkscape:version="1.1.2 (0a00cf5339, 2022-02-04)"
   sodipodi:docname="wesa-anitali-red.svg"
   viewBox="0 0 450 270"
   inkscape:export-filename="wesa-anitali.png"
   inkscape:export-xdpi="300"
   inkscape:export-ydpi="300"
   xmlns:inkscape="http://www.inkscape.org/namespaces/inkscape"
   xmlns:sodipodi="http://sodipodi.sourceforge.net/DTD/sodipodi-0.dtd"
   xmlns="http://www.w3.org/2000/svg"
   xmlns:svg="http://www.w3.org/2000/svg"
   xmlns:rdf="http://www.w3.org/1999/02/22-rdf-syntax-ns#"
   xmlns:cc="http://creativecommons.org/ns#"
   xmlns:dc="http://purl.org/dc/elements/1.1/">
  <defs
     id="defs4" />
  <sodipodi:namedview
     id="base"
     pagecolor="#ffffff"
     bordercolor="#666666"
     borderopacity="1.0"
     inkscape:pageopacity="0.0"
     inkscape:pageshadow="2"
     inkscape:zoom="2.7222222"
     inkscape:cx="239.87755"
     inkscape:cy="144"
     inkscape:document-units="px"
     inkscape:current-layer="layer1"
     showgrid="false"
     units="px"
     inkscape:window-width="1920"
     inkscape:window-height="1003"
     inkscape:window-x="0"
     inkscape:window-y="25"
     inkscape:window-maximized="1"
     borderlayer="true"
     showguides="true"
     inkscape:pagecheckerboard="0" />
  <metadata
     id="metadata7">
    <rdf:RDF>
      <cc:Work
         rdf:about="">
        <dc:format>image/svg+xml</dc:format>
        <dc:type
           rdf:resource="http://purl.org/dc/dcmitype/StillImage" />
      </cc:Work>
    </rdf:RDF>
  </metadata>
  <g
     inkscape:label="Layer 1"
     inkscape:groupmode="layer"
     id="layer1"
     transform="translate(0,-782.36218)">
    <rect
       style="opacity:1;fill:#ffffff;fill-opacity:1;fill-rule:nonzero;stroke:#000000;stroke-width:4.04577875;stroke-linecap:round;stroke-linejoin:round;stroke-miterlimit:4;stroke-dasharray:none;stroke-dashoffset:0;stroke-opacity:1"
       id="rect3749"
       width="445.95422"
       height="265.95422"
       x="2.0228882"
       y="784.38507" />
    <g
       id="layer1-9"
       inkscape:label="Layer 1"
       transform="translate(-35.756307,507.10901)">
      <g
         id="Layer_1"
         transform="translate(-244.49951,955.86218)" />
    </g>
    <g
       id="g3366"
       transform="matrix(0.95587676,0,0,0.95587676,-41.09595,77.600056)">
      <g
         transform="matrix(0.73934698,0,0,0.73934698,33.094851,207.81375)"
         id="g4681">
        <path
           id="path3566"
           d="m 123.25302,815.36191 c 1.66923,-1.67495 4.13877,-0.97753 6.20244,-0.75453 12.14763,1.48058 24.33528,5.082 34.29348,12.41631 8.04316,-3.73861 17.10958,-5.49359 25.9359,-4.15592 4.64183,0.60024 9.08929,2.16085 13.38241,3.97299 9.9925,-7.2257 22.14584,-10.81568 34.27632,-12.25624 1.93219,-0.20008 4.22452,-0.83462 5.83658,0.64025 1.74926,1.3491 1.61207,3.73289 1.5892,5.71081 -0.18293,11.71324 -2.42953,23.85509 -9.1979,33.65329 12.21623,15.44029 21.51703,32.96152 29.26293,50.99718 3.89296,1.85787 8.06031,3.23556 11.88467,5.31066 9.46086,4.81332 18.51585,11.09007 24.78117,19.80778 3.11551,4.53321 5.88803,9.80386 5.3278,15.48609 6.5683,0.24581 13.15375,-0.0171 19.72204,0.12005 1.04613,-0.21723 1.13759,0.86319 1.4177,1.58348 -0.98896,0.25724 -2.00078,0.40015 -3.01833,0.37729 -5.16774,-0.0457 -10.32977,-0.006 -15.4918,-0.0343 -0.80031,0.13725 -1.86359,-0.30869 -2.47526,0.36014 -0.20008,2.54386 -0.13148,5.20204 -1.19475,7.58584 -0.74887,1.57776 -1.795,2.98974 -2.64676,4.51606 7.42578,0.84605 14.85155,1.73782 22.26589,2.73822 -0.0114,0.39444 -0.0286,1.18332 -0.0343,1.57776 -7.83737,-0.25153 -15.57755,-1.84072 -23.38062,-2.54386 -3.29272,6.11669 -9.01497,10.34121 -14.68006,14.10269 -12.29054,7.83165 -26.23316,12.6564 -40.29012,16.2178 -17.15531,4.25887 -34.79081,6.3625 -52.43775,7.0885 -20.22509,0.68025 -40.54736,-0.50877 -60.47519,-4.09875 -17.89275,-3.34989 -35.785494,-8.34042 -51.614572,-17.54976 -6.253887,-3.88152 -12.696418,-8.15749 -16.520779,-14.6286 -4.790454,0.39444 -9.535175,1.39483 -14.354212,1.45771 0.02287,-0.4173 0.06288,-1.25763 0.08575,-1.68066 4.281683,-0.64025 8.614814,-0.92608 12.89078,-1.64064 -1.309086,-2.16657 -2.98403,-4.16735 -3.652864,-6.65976 -0.828897,-2.18372 -0.668834,-4.53893 -0.663118,-6.81983 -6.665476,-0.0572 -13.33667,0.0457 -20.002146,-0.04 -1.183322,0.23438 -1.171889,-2.1094 0,-1.88646 6.67691,-0.13719 13.353819,0.0114 20.030729,-0.0629 -0.594519,-6.79118 3.121227,-12.96509 7.082783,-18.14999 8.877775,-10.96997 21.528461,-18.16142 34.510699,-23.20912 0.71457,-0.19436 1.17189,-0.77745 1.40056,-1.452 7.28857,-17.29251 16.58937,-33.75612 27.98814,-48.67627 -6.91129,-9.35796 -9.07786,-21.31123 -9.44371,-32.69857 0.0915,-2.25242 -0.54879,-5.05924 1.40626,-6.72275 m 2.75537,3.19554 c -0.0572,3.67573 0.18865,7.34003 0.61739,10.99289 1.17189,9.02069 3.69859,18.51013 10.27832,25.15846 -6.28818,7.62014 -11.83322,15.83479 -16.76659,24.39244 -4.9791,8.71771 -9.58662,17.68124 -13.28522,27.02777 23.76934,-7.92883 49.70525,-8.5405 74.05768,-2.96688 1.81786,0.46304 3.72146,0.42874 5.55647,0.0457 24.63253,-4.76187 50.53986,-3.75005 74.43496,4.12734 -7.88309,-18.93316 -17.94991,-37.07172 -30.90929,-53.02084 4.03588,-3.96728 6.35107,-9.3008 7.94598,-14.64576 1.92648,-6.85412 2.79539,-13.99978 2.54958,-21.11687 -13.10801,1.14331 -26.50756,4.83619 -36.88307,13.25092 -5.33352,-2.56672 -11.01576,-4.6361 -16.96667,-5.03626 -8.13462,-0.77745 -16.1835,1.58348 -23.40348,5.17918 -10.49555,-8.44904 -23.96942,-12.33056 -37.22606,-13.38812 m -22.88899,90.42411 c -10.752799,4.16163 -21.128305,9.91246 -29.268647,18.18429 -5.036265,5.19632 -9.335097,11.70174 -9.855302,19.10465 24.278113,0.04 48.561939,-0.0172 72.845769,0.0286 1.40627,-0.60595 1.9722,1.94362 0.53164,1.91504 -24.46104,0.0858 -48.922084,-0.006 -73.383125,0.0457 0.11433,4.72757 2.155132,9.14074 4.841903,12.94795 23.300585,-2.69249 46.561152,-5.68795 69.850302,-8.46047 3.41277,-0.35443 6.80268,-1.09186 10.24975,-1.05184 -0.0286,0.42874 -0.0915,1.29188 -0.12005,1.72062 -26.15314,3.22984 -52.30627,6.42543 -78.465121,9.58662 5.202044,6.19672 12.16478,10.63275 19.276147,14.33706 8.168924,4.1845 16.846614,7.27715 25.655794,9.79242 22.05438,6.18529 45.01769,8.5405 67.87239,8.74058 18.05281,-0.0972 36.13992,-1.57776 53.85545,-5.14488 15.10308,-3.16124 30.13184,-7.5744 43.69146,-15.09164 6.29961,-3.63 12.5192,-7.85458 16.92665,-13.73683 -23.26057,-2.78395 -46.52114,-5.63079 -69.776,-8.48333 -0.0229,-0.41731 -0.0686,-1.24049 -0.0915,-1.6578 3.40705,-0.20579 6.75694,0.66884 10.13541,0.97181 20.42517,2.38951 40.81604,5.08772 61.25265,7.35718 2.18943,-3.58427 3.86437,-7.55726 4.06445,-11.79321 -24.78688,-0.13719 -49.57948,0.04 -74.36637,-0.0915 -0.0114,-0.6231 -0.0114,-1.24049 -0.006,-1.85216 24.79261,-0.18864 49.59092,0.0286 74.38352,-0.10861 -0.86319,-8.97496 -6.87699,-16.40073 -13.54818,-21.99722 -7.38004,-6.11669 -15.98342,-10.6156 -24.91265,-14.01122 -23.18625,-8.68913 -48.722,-10.43839 -73.07443,-6.4654 5.7394,0.69742 11.71889,1.10901 16.9781,3.75005 1.30909,0.70885 3.05263,1.90932 2.42381,3.64714 -1.02326,2.72679 -3.10408,4.87621 -5.15631,6.87699 -5.81943,5.39641 -13.37097,9.20934 -21.39126,9.58085 -0.0229,10.45554 -0.0343,20.9168 0.006,31.37805 7.38576,4.60181 16.17779,6.4311 24.79832,6.37393 0.006,0.33156 0.006,0.98325 0.0114,1.31481 -8.93494,0.51448 -17.97849,-1.75498 -25.69581,-6.25389 -1.83501,0.62882 -3.30987,2.03509 -5.10486,2.78395 -6.3968,3.13266 -13.6568,3.70431 -20.67098,3.63572 -0.14863,-0.49163 -0.28583,-0.97753 -0.42303,-1.452 8.70056,0.0857 17.51546,-1.80643 25.01555,-6.3282 0.20008,-10.50127 0.1029,-21.00254 0.0514,-31.50381 -8.7463,-0.34871 -16.90379,-4.88764 -22.89472,-11.09008 -1.59491,-1.82357 -3.40133,-3.78434 -3.76147,-6.27103 0.45732,-1.67495 2.178,-2.50384 3.61284,-3.20698 5.35068,-2.22373 11.18154,-2.70969 16.87521,-3.34989 -24.26096,-4.87608 -50.01394,-3.4641 -73.24021,5.32793 z"
           inkscape:connector-curvature="0"
           style="fill:#000000" />
        <path
           id="path3568"
           d="m 126.00839,818.55745 c 13.25664,1.05756 26.73051,4.93908 37.22606,13.38812 7.21998,-3.5957 15.26886,-5.95663 23.40348,-5.17918 5.95091,0.40016 11.63315,2.46954 16.96667,5.03626 10.37551,-8.41473 23.77506,-12.10761 36.88307,-13.25092 0.24581,7.11709 -0.6231,14.26275 -2.54958,21.11687 -1.59491,5.34496 -3.9101,10.67848 -7.94598,14.64576 12.95938,15.94912 23.0262,34.08768 30.90929,53.02084 -23.8951,-7.87739 -49.80243,-8.88921 -74.43496,-4.12734 -1.83501,0.38301 -3.73861,0.41731 -5.55647,-0.0457 -24.35243,-5.57362 -50.28834,-4.96195 -74.05768,2.96688 3.6986,-9.34653 8.30612,-18.31006 13.28522,-27.02777 4.93337,-8.55765 10.47841,-16.7723 16.76659,-24.39244 -6.57973,-6.64833 -9.10643,-16.13777 -10.27832,-25.15846 -0.42874,-3.65286 -0.67455,-7.31716 -0.61739,-10.99289 m 85.47931,18.45868 c 4.79617,4.41888 9.88388,8.51192 14.70864,12.90222 1.12044,-0.16007 1.81785,-1.43485 2.58959,-2.20659 4.01872,-5.47072 4.90478,-12.56493 4.8419,-19.17896 -7.9517,0.73743 -16.01772,3.15552 -22.14013,8.48333 m -78.64805,-8.38615 c 0.15434,7.62014 1.21762,16.44646 7.49437,21.61421 5.08772,-4.2531 10.19258,-8.52335 15.0402,-13.05085 -6.24246,-5.3621 -14.39995,-8.08317 -22.53457,-8.56336 m 20.85391,44.58323 c -2.7325,1.73211 -3.56712,5.26493 -3.57855,8.30613 0.17149,2.7325 0.95466,5.77941 3.27557,7.48294 1.66923,1.19475 4.08161,0.49733 5.17918,-1.14897 2.59531,-3.58998 2.67534,-8.74629 0.5202,-12.55922 -1.00611,-1.8465 -3.37275,-3.30993 -5.3964,-2.08088 m 56.5365,-0.0857 c -2.8354,1.68066 -3.76148,5.3278 -3.68144,8.42616 0.0915,2.88114 1.0404,6.23674 3.73861,7.71732 2.01222,1.04613 4.2874,-0.41159 5.23634,-2.22944 2.00079,-3.63572 1.9722,-8.39759 -0.17149,-11.96471 -0.98897,-1.71496 -3.2127,-2.97831 -5.12202,-1.94933 z"
           inkscape:connector-curvature="0"
           style="fill:#ffffff" />
        <path
           id="path3570"
           d="m 211.4877,837.01613 c 6.12241,-5.32775 14.18843,-7.7459 22.14013,-8.48333 0.0629,6.61403 -0.82318,13.70824 -4.8419,19.17896 -0.77174,0.77174 -1.46915,2.04652 -2.58959,2.20659 -4.82476,-4.3903 -9.91247,-8.48334 -14.70864,-12.90222 m 6.79124,0.38873 c 2.61245,2.26946 5.21919,4.53887 7.87166,6.75688 1.81786,-3.28129 2.78967,-6.99132 3.06978,-10.72416 -3.80721,0.76602 -7.63728,1.85788 -10.94144,3.96728 z"
           inkscape:connector-curvature="0"
           style="fill:#000000" />
        <path
           id="path3572"
           d="m 132.83965,828.62998 c 8.13462,0.48019 16.29211,3.20126 22.53457,8.56336 -4.84762,4.5275 -9.95248,8.79775 -15.0402,13.05085 -6.27675,-5.16775 -7.34003,-13.99407 -7.49437,-21.61421 m 4.51606,4.81904 c 0.31441,3.83007 1.35482,7.59727 3.15552,11.00432 2.84684,-2.13227 5.46501,-4.55036 8.10033,-6.93415 -3.4585,-2.05796 -7.31144,-3.34989 -11.25585,-4.07017 z"
           inkscape:connector-curvature="0"
           style="fill:#000000" />
        <path
           id="path3574"
           d="m 137.35571,833.44902 c 3.94441,0.72028 7.79735,2.01221 11.25585,4.07017 -2.63532,2.38379 -5.25349,4.80188 -8.10033,6.93415 -1.8007,-3.40705 -2.84111,-7.17425 -3.15552,-11.00432 z"
           inkscape:connector-curvature="0"
           style="fill:#ffffff" />
        <path
           id="path3576"
           d="m 218.27894,837.40486 c 3.30416,-2.1094 7.13423,-3.20126 10.94144,-3.96728 -0.28011,3.7329 -1.25192,7.44293 -3.06978,10.72416 -2.65247,-2.21796 -5.25921,-4.48742 -7.87166,-6.75688 z"
           inkscape:connector-curvature="0"
           style="fill:#ffffff" />
        <path
           id="path3578"
           d="m 153.69356,873.21321 c 2.02365,-1.22905 4.39029,0.23438 5.3964,2.08082 2.15514,3.81293 2.07511,8.96924 -0.5202,12.55922 -1.09757,1.64631 -3.50995,2.34378 -5.17918,1.14897 -2.32091,-1.70353 -3.10408,-4.75044 -3.27557,-7.48294 0.0114,-3.04114 0.84605,-6.57396 3.57855,-8.30607 z"
           inkscape:connector-curvature="0"
           style="fill:#000000" />
        <path
           id="path3580"
           d="m 210.23006,873.12747 c 1.90932,-1.02898 4.13305,0.23437 5.12202,1.94933 2.14369,3.56712 2.17228,8.32899 0.17149,11.96471 -0.94894,1.81785 -3.22412,3.27557 -5.23634,2.22944 -2.69821,-1.48058 -3.64715,-4.83618 -3.73861,-7.71732 -0.08,-3.09836 0.84604,-6.7455 3.68144,-8.42616 z"
           inkscape:connector-curvature="0"
           style="fill:#000000" />
        <path
           id="path3582"
           d="m 103.1194,908.98156 c 23.22627,-8.79203 48.97925,-10.20401 73.24021,-5.32781 -5.69367,0.64025 -11.52453,1.12616 -16.87521,3.34989 -1.43484,0.70313 -3.15552,1.53203 -3.61284,3.20697 0.36014,2.48669 2.16656,4.44746 3.76147,6.27104 5.99093,6.20243 14.14842,10.74136 22.89472,11.09007 0.0514,10.50127 0.14863,21.00254 -0.0514,31.50381 -7.50009,4.52178 -16.31499,6.41395 -25.01555,6.3282 0.1372,0.47447 0.2744,0.96038 0.42303,1.452 7.01418,0.0686 14.27418,-0.50306 20.67098,-3.63571 1.79499,-0.74887 3.26985,-2.15514 5.10486,-2.78396 7.71732,4.49891 16.76087,6.76838 25.69581,6.25389 -0.006,-0.33156 -0.006,-0.98324 -0.0114,-1.3148 -8.62053,0.0572 -17.41256,-1.77213 -24.79832,-6.37394 -0.04,-10.46125 -0.0286,-20.9225 -0.006,-31.37804 8.02029,-0.37158 15.57183,-4.18445 21.39126,-9.58085 2.05223,-2.00079 4.13305,-4.1502 5.15631,-6.87699 0.62882,-1.73783 -1.11472,-2.9383 -2.42381,-3.64715 -5.25921,-2.64104 -11.2387,-3.05263 -16.9781,-3.75004 24.35243,-3.97299 49.88818,-2.22373 73.07443,6.46539 8.92923,3.39562 17.53261,7.89454 24.91265,14.01123 6.67119,5.59648 12.68499,13.02226 13.54818,21.99721 -24.7926,0.1372 -49.59091,-0.08 -74.38352,0.10862 -0.006,0.61166 -0.006,1.22905 0.006,1.85215 24.78689,0.13148 49.57949,-0.0457 74.36637,0.0915 -0.20008,4.23595 -1.87502,8.20894 -4.06445,11.7932 -20.43661,-2.26946 -40.82748,-4.96766 -61.25265,-7.35717 -3.37847,-0.30298 -6.72836,-1.17761 -10.13541,-0.97181 0.0229,0.4173 0.0686,1.24048 0.0915,1.65779 23.25486,2.85261 46.51543,5.69938 69.776,8.48333 -4.40745,5.88232 -10.62704,10.10683 -16.92665,13.73683 -13.55962,7.51724 -28.58838,11.9304 -43.69146,15.09165 -17.71553,3.56711 -35.80264,5.04769 -53.85545,5.14487 -22.8547,-0.20007 -45.81801,-2.55529 -67.87239,-8.74057 -8.80918,-2.51528 -17.486872,-5.60792 -25.655796,-9.79242 -7.111367,-3.70432 -14.074103,-8.14034 -19.276147,-14.33707 26.158851,-3.16124 52.311983,-6.35678 78.465123,-9.58662 0.0286,-0.42874 0.0915,-1.29188 0.12005,-1.72062 -3.44707,-0.04 -6.83698,0.69742 -10.24975,1.05184 -23.28915,2.77252 -46.549719,5.76798 -69.850304,8.46047 -2.686771,-3.80721 -4.727573,-8.22037 -4.841903,-12.94795 24.461041,-0.0514 48.922087,0.04 73.383127,-0.0457 1.44056,0.0286 0.87463,-2.52099 -0.53164,-1.91504 -24.28383,-0.0457 -48.567658,0.0114 -72.845771,-0.0286 0.520205,-7.40291 4.819037,-13.90832 9.855302,-19.10465 8.140342,-8.27194 18.515848,-14.02277 29.268649,-18.1844 z"
           inkscape:connector-curvature="0"
           style="fill:#ffffff" />
      </g>
      <g
         id="g3346"
         transform="matrix(0.73934698,0,0,0.73934698,252.05495,207.81375)">
        <path
           style="fill:#000000"
           inkscape:connector-curvature="0"
           d="m 123.25302,815.36191 c 1.66923,-1.67495 4.13877,-0.97753 6.20244,-0.75453 12.14763,1.48058 24.33528,5.082 34.29348,12.41631 8.04316,-3.73861 17.10958,-5.49359 25.9359,-4.15592 4.64183,0.60024 9.08929,2.16085 13.38241,3.97299 9.9925,-7.2257 22.14584,-10.81568 34.27632,-12.25624 1.93219,-0.20008 4.22452,-0.83462 5.83658,0.64025 1.74926,1.3491 1.61207,3.73289 1.5892,5.71081 -0.18293,11.71324 -2.42953,23.85509 -9.1979,33.65329 12.21623,15.44029 21.51703,32.96152 29.26293,50.99718 3.89296,1.85787 8.06031,3.23556 11.88467,5.31066 9.46086,4.81332 18.51585,11.09007 24.78117,19.80778 3.11551,4.53321 5.88803,9.80386 5.3278,15.48609 6.5683,0.24581 13.15375,-0.0171 19.72204,0.12005 1.04613,-0.21723 1.13759,0.86319 1.4177,1.58348 -0.98896,0.25724 -2.00078,0.40015 -3.01833,0.37729 -5.16774,-0.0457 -10.32977,-0.006 -15.4918,-0.0343 -0.80031,0.13725 -1.86359,-0.30869 -2.47526,0.36014 -0.20008,2.54386 -0.13148,5.20204 -1.19475,7.58584 -0.74887,1.57776 -1.795,2.98974 -2.64676,4.51606 7.42578,0.84605 14.85155,1.73782 22.26589,2.73822 -0.0114,0.39444 -0.0286,1.18332 -0.0343,1.57776 -7.83737,-0.25153 -15.57755,-1.84072 -23.38062,-2.54386 -3.29272,6.11669 -9.01497,10.34121 -14.68006,14.10269 -12.29054,7.83165 -26.23316,12.6564 -40.29012,16.2178 -17.15531,4.25887 -34.79081,6.3625 -52.43775,7.0885 -20.22509,0.68025 -40.54736,-0.50877 -60.47519,-4.09875 -17.89275,-3.34989 -35.785494,-8.34042 -51.614572,-17.54976 -6.253887,-3.88152 -12.696418,-8.15749 -16.520779,-14.6286 -4.790454,0.39444 -9.535175,1.39483 -14.354212,1.45771 0.02287,-0.4173 0.06288,-1.25763 0.08575,-1.68066 4.281683,-0.64025 8.614814,-0.92608 12.89078,-1.64064 -1.309086,-2.16657 -2.98403,-4.16735 -3.652864,-6.65976 -0.828897,-2.18372 -0.668834,-4.53893 -0.663118,-6.81983 -6.665476,-0.0572 -13.33667,0.0457 -20.002146,-0.04 -1.183322,0.23438 -1.171889,-2.1094 0,-1.88646 6.67691,-0.13719 13.353819,0.0114 20.030729,-0.0629 -0.594519,-6.79118 3.121227,-12.96509 7.082783,-18.14999 8.877775,-10.96997 21.528461,-18.16142 34.510699,-23.20912 0.71457,-0.19436 1.17189,-0.77745 1.40056,-1.452 7.28857,-17.29251 16.58937,-33.75612 27.98814,-48.67627 -6.91129,-9.35796 -9.07786,-21.31123 -9.44371,-32.69857 0.0915,-2.25242 -0.54879,-5.05924 1.40626,-6.72275 m 2.75537,3.19554 c -0.0572,3.67573 0.18865,7.34003 0.61739,10.99289 1.17189,9.02069 3.69859,18.51013 10.27832,25.15846 -6.28818,7.62014 -11.83322,15.83479 -16.76659,24.39244 -4.9791,8.71771 -9.58662,17.68124 -13.28522,27.02777 23.76934,-7.92883 49.70525,-8.5405 74.05768,-2.96688 1.81786,0.46304 3.72146,0.42874 5.55647,0.0457 24.63253,-4.76187 50.53986,-3.75005 74.43496,4.12734 -7.88309,-18.93316 -17.94991,-37.07172 -30.90929,-53.02084 4.03588,-3.96728 6.35107,-9.3008 7.94598,-14.64576 1.92648,-6.85412 2.79539,-13.99978 2.54958,-21.11687 -13.10801,1.14331 -26.50756,4.83619 -36.88307,13.25092 -5.33352,-2.56672 -11.01576,-4.6361 -16.96667,-5.03626 -8.13462,-0.77745 -16.1835,1.58348 -23.40348,5.17918 -10.49555,-8.44904 -23.96942,-12.33056 -37.22606,-13.38812 m -22.88899,90.42411 c -10.752799,4.16163 -21.128305,9.91246 -29.268647,18.18429 -5.036265,5.19632 -9.335097,11.70174 -9.855302,19.10465 24.278113,0.04 48.561939,-0.0172 72.845769,0.0286 1.40627,-0.60595 1.9722,1.94362 0.53164,1.91504 -24.46104,0.0858 -48.922084,-0.006 -73.383125,0.0457 0.11433,4.72757 2.155132,9.14074 4.841903,12.94795 23.300585,-2.69249 46.561152,-5.68795 69.850302,-8.46047 3.41277,-0.35443 6.80268,-1.09186 10.24975,-1.05184 -0.0286,0.42874 -0.0915,1.29188 -0.12005,1.72062 -26.15314,3.22984 -52.30627,6.42543 -78.465121,9.58662 5.202044,6.19672 12.16478,10.63275 19.276147,14.33706 8.168924,4.1845 16.846614,7.27715 25.655794,9.79242 22.05438,6.18529 45.01769,8.5405 67.87239,8.74058 18.05281,-0.0972 36.13992,-1.57776 53.85545,-5.14488 15.10308,-3.16124 30.13184,-7.5744 43.69146,-15.09164 6.29961,-3.63 12.5192,-7.85458 16.92665,-13.73683 -23.26057,-2.78395 -46.52114,-5.63079 -69.776,-8.48333 -0.0229,-0.41731 -0.0686,-1.24049 -0.0915,-1.6578 3.40705,-0.20579 6.75694,0.66884 10.13541,0.97181 20.42517,2.38951 40.81604,5.08772 61.25265,7.35718 2.18943,-3.58427 3.86437,-7.55726 4.06445,-11.79321 -24.78688,-0.13719 -49.57948,0.04 -74.36637,-0.0915 -0.0114,-0.6231 -0.0114,-1.24049 -0.006,-1.85216 24.79261,-0.18864 49.59092,0.0286 74.38352,-0.10861 -0.86319,-8.97496 -6.87699,-16.40073 -13.54818,-21.99722 -7.38004,-6.11669 -15.98342,-10.6156 -24.91265,-14.01122 -23.18625,-8.68913 -48.722,-10.43839 -73.07443,-6.4654 5.7394,0.69742 11.71889,1.10901 16.9781,3.75005 1.30909,0.70885 3.05263,1.90932 2.42381,3.64714 -1.02326,2.72679 -3.10408,4.87621 -5.15631,6.87699 -5.81943,5.39641 -13.37097,9.20934 -21.39126,9.58085 -0.0229,10.45554 -0.0343,20.9168 0.006,31.37805 7.38576,4.60181 16.17779,6.4311 24.79832,6.37393 0.006,0.33156 0.006,0.98325 0.0114,1.31481 -8.93494,0.51448 -17.97849,-1.75498 -25.69581,-6.25389 -1.83501,0.62882 -3.30987,2.03509 -5.10486,2.78395 -6.3968,3.13266 -13.6568,3.70431 -20.67098,3.63572 -0.14863,-0.49163 -0.28583,-0.97753 -0.42303,-1.452 8.70056,0.0857 17.51546,-1.80643 25.01555,-6.3282 0.20008,-10.50127 0.1029,-21.00254 0.0514,-31.50381 -8.7463,-0.34871 -16.90379,-4.88764 -22.89472,-11.09008 -1.59491,-1.82357 -3.40133,-3.78434 -3.76147,-6.27103 0.45732,-1.67495 2.178,-2.50384 3.61284,-3.20698 5.35068,-2.22373 11.18154,-2.70969 16.87521,-3.34989 -24.26096,-4.87608 -50.01394,-3.4641 -73.24021,5.32793 z"
           id="path3348" />
        <path
           style="fill:#ffffff"
           inkscape:connector-curvature="0"
           d="m 126.00839,818.55745 c 13.25664,1.05756 26.73051,4.93908 37.22606,13.38812 7.21998,-3.5957 15.26886,-5.95663 23.40348,-5.17918 5.95091,0.40016 11.63315,2.46954 16.96667,5.03626 10.37551,-8.41473 23.77506,-12.10761 36.88307,-13.25092 0.24581,7.11709 -0.6231,14.26275 -2.54958,21.11687 -1.59491,5.34496 -3.9101,10.67848 -7.94598,14.64576 12.95938,15.94912 23.0262,34.08768 30.90929,53.02084 -23.8951,-7.87739 -49.80243,-8.88921 -74.43496,-4.12734 -1.83501,0.38301 -3.73861,0.41731 -5.55647,-0.0457 -24.35243,-5.57362 -50.28834,-4.96195 -74.05768,2.96688 3.6986,-9.34653 8.30612,-18.31006 13.28522,-27.02777 4.93337,-8.55765 10.47841,-16.7723 16.76659,-24.39244 -6.57973,-6.64833 -9.10643,-16.13777 -10.27832,-25.15846 -0.42874,-3.65286 -0.67455,-7.31716 -0.61739,-10.99289 m 85.47931,18.45868 c 4.79617,4.41888 9.88388,8.51192 14.70864,12.90222 1.12044,-0.16007 1.81785,-1.43485 2.58959,-2.20659 4.01872,-5.47072 4.90478,-12.56493 4.8419,-19.17896 -7.9517,0.73743 -16.01772,3.15552 -22.14013,8.48333 m -78.64805,-8.38615 c 0.15434,7.62014 1.21762,16.44646 7.49437,21.61421 5.08772,-4.2531 10.19258,-8.52335 15.0402,-13.05085 -6.24246,-5.3621 -14.39995,-8.08317 -22.53457,-8.56336 m 20.85391,44.58323 c -2.7325,1.73211 -3.56712,5.26493 -3.57855,8.30613 0.17149,2.7325 0.95466,5.77941 3.27557,7.48294 1.66923,1.19475 4.08161,0.49733 5.17918,-1.14897 2.59531,-3.58998 2.67534,-8.74629 0.5202,-12.55922 -1.00611,-1.8465 -3.37275,-3.30993 -5.3964,-2.08088 m 56.5365,-0.0857 c -2.8354,1.68066 -3.76148,5.3278 -3.68144,8.42616 0.0915,2.88114 1.0404,6.23674 3.73861,7.71732 2.01222,1.04613 4.2874,-0.41159 5.23634,-2.22944 2.00079,-3.63572 1.9722,-8.39759 -0.17149,-11.96471 -0.98897,-1.71496 -3.2127,-2.97831 -5.12202,-1.94933 z"
           id="path3350" />
        <path
           style="fill:#000000"
           inkscape:connector-curvature="0"
           d="m 211.4877,837.01613 c 6.12241,-5.32775 14.18843,-7.7459 22.14013,-8.48333 0.0629,6.61403 -0.82318,13.70824 -4.8419,19.17896 -0.77174,0.77174 -1.46915,2.04652 -2.58959,2.20659 -4.82476,-4.3903 -9.91247,-8.48334 -14.70864,-12.90222 m 6.79124,0.38873 c 2.61245,2.26946 5.21919,4.53887 7.87166,6.75688 1.81786,-3.28129 2.78967,-6.99132 3.06978,-10.72416 -3.80721,0.76602 -7.63728,1.85788 -10.94144,3.96728 z"
           id="path3352" />
        <path
           style="fill:#000000"
           inkscape:connector-curvature="0"
           d="m 132.83965,828.62998 c 8.13462,0.48019 16.29211,3.20126 22.53457,8.56336 -4.84762,4.5275 -9.95248,8.79775 -15.0402,13.05085 -6.27675,-5.16775 -7.34003,-13.99407 -7.49437,-21.61421 m 4.51606,4.81904 c 0.31441,3.83007 1.35482,7.59727 3.15552,11.00432 2.84684,-2.13227 5.46501,-4.55036 8.10033,-6.93415 -3.4585,-2.05796 -7.31144,-3.34989 -11.25585,-4.07017 z"
           id="path3354" />
        <path
           style="fill:#ffffff"
           inkscape:connector-curvature="0"
           d="m 137.35571,833.44902 c 3.94441,0.72028 7.79735,2.01221 11.25585,4.07017 -2.63532,2.38379 -5.25349,4.80188 -8.10033,6.93415 -1.8007,-3.40705 -2.84111,-7.17425 -3.15552,-11.00432 z"
           id="path3356" />
        <path
           style="fill:#ffffff"
           inkscape:connector-curvature="0"
           d="m 218.27894,837.40486 c 3.30416,-2.1094 7.13423,-3.20126 10.94144,-3.96728 -0.28011,3.7329 -1.25192,7.44293 -3.06978,10.72416 -2.65247,-2.21796 -5.25921,-4.48742 -7.87166,-6.75688 z"
           id="path3358" />
        <path
           style="fill:#000000"
           inkscape:connector-curvature="0"
           d="m 153.69356,873.21321 c 2.02365,-1.22905 4.39029,0.23438 5.3964,2.08082 2.15514,3.81293 2.07511,8.96924 -0.5202,12.55922 -1.09757,1.64631 -3.50995,2.34378 -5.17918,1.14897 -2.32091,-1.70353 -3.10408,-4.75044 -3.27557,-7.48294 0.0114,-3.04114 0.84605,-6.57396 3.57855,-8.30607 z"
           id="path3360" />
        <path
           style="fill:#000000"
           inkscape:connector-curvature="0"
           d="m 210.23006,873.12747 c 1.90932,-1.02898 4.13305,0.23437 5.12202,1.94933 2.14369,3.56712 2.17228,8.32899 0.17149,11.96471 -0.94894,1.81785 -3.22412,3.27557 -5.23634,2.22944 -2.69821,-1.48058 -3.64715,-4.83618 -3.73861,-7.71732 -0.08,-3.09836 0.84604,-6.7455 3.68144,-8.42616 z"
           id="path3362" />
        <path
           style="fill:#ffffff"
           inkscape:connector-curvature="0"
           d="m 103.1194,908.98156 c 23.22627,-8.79203 48.97925,-10.20401 73.24021,-5.32781 -5.69367,0.64025 -11.52453,1.12616 -16.87521,3.34989 -1.43484,0.70313 -3.15552,1.53203 -3.61284,3.20697 0.36014,2.48669 2.16656,4.44746 3.76147,6.27104 5.99093,6.20243 14.14842,10.74136 22.89472,11.09007 0.0514,10.50127 0.14863,21.00254 -0.0514,31.50381 -7.50009,4.52178 -16.31499,6.41395 -25.01555,6.3282 0.1372,0.47447 0.2744,0.96038 0.42303,1.452 7.01418,0.0686 14.27418,-0.50306 20.67098,-3.63571 1.79499,-0.74887 3.26985,-2.15514 5.10486,-2.78396 7.71732,4.49891 16.76087,6.76838 25.69581,6.25389 -0.006,-0.33156 -0.006,-0.98324 -0.0114,-1.3148 -8.62053,0.0572 -17.41256,-1.77213 -24.79832,-6.37394 -0.04,-10.46125 -0.0286,-20.9225 -0.006,-31.37804 8.02029,-0.37158 15.57183,-4.18445 21.39126,-9.58085 2.05223,-2.00079 4.13305,-4.1502 5.15631,-6.87699 0.62882,-1.73783 -1.11472,-2.9383 -2.42381,-3.64715 -5.25921,-2.64104 -11.2387,-3.05263 -16.9781,-3.75004 24.35243,-3.97299 49.88818,-2.22373 73.07443,6.46539 8.92923,3.39562 17.53261,7.89454 24.91265,14.01123 6.67119,5.59648 12.68499,13.02226 13.54818,21.99721 -24.7926,0.1372 -49.59091,-0.08 -74.38352,0.10862 -0.006,0.61166 -0.006,1.22905 0.006,1.85215 24.78689,0.13148 49.57949,-0.0457 74.36637,0.0915 -0.20008,4.23595 -1.87502,8.20894 -4.06445,11.7932 -20.43661,-2.26946 -40.82748,-4.96766 -61.25265,-7.35717 -3.37847,-0.30298 -6.72836,-1.17761 -10.13541,-0.97181 0.0229,0.4173 0.0686,1.24048 0.0915,1.65779 23.25486,2.85261 46.51543,5.69938 69.776,8.48333 -4.40745,5.88232 -10.62704,10.10683 -16.92665,13.73683 -13.55962,7.51724 -28.58838,11.9304 -43.69146,15.09165 -17.71553,3.56711 -35.80264,5.04769 -53.85545,5.14487 -22.8547,-0.20007 -45.81801,-2.55529 -67.87239,-8.74057 -8.80918,-2.51528 -17.486872,-5.60792 -25.655796,-9.79242 -7.111367,-3.70432 -14.074103,-8.14034 -19.276147,-14.33707 26.158851,-3.16124 52.311983,-6.35678 78.465123,-9.58662 0.0286,-0.42874 0.0915,-1.29188 0.12005,-1.72062 -3.44707,-0.04 -6.83698,0.69742 -10.24975,1.05184 -23.28915,2.77252 -46.549719,5.76798 -69.850304,8.46047 -2.686771,-3.80721 -4.727573,-8.22037 -4.841903,-12.94795 24.461041,-0.0514 48.922087,0.04 73.383127,-0.0457 1.44056,0.0286 0.87463,-2.52099 -0.53164,-1.91504 -24.28383,-0.0457 -48.567658,0.0114 -72.845771,-0.0286 0.520205,-7.40291 4.819037,-13.90832 9.855302,-19.10465 8.140342,-8.27194 18.515848,-14.02277 29.268649,-18.1844 z"
           id="path3364" />
      </g>
    </g>
    <path
       style="fill:#ff0000;fill-rule:evenodd;stroke-width:0.694199;stroke-linecap:square;paint-order:stroke fill markers"
       d="m 168.70839,77.157924 c -9.04462,1.030179 -18.03093,4.052353 -25.32542,9.602679 -7.27758,-3.447877 -15.74384,-4.972878 -23.56665,-2.498983 -2.31445,0.647883 -4.52316,1.607757 -6.70862,2.595842 -8.15577,-5.895675 -18.149547,-9.502796 -28.177747,-9.80499 -0.67637,5.804718 0.490491,11.932755 2.142034,17.589588 1.180338,3.615714 3.152693,6.93409 5.537468,9.88249 -9.05362,11.45232 -16.445181,24.21131 -22.039382,37.68535 -0.468415,1.60164 1.659226,0.86854 2.460938,0.5747 14.72405,-4.60616 30.460389,-4.96385 45.669869,-2.89965 3.4603,0.36028 6.9078,1.6692 10.37507,1.67031 14.7701,-2.79952 30.03845,-2.99955 44.81762,-0.37135 4.05749,0.64432 7.95434,2.01881 11.94165,2.91941 1.24413,-0.74804 -0.28879,-2.48689 -0.4556,-3.50272 -5.66428,-12.94462 -12.81996,-25.2808 -21.61033,-36.35945 6.30499,-7.477799 7.76163,-17.744133 7.88576,-27.149548 -0.81382,-0.456229 -2.01977,0.122082 -2.94666,0.06632 z m -3.2064,8.206473 c 0.20313,5.232996 -0.70788,11.284539 -4.71381,15.004543 -1.926,-0.962089 -3.77994,-3.060695 -5.63361,-4.490672 -1.67534,-1.602556 -3.9855,-3.214753 -5.25334,-4.890306 4.44639,-3.554396 10.07619,-5.110897 15.58139,-5.966517 z M 91.504544,85.234535 c 5.353251,0.798973 10.853696,2.494447 15.021766,6.073421 -3.47111,3.217443 -7.139277,6.414045 -10.825258,9.290574 -4.232501,-3.789471 -5.325709,-10.006896 -5.200972,-15.478791 0.334821,0.03827 0.669643,0.07653 1.004464,0.114796 z m 58.093906,33.148755 c 3.30656,0.62687 3.64796,4.88144 3.34702,7.61312 -0.0258,2.2668 -2.06399,5.22157 -4.60116,4.04656 -3.16276,-2.50761 -3.02447,-7.73449 -0.65003,-10.7492 0.48143,-0.53274 1.16159,-0.9569 1.90417,-0.91048 z m -42.57063,0.0359 c 3.33894,0.86062 4.18585,5.3474 3.31402,8.31266 -0.34844,2.01129 -2.03266,4.38152 -4.32279,3.38218 -2.87208,-1.59541 -2.94853,-5.78084 -2.08211,-8.57741 0.50214,-1.32074 1.43017,-3.15749 3.09088,-3.11743 z"
       id="path202"
       transform="matrix(0.9375,0,0,0.9375,0,782.36218)" />
    <path
       style="fill:#ff0000;fill-rule:evenodd;stroke-width:0.694199;stroke-linecap:square;paint-order:stroke fill markers"
       d="m 307.73485,77.19882 c 0.22849,6.761358 0.8536,13.839756 3.64842,20.120924 1.18923,2.549436 2.55991,5.057806 4.48918,7.130196 -9.00054,11.49763 -16.46713,24.22963 -22.01499,37.73126 -0.11875,1.60006 2.09548,0.50784 2.93662,0.41901 15.55839,-4.62493 32.22349,-4.94042 48.13967,-2.22202 3.43063,0.58506 6.84252,1.83268 10.30398,0.70321 8.80574,-1.65898 17.76683,-1.95411 26.6855,-1.5345 9.07583,0.0212 18.01183,1.99939 26.70145,4.51121 1.79805,0.0247 0.59318,-2.23279 0.18207,-3.06787 -5.62218,-13.16972 -13.05464,-25.51906 -21.75868,-36.87608 5.27551,-6.055763 7.10666,-14.357592 7.59354,-22.1834 -0.22316,-1.535428 0.83318,-4.404228 -1.30918,-4.887632 -9.48362,0.910735 -19.18018,3.722854 -26.70153,9.797832 -8.63956,-4.607315 -19.44733,-5.112328 -28.30879,-0.820236 -1.88848,1.690608 -3.39778,-0.08739 -5.00941,-1.162342 -7.47181,-4.821977 -16.34072,-7.394381 -25.18611,-7.848258 l -0.33095,0.159416 z m 81.04162,10.810188 c -0.32647,4.388015 -1.25177,9.774596 -5.12205,12.413742 -3.66551,-2.936979 -7.05526,-6.205599 -10.58778,-9.299902 4.46957,-3.716839 10.2666,-5.256887 15.89781,-6.112166 -0.0627,0.999442 -0.12532,1.998884 -0.18798,2.998326 z m -74.11799,-2.802455 c 5.42615,0.843508 10.98976,2.476783 15.24705,6.086336 -3.62905,3.171401 -7.24703,6.356012 -10.94722,9.444831 -4.42926,-3.903474 -5.00944,-10.162659 -5.43344,-15.665335 0.37787,0.04472 0.75574,0.08944 1.13361,0.134168 z m 15.67467,33.176737 c 3.29388,0.62317 3.62035,4.85069 3.33267,7.56362 -0.0811,2.19875 -1.7543,5.17559 -4.35507,4.18861 -2.97306,-1.84552 -3.09124,-6.17022 -1.92427,-9.13847 0.51362,-1.21279 1.45878,-2.65379 2.94667,-2.61376 z m 42.70336,0.0402 c 2.97858,0.66011 3.4757,4.51994 3.27312,7.06138 -0.1059,2.32497 -1.92713,5.92541 -4.72026,4.44834 -2.86446,-1.85527 -2.56992,-5.95012 -1.74347,-8.83641 0.48927,-1.35856 1.59,-2.77881 3.19061,-2.67331 z"
       id="path241"
       transform="matrix(0.9375,0,0,0.9375,0,782.36218)" />
    <path
       style="fill:#ff6347;fill-rule:evenodd;stroke-width:0.694199;stroke-linecap:square;paint-order:stroke fill markers"
       d="m 99.30708,139.13552 c -15.452331,0.10516 -31.004186,4.1879 -44.283359,12.14812 -8.06569,4.93667 -15.777776,12.24091 -17.322589,21.99865 1.215731,1.41945 4.148224,0.19973 5.998804,0.60554 16.501004,0.12139 33.051127,-0.26669 49.52224,0.27193 1.358038,0.3385 -1.574449,0.36816 -1.921393,0.37954 -17.690031,0.33824 -35.385707,0.12158 -53.078047,0.18511 -1.062588,0.8815 0.09628,2.74646 0.246811,4.00064 0.87149,2.20699 1.564409,5.3324 4.050144,6.18248 19.644759,-2.05249 39.206896,-4.89109 58.850839,-6.93153 1.30928,-0.0182 -1.3264,0.62297 -1.734847,0.65793 -18.548519,2.82828 -37.277759,4.44594 -55.836018,7.24003 -1.190034,1.05988 0.993806,2.38058 1.585244,3.17006 6.969393,6.4978 16.026325,10.11596 24.799881,13.46674 24.872633,8.10801 51.48738,9.97045 77.45568,7.76738 18.6153,-1.8395 37.55361,-5.45105 54.11012,-14.53734 4.60025,-2.68234 9.05123,-5.8985 12.52317,-9.94576 0.0626,-1.60295 -2.59874,-0.74547 -3.63134,-1.22788 -15.79108,-2.0666 -31.64866,-3.67456 -47.38971,-6.04946 -0.53287,0.0316 -1.74347,-0.6374 -0.51299,-0.52376 17.43336,1.82225 34.84655,4.24051 52.28308,6.20759 2.32544,-1.75259 2.95941,-5.05652 3.59234,-7.79505 1.0171,-2.78117 -2.89215,-1.33847 -4.35789,-1.68207 -17.12994,0 -34.25988,0 -51.38982,0 0.21289,-1.9027 3.91327,-0.31792 5.5102,-0.83658 16.60882,0 33.21763,0 49.82645,0 1.20517,-1.31454 -0.0956,-3.53333 -0.55102,-5.09478 -3.84796,-9.70051 -13.1187,-15.88163 -22.16063,-20.24171 -17.19922,-7.86308 -36.68217,-10.36559 -55.39621,-8.11719 -1.26138,-0.21877 -2.13426,1.49553 -0.60914,1.79441 3.04564,0.99134 6.70036,1.15968 9.01794,3.58809 0.36237,2.38063 -1.96946,4.24199 -3.39078,5.86391 -4.44039,4.03344 -10.15359,7.19591 -16.19986,7.43735 -0.25242,7.99214 -0.0358,16.06372 -0.10834,24.08633 3.44814,2.38953 7.82531,3.66033 12.01198,4.42269 2.01829,0.4306 4.63009,0.38531 6.35106,0.75532 -6.35129,0.31496 -12.81516,-1.2521 -18.3616,-4.30054 -3.10073,0.51273 -5.68194,2.78374 -8.8149,3.37931 -3.51966,0.83018 -7.28685,1.47332 -10.87117,1.04177 1.69542,-0.5914 4.4577,-0.34832 6.51036,-0.88334 4.30382,-0.83967 8.85906,-2.05131 12.3377,-4.69 -0.10646,-7.93169 0.21299,-15.96094 -0.15991,-23.8316 -6.78019,-0.29135 -13.21046,-3.97845 -17.82072,-8.92255 -1.28327,-1.32992 -3.33537,-3.97356 -0.90043,-5.27056 3.25932,-2.0504 7.32315,-1.91042 10.79727,-3.22434 0.77142,-1.45317 -1.79347,-1.49125 -2.64963,-1.6753 -5.94216,-0.72577 -11.94814,-0.85597 -17.92897,-0.86958 z"
       id="path280"
       transform="matrix(0.9375,0,0,0.9375,0,782.36218)" />
    <path
       style="fill:#ff6347;fill-rule:evenodd;stroke-width:0.694199;stroke-linecap:square;paint-order:stroke fill markers"
       d="m 323.82494,139.09965 c -18.41902,0.1575 -37.47487,5.04557 -51.95807,16.83841 -5.28275,4.31622 -9.80864,10.12175 -10.80804,17.02854 1.10386,1.31054 3.38995,0.49779 4.94035,0.81358 16.95363,0.20379 33.90955,0.0666 50.8641,0.10765 -0.84508,1.54025 -4.17482,0.22625 -5.97079,0.67418 -16.46892,0.0556 -32.93784,0.11114 -49.40676,0.16671 -1.09244,0.90911 0.11217,2.87646 0.25973,4.15704 0.88996,2.14366 1.61332,5.14368 4.00207,6.02033 19.75199,-2.05864 39.43704,-4.92596 59.17873,-6.95663 -0.92086,0.96878 -2.98433,0.66778 -4.28381,1.06761 -17.85156,2.43147 -35.79686,4.23533 -53.61925,6.87411 -1.0999,1.18638 1.12785,2.44098 1.78651,3.30971 10.51621,9.21096 24.1959,13.70219 37.55239,16.98117 24.04072,5.53934 49.06103,6.17887 73.49285,3.1235 16.65283,-2.38621 33.52999,-6.38865 48.01957,-15.25095 3.35501,-2.36077 6.97436,-4.74491 9.37237,-8.11249 -0.22294,-1.46456 -2.54985,-0.862 -3.63069,-1.32508 -16.07659,-2.3139 -32.30875,-3.85698 -48.35177,-6.15961 -0.60972,-1.13805 1.85485,-0.16456 2.32964,-0.34726 16.97574,1.98769 33.95348,4.02868 50.91127,6.12221 1.93628,-2.19402 2.92242,-5.37142 3.52711,-8.294 -0.13165,-1.55762 -2.46486,-0.76148 -3.51922,-1.06545 -17.51338,-0.34631 -35.03265,-0.21567 -52.54855,-0.33076 0.44384,-1.50583 4.08933,-0.23394 5.78428,-0.65434 16.62795,0 33.2559,0 49.88385,0 1.08212,-0.85735 -0.12268,-2.72445 -0.26618,-3.9583 -3.17849,-9.31919 -11.68788,-15.52299 -20.02256,-20.01108 -17.73508,-9.08504 -38.35308,-11.8673 -58.0236,-9.47856 -1.22234,-0.16145 -1.83661,1.49956 -0.45846,1.76642 2.96739,1.21454 6.90444,1.08865 9.05954,3.74307 0.0273,2.63376 -2.51374,4.44141 -4.15561,6.21476 -4.25849,3.86306 -9.7081,6.64423 -15.53188,6.86982 -1.05716,1.67308 -0.14217,4.33383 -0.44843,6.37476 0.12878,5.92614 -0.2577,11.99853 0.19298,17.83331 5.48459,3.46843 12.09455,4.56625 18.46423,5.17179 0.0342,0.59538 -1.61826,0.0774 -2.18235,0.16481 -5.76071,-0.33169 -11.35479,-1.9379 -16.50355,-4.57799 -3.50513,1.42034 -6.90221,3.45531 -10.74921,3.95472 -2.68503,0.4572 -6.004,0.61467 -8.37938,0.38671 6.2735,-0.41813 12.7984,-1.5921 18.1439,-4.94983 0.49072,-7.90736 0.31029,-15.9337 0.085,-23.88475 -1.11945,-1.11428 -3.3409,-0.47691 -4.80995,-1.26347 -5.78698,-1.39383 -10.47888,-5.35634 -14.18877,-9.84662 -1.14224,-1.27643 -0.81276,-3.36125 0.94133,-3.81625 3.24858,-1.76002 7.08044,-1.67156 10.52965,-2.91222 0.63701,-1.50819 -1.89908,-1.42372 -2.82214,-1.63599 -5.52961,-0.67695 -11.11257,-0.96554 -16.6824,-0.93329 z"
       id="path356"
       transform="matrix(0.9375,0,0,0.9375,0,782.36218)" />
  </g>
</svg>
