<?xml version="1.0" encoding="UTF-8" standalone="no"?>
<!-- Created with Inkscape (http://www.inkscape.org/) -->

<svg
   xmlns:dc="http://purl.org/dc/elements/1.1/"
   xmlns:cc="http://creativecommons.org/ns#"
   xmlns:rdf="http://www.w3.org/1999/02/22-rdf-syntax-ns#"
   xmlns:svg="http://www.w3.org/2000/svg"
   xmlns="http://www.w3.org/2000/svg"
   xmlns:sodipodi="http://sodipodi.sourceforge.net/DTD/sodipodi-0.dtd"
   xmlns:inkscape="http://www.inkscape.org/namespaces/inkscape"
   id="svg2"
   sodipodi:docname="clipart-0001.svg"
   viewBox="0 0 261 408"
   version="1.1"
   inkscape:version="0.92.1 r15371"
   width="278.39999"
   height="435.20001">
  <defs
     id="defs7" />
  <sodipodi:namedview
     id="namedview4"
     bordercolor="#666666"
     inkscape:pageshadow="2"
     guidetolerance="10"
     pagecolor="#ffffff"
     gridtolerance="10"
     inkscape:window-maximized="0"
     inkscape:zoom="0.61519608"
     objecttolerance="10"
     borderopacity="1"
     inkscape:current-layer="svg2"
     inkscape:cx="202.34118"
     inkscape:cy="287.68053"
     inkscape:window-y="45"
     inkscape:window-x="461"
     inkscape:window-width="878"
     showgrid="false"
     inkscape:pageopacity="0"
     inkscape:window-height="728" />
  <path
     id="path2822"
     style="fill:#000000"
     d="m 123.29,394.78 c -1.4001,-2.6266 -2.8365,-6.0132 -3.192,-7.5257 -0.35545,-1.5125 -1.0877,-2.75 -1.6272,-2.75 -0.53952,0 -0.98095,-1.0984 -0.98095,-2.441 0,-1.3425 -0.41084,-2.6949 -0.91299,-3.0052 -0.50214,-0.31034 -1.2128,-2.3388 -1.5792,-4.5076 -0.58172,-3.4432 -1.1318,-4.092 -4.337,-5.1156 -2.0189,-0.64472 -4.117,-1.5866 -4.6624,-2.093 -1.324,-1.2295 1.1449,-2.741 3.4798,-2.1304 2.9332,0.76707 1.2502,-4.4012 -2.2434,-6.8889 -2.8547,-2.0327 -2.9169,-2.2192 -1.167,-3.4988 1.6382,-1.1979 1.7038,-1.7195 0.57643,-4.5855 -0.69964,-1.7786 -1.4391,-3.9922 -1.6432,-4.919 -0.20415,-0.92681 -0.85571,-2.5905 -1.4479,-3.697 -0.5922,-1.1065 -1.1742,-3.189 -1.2932,-4.6278 -0.11907,-1.4387 -0.791,-3.0927 -1.4932,-3.6754 -1.9852,-1.6475 -1.5118,-2.8147 1.1415,-2.8147 4.6989,0 5.5339,-0.83268 4.3392,-4.3268 -0.59676,-1.7453 -1.3512,-3.3982 -1.6766,-3.6732 -1.0665,-0.90143 -3.0809,-7.5858 -3.0809,-10.223 0,-1.983 0.71275,-2.8296 3.0755,-3.6533 2.5673,-0.89497 2.9665,-1.4482 2.4156,-3.3478 -0.36296,-1.2516 -1.5302,-3.5061 -2.5938,-5.01 -1.648,-2.33 -1.7464,-3.0692 -0.66561,-5 0.69756,-1.2462 1.2683,-2.3223 1.2683,-2.3915 0,-0.0692 0.97864,-0.42625 2.1748,-0.79351 1.7357,-0.53293 2.2634,-0.20474 2.6138,1.6258 0.37798,1.9744 0.45801,1.9018 0.57525,-0.52224 0.18415,-3.8075 -1.5074,-6.6843 -3.9304,-6.6843 -2.3896,0 -3.7647,-2.8682 -1.9212,-4.0075 0.717,-0.44312 2.3595,-0.32461 3.65,0.26337 3.6656,1.6702 3.7968,0.27152 0.43288,-4.6177 -2.9912,-4.3475 -3.0272,-4.5248 -1.0484,-5.1529 1.1272,-0.35775 2.5903,-0.2198 3.2514,0.30654 1.4798,1.1781 7.702,2.1233 7.702,1.1699 0,-1.579 -4.2706,-5.9628 -5.8226,-5.977 -0.92258,-0.008 -2.3524,-0.45842 -3.1774,-1 -1.2787,-0.83941 -1.2921,-1.1186 -0.0907,-1.8922 0.77512,-0.49911 2.0126,-0.67597 2.75,-0.39301 0.73737,0.28296 1.3338,0.12882 1.3254,-0.34252 -0.034,-1.9033 -1.777,-3.3898 -5.4766,-4.6706 -5.2765,-1.8268 -6.1026,-4.2081 -1.1366,-3.2765 1.9956,0.37439 3.602,0.32282 3.5696,-0.11461 -0.0324,-0.43742 -1.3398,-3.4953 -2.9056,-6.7953 -2.2635,-4.7708 -2.5951,-6.2636 -1.6187,-7.2867 1.5294,-1.6026 4.2329,-0.66045 4.8473,1.6892 0.25374,0.97029 1.1728,1.7642 2.0423,1.7642 1.4148,0 1.4293,-0.36313 0.1372,-3.4555 -0.79406,-1.9005 -1.4438,-3.6521 -1.4438,-3.8924 0,-0.24029 -0.40219,-0.18832 -0.89377,0.11548 -1.4164,0.87536 -8.2882,-2.3883 -7.8428,-3.7247 0.5434,-1.6302 10.479,-1.6202 13.937,0.0141 3.1036,1.4669 7.7997,1.7 7.7997,0.38709 0,-2.3112 -3.7871,-5.0623 -7.5,-5.4483 -8.9001,-0.92537 -10.236,-4.2556 -1.6138,-4.0224 4.8546,0.13124 5.1381,0.006 4.528,-2 -1.3006,-4.2771 -3.2906,-5.3935 -10.882,-6.1048 -7.7396,-0.72526 -11.383,-2.3489 -10.064,-4.4842 0.51819,-0.83846 1.8082,-1.0186 3.9028,-0.54484 5.4174,1.2252 11.63,1.6593 11.597,0.81017 -0.0708,-1.8173 -3.2219,-4.8758 -5.9925,-5.8163 -3.8417,-1.3042 -4.1947,-2.9173 -0.72573,-3.3164 1.5125,-0.17403 2.75,-0.55457 2.75,-0.84563 0,-1.6819 -4.3562,-6.2105 -6.4889,-6.7458 -2.8778,-0.72228 -3.2375,-2.3405 -0.90018,-4.0496 1.4775,-1.0804 1.4725,-1.3163 -0.0602,-2.849 -0.9191,-0.91911 -1.7565,-2.9136 -1.8609,-4.4323 -0.17937,-2.6095 0.0185,-2.7448 3.6016,-2.4628 l 3.7914,0.29844 -2.7914,-5.1874 c -1.5353,-2.853 -3.3473,-6.1373 -4.0267,-7.2984 -1.511,-2.5824 -1.6481,-8.2561 -0.22076,-9.1383 0.57418,-0.35487 2.1492,0.0789 3.5,0.96404 1.3915,0.91177 2.456,1.1486 2.456,0.54635 0,-1.8009 -4.1308,-9.2978 -7.1416,-12.961 -3.0603,-3.7235 -3.9006,-9.0222 -1.4309,-9.0222 0.78514,0 2.5351,1.4152 3.8887,3.1448 l 2.4612,3.1448 0.66566,-3.0307 c 0.51927,-2.3642 1.3405,-3.1657 3.7341,-3.6444 2.6485,-0.5297 2.8907,-0.82781 1.7698,-2.1784 -0.82931,-0.99926 -2.1459,-1.352 -3.6433,-0.97623 -3.0119,0.75593 -6.3037,-1.0053 -6.3037,-3.3727 0,-2.1359 2.2325,-4.2865 4.0197,-3.8724 0.67664,0.1568 1.4604,-0.34912 1.7417,-1.1243 0.3545,-0.97685 0.009,-1.2166 -1.125,-0.78138 -1.2841,0.49275 -1.6364,0.002 -1.6364,-2.2803 0,-2.6388 -0.34744,-2.937 -3.75,-3.2186 -3.0507,-0.2525 -3.8114,-0.74353 -4.0791,-2.6333 -0.23889,-1.6861 0.25636,-2.476 1.8066,-2.8814 1.5096,-0.39476 1.931,-1.033 1.4377,-2.1771 -1.3694,-3.1755 -1.5887,-6.8933 -0.44824,-7.5981 1.3696,-0.84644 5.0331,2.1859 5.0331,4.1659 0,0.75702 0.675,1.6354 1.5,1.952 0.825,0.31658 1.5,1.4275 1.5,2.4686 0,1.0412 0.675,1.893 1.5,1.893 0.825,0 1.5,-0.62686 1.5,-1.393 0,-0.76616 -0.675,-1.652 -1.5,-1.9686 -0.825,-0.31658 -1.503,-1.3772 -1.5066,-2.357 -0.0102,-2.7578 -3.2696,-6.7814 -5.4934,-6.7814 -3.1712,0 -3.158,-4.0228 0.0201,-6.1051 2.4853,-1.6284 2.9206,-1.6319 7.3113,-0.05825 4.533,1.6246 8.1687,2.1543 8.1687,1.1901 0,-0.26029 -0.9822,-2.4949 -2.1827,-4.9659 -2.0234,-4.1648 -6.615,-7.4299 -8.2081,-5.8367 -0.83486,0.83481 -3.6092,-1.7542 -3.6092,-3.368 0,-0.76945 1.1093,-1.9044 2.4651,-2.5222 l 2.4651,-1.1232 -1.9262,-2.7051 c -1.2898,-1.8114 -3.3431,-3.0029 -6.2151,-3.6065 -3.2842,-0.69026 -4.3611,-1.4081 -4.5972,-3.0644 -0.32518,-2.2814 2.7977,-4.0774 4.8667,-2.7987 0.59488,0.36765 1.3139,-0.24344 1.6075,-1.3663 1.0864,-4.1545 7.3342,-3.8457 7.3342,0.36241 0,1.3468 0.84764,2.8511 1.9343,3.4326 2.6414,1.4136 3.0663,1.3144 3.062,-0.71482 -0.007,-3.227 -3.6955,-7.9728 -6.6543,-8.5615 -12.838,-2.5543 -13.78,-3.0013 -12.272,-5.8198 0.90499,-1.691 1.8573,-1.9476 6.0027,-1.6171 6.9583,0.55471 6.3175,-2.7054 -1.3229,-6.7308 -3.9948,-2.1046 -4.6171,-3.5564 -2.336,-5.4495 1.4316,-1.1882 1.5296,-7.7355 0.14923,-9.9691 -1.2847,-2.0787 0.46056,-5.1023 2.9451,-5.1023 1.3055,0 2.6517,0.45 2.9916,1 0.93407,1.5114 2.5,1.1982 2.5,-0.5 0,-0.825 -0.5671,-1.5 -1.2602,-1.5 -2.0647,0 -6.8775,-5.0521 -6.5179,-6.842 0.20829,-1.0368 1.2594,-1.6275 2.8056,-1.5765 6.7139,0.2211 10.611,1.0765 11.973,2.6278 1.6628,1.8947 9.8986,4.9715 11.183,4.1778 1.2319,-0.76133 0.9805,-4.8237 -0.38283,-6.187 -0.93333,-0.93333 -0.75556,-1.2 0.8,-1.2 1.1,0 2.5625,0.5625 3.25,1.25 0.6875,0.6875 1.6791,1.25 2.2035,1.25 0.52442,0 1.742,1.575 2.7058,3.5 1.0679,2.133 2.4294,3.4465 3.4858,3.3629 0.95337,-0.0754 1.4795,0.27374 1.1692,0.77587 -0.57382,0.92847 5.6844,3.5922 6.5694,2.7962 0.97282,-0.87498 -0.21488,-4.4916 -2.1674,-6.5999 -1.3414,-1.4484 -1.7859,-2.855 -1.3432,-4.25 0.84008,-2.6469 3.527,-2.732 3.527,-0.11183 0,2.8366 4.2192,11.12 5.4563,10.712 0.57401,-0.18922 1.3021,-1.8833 1.618,-3.7646 l 0.57429,-3.4205 0.84493,3 c 0.92824,3.2958 4.4876,9.5983 4.5181,8 0.0105,-0.55 0.34966,-0.48494 0.75374,0.14457 0.40408,0.62951 2.7597,1.5437 5.2347,2.0316 3.8784,0.76452 4.5,1.228 4.5,3.3554 0,2.2508 -0.37454,2.4608 -4.25,2.3821 -6.5689,-0.1334 -5.1204,2.4896 2.5,4.5271 2.3375,0.62497 4.25,1.7389 4.25,2.4753 0,2.0997 -2.3905,3.556 -4.802,2.9254 -2.5082,-0.65591 -2.6918,-0.10758 -0.99605,2.9742 0.66105,1.2013 1.3033,2.6343 1.4272,3.1843 0.12388,0.55 1.1754,4.375 2.3367,8.5 1.1613,4.125 2.7983,9.975 3.6378,13 0.83949,3.025 1.976,7.075 2.5257,9 0.87173,3.053 1.7435,6.7273 3.4405,14.5 1.189,5.4462 1.573,9.5 0.8999,9.5 -1.5497,0 -3.4072,-3.6152 -3.4378,-6.691 -0.0175,-1.755 -0.4818,-3.4691 -1.0318,-3.809 -0.55,-0.33992 -1.0028,-1.829 -1.0062,-3.309 -0.003,-1.48 -0.60301,-3.8346 -1.3325,-5.2324 -0.72949,-1.3978 -2.1408,-5.5503 -3.1363,-9.2278 -1.2854,-4.7486 -2.3701,-6.8642 -3.7429,-7.2999 -1.0631,-0.33742 -2.1846,-0.36184 -2.4922,-0.05425 -0.86034,0.86034 1.6586,6.2669 3.8392,8.2403 1.4403,1.3034 1.7832,2.5053 1.3184,4.6213 -0.65957,3.003 2.7646,18.15 5.1908,22.962 0.74884,1.4852 1.3615,3.6227 1.3615,4.75 0,2.7881 -2.7809,2.6129 -3.1804,-0.20034 -0.24805,-1.7466 -1.077,-2.3224 -3.7047,-2.5734 -2.6186,-0.2502 -3.2598,0.003 -2.8315,1.1194 0.30452,0.79358 1.5613,5.5516 2.7929,10.573 1.2316,5.0218 2.6734,9.1306 3.2039,9.1306 0.53059,0 0.39989,0.68055 -0.29042,1.5123 -0.95467,1.1503 -1.5824,1.2407 -2.6224,0.37756 -0.75203,-0.62413 -1.3673,-1.6595 -1.3673,-2.3009 0,-2.7586 -3.6775,-8.1061 -5.7779,-8.4019 -2.5593,-0.36033 -2.6008,-0.18325 -1.1176,4.767 0.78974,2.6359 1.9294,3.9976 4,4.7792 3.0507,1.1515 4.0117,4.2667 1.3161,4.2667 -1.2603,0 -1.4358,0.65388 -0.86877,3.2357 0.39088,1.7796 1.3998,3.7396 2.2419,4.3554 0.89911,0.65745 1.2652,1.813 0.88679,2.7991 -0.70967,1.8494 1.0509,11.482 2.4087,13.179 0.81501,1.0185 0.32665,14.475 -0.62599,17.249 -0.30411,0.88556 -1.849,1.2137 -4.7079,1 -4.1323,-0.30888 -4.2493,-0.2351 -4.0504,2.5535 0.1127,1.5794 0.39992,3.0666 0.63827,3.3049 0.23834,0.23835 3.1598,0.47202 6.4921,0.51926 6.1438,0.0871 7.8103,1.1416 6.1218,3.8737 -0.50807,0.82208 -2.5755,1.3967 -5.0703,1.4093 -5.1735,0.0261 -6.3149,2.1274 -1.977,3.6396 3.3325,1.1617 4.2227,4.233 1.5268,5.2676 -0.97129,0.37272 -1.2584,1.076 -0.7581,1.857 1.8196,2.8404 8.0206,20.709 8.6214,24.843 0.69827,4.8051 0.031,5.5339 -5.6368,6.1566 -5.6644,0.6224 -6.809,1.4836 -6.0137,4.5248 0.46037,1.7604 1.3062,2.2328 3.9986,2.2328 2.1256,0 3.6339,0.57108 3.9952,1.5127 0.95326,2.4842 -1.3051,4.1496 -5.2099,3.8421 -2.9216,-0.23009 -3.506,0.0135 -3.027,1.2618 0.32649,0.85083 0.59362,1.9602 0.59362,2.4652 0,0.50501 1.125,0.91821 2.5,0.91821 2.7617,0 3.3604,2.5239 1.4468,6.0994 -0.79777,1.4906 -0.55525,3.3704 1,7.7508 2.264,6.3768 2.5715,9.085 1.0532,9.2748 -0.55,0.0688 -1.5625,0.18125 -2.25,0.25 -2.2296,0.22296 -1.9682,4.3438 0.4166,6.5656 1.8037,1.6804 2.0564,2.4851 1.2066,3.8425 -1.4415,2.3026 -6.3732,2.9088 -6.3732,0.78337 0,-0.89975 -0.8512,-1.5664 -2,-1.5664 -2.0224,0 -2.7869,1.5521 -1.0673,2.1667 0.513,0.18333 1.2008,2.1333 1.5285,4.3333 1.6933,11.369 1.6755,11.318 4.1384,11.936 3.503,0.87919 3.0766,4.1807 -0.84967,6.579 -2.5828,1.5776 -3.3122,1.6991 -3.5528,0.59178 -0.31624,-1.4552 -5.1972,-2.9104 -5.1972,-1.5495 0,2.297 1.4811,3.9431 3.548,3.9431 3.589,0 4.1058,2.067 1.1133,4.4531 -3.1971,2.5492 -3.363,4.101 -0.59674,5.5815 2.9436,1.5754 0.70586,3.9654 -3.7127,3.9654 h -3.4032 l 1.598,3.0903 c 0.87892,1.6996 1.3546,3.7246 1.0571,4.5 -0.56966,1.4845 1.7974,1.9136 8.1463,1.4769 2.5676,-0.17663 3.2468,0.16028 3.2347,1.6046 -0.008,1.0055 -0.34592,2.2784 -0.75,2.8287 -0.78904,1.0746 -10.653,1.0382 -15.985,-0.0588 -3.6753,-0.75621 -3.6289,-0.82704 -2.1801,3.3289 1.1551,3.3136 3.6645,4.895 5.2505,3.309 1.6896,-1.6896 7.29,2.1238 6.0546,4.1227 -0.27117,0.43876 -1.9433,0.79775 -3.7159,0.79775 -2.7761,0 -3.2537,0.37268 -3.4454,2.6883 -0.25334,3.061 1.5959,4.7146 3.5027,3.1321 0.91506,-0.75943 1.2835,-0.74301 1.2835,0.0572 0,0.61734 1.575,1.1224 3.5,1.1224 2.8333,0 3.5,0.38095 3.5,2 0,1.6965 -0.66667,2 -4.393,2 -3.1525,0 -4.5711,0.464 -5.0235,1.6431 -0.71739,1.8695 -0.83643,1.6939 2.2311,3.2912 1.8062,0.94052 2.0658,1.5049 1.182,2.5698 -0.89196,1.0748 -3.9326,1.2595 -14.315,0.86993 -15.577,-0.58459 -23.792,-0.59736 -24.352,-0.0379 -0.22297,0.22297 0.0151,1.476 0.52896,2.7846 0.51389,1.3086 1.9828,5.6417 3.2643,9.6292 1.3224,4.1149 2.8953,7.25 3.6373,7.25 1.5329,0 1.1564,5.1942 -0.41446,5.7178 -0.55042,0.18347 -2.1463,-1.8155 -3.5465,-4.4421 z m 26.308,-27.526 c -0.66858,-1.819 -1.7159,-2.3084 -5.4678,-2.5548 -3.6005,-0.23647 -4.6408,0.0326 -4.6408,1.2003 0,2.1198 2.865,3.5385 7.2178,3.5741 3.4383,0.0281 3.6556,-0.13874 2.8908,-2.2196 z m -21.46,-1.2652 c -1.0167,-0.74343 -1.552,-1.8316 -1.1894,-2.4182 0.36253,-0.58659 -0.0424,-1.0665 -0.89986,-1.0665 -2.4414,0 -1.8876,3.9402 0.69098,4.9157 2.9397,1.1121 3.7467,0.28631 1.3983,-1.4309 z m -8.6801,-0.73477 c -0.0175,-0.6875 -0.6925,-2.1235 -1.5,-3.1911 -1.212,-1.6024 -1.4682,-1.6602 -1.4682,-0.33179 0,2.3376 1.075,4.7729 2.107,4.7729 0.49115,0 0.8787,-0.5625 0.86121,-1.25 z m 14.156,-1.0167 c -0.98762,-0.98026 -1.1025,-0.8654 -0.5598,0.5598 0.37553,0.98622 0.93469,1.5412 1.2426,1.2333 0.30789,-0.30789 6.4e-4,-1.1148 -0.68278,-1.7931 z m 12.457,-8.4859 c -1.1537,-1.1537 -1.7456,0.65318 -0.95886,2.9272 l 0.80455,2.3254 0.36756,-2.3359 c 0.20215,-1.2847 0.10619,-2.5972 -0.21325,-2.9167 z m -22.126,-1.4975 c -1.4409,-4.7694 -4.247,-5.0417 -3.056,-0.29657 0.35153,1.4006 1.3359,2.5466 2.1875,2.5466 1.1404,0 1.3692,-0.59276 0.86855,-2.25 z m 7.545,1.25 c 0,-0.55 -0.47656,-1 -1.059,-1 -0.58246,0 -0.7809,0.45 -0.44098,1 0.33992,0.55 0.81648,1 1.059,1 0.24254,0 0.44098,-0.45 0.44098,-1 z m -17.087,-4.1617 c -0.79004,-1.4762 -1.4054,-1.8626 -1.6756,-1.052 -0.43908,1.3172 1.7006,4.6086 2.4856,3.8235 0.24119,-0.24118 -0.12334,-1.4884 -0.81005,-2.7715 z m 30.694,-3.4201 c -0.33385,-0.86998 -0.60699,-2.1878 -0.60699,-2.9286 0,-1.5955 -2.6997,-4.4896 -4.188,-4.4896 -0.98805,0 -0.57766,3.2307 1.1115,8.75 0.0421,0.1375 1.0246,0.25 2.1835,0.25 1.5104,0 1.9351,-0.44784 1.5,-1.5818 z m -8.357,-0.0805 c -0.6875,-0.27741 -1.25,-1.1207 -1.25,-1.874 0,-2.4333 -2.2825,-6.4637 -3.6605,-6.4637 -1.6839,0 -1.6777,0.11417 0.2691,4.9798 1.2006,3.0007 2.1517,4.0002 3.75,3.9413 1.1778,-0.0434 1.5789,-0.30592 0.89142,-0.58333 z m -15.25,-2.7432 c 0,-1.7267 -4.5602,-8.4343 -5.259,-7.7355 -1.2725,1.2725 1.8558,8.141 3.7079,8.141 0.85307,0 1.551,-0.18247 1.551,-0.4055 z m -10.622,-4.3445 c -0.77622,-3.2356 -1.1588,-3.8029 -1.9985,-2.9632 -0.90842,0.90843 0.48611,5.7132 1.6582,5.7132 0.58418,0 0.72567,-1.1435 0.34028,-2.75 z m 39.594,-6.3469 c -1.1659,-4.0651 -2.7731,-5.9031 -5.162,-5.9031 -1.558,0 -1.8055,0.44764 -1.244,2.25 1.8504,5.9399 2.4312,6.75 4.8393,6.75 2.2693,0 2.3878,-0.23417 1.5668,-3.0969 z m -9.9722,0.50121 c 0,-1.929 -3.1174,-7.4043 -4.2156,-7.4043 -1.1583,0 -0.96116,1.6412 0.66458,5.5321 1.4993,3.5882 3.551,4.67 3.551,1.8722 z m -9.1856,-1.8069 c -0.81874,-0.60355 -1.411,-2.1252 -1.3161,-3.3814 0.18807,-2.49 -1.9402,-6.1074 -2.981,-5.0666 -1.0111,1.0111 0.56153,7.7866 2.1838,9.4089 0.80306,0.80307 1.942,1.1623 2.531,0.79829 0.70843,-0.43784 0.56704,-1.0332 -0.41774,-1.7592 z m -16.042,-4.3831 c -1.5872,-3.739 -3.1441,-5.3656 -1.8468,-1.9296 0.57824,1.5316 1.0033,3.1066 0.94449,3.5 -0.24169,1.6178 0.18605,2.2987 1.0923,1.7386 0.60227,-0.37223 0.53121,-1.6102 -0.18993,-3.309 z m 7.2276,1.7857 c 0,-1.1 -0.40787,-2 -0.90638,-2 -0.49851,0 -0.67103,0.9 -0.38337,2 0.28766,1.1 0.69553,2 0.90638,2 0.21085,0 0.38337,-0.9 0.38337,-2 z m 30.771,-7.1875 c -0.61807,-1.8542 -2.7708,-2.1618 -2.7708,-0.39583 0,0.87083 0.7125,1.5833 1.5833,1.5833 0.87084,0 1.4052,-0.53438 1.1875,-1.1875 z m -7.9577,-1.5625 c -0.18345,-0.9625 -1.3063,-1.8892 -2.4952,-2.0593 -1.7478,-0.25009 -2.0586,0.085 -1.6232,1.75 0.67784,2.5921 4.6097,2.8874 4.1184,0.30932 z m -33.831,-4.8124 c -1.1194,-3.9979 -3.2316,-6.5219 -4.4437,-5.3098 -0.20621,0.20621 0.7607,2.7643 2.1487,5.6846 2.9889,6.2887 4.1095,6.1056 2.295,-0.37486 z m 23.426,2.0624 c -1.7732,-2.7063 -3.408,-3.2819 -3.408,-1.2 0,1.6817 2.0309,3.7 3.723,3.7 1.0134,0 0.93968,-0.58511 -0.31501,-2.5 z m -8.7823,-2.033 c -0.30962,-0.80686 -1.0271,-1.467 -1.5943,-1.467 -1.4723,0 -1.2803,3.747 0.21862,4.2667 1.5047,0.52162 2.1479,-0.78737 1.3757,-2.7997 z m 26.374,-2.8446 c 0,-1.6994 -1.784,-3.1583 -4.75,-3.8844 -2.5886,-0.63369 -2.5622,-0.68944 -1.2748,2.6968 0.69144,1.8186 1.71,2.5651 3.5,2.5651 1.4778,0 2.5248,-0.57123 2.5248,-1.3776 z m -12,-1.5406 c 0,-1.974 -1.2746,-4.0818 -2.4683,-4.0818 -0.79873,0 -1.0808,0.90805 -0.77643,2.5 0.44047,2.3042 3.2448,3.6712 3.2448,1.5818 z m -8.416,-1.3318 c -0.32048,-0.6875 -0.86047,-2.0375 -1.2,-3 -0.3395,-0.9625 -1.0148,-1.75 -1.5006,-1.75 -1.0263,0 -1.2029,4.3471 -0.2167,5.3333 1.1783,1.1783 3.5202,0.71006 2.9173,-0.58333 z m -9.584,-2.1682 c 0,-2.4621 -1.1659,-4.5818 -2.5201,-4.5818 -1.0362,0 -1.0722,0.61992 -0.17378,3 1.1828,3.1335 2.6939,4.0208 2.6939,1.5818 z m 37.318,-6.4425 c -0.80437,-3.0196 -6.1303,-8.7061 -7.155,-7.6393 -1.6592,1.7275 1.7303,10.34 4.2156,10.712 2.4736,0.37002 3.5552,-0.76062 2.9393,-3.0727 z m -10.318,0.39463 c 0,-2.9246 -3.2016,-8.0813 -5.7698,-9.2933 -3.0775,-1.4524 -5.2302,-1.6017 -5.2302,-0.36277 0,1.7227 2.9714,7.9506 4.5432,9.5225 2.0301,2.0301 6.4568,2.1216 6.4568,0.13357 z m -14.208,-4.4551 c -0.54741,-2.1566 -2.1871,-4.9624 -3.6437,-6.235 -1.4566,-1.2726 -2.0859,-1.6681 -1.3984,-0.87884 0.6875,0.78926 1.25,2.2674 1.25,3.2847 0,2.3094 2.7515,7.7503 3.9194,7.7503 0.47739,0 0.42011,-1.7645 -0.12731,-3.9212 z m -6.792,2.4433 c 0,-1.7888 -5.6668,-11.522 -6.7083,-11.522 -0.71042,0 -1.2917,0.21589 -1.2917,0.47976 0,1.0118 3.3632,9.0806 4.2807,10.27 0.92033,1.1932 3.7193,1.7743 3.7193,0.77215 z m -13.482,-10.488 c -0.88164,-1.7049 -2.0179,-2.8434 -2.525,-2.53 -0.5071,0.31341 0.0674,2.4656 1.2766,4.7827 1.4715,2.8196 2.3066,3.6563 2.525,2.53 0.17949,-0.92557 -0.39499,-3.0778 -1.2766,-4.7827 z m 28.444,-3.58 c -0.70546,-0.85003 -1.8307,-1.3352 -2.5006,-1.0781 -0.66986,0.25705 -1.7228,-0.0375 -2.3398,-0.65449 -0.82915,-0.82915 -1.427,-0.81671 -2.2914,0.0477 -0.89268,0.89268 -0.59681,1.3984 1.25,2.1366 1.3307,0.5319 3.4871,0.99562 4.792,1.0305 2.0287,0.0542 2.1866,-0.16055 1.0898,-1.4821 z m 7.0378,0.54551 c 0,-0.55 -0.45,-1 -1,-1 -0.55,0 -1,0.45 -1,1 0,0.55 0.45,1 1,1 0.55,0 1,-0.45 1,-1 z m -21.888,-4.2875 c -0.81667,-0.81667 -1.1125,-0.70476 -1.1125,0.42083 0,1.9879 1.3447,3.3326 1.8417,1.8417 0.21083,-0.6325 -0.1173,-1.6506 -0.72917,-2.2625 z m -8.1125,0.0281 c 0,-0.6927 -0.9,-1.8215 -2,-2.5085 -2.2765,-1.4217 -2.7471,0.004 -0.75,2.2721 1.566,1.7786 2.75,1.8804 2.75,0.23638 z m 30.798,-3.4064 c 0.33497,-2.2565 -1.975,-4.5855 -5.0069,-5.0482 -1.4896,-0.22733 -1.8545,0.10709 -1.4025,1.2852 0.3361,0.87586 0.61109,1.9735 0.61109,2.4392 0,1.4207 3.1598,4.1027 4.3661,3.706 0.62366,-0.20513 1.2682,-1.2771 1.4322,-2.3821 z m 9.8045,1.0729 c -0.33619,-0.8761 -0.88803,-2.6957 -1.2263,-4.0436 -0.33829,-1.3479 -1.1239,-2.2833 -1.7457,-2.0788 -1.6214,0.53328 -1.9978,4.568 -0.58498,6.2703 1.6584,1.9983 4.3379,1.8868 3.557,-0.14794 z m -19.625,-0.6571 c -0.0507,-2.849 -8.0028,-9.0583 -9.5804,-7.4807 -1.564,1.564 1.4111,6.2858 4.6778,7.4242 4.4434,1.5485 4.9293,1.5541 4.9026,0.0564 z m -14.614,-3.2443 c -0.31537,-0.82184 -1.0243,-1.2156 -1.5754,-0.875 -0.6161,0.38078 -0.47947,0.95034 0.35479,1.479 1.8208,1.1537 1.8832,1.1228 1.2206,-0.60395 z m -2.4422,-4.6521 c -1.3412,-2.506 -2.3417,-1.7523 -1.441,1.0855 0.36482,1.1494 1.0821,1.831 1.594,1.5147 0.55982,-0.34598 0.49884,-1.3822 -0.15302,-2.6002 z m 21.078,-2.8537 c -1.9388,-1.2529 -3,-1.2529 -3,0 0,0.55 1.0125,0.99311 2.25,0.98469 1.8194,-0.0124 1.963,-0.20082 0.75,-0.98469 z m -9,-0.953 c 0,-1.0105 -7.0734,-3.3069 -7.8363,-2.5441 -0.2468,0.2468 0.12049,1.1346 0.81621,1.9729 1.3767,1.6588 7.0201,2.118 7.0201,0.57117 z m 28.29,-0.67082 c 0.3431,-0.3431 -0.27415,-2.384 -1.3717,-4.5353 -2.2274,-4.3661 -4.441,-4.4092 -2.8509,-0.0555 0.5453,1.493 1.189,3.2771 1.4304,3.9646 0.47174,1.3434 1.7813,1.6371 2.7922,0.62618 z m -42.523,-2.3762 c -1.2618,-2.0204 -2.7679,-2.6734 -2.7679,-1.2 0,1.039 2.1667,3.2 3.2085,3.2 0.44466,0 0.24642,-0.9 -0.44054,-2 z m 35.232,-0.81144 c 0,-1.9084 -3.4437,-6.1886 -4.979,-6.1886 -0.74444,0 -0.79395,2.2659 -0.13498,6.1767 0.0997,0.59169 2.0277,1.346 4.364,1.7073 0.4125,0.0638 0.75,-0.69915 0.75,-1.6954 z m -12.738,-2.4386 c -0.82149,-3.3557 -2.24,-4.75 -4.8324,-4.75 -2.1394,0 -2.2435,0.23544 -1.3001,2.9416 0.93241,2.6747 2.2486,3.6136 5.5269,3.9424 0.70968,0.0712 0.94361,-0.75315 0.60557,-2.134 z m -11.498,-0.58313 c 1.001,-0.63542 0.93733,-1.4578 -0.30587,-3.9498 -1.1619,-2.329 -2.4777,-3.3176 -5.0609,-3.8022 -1.9199,-0.36017 -3.7357,-0.40995 -4.035,-0.11061 -1.0426,1.0426 2.155,6.1462 4.6375,7.4018 2.945,1.4896 3.1174,1.5063 4.7642,0.46088 z m -14.913,-6.7447 c -0.74343,-1.526 -1.9579,-2.9723 -2.6988,-3.214 -1.0742,-0.35051 -1.1177,-0.011 -0.21481,1.6762 0.62276,1.1636 0.87562,2.1157 0.56192,2.1157 -0.3137,0 -0.0628,0.94831 0.55746,2.1074 1.7751,3.3168 3.4772,0.76933 1.7942,-2.6852 z m 40.259,-4.7117 c -1.7303,-1.7303 -2.3882,-0.0917 -0.98522,2.4539 1.1552,2.0961 1.327,2.1452 1.6748,0.47943 0.21314,-1.0209 -0.0972,-2.3409 -0.68958,-2.9333 z m -6.3604,1.5396 c 0.42844,-1.2853 -3.6293,-5.704 -4.4679,-4.8654 -0.30319,0.3032 0.0209,1.9327 0.72027,3.621 1.2311,2.9722 2.9784,3.5524 3.7477,1.2444 z m -12.75,-1.3269 c 0,-1.4257 -5.5985,-6.9913 -6.3134,-6.2763 -1.1191,1.1191 2.6949,7.3532 4.4986,7.3532 0.99814,0 1.8148,-0.48462 1.8148,-1.0769 z m -10.839,-4.4431 c -1.2371,-2.7293 -2.4678,-3.7549 -5.479,-4.5657 -2.1359,-0.57515 -4.1237,-0.80558 -4.4172,-0.51207 -0.86209,0.86209 1.8528,6.5605 3.6167,7.5911 0.89037,0.52024 3.0265,0.95958 4.7469,0.9763 l 3.1281,0.0304 -1.5955,-3.52 z m 18.853,-7.4479 c -1.5786,-3.811 -3.4804,-4.0295 -2.5424,-0.29208 0.65279,2.6009 2.4913,4.6312 3.3848,3.7377 0.22746,-0.22746 -0.1516,-1.778 -0.84236,-3.4456 z m 7.5751,0.223 c -1.0924,-1.0924 -1.8415,0.64486 -1.0572,2.4518 0.74368,1.7134 0.79759,1.7118 1.2119,-0.0351 0.2385,-1.0056 0.16886,-2.093 -0.15476,-2.4167 z m -21.588,-1.1443 c 0,-1.5937 -3.8072,-5.6313 -4.5821,-4.8593 -1.0443,1.0405 1.6184,5.7485 3.2511,5.7485 0.73206,0 1.331,-0.40015 1.331,-0.88922 z m 38,-6.6765 c 0,-3.5478 -1.8289,-5.0517 -6.4333,-5.29 -4.8127,-0.24913 -5.1598,0.16552 -3.5914,4.2907 0.84854,2.2318 1.5631,2.5651 5.5,2.5651 3.4398,0 4.5248,-0.37545 4.5248,-1.5657 z m -20.899,-3.1466 c -0.96059,-1.6506 -1.0427,-1.6279 -1.0708,0.29565 -0.0338,2.3149 1.2352,4.1198 1.7695,2.5168 0.18789,-0.56366 -0.12656,-1.8293 -0.69876,-2.8125 z m -6.7112,-0.0377 c -0.75445,-3.201 -1.8385,-4.6235 -3.134,-4.1125 -1.4786,0.58323 0.61827,6.8625 2.2917,6.8625 1.1164,0 1.3278,-0.69013 0.8423,-2.75 z m -15.422,-2 c -0.0393,-2.1613 -2.2916,-5.25 -3.8284,-5.25 -1.49,0 -1.4406,0.51746 0.38592,4.0497 1.693,3.274 3.4916,3.9011 3.4425,1.2003 z m 7.0096,1 c -0.0122,-0.4125 -0.91073,-1.875 -1.9967,-3.25 l -1.9744,-2.5 1.0945,3.25 c 0.95918,2.8482 2.9379,4.5679 2.8766,2.5 z m 29.391,-7.4621 c -0.26781,-0.43332 -1.9229,-0.78097 -3.6779,-0.77255 -2.4057,0.0115 -2.8218,0.24933 -1.691,0.96618 1.7576,1.1142 6.0808,0.95825 5.3689,-0.19363 z m -11.369,-0.78784 c 0,-0.55 -0.47656,-1 -1.059,-1 -0.58246,0 -0.7809,0.45 -0.44098,1 0.33992,0.55 0.81648,1 1.059,1 0.24254,0 0.44098,-0.45 0.44098,-1 z m -14.871,-3.2708 c -1.6649,-1.6649 -2.6078,-0.0108 -1.0582,1.8563 0.93718,1.1292 1.4792,1.2641 1.755,0.43666 0.21948,-0.65843 -0.0941,-1.6903 -0.69678,-2.293 z m -7.1292,0.42582 c 0,-0.46476 -0.9,-1.6595 -2,-2.655 -1.9983,-1.8085 -2.5379,-1.0654 -1.393,1.9182 0.62713,1.6343 3.393,2.2349 3.393,0.73678 z m -8.7552,-2.655 c -0.30595,-1.6004 -1.1479,-2.5 -2.3399,-2.5 -1.6232,0 -1.7159,0.3206 -0.72291,2.5 0.6265,1.375 1.6794,2.5 2.3399,2.5 0.74165,0 1.0181,-0.95596 0.72291,-2.5 z m 40.805,-3.4019 c -1.7778,-3.4847 -2.3742,-3.891 -5.5786,-3.8002 -3.3283,0.0944 -3.5418,0.28587 -2.9494,2.6463 0.9971,3.9727 2.4153,5.0558 6.6206,5.0558 h 3.8979 l -1.9906,-3.9019 z m -12.752,-0.0664 c -0.57809,-2.2106 -3.0563,-4.6069 -3.896,-3.7672 -0.84533,0.84533 2.5659,6.8732 3.5466,6.2671 0.47494,-0.29353 0.63215,-1.4185 0.34935,-2.4999 z m -14.298,-0.47457 c 0,-1.1451 -4.2996,-7.5572 -5.0674,-7.5572 -1.0147,0 -0.19171,2.5474 1.8576,5.75 1.2605,1.9699 3.2098,3.0674 3.2098,1.8072 z m -10.5,-5.5572 c -1.5222,-2.9435 -3.5,-4.0366 -3.5,-1.9343 0,2.0482 2.0827,4.9343 3.5609,4.9343 1.3071,0 1.2996,-0.36906 -0.0609,-3 z m -7.5,1.1108 c 0,-0.48906 -0.88503,-1.9516 -1.9667,-3.25 -2.099,-2.5196 -2.7532,-1.0745 -0.99809,2.205 1.0575,1.976 2.9648,2.6483 2.9648,1.045 z m 41,-5.4883 c 0,-1.9241 -1.9285,-3.2325 -5.8662,-3.98 -3.122,-0.59261 -3.3225,-0.47589 -2.7636,1.6093 0.33138,1.2365 0.60866,2.5857 0.61617,2.9982 0.008,0.4125 1.8136,0.75 4.0136,0.75 2.7309,0 4,-0.43707 4,-1.3776 z m -14.899,-3.3348 c -0.96059,-1.6506 -1.0427,-1.6279 -1.0708,0.29565 -0.0338,2.3149 1.2352,4.1198 1.7695,2.5168 0.18789,-0.56366 -0.12656,-1.8293 -0.69876,-2.8125 z m -13.101,-0.0652 c 0,-1.2626 -3.0365,-5.2225 -4.0047,-5.2225 -0.49021,0 -0.42067,1.35 0.15452,3 0.91649,2.629 3.8502,4.3225 3.8502,2.2225 z m -10.399,-3.6759 c -0.63074,-2.5131 -3.601,-3.6475 -3.601,-1.3753 0,1.4077 3.1286,5.0335 3.7806,4.3814 0.25276,-0.25276 0.17195,-1.6055 -0.17959,-3.0061 z m -8.601,0.53522 c 0,-2.0515 -1.2967,-4.0818 -2.607,-4.0818 -1.6653,0 -1.7249,0.51127 -0.35783,3.0657 1.0666,1.9929 2.9648,2.6435 2.9648,1.016 z m 42.276,-5.4164 c -0.4609,-2.4111 -4.8728,-5.6654 -7.6807,-5.6654 -2.2489,0 -2.0071,3.5886 0.40429,6 1.1,1.1 3.2876,2 4.8613,2 2.4588,0 2.7985,-0.32843 2.415,-2.3346 z m -13.276,-0.0433 c 0,-1.6082 -3.2521,-7.6221 -4.1218,-7.6221 -1.2585,0 -0.32401,4.7579 1.3247,6.7444 0.9673,1.1655 2.7972,1.7397 2.7972,0.87771 z m -15.565,-3.8721 c -0.38476,-1.2375 -1.0901,-2.4 -1.5674,-2.5833 -0.4773,-0.18334 -0.86782,-1.1958 -0.86782,-2.25 0,-1.0542 -0.675,-1.9167 -1.5,-1.9167 -1.9282,0 -1.8905,1.1133 0.18521,5.4661 1.8998,3.984 4.9099,5.0146 3.75,1.2839 z m 39.965,-5.5996 c -0.055,-0.63269 -0.1675,-2.0775 -0.25,-3.2107 -0.12731,-1.7487 -0.71721,-2.0134 -3.9,-1.75 -2.9096,0.24081 -3.8165,0.77569 -4.0468,2.3867 -0.19522,1.3658 0.4892,2.4463 2,3.1575 2.8021,1.3191 6.3333,0.98659 6.1968,-0.58346 z m -15.473,-0.90035 c -0.0402,-0.4125 -0.85746,-2.0876 -1.8162,-3.7225 -2.0447,-3.487 -8.1221,-5.4772 -8.0954,-2.6512 0.0234,2.4857 1.52,4.3241 4.6445,5.7055 3.317,1.4665 5.3703,1.727 5.2671,0.66816 z m -13.927,-3.1942 c 0,-1.3707 -4.7296,-6.6557 -5.3779,-6.0094 -0.76417,0.76175 3.1211,6.9537 4.3632,6.9537 0.55809,0 1.0147,-0.42491 1.0147,-0.94424 z m -16.39,-4.256 c -0.35203,-1.7602 -1.1958,-3.5533 -1.875,-3.9847 -1.6734,-1.0629 -3.7349,-1.0176 -3.7349,0.0821 0,0.90573 5.102,7.1028 5.8477,7.1028 0.22128,0 0.11429,-1.4401 -0.23774,-3.2003 z m 44.39,-3.3311 c 0,-1.7016 -0.79561,-2.0607 -6.25,-2.8205 -3.9099,-0.54466 -4.9549,0.74698 -2.55,3.1519 1.8236,1.8236 8.8,1.5609 8.8,-0.33138 z m -20,-2.9934 c 0,-1.6004 -3.7945,-3.4752 -7.0337,-3.4752 -1.3922,0 -1.7301,0.4701 -1.2578,1.75 0.8818,2.39 2.298,3.2166 5.5416,3.2347 1.8043,0.01 2.75,-0.50903 2.75,-1.5094 z m -14,-1.9162 c 0,-1.5012 -1.7953,-3.097 -2.5901,-2.3023 -0.69748,0.69747 0.68337,3.7433 1.6971,3.7433 0.49115,0 0.89301,-0.64844 0.89301,-1.441 z m -15.171,-3.4616 c -0.72041,-1.1536 -2.1016,-2.0974 -3.0693,-2.0974 -3.0639,0 -1.6243,3.4741 1.7406,4.2002 2.7005,0.58279 2.8541,0.33967 1.3287,-2.1029 z m 47.171,-1.5974 c 0,-0.825 -0.45,-1.5 -1,-1.5 -0.55,0 -1,0.675 -1,1.5 0,0.825 0.45,1.5 1,1.5 0.55,0 1,-0.675 1,-1.5 z m -6.1869,-1.25 c -0.18345,-0.9625 -1.3414,-1.8938 -2.5733,-2.0696 -1.7011,-0.2427 -2.2398,0.17815 -2.2398,1.75 0,1.5566 0.63784,2.0696 2.5733,2.0696 1.9112,0 2.4875,-0.45029 2.2398,-1.75 z m -15.813,-1.1062 c 0,-2.277 -7.0871,-5.8228 -7.75,-3.8774 -0.68559,2.0118 -0.0727,3.6231 1.5,3.9437 3.7249,0.75935 6.25,0.73256 6.25,-0.0663 z m -13.93,-3.02 c -0.94342,-1.7628 -3.9398,-3.5741 -4.6831,-2.8309 -0.7309,0.7309 2.8279,4.7132 4.212,4.7132 1.1378,0 1.2464,-0.43374 0.47107,-1.8824 z m -15.063,-1.0825 c 0,-0.53065 -0.9,-1.4465 -2,-2.0352 -2.2026,-1.1788 -2.6876,-0.0876 -0.8,1.8 1.4458,1.4458 2.8,1.5596 2.8,0.23518 z m 49,-2.344 c 0,-1.9338 -2.7178,-5.3067 -3.5807,-4.4438 -0.94419,0.94419 1.195,5.7526 2.5592,5.7526 0.56179,0 1.0214,-0.58899 1.0214,-1.3089 z m -7,-1.1093 c 0,-2.9402 -1.2923,-4.5818 -3.607,-4.5818 -2.6331,0 -3.302,2.691 -1.193,4.8 1.653,1.653 4.8,1.51 4.8,-0.21821 z m -17.55,-3.0185 c -1.5524,-2.3693 -6.9415,-4.4047 -8.2357,-3.1105 -0.35371,0.35372 -0.16244,1.409 0.42507,2.3452 0.90343,1.4395 2.6001,2.0429 8.6341,3.0704 0.42518,0.0724 0.0546,-0.96487 -0.82353,-2.305 z m 7.5505,1.0591 c 0,-0.75765 -0.675,-1.9378 -1.5,-2.6224 -1.5902,-1.3198 -1.9517,-0.34077 -0.89301,2.4182 0.74671,1.9459 2.393,2.0864 2.393,0.20423 z m -23,-4.8524 c -1.0886,-1.1685 -2.2813,-1.8225 -2.6504,-1.4534 -0.89489,0.89489 2.6782,4.7839 3.7735,4.107 0.4709,-0.29103 -0.0345,-1.4852 -1.1231,-2.6536 z m 29.774,-4.8336 c 0.16545,-0.85998 -0.81954,-2.7725 -2.1889,-4.25 -2.873,-3.1 -6.2161,-3.7151 -5.0899,-0.93641 0.3901,0.9625 1.1355,2.925 1.6564,4.3611 1.0609,2.9248 5.1042,3.5183 5.6224,0.82532 z m 6.226,0.50457 c 0,-0.85746 -0.45,-1.2809 -1,-0.94098 -0.55,0.33992 -1,1.0415 -1,1.559 0,0.51754 0.45,0.94098 1,0.94098 0.55,0 1,-0.70156 1,-1.559 z m -26.149,-4.7475 c -1.4813,-2.2598 -3.3751,-3.7483 -5.2445,-4.1222 -1.6092,-0.32185 -3.0668,-0.44425 -3.2391,-0.27201 -0.17224,0.17225 0.14482,1.9719 0.70458,3.9992 0.77711,2.8145 1.6574,3.8267 3.7229,4.2812 1.4878,0.32739 3.1552,0.72465 3.7052,0.88279 2.3469,0.67479 2.5056,-1.482 0.35092,-4.769 z m 9.8333,4.0565 c -1.9586,-4.6218 -3.3488,-6.7354 -4.4342,-6.7422 -1.605,-0.01 -1.5817,0.22873 0.43521,4.4583 0.92687,1.9437 2.325,3.5339 3.107,3.5339 0.78198,0 1.1834,-0.5625 0.89204,-1.25 z m -22.684,-2.7997 c 0,-1.886 -3.0244,-6.9503 -4.1507,-6.9503 -1.4525,0 -0.24454,6.1304 1.4157,7.185 1.7171,1.0906 2.7349,1.0033 2.7349,-0.23464 z m 37.293,-0.93909 c -0.28604,-1.0938 -0.91891,-1.7423 -1.4064,-1.441 -1.4128,0.87315 -1.0251,3.4297 0.52007,3.4297 0.9114,0 1.2233,-0.69995 0.88631,-1.9888 z m 5.7073,-8.7887 c 0,-2.4589 -2.7968,-6.2225 -4.6241,-6.2225 -1.0342,0 -1.3315,0.63237 -0.94251,2.0047 0.31249,1.1026 0.82314,2.9026 1.1348,4 0.71407,2.5146 4.4318,2.6973 4.4318,0.21781 z m -27.461,-4.9725 c -0.70437,-4.861 -3.5259,-8.9941 -5.3642,-7.8579 -1.1672,0.72138 -0.27546,4.3487 2.3006,9.3579 2.4763,4.8152 3.8792,4.1284 3.0637,-1.5 z m 11.937,1.6406 c -0.90564,-4.1234 -3.3948,-6.8906 -6.1982,-6.8906 -2.2322,0 -3.1867,2.3202 -1.4069,3.4202 0.47896,0.29601 1.1427,1.8976 1.475,3.559 0.51652,2.5826 1.0545,3.0208 3.7086,3.0208 2.9534,0 3.0712,-0.15126 2.4215,-3.1094 z m -19.476,0.8893 c 0,-0.67107 -1.0125,-3.3755 -2.25,-6.0098 -1.8367,-3.9099 -2.94,-5.001 -6.0064,-5.9401 -2.066,-0.6327 -4.0222,-0.88463 -4.347,-0.55984 -0.32479,0.32479 0.86489,3.5469 2.6437,7.1602 3.0273,6.1493 3.4494,6.5697 6.597,6.5697 1.9796,0 3.3627,-0.50185 3.3627,-1.2201 z m 42.467,-9.5299 c -1.4204,-7.1811 -1.5268,-7.3813 -3.752,-7.0649 -4.4398,0.63132 -2.8365,8.8149 1.7269,8.8149 1.7235,0 2.2766,-0.47803 2.025,-1.75 z m -11.753,-3.3919 c -0.77203,-1.8469 -2.1484,-3.9757 -3.0586,-4.7305 -1.4756,-1.2238 -1.6549,-1.0549 -1.6549,1.5589 0,3.1652 1.6051,5.7983 4,6.5616 2.1886,0.69762 2.2668,0.32606 0.71349,-3.39 z m -16.447,-0.45785 c 0.74474,-0.74475 -1.1247,-5.2671 -3.2098,-7.765 -1.596,-1.9119 -5.9937,-4.0316 -6.7647,-3.2605 -0.80682,0.80682 3.7077,9.5256 5.4612,10.547 2.0056,1.1682 3.6493,1.3425 4.5133,0.47856 z m -13.513,-3.5534 c 0.79341,-0.79342 0.84483,-1.7294 0.16481,-3 -0.54361,-1.0157 -0.75052,-1.8468 -0.45981,-1.8468 0.29072,0 -0.4496,-1.125 -1.6452,-2.5 -2.0208,-2.3241 -4.813,-3.3798 -4.813,-1.8198 0,1.2873 4.3572,10.32 4.9783,10.32 0.34196,0 1.1407,-0.51894 1.7749,-1.1532 z m 35.334,-6.1597 c -0.59792,-0.59792 -1.0871,-1.849 -1.0871,-2.7801 0,-0.93116 -0.71066,-1.9657 -1.5792,-2.299 -1.3184,-0.50591 -1.4628,-0.06934 -0.87437,2.643 0.38768,1.787 1.1894,3.5568 1.7815,3.933 1.5818,1.005 3.0294,-0.22673 1.7592,-1.4969 z m -10.38,-3.876 c -1.4282,-3.5002 -3.7074,-4.9361 -3.7074,-2.3358 0,2.5434 1.9071,5.5176 3.538,5.5176 1.2548,0 1.2793,-0.4616 0.16937,-3.1818 z m -17.73,-3.068 c -0.0122,-0.6875 -0.79973,-2.2062 -1.75,-3.3749 -1.9266,-2.3694 -7.2278,-4.0772 -7.2278,-2.3284 0,1.5191 2.0815,5.3078 3.3997,6.188 1.7932,1.1974 5.6021,0.86642 5.5781,-0.48469 z m -11.978,-2.5945 c 0,-1.2889 -4.2892,-5.7845 -6.1368,-6.4321 -3.0627,-1.0736 0.005,5.3175 3.1368,6.5354 2.2244,0.86495 3,0.83825 3,-0.10328 z m 33.959,-8.705 c -2.1489,-2.5892 -2.9233,-0.44424 -1.1747,3.2537 1.7127,3.622 1.7164,3.6236 2.038,0.90167 0.17724,-1.4998 -0.21125,-3.3697 -0.86331,-4.1554 z m -7.959,4.6716 c 0,-1.7048 -2.985,-7.9948 -4.1298,-8.7024 -1.0746,-0.66416 -0.98097,0.67308 0.4259,6.0802 0.73149,2.8114 3.7039,4.9157 3.7039,2.6221 z m -18,-5.6535 c 0,-0.84226 -0.67242,-1.7894 -1.4943,-2.1048 -0.82184,-0.31537 -1.2433,-0.97942 -0.93661,-1.4757 0.3067,-0.49625 -0.14589,-1.1722 -1.0058,-1.5022 -0.85986,-0.32996 -1.5634,-1.2413 -1.5634,-2.0252 0,-1.6681 -4.1189,-3.5078 -5.327,-2.3793 -0.45485,0.42488 -0.26931,2.6339 0.41232,4.909 0.98927,3.3019 1.8623,4.3173 4.327,5.0328 4.5655,1.3253 5.5877,1.2422 5.5877,-0.45467 z m 36,-4.4096 c 0,-0.51754 -0.39188,-1.1832 -0.87084,-1.4792 -0.47896,-0.29601 -1.1427,-1.8976 -1.475,-3.559 -0.44122,-2.2061 -1.1685,-3.0208 -2.6966,-3.0208 -2.1763,0 -2.1637,0.56209 0.15117,6.75 0.818,2.1866 4.8912,3.2767 4.8912,1.309 z m -13.007,-4.309 c -0.004,-0.6875 -0.90066,-2.6 -1.9934,-4.25 -2.1718,-3.2793 -2.7537,-1.6126 -1.0248,2.9349 1.006,2.646 3.0298,3.5279 3.0182,1.3151 z m -17.715,-2.8719 c -0.61702,-0.61702 -0.90134,-1.6965 -0.63182,-2.3988 0.26951,-0.70235 0.009,-1.5741 -0.57815,-1.9372 -1.476,-0.91222 -1.3622,2.7638 0.13183,4.2579 0.66,0.66 1.425,1.2 1.7,1.2 0.275,0 -0.005,-0.50484 -0.62186,-1.1219 z m 6.3288,-0.45993 c -0.33385,-0.86998 -0.60699,-2.2042 -0.60699,-2.9648 0,-0.76067 -0.9163,-1.8734 -2.0362,-2.4728 -1.994,-1.0672 -2.0044,-1.0135 -0.5,2.5869 0.84492,2.0222 1.5362,3.8467 1.5362,4.0546 0,0.20783 0.49814,0.37788 1.107,0.37788 0.60884,0 0.83384,-0.7118 0.5,-1.5818 z m -20.457,-6.6682 c -1.1088,-1.9912 -2.747,-3.3839 -4.2297,-3.5958 -1.331,-0.1902 -2.9825,-0.8078 -3.67,-1.3724 -1.521,-1.2492 -1.5431,-0.92087 -0.19724,2.9398 1.1066,3.1744 3.9397,5.0974 7.6769,5.2108 2.2213,0.06743 2.2229,0.05542 0.42,-3.1823 z m 11.85,0.30902 c 0,-0.51754 -0.45,-1.2191 -1,-1.559 -0.55,-0.33992 -1,0.08352 -1,0.94098 0,0.85746 0.45,1.559 1,1.559 0.55,0 1,-0.42344 1,-0.94098 z m 26.454,-3.309 c -0.669,-3.0837 -1.957,-4.7007 -3.7712,-4.7347 -0.44956,-0.0084 -0.56171,0.8868 -0.24921,1.9894 0.31249,1.1026 0.82314,2.9026 1.1348,4 0.31163,1.0974 1.247,1.9953 2.0787,1.9953 1.1839,0 1.359,-0.70538 0.80698,-3.25 z m -22.164,-3.75 c -0.28766,-1.1 -0.96867,-2 -1.5134,-2 -0.5447,0 -0.73687,-0.66059 -0.42704,-1.468 0.52503,-1.3682 -0.98588,-3.2288 -1.8888,-2.3259 -0.9102,0.91021 1.7331,7.7939 2.9928,7.7939 0.86705,0 1.17,-0.72435 0.83637,-2 z m 9.7102,1.059 c 0,-0.51754 -0.45,-1.2191 -1,-1.559 -0.55,-0.33992 -1,0.08352 -1,0.94098 0,0.85746 0.45,1.559 1,1.559 0.55,0 1,-0.42344 1,-0.94098 z m -16,-1.8597 c 0,-1.6611 -2.5499,-6.183 -3.75,-6.6501 -1.8325,-0.71323 -1.5758,3.982 0.32143,5.8793 1.6854,1.6854 3.4286,2.0773 3.4286,0.77079 z m -15.694,-4.9494 c -0.34724,-0.9625 -1.4914,-2.9912 -2.5426,-4.5083 -1.4343,-2.0699 -2.3122,-2.5339 -3.5179,-1.8592 -1.077,0.60272 -2.0808,0.42493 -3.045,-0.53934 -2.245,-2.245 -2.5829,-0.79934 -0.59837,2.5601 0.98826,1.673 3.3946,3.706 5.3474,4.5177 4.6467,1.9315 5.1085,1.9134 4.3565,-0.17105 z m 39.408,-2.9643 c -0.91667,-0.91667 -1.9238,-1.4095 -2.2381,-1.0952 -0.31429,0.31429 0.17857,1.3214 1.0952,2.2381 0.91667,0.91667 1.9238,1.4095 2.2381,1.0952 0.31429,-0.31429 -0.17857,-1.3214 -1.0952,-2.2381 z m -10.353,-1.7857 c -0.3309,-0.86229 0.001,-1.5424 0.78138,-1.5997 1.4082,-0.10344 -2.7088,-1.6252 -4.8716,-1.8006 -0.94865,-0.07697 -0.96904,0.46992 -0.0895,2.4003 1.2261,2.691 5.1928,3.64 4.1797,1 z m -13.238,-3.7667 c -0.98762,-0.98027 -1.1025,-0.8654 -0.5598,0.5598 0.37553,0.98622 0.93469,1.5412 1.2426,1.2333 0.30789,-0.30789 6.4e-4,-1.1148 -0.68278,-1.7931 z m -1.2048,-1.7333 c 0.65933,0 0.93281,-0.43035 0.60773,-0.95633 -0.32507,-0.52598 -1.2516,-0.70283 -2.059,-0.39301 -0.80738,0.30982 -1.468,0.11991 -1.468,-0.42204 0,-0.54194 -1.8,-1.4422 -4,-2.0007 -4.4659,-1.1336 -5.1014,-0.24552 -2.4912,3.4811 1.7997,2.5694 5.5512,3.4109 7.1014,1.5929 0.61064,-0.71609 1.6497,-1.302 2.309,-1.302 z"
     inkscape:connector-curvature="0" />
  <metadata
     id="metadata4">
    <rdf:RDF>
      <cc:Work>
        <dc:format>image/svg+xml</dc:format>
        <dc:type
           rdf:resource="http://purl.org/dc/dcmitype/StillImage" />
        <cc:license
           rdf:resource="http://creativecommons.org/licenses/publicdomain/" />
        <dc:publisher>
          <cc:Agent
             rdf:about="http://openclipart.org/">
            <dc:title>Openclipart</dc:title>
          </cc:Agent>
        </dc:publisher>
        <dc:title>Thick hatching</dc:title>
        <dc:date>2010-04-22T06:54:25</dc:date>
        <dc:description>These are some quick sketches and doodles I made in my notebook on a flight. These are mostly shit, but hey, lets see if useful!</dc:description>
        <dc:source>https://openclipart.org/detail/49489/thick-hatching-by-rejon</dc:source>
        <dc:creator>
          <cc:Agent>
            <dc:title>rejon</dc:title>
          </cc:Agent>
        </dc:creator>
        <dc:subject>
          <rdf:Bag>
            <rdf:li>black</rdf:li>
            <rdf:li>bw</rdf:li>
            <rdf:li>drawings</rdf:li>
            <rdf:li>fast</rdf:li>
            <rdf:li>rapid</rdf:li>
            <rdf:li>rejon</rdf:li>
            <rdf:li>sketch</rdf:li>
            <rdf:li>sketchbook</rdf:li>
            <rdf:li>unchecked</rdf:li>
            <rdf:li>white</rdf:li>
          </rdf:Bag>
        </dc:subject>
      </cc:Work>
      <cc:License
         rdf:about="http://creativecommons.org/licenses/publicdomain/">
        <cc:permits
           rdf:resource="http://creativecommons.org/ns#Reproduction" />
        <cc:permits
           rdf:resource="http://creativecommons.org/ns#Distribution" />
        <cc:permits
           rdf:resource="http://creativecommons.org/ns#DerivativeWorks" />
      </cc:License>
    </rdf:RDF>
  </metadata>
</svg>
