<?xml version="1.0" encoding="UTF-8" standalone="no"?>
<!-- Created with Inkscape (http://www.inkscape.org/) -->

<svg
   xmlns:dc="http://purl.org/dc/elements/1.1/"
   xmlns:cc="http://creativecommons.org/ns#"
   xmlns:rdf="http://www.w3.org/1999/02/22-rdf-syntax-ns#"
   xmlns:svg="http://www.w3.org/2000/svg"
   xmlns="http://www.w3.org/2000/svg"
   xmlns:sodipodi="http://sodipodi.sourceforge.net/DTD/sodipodi-0.dtd"
   xmlns:inkscape="http://www.inkscape.org/namespaces/inkscape"
   width="480"
   height="288"
   id="svg2"
   version="1.1"
   inkscape:version="0.92.1 r15371"
   sodipodi:docname="sadvdi.svg"
   viewBox="0 0 450 270"
   inkscape:export-filename="sadvdi.png"
   inkscape:export-xdpi="300"
   inkscape:export-ydpi="300">
  <defs
     id="defs4">
    <clipPath
       id="clipPath20">
      <path
         inkscape:connector-curvature="0"
         d="m 1,3.44 h 15 v 9 H 1 Z"
         id="path22" />
    </clipPath>
    <mask
       id="mask24">
      <g
         id="g26">
        <g
           clip-path="url(#clipPath20)"
           id="g28">
          <path
             inkscape:connector-curvature="0"
             d="m 1,3.44 h 15 v 9 H 1 Z"
             style="fill:#000000;fill-opacity:0.14839998"
             id="path30" />
        </g>
      </g>
    </mask>
    <clipPath
       id="clipPath36">
      <path
         inkscape:connector-curvature="0"
         d="m 1,3.44 h 15 v 9 H 1 Z"
         id="path38" />
    </clipPath>
    <clipPath
       id="clipPath40">
      <path
         inkscape:connector-curvature="0"
         d="m 1,4 h 15 v 9 H 1 Z"
         id="path42" />
    </clipPath>
    <clipPath
       id="clipPath64">
      <path
         inkscape:connector-curvature="0"
         d="m 1,3.44 h 15 v 9 H 1 Z"
         id="path66" />
    </clipPath>
    <mask
       id="mask68">
      <g
         id="g70">
        <g
           clip-path="url(#clipPath64)"
           id="g72">
          <path
             inkscape:connector-curvature="0"
             d="m 1,3.44 h 15 v 9 H 1 Z"
             style="fill:#000000;fill-opacity:0.19140003"
             id="path74" />
        </g>
      </g>
    </mask>
    <clipPath
       id="clipPath80">
      <path
         inkscape:connector-curvature="0"
         d="m 1,3.44 h 15 v 9 H 1 Z"
         id="path82" />
    </clipPath>
    <clipPath
       id="clipPath84">
      <path
         inkscape:connector-curvature="0"
         d="m 1,4 h 15 v 9 H 1 Z"
         id="path86" />
    </clipPath>
    <clipPath
       id="clipPath108">
      <path
         inkscape:connector-curvature="0"
         d="m 2,7.44 h 4 v 4 H 2 Z"
         id="path110" />
    </clipPath>
    <mask
       id="mask112">
      <g
         id="g114">
        <g
           clip-path="url(#clipPath108)"
           id="g116">
          <path
             inkscape:connector-curvature="0"
             d="m 2,7.44 h 4 v 4 H 2 Z"
             style="fill:#000000;fill-opacity:0.19920002"
             id="path118" />
        </g>
      </g>
    </mask>
    <clipPath
       id="clipPath124">
      <path
         inkscape:connector-curvature="0"
         d="m 2,7.44 h 4 v 4 H 2 Z"
         id="path126" />
    </clipPath>
    <clipPath
       id="clipPath128">
      <path
         inkscape:connector-curvature="0"
         d="m 2,8 h 4 v 4 H 2 Z"
         id="path130" />
    </clipPath>
    <clipPath
       id="clipPath152">
      <path
         inkscape:connector-curvature="0"
         d="m 6,6.44 h 7 v 5 H 6 Z"
         id="path154" />
    </clipPath>
    <mask
       id="mask156">
      <g
         id="g158">
        <g
           clip-path="url(#clipPath152)"
           id="g160">
          <path
             inkscape:connector-curvature="0"
             d="m 6,6.44 h 7 v 5 H 6 Z"
             style="fill:#000000;fill-opacity:0.19920002"
             id="path162" />
        </g>
      </g>
    </mask>
    <clipPath
       id="clipPath168">
      <path
         inkscape:connector-curvature="0"
         d="m 6,6.44 h 7 v 5 H 6 Z"
         id="path170" />
    </clipPath>
    <clipPath
       id="clipPath172">
      <path
         inkscape:connector-curvature="0"
         d="m 6,7 h 7 v 5 H 6 Z"
         id="path174" />
    </clipPath>
  </defs>
  <sodipodi:namedview
     id="base"
     pagecolor="#ffffff"
     bordercolor="#666666"
     borderopacity="1.0"
     inkscape:pageopacity="0.0"
     inkscape:pageshadow="2"
     inkscape:zoom="1.5545301"
     inkscape:cx="530.88061"
     inkscape:cy="128.07601"
     inkscape:document-units="px"
     inkscape:current-layer="layer1"
     showgrid="false"
     units="px"
     inkscape:window-width="1920"
     inkscape:window-height="1003"
     inkscape:window-x="0"
     inkscape:window-y="25"
     inkscape:window-maximized="1"
     borderlayer="true"
     showguides="true" />
  <metadata
     id="metadata7">
    <rdf:RDF>
      <cc:Work
         rdf:about="">
        <dc:format>image/svg+xml</dc:format>
        <dc:type
           rdf:resource="http://purl.org/dc/dcmitype/StillImage" />
        <dc:title />
      </cc:Work>
    </rdf:RDF>
  </metadata>
  <g
     inkscape:label="Layer 1"
     inkscape:groupmode="layer"
     id="layer1"
     transform="translate(0,-782.36218)">
    <rect
       style="opacity:1;fill:#ffffff;fill-opacity:1;fill-rule:nonzero;stroke:#000000;stroke-width:4.04577875;stroke-linecap:round;stroke-linejoin:round;stroke-miterlimit:4;stroke-dasharray:none;stroke-dashoffset:0;stroke-opacity:1"
       id="rect3749"
       width="445.95422"
       height="265.95422"
       x="2.0228882"
       y="784.38507" />
    <g
       id="layer1-9"
       inkscape:label="Layer 1"
       transform="translate(-35.756307,507.10901)">
      <g
         id="Layer_1"
         transform="translate(-244.49951,955.86218)" />
    </g>
    <g
       transform="matrix(29.339416,0,0,-29.339416,1336.7377,425.06076)"
       id="g10"
       style="fill:#ffffff;stroke:#000000;stroke-width:0.26423991;stroke-miterlimit:4;stroke-dasharray:none">
      <g
         id="g12"
         style="fill:#ffffff;stroke:#000000;stroke-width:0.26423991;stroke-miterlimit:4;stroke-dasharray:none">
        <path
           inkscape:connector-curvature="0"
           d="M 15.223,10.561 C 15.672,9.745 15.742,8.846 15.43,7.854 14.664,5.428 12.609,4.151 9.262,4.03 5.809,3.909 3.461,4.846 2.211,6.842 1.742,7.604 1.527,8.385 1.559,9.182 1.594,9.928 1.828,10.467 2.262,10.795 2.887,11.249 3.512,11.44 4.137,11.37 4.828,11.315 5.473,10.944 6.062,10.249 6.406,9.87 6.91,9.643 7.57,9.573 c 0.676,-0.051 1.2,0.097 1.563,0.441 0.277,0.246 0.762,0.758 1.457,1.535 0.711,0.61 1.449,0.836 2.211,0.68 1.129,-0.246 1.933,-0.801 2.422,-1.668 z"
           style="fill:#ffffff;fill-rule:evenodd;stroke:#000000;stroke-width:0.26423991;stroke-miterlimit:4;stroke-dasharray:none"
           id="path14" />
        <g
           id="g16"
           style="fill:#ffffff;stroke:#000000;stroke-width:0.26423991;stroke-miterlimit:4;stroke-dasharray:none">
          <g
             mask="url(#mask24)"
             id="g32"
             style="fill:#ffffff;stroke:#000000;stroke-width:0.26423991;stroke-miterlimit:4;stroke-dasharray:none">
            <g
               id="g44"
               style="fill:#ffffff;stroke:#000000;stroke-width:0.26423991;stroke-miterlimit:4;stroke-dasharray:none">
              <g
                 clip-path="url(#clipPath36)"
                 id="g46"
                 style="fill:#ffffff;stroke:#000000;stroke-width:0.26423991;stroke-miterlimit:4;stroke-dasharray:none">
                <g
                   transform="translate(0,-0.56)"
                   id="g48"
                   style="fill:#ffffff;stroke:#000000;stroke-width:0.26423991;stroke-miterlimit:4;stroke-dasharray:none">
                  <g
                     id="g52"
                     style="fill:#ffffff;stroke:#000000;stroke-width:0.26423991;stroke-miterlimit:4;stroke-dasharray:none">
                    <g
                       clip-path="url(#clipPath40)"
                       id="g54"
                       style="fill:#ffffff;stroke:#000000;stroke-width:0.26423991;stroke-miterlimit:4;stroke-dasharray:none">
                      <g
                         id="g56"
                         style="fill:#ffffff;stroke:#000000;stroke-width:0.26423991;stroke-miterlimit:4;stroke-dasharray:none">
                        <path
                           inkscape:connector-curvature="0"
                           d="M 12.801,12.789 C 13.93,12.543 14.734,11.988 15.219,11.121 15.672,10.309 15.742,9.406 15.43,8.418 14.664,5.988 12.609,4.711 9.262,4.59 5.898,4.469 3.574,5.371 2.289,7.297 1.805,8.027 1.559,8.789 1.559,9.586 1.543,10.332 1.734,10.887 2.133,11.254 1.855,10.801 1.805,10.23 1.977,9.535 2.168,8.789 2.574,8.121 3.199,7.531 4.152,6.613 5.645,6.137 7.676,6.102 c 1.992,-0.036 3.527,0.355 4.605,1.171 1.11,0.832 1.492,1.957 1.145,3.379 -0.364,1.426 -1.235,1.926 -2.602,1.512 l -0.211,-0.078 c 0.715,0.625 1.442,0.859 2.188,0.703 z"
                           style="fill:#ffffff;fill-rule:evenodd;stroke:#000000;stroke-width:0.26423991;stroke-miterlimit:4;stroke-dasharray:none"
                           id="path58" />
                      </g>
                    </g>
                  </g>
                </g>
              </g>
            </g>
          </g>
        </g>
        <g
           id="g60"
           style="fill:#ffffff;stroke:#000000;stroke-width:0.26423991;stroke-miterlimit:4;stroke-dasharray:none">
          <g
             mask="url(#mask68)"
             id="g76"
             style="fill:#ffffff;stroke:#000000;stroke-width:0.26423991;stroke-miterlimit:4;stroke-dasharray:none">
            <g
               id="g88"
               style="fill:#ffffff;stroke:#000000;stroke-width:0.26423991;stroke-miterlimit:4;stroke-dasharray:none">
              <g
                 clip-path="url(#clipPath80)"
                 id="g90"
                 style="fill:#ffffff;stroke:#000000;stroke-width:0.26423991;stroke-miterlimit:4;stroke-dasharray:none">
                <g
                   transform="translate(0,-0.56)"
                   id="g92"
                   style="fill:#ffffff;stroke:#000000;stroke-width:0.26423991;stroke-miterlimit:4;stroke-dasharray:none">
                  <g
                     id="g96"
                     style="fill:#ffffff;stroke:#000000;stroke-width:0.26423991;stroke-miterlimit:4;stroke-dasharray:none">
                    <g
                       clip-path="url(#clipPath84)"
                       id="g98"
                       style="fill:#ffffff;stroke:#000000;stroke-width:0.26423991;stroke-miterlimit:4;stroke-dasharray:none">
                      <g
                         id="g100"
                         style="fill:#ffffff;stroke:#000000;stroke-width:0.26423991;stroke-miterlimit:4;stroke-dasharray:none">
                        <path
                           inkscape:connector-curvature="0"
                           d="m 12.773,12.789 c 1.129,-0.246 1.934,-0.801 2.422,-1.668 0.45,-0.812 0.52,-1.715 0.207,-2.703 C 14.641,5.988 12.582,4.711 9.234,4.59 6.824,4.504 4.918,4.973 3.512,5.996 2.367,6.828 1.715,7.871 1.559,9.117 1.855,8.34 2.445,7.582 3.328,6.855 4.438,5.938 5.652,5.414 6.973,5.293 c 2.132,-0.207 3.902,0.012 5.308,0.652 1.336,0.606 2.168,1.481 2.496,2.629 0.606,2.172 -0.164,3.59 -2.3,4.254 z"
                           style="fill:#ffffff;fill-rule:evenodd;stroke:#000000;stroke-width:0.26423991;stroke-miterlimit:4;stroke-dasharray:none"
                           id="path102" />
                      </g>
                    </g>
                  </g>
                </g>
              </g>
            </g>
          </g>
        </g>
        <g
           id="g104"
           style="fill:#ffffff;stroke:#000000;stroke-width:0.26423991;stroke-miterlimit:4;stroke-dasharray:none">
          <g
             mask="url(#mask112)"
             id="g120"
             style="fill:#ffffff;stroke:#000000;stroke-width:0.26423991;stroke-miterlimit:4;stroke-dasharray:none">
            <g
               id="g132"
               style="fill:#ffffff;stroke:#000000;stroke-width:0.26423991;stroke-miterlimit:4;stroke-dasharray:none">
              <g
                 clip-path="url(#clipPath124)"
                 id="g134"
                 style="fill:#ffffff;stroke:#000000;stroke-width:0.26423991;stroke-miterlimit:4;stroke-dasharray:none">
                <g
                   transform="translate(0,-0.56)"
                   id="g136"
                   style="fill:#ffffff;stroke:#000000;stroke-width:0.26423991;stroke-miterlimit:4;stroke-dasharray:none">
                  <g
                     id="g140"
                     style="fill:#ffffff;stroke:#000000;stroke-width:0.26423991;stroke-miterlimit:4;stroke-dasharray:none">
                    <g
                       clip-path="url(#clipPath128)"
                       id="g142"
                       style="fill:#ffffff;stroke:#000000;stroke-width:0.26423991;stroke-miterlimit:4;stroke-dasharray:none">
                      <g
                         id="g144"
                         style="fill:#ffffff;stroke:#000000;stroke-width:0.26423991;stroke-miterlimit:4;stroke-dasharray:none">
                        <path
                           inkscape:connector-curvature="0"
                           d="M 3.934,10.328 C 3.984,10.086 4.238,9.887 4.688,9.73 5.191,9.539 5.512,9.348 5.652,9.156 5.875,8.828 5.703,8.594 5.129,8.453 4.523,8.297 3.926,8.367 3.336,8.664 2.781,8.922 2.449,9.305 2.348,9.809 c -0.09,0.433 0.007,0.812 0.285,1.144 0.207,0.223 0.457,0.27 0.754,0.129 0.297,-0.156 0.476,-0.406 0.547,-0.754 z"
                           style="fill:#ffffff;fill-rule:evenodd;stroke:#000000;stroke-width:0.26423991;stroke-miterlimit:4;stroke-dasharray:none"
                           id="path146" />
                      </g>
                    </g>
                  </g>
                </g>
              </g>
            </g>
          </g>
        </g>
        <g
           id="g148"
           style="fill:#ffffff;stroke:#000000;stroke-width:0.26423991;stroke-miterlimit:4;stroke-dasharray:none">
          <g
             mask="url(#mask156)"
             id="g164"
             style="fill:#ffffff;stroke:#000000;stroke-width:0.26423991;stroke-miterlimit:4;stroke-dasharray:none">
            <g
               id="g176"
               style="fill:#ffffff;stroke:#000000;stroke-width:0.26423991;stroke-miterlimit:4;stroke-dasharray:none">
              <g
                 clip-path="url(#clipPath168)"
                 id="g178"
                 style="fill:#ffffff;stroke:#000000;stroke-width:0.26423991;stroke-miterlimit:4;stroke-dasharray:none">
                <g
                   transform="translate(0,-0.56)"
                   id="g180"
                   style="fill:#ffffff;stroke:#000000;stroke-width:0.26423991;stroke-miterlimit:4;stroke-dasharray:none">
                  <g
                     id="g184"
                     style="fill:#ffffff;stroke:#000000;stroke-width:0.26423991;stroke-miterlimit:4;stroke-dasharray:none">
                    <g
                       clip-path="url(#clipPath172)"
                       id="g186"
                       style="fill:#ffffff;stroke:#000000;stroke-width:0.26423991;stroke-miterlimit:4;stroke-dasharray:none">
                      <g
                         id="g188"
                         style="fill:#ffffff;stroke:#000000;stroke-width:0.26423991;stroke-miterlimit:4;stroke-dasharray:none">
                        <path
                           inkscape:connector-curvature="0"
                           d="M 7.508,7.82 C 7.074,8.062 6.891,8.348 6.961,8.68 c 0.051,0.207 0.301,0.343 0.754,0.414 0.262,0.035 0.762,0.113 1.508,0.234 0.504,0.106 0.886,0.34 1.144,0.703 0.141,0.207 0.289,0.504 0.445,0.883 0.137,0.227 0.336,0.348 0.598,0.367 0.328,0.035 0.598,-0.148 0.805,-0.547 C 12.547,10.125 12.562,9.547 12.27,8.992 11.887,8.277 11.02,7.812 9.664,7.586 8.766,7.43 8.043,7.508 7.508,7.82 Z"
                           style="fill:#ffffff;fill-rule:evenodd;stroke:#000000;stroke-width:0.26423991;stroke-miterlimit:4;stroke-dasharray:none"
                           id="path190" />
                      </g>
                    </g>
                  </g>
                </g>
              </g>
            </g>
          </g>
        </g>
        <path
           inkscape:connector-curvature="0"
           d="M 10.953,10.198 C 11.336,10.284 11.492,10.12 11.422,9.706 11.336,9.272 10.953,8.889 10.277,8.561 9.773,8.335 9.297,8.237 8.844,8.272 8.258,8.307 8.238,8.362 8.793,8.428 c 0.746,0.086 1.25,0.383 1.512,0.887 0.277,0.555 0.492,0.848 0.648,0.883 z"
           style="fill:#ffffff;fill-rule:evenodd;stroke:#000000;stroke-width:0.26423991;stroke-miterlimit:4;stroke-dasharray:none"
           id="path192" />
        <path
           inkscape:connector-curvature="0"
           d="M 3.484,10.069 C 3.57,9.737 3.66,9.503 3.746,9.366 3.867,9.21 3.812,9.182 3.59,9.288 3.383,9.393 3.234,9.538 3.148,9.729 c -0.07,0.176 -0.043,0.305 0.079,0.391 0.121,0.086 0.207,0.07 0.257,-0.051 z"
           style="fill:#ffffff;fill-rule:evenodd;stroke:#000000;stroke-width:0.26423991;stroke-miterlimit:4;stroke-dasharray:none"
           id="path194" />
        <path
           inkscape:connector-curvature="0"
           d="M 4.238,9.053 C 4.57,8.862 4.707,8.741 4.656,8.69 4.605,8.62 4.492,8.628 4.32,8.713 4.195,8.768 4.117,8.854 4.086,8.975 4.066,9.096 4.117,9.124 4.238,9.053 Z"
           style="fill:#ffffff;fill-rule:evenodd;stroke:#000000;stroke-width:0.26423991;stroke-miterlimit:4;stroke-dasharray:none"
           id="path196" />
        <path
           inkscape:connector-curvature="0"
           d="M 7.855,8.323 C 8.031,8.288 8.125,8.237 8.145,8.17 8.145,8.1 8.059,8.053 7.883,8.038 7.711,8.003 7.625,8.053 7.625,8.194 7.621,8.315 7.699,8.358 7.855,8.323 Z"
           style="fill:#ffffff;fill-rule:evenodd;stroke:#000000;stroke-width:0.26423991;stroke-miterlimit:4;stroke-dasharray:none"
           id="path198" />
      </g>
    </g>
    <g
       inkscape:label="Layer 1"
       id="layer1-6"
       transform="matrix(2.523706,0,0,2.523706,1588.2709,441.4639)">
      <g
         id="g4023">
        <path
           d="m 40.098,91.252 c 12.583,3.4516 21.342,15.925 34.951,16.416 9.9834,1.3022 24.075,3.217 30.103,1.5434 14.458,-8.7502 18.89,-26.374 18.777,-37.91 -1.99,-7.135 -7.24,-12.651 -12.15,-17.94 -4.41,-9.214 -13.045,-15.932 -19.702,-23.662 -8.317,-8.677 -20.914,-6.631 -31.785,-8.86 -10.445,-2.529 -20.827,-9.749 -32.011,-6.745 -11.317,1.217 -22.023,8.135 -23.304,19.993 -3.5362,19.25 5.332,40.326 22.832,49.931"
           style="fill:#ffffff;fill-rule:evenodd"
           sodipodi:nodetypes="cccccccccc"
           id="path1655"
           inkscape:connector-curvature="0" />
        <path
           d="m 7.5707,27.435 c -2.4698,6.1101 -1.5788,10.174 -2.6389,16.623 0.076631,2.9143 0.44866,9.3239 1.8184,6.1549 2.466,-7.019 5.2978,-19.79 13.063,-22.619 5.0832,-2.4903 10.74,-3.4977 16.357,-3.2589 4.8929,-0.94867 10.182,-2.1419 14.815,0.3889 7.5973,3.1861 25.241,5.5517 34.235,4.2511 3.0524,1.0324 -3.872,-3.6189 -6.8581,-5.7173 -8.874,-4.887 -20.146,-2.832 -29.395,-6.671 -6.414,-2.356 -12.039,-3.171 -18.814,-1.929 -7.934,0.365 -13.049,-2.388 -17.492,4.991 -0.593,0.8 -4.5932,6.927 -5.0903,7.786 z"
           style="fill:#ffffff;fill-opacity:0.12353001;fill-rule:evenodd"
           sodipodi:nodetypes="cccccccccccc"
           id="path4927"
           inkscape:connector-curvature="0" />
        <path
           d="m 3.8422,42.211 c 2.031,-7.2369 2.6324,-15.369 7.8083,-21.255 4.9823,-5.4779 12.857,-5.9952 19.771,-6.4318 4.1103,-0.52802 8.3258,-0.74925 12.353,0.42758 6.4891,1.6154 12.638,4.7201 19.413,5.0574 4.6192,0.55454 9.1218,1.8898 13.476,3.4376 3.4003,1.1036 1.6984,4.1752 -1.2738,3.2128 -6.299,-0.024 -12.707,-0.155 -18.72,-2.277 -3.338,-0.862 -6.411,-2.626 -9.788,-3.281 -3.663,-0.521 -7.185,0.999 -10.764,1.294 -3.931,-0.177 -8.023,-0.187 -11.659,1.516 -5.437,1.422 -10.952,4.363 -13.468,9.646 -2.1864,3.597 -3.1609,7.752 -4.6977,11.608 -1.6345,2.087 -3.3837,-1.636 -2.4501,-2.955 z"
           style="fill:#ffffff;fill-opacity:0.12549002;fill-rule:evenodd"
           id="path4011"
           inkscape:connector-curvature="0" />
        <path
           d="m 9.5897,21.313 c -4.0861,7.1737 -6.2242,13.9 -5.5151,22.525 -0.33267,10.789 4.5144,19.247 8.3911,28.979 4.5354,8.784 16.033,9.9437 21.903,17.438 7.4232,3.586 14.947,4.7227 21.143,10.508 8.4439,6.2525 20.283,7.8541 30.422,8.8063 8.1869,1.5442 15.445,6.0913 22.412,-0.97781 7.7752,-7.2676 15.013,-16.523 15.252,-27.48 2.7233,-7.9489 2.3803,-17.313 -5.2054,-22.488 -10.3,-11.422 -18.34,-25.404 -31.743,-33.633 -12.015,-5.807 -24.496,-1.878 -36.239,-8.579 -9.054,-4.057 -16.266,-3.285 -27.379,-2.028 -3.974,0.607 -10.756,3.816 -13.439,6.93 z m 1.0891,2.1816 c 6.2247,-7.4302 16.316,-6.7719 24.846,-8.1358 8.5688,-1.4632 15.892,4.5227 23.81,6.2091 12.077,2.281 26.682,1.8728 35.576,11.926 10.685,10.222 15.846,22.963 26.71,33.022 -0.32291,8.6234 0.90027,15.77 -3.1074,27.406 -4.6959,6.8046 -10.621,15.968 -20.039,15.447 -7.679,-1.36 -15.489,-3.69 -23.285,-4.43 -9.256,-1.08 -17.992,-4.38 -25.026,-10.358 -5.609,-5.061 -14.311,-4.299 -19.225,-10.385 -5.734,-5.344 -13.877,-7.905 -17.846,-15.268 -3.6303,-8.583 -6.7939,-16.787 -7.1874,-26.295 -0.7991,-7.009 1.2071,-14.637 4.7784,-19.139 z"
           style="fill:#000000"
           sodipodi:nodetypes="cccccccccccccccccccccccccc"
           id="path1292"
           inkscape:connector-curvature="0" />
        <path
           d="m 88.702,88.54 c 0.0033,0.84738 0.14962,2.8939 0.96954,1.1413 1.7785,-1.9824 4.333,-2.9729 6.7848,-3.8381 1.8125,0.51741 3.0288,2.4345 3.3649,4.1853 -0.32274,0.9723 -1.2442,3.0023 -0.24875,3.4548 1.5061,-2.5219 1.3605,-6.012 -0.6876,-8.1994 -0.80588,-1.4896 -2.6866,-2.1212 -4.1061,-1.0845 -2.3152,0.91725 -4.7633,2.1178 -6.0768,4.3406 z m 1.1299,4.6964 c -0.46139,1.5362 -0.22638,3.3274 1.2565,4.2243 1.4134,1.3661 3.5404,1.528 5.2644,0.69763 1.4234,0.06006 2.0552,-2.87 0.78871,-2.747 -1.535,1.1199 -4.3041,1.6814 -5.4887,-0.21808 -0.26016,-0.92429 -1.9189,-2.3652 -1.524,-0.41411 -0.05241,1.9429 0.0041,-2.8202 -0.04474,-0.23331 -0.0918,1.7523 -0.17679,-1.0431 -0.25212,-1.3094 z"
           style="fill:#000000;stroke:#000000"
           id="path5884"
           inkscape:connector-curvature="0" />
        <path
           d="m 39.693,34.213 c 0.38433,0.6037 1.4112,1.9994 1.2069,0.3781 0.37668,-2.2175 1.7547,-4.0763 3.1158,-5.7994 1.5277,-0.4474 3.2605,0.37352 4.2898,1.4725 0.20774,0.8399 0.46461,2.7051 1.3796,2.5796 -0.06107,-2.48 -1.7381,-4.9071 -4.1869,-5.5462 -1.247,-0.70069 -2.8749,-0.30406 -3.4214,1.0762 -1.2401,1.6987 -2.4475,3.6596 -2.3837,5.8391 z m 2.9238,2.8449 c 0.36288,1.3051 1.3381,2.4785 2.8014,2.4507 1.6253,0.33862 3.2173,-0.50445 4.0743,-1.8746 1.0437,-0.5987 0.17424,-2.9762 -0.67487,-2.3175 -0.59155,1.4918 -2.3162,3.1409 -4.0184,2.3182 -0.60242,-0.54288 -2.4366,-0.8243 -1.2751,0.39116 0.83832,1.4113 -1.2683,-2.0161 -0.13712,-0.14647 0.72428,1.2929 -0.59645,-0.66534 -0.77026,-0.82156 z"
           style="fill:#000000;stroke:#000000"
           id="path6666"
           inkscape:connector-curvature="0" />
        <path
           d="m 36.548,34.276 c -0.1135,2.4704 1.3453,4.6244 2.7435,6.529 0.76397,0.93445 1.9438,1.5442 3.1406,1.6786 0.82314,0.18558 1.3793,-0.51721 0.66453,-1.1376 -0.93022,-0.92906 -2.4976,-0.39312 -3.459,-1.2839 -1.5796,-0.94597 -2.0636,-2.9544 -1.8871,-4.6787 0.11329,-0.69098 0.09942,-1.5034 0.61004,-2.0253 0.33258,-0.75713 0.0061,-1.7899 -0.69015,-2.2281 -0.91297,0.13223 -0.6116,1.576 -0.97262,2.2599 -0.06414,0.29272 -0.11812,0.58805 -0.14977,0.88619 z m 12.705,-8.7512 c 0.3375,1.6402 2.3363,2.4491 2.3383,4.213 -0.03449,1.123 0.14107,2.2539 0.03239,3.3811 -0.07101,1.0655 -0.28376,2.1331 -0.73502,3.106 0.02622,0.60656 0.67326,1.706 1.3364,1.2565 0.26605,-1.0379 0.42717,-2.1289 0.57458,-3.2005 0.23757,-1.7965 0.0259,-3.6666 -0.82002,-5.2869 -0.56533,-1.1112 -1.2227,-2.227 -2.1373,-3.0807 -0.19368,-0.13372 -0.39914,-0.24967 -0.58944,-0.38839 z"
           style="fill:#ffffff;fill-opacity:0.17059003"
           id="path6668"
           inkscape:connector-curvature="0" />
        <path
           d="m 44.952,80.922 c -0.11763,0.63888 -0.29757,2.2014 0.56864,0.99728 1.6209,-1.2414 3.6859,-1.6254 5.6558,-1.9297 1.2921,0.64678 1.9367,2.2635 1.9417,3.6303 -0.381,0.68676 -1.363,2.0855 -0.67723,2.5676 1.4922,-1.6865 1.8774,-4.3365 0.64447,-6.2749 -0.39595,-1.2366 -1.7233,-1.979 -2.9397,-1.3992 -1.8743,0.3628 -3.8889,0.9202 -5.1936,2.4086 z m 0.18539,3.6984 c -0.5654,1.0919 -0.64231,2.4748 0.34772,3.3607 0.87118,1.2296 2.4506,1.6531 3.8672,1.272 1.0639,0.24706 1.9553,-1.8709 0.98368,-1.9578 -1.3153,0.62611 -3.4811,0.65656 -4.1043,-0.94248 -0.06496,-0.73324 -1.1104,-2.054 -1.0894,-0.52805 -0.31495,1.4564 0.40294,-2.1242 -6.31e-4,-0.18212 -0.3176,1.3072 0.0147,-0.81096 -0.0043,-1.0222 z"
           style="fill:#000000;stroke:#000000"
           id="path6672"
           inkscape:connector-curvature="0" />
        <path
           d="m 42.822,79.02 c -1.6023,1.5721 -1.9638,3.9058 -2.2114,6.0361 -0.06966,1.0934 0.33782,2.228 1.0504,3.057 0.43252,0.63212 1.2366,0.50868 1.1449,-0.34558 -0.0442,-1.1926 -1.4174,-1.805 -1.506,-2.9914 -0.46547,-1.6052 0.45416,-3.2395 1.6372,-4.2768 0.50238,-0.38935 0.99527,-0.93799 1.6573,-0.96936 0.68905,-0.29778 1.1103,-1.1861 0.91828,-1.9078 -0.68867,-0.47636 -1.3807,0.66972 -2.0433,0.90123 -0.22356,0.15496 -0.44197,0.31793 -0.64729,0.49657 z m 13.855,2.0347 c -0.78935,1.299 0.03949,3.0722 -1.0494,4.246 -0.71702,0.72525 -1.2993,1.5856 -2.0682,2.2678 -0.70578,0.66448 -1.507,1.2427 -2.4084,1.6106 -0.35746,0.41945 -0.60681,1.5503 0.11189,1.6613 0.81838,-0.52558 1.5998,-1.1513 2.3601,-1.7726 1.2683,-1.0475 2.2834,-2.4215 2.7225,-4.0215 0.31096,-1.0881 0.56357,-2.2362 0.48322,-3.369 -0.04611,-0.2086 -0.11103,-0.41267 -0.15181,-0.62251 z"
           style="fill:#ffffff;fill-opacity:0.17059003"
           id="path6674"
           inkscape:connector-curvature="0" />
        <path
           d="m 76.063,43.691 c 0.27962,0.62437 1.057,2.0871 1.0889,0.52527 0.66432,-2.0449 2.2259,-3.6116 3.7526,-5.0521 1.507,-0.21091 3.0319,0.80624 3.8526,1.9887 0.0798,0.82323 0.06362,2.623 0.94641,2.6314 0.28678,-2.3541 -0.9622,-4.8826 -3.1894,-5.8272 -1.0821,-0.83594 -2.6768,-0.68697 -3.3855,0.54255 -1.4089,1.4343 -2.8232,3.1212 -3.0657,5.1914 z m 2.3701,3.0969 c 0.1619,1.2848 0.92125,2.5301 2.3091,2.707 1.4901,0.54606 3.113,-0.03014 4.1139,-1.207 1.0703,-0.42125 0.57825,-2.7906 -0.31633,-2.2856 -0.76672,1.3287 -2.627,2.6489 -4.1226,1.6343 -0.49435,-0.59714 -2.19,-1.1181 -1.2603,0.19281 0.59682,1.4512 -0.91941,-2.083 -0.10934,-0.15758 0.5054,1.3234 -0.47168,-0.71213 -0.61437,-0.88403 z"
           style="fill:#000000;stroke:#000000"
           id="path6678"
           inkscape:connector-curvature="0" />
        <path
           d="m 73.08,43.314 c -0.45054,2.3207 0.6299,4.5606 1.6877,6.5562 0.59274,0.98993 1.6239,1.7305 2.7372,2.0239 0.75273,0.28987 1.3764,-0.29755 0.78655,-0.98364 -0.75073,-1.0079 -2.3076,-0.71878 -3.0932,-1.6948 -1.3626,-1.1141 -1.5413,-3.081 -1.1348,-4.6872 0.20314,-0.63779 0.30288,-1.4081 0.85833,-1.8307 0.41973,-0.66988 0.25443,-1.692 -0.3432,-2.2032 -0.88185,-0.0018 -0.7974,1.4056 -1.2338,2.0022 -0.10133,0.26794 -0.19341,0.53976 -0.26476,0.81734 z m 13.232,-6.5118 c 0.09135,1.5981 1.8694,2.6409 1.6263,4.3094 -0.18864,1.0573 -0.17971,2.1514 -0.43908,3.2023 -0.21519,0.99791 -0.56472,1.978 -1.1267,2.8355 -0.05946,0.57732 0.39976,1.707 1.0894,1.374 0.39582,-0.94471 0.69977,-1.9542 0.98807,-2.9472 0.47427,-1.6661 0.53387,-3.4642 -0.04109,-5.1142 -0.38031,-1.1295 -0.84701,-2.2761 -1.5934,-3.2106 -0.1646,-0.15338 -0.34281,-0.29159 -0.50353,-0.44922 z"
           style="fill:#ffffff;fill-opacity:0.17059003"
           id="path6680"
           inkscape:connector-curvature="0" />
        <path
           d="m 16.685,60.261 c -0.47439,-0.24088 -1.6597,-0.74539 -0.91536,0.21476 0.5981,1.5615 0.41973,3.2725 0.2008,4.8902 -0.80828,0.86441 -2.2278,0.99483 -3.3023,0.68106 -0.45078,-0.45884 -1.321,-1.5552 -1.859,-1.1287 0.97757,1.5639 2.9692,2.4823 4.778,1.9646 1.0631,-0.02352 1.9547,-0.89337 1.7821,-1.9834 0.15075,-1.5563 0.18128,-3.268 -0.68433,-4.6385 z m -2.9475,-0.71406 c -0.72609,-0.69783 -1.7942,-1.0797 -2.7201,-0.50808 -1.1682,0.39835 -1.8679,1.5403 -1.8978,2.7414 -0.44132,0.77808 1.0147,1.9704 1.3088,1.2276 -0.18598,-1.1784 0.29352,-2.8864 1.6941,-3.0041 0.59093,0.11942 1.8711,-0.39458 0.66792,-0.73283 -1.0705,-0.58585 1.5745,0.81018 0.14317,0.04184 -0.95274,-0.55326 0.63345,0.20004 0.80379,0.23423 z"
           style="fill:#000000;stroke:#000000"
           id="path6684"
           inkscape:connector-curvature="0" />
        <path
           d="m 18.674,59.03 c -0.86221,-1.6237 -2.6108,-2.4501 -4.2263,-3.1397 -0.84249,-0.30886 -1.8282,-0.25257 -2.6449,0.11436 -0.59696,0.19274 -0.68692,0.85294 0.0053,0.97945 0.94683,0.24249 1.747,-0.69359 2.6993,-0.48742 1.3688,0.0076 2.4385,1.1097 2.9781,2.2798 0.18899,0.48504 0.50529,0.99964 0.37604,1.5268 0.0737,0.61035 0.67342,1.1477 1.2848,1.1646 0.53418,-0.43011 -0.20503,-1.2399 -0.23281,-1.8142 C 18.8438,59.4421 18.76658,59.2327 18.67401,59.02993 Z M 13.855,69.438 C 13.019,68.516 11.433,68.755 10.765,67.627 10.362,66.895 9.8214,66.238 9.4644,65.476 9.1067,64.767 8.8388,64.003 8.7594,63.21 8.5131,62.832 7.683,62.373 7.4287,62.912 c 0.22253,0.76486 0.53229,1.524 0.84348,2.2655 0.52782,1.2395 1.3709,2.3561 2.5254,3.0728 0.78226,0.49713 1.6251,0.96236 2.5335,1.1626 0.17454,0.01228 0.34989,0.0087 0.52416,0.02547 z"
           style="fill:#ffffff;fill-opacity:0.17059003"
           id="path6686"
           inkscape:connector-curvature="0" />
      </g>
    </g>
    <path
       style="fill:#000000"
       d="m 344.1474,1010.7734 c -4.66829,-0.8019 -8.44491,-2.9187 -8.97493,-5.0305 -0.20603,-0.8209 -0.73435,-1.6962 -1.17405,-1.9453 -1.20256,-0.6811 -8.89004,-15.01416 -8.89004,-16.57523 0,-0.83096 -1.95675,-5.21879 -2.5331,-5.68026 -0.21095,-0.16889 -1.02551,-1.82713 -1.81014,-3.68497 -0.78464,-1.85784 -1.58393,-3.51608 -1.77621,-3.68497 -0.19229,-0.16889 -0.69138,-1.6271 -1.10909,-3.24047 -0.41771,-1.61337 -1.4829,-4.02657 -2.3671,-5.36268 -0.88419,-1.3361 -1.74652,-3.66153 -1.91627,-5.1676 -0.34126,-3.02766 -1.12479,-3.63472 -3.67129,-2.84442 -4.47389,1.38845 -10.74391,2.53023 -11.89261,2.16564 -2.94342,-0.9342 -68.14446,-0.015 -68.75277,0.96926 -0.22941,0.37119 -2.17368,0.67684 -4.34359,0.68283 -4.88715,0.0135 -8.48378,-1.72854 -12.78733,-6.19356 -1.65332,-1.71536 -3.3215,-3.11883 -3.70706,-3.11883 -0.38557,0 -1.10519,-0.9673 -1.59918,-2.14956 -0.49397,-1.18226 -1.10171,-2.1498 -1.35052,-2.15008 -3.2852,-0.004 -14.30919,-1.41722 -15.38575,-1.97275 -1.12934,-0.58278 -1.52463,-0.56733 -1.92168,0.0751 -0.34787,0.56287 -0.57101,0.59539 -0.73383,0.10695 -0.15251,-0.45753 -3.9005,-0.91117 -10.76611,-1.30308 -5.79269,-0.33067 -11.97697,-0.87522 -13.74286,-1.21012 -1.76588,-0.33489 -4.27847,-0.60889 -5.58352,-0.60889 -1.30505,0 -2.37282,-0.23788 -2.37282,-0.52862 0,-0.67462 -4.312,-1.24358 -14.73989,-1.9449 -11.86993,-0.79831 -16.10548,-1.23466 -17.50361,-1.80324 -0.67558,-0.27474 -4.68298,-0.8423 -8.90534,-1.26125 -14.432661,-1.43201 -16.040518,-1.65858 -16.740988,-2.35905 -0.86229,-0.86229 -7.825491,-0.93974 -7.825491,-0.087 0,0.33779 -0.325843,0.61416 -0.724097,0.61416 -0.398247,0 -1.572831,0.91972 -2.610187,2.04381 -1.037351,1.12409 -2.825544,2.36777 -3.973763,2.76373 -4.705124,1.62254 -17.805781,0.44049 -22.552148,-2.03484 -0.973027,-0.50745 -2.054954,-0.92434 -2.404282,-0.92643 -0.349328,-0.002 -2.13631,-1.52383 -3.971072,-3.38167 -3.02905,-3.06715 -4.913295,-4.17574 -4.913295,-2.89074 0,0.26794 -0.898211,0.7516 -1.996026,1.07479 -1.210952,0.3565 -2.302286,1.23341 -2.774683,2.22951 -1.012179,2.13428 -6.22068,6.80192 -9.13134,8.18312 -1.813811,0.86071 -3.30614,1.01861 -7.282456,0.77053 -7.313367,-0.45626 -9.231859,-2.03775 -6.177366,-5.09224 l 1.503736,-1.50374 -1.624943,-0.40783 c -1.016181,-0.25504 -1.713751,-0.14141 -1.861996,0.30333 -0.379973,1.13991 -2.227426,0.82076 -3.071359,-0.53059 -0.426517,-0.68297 -0.940079,-2.44259 -1.141249,-3.91029 -0.334519,-2.44058 -0.17597,-2.87861 1.856075,-5.12784 1.222011,-1.35262 2.221838,-2.70609 2.221838,-3.0077 0,-0.71483 4.550047,-2.68063 6.204612,-2.68063 0.70559,0 2.074113,-0.46738 3.041162,-1.03863 1.442347,-0.85202 2.011131,-0.90553 3.165569,-0.29785 3.562945,1.87553 8.47016,2.21807 8.47016,0.59127 0,-0.33663 0.806838,-1.80756 1.792974,-3.26874 1.172784,-1.73774 1.941032,-3.84171 2.221014,-6.0826 0.299716,-2.39885 0.951706,-4.08487 2.174797,-5.62393 0.960717,-1.2089 1.927583,-2.79559 2.148593,-3.52597 0.22101,-0.73038 1.245031,-2.11424 2.275603,-3.07524 1.750186,-1.63202 2.23826,-1.75354 7.400224,-1.84248 4.068704,-0.0701 5.59741,0.11637 5.795448,0.70694 0.147945,0.44119 0.845651,1.3394 1.550456,1.99602 1.612792,1.50255 6.192341,1.60145 9.473738,0.2046 1.278169,-0.5441 3.153064,-1.33777 4.166431,-1.7637 1.013367,-0.42594 3.362536,-1.09781 5.220376,-1.49304 4.475538,-0.95213 8.01187,-1.91134 9.519508,-2.58212 1.256078,-0.55884 9.351587,-2.10691 14.586347,-2.78928 1.6045,-0.20915 2.91727,-0.58677 2.91727,-0.83915 0,-0.25239 1.31277,-0.64161 2.91726,-0.86495 7.70177,-1.07204 14.61655,-2.37215 14.89343,-2.80026 0.36485,-0.56412 5.59999,-1.63391 10.74783,-2.19631 2.02674,-0.22141 4.51409,-0.76942 5.52746,-1.21777 1.01337,-0.44836 4.05347,-1.12042 6.75578,-1.49346 7.16089,-0.98852 11.56872,-1.90401 12.3965,-2.57469 0.40008,-0.32415 4.68386,-1.1488 9.51951,-1.83254 4.83564,-0.68374 9.06845,-1.45804 9.40624,-1.72066 0.86294,-0.67091 15.37233,-3.09424 18.52638,-3.09424 0.99131,0 2.07296,-0.27058 2.40367,-0.60129 0.63595,-0.63595 8.00384,-2.10315 13.92364,-2.77267 1.94229,-0.21967 3.53143,-0.65589 3.53143,-0.96937 0,-0.31348 0.95382,-0.56997 2.1196,-0.56997 3.2202,0 8.15436,-1.5047 12.92736,-3.94227 5.57113,-2.84517 7.46229,-2.89251 8.15889,-0.20426 1.07682,4.15561 5.06219,2.41198 6.212,-2.71779 0.40304,-1.79814 0.89431,-3.96028 1.09171,-4.80475 0.1974,-0.84448 0.79486,-2.03524 1.32769,-2.64614 0.77878,-0.8929 0.82251,-1.31447 0.22298,-2.14957 -1.28118,-1.78458 -1.55261,-2.68384 -0.93475,-3.09684 0.328,-0.21925 1.11879,-1.29685 1.75731,-2.39466 0.63852,-1.09782 1.48413,-1.99603 1.87914,-1.99603 0.395,0 1.14866,-0.65699 1.6748,-1.45997 0.52613,-0.80299 1.6965,-1.64568 2.60082,-1.87265 0.90432,-0.22697 2.64752,-1.2002 3.87378,-2.16274 1.22626,-0.96254 2.90149,-1.95079 3.72273,-2.19612 0.82124,-0.24532 2.34129,-0.96324 3.37789,-1.59536 1.0366,-0.63213 2.51976,-1.15035 3.29592,-1.15162 0.77615,-10e-4 2.07574,-0.71936 2.88797,-1.59577 1.37575,-1.48445 3.4774,-2.31314 7.98407,-3.14813 1.01337,-0.18776 1.99882,-0.58253 2.18989,-0.87728 0.19107,-0.29475 2.67843,-0.86113 5.52746,-1.25863 2.84902,-0.39749 5.87098,-1.18574 6.71546,-1.75165 1.65854,-1.11144 10.58242,-2.12717 18.11777,-2.06219 6.95581,0.06 17.50361,1.00697 17.50361,1.57147 0,0.28689 1.45096,0.52642 3.22435,0.53229 1.77339,0.006 5.02518,0.39245 7.22619,0.85909 2.20102,0.46663 5.65568,1.05197 7.67703,1.30074 2.02135,0.24878 3.81683,0.67052 3.98995,0.9372 0.17313,0.26668 2.74917,0.90979 5.72453,1.42913 2.97537,0.51934 6.28838,1.47762 7.36225,2.12952 1.07387,0.65189 2.84754,1.37452 3.94148,1.60584 1.09394,0.23132 2.14665,0.67569 2.33935,0.98749 0.19271,0.3118 0.88681,0.56691 1.54245,0.56691 0.65564,0 1.19208,0.25699 1.19208,0.57108 0,0.31409 1.29817,1.2123 2.88484,1.99602 2.83715,1.4014 11.42824,9.73477 18.88079,18.3144 3.11592,3.58717 7.09997,10.44537 7.09997,12.22201 0,0.37641 0.67191,1.99514 1.49314,3.59716 1.58631,3.09452 4.03432,11.80041 4.03432,14.3473 0,0.83835 0.26856,1.79285 0.59681,2.12109 0.32824,0.32825 0.85999,2.45526 1.18167,4.7267 0.45013,3.17853 1.02003,4.65782 2.474,6.42173 1.03903,1.26052 1.88914,2.51358 1.88914,2.78458 0,0.271 1.45096,2.25019 3.22435,4.39821 6.26339,7.5865 7.07716,8.72244 9.33142,13.0257 2.19197,4.18434 2.24332,4.42327 1.38231,6.43265 -0.49182,1.14779 -1.89448,3.03932 -3.11702,4.2034 -1.22254,1.16407 -2.2228,2.69478 -2.2228,3.40156 0,0.70679 -0.55274,2.36925 -1.22832,3.69436 -0.67558,1.32511 -1.22832,3.60425 -1.22832,5.06476 0,1.46051 -0.43441,3.31847 -0.96535,4.12879 -1.07078,1.63421 -7.21431,6.46758 -8.22073,6.46758 -0.35228,0 -0.64051,0.25944 -0.64051,0.57653 0,0.31709 -1.31277,0.73907 -2.91727,0.93773 -1.6045,0.19866 -3.88458,0.69811 -5.06684,1.10988 -1.55539,0.54174 -9.14379,0.74939 -27.45279,0.75122 -19.42079,0.002 -25.48176,0.181 -26.07117,0.77023 -0.42237,0.42223 -1.66366,0.7677 -2.75843,0.7677 -2.42212,0 -3.13274,0.93526 -1.81607,2.39016 0.53978,0.59645 0.98141,1.34856 0.98141,1.67137 0,0.32281 0.86851,1.09997 1.93,1.72701 3.55092,2.09758 10.2298,9.62407 10.64957,12.00111 0.64149,3.63256 0.97126,4.32018 2.07185,4.32018 0.58139,0 2.09599,0.52967 3.36579,1.17705 1.68842,0.8608 2.7791,1.04214 4.0595,0.67493 2.75274,-0.78948 11.23297,0.36761 12.21532,1.66672 0.88919,1.17593 0.553,8.08772 -0.42464,8.73017 -0.28577,0.18779 -0.6714,1.03238 -0.85694,1.87685 -0.9482,4.31554 -2.42317,8.92731 -2.90981,9.09811 -0.30211,0.106 -1.1206,1.3729 -1.81884,2.8153 -0.69825,1.4424 -1.98015,3.2902 -2.84867,4.1063 -1.56692,1.4724 -1.6844,1.4844 -15.19508,1.5489 -7.56525,0.036 -15.38993,-0.2396 -17.60799,-0.6206 z m 24.0244,-7.5241 c 3.40769,-0.5253 6.27939,-3.5213 7.46782,-7.79123 0.79012,-2.83877 0.84575,-3.8323 0.26655,-4.75975 -0.40259,-0.64466 -0.90804,-1.1721 -1.12321,-1.1721 -0.77795,0 -1.93511,1.89147 -2.3258,3.8017 -0.57046,2.78926 -4.06407,4.49306 -10.27506,5.01103 -5.54968,0.46282 -7.59395,-0.35914 -7.59395,-3.0534 0,-2.20434 -1.07842,-3.91685 -2.46655,-3.91685 -1.36646,0 -2.14393,2.19115 -1.66551,4.69388 0.16827,0.88021 0.0325,2.59042 -0.30154,3.80048 -0.54087,1.95884 -0.44894,2.32904 0.83828,3.37604 1.3062,1.0625 2.09788,1.1363 8.20153,0.7643 3.71568,-0.2265 7.75553,-0.5658 8.97744,-0.7541 z m -26.60518,-12.96557 c 0.16967,-3.55772 0.0765,-3.87684 -1.28278,-4.39363 -1.93825,-0.73692 -4.45536,-3.79018 -5.34372,-6.48195 -0.39301,-1.19085 -0.96951,-2.16517 -1.2811,-2.16517 -0.3116,0 -0.56653,-0.77384 -0.56653,-1.71965 0,-1.6576 -0.94527,-3.19365 -1.96532,-3.19365 -1.3767,0 0.23399,6.6208 2.76412,11.362 0.36052,0.67558 1.03673,2.05744 1.50269,3.07081 0.46596,1.01337 1.10775,2.25704 1.42621,2.76373 0.31845,0.50668 1.04759,1.82898 1.62031,2.93845 1.66757,3.2304 2.90938,2.36405 3.12612,-2.18094 z m 25.55673,-1.7566 c 0.44194,-1.15166 -0.622,-2.68588 -1.86257,-2.68588 -1.04122,0 -1.11313,1.94389 -0.10905,2.94797 0.99619,0.99618 1.51526,0.92718 1.97162,-0.26209 z m -7.97605,-8.75136 c 0.53567,-0.86672 -2.40676,-5.89106 -3.5834,-6.11884 -0.98448,-0.19058 -0.96993,-0.009 0.17235,2.14957 0.68621,1.29675 1.39087,2.84137 1.56591,3.43251 0.33936,1.14609 1.29648,1.42452 1.84514,0.53676 z m -19.64281,-2.91234 c 0.447,-1.781 0.1513,-2.41021 -0.84369,-1.79527 -0.79029,0.48843 -0.88231,3.40314 -0.10744,3.40314 0.30117,0 0.72918,-0.72354 0.95113,-1.60787 z m -3.01771,-15.6152 c 0.59716,-0.96623 -2.78063,-5.13192 -3.54305,-4.3695 -0.41877,0.41877 -0.17924,1.33619 0.73513,2.81568 1.39866,2.26308 2.12214,2.66343 2.80792,1.55382 z m 5.81813,-7.19475 c 0,-1.29785 -0.68829,-3.60095 -1.57264,-5.26219 -0.86495,-1.6248 -1.48679,-3.52622 -1.38186,-4.22536 0.25768,-1.71691 3.88832,-3.5585 7.01551,-3.5585 2.84595,0 7.04208,-1.52389 7.79213,-2.82983 0.27012,-0.47032 0.84026,-0.85514 1.26696,-0.85514 0.4267,0 1.51846,-0.77515 2.42613,-1.72255 1.25499,-1.30994 1.65031,-2.33975 1.65031,-4.29914 0,-1.41711 -0.27638,-2.57658 -0.61417,-2.57658 -0.33779,0 -0.61416,-0.42438 -0.61416,-0.94307 0,-0.5463 -1.22735,-1.45062 -2.91727,-2.14947 -1.6045,-0.66353 -3.35865,-1.45877 -3.89812,-1.76721 -0.53947,-0.30844 -3.52279,-0.75964 -6.6296,-1.00268 -5.33064,-0.41701 -5.73177,-0.36389 -7.12325,0.94333 -1.39363,1.30925 -1.79262,1.36138 -7.27409,0.95042 -3.81702,-0.28617 -5.93469,-0.2162 -6.19483,0.20471 -0.21738,0.35173 -0.75463,0.50161 -1.1939,0.33304 -0.43926,-0.16856 -1.95833,-0.0459 -3.37571,0.27255 -2.05747,0.46229 -2.76675,0.38932 -3.51794,-0.36187 -1.14892,-1.14892 -7.74577,-0.66793 -10.49327,0.76509 -0.95444,0.49781 -2.01433,0.90681 -2.35531,0.9089 -0.34098,0.002 -0.96517,0.55652 -1.38707,1.2321 -0.4219,0.67558 -1.13495,1.22833 -1.58456,1.22833 -2.12181,0 -2.98794,6.33014 -1.16816,8.53762 1.32201,1.60365 7.04184,3.74561 10.00217,3.74561 1.20392,0 2.53446,0.34547 2.95675,0.76771 0.44151,0.44145 2.51645,0.80282 4.88258,0.85035 2.26313,0.0454 6.26847,0.28984 8.90075,0.54307 4.6298,0.44539 4.81257,0.5241 5.60148,2.41223 1.06272,2.54343 8.36436,10.16653 9.73783,10.16653 0.81968,0 1.06331,-0.52883 1.06331,-2.308 z m -37.58853,-18.80515 c -0.44911,-0.8401 -0.39083,-1.29578 0.21479,-1.67954 0.9497,-0.60179 4.4549,-0.61446 6.53928,-0.0237 1.24655,0.35334 1.31342,0.53007 0.57984,1.53239 -1.20553,1.64722 -6.47898,1.77 -7.33391,0.17078 z m 1.56791,-3.30919 c -0.70263,-0.44887 -1.04071,-1.59648 -0.90185,-3.06141 0.0526,-0.55518 1.68792,-0.7677 5.9073,-0.7677 3.48025,0 5.83454,-0.24782 5.83454,-0.61416 0,-0.33779 0.53643,-0.61416 1.19207,-0.61416 0.65565,0 1.36289,0.27637 1.57166,0.61416 0.45311,0.73314 4.60621,0.83394 4.60621,0.11179 0,-0.59093 10.36334,-2.07461 11.13967,-1.59481 0.92311,0.57051 0.57151,2.6465 -0.54538,3.2201 -0.59113,0.30359 -5.64917,0.7158 -11.24009,0.91603 -7.36879,0.26391 -10.66349,0.62384 -11.97616,1.30834 -1.93084,1.00685 -4.42893,1.22225 -5.58797,0.48182 z m -74.52851,21.96569 c 0,-0.90077 -0.40944,-1.22832 -1.5354,-1.22832 -0.84448,0 -1.53541,0.11558 -1.53541,0.25684 0,0.14127 -0.16775,0.69402 -0.37279,1.22833 -0.29064,0.75739 0.0477,0.97147 1.53541,0.97147 1.49875,0 1.90819,-0.26356 1.90819,-1.22832 z m 9.58522,-0.97148 c -0.20504,-0.5343 -0.37279,-1.22524 -0.37279,-1.5354 0,-0.92815 -1.68308,-0.63687 -2.06459,0.35731 -0.19443,0.50669 -0.77674,0.92125 -1.29403,0.92125 -0.51728,0 -0.94051,0.27637 -0.94051,0.61416 0,0.33779 1.13505,0.61416 2.52235,0.61416 2.04773,0 2.45221,-0.1828 2.14957,-0.97148 z m 68.23955,-1.30397 c 0.61569,-1.60447 -0.65571,-4.1566 -2.17923,-4.37442 -0.77389,-0.11065 -1.55792,-0.5943 -1.7423,-1.07479 -0.18438,-0.48048 -0.71172,-0.87361 -1.17186,-0.87361 -1.59944,0 -5.66133,-2.52108 -5.97123,-3.70614 -0.17149,-0.6558 -1.04007,-1.46924 -1.93017,-1.80766 -0.8901,-0.33842 -2.25271,-1.29978 -3.02802,-2.13635 -1.03687,-1.11879 -1.5908,-1.33991 -2.09459,-0.83612 -0.43063,0.43063 -3.81283,0.708 -9.10997,0.74709 -6.14848,0.0454 -8.49418,0.26961 -8.6809,0.82986 -0.14662,0.43994 -1.28285,0.76771 -2.66132,0.76771 -2.36901,0 -2.40557,0.0349 -2.41223,2.3031 -0.004,1.26671 -0.1806,3.35513 -0.39307,4.64094 l -0.38631,2.33783 19.83634,-0.18826 c 12.84902,-0.12195 19.90676,0.0281 20.03627,0.42589 0.38936,1.1961 -0.91275,2.33523 -2.79056,2.4413 -1.04656,0.0591 -3.83745,0.15584 -6.20198,0.21495 -2.43557,0.0609 -4.29913,0.37837 -4.29913,0.7324 0,0.39283 2.75194,0.60086 7.40994,0.56015 6.04154,-0.0528 7.4765,-0.2382 7.77032,-1.00387 z m 66.81035,-0.75984 6.14161,-0.42764 -9.25016,-0.11102 c -8.37282,-0.10049 -9.37764,-0.22979 -10.59429,-1.36327 -0.73927,-0.68874 -1.34413,-0.96511 -1.34413,-0.61416 0,0.35095 -0.53643,0.63808 -1.19208,0.63808 -0.65564,0 -1.36288,0.27638 -1.57165,0.61417 -0.20876,0.33779 -1.84877,0.61416 -3.64445,0.61416 -4.12992,0 -7.10338,0.5849 -7.10338,1.39727 0,0.62083 14.2708,0.24726 28.55853,-0.74759 z m -139.35157,-2.85608 c -0.25038,-0.65248 0.0344,-1.08523 0.85553,-1.29996 0.67697,-0.17703 1.23086,-0.56601 1.23086,-0.8644 0,-0.29839 0.69093,-0.54254 1.53541,-0.54254 0.84447,0 1.5354,-0.27637 1.5354,-0.61416 0,-0.33779 -0.4214,-0.61416 -0.93644,-0.61416 -1.14826,0 -2.13437,-2.43037 -2.13437,-5.26036 0,-2.56843 -1.38896,-2.81912 -4.04478,-0.73005 -1.51998,1.19562 -2.56233,1.39453 -7.81888,1.49207 -7.30225,0.1355 -8.82344,0.81337 -1.82526,0.81337 5.07266,0 8.49222,0.94221 9.9961,2.75428 1.09933,1.3246 0.24012,2.03412 -2.75077,2.27151 -1.6773,0.13313 -2.51148,0.51124 -2.64133,1.19724 -0.14241,0.75236 0.54624,1.15585 2.75862,1.61634 4.33095,0.90145 4.66334,0.88427 4.23991,-0.21918 z m 18.97478,-2.09101 c 0.20818,-0.33685 1.53727,-1.15588 2.95352,-1.82007 1.41625,-0.66418 2.1282,-1.2177 1.58212,-1.23003 -1.41229,-0.0319 -7.2983,2.49262 -7.2983,3.13026 0,0.7377 2.29842,0.671 2.76266,-0.0802 z m 121.56973,0.0555 c 0.1893,-0.30631 3.03843,-0.73831 6.3314,-0.96002 14.6964,-0.98948 23.10005,-2.16379 24.43076,-3.41393 0.70884,-0.66592 1.52774,-1.21076 1.81977,-1.21076 0.29204,0 1.49899,-1.0364 2.68212,-2.30311 1.8648,-1.99653 2.18568,-2.79813 2.41063,-6.02187 0.25377,-3.63664 0.21014,-3.7621 -1.97536,-5.681 -1.22918,-1.07921 -2.50161,-1.96222 -2.82765,-1.96222 -0.32604,0 -1.14554,-0.55274 -1.82112,-1.22832 -1.89841,-1.89841 -3.51514,-1.58727 -3.98905,0.7677 -0.5896,2.92986 -1.88273,5.52378 -3.49475,7.01021 -1.58606,1.46248 -6.47785,3.277 -8.83456,3.277 -0.84455,0 -2.14766,0.39841 -2.8958,0.88536 -0.74814,0.48694 -3.42042,1.31297 -5.93839,1.8356 -4.07016,0.84481 -4.90493,1.27213 -7.52348,3.85131 -3.09323,3.04671 -3.41373,3.7686 -2.20836,4.97397 0.86568,0.86568 3.33833,0.98183 3.83384,0.18009 z m -126.79452,-6.79269 c 0.36082,-1.33997 1.01916,-2.65274 1.46299,-2.91727 0.95002,-0.56622 2.84162,-5.89208 2.84162,-8.00068 0,-1.85863 -1.04463,-3.84227 -2.02344,-3.84227 -0.41355,0 -1.0971,0.55275 -1.519,1.22832 -0.92667,1.48383 -4.16348,1.63168 -5.96174,0.27232 -1.02118,-0.77194 -1.09402,-1.10748 -0.46063,-2.1217 0.41381,-0.66262 0.75238,-1.58579 0.75238,-2.05151 0,-0.46571 0.51661,-1.50586 1.14802,-2.31144 1.44523,-1.84388 0.77944,-4.02954 -1.3936,-4.57494 -1.96531,-0.49326 -2.82523,0.0654 -2.82523,1.83535 0,0.77898 -0.51127,2.07544 -1.13617,2.88102 -0.81682,1.053 -1.23972,2.97146 -1.50457,6.82538 -0.32856,4.7809 -0.24451,5.44746 0.77712,6.16304 0.63004,0.44129 1.69808,2.43906 2.37341,4.43948 1.26187,3.73781 2.10867,4.48927 5.14754,4.56804 1.43355,0.0372 1.75655,-0.29583 2.3213,-2.39314 z m -32.5451,-0.32742 c 0,-0.72253 -0.84442,-0.92124 -3.91483,-0.92124 -2.15316,0 -5.09693,-0.41706 -6.5417,-0.92681 -1.44477,-0.50974 -2.93048,-0.87734 -3.30157,-0.81687 -1.09232,0.17797 -6.71075,-0.75134 -8.04465,-1.33063 -0.67557,-0.2934 -3.71568,-0.84127 -6.75578,-1.2175 -11.38966,-1.40956 -14.76076,-2.00987 -15.94517,-2.83947 -1.49251,-1.04539 -16.29832,-1.24469 -16.29832,-0.21939 0,1.39896 -1.80319,1.19252 -3.38301,-0.3873 -1.3365,-1.3365 -1.77407,-1.50001 -2.16096,-0.80745 -0.3507,0.62778 -1.42199,0.81096 -3.86619,0.66109 -3.06745,-0.18807 -3.4215,-0.35897 -3.81696,-1.84248 l -0.43589,-1.63518 -0.58962,1.68894 c -0.60088,1.7212 -1.36092,2.1455 -1.99767,1.11522 -0.19502,-0.31554 -1.30179,-0.42 -2.45949,-0.23214 -3.11097,0.50484 -9.47088,-0.37661 -8.13032,-1.12683 0.57492,-0.32174 1.04531,-1.124 1.04531,-1.78279 0,-1.00511 -0.43226,-1.19781 -2.68696,-1.19781 -2.48782,0 -2.68696,0.11897 -2.68696,1.60526 0,0.88288 -0.34632,1.81929 -0.76962,2.0809 -1.20171,0.7427 -0.054,1.93256 1.75177,1.81612 4.1849,-0.26985 6.23425,0.0413 6.23425,0.94642 0,0.64341 0.64829,0.92125 2.14957,0.92125 1.50128,0 2.14957,0.27783 2.14957,0.92124 0,0.5118 0.54592,0.92124 1.22832,0.92124 0.67558,0 1.22832,-0.4093 1.22832,-0.90954 0,-0.50025 0.69406,-1.08374 1.54235,-1.29665 1.59729,-0.40089 12.17622,0.6359 16.69385,1.63608 1.41629,0.31356 3.97649,0.57011 5.68933,0.57011 1.71285,0 3.59416,0.2735 4.18071,0.60778 1.64253,0.93609 14.41557,2.60553 21.94796,2.8686 3.71567,0.12976 7.30852,0.50532 7.9841,0.83455 0.67558,0.32924 4.68298,0.67788 8.90535,0.77477 4.22236,0.0969 8.43704,0.23593 9.36596,0.30896 1.15087,0.0905 1.68895,-0.1607 1.68895,-0.78845 z M 32.613801,937.54952 c 1.63707,-0.43871 1.847199,-1.45538 0.300805,-1.45538 -1.293262,0 -4.608829,-2.92529 -4.152476,-3.66368 0.176261,-0.2852 1.35682,-0.38561 2.623464,-0.22314 2.378316,0.30507 5.642279,-1.3485 4.009927,-2.03149 -0.590171,-0.24693 -0.590171,-0.487 0,-1.12814 1.04181,-1.13181 2.605212,0.0862 1.625653,1.26649 -0.862789,1.0396 -0.217435,2.09499 1.281055,2.09499 0.7198,0 1.542023,-0.79818 2.156803,-2.09374 0.546446,-1.15155 1.526718,-2.57625 2.178381,-3.16599 1.218578,-1.1028 1.603014,-2.72438 0.645881,-2.72438 -0.296429,0 -0.907194,0.4437 -1.357256,0.98599 -0.657996,0.79283 -1.515092,0.90715 -4.375295,0.58355 -3.28213,-0.37133 -3.669153,-0.28141 -5.00833,1.16359 -0.798231,0.8613 -2.11057,1.56904 -2.916308,1.57277 -0.805738,0.004 -2.49394,0.17685 -3.75156,0.38475 l -2.286582,0.378 1.211799,1.54055 c 1.260249,1.60215 1.668652,5.05988 0.597637,5.05988 -0.337789,0 -0.614162,0.41456 -0.614162,0.92124 0,0.70296 0.763975,0.91925 3.22435,0.91286 1.773392,-0.005 3.846188,-0.17504 4.606214,-0.37872 z m 43.759031,-1.78407 c 0,-0.18078 -0.420786,-0.97089 -0.935079,-1.7558 -0.83733,-1.27793 -0.83733,-1.50824 0,-2.20316 1.40094,-1.16268 1.151866,-1.68717 -1.164181,-2.45153 -1.154596,-0.38105 -2.542831,-1.36979 -3.084969,-2.1972 -0.542138,-0.8274 -1.3248,-1.50005 -1.73925,-1.49477 -1.758298,0.0224 -7.008624,-3.38159 -8.406317,-5.45015 -1.248255,-1.84739 -1.515373,-3.0021 -1.535404,-6.63733 -0.01334,-2.42047 -0.205242,-4.58213 -0.426453,-4.8037 -0.22121,-0.22156 -1.392374,0.23877 -2.602585,1.02296 -1.923811,1.2466 -2.201339,1.73823 -2.207986,3.91136 -0.0064,2.09614 0.377913,2.86199 2.453134,4.88839 2.336889,2.28191 2.442045,2.54376 2.089337,5.2026 -0.555331,4.18628 0.687794,5.3624 6.658381,6.29946 2.617864,0.41085 4.759754,0.96108 4.759754,1.22272 0,0.26164 0.561419,0.4757 1.247599,0.4757 1.725076,0 2.193344,1.64386 0.881266,3.09369 -1.067385,1.17944 -1.035873,1.20545 1.460918,1.20545 1.403512,0 2.551835,-0.14791 2.551835,-0.32869 z m 216.839928,-3.35628 c 0.31535,0 0.57337,-0.56648 0.57337,-1.25883 0,-2.33602 1.77351,-4.71079 5.04088,-6.74985 3.84824,-2.40155 4.78571,-3.42948 4.78571,-5.24748 0,-0.74377 0.3728,-1.49537 0.82844,-1.67021 0.5457,-0.20941 0.94691,-1.88431 1.17555,-4.90746 0.37443,-4.95075 1.56927,-7.98593 3.56403,-9.05349 1.32655,-0.70995 6.76789,-0.33533 10.14534,0.69847 1.0421,0.31898 2.70033,1.42473 3.68497,2.45725 0.98464,1.03251 3.63984,3.39361 5.90044,5.2469 3.60444,2.95497 4.53242,3.41318 7.54149,3.72375 1.88722,0.19478 3.57769,0.59101 3.75662,0.88052 0.17893,0.28951 1.39179,0.52638 2.69526,0.52638 1.36505,0 3.75851,0.70735 5.64475,1.66821 1.80115,0.91751 3.46421,1.61441 3.69568,1.54865 1.35581,-0.38514 9.61044,3.0377 11.3751,4.71677 1.76087,1.67545 2.02267,2.32181 2.02267,4.99367 v 3.0691 l 9.67305,-0.0681 c 9.00086,-0.0634 15.50759,-0.83976 15.50759,-1.85031 0,-0.23633 1.01459,-0.62004 2.25465,-0.85267 2.20534,-0.41373 5.71452,-3.37446 5.74311,-4.84552 0.007,-0.38651 0.55411,-1.39368 1.21467,-2.23815 1.50172,-1.91984 1.5763,-4.21341 0.15354,-4.72153 -0.59113,-0.21112 -2.07808,-1.46758 -3.30433,-2.79213 l -2.22955,-2.40828 -0.44916,-13.7755 c -0.3846,-11.79561 -0.61843,-14.10586 -1.62694,-16.07407 -0.64777,-1.26422 -1.60704,-3.94651 -2.13171,-5.96064 -0.52466,-2.01413 -1.59336,-4.77786 -2.3749,-6.14161 -0.78153,-1.36376 -1.62715,-3.1705 -1.87916,-4.01497 -0.57496,-1.92668 -6.5003,-8.74234 -8.39077,-9.65154 -2.97015,-1.42846 -10.69483,-4.94301 -12.21981,-5.55974 -0.87731,-0.3548 -3.15739,-0.84029 -5.06683,-1.07886 -1.90944,-0.23857 -3.47171,-0.64692 -3.47171,-0.90745 0,-0.26053 -0.76003,-0.6205 -1.68895,-0.79993 -0.92892,-0.17943 -2.79443,-0.6184 -4.14559,-0.97549 -1.35116,-0.3571 -5.85227,-0.83706 -10.00247,-1.06659 -4.1502,-0.22953 -7.69027,-0.65104 -7.86681,-0.9367 -0.4286,-0.69349 -20.96402,-0.67063 -21.39321,0.0238 -0.33133,0.5361 -5.59348,1.59144 -10.60126,2.12611 -1.41531,0.15111 -3.4881,0.74189 -4.60622,1.31285 -1.1181,0.57096 -3.66582,1.56927 -5.6616,2.21846 -1.99577,0.6492 -3.9441,1.44213 -4.3296,1.76208 -0.38551,0.31994 -1.87494,0.76945 -3.30985,0.9989 -1.92622,0.30801 -3.32449,1.11263 -5.34344,3.07483 -1.50399,1.46171 -2.73453,3.04102 -2.73453,3.50957 0,0.55289 1.41749,1.15377 4.0383,1.71186 4.17834,0.88976 4.19442,0.90365 6.49538,5.61136 0.28667,0.58655 0.52123,2.56882 0.52123,4.40505 0,3.2585 -0.0773,3.40652 -3.22434,6.17017 -1.7734,1.55736 -3.91529,3.00321 -4.75976,3.213 -0.84447,0.20978 -1.68905,0.61388 -1.87685,0.89798 -0.1878,0.28411 -2.06189,0.69638 -4.16465,0.91616 -2.10276,0.21979 -3.91667,0.56662 -4.03092,0.77075 -0.11424,0.20412 -0.005,5.29703 0.24263,11.31758 0.52285,12.70897 -0.11241,28.80789 -1.15042,29.15389 -0.37888,0.12629 -0.68886,0.72559 -0.68886,1.33177 0,2.06542 -1.83062,5.55078 -2.92552,5.56995 -0.92411,0.0162 -0.90251,0.11401 0.16179,0.73256 1.77943,1.03419 14.15654,1.36275 19.86918,0.52746 5.40762,-0.7907 8.0274,-0.44074 8.1672,1.09099 0.0506,0.55451 0.20716,0.24818 0.34788,-0.68074 0.14072,-0.92892 0.51386,-1.68894 0.82922,-1.68894 z m -57.76907,0.27125 c 1.12359,-1.12469 1.19732,-1.59895 0.66839,-4.29913 -0.32699,-1.66924 -0.7552,-5.24597 -0.95159,-7.94828 l -0.35706,-4.9133 2.82849,-2.91726 c 2.24581,-2.31631 3.24486,-2.91727 4.84968,-2.91727 1.11165,0 2.32003,-0.3601 2.6853,-0.80023 0.39906,-0.48083 0.75719,-5.11105 0.89729,-11.60096 l 0.23315,-10.80074 -3.73935,-0.46406 c -7.55801,-0.93796 -24.22375,-0.34456 -26.72141,0.95144 -0.53364,0.27691 -4.28672,0.96717 -8.34019,1.53394 -4.05347,0.56677 -8.06088,1.38916 -8.90535,1.82754 -0.84447,0.43839 -4.16095,1.27319 -7.36994,1.85512 -3.209,0.58193 -6.80184,1.53627 -7.98411,2.12075 -1.18226,0.58449 -4.49873,1.4227 -7.36994,1.86269 -2.8712,0.44 -5.77312,1.13281 -6.4487,1.53957 -0.67558,0.40677 -2.61019,0.90383 -4.29913,1.10459 -3.93128,0.46728 -11.02101,2.07882 -12.42656,2.82463 -1.19901,0.63622 -10.97343,2.51826 -13.07864,2.51826 -0.73276,0 -2.20317,0.3995 -3.26759,0.88777 -1.06442,0.48828 -4.56084,1.32482 -7.76984,1.85898 -3.43666,0.57206 -6.11477,1.34304 -6.51641,1.87595 -0.39598,0.52543 -1.68516,0.90476 -3.07486,0.90476 -1.31615,0 -3.35847,0.28612 -4.53851,0.63583 -1.18003,0.3497 -3.18576,0.6587 -4.45719,0.68667 -1.27143,0.0279 -2.46232,0.2946 -2.64644,0.5925 -0.18411,0.2979 -0.94289,0.54164 -1.68617,0.54164 -0.74328,0 -1.69662,0.55275 -2.11853,1.22833 -0.43366,0.6944 -1.43224,1.22832 -2.29729,1.22832 -1.07626,0 -1.530207,0.33515 -1.530207,1.12974 0,1.56366 2.509247,2.55523 6.466197,2.55523 3.6537,0 11.54652,1.09126 13.49406,1.86569 3.06855,1.22019 9.63842,2.21837 18.73194,2.84598 2.87121,0.19817 5.37027,0.59353 5.55348,0.87858 0.1832,0.28505 3.91424,0.68847 8.29118,0.89649 8.50491,0.4042 17.77947,1.70365 18.92723,2.65187 0.38496,0.31803 1.66723,0.56716 2.8495,0.55363 2.35656,-0.027 18.85386,1.75687 21.80274,2.35754 1.01337,0.20641 2.11886,0.57647 2.45665,0.82235 1.65446,1.2043 20.6099,3.0308 29.92456,2.88346 5.13489,-0.0812 6.14932,-0.2717 7.23517,-1.35861 z m -128.62598,-1.76279 c 0.48256,-0.48256 0.87738,-1.00177 0.87738,-1.15381 0,-0.82319 -3.90916,-1.57634 -7.62568,-1.46918 -2.943686,0.0849 -4.326392,-0.11322 -4.503848,-0.64523 -0.409474,-1.2276 -2.85471,-0.88674 -3.733502,0.52043 -0.442448,0.70847 -0.63228,1.4603 -0.421849,1.67073 0.21043,0.21043 2.371469,0.48788 4.802309,0.61654 2.430834,0.12868 4.68226,0.48234 5.00316,0.78592 0.91236,0.86313 4.62941,0.64722 5.60203,-0.3254 z m -22.583606,-1.08794 c 0.405347,-0.40535 0.736994,-1.39188 0.736994,-2.19229 0,-1.15789 -0.282385,-1.41518 -1.381864,-1.25903 -1.059122,0.15042 -1.426815,0.66244 -1.574318,2.19228 -0.203208,2.10758 0.800947,2.67728 2.219188,1.25904 z m -31.936416,-4.29914 c 0.405347,-0.40534 0.736994,-1.15221 0.736994,-1.6597 0,-0.96441 -3.562558,-4.97325 -4.419611,-4.97325 -0.969117,0 -0.471963,2.28593 0.73464,3.37789 0.675578,0.6114 1.228324,1.75972 1.228324,2.55184 0,1.58806 0.592518,1.83036 1.719653,0.70322 z m 370.810962,-3.98267 c -0.1705,-0.44428 -0.59503,-0.80779 -0.94342,-0.80779 -0.71142,0 -0.87397,3.23972 -0.19653,3.91716 0.57308,0.57308 1.54047,-2.06561 1.13995,-3.10937 z M 263.86444,910.80705 c 0.57251,-0.35383 0.56715,-0.62814 -0.0238,-1.21913 -0.49799,-0.49799 -0.76258,-2.7443 -0.76258,-6.47427 0,-5.87809 -0.84158,-7.73137 -1.40842,-3.10152 -0.51554,4.21085 -0.11572,21.59824 0.51937,22.58628 0.39354,0.61225 0.6394,-1.07618 0.75934,-5.2147 0.11395,-3.93155 0.44155,-6.28336 0.91612,-6.57666 z m 149.4461,6.09453 c -0.16038,-2.44897 -0.72538,-6.38718 -1.25555,-8.75158 -0.53017,-2.36439 -0.96395,-5.3354 -0.96395,-6.60224 0,-1.26683 -0.27637,-2.30333 -0.61416,-2.30333 -0.34751,0 -0.61977,-1.79992 -0.62708,-4.1456 -0.016,-5.13362 -2.27197,-14.00762 -4.17662,-16.42899 -0.78294,-0.99535 -1.57699,-2.57708 -1.76457,-3.51496 -0.18758,-0.93789 -0.58972,-1.70525 -0.89364,-1.70525 -0.30393,0 -0.83101,-0.73227 -1.17128,-1.62728 -0.90483,-2.37987 -4.87713,-6.91053 -8.81123,-10.04977 -2.68101,-2.13934 -3.43708,-3.11561 -3.43708,-4.43815 0,-0.93252 0.27637,-1.6955 0.61416,-1.6955 1.22301,0 0.56536,-1.32479 -1.81674,-3.65973 -1.337,-1.31052 -2.96856,-2.55341 -3.62571,-2.76198 -0.65714,-0.20857 -1.649,-1.33636 -2.20413,-2.50621 -0.55512,-1.16984 -1.06544,-2.12859 -1.13405,-2.13055 -2.48018,-0.0707 -7.63313,-1.48608 -8.82565,-2.42412 -0.87912,-0.69151 -2.43266,-1.25729 -3.45233,-1.25729 -1.01966,0 -3.40066,-0.74855 -5.29109,-1.66344 -1.99688,-0.96641 -5.10995,-1.84156 -7.4292,-2.0885 -6.18499,-0.65854 -9.48546,-1.2935 -9.8838,-1.90148 -0.20035,-0.30581 -5.72781,-0.82339 -12.28323,-1.15019 -6.55543,-0.3268 -12.24449,-0.70978 -12.64237,-0.85106 -0.39787,-0.14129 -0.81243,-1.02438 -0.92124,-1.96242 -0.16451,-1.41827 -0.59956,-1.79998 -2.58289,-2.26623 -2.41892,-0.56866 -17.44167,0.31552 -19.57123,1.15188 -1.93773,0.76102 -1.24638,2.13317 1.07478,2.13317 2.48102,0 3.00416,1.49302 0.76771,2.19096 -0.76003,0.23719 -1.52005,0.60892 -1.68895,0.82608 -0.16889,0.21717 -0.99801,0.69993 -1.84248,1.07281 -1.52249,0.67225 -1.51639,0.68166 0.72516,1.11815 2.12576,0.41395 3.33768,1.66782 2.66463,2.75685 -0.16454,0.26623 -1.34002,1.00132 -2.61218,1.63352 l -2.31302,1.14947 2.0903,0.19948 c 1.20322,0.11483 2.98085,-0.27613 4.18877,-0.92124 1.77017,-0.9454 2.0591,-1.3932 1.84685,-2.86237 -0.20306,-1.40552 0.0413,-1.85303 1.26626,-2.31875 0.83484,-0.31741 2.02055,-0.41757 2.6349,-0.22258 0.61436,0.19499 2.23327,0.0539 3.59759,-0.31342 3.09315,-0.8329 8.63472,-0.19719 8.63472,0.99054 0,0.47726 -0.63266,0.84212 -1.4602,0.84212 -0.80311,0 -1.77023,0.37356 -2.14914,0.83012 -0.57113,0.68817 0.75514,0.88561 7.75536,1.15455 4.64437,0.17844 9.33597,0.18903 10.42577,0.0236 1.67982,-0.25506 1.8919,-0.46824 1.39312,-1.40023 -0.42472,-0.79359 -0.34959,-1.19099 0.27009,-1.42878 1.50842,-0.57884 8.00234,0.35027 8.51554,1.21835 0.56886,0.96225 2.27259,1.12463 2.27259,0.21661 0,-0.33779 0.71067,-0.61417 1.57927,-0.61417 1.7693,0 3.7161,1.53386 2.72457,2.14666 -0.34038,0.21036 -0.61887,0.91892 -0.61887,1.57456 0,0.89617 0.42687,1.19208 1.71965,1.19208 0.94581,0 1.98221,0.24759 2.30311,0.55021 0.3209,0.30262 2.86441,0.84957 5.65224,1.21545 2.78783,0.36587 5.68975,1.05427 6.4487,1.52977 0.75895,0.47549 2.82762,1.33154 4.59704,1.90232 1.76942,0.57078 3.36932,1.28404 3.55534,1.58503 0.18601,0.30098 2.15048,1.41215 4.36548,2.46927 3.16963,1.51273 5.51846,3.42713 11.02956,8.98958 3.85126,3.88715 8.38481,9.13457 10.07454,11.66094 2.8231,4.22087 3.07226,4.88807 3.07226,8.22691 0,2.01291 0.27392,3.63352 0.61416,3.63352 0.33779,0 0.61416,0.63566 0.61416,1.41258 0,0.77691 0.32244,1.735 0.71652,2.12909 0.39409,0.39409 0.71191,2.0385 0.70627,3.65426 -0.008,2.16978 0.35733,3.38002 1.39586,4.62961 1.55907,1.87592 1.89907,3.838 2.33857,13.4952 0.31112,6.83652 1.51844,10.91481 3.23116,10.91481 0.70791,0 0.82187,-0.8646 0.5869,-4.45267 z m -58.72239,-75.38837 c -0.71531,-0.46227 -0.5356,-0.59745 0.80395,-0.60475 0.99561,-0.005 1.56467,0.25032 1.34562,0.60475 -0.47129,0.76256 -0.96959,0.76256 -2.14957,0 z m -29.44774,-4.26634 c -0.69927,-0.44239 -0.54274,-0.64951 0.7328,-0.96965 1.77308,-0.44502 3.14591,0.0747 2.58683,0.9793 -0.44879,0.72615 -2.16447,0.72117 -3.31963,-0.01 z m -15.38607,-3.71776 c -2.53342,-0.1689 -4.53713,-0.51436 -4.45268,-0.7677 0.0844,-0.25335 0.15354,-0.67598 0.15354,-0.9392 0,-0.47408 8.27612,-1.97807 10.88488,-1.97807 1.26383,0 3.10395,2.1841 2.41802,2.87003 -0.7365,0.7365 -4.7421,1.09905 -9.00376,0.81494 z m 2.45664,86.28974 c 0.64656,-0.77905 0.51597,-0.92125 -0.84604,-0.92125 -1.02221,0 -1.6106,0.33656 -1.6106,0.92125 0,0.50668 0.38071,0.92124 0.84604,0.92124 0.46532,0 1.19009,-0.41456 1.6106,-0.92124 z M 81.948648,917.89857 c 0.533283,-0.4639 1.293308,-0.84345 1.688945,-0.84345 0.395637,0 0.719343,-0.27637 0.719343,-0.61416 0,-0.33779 0.806205,-0.61416 1.791566,-0.61416 0.985367,0 3.081072,-0.55275 4.657134,-1.22833 1.576062,-0.67558 3.395394,-1.22832 4.042972,-1.22832 0.647572,0 1.177404,-0.22085 1.177404,-0.49078 0,-0.26994 1.036398,-0.87267 2.303106,-1.33942 2.234472,-0.82333 2.257342,-0.86179 0.767703,-1.29048 -3.028574,-0.87155 -5.870743,-0.60087 -7.257624,0.69121 -1.039936,0.96884 -1.820579,1.16676 -3.419125,0.86687 -1.567206,-0.294 -2.351319,-0.109 -3.220862,0.75992 -0.632144,0.63169 -2.254846,1.52615 -3.606002,1.9877 -2.672427,0.91288 -5.19291,2.95292 -5.209763,4.21672 -0.01351,1.01304 4.147312,0.3601 5.565203,-0.87332 z m 241.812862,-1.86574 c 0.15003,-1.5465 -0.0845,-2.03019 -1.14796,-2.36772 -2.08898,-0.66302 -4.26095,0.82284 -4.26095,2.91494 0,1.70726 0.0982,1.76691 2.61019,1.58517 2.43408,-0.17611 2.62291,-0.31999 2.79872,-2.13239 z M 64.212428,915.70396 c -0.573218,-0.57321 -0.736994,-0.40944 -0.736994,0.737 0,1.14643 0.163776,1.31021 0.736994,0.73699 0.573217,-0.57321 0.573217,-0.90077 0,-1.47399 z m -13.359991,-1.44889 c 1.10827,-1.69143 1.081969,-4.02348 -0.04958,-4.39566 -1.131627,-0.37222 -2.681475,1.62312 -2.681475,3.45225 0,2.91729 1.172358,3.32227 2.73105,0.94341 z m 27.047024,-1.82119 c 0.342616,-0.4263 2.376855,-1.20738 4.520532,-1.73573 2.143676,-0.52835 4.292365,-1.28826 4.774856,-1.6887 0.482498,-0.40044 2.390521,-0.72807 4.240057,-0.72807 1.84953,0 3.362782,-0.219 3.362782,-0.48667 0,-0.26767 0.967305,-0.83645 2.149566,-1.26397 1.182262,-0.42751 2.149567,-0.99814 2.149567,-1.26807 0,-0.73029 2.722239,-0.5937 3.491099,0.17517 0.73658,0.73658 0.36468,3.01901 -0.49192,3.01901 -0.29839,0 -0.54253,0.2497 -0.54253,0.55489 0,0.80346 6.29545,1.17792 7.27953,0.433 0.7132,-0.53987 5.00356,-1.86864 10.52038,-3.25827 0.83854,-0.21122 1.89467,-0.7541 2.34697,-1.20639 1.28175,-1.28175 -3.24012,-1.07621 -5.55327,0.25242 -1.4088,0.8092 -1.93811,0.88508 -2.14197,0.30708 -0.14892,-0.42223 -0.95497,-0.7677 -1.79124,-0.7677 -2.03029,0 -1.39296,-0.85019 1.77978,-2.37421 2.88711,-1.38682 6.2702,-2.31819 11.81921,-3.25383 2.02674,-0.34174 3.94753,-0.87347 4.26843,-1.18162 0.3209,-0.30815 1.25614,-0.56028 2.07831,-0.56028 2.36327,0 10.60089,-2.26967 11.15687,-3.074 0.28039,-0.40563 16.5188,-3.06762 18.71275,-3.06762 0.63548,0 0.94043,0.59745 0.94043,1.84249 0,1.29811 0.29755,1.84248 1.00708,1.84248 1.48791,0 2.62916,-1.91772 2.25608,-3.79106 -0.2943,-1.47778 -0.0905,-1.70715 2.04348,-2.29968 1.30371,-0.362 2.92313,-0.66143 3.59871,-0.66539 0.67558,-0.004 2.01994,-0.42007 2.98747,-0.92467 0.96754,-0.5046 3.05415,-0.91746 4.63693,-0.91746 1.58277,0 3.14032,-0.22842 3.46122,-0.5076 0.3209,-0.27918 2.7158,-0.84835 5.322,-1.26482 2.6062,-0.41647 5.50812,-1.13558 6.4487,-1.59804 0.94058,-0.46245 4.75026,-1.30223 8.46593,-1.86619 3.71568,-0.56395 7.30853,-1.25463 7.98411,-1.53485 1.39863,-0.58013 8.14168,-1.67698 15.31446,-2.49111 2.68054,-0.30424 5.09457,-0.90107 5.36451,-1.32628 0.38985,-0.61409 0.49274,-0.6152 0.50021,-0.005 0.005,0.42223 0.36869,0.7677 0.80781,0.7677 0.43913,0 1.08779,0.28938 1.44148,0.64306 0.35368,0.35368 3.93271,0.74508 7.95339,0.86977 4.63393,0.14371 6.80442,0.028 5.92847,-0.31619 -0.76002,-0.29859 -1.38186,-0.96636 -1.38186,-1.48393 0,-0.59433 -0.5657,-0.94104 -1.53541,-0.94104 -0.84447,0 -1.5354,0.27638 -1.5354,0.61417 0,0.9511 -2.14249,0.72693 -4.40244,-0.46063 -2.49521,-1.31118 -2.946,-1.88491 -2.9581,-3.76484 -0.009,-1.38801 -0.15655,-1.44216 -2.92667,-1.07368 -1.6045,0.21343 -4.43732,0.5632 -6.29516,0.77726 -1.85784,0.21406 -3.66374,0.61248 -4.01311,0.88539 -0.64608,0.50467 -5.13044,1.3648 -12.87634,2.46977 -2.36453,0.3373 -5.12825,0.97294 -6.14162,1.41253 -1.01337,0.43958 -5.15896,1.28695 -9.21243,1.88304 -4.05347,0.59608 -7.92269,1.31111 -8.59827,1.58895 -0.67557,0.27785 -2.19562,0.62934 -3.37789,0.78111 -4.85054,0.62265 -13.21019,2.38234 -13.50386,2.84254 -0.17313,0.2713 -2.38757,0.79209 -4.92099,1.1573 -7.31753,1.05487 -13.17842,2.17165 -13.51156,2.57458 -0.1689,0.20428 -2.37988,0.71299 -4.9133,1.13046 -7.2153,1.189 -11.21869,2.02302 -12.2526,2.55259 -1.10677,0.5669 -12.74602,3.06294 -14.25872,3.0578 -0.56298,-0.002 -1.11925,0.28347 -1.23616,0.6342 -0.1169,0.35072 -2.28183,0.79502 -4.81093,0.98734 -4.25181,0.3233 -9.62776,1.4457 -12.58248,2.62699 -3.228062,1.29057 -5.840277,1.88961 -8.239985,1.88961 -1.63999,0 -3.272095,0.46055 -4.34861,1.22709 -0.947805,0.6749 -3.892386,1.66793 -6.543507,2.20672 -7.170186,1.45722 -7.583941,1.57535 -7.583941,2.16524 0,0.29841 -0.621839,0.54673 -1.381864,0.55182 -2.779573,0.0186 -6.286936,1.65695 -6.495845,3.03433 -0.345994,2.2812 0.978842,3.19475 3.980309,2.74466 2.45961,-0.36884 2.669076,-0.29455 2.669076,0.9466 0,1.1988 0.218457,1.29888 1.98725,0.91038 1.092987,-0.24006 2.267571,-0.78526 2.610188,-1.21155 z m 29.892599,-7.04784 c 0,-0.84447 0.1394,-1.18993 0.30977,-0.7677 0.17038,0.42224 0.17038,1.11317 0,1.53541 -0.17037,0.42223 -0.30977,0.0768 -0.30977,-0.76771 z m 149.84687,0.46063 c 0.25307,-21.55139 0.37721,-19.49822 -1.179,-19.49897 l -1.39772,-6.1e-4 0.1039,11.20845 c 0.0571,6.16465 -0.10467,12.24485 -0.35958,13.51156 -0.44104,2.19171 -0.38589,2.30311 1.14029,2.30311 l 1.60376,-6e-5 0.0883,-7.52348 z m 161.43621,6.03831 c 0,-0.98071 -0.88731,-2.1998 -1.60111,-2.1998 -0.88233,0 -1.17057,1.32273 -0.44609,2.0472 0.44728,0.44729 2.0472,0.56654 2.0472,0.1526 z m -18.42485,-2.9368 c 0,-0.99213 -0.18161,-1.16954 -0.68348,-0.66767 -0.37591,0.37591 -0.49779,0.98393 -0.27084,1.35116 0.63529,1.02791 0.95432,0.79941 0.95432,-0.68349 z m -148.89053,-3.91371 c -0.20582,-0.82 -0.64531,-1.49091 -0.97666,-1.49091 -0.68146,0 -0.8318,3.86507 -0.17586,4.52102 0.72176,0.72176 1.54858,-1.45204 1.15252,-3.03011 z m 148.89053,-3.94756 c 0,-1.01337 -0.27637,-1.84248 -0.61416,-1.84248 -0.68313,0 -0.84766,2.63259 -0.20472,3.27552 0.69386,0.69387 0.81888,0.47508 0.81888,-1.43304 z M 250.7948,899.24443 c 0,-1.01337 -0.27638,-1.84249 -0.61416,-1.84249 -0.33779,0 -0.61417,0.82912 -0.61417,1.84249 0,1.01336 0.27638,1.84248 0.61417,1.84248 0.33778,0 0.61416,-0.82912 0.61416,-1.84248 z m 0,-7.98411 c 0,-1.35115 -0.27638,-2.45665 -0.61416,-2.45665 -0.33779,0 -0.61417,1.1055 -0.61417,2.45665 0,1.35116 0.27638,2.45665 0.61417,2.45665 0.33778,0 0.61416,-1.10549 0.61416,-2.45665 z m 12.28323,-3.68497 c 0,-1.22832 -0.30708,-1.84248 -0.92124,-1.84248 -1.12061,0 -1.17484,0.83891 -0.15934,2.46498 0.99961,1.60063 1.08058,1.55399 1.08058,-0.6225 z m -0.66534,-9.60335 c 0.14075,-0.12278 -2.34661,-0.21901 -5.52745,-0.21383 -3.64483,0.006 -5.4622,0.21269 -4.91484,0.55917 0.78218,0.49512 9.82156,0.19618 10.44229,-0.34534 z m 11.98251,-3.61432 c 0.65091,-0.49245 0.9887,-1.09014 0.75064,-1.32821 -0.23807,-0.23806 -1.03934,0.17364 -1.78059,0.9149 -1.50924,1.50924 -0.79663,1.7952 1.02995,0.41331 z m -15.18018,-5.139 c 0.12801,-3.092 0.49167,-4.35548 1.71536,-5.95982 0.85409,-1.11977 1.72235,-2.8832 1.92945,-3.91872 0.37808,-1.89037 3.32186,-4.92953 4.77482,-4.92953 0.97485,0 3.0779,-3.81251 2.7107,-4.91409 -0.53856,-1.6157 -7.42491,5.49256 -9.64873,9.95968 -1.65712,3.32873 -2.35713,4.16684 -3.48026,4.16684 -0.77324,0 -1.51355,-0.32292 -1.64511,-0.7176 -0.13156,-0.39468 -0.72072,0.36535 -1.30925,1.68895 -0.58853,1.32359 -1.33305,2.88644 -1.65447,3.47299 -1.36812,2.4966 -0.41594,4.38966 2.4864,4.94326 3.66159,0.69843 3.94601,0.43673 4.12109,-3.79196 z m 4.35434,2.87979 c 0.40535,-0.40534 0.737,-1.50233 0.737,-2.43773 0,-1.81519 2.24329,-6.65186 3.08519,-6.65186 0.27749,0 0.82097,-0.95885 1.20774,-2.13077 0.40286,-1.2207 1.77346,-2.97842 3.20901,-4.1154 2.61765,-2.07321 2.45409,-2.83792 -0.37677,-1.76163 -1.00375,0.38163 -1.91941,1.37736 -2.31797,2.52068 -0.36408,1.04443 -1.31195,2.13818 -2.11884,2.44496 -0.85799,0.32621 -1.46004,1.05596 -1.46004,1.76973 0,1.51046 -1.26827,4.44513 -2.27514,5.26448 -0.92738,0.75466 -1.79542,5.83454 -0.997,5.83454 0.31341,0 0.90148,-0.33165 1.30682,-0.737 z m -1.38328,-19.38809 c 1.43933,-3.44481 1.09161,-4.17086 -0.95053,-1.98474 -1.01337,1.08481 -1.84249,2.34141 -1.84249,2.79243 0,0.45103 -0.27637,0.99086 -0.61416,1.19962 -0.33779,0.20877 -0.61416,0.78419 -0.61416,1.27873 0,1.57712 3.02075,-0.89129 4.02134,-3.28604 z m 19.42199,-2.38701 c 0.61773,-0.55903 1.12314,-1.24997 1.12314,-1.5354 0,-0.97063 -2.87608,-0.52379 -3.8982,0.60565 -1.77112,1.95706 0.71829,2.79111 2.77506,0.92975 z m -14.50519,-3.74332 c 2.12577,-1.69616 2.64999,-2.61019 1.49702,-2.61019 -0.68632,0 -4.29354,3.28078 -4.29354,3.905 0,0.71688 0.65592,0.41318 2.79652,-1.29481 z m 11.64298,-2.06366 c 1.51636,-0.71278 2.75703,-1.5419 2.75703,-1.84249 0,-1.02203 -2.02741,-0.55127 -3.95382,0.91808 -1.05611,0.80553 -2.46405,1.60259 -3.12878,1.77124 -1.07217,0.27203 -1.05186,0.31468 0.17997,0.37788 0.76371,0.0392 2.62922,-0.51194 4.1456,-1.22471 z m 9.16957,-3.94395 c 1.14758,-0.86799 1.13298,-0.90171 -0.39041,-0.90171 -0.87043,0 -2.3742,0.41285 -3.34174,0.91746 l -1.75915,0.91746 2.14957,-0.0157 c 1.18226,-0.009 2.68604,-0.42152 3.34173,-0.91746 z m 58.38154,0.32661 c -0.20877,-0.33779 -0.91601,-0.61416 -1.57166,-0.61416 -0.65564,0 -1.19207,-0.41456 -1.19207,-0.92124 0,-1.09799 -2.78203,-1.27121 -3.43548,-0.21391 -0.24043,0.38903 0.0725,1.07996 0.6953,1.5354 1.31721,0.96316 6.08141,1.14833 5.50391,0.21391 z m -52.3573,-2.89008 c -0.76003,-0.14639 -2.00371,-0.14639 -2.76373,0 -0.76003,0.14639 -0.13819,0.26616 1.38186,0.26616 1.52005,0 2.14189,-0.11977 1.38187,-0.26616 z m -8.13765,-2.63738 c 0,-0.33778 -0.41456,-0.61416 -0.92124,-0.61416 -0.50668,0 -0.92124,0.27638 -0.92124,0.61416 0,0.33779 0.41456,0.61417 0.92124,0.61417 0.50668,0 0.92124,-0.27638 0.92124,-0.61417 z m 72.4711,-1.22832 c 0,-0.33779 -0.89821,-0.60993 -1.99602,-0.60476 -1.51466,0.007 -1.77386,0.15298 -1.07479,0.60476 1.20713,0.78011 3.07081,0.78011 3.07081,0 z m -69.56662,-0.37106 c -0.20408,-0.20408 -0.7338,-0.2259 -1.17715,-0.0485 -0.48993,0.19605 -0.34441,0.34158 0.37106,0.37105 0.64743,0.0267 1.01017,-0.11849 0.80609,-0.32257 z m 64.03916,-0.85726 c 0,-0.33779 -0.89821,-0.60993 -1.99602,-0.60476 -1.51466,0.007 -1.77386,0.15298 -1.07478,0.60476 1.20712,0.78011 3.0708,0.78011 3.0708,0 z m -14.12572,-2.76373 c -0.59024,-0.7112 -2.226,-0.92124 -7.1743,-0.92124 -4.30259,0 -6.27929,0.21108 -6.01292,0.64208 0.21826,0.35314 1.75143,0.58027 3.40706,0.50472 1.65563,-0.0755 3.19767,0.0501 3.42675,0.27917 0.22908,0.22908 1.92434,0.41651 3.76724,0.41651 2.9088,0 3.2499,-0.1215 2.58617,-0.92124 z M 169.77392,997.66386 c -0.0267,-0.42224 -0.69659,-0.7677 -1.4887,-0.7677 -1.73547,0 -3.47308,-1.76539 -3.47308,-3.52861 0,-0.70528 -0.34547,-1.42173 -0.7677,-1.5921 -0.61417,-0.24782 -0.61417,-0.31947 0,-0.35826 0.42223,-0.0267 0.7677,-0.56739 0.7677,-1.20161 0,-2.88439 5.67063,-3.88995 8.12058,-1.44 2.42355,2.42354 1.44921,8.12058 -1.38882,8.12058 -0.60607,0 -1.24134,0.34546 -1.41172,0.7677 -0.24782,0.61416 -0.31947,0.61416 -0.35826,0 z M 81.746749,996.4728 c -1.844912,-0.48212 -1.071283,-3.05984 1.17459,-3.91372 l 1.467687,-0.55801 -0.169582,-9.34806 -0.169589,-9.34806 -1.529895,-0.36048 c -2.078483,-0.48974 -3.043037,-3.19245 -1.640039,-4.59545 0.561202,-0.5612 1.020368,-0.72425 1.020368,-0.36234 0,0.38686 1.369507,0.65803 3.323297,0.65803 3.019085,0 3.466465,0.18272 4.887341,1.99603 4.488577,5.72828 6.491396,8.1077 9.205236,10.9362 1.640687,1.71 3.024037,3.02355 3.074097,2.919 0.0501,-0.10455 0.001,-2.57279 -0.10868,-5.48497 -0.18224,-4.83152 -0.32323,-5.35115 -1.61106,-5.93792 -2.058236,-0.9378 -2.382065,-3.54566 -0.58638,-4.72224 2.87236,-1.88204 10.56183,-0.66247 11.51699,1.82662 0.42948,1.11924 -1.16942,2.76642 -2.68534,2.76642 -0.63152,0 -1.3718,0.34546 -1.64508,0.7677 -0.27327,0.42224 -0.63505,5.60097 -0.80395,11.5083 -0.27966,9.78142 -0.4074,10.75981 -1.43044,10.95576 -1.61985,0.31026 -4.09701,-0.41704 -4.09701,-1.20289 0,-0.36944 -1.239548,-2.36788 -2.75455,-4.44097 -4.323964,-5.91683 -5.417958,-7.28818 -7.225584,-9.05756 -0.928919,-0.90927 -1.688945,-1.97993 -1.688945,-2.37923 0,-0.39931 -0.345466,-0.61149 -0.767702,-0.47151 -0.528278,0.17513 -0.822971,2.14345 -0.944913,6.31126 l -0.17721,6.05676 2.60318,2.37954 c 2.087076,1.90777 2.426621,2.49124 1.712615,2.94294 -0.897382,0.56771 -7.953795,0.68037 -9.949452,0.15885 z m 38.538651,0.016 c -0.67557,-0.18259 -2.09851,-0.98743 -3.16208,-1.78856 -2.30542,-1.73655 -4.27335,-7.14968 -3.67922,-10.12033 0.4848,-2.424 3.34663,-6.45701 5.18126,-7.30163 3.08147,-1.41864 10.89587,-0.28244 11.63607,1.69186 0.21373,0.5701 0.82029,1.35973 1.34791,1.75474 1.46608,1.0976 1.3725,10.44068 -0.11548,11.52871 -0.59113,0.43225 -1.07478,1.09453 -1.07478,1.47174 0,1.86787 -6.69351,3.69319 -10.13368,2.76347 z m 5.09755,-4.6288 c 0.9685,-0.9685 0.9311,-7.13321 -0.0551,-9.08959 -1.06539,-2.11337 -2.93395,-2.22457 -4.75782,-0.28314 -2.0241,2.15455 -2.19665,7.69772 -0.28459,9.14251 1.48572,1.12265 4.08761,1.24016 5.09754,0.23022 z m 25.30347,2.49645 c 0,-0.75084 0.31483,-2.23581 0.69962,-3.29993 0.91705,-2.53605 0.17713,-7.40936 -1.35805,-8.94454 -1.47558,-1.47558 -1.47595,-1.86746 -0.003,-3.44819 1.43523,-1.54054 7.31183,-2.46345 9.21168,-1.44668 2.43716,1.30432 2.62239,2.74386 0.63895,4.96546 -1.57032,1.75887 -1.81899,2.52185 -1.81899,5.58123 0,2.60109 0.25986,3.68926 0.97681,4.09048 0.58597,0.32794 0.89314,1.13877 0.7677,2.02655 -0.19618,1.3885 -0.48409,1.49103 -4.66177,1.66034 -4.24613,0.17208 -4.45268,0.11712 -4.45268,-1.18472 z"
       id="path3436"
       inkscape:connector-curvature="0" />
    <rect
       style="opacity:1;fill:#ffffff;fill-opacity:1;fill-rule:nonzero;stroke:none;stroke-width:8;stroke-linecap:round;stroke-linejoin:round;stroke-miterlimit:4;stroke-dasharray:none;stroke-dashoffset:0;stroke-opacity:1"
       id="rect4923"
       width="125.71429"
       height="52.14286"
       x="58.57143"
       y="961.64789" />
  </g>
</svg>
