<?xml version="1.0" encoding="UTF-8" standalone="no"?>
<!-- Created with Inkscape (http://www.inkscape.org/) -->

<svg
   width="480"
   height="288"
   id="svg2"
   version="1.1"
   inkscape:version="1.1.2 (0a00cf5339, 2022-02-04)"
   sodipodi:docname="tuya-red.svg"
   viewBox="0 0 450 270"
   inkscape:export-filename="tuya-red.png"
   inkscape:export-xdpi="300"
   inkscape:export-ydpi="300"
   xmlns:inkscape="http://www.inkscape.org/namespaces/inkscape"
   xmlns:sodipodi="http://sodipodi.sourceforge.net/DTD/sodipodi-0.dtd"
   xmlns="http://www.w3.org/2000/svg"
   xmlns:svg="http://www.w3.org/2000/svg"
   xmlns:rdf="http://www.w3.org/1999/02/22-rdf-syntax-ns#"
   xmlns:cc="http://creativecommons.org/ns#"
   xmlns:dc="http://purl.org/dc/elements/1.1/">
  <defs
     id="defs4">
    <clipPath
       id="clipPath20">
      <path
         inkscape:connector-curvature="0"
         d="m 1,3.44 h 15 v 9 H 1 Z"
         id="path22" />
    </clipPath>
    <mask
       id="mask24">
      <g
         id="g26">
        <g
           clip-path="url(#clipPath20)"
           id="g28">
          <path
             inkscape:connector-curvature="0"
             d="m 1,3.44 h 15 v 9 H 1 Z"
             style="fill:#000000;fill-opacity:0.14839998"
             id="path30" />
        </g>
      </g>
    </mask>
    <clipPath
       id="clipPath36">
      <path
         inkscape:connector-curvature="0"
         d="m 1,3.44 h 15 v 9 H 1 Z"
         id="path38" />
    </clipPath>
    <clipPath
       id="clipPath40">
      <path
         inkscape:connector-curvature="0"
         d="m 1,4 h 15 v 9 H 1 Z"
         id="path42" />
    </clipPath>
    <clipPath
       id="clipPath64">
      <path
         inkscape:connector-curvature="0"
         d="m 1,3.44 h 15 v 9 H 1 Z"
         id="path66" />
    </clipPath>
    <mask
       id="mask68">
      <g
         id="g70">
        <g
           clip-path="url(#clipPath64)"
           id="g72">
          <path
             inkscape:connector-curvature="0"
             d="m 1,3.44 h 15 v 9 H 1 Z"
             style="fill:#000000;fill-opacity:0.19140003"
             id="path74" />
        </g>
      </g>
    </mask>
    <clipPath
       id="clipPath80">
      <path
         inkscape:connector-curvature="0"
         d="m 1,3.44 h 15 v 9 H 1 Z"
         id="path82" />
    </clipPath>
    <clipPath
       id="clipPath84">
      <path
         inkscape:connector-curvature="0"
         d="m 1,4 h 15 v 9 H 1 Z"
         id="path86" />
    </clipPath>
    <clipPath
       id="clipPath108">
      <path
         inkscape:connector-curvature="0"
         d="m 2,7.44 h 4 v 4 H 2 Z"
         id="path110" />
    </clipPath>
    <mask
       id="mask112">
      <g
         id="g114">
        <g
           clip-path="url(#clipPath108)"
           id="g116">
          <path
             inkscape:connector-curvature="0"
             d="m 2,7.44 h 4 v 4 H 2 Z"
             style="fill:#000000;fill-opacity:0.19920002"
             id="path118" />
        </g>
      </g>
    </mask>
    <clipPath
       id="clipPath124">
      <path
         inkscape:connector-curvature="0"
         d="m 2,7.44 h 4 v 4 H 2 Z"
         id="path126" />
    </clipPath>
    <clipPath
       id="clipPath128">
      <path
         inkscape:connector-curvature="0"
         d="m 2,8 h 4 v 4 H 2 Z"
         id="path130" />
    </clipPath>
    <clipPath
       id="clipPath152">
      <path
         inkscape:connector-curvature="0"
         d="m 6,6.44 h 7 v 5 H 6 Z"
         id="path154" />
    </clipPath>
    <mask
       id="mask156">
      <g
         id="g158">
        <g
           clip-path="url(#clipPath152)"
           id="g160">
          <path
             inkscape:connector-curvature="0"
             d="m 6,6.44 h 7 v 5 H 6 Z"
             style="fill:#000000;fill-opacity:0.19920002"
             id="path162" />
        </g>
      </g>
    </mask>
    <clipPath
       id="clipPath168">
      <path
         inkscape:connector-curvature="0"
         d="m 6,6.44 h 7 v 5 H 6 Z"
         id="path170" />
    </clipPath>
    <clipPath
       id="clipPath172">
      <path
         inkscape:connector-curvature="0"
         d="m 6,7 h 7 v 5 H 6 Z"
         id="path174" />
    </clipPath>
    <filter
       inkscape:collect="always"
       id="filter4177"
       x="-0.03266782"
       y="-0.088942671"
       width="1.0653356"
       height="1.1778853">
      <feGaussianBlur
         inkscape:collect="always"
         stdDeviation="7.0025741"
         id="feGaussianBlur4179" />
    </filter>
    <linearGradient
       inkscape:collect="always"
       x1="266.79999"
       y1="247.92999"
       x2="486.67999"
       gradientUnits="userSpaceOnUse"
       y2="564.70001"
       id="linearGradient4201">
      <stop
         offset="0"
         style="stop-color:#000000;stop-opacity:.46392"
         id="stop4077" />
      <stop
         offset=".092498"
         style="stop-color:#000000;stop-opacity:.46275"
         id="stop4175" />
      <stop
         offset=".32374"
         style="stop-color:#000000"
         id="stop4083" />
      <stop
         offset="1"
         style="stop-color:#000000;stop-opacity:.95876"
         id="stop4079" />
    </linearGradient>
    <linearGradient
       inkscape:collect="always"
       x1="380.64999"
       y1="537.81"
       gradientTransform="matrix(1,0,0,1.0992,-1.3421,-31.504)"
       x2="465"
       gradientUnits="userSpaceOnUse"
       y2="667.19"
       id="linearGradient4359">
      <stop
         offset="0"
         style="stop-color:#2b1b00"
         id="stop3429" />
      <stop
         offset=".089286"
         style="stop-color:#9e7a3e"
         id="stop3435" />
      <stop
         offset=".19906"
         style="stop-color:#654d25"
         id="stop3437" />
      <stop
         offset=".34208"
         style="stop-color:#9e7d47"
         id="stop3439" />
      <stop
         offset="1"
         style="stop-color:#2b1b00"
         id="stop3431" />
    </linearGradient>
    <linearGradient
       inkscape:collect="always"
       x1="361.97"
       y1="572.07001"
       x2="515.59003"
       gradientUnits="userSpaceOnUse"
       y2="579.22998"
       id="linearGradient4361">
      <stop
         offset="0"
         style="stop-color:#000000"
         id="stop3450" />
      <stop
         offset=".16030"
         style="stop-color:#6b4a0f"
         id="stop3458" />
      <stop
         offset=".32559"
         style="stop-color:#56411f"
         id="stop3460" />
      <stop
         offset=".57849"
         style="stop-color:#7d540f"
         id="stop3456" />
      <stop
         offset="1"
         style="stop-color:#1e1200"
         id="stop3452" />
    </linearGradient>
    <linearGradient
       inkscape:collect="always"
       x1="445.56"
       y1="530.5"
       gradientTransform="translate(-59.051,-214.73)"
       x2="665.81"
       gradientUnits="userSpaceOnUse"
       y2="559.13"
       id="linearGradient4363">
      <stop
         offset="0"
         style="stop-color:#422900"
         id="stop3276" />
      <stop
         offset=".061384"
         style="stop-color:#7d581b"
         id="stop3282" />
      <stop
         offset=".12841"
         style="stop-color:#422900"
         id="stop3286" />
      <stop
         offset=".25491"
         style="stop-color:#ad8544"
         id="stop3288" />
      <stop
         offset=".33082"
         style="stop-color:#422900"
         id="stop3290" />
      <stop
         offset=".43974"
         style="stop-color:#ad8544"
         id="stop3292" />
      <stop
         offset=".48490"
         style="stop-color:#422900"
         id="stop3294" />
      <stop
         offset=".60102"
         style="stop-color:#ad8544"
         id="stop3296" />
      <stop
         offset=".67616"
         style="stop-color:#422900"
         id="stop3298" />
      <stop
         offset=".77101"
         style="stop-color:#ad8544"
         id="stop3300" />
      <stop
         offset=".84215"
         style="stop-color:#422900"
         id="stop3302" />
      <stop
         offset=".93799"
         style="stop-color:#ad8544"
         id="stop3284" />
      <stop
         offset="1"
         style="stop-color:#422900"
         id="stop3278" />
    </linearGradient>
    <linearGradient
       inkscape:collect="always"
       x1="446.87"
       y1="522.75"
       gradientTransform="matrix(1.0422,0,0,1.0992,-84.115,-246.19)"
       x2="647.95001"
       gradientUnits="userSpaceOnUse"
       y2="522.75"
       id="linearGradient4365">
      <stop
         offset="0"
         style="stop-color:#3b2706"
         id="stop3388" />
      <stop
         offset=".64286"
         style="stop-color:#c4964c"
         id="stop3394" />
      <stop
         offset="1"
         style="stop-color:#301d00"
         id="stop3390" />
    </linearGradient>
    <linearGradient
       inkscape:collect="always"
       x1="222.27"
       y1="355.22"
       gradientTransform="matrix(0.92048,0,0,1.0118,-9.0375,-190.36)"
       x2="413.06"
       gradientUnits="userSpaceOnUse"
       y2="509.10999"
       id="linearGradient4367">
      <stop
         offset="0"
         style="stop-color:#301d00"
         id="stop3398" />
      <stop
         offset=".66071"
         style="stop-color:#c29f66"
         id="stop3404" />
      <stop
         offset="1"
         style="stop-color:#4f350d"
         id="stop3400" />
    </linearGradient>
    <linearGradient
       inkscape:collect="always"
       x1="179.78"
       y1="437.75"
       gradientTransform="matrix(0.92048,0,0,0.92048,-9.0375,-158.69)"
       x2="314.42001"
       gradientUnits="userSpaceOnUse"
       y2="343.79999"
       id="linearGradient4369">
      <stop
         offset="0"
         style="stop-color:#422900"
         id="stop3250" />
      <stop
         offset=".15671"
         style="stop-color:#f4c87f"
         id="stop3256" />
      <stop
         offset=".27423"
         style="stop-color:#422900"
         id="stop3258" />
      <stop
         offset=".38616"
         style="stop-color:#d9b16e"
         id="stop3260" />
      <stop
         offset=".50638"
         style="stop-color:#422900"
         id="stop3262" />
      <stop
         offset=".67950"
         style="stop-color:#d9b16e"
         id="stop3266" />
      <stop
         offset=".76570"
         style="stop-color:#422900"
         id="stop3268" />
      <stop
         offset=".88937"
         style="stop-color:#d9b16e"
         id="stop3270" />
      <stop
         offset="1"
         style="stop-color:#422900"
         id="stop3272" />
    </linearGradient>
    <linearGradient
       inkscape:collect="always"
       x1="325.73001"
       y1="386.01999"
       gradientTransform="matrix(0.92048,0,0,0.92048,-9.0375,-158.69)"
       x2="462.81"
       gradientUnits="userSpaceOnUse"
       y2="515.70001"
       id="linearGradient4371">
      <stop
         offset="0"
         style="stop-color:#2f1e04"
         id="stop3550" />
      <stop
         offset=".046659"
         style="stop-color:#cda563"
         id="stop3556" />
      <stop
         offset=".21774"
         style="stop-color:#251908"
         id="stop3558" />
      <stop
         offset=".29570"
         style="stop-color:#eac079"
         id="stop3560" />
      <stop
         offset=".37943"
         style="stop-color:#100b05"
         id="stop3562" />
      <stop
         offset=".47057"
         style="stop-color:#ebbd71"
         id="stop3564" />
      <stop
         offset=".56677"
         style="stop-color:#2f1e04"
         id="stop3566" />
      <stop
         offset=".67657"
         style="stop-color:#d9b16e"
         id="stop3568" />
      <stop
         offset=".79598"
         style="stop-color:#3d2d13"
         id="stop3570" />
      <stop
         offset=".90714"
         style="stop-color:#d9b16e"
         id="stop3244" />
      <stop
         offset="1"
         style="stop-color:#3d2d13"
         id="stop3246" />
    </linearGradient>
    <linearGradient
       inkscape:collect="always"
       x1="378.56"
       y1="516.87"
       gradientTransform="matrix(0.92048,0,0,1.0118,-9.0375,-190.36)"
       x2="384.10001"
       gradientUnits="userSpaceOnUse"
       y2="531.44"
       id="linearGradient4373">
      <stop
         offset="0"
         style="stop-color:#2b1b00"
         id="stop3419" />
      <stop
         offset=".5"
         style="stop-color:#dcb576"
         id="stop3425" />
      <stop
         offset="1"
         style="stop-color:#2b1b00"
         id="stop3421" />
    </linearGradient>
    <linearGradient
       inkscape:collect="always"
       x1="181.16"
       y1="454.51001"
       gradientTransform="matrix(0.92048,0,0,1.0118,-9.0375,-190.36)"
       x2="319.07999"
       gradientUnits="userSpaceOnUse"
       y2="557.08002"
       id="linearGradient4375">
      <stop
         offset="0"
         style="stop-color:#301d00"
         id="stop3370" />
      <stop
         offset=".33929"
         style="stop-color:#ac884d"
         id="stop3376" />
      <stop
         offset="1"
         style="stop-color:#2b1c04"
         id="stop3372" />
    </linearGradient>
    <linearGradient
       inkscape:collect="always"
       x1="176.62"
       y1="428.35001"
       gradientTransform="matrix(0.92048,0,0,0.92048,-9.0375,-158.69)"
       x2="299.39001"
       gradientUnits="userSpaceOnUse"
       y2="593.52002"
       id="linearGradient4377">
      <stop
         offset="0"
         style="stop-color:#573b0e"
         id="stop3464" />
      <stop
         offset=".026466"
         style="stop-color:#ecc27e"
         id="stop3470" />
      <stop
         offset=".18527"
         style="stop-color:#6b470c"
         id="stop3472" />
      <stop
         offset=".25758"
         style="stop-color:#d9b16e"
         id="stop3474" />
      <stop
         offset=".38624"
         style="stop-color:#6b470c"
         id="stop3476" />
      <stop
         offset=".45302"
         style="stop-color:#d9b16e"
         id="stop3478" />
      <stop
         offset=".60620"
         style="stop-color:#6b470c"
         id="stop3480" />
      <stop
         offset=".66707"
         style="stop-color:#d9b16e"
         id="stop3482" />
      <stop
         offset=".84970"
         style="stop-color:#6b470c"
         id="stop3484" />
      <stop
         offset=".96205"
         style="stop-color:#ecbe74"
         id="stop3486" />
      <stop
         offset="1"
         style="stop-color:#563b0b"
         id="stop3466" />
    </linearGradient>
    <linearGradient
       inkscape:collect="always"
       x1="305.47"
       y1="588.06"
       gradientTransform="translate(-59.051,-214.73)"
       x2="665.63"
       gradientUnits="userSpaceOnUse"
       y2="588.06"
       id="linearGradient4379">
      <stop
         offset="0"
         style="stop-color:#44300f"
         id="stop3490" />
      <stop
         offset=".062160"
         style="stop-color:#d9b16e"
         id="stop3496" />
      <stop
         offset=".084901"
         style="stop-color:#543605"
         id="stop3498" />
      <stop
         offset=".15855"
         style="stop-color:#d9b16e"
         id="stop3500" />
      <stop
         offset=".20621"
         style="stop-color:#311e00"
         id="stop3502" />
      <stop
         offset=".27344"
         style="stop-color:#e9ba6c"
         id="stop3504" />
      <stop
         offset=".31836"
         style="stop-color:#311e00"
         id="stop3506" />
      <stop
         offset=".39476"
         style="stop-color:#d9b16e"
         id="stop3508" />
      <stop
         offset=".44796"
         style="stop-color:#311e00"
         id="stop3510" />
      <stop
         offset=".53663"
         style="stop-color:#e3bd7c"
         id="stop3512" />
      <stop
         offset=".57210"
         style="stop-color:#311e00"
         id="stop3514" />
      <stop
         offset=".62652"
         style="stop-color:#f4d39d"
         id="stop3516" />
      <stop
         offset=".69970"
         style="stop-color:#311e00"
         id="stop3518" />
      <stop
         offset=".75872"
         style="stop-color:#f0cc8e"
         id="stop3520" />
      <stop
         offset=".83730"
         style="stop-color:#311e00"
         id="stop3522" />
      <stop
         offset=".88445"
         style="stop-color:#d9b16e"
         id="stop3524" />
      <stop
         offset=".95041"
         style="stop-color:#311e00"
         id="stop3526" />
      <stop
         offset=".98140"
         style="stop-color:#d9b16e"
         id="stop3528" />
      <stop
         offset="1"
         style="stop-color:#311e00"
         id="stop3530" />
    </linearGradient>
    <linearGradient
       inkscape:collect="always"
       x1="322.12"
       y1="594.92999"
       gradientTransform="matrix(1,0,0,1.0992,-59.051,-249.14)"
       x2="653.25"
       gradientUnits="userSpaceOnUse"
       y2="584.92999"
       id="linearGradient4381">
      <stop
         offset="0"
         style="stop-color:#53380d"
         id="stop3360" />
      <stop
         offset=".53571"
         style="stop-color:#d9a44f"
         id="stop3366" />
      <stop
         offset="1"
         style="stop-color:#301d00"
         id="stop3362" />
    </linearGradient>
    <radialGradient
       inkscape:collect="always"
       r="6.9001999"
       gradientTransform="matrix(1.0614,0,0,1.4824,-53.999,-449.06)"
       cx="313.60999"
       cy="550.5"
       gradientUnits="userSpaceOnUse"
       fy="550.66998"
       fx="311.48999"
       id="radialGradient4383">
      <stop
         offset="0"
         style="stop-color:#ffdda6"
         id="stop3408" />
      <stop
         offset="1"
         style="stop-color:#543404"
         id="stop3410" />
    </radialGradient>
  </defs>
  <sodipodi:namedview
     id="base"
     pagecolor="#ffffff"
     bordercolor="#666666"
     borderopacity="1.0"
     inkscape:pageopacity="0.0"
     inkscape:pageshadow="2"
     inkscape:zoom="2.6493056"
     inkscape:cx="240.06291"
     inkscape:cy="144.18873"
     inkscape:document-units="px"
     inkscape:current-layer="layer1"
     showgrid="false"
     units="px"
     inkscape:window-width="1920"
     inkscape:window-height="1003"
     inkscape:window-x="0"
     inkscape:window-y="25"
     inkscape:window-maximized="1"
     borderlayer="true"
     showguides="true"
     inkscape:pagecheckerboard="0" />
  <metadata
     id="metadata7">
    <rdf:RDF>
      <cc:Work
         rdf:about="">
        <dc:format>image/svg+xml</dc:format>
        <dc:type
           rdf:resource="http://purl.org/dc/dcmitype/StillImage" />
      </cc:Work>
    </rdf:RDF>
  </metadata>
  <g
     inkscape:label="Layer 1"
     inkscape:groupmode="layer"
     id="layer1"
     transform="translate(0,-782.36218)">
    <rect
       style="opacity:1;fill:#ffffff;fill-opacity:1;fill-rule:nonzero;stroke:#000000;stroke-width:4.04577875;stroke-linecap:round;stroke-linejoin:round;stroke-miterlimit:4;stroke-dasharray:none;stroke-dashoffset:0;stroke-opacity:1"
       id="rect3749"
       width="445.95422"
       height="265.95422"
       x="2.0228882"
       y="784.38507" />
    <g
       id="layer1-9"
       inkscape:label="Layer 1"
       transform="translate(-35.756307,507.10901)">
      <g
         id="Layer_1"
         transform="translate(-244.49951,955.86218)" />
    </g>
    <g
       transform="matrix(29.339416,0,0,-29.339416,-26.96828,1156.4112)"
       id="g10"
       style="fill:#ffffff;stroke:#000000;stroke-width:0.26423991;stroke-miterlimit:4;stroke-dasharray:none">
      <g
         id="g12"
         style="fill:#ffffff;stroke:#000000;stroke-width:0.26423991;stroke-miterlimit:4;stroke-dasharray:none">
        <path
           inkscape:connector-curvature="0"
           d="M 15.223,10.561 C 15.672,9.745 15.742,8.846 15.43,7.854 14.664,5.428 12.609,4.151 9.262,4.03 5.809,3.909 3.461,4.846 2.211,6.842 1.742,7.604 1.527,8.385 1.559,9.182 1.594,9.928 1.828,10.467 2.262,10.795 2.887,11.249 3.512,11.44 4.137,11.37 4.828,11.315 5.473,10.944 6.062,10.249 6.406,9.87 6.91,9.643 7.57,9.573 c 0.676,-0.051 1.2,0.097 1.563,0.441 0.277,0.246 0.762,0.758 1.457,1.535 0.711,0.61 1.449,0.836 2.211,0.68 1.129,-0.246 1.933,-0.801 2.422,-1.668 z"
           style="fill:#ffffff;fill-rule:evenodd;stroke:#000000;stroke-width:0.26423991;stroke-miterlimit:4;stroke-dasharray:none"
           id="path14" />
        <g
           id="g16"
           style="fill:#ffffff;stroke:#000000;stroke-width:0.26423991;stroke-miterlimit:4;stroke-dasharray:none">
          <g
             mask="url(#mask24)"
             id="g32"
             style="fill:#ffffff;stroke:#000000;stroke-width:0.26423991;stroke-miterlimit:4;stroke-dasharray:none">
            <g
               id="g44"
               style="fill:#ffffff;stroke:#000000;stroke-width:0.26423991;stroke-miterlimit:4;stroke-dasharray:none">
              <g
                 clip-path="url(#clipPath36)"
                 id="g46"
                 style="fill:#ffffff;stroke:#000000;stroke-width:0.26423991;stroke-miterlimit:4;stroke-dasharray:none">
                <g
                   transform="translate(0,-0.56)"
                   id="g48"
                   style="fill:#ffffff;stroke:#000000;stroke-width:0.26423991;stroke-miterlimit:4;stroke-dasharray:none">
                  <g
                     id="g52"
                     style="fill:#ffffff;stroke:#000000;stroke-width:0.26423991;stroke-miterlimit:4;stroke-dasharray:none">
                    <g
                       clip-path="url(#clipPath40)"
                       id="g54"
                       style="fill:#ffffff;stroke:#000000;stroke-width:0.26423991;stroke-miterlimit:4;stroke-dasharray:none">
                      <g
                         id="g56"
                         style="fill:#ffffff;stroke:#000000;stroke-width:0.26423991;stroke-miterlimit:4;stroke-dasharray:none">
                        <path
                           inkscape:connector-curvature="0"
                           d="M 12.801,12.789 C 13.93,12.543 14.734,11.988 15.219,11.121 15.672,10.309 15.742,9.406 15.43,8.418 14.664,5.988 12.609,4.711 9.262,4.59 5.898,4.469 3.574,5.371 2.289,7.297 1.805,8.027 1.559,8.789 1.559,9.586 1.543,10.332 1.734,10.887 2.133,11.254 1.855,10.801 1.805,10.23 1.977,9.535 2.168,8.789 2.574,8.121 3.199,7.531 4.152,6.613 5.645,6.137 7.676,6.102 c 1.992,-0.036 3.527,0.355 4.605,1.171 1.11,0.832 1.492,1.957 1.145,3.379 -0.364,1.426 -1.235,1.926 -2.602,1.512 l -0.211,-0.078 c 0.715,0.625 1.442,0.859 2.188,0.703 z"
                           style="fill:#ffffff;fill-rule:evenodd;stroke:#000000;stroke-width:0.26423991;stroke-miterlimit:4;stroke-dasharray:none"
                           id="path58" />
                      </g>
                    </g>
                  </g>
                </g>
              </g>
            </g>
          </g>
        </g>
        <g
           id="g60"
           style="fill:#ffffff;stroke:#000000;stroke-width:0.26423991;stroke-miterlimit:4;stroke-dasharray:none">
          <g
             mask="url(#mask68)"
             id="g76"
             style="fill:#ffffff;stroke:#000000;stroke-width:0.26423991;stroke-miterlimit:4;stroke-dasharray:none">
            <g
               id="g88"
               style="fill:#ffffff;stroke:#000000;stroke-width:0.26423991;stroke-miterlimit:4;stroke-dasharray:none">
              <g
                 clip-path="url(#clipPath80)"
                 id="g90"
                 style="fill:#ffffff;stroke:#000000;stroke-width:0.26423991;stroke-miterlimit:4;stroke-dasharray:none">
                <g
                   transform="translate(0,-0.56)"
                   id="g92"
                   style="fill:#ffffff;stroke:#000000;stroke-width:0.26423991;stroke-miterlimit:4;stroke-dasharray:none">
                  <g
                     id="g96"
                     style="fill:#ffffff;stroke:#000000;stroke-width:0.26423991;stroke-miterlimit:4;stroke-dasharray:none">
                    <g
                       clip-path="url(#clipPath84)"
                       id="g98"
                       style="fill:#ffffff;stroke:#000000;stroke-width:0.26423991;stroke-miterlimit:4;stroke-dasharray:none">
                      <g
                         id="g100"
                         style="fill:#ffffff;stroke:#000000;stroke-width:0.26423991;stroke-miterlimit:4;stroke-dasharray:none">
                        <path
                           inkscape:connector-curvature="0"
                           d="m 12.773,12.789 c 1.129,-0.246 1.934,-0.801 2.422,-1.668 0.45,-0.812 0.52,-1.715 0.207,-2.703 C 14.641,5.988 12.582,4.711 9.234,4.59 6.824,4.504 4.918,4.973 3.512,5.996 2.367,6.828 1.715,7.871 1.559,9.117 1.855,8.34 2.445,7.582 3.328,6.855 4.438,5.938 5.652,5.414 6.973,5.293 c 2.132,-0.207 3.902,0.012 5.308,0.652 1.336,0.606 2.168,1.481 2.496,2.629 0.606,2.172 -0.164,3.59 -2.3,4.254 z"
                           style="fill:#ffffff;fill-rule:evenodd;stroke:#000000;stroke-width:0.26423991;stroke-miterlimit:4;stroke-dasharray:none"
                           id="path102" />
                      </g>
                    </g>
                  </g>
                </g>
              </g>
            </g>
          </g>
        </g>
        <g
           id="g104"
           style="fill:#ffffff;stroke:#000000;stroke-width:0.26423991;stroke-miterlimit:4;stroke-dasharray:none">
          <g
             mask="url(#mask112)"
             id="g120"
             style="fill:#ffffff;stroke:#000000;stroke-width:0.26423991;stroke-miterlimit:4;stroke-dasharray:none">
            <g
               id="g132"
               style="fill:#ffffff;stroke:#000000;stroke-width:0.26423991;stroke-miterlimit:4;stroke-dasharray:none">
              <g
                 clip-path="url(#clipPath124)"
                 id="g134"
                 style="fill:#ffffff;stroke:#000000;stroke-width:0.26423991;stroke-miterlimit:4;stroke-dasharray:none">
                <g
                   transform="translate(0,-0.56)"
                   id="g136"
                   style="fill:#ffffff;stroke:#000000;stroke-width:0.26423991;stroke-miterlimit:4;stroke-dasharray:none">
                  <g
                     id="g140"
                     style="fill:#ffffff;stroke:#000000;stroke-width:0.26423991;stroke-miterlimit:4;stroke-dasharray:none">
                    <g
                       clip-path="url(#clipPath128)"
                       id="g142"
                       style="fill:#ffffff;stroke:#000000;stroke-width:0.26423991;stroke-miterlimit:4;stroke-dasharray:none">
                      <g
                         id="g144"
                         style="fill:#ffffff;stroke:#000000;stroke-width:0.26423991;stroke-miterlimit:4;stroke-dasharray:none">
                        <path
                           inkscape:connector-curvature="0"
                           d="M 3.934,10.328 C 3.984,10.086 4.238,9.887 4.688,9.73 5.191,9.539 5.512,9.348 5.652,9.156 5.875,8.828 5.703,8.594 5.129,8.453 4.523,8.297 3.926,8.367 3.336,8.664 2.781,8.922 2.449,9.305 2.348,9.809 c -0.09,0.433 0.007,0.812 0.285,1.144 0.207,0.223 0.457,0.27 0.754,0.129 0.297,-0.156 0.476,-0.406 0.547,-0.754 z"
                           style="fill:#ffffff;fill-rule:evenodd;stroke:#000000;stroke-width:0.26423991;stroke-miterlimit:4;stroke-dasharray:none"
                           id="path146" />
                      </g>
                    </g>
                  </g>
                </g>
              </g>
            </g>
          </g>
        </g>
        <g
           id="g148"
           style="fill:#ffffff;stroke:#000000;stroke-width:0.26423991;stroke-miterlimit:4;stroke-dasharray:none">
          <g
             mask="url(#mask156)"
             id="g164"
             style="fill:#ffffff;stroke:#000000;stroke-width:0.26423991;stroke-miterlimit:4;stroke-dasharray:none">
            <g
               id="g176"
               style="fill:#ffffff;stroke:#000000;stroke-width:0.26423991;stroke-miterlimit:4;stroke-dasharray:none">
              <g
                 clip-path="url(#clipPath168)"
                 id="g178"
                 style="fill:#ffffff;stroke:#000000;stroke-width:0.26423991;stroke-miterlimit:4;stroke-dasharray:none">
                <g
                   transform="translate(0,-0.56)"
                   id="g180"
                   style="fill:#ffffff;stroke:#000000;stroke-width:0.26423991;stroke-miterlimit:4;stroke-dasharray:none">
                  <g
                     id="g184"
                     style="fill:#ffffff;stroke:#000000;stroke-width:0.26423991;stroke-miterlimit:4;stroke-dasharray:none">
                    <g
                       clip-path="url(#clipPath172)"
                       id="g186"
                       style="fill:#ffffff;stroke:#000000;stroke-width:0.26423991;stroke-miterlimit:4;stroke-dasharray:none">
                      <g
                         id="g188"
                         style="fill:#ffffff;stroke:#000000;stroke-width:0.26423991;stroke-miterlimit:4;stroke-dasharray:none">
                        <path
                           inkscape:connector-curvature="0"
                           d="M 7.508,7.82 C 7.074,8.062 6.891,8.348 6.961,8.68 c 0.051,0.207 0.301,0.343 0.754,0.414 0.262,0.035 0.762,0.113 1.508,0.234 0.504,0.106 0.886,0.34 1.144,0.703 0.141,0.207 0.289,0.504 0.445,0.883 0.137,0.227 0.336,0.348 0.598,0.367 0.328,0.035 0.598,-0.148 0.805,-0.547 C 12.547,10.125 12.562,9.547 12.27,8.992 11.887,8.277 11.02,7.812 9.664,7.586 8.766,7.43 8.043,7.508 7.508,7.82 Z"
                           style="fill:#ffffff;fill-rule:evenodd;stroke:#000000;stroke-width:0.26423991;stroke-miterlimit:4;stroke-dasharray:none"
                           id="path190" />
                      </g>
                    </g>
                  </g>
                </g>
              </g>
            </g>
          </g>
        </g>
        <path
           inkscape:connector-curvature="0"
           d="M 10.953,10.198 C 11.336,10.284 11.492,10.12 11.422,9.706 11.336,9.272 10.953,8.889 10.277,8.561 9.773,8.335 9.297,8.237 8.844,8.272 8.258,8.307 8.238,8.362 8.793,8.428 c 0.746,0.086 1.25,0.383 1.512,0.887 0.277,0.555 0.492,0.848 0.648,0.883 z"
           style="fill:#ffffff;fill-rule:evenodd;stroke:#000000;stroke-width:0.26423991;stroke-miterlimit:4;stroke-dasharray:none"
           id="path192" />
        <path
           inkscape:connector-curvature="0"
           d="M 3.484,10.069 C 3.57,9.737 3.66,9.503 3.746,9.366 3.867,9.21 3.812,9.182 3.59,9.288 3.383,9.393 3.234,9.538 3.148,9.729 c -0.07,0.176 -0.043,0.305 0.079,0.391 0.121,0.086 0.207,0.07 0.257,-0.051 z"
           style="fill:#ffffff;fill-rule:evenodd;stroke:#000000;stroke-width:0.26423991;stroke-miterlimit:4;stroke-dasharray:none"
           id="path194" />
        <path
           inkscape:connector-curvature="0"
           d="M 4.238,9.053 C 4.57,8.862 4.707,8.741 4.656,8.69 4.605,8.62 4.492,8.628 4.32,8.713 4.195,8.768 4.117,8.854 4.086,8.975 4.066,9.096 4.117,9.124 4.238,9.053 Z"
           style="fill:#ffffff;fill-rule:evenodd;stroke:#000000;stroke-width:0.26423991;stroke-miterlimit:4;stroke-dasharray:none"
           id="path196" />
        <path
           inkscape:connector-curvature="0"
           d="M 7.855,8.323 C 8.031,8.288 8.125,8.237 8.145,8.17 8.145,8.1 8.059,8.053 7.883,8.038 7.711,8.003 7.625,8.053 7.625,8.194 7.621,8.315 7.699,8.358 7.855,8.323 Z"
           style="fill:#ffffff;fill-rule:evenodd;stroke:#000000;stroke-width:0.26423991;stroke-miterlimit:4;stroke-dasharray:none"
           id="path198" />
      </g>
    </g>
    <g
       transform="translate(539.47723,1007.2261)"
       inkscape:label="back"
       id="layer2">
      <g
         id="g4385">
        <path
           transform="matrix(0.88381,0.028024,-0.028652,0.89517,76.155,25.268)"
           style="fill:url(#linearGradient4201);filter:url(#filter4177)"
           sodipodi:nodetypes="ccsscscccscsccsssssccs"
           d="m 127.14,308.6 c -78.48,52.04 37.21,106.7 100.33,119.58 59.14,28.24 103.24,38.89 208.04,36.39 72.34,-1.71 181.47,-23.46 179.7,-72.88 -3.45,-96.46 -225.04,-74.88 -247,-70.04 C 238.19,266.02 199.46,260.63 127.14,308.6 Z m 31.42,6.44 c 69.33,-37.31 96.35,-2.01 178.33,20.42 -20.2,17.23 -77.35,54.63 -105.69,65.85 -40.42,-15.39 -141.81,-49.04 -72.64,-86.27 z m 421.93,72.37 C 586,406.59 550.4,412.73 514.88,421.24 466.54,432.82 239.3,436.3 282.45,398.96 l 29.77,-16.69 c 12.5,9.95 17.38,13.75 36.3,14.66 48.61,2.39 40.7,0.99 77.55,5.44 14.07,1.7 24.8,0.8 25.21,-14.39 0.37,-13.87 -18.04,-14.58 -28.81,-15.37 -33.18,-2.43 -22.96,-0.51 -49.79,-1.94 -16.45,-0.88 -28.56,6.47 -37.94,-5.35 l 22.11,-13.11 c 38.78,-1.33 207.42,-21.32 223.64,35.2 z"
           id="path3918"
           inkscape:connector-curvature="0" />
        <g
           transform="translate(1.7894,-0.8947)"
           id="g4315">
          <g
             transform="matrix(0.91982,-0.034837,0.034837,0.91982,-35.501,-144.87)"
             id="g3536">
            <path
               d="m 388.62,547.45 -23.35,8.75 c 4.82,9.69 29.34,22.76 44.42,22.1 35.01,-1.52 47.31,1.92 82.61,5.11 12.33,0.81 28.41,0.61 25.94,-13.13 -2.58,-11.06 -16.28,-12.07 -26.15,-12.45 -32.83,-0.93 -43.78,-1.81 -71.62,2.72 -13.03,2.12 -31.88,-4.74 -31.85,-13.1 z"
               style="fill:url(#linearGradient4359)"
               sodipodi:nodetypes="ccscccsc"
               id="path3234"
               inkscape:connector-curvature="0" />
            <path
               style="fill:url(#linearGradient4361)"
               sodipodi:nodetypes="ccsccccsc"
               d="m 364.88,560.4 0.39,-4.2 c 4.82,9.69 29.34,22.76 44.42,22.1 35.01,-1.52 47.31,1.92 82.61,5.11 12.33,0.81 27.47,0.17 26.05,-12.08 l 0.15,3.74 c -1.33,14.01 -14.28,13.33 -26.61,12.51 -35.3,-3.19 -47.6,-6.63 -82.61,-5.1 -15.07,0.65 -39.58,-12.4 -44.4,-22.08 z"
               id="path3324"
               inkscape:connector-curvature="0" />
          </g>
          <g
             transform="matrix(0.92048,0,0,0.92048,45.317,38.964)"
             id="g3458">
            <path
               style="fill:url(#linearGradient4363)"
               sodipodi:nodetypes="ccsccscscscscccccccccsccscccccccccscccsccccccc"
               d="m 597.12,349.51 c -1.43,-7.83 -1.66,-28.16 -3.56,-36.17 -1.65,-2.65 -1.83,-4.66 -5.96,-0.86 -2.87,2.64 -7.46,7.28 -14.19,13.66 -3.08,1.22 -3.97,2.2 -7.14,-5.37 -3.13,-8.36 -5.99,-15.47 -7.97,-24 -0.79,-3.39 -4.96,-4.36 -6.33,-2.17 -6.63,9.24 -8.86,15.71 -15.31,24.05 -0.95,1.23 -3.79,2.3 -5.87,-1.06 -4.98,-9.13 -6.56,-16.68 -10.44,-26.56 -1.73,-4.42 -5.37,-8.54 -8.91,-5.72 -4.23,10.59 -11.06,21.75 -16.36,28.96 -1.65,2.24 -3.04,3.32 -4.91,0.39 L 478.58,285.8 c -1.01,-2.13 -4.26,-2.35 -6.39,-0.14 l -15.16,29.33 c -1.6,1.36 -3.33,1.32 -5.23,-0.58 -6.16,-9.13 -10.4,-17.09 -16.02,-24.77 -1.18,-2.63 -4.74,-4.02 -6.26,-1.39 -3.26,8.88 -12.53,23.63 -15.76,27.51 -2.44,2.93 -5.04,3.31 -6.17,0.19 l -11.19,-22.6 c -1.48,-2.97 -4.43,-4.27 -9.89,-3.53 l 3.82,-2.08 c 5.46,-0.74 8.45,0.54 9.89,3.54 l 10.77,22.51 c 0.72,1.28 1.5,2.39 2.35,2.55 6.45,-8.19 12.63,-20.19 16.99,-29.52 1.94,-1.91 6.44,-2.58 9.27,0.74 5.62,7.68 9.86,15.64 16.02,24.78 0.75,0.74 1.39,1.12 2.09,1.32 l 14.76,-28.52 c 1.65,-3.35 8.37,-4.27 9.93,-1.41 l 11.59,28.85 c 1.87,2.93 3.26,1.86 4.91,-0.38 5.3,-7.22 8.58,-17.04 12.8,-27.63 3.42,-3.44 10.76,-1.83 11.91,2.6 3.88,9.87 6.02,19.21 11,28.34 2.08,3.37 4.92,2.29 5.87,1.06 6.45,-8.34 6.16,-14.74 12.79,-23.98 1.28,-2.2 7.59,-2.52 9.19,2.96 1.99,8.53 4.49,14.78 7.63,23.14 3.17,7.57 4.06,6.6 7.14,5.38 6.73,-6.38 10.64,-11.49 13.63,-13.97 3.01,-2.42 5.42,-1.36 6.52,1.16 1.9,8.01 2.13,28.34 3.56,36.18"
               id="path3322"
               inkscape:connector-curvature="0" />
            <path
               style="fill:url(#linearGradient4365)"
               sodipodi:nodetypes="ccccccsccscscscscccccccscssc"
               d="m 380.07,300.86 c -2.09,9.28 -2.81,16.32 -2.23,27.83 0.19,3.33 4.42,6.92 8.23,6.73 62.02,-4.07 186.06,-10.72 208.41,37.31 l 2.64,-23.22 c -1.43,-7.83 -1.66,-28.16 -3.56,-36.17 -1.65,-2.65 -1.83,-4.66 -5.96,-0.86 -2.87,2.64 -7.46,7.28 -14.19,13.66 -3.08,1.22 -3.97,2.2 -7.14,-5.37 -3.13,-8.36 -5.99,-15.47 -7.97,-24 -0.79,-3.39 -4.96,-4.36 -6.33,-2.17 -6.63,9.24 -8.86,15.71 -15.31,24.05 -0.95,1.23 -3.79,2.3 -5.87,-1.06 -4.98,-9.13 -6.56,-16.68 -10.44,-26.56 -1.73,-4.42 -5.37,-8.54 -8.91,-5.72 -4.23,10.59 -11.06,21.75 -16.36,28.96 -1.65,2.24 -3.04,3.32 -4.91,0.39 L 478.58,285.8 c -1.01,-2.13 -4.26,-2.35 -6.39,-0.14 l -15.16,29.33 c -1.6,1.36 -3.33,1.32 -5.23,-0.58 -6.16,-9.13 -10.4,-17.09 -16.02,-24.77 -1.18,-2.63 -4.74,-4.02 -6.26,-1.39 -3.26,8.88 -12.53,23.63 -15.76,27.51 -2.44,2.93 -5.04,3.31 -6.17,0.19 l -11.19,-22.6 c -1.48,-2.97 -4.43,-4.27 -9.89,-3.53 -4.6,0.62 -6.07,7.44 -6.44,11.04 z"
               id="path3299"
               inkscape:connector-curvature="0" />
          </g>
          <path
             d="m 171.59,267.33 c 9.16,-31.07 53.45,-56.44 105.19,-43.28 25.25,6.41 50.99,43.95 66.81,65.66 8,13.29 21.09,33.52 30.28,43.41 3.35,3.61 8.35,3.24 12.88,2.7 5.91,-0.71 12.25,-5.24 19.08,-7.55 9.34,-1.45 7.95,-20.55 0.3,-22.47 -1.82,0.05 -16.28,0.9 -19.21,-0.44 -1.99,-0.91 -2.5,-1.67 -1.72,-3.44 2.23,-5.07 7.2,-13.57 11.1,-22.48 1.46,-3.35 0.32,-4.53 -4.55,-4.63 l -27.39,0.8 c -3.15,-0.39 -2.64,-3.04 -1.72,-5.07 l 9.21,-25.34 c 0.51,-1.81 0.08,-3.36 -1.62,-2.76 l -27,7.17 c -2.6,0.08 -4.45,-2.92 -3.54,-5.18 l 13,-27.58 c 1.4,-2.69 -0.17,-4.24 -2.95,-3.09 l -25.02,10.07 c -2.57,1.21 -4.67,-1.34 -4.55,-3.64 l 2.02,-34.93 c 0.13,-3.06 -3.39,-3.42 -5.08,-2.15 l -23.64,19.01 c -1.75,1.57 -3.95,0.04 -4.25,-2.09 l -4.75,-31.73 c -0.13,-5.5 -3.53,-4.7 -4.35,-2.32 l -18.13,30.9 c -0.8,1.83 -2.81,3.36 -4.22,0.72 l -12.54,-31.29 c -1.75,-3.5 -4.02,-4.8 -5.87,-0.77 l -15.23,34.29 c -1.79,2.41 -3.13,1.94 -4.38,0.86 l -20.84,-26 c -1.43,-1.34 -3.45,-4.27 -4.45,1.65 l -6.44,37.37 c -0.33,2.89 -2.64,4.56 -4.28,2.4 L 170.7,198.82 c -2.48,-3.19 -5.53,-1.12 -6.37,3.63 l -2.73,57.25"
             style="fill:url(#linearGradient4367)"
             sodipodi:nodetypes="cscssccssscccccccccccccccccccccccccccccc"
             id="path3328"
             inkscape:connector-curvature="0" />
          <path
             style="fill:url(#linearGradient4369)"
             sodipodi:nodetypes="cccccccccccccccccccccccccccccc"
             d="m 284.17,166.23 c -0.96,-2.54 -3.39,-2.16 -4.05,-0.25 l -18.13,30.9 c -0.8,1.83 -2.81,3.36 -4.22,0.72 l -12.54,-31.29 c -1.75,-3.5 -4.02,-4.8 -5.87,-0.77 l -15.23,34.29 c -1.79,2.41 -3.13,1.94 -4.38,0.86 l -20.84,-26 c -1.43,-1.34 -3.45,-4.27 -4.45,1.65 l -6.44,37.37 c -0.33,2.89 -2.64,4.56 -4.28,2.4 L 170.7,198.82 c -2.48,-3.19 -5.53,-1.12 -6.37,3.63 l -2.06,47.7 -5.25,1.63 3.01,-48.41 c 0.86,-4.79 5.71,-9.23 9.57,-5.86 l 12.32,16.14 c 1.69,2.17 2.03,0.49 2.38,-2.42 l 6.65,-35.8 c 1.35,-4.23 4.13,-4.13 6.12,-2.95 l 20.73,25.72 c 1.29,1.09 1.95,1.48 3.79,-0.95 l 15.09,-33.73 c 1.91,-4.06 5.71,-3.56 7.51,-0.02 l 12.23,30.5 c 1.45,2.66 2.95,0.96 3.78,-0.89 l 18.07,-30.95 c 1.28,-2.15 5.44,-1.23 5.9,4.07 z"
             id="path3546"
             inkscape:connector-curvature="0" />
          <path
             style="fill:url(#linearGradient4371)"
             sodipodi:nodetypes="ccccccccccccccccsssccccsssccccccccccccccc"
             d="m 289.22,200.03 -0.69,-4.23 c 0.3,2.15 2.57,3.69 4.38,2.11 l 23.12,-17.9 c 1.75,-1.28 5.9,0.29 6.28,2.73 l -2.02,34.93 c -0.12,2.32 1.97,3.61 4.63,2.39 L 349.66,210 c 2.01,-1.16 5.86,1.94 3.8,5.27 l -12.65,27.01 c -0.94,2.28 0.25,5.1 3.3,4.38 l 27.16,-7.13 c 2.27,-0.61 4.03,1.99 3.2,4.29 l -9.5,25.52 c -0.96,2.05 -1.56,3.51 1.7,3.91 l 28.29,-0.81 c 4.15,-0.46 5.56,2.25 4.04,5.62 -4.02,8.97 -8.72,16.9 -11.02,22 -0.81,1.79 -0.01,2.76 2.2,2.9 3.62,0.24 15.71,0.03 19.13,0.37 7.89,1.93 11.27,19.51 2.34,22.73 l -5.82,2.21 c 7.49,-1.86 7.95,-20.55 0.3,-22.47 -1.82,0.05 -16.28,0.9 -19.21,-0.44 -1.99,-0.91 -2.5,-1.67 -1.72,-3.44 2.23,-5.07 7.2,-13.57 11.1,-22.48 1.46,-3.35 0.32,-4.53 -4.55,-4.63 l -27.39,0.8 c -3.15,-0.39 -2.64,-3.04 -1.72,-5.07 l 9.21,-25.34 c 0.51,-1.81 0.08,-3.36 -1.62,-2.76 l -27,7.17 c -2.6,0.08 -4.45,-2.92 -3.54,-5.18 l 13.15,-28.03 c 1.4,-2.7 -1.04,-3.58 -3.3,-2.54 l -24.82,9.97 c -2.57,1.21 -4.67,-1.34 -4.55,-3.64 l 2.02,-34.93 c 0.13,-3.06 -3.39,-3.42 -5.08,-2.15 l -23.64,19.01 c -1.75,1.57 -3.95,0.04 -4.25,-2.09 z"
             id="path3236"
             inkscape:connector-curvature="0" />
          <path
             d="m 284.37,373.63 -5.62,-17.95 113.82,-45.33 c 5.37,-1.73 10.33,1.47 11.35,4.66 0.88,2.75 0.06,6.99 -2.63,8.32 z"
             style="fill:url(#linearGradient4373)"
             sodipodi:nodetypes="cccscc"
             id="path3263"
             inkscape:connector-curvature="0" />
          <path
             style="fill:url(#linearGradient4375)"
             sodipodi:nodetypes="cccccscsccccccccccccccsc"
             d="m 156.4,252.49 c 0.54,13.17 1.74,36.85 2.78,39.37 13.14,28.26 47.95,68.33 82.83,97.89 7.48,5.12 11.24,16.99 24.28,3.72 l 20.68,-12.49 c 14.47,-11.19 8.93,-19.48 7.56,-26.17 -1.1,-5.36 -8.76,-7.8 -13.61,-7.09 -8.49,0.37 -16.18,8.71 -25.46,12.78 -1.83,0.81 -6.44,-1.91 -5.92,-6.08 l -4.15,-37.52 c -0.43,-3.12 -1.95,-5.16 -5.1,-2.92 l -14.95,11.75 c -3.31,1.26 -3.9,-1.73 -4.22,-4.51 l -3.77,-33.97 c -0.1,-2.49 -1.45,-5.13 -3.98,-3.25 l -19.13,14.77 c -2.97,1.23 -4.89,-1.87 -4.55,-5.24 l -1.5,-29.46 c 0.5,-4.61 -2.25,-5.04 -4.11,-4.01 l -11.69,9.58 c -2.12,2.18 -4.58,-0.11 -4.47,-2.84 l -4.69,-33.28 c 0.2,-3.04 -4.27,-10.32 -5.63,-1.6 -1.08,6.88 0.27,15.15 -1.2,20.57 z"
             id="path3318"
             inkscape:connector-curvature="0" />
          <path
             d="m 255.22,399.48 c 2.89,0.24 5.36,-1.44 11.29,-6.09 l 20.46,-16.26 c 14.47,-11.18 8.93,-15.63 7.56,-22.32 -1.1,-5.36 -8.76,-7.8 -13.61,-7.09 -8.49,0.37 -16.18,8.71 -25.46,12.78 -1.83,0.81 -6.44,-1.91 -5.92,-6.08 l -4.2,-37.36 c -0.43,-3.13 -2.26,-5.03 -5.41,-2.8 l -14.59,11.47 c -3.31,1.26 -3.9,-1.09 -4.22,-4.51 l -3.82,-33.97 c -0.17,-2.81 -1.68,-4.76 -4,-3.11 l -19.06,14.63 c -2.97,1.23 -4.89,-1.87 -4.55,-5.24 l -1.71,-29.05 c 0.51,-4.6 -2.24,-5.04 -4.11,-4.01 l -11.48,9.17 c -2.12,2.18 -4.58,-0.11 -4.47,-2.84 l -4.69,-33.28 c -0.33,-2.83 -1.7,-5.48 -3.31,-5.63 l 4.82,-0.54 c 1.48,0.09 2.63,3.47 2.9,5.41 l 4.5,32.15 c -0.1,2.73 1.26,3.62 3.89,1.77 l 9.22,-7.71 c 2.01,-1.66 8.26,0.14 7.76,4.74 l 1.7,29.05 c -0.34,3.37 0.81,3.97 3.78,2.74 l 16.59,-12.72 c 2.53,-1.88 7.15,0.36 7.4,3.81 l 3.66,33.86 c 0.25,1.66 -0.03,3.54 2.11,2.91 l 14.07,-11.08 c 3.56,-2.75 7.61,0.89 8.04,4.01 l 4.21,37.37 c -0.53,4.17 2.62,5.37 4.46,4.56 9.28,-4.07 16.97,-12.42 25.46,-12.78 4.85,-0.72 11.86,1.97 13.82,7.02 2.61,6.69 6.92,12.5 -6.32,23.91 l -20.68,16.33 c -8.68,7.81 -10.2,6.63 -16.09,6.78 z"
             style="fill:url(#linearGradient4377)"
             sodipodi:nodetypes="cccscsccccccccccccccccccccccccccccccscsccc"
             id="path3326"
             inkscape:connector-curvature="0" />
          <g
             transform="matrix(0.92048,0,0,0.92048,45.317,38.964)"
             id="g3462">
            <path
               style="fill:url(#linearGradient4379)"
               sodipodi:nodetypes="cccccccccccccccccccccccccccccccccccscccccccccccccccccccccccccccccccccc"
               d="m 606.57,333.71 c 0.15,-2.29 -3.42,-2.13 -3.97,1.5 l -10.12,39.15 c -1.43,4.22 -3.11,3.6 -4.84,2.06 l -17.79,-18.73 c -1.42,-1.43 -4.18,-2.5 -5.79,2.36 l -9.7,39.45 c -0.79,2.63 -2.03,3.76 -4.35,1.25 l -18.99,-26.78 c -2.86,-2.94 -5.72,-5.78 -8.29,0 l -15.88,33.74 c -1.69,3.34 -3.53,3.91 -5.52,1.41 l -19.68,-28.07 c -2.25,-2.43 -3.84,-3.52 -6.33,1.29 l -20.14,28.71 c -1.54,2.89 -4.08,3.88 -5.3,0.65 l -16.69,-28.2 c -1.38,-2.38 -4.24,-3.73 -7.02,-0.52 l -17.49,31.04 c -3.49,5.38 -5.37,4.8 -9.32,-0.52 l -16.58,-29.49 c -2.14,-3.24 -4.64,-0.91 -6.67,1.68 l -16.66,25.84 c -2.01,2.35 -4.01,2.99 -6.01,-0.48 L 341.7,384.53 c -1.81,-4.4 -5.33,-4.46 -6.56,-1.68 l -18.18,21.65 c -1.43,0.98 -2.79,1.35 -3.92,-0.4 l -12.66,-30.52 c -0.49,-2 -2.25,-2.44 -3.11,-1.41 l -13.8,20.67 c -1.58,1.75 -6.25,-0.85 -6.69,-3.45 -5.39,-18.58 -7.54,-34.82 -12.08,-44.01 -2.84,-6.82 -10.21,-8.49 -14.73,-6.69 -1.11,0.38 -2.44,1.19 -3.55,2.15 4.04,-3.25 5.57,-3.93 8.16,-4.93 4.44,-1.72 10.12,-1.54 12.91,4.98 4.46,8.77 6.58,24.27 11.88,42.02 1.1,6.05 5.14,8.08 6.69,6.41 l 13.47,-21.07 c 0.84,-0.98 3.36,-0.33 3.84,1.58 l 11.67,27.12 c 1.11,1.66 2.45,1.31 3.86,0.38 l 17.88,-20.67 c 1.21,-2.65 4.68,-2.6 6.46,1.6 l 11.55,25.33 c 1.97,3.3 3.94,2.7 5.91,0.45 l 16.39,-24.67 c 2,-2.47 4.46,-4.7 6.57,-1.6 l 16.31,28.15 c 3.88,5.08 5.73,5.64 9.17,0.49 l 17.21,-29.62 c 2.73,-3.08 5.54,-1.79 6.9,0.49 l 16.42,26.92 c 1.21,3.09 3.7,2.14 5.21,-0.61 l 19.82,-27.42 c 1.9,-2.99 4.02,-2.81 6.22,-1.23 l 19.37,26.8 c 1.96,2.38 3.77,1.84 5.43,-1.35 L 520.4,369.6 c 2.99,-5.51 7.39,-5.11 10.68,-0.47 l 17.1,24.62 c 2.29,2.39 3.5,1.31 4.28,-1.19 l 9.15,-35.65 c 1.04,-4.19 4.65,-5.49 8.1,-2.7 l 15.5,16.31 c 1.7,1.47 3.35,2.07 4.75,-1.97 l 9.97,-37.37 c 0.78,-3.04 2.99,-2.56 4.21,-1.42 1.76,1.55 2.38,2.65 2.43,3.95 z"
               id="path3303"
               inkscape:connector-curvature="0" />
            <path
               style="fill:url(#linearGradient4381)"
               sodipodi:nodetypes="cccsccccsccccccccccccccccccccccccccccccccc"
               d="m 606.72,334.04 -1.26,46.21 c -0.15,6.07 -4.16,13.32 -10.61,21.99 -19.16,18.72 -29.74,23.02 -60.31,29.43 -36.59,7.67 -76.34,9.88 -114.99,9.09 -48.27,-0.97 -91.79,-1.19 -172.22,-37.28 -2.81,-1.31 -4.54,-10.59 -4.81,-15.26 l -0.03,-37.17 c -0.12,-6.6 3.5,-10.77 7.48,-12.36 4.52,-1.8 11.89,-0.13 14.73,6.69 4.54,9.19 6.69,25.43 12.08,44.01 0.44,2.6 5.11,5.2 6.69,3.45 l 13.8,-20.67 c 0.86,-1.03 2.62,-0.59 3.11,1.41 l 12.66,30.52 c 1.13,1.75 2.49,1.38 3.92,0.4 l 18.18,-21.65 c 1.23,-2.78 4.75,-2.72 6.56,1.68 l 11.74,26.52 c 2,3.47 4,2.83 6.01,0.48 l 16.66,-25.84 c 2.03,-2.59 4.53,-4.92 6.67,-1.68 l 16.58,29.49 c 3.95,5.32 5.83,5.9 9.32,0.52 l 17.49,-31.04 c 2.78,-3.21 5.64,-1.86 7.02,0.52 l 16.69,28.2 c 1.22,3.23 3.76,2.24 5.3,-0.65 l 20.14,-28.71 c 2.83,-5.15 4.08,-3.95 6.33,-1.29 l 19.65,27.93 c 2,2.5 3.83,1.93 5.52,-1.41 l 15.91,-33.6 c 2.57,-5.78 4.2,-5.51 8.29,0 l 18.96,26.64 c 2.32,2.51 3.56,1.38 4.35,-1.25 l 9.49,-38.37 c 1.53,-6.04 4.29,-5.2 5.71,-3.77 l 18.11,19.2 c 1.73,1.54 3.41,2.16 4.84,-2.06 l 10.12,-39.15 c 0.55,-3.63 4.26,-3.46 4.12,-1.17 z"
               id="path3320"
               inkscape:connector-curvature="0" />
          </g>
          <path
             style="fill:url(#radialGradient4383)"
             sodipodi:nodetypes="cssc"
             d="m 272.74,364.07 c 0.39,-5.03 3.73,-8.33 6.42,-8.48 7.26,-0.39 11.88,17.42 4.38,20.06 -6.13,2.16 -11.12,-5.01 -10.8,-11.58 z"
             id="path3242"
             inkscape:connector-curvature="0" />
        </g>
      </g>
    </g>
    <g
       inkscape:label="Layer 1"
       id="layer1-6"
       transform="matrix(2.523706,0,0,2.523706,1588.2709,441.4639)">
      <g
         id="g4023">
        <path
           d="m 40.098,91.252 c 12.583,3.4516 21.342,15.925 34.951,16.416 9.9834,1.3022 24.075,3.217 30.103,1.5434 14.458,-8.7502 18.89,-26.374 18.777,-37.91 -1.99,-7.135 -7.24,-12.651 -12.15,-17.94 -4.41,-9.214 -13.045,-15.932 -19.702,-23.662 -8.317,-8.677 -20.914,-6.631 -31.785,-8.86 -10.445,-2.529 -20.827,-9.749 -32.011,-6.745 -11.317,1.217 -22.023,8.135 -23.304,19.993 -3.5362,19.25 5.332,40.326 22.832,49.931"
           style="fill:#ffffff;fill-rule:evenodd"
           sodipodi:nodetypes="cccccccccc"
           id="path1655"
           inkscape:connector-curvature="0" />
        <path
           d="m 7.5707,27.435 c -2.4698,6.1101 -1.5788,10.174 -2.6389,16.623 0.076631,2.9143 0.44866,9.3239 1.8184,6.1549 2.466,-7.019 5.2978,-19.79 13.063,-22.619 5.0832,-2.4903 10.74,-3.4977 16.357,-3.2589 4.8929,-0.94867 10.182,-2.1419 14.815,0.3889 7.5973,3.1861 25.241,5.5517 34.235,4.2511 3.0524,1.0324 -3.872,-3.6189 -6.8581,-5.7173 -8.874,-4.887 -20.146,-2.832 -29.395,-6.671 -6.414,-2.356 -12.039,-3.171 -18.814,-1.929 -7.934,0.365 -13.049,-2.388 -17.492,4.991 -0.593,0.8 -4.5932,6.927 -5.0903,7.786 z"
           style="fill:#ffffff;fill-opacity:0.12353001;fill-rule:evenodd"
           sodipodi:nodetypes="cccccccccccc"
           id="path4927"
           inkscape:connector-curvature="0" />
        <path
           d="m 3.8422,42.211 c 2.031,-7.2369 2.6324,-15.369 7.8083,-21.255 4.9823,-5.4779 12.857,-5.9952 19.771,-6.4318 4.1103,-0.52802 8.3258,-0.74925 12.353,0.42758 6.4891,1.6154 12.638,4.7201 19.413,5.0574 4.6192,0.55454 9.1218,1.8898 13.476,3.4376 3.4003,1.1036 1.6984,4.1752 -1.2738,3.2128 -6.299,-0.024 -12.707,-0.155 -18.72,-2.277 -3.338,-0.862 -6.411,-2.626 -9.788,-3.281 -3.663,-0.521 -7.185,0.999 -10.764,1.294 -3.931,-0.177 -8.023,-0.187 -11.659,1.516 -5.437,1.422 -10.952,4.363 -13.468,9.646 -2.1864,3.597 -3.1609,7.752 -4.6977,11.608 -1.6345,2.087 -3.3837,-1.636 -2.4501,-2.955 z"
           style="fill:#ffffff;fill-opacity:0.12549002;fill-rule:evenodd"
           id="path4011"
           inkscape:connector-curvature="0" />
        <path
           d="m 9.5897,21.313 c -4.0861,7.1737 -6.2242,13.9 -5.5151,22.525 -0.33267,10.789 4.5144,19.247 8.3911,28.979 4.5354,8.784 16.033,9.9437 21.903,17.438 7.4232,3.586 14.947,4.7227 21.143,10.508 8.4439,6.2525 20.283,7.8541 30.422,8.8063 8.1869,1.5442 15.445,6.0913 22.412,-0.97781 7.7752,-7.2676 15.013,-16.523 15.252,-27.48 2.7233,-7.9489 2.3803,-17.313 -5.2054,-22.488 -10.3,-11.422 -18.34,-25.404 -31.743,-33.633 -12.015,-5.807 -24.496,-1.878 -36.239,-8.579 -9.054,-4.057 -16.266,-3.285 -27.379,-2.028 -3.974,0.607 -10.756,3.816 -13.439,6.93 z m 1.0891,2.1816 c 6.2247,-7.4302 16.316,-6.7719 24.846,-8.1358 8.5688,-1.4632 15.892,4.5227 23.81,6.2091 12.077,2.281 26.682,1.8728 35.576,11.926 10.685,10.222 15.846,22.963 26.71,33.022 -0.32291,8.6234 0.90027,15.77 -3.1074,27.406 -4.6959,6.8046 -10.621,15.968 -20.039,15.447 -7.679,-1.36 -15.489,-3.69 -23.285,-4.43 -9.256,-1.08 -17.992,-4.38 -25.026,-10.358 -5.609,-5.061 -14.311,-4.299 -19.225,-10.385 -5.734,-5.344 -13.877,-7.905 -17.846,-15.268 -3.6303,-8.583 -6.7939,-16.787 -7.1874,-26.295 -0.7991,-7.009 1.2071,-14.637 4.7784,-19.139 z"
           style="fill:#000000"
           sodipodi:nodetypes="cccccccccccccccccccccccccc"
           id="path1292"
           inkscape:connector-curvature="0" />
        <path
           d="m 88.702,88.54 c 0.0033,0.84738 0.14962,2.8939 0.96954,1.1413 1.7785,-1.9824 4.333,-2.9729 6.7848,-3.8381 1.8125,0.51741 3.0288,2.4345 3.3649,4.1853 -0.32274,0.9723 -1.2442,3.0023 -0.24875,3.4548 1.5061,-2.5219 1.3605,-6.012 -0.6876,-8.1994 -0.80588,-1.4896 -2.6866,-2.1212 -4.1061,-1.0845 -2.3152,0.91725 -4.7633,2.1178 -6.0768,4.3406 z m 1.1299,4.6964 c -0.46139,1.5362 -0.22638,3.3274 1.2565,4.2243 1.4134,1.3661 3.5404,1.528 5.2644,0.69763 1.4234,0.06006 2.0552,-2.87 0.78871,-2.747 -1.535,1.1199 -4.3041,1.6814 -5.4887,-0.21808 -0.26016,-0.92429 -1.9189,-2.3652 -1.524,-0.41411 -0.05241,1.9429 0.0041,-2.8202 -0.04474,-0.23331 -0.0918,1.7523 -0.17679,-1.0431 -0.25212,-1.3094 z"
           style="fill:#000000;stroke:#000000"
           id="path5884"
           inkscape:connector-curvature="0" />
        <path
           d="m 39.693,34.213 c 0.38433,0.6037 1.4112,1.9994 1.2069,0.3781 0.37668,-2.2175 1.7547,-4.0763 3.1158,-5.7994 1.5277,-0.4474 3.2605,0.37352 4.2898,1.4725 0.20774,0.8399 0.46461,2.7051 1.3796,2.5796 -0.06107,-2.48 -1.7381,-4.9071 -4.1869,-5.5462 -1.247,-0.70069 -2.8749,-0.30406 -3.4214,1.0762 -1.2401,1.6987 -2.4475,3.6596 -2.3837,5.8391 z m 2.9238,2.8449 c 0.36288,1.3051 1.3381,2.4785 2.8014,2.4507 1.6253,0.33862 3.2173,-0.50445 4.0743,-1.8746 1.0437,-0.5987 0.17424,-2.9762 -0.67487,-2.3175 -0.59155,1.4918 -2.3162,3.1409 -4.0184,2.3182 -0.60242,-0.54288 -2.4366,-0.8243 -1.2751,0.39116 0.83832,1.4113 -1.2683,-2.0161 -0.13712,-0.14647 0.72428,1.2929 -0.59645,-0.66534 -0.77026,-0.82156 z"
           style="fill:#000000;stroke:#000000"
           id="path6666"
           inkscape:connector-curvature="0" />
        <path
           d="m 36.548,34.276 c -0.1135,2.4704 1.3453,4.6244 2.7435,6.529 0.76397,0.93445 1.9438,1.5442 3.1406,1.6786 0.82314,0.18558 1.3793,-0.51721 0.66453,-1.1376 -0.93022,-0.92906 -2.4976,-0.39312 -3.459,-1.2839 -1.5796,-0.94597 -2.0636,-2.9544 -1.8871,-4.6787 0.11329,-0.69098 0.09942,-1.5034 0.61004,-2.0253 0.33258,-0.75713 0.0061,-1.7899 -0.69015,-2.2281 -0.91297,0.13223 -0.6116,1.576 -0.97262,2.2599 -0.06414,0.29272 -0.11812,0.58805 -0.14977,0.88619 z m 12.705,-8.7512 c 0.3375,1.6402 2.3363,2.4491 2.3383,4.213 -0.03449,1.123 0.14107,2.2539 0.03239,3.3811 -0.07101,1.0655 -0.28376,2.1331 -0.73502,3.106 0.02622,0.60656 0.67326,1.706 1.3364,1.2565 0.26605,-1.0379 0.42717,-2.1289 0.57458,-3.2005 0.23757,-1.7965 0.0259,-3.6666 -0.82002,-5.2869 -0.56533,-1.1112 -1.2227,-2.227 -2.1373,-3.0807 -0.19368,-0.13372 -0.39914,-0.24967 -0.58944,-0.38839 z"
           style="fill:#ffffff;fill-opacity:0.17059003"
           id="path6668"
           inkscape:connector-curvature="0" />
        <path
           d="m 44.952,80.922 c -0.11763,0.63888 -0.29757,2.2014 0.56864,0.99728 1.6209,-1.2414 3.6859,-1.6254 5.6558,-1.9297 1.2921,0.64678 1.9367,2.2635 1.9417,3.6303 -0.381,0.68676 -1.363,2.0855 -0.67723,2.5676 1.4922,-1.6865 1.8774,-4.3365 0.64447,-6.2749 -0.39595,-1.2366 -1.7233,-1.979 -2.9397,-1.3992 -1.8743,0.3628 -3.8889,0.9202 -5.1936,2.4086 z m 0.18539,3.6984 c -0.5654,1.0919 -0.64231,2.4748 0.34772,3.3607 0.87118,1.2296 2.4506,1.6531 3.8672,1.272 1.0639,0.24706 1.9553,-1.8709 0.98368,-1.9578 -1.3153,0.62611 -3.4811,0.65656 -4.1043,-0.94248 -0.06496,-0.73324 -1.1104,-2.054 -1.0894,-0.52805 -0.31495,1.4564 0.40294,-2.1242 -6.31e-4,-0.18212 -0.3176,1.3072 0.0147,-0.81096 -0.0043,-1.0222 z"
           style="fill:#000000;stroke:#000000"
           id="path6672"
           inkscape:connector-curvature="0" />
        <path
           d="m 42.822,79.02 c -1.6023,1.5721 -1.9638,3.9058 -2.2114,6.0361 -0.06966,1.0934 0.33782,2.228 1.0504,3.057 0.43252,0.63212 1.2366,0.50868 1.1449,-0.34558 -0.0442,-1.1926 -1.4174,-1.805 -1.506,-2.9914 -0.46547,-1.6052 0.45416,-3.2395 1.6372,-4.2768 0.50238,-0.38935 0.99527,-0.93799 1.6573,-0.96936 0.68905,-0.29778 1.1103,-1.1861 0.91828,-1.9078 -0.68867,-0.47636 -1.3807,0.66972 -2.0433,0.90123 -0.22356,0.15496 -0.44197,0.31793 -0.64729,0.49657 z m 13.855,2.0347 c -0.78935,1.299 0.03949,3.0722 -1.0494,4.246 -0.71702,0.72525 -1.2993,1.5856 -2.0682,2.2678 -0.70578,0.66448 -1.507,1.2427 -2.4084,1.6106 -0.35746,0.41945 -0.60681,1.5503 0.11189,1.6613 0.81838,-0.52558 1.5998,-1.1513 2.3601,-1.7726 1.2683,-1.0475 2.2834,-2.4215 2.7225,-4.0215 0.31096,-1.0881 0.56357,-2.2362 0.48322,-3.369 -0.04611,-0.2086 -0.11103,-0.41267 -0.15181,-0.62251 z"
           style="fill:#ffffff;fill-opacity:0.17059003"
           id="path6674"
           inkscape:connector-curvature="0" />
        <path
           d="m 76.063,43.691 c 0.27962,0.62437 1.057,2.0871 1.0889,0.52527 0.66432,-2.0449 2.2259,-3.6116 3.7526,-5.0521 1.507,-0.21091 3.0319,0.80624 3.8526,1.9887 0.0798,0.82323 0.06362,2.623 0.94641,2.6314 0.28678,-2.3541 -0.9622,-4.8826 -3.1894,-5.8272 -1.0821,-0.83594 -2.6768,-0.68697 -3.3855,0.54255 -1.4089,1.4343 -2.8232,3.1212 -3.0657,5.1914 z m 2.3701,3.0969 c 0.1619,1.2848 0.92125,2.5301 2.3091,2.707 1.4901,0.54606 3.113,-0.03014 4.1139,-1.207 1.0703,-0.42125 0.57825,-2.7906 -0.31633,-2.2856 -0.76672,1.3287 -2.627,2.6489 -4.1226,1.6343 -0.49435,-0.59714 -2.19,-1.1181 -1.2603,0.19281 0.59682,1.4512 -0.91941,-2.083 -0.10934,-0.15758 0.5054,1.3234 -0.47168,-0.71213 -0.61437,-0.88403 z"
           style="fill:#000000;stroke:#000000"
           id="path6678"
           inkscape:connector-curvature="0" />
        <path
           d="m 73.08,43.314 c -0.45054,2.3207 0.6299,4.5606 1.6877,6.5562 0.59274,0.98993 1.6239,1.7305 2.7372,2.0239 0.75273,0.28987 1.3764,-0.29755 0.78655,-0.98364 -0.75073,-1.0079 -2.3076,-0.71878 -3.0932,-1.6948 -1.3626,-1.1141 -1.5413,-3.081 -1.1348,-4.6872 0.20314,-0.63779 0.30288,-1.4081 0.85833,-1.8307 0.41973,-0.66988 0.25443,-1.692 -0.3432,-2.2032 -0.88185,-0.0018 -0.7974,1.4056 -1.2338,2.0022 -0.10133,0.26794 -0.19341,0.53976 -0.26476,0.81734 z m 13.232,-6.5118 c 0.09135,1.5981 1.8694,2.6409 1.6263,4.3094 -0.18864,1.0573 -0.17971,2.1514 -0.43908,3.2023 -0.21519,0.99791 -0.56472,1.978 -1.1267,2.8355 -0.05946,0.57732 0.39976,1.707 1.0894,1.374 0.39582,-0.94471 0.69977,-1.9542 0.98807,-2.9472 0.47427,-1.6661 0.53387,-3.4642 -0.04109,-5.1142 -0.38031,-1.1295 -0.84701,-2.2761 -1.5934,-3.2106 -0.1646,-0.15338 -0.34281,-0.29159 -0.50353,-0.44922 z"
           style="fill:#ffffff;fill-opacity:0.17059003"
           id="path6680"
           inkscape:connector-curvature="0" />
        <path
           d="m 16.685,60.261 c -0.47439,-0.24088 -1.6597,-0.74539 -0.91536,0.21476 0.5981,1.5615 0.41973,3.2725 0.2008,4.8902 -0.80828,0.86441 -2.2278,0.99483 -3.3023,0.68106 -0.45078,-0.45884 -1.321,-1.5552 -1.859,-1.1287 0.97757,1.5639 2.9692,2.4823 4.778,1.9646 1.0631,-0.02352 1.9547,-0.89337 1.7821,-1.9834 0.15075,-1.5563 0.18128,-3.268 -0.68433,-4.6385 z m -2.9475,-0.71406 c -0.72609,-0.69783 -1.7942,-1.0797 -2.7201,-0.50808 -1.1682,0.39835 -1.8679,1.5403 -1.8978,2.7414 -0.44132,0.77808 1.0147,1.9704 1.3088,1.2276 -0.18598,-1.1784 0.29352,-2.8864 1.6941,-3.0041 0.59093,0.11942 1.8711,-0.39458 0.66792,-0.73283 -1.0705,-0.58585 1.5745,0.81018 0.14317,0.04184 -0.95274,-0.55326 0.63345,0.20004 0.80379,0.23423 z"
           style="fill:#000000;stroke:#000000"
           id="path6684"
           inkscape:connector-curvature="0" />
        <path
           d="m 18.674,59.03 c -0.86221,-1.6237 -2.6108,-2.4501 -4.2263,-3.1397 -0.84249,-0.30886 -1.8282,-0.25257 -2.6449,0.11436 -0.59696,0.19274 -0.68692,0.85294 0.0053,0.97945 0.94683,0.24249 1.747,-0.69359 2.6993,-0.48742 1.3688,0.0076 2.4385,1.1097 2.9781,2.2798 0.18899,0.48504 0.50529,0.99964 0.37604,1.5268 0.0737,0.61035 0.67342,1.1477 1.2848,1.1646 0.53418,-0.43011 -0.20503,-1.2399 -0.23281,-1.8142 C 18.8438,59.4421 18.76658,59.2327 18.67401,59.02993 Z M 13.855,69.438 C 13.019,68.516 11.433,68.755 10.765,67.627 10.362,66.895 9.8214,66.238 9.4644,65.476 9.1067,64.767 8.8388,64.003 8.7594,63.21 8.5131,62.832 7.683,62.373 7.4287,62.912 c 0.22253,0.76486 0.53229,1.524 0.84348,2.2655 0.52782,1.2395 1.3709,2.3561 2.5254,3.0728 0.78226,0.49713 1.6251,0.96236 2.5335,1.1626 0.17454,0.01228 0.34989,0.0087 0.52416,0.02547 z"
           style="fill:#ffffff;fill-opacity:0.17059003"
           id="path6686"
           inkscape:connector-curvature="0" />
      </g>
    </g>
    <path
       style="fill:#ff0000;fill-rule:evenodd;stroke:#ff0000;stroke-width:0.713305;stroke-linecap:square;paint-order:stroke fill markers"
       d="m 356.50778,18.75344 c -17.99673,0.0289 -35.09381,8.257821 -48.64188,19.680865 -9.14145,8.537817 -16.98609,18.35356 -25.68296,27.323058 -8.99559,9.350193 -17.69319,19.112922 -27.96895,27.086766 -14.95543,10.555301 -34.35275,11.989151 -51.98177,9.582381 C 186.28218,100.09772 170.33016,93.84387 159.18381,81.83527 151.8981,74.097892 144.64819,66.16604 135.73943,60.236894 123.3587,51.608598 108.38673,46.212758 93.168576,46.885528 86.0231,46.545065 78.886879,47.586189 72.123382,49.910614 60.402752,53.892886 49.017842,59.721227 39.996559,68.314025 29.805136,78.079615 25.613446,92.302708 24.34495,105.99432 c -2.96879,28.25147 6.027806,56.81945 21.66533,80.21142 16.988911,26.29395 42.176889,46.75986 70.56471,59.67581 32.59055,14.98772 68.53586,21.07972 104.1455,22.92084 13.16374,0.60193 26.35753,0.15208 39.53179,0.10759 23.10102,-0.51136 46.1947,-3.37652 68.65097,-8.85732 31.76667,-7.82503 62.64106,-22.50267 85.54426,-46.31663 20.27637,-20.91723 33.77054,-48.00031 39.72939,-76.41756 4.02958,-21.24918 2.05401,-44.056722 -8.08491,-63.389898 -10.19773,-20.660037 -28.40828,-36.787632 -49.50414,-45.75373 -11.5226,-4.789759 -23.67972,-8.732956 -36.22417,-9.365335 -1.28454,-0.0506 -2.57047,-0.06359 -3.8559,-0.05607 z m -37.51794,56.704865 c 4.43111,-0.232495 9.33741,1.23321 11.71297,5.297675 3.79739,6.450724 2.30252,14.494175 -0.0332,21.1988 -5.20198,13.0223 -16.98488,21.94929 -28.7686,28.70962 -12.75791,6.99194 -26.82992,12.09337 -41.3913,13.0702 -8.9346,0.1478 -18.14096,0.49388 -26.83044,-1.50983 -1.56907,0.0301 -2.29628,-1.86005 -3.70306,-1.8696 0.86428,-2.00389 -0.29005,-5.02582 2.31856,-6.11009 5.07172,-2.19665 10.76365,-2.17624 16.14774,-3.2307 12.88331,-1.85099 26.18177,-6.18965 35.22806,-16.01052 7.65817,-8.92059 11.50722,-20.336227 18.51212,-29.723279 3.40749,-4.959504 8.361,-9.789528 14.78861,-9.768458 0.67191,-0.04243 1.34541,-0.05271 2.01851,-0.05382 z M 76.803733,76.8229 c 4.359199,0.227124 7.190465,4.364619 7.792332,8.359848 2.138742,7.298825 4.502837,14.617154 8.610846,21.080362 1.396467,2.20957 1.392602,5.37109 -0.927425,6.97042 -4.230561,2.29115 -8.712139,-0.80677 -12.475261,-2.66358 C 72.249955,106.16321 65.328039,98.758143 64.765643,89.618117 64.304658,82.980129 70.214331,76.905216 76.803733,76.8229 Z m 24.518507,33.92915 c 3.94235,0.6422 7.21324,3.37777 10.60551,5.33442 3.4757,2.5772 8.2307,4.95182 9.07905,9.6238 0.27145,4.36922 -4.6853,7.36984 -8.66383,6.53105 -6.69273,-1.21956 -13.969272,-4.84165 -16.405389,-11.65621 -1.130145,-3.24081 -1.240457,-8.43248 2.869265,-9.52491 0.817244,-0.22895 1.669754,-0.29773 2.515394,-0.30815 z m 112.79342,23.74516 c 4.81683,0.25616 9.99815,1.34516 13.7595,4.52802 0.32087,0.71202 1.48411,1.45492 1.73689,1.62336 -0.0856,1.94635 0.6805,4.20698 -0.63032,6.00909 -2.95193,4.13581 -8.65402,4.29097 -13.23534,4.86861 -4.31435,0.61943 -8.8925,-2.28292 -9.46519,-6.74041 -0.0841,-2.96443 -0.4359,-6.57838 2.30898,-8.51491 1.51299,-1.31401 3.56062,-1.79471 5.52548,-1.77376 z"
       id="path564"
       transform="matrix(0.9375,0,0,0.9375,0,782.36218)" />
  </g>
</svg>
